# Object Export From Tinkercad Server 2015

mtllib obj.mtl

o obj_0
v 9.3829 		8.12 		50
v 9.4442 		8.1616 		50
v 9.5129 		8.19 		50
v 8.9729 		7.56 		50
v 9.1469 		7.8524 		50
v 10.9144 		2.1518 		50
v 8.9248 		2.951 		50
v 12.3908 		-2.835 		50
v 13.4329 		-2.96 		50
v 14.1932 		-3.1879 		50
v 11.1954 		-2.7436 		50
v 11.3429 		-2.75 		50
v 10.9329 		-1.69 		50
v 8.9329 		-1.77 		50
v 8.9326 		-1.7234 		50
v 8.9333 		-1.6767 		50
v 9.0474 		-3.07 		50
v 8.9805 		-2.3239 		50
v 9.0029 		-3.11 		50
v 9.0224 		-3.0913 		50
v 8.7829 		-3.62 		50
v 8.8679 		-3.3541 		50
v 8.9329 		-4.3 		50
v 8.8284 		-3.9687 		50
v 9.1743 		-4.5242 		50
v 9.0256 		-4.4006 		50
v 9.1829 		-12.16 		50
v 9.2123 		-11.6628 		50
v 9.2629 		-11.16 		50
v 9.2751 		-16.0475 		50
v 9.2829 		-15.82 		50
v 9.3591 		-15.2152 		50
v 9.4208 		-16.5213 		50
v 9.2929 		-16.27 		50
v 9.8229 		-16.8952 		50
v 9.5829 		-16.75 		50
v 10.3667 		-16.9947 		50
v 10.0829 		-17 		50
v 10.9168 		-16.7309 		50
v 10.6429 		-16.94 		50
v 11.2591 		-16.149 		50
v 11.1529 		-16.48 		50
v 11.4413 		-14.1678 		50
v 11.3229 		-15.8 		50
v 11.3665 		-12.1884 		50
v 11.5029 		-12.54 		50
v 11.2804 		-8.5296 		50
v 11.2629 		-11.25 		50
v 11.2297 		-11.5469 		50
v 11.2359 		-5.3531 		50
v 11.2629 		-5.81 		50
v 14.5029 		-5.37 		50
v 13.7376 		-5.1401 		50
v 12.9729 		-4.9 		50
v 16.4429 		-5.41 		50
v 15.4718 		-5.4227 		50
v 17.5529 		-5.12 		50
v 17.0079 		-5.2968 		50
v 18.8029 		-4.19 		50
v 18.1941 		-4.6806 		50
v 19.6329 		-3.22 		50
v 19.2447 		-3.7231 		50
v 19.8929 		-2.13 		50
v 19.7874 		-2.6855 		50
v 19.9829 		-1.12 		50
v 19.9483 		-1.6262 		50
v 19.9929 		1.52 		50
v 20 		0.2001 		50
v 19.8229 		3.65 		50
v 19.9207 		2.586 		50
v 19.6429 		4.6 		50
v 19.7439 		4.1272 		50
v 19.2729 		5.65 		50
v 19.4706 		5.1298 		50
v 18.7729 		6.49 		50
v 19.0389 		6.0804 		50
v 17.8429 		7.37 		50
v 18.3244 		6.9479 		50
v 16.8429 		7.87 		50
v 17.3548 		7.6428 		50
v 14.8229 		8.34 		50
v 15.8386 		8.1251 		50
v 13.6329 		8.44 		50
v 14.2295 		8.4039 		50
v 10.0929 		8.43 		50
v 11.8596 		8.4563 		50
v 9.6097 		8.2055 		50
v 9.8487 		8.3454 		50
v 9.5556 		8.1968 		50
v 10.9314 		6.4668 		50
v 14.9529 		-3.41 		50
v 11.0037 		-2.7375 		50
v 10.9567 		-2.1407 		50
v 9.3397 		-12.5143 		50
v 9.4329 		-14.61 		50
v 11.2129 		-11.84 		50
v 11.1862 		-4.7473 		50
v 12.887 		6.431 		50
v 9.2821 		-8.4846 		50
v 14.4429 		6.38 		50
v 9.2629 		-5.81 		50
v 9.4852 		-13.737 		50
v 12.1157 		-4.8079 		50
v 15.2922 		6.2136 		50
v 9.4929 		-12.87 		50
v 11.2529 		-4.75 		50
v 11.2212 		-4.7485 		50
v 16.1329 		6 		50
v 15.617 		-3.4339 		50
v 16.3786 		5.9016 		50
v 16.2829 		-3.41 		50
v 9.2314 		-5.2618 		50
v 16.6129 		5.78 		50
v 16.8864 		5.5547 		50
v 17.1429 		5.31 		50
v 16.5487 		-3.3469 		50
v 17.2923 		5.0963 		50
v 17.4229 		4.87 		50
v 16.8029 		-3.25 		50
v 17.5668 		4.5035 		50
v 17.1355 		-2.9965 		50
v 17.6929 		4.13 		50
v 17.4529 		-2.72 		50
v 17.7771 		3.7569 		50
v 17.6514 		-2.52 		50
v 17.8429 		3.38 		50
v 17.8129 		-2.3 		50
v 17.9269 		-1.6274 		50
v 17.929 		2.4109 		50
v 17.9929 		-0.94 		50
v 17.9929 		1.44 		50
v 18.0077 		0.2497 		50
v 9.5129 		8.19 		52
v 9.4442 		8.1616 		52
v 9.3829 		8.12 		52
v 9.1469 		7.8524 		52
v 8.9729 		7.56 		52
v 8.9248 		2.951 		52
v 10.9144 		2.1518 		52
v 14.1932 		-3.1879 		52
v 13.4329 		-2.96 		52
v 12.3908 		-2.835 		52
v 11.3429 		-2.75 		52
v 11.1954 		-2.7436 		52
v 10.9329 		-1.69 		52
v 8.9333 		-1.6767 		52
v 8.9326 		-1.7234 		52
v 8.9329 		-1.77 		52
v 8.9805 		-2.3239 		52
v 9.0474 		-3.07 		52
v 9.0224 		-3.0913 		52
v 9.0029 		-3.11 		52
v 8.8679 		-3.3541 		52
v 8.7829 		-3.62 		52
v 8.8284 		-3.9687 		52
v 8.9329 		-4.3 		52
v 9.0256 		-4.4006 		52
v 9.1743 		-4.5242 		52
v 9.2629 		-11.16 		52
v 9.2123 		-11.6628 		52
v 9.1829 		-12.16 		52
v 9.3591 		-15.2152 		52
v 9.2829 		-15.82 		52
v 9.2751 		-16.0475 		52
v 9.2929 		-16.27 		52
v 9.4208 		-16.5213 		52
v 9.5829 		-16.75 		52
v 9.8229 		-16.8952 		52
v 10.0829 		-17 		52
v 10.3667 		-16.9947 		52
v 10.6429 		-16.94 		52
v 10.9168 		-16.7309 		52
v 11.1529 		-16.48 		52
v 11.2591 		-16.149 		52
v 11.3229 		-15.8 		52
v 11.4413 		-14.1678 		52
v 11.5029 		-12.54 		52
v 11.3665 		-12.1884 		52
v 11.2297 		-11.5469 		52
v 11.2629 		-11.25 		52
v 11.2804 		-8.5296 		52
v 11.2629 		-5.81 		52
v 11.2359 		-5.3531 		52
v 12.9729 		-4.9 		52
v 13.7376 		-5.1401 		52
v 14.5029 		-5.37 		52
v 15.4718 		-5.4227 		52
v 16.4429 		-5.41 		52
v 17.0079 		-5.2968 		52
v 17.5529 		-5.12 		52
v 18.1941 		-4.6806 		52
v 18.8029 		-4.19 		52
v 19.2447 		-3.7231 		52
v 19.6329 		-3.22 		52
v 19.7874 		-2.6855 		52
v 19.8929 		-2.13 		52
v 19.9483 		-1.6262 		52
v 19.9829 		-1.12 		52
v 20 		0.2001 		52
v 19.9929 		1.52 		52
v 19.9207 		2.586 		52
v 19.8229 		3.65 		52
v 19.7439 		4.1272 		52
v 19.6429 		4.6 		52
v 19.4706 		5.1298 		52
v 19.2729 		5.65 		52
v 19.0389 		6.0804 		52
v 18.7729 		6.49 		52
v 18.3244 		6.9479 		52
v 17.8429 		7.37 		52
v 17.3548 		7.6428 		52
v 16.8429 		7.87 		52
v 15.8386 		8.1251 		52
v 14.8229 		8.34 		52
v 14.2295 		8.4039 		52
v 13.6329 		8.44 		52
v 11.8596 		8.4563 		52
v 10.0929 		8.43 		52
v 9.8487 		8.3454 		52
v 9.6097 		8.2055 		52
v 9.5556 		8.1968 		52
v 10.9314 		6.4668 		52
v 14.9529 		-3.41 		52
v 11.0037 		-2.7375 		52
v 10.9567 		-2.1407 		52
v 9.3397 		-12.5143 		52
v 9.4329 		-14.61 		52
v 11.2129 		-11.84 		52
v 11.1862 		-4.7473 		52
v 12.887 		6.431 		52
v 9.2821 		-8.4846 		52
v 14.4429 		6.38 		52
v 9.2629 		-5.81 		52
v 9.4852 		-13.737 		52
v 12.1157 		-4.8079 		52
v 15.2922 		6.2136 		52
v 9.4929 		-12.87 		52
v 11.2529 		-4.75 		52
v 11.2212 		-4.7485 		52
v 16.1329 		6 		52
v 15.617 		-3.4339 		52
v 16.3786 		5.9016 		52
v 16.2829 		-3.41 		52
v 9.2314 		-5.2618 		52
v 16.6129 		5.78 		52
v 16.8864 		5.5547 		52
v 17.1429 		5.31 		52
v 16.5487 		-3.3469 		52
v 17.2923 		5.0963 		52
v 17.4229 		4.87 		52
v 16.8029 		-3.25 		52
v 17.5668 		4.5035 		52
v 17.1355 		-2.9965 		52
v 17.6929 		4.13 		52
v 17.4529 		-2.72 		52
v 17.7771 		3.7569 		52
v 17.6514 		-2.52 		52
v 17.8429 		3.38 		52
v 17.8129 		-2.3 		52
v 17.9269 		-1.6274 		52
v 17.929 		2.4109 		52
v 17.9929 		-0.94 		52
v 17.9929 		1.44 		52
v 18.0077 		0.2497 		52
v 0.7129 		8.45 		50
v 1.5729 		8.5315 		50
v 2.4329 		8.61 		50
v -0.1871 		8.45 		50
v 0.2628 		8.4511 		50
v -2.1471 		8.23 		50
v -1.1723 		8.3622 		50
v -3.1071 		7.76 		50
v -2.6389 		8.0222 		50
v -4.0271 		6.92 		50
v -3.5886 		7.361 		50
v -4.5771 		5.76 		50
v -4.3237 		6.3535 		50
v -4.8571 		4.75 		50
v -4.7389 		5.2597 		50
v -4.8971 		1.68 		50
v -4.8849 		3.2169 		50
v -5.2171 		-3.53 		50
v -5.0666 		-0.9248 		50
v -3.2185 		-4.2306 		50
v -5.2336 		-9.3012 		50
v -3.2178 		-3.6394 		50
v -3.2175 		-3.6989 		50
v -3.2181 		-3.95 		50
v -2.8971 		1.61 		50
v -3.0493 		-0.9852 		50
v -3.2171 		-3.58 		50
v 1.713 		6.5291 		50
v 0.8029 		6.45 		50
v 0.3529 		6.45 		50
v 4.1665 		-0.1952 		50
v 4.1629 		0.79 		50
v 4.2032 		1.195 		50
v 2.3029 		-4.15 		50
v 3.0096 		-4.1542 		50
v 3.8307 		-4.1665 		50
v 0.1478 		-3.9744 		50
v 0.6529 		-3.99 		50
v 1.4779 		-4.0706 		50
v -1.4169 		-4.1056 		50
v -0.3571 		-3.98 		50
v -2.7911 		-4.2359 		50
v -5.2171 		-15.19 		50
v -5.2186 		-15.1319 		50
v -5.2171 		-15.0734 		50
v -5.1171 		-15.63 		50
v -5.1788 		-15.416 		50
v -4.6171 		-16.11 		50
v -4.8835 		-15.8889 		50
v -4.0671 		-16.18 		50
v -4.3465 		-16.1697 		50
v -3.5571 		-15.94 		50
v -3.8025 		-16.0803 		50
v -3.2571 		-15.47 		50
v -3.378 		-15.72 		50
v -3.2178 		-6.2375 		50
v -3.2182 		-11.3583 		50
v -2.4071 		-6.23 		50
v -2.7504 		-6.2387 		50
v -0.2571 		-5.98 		50
v -1.3319 		-6.1104 		50
v 2.1029 		-6.14 		50
v 1.2778 		-6.062 		50
v 0.4529 		-5.98 		50
v 3.6036 		-6.1523 		50
v 2.8042 		-6.1533 		50
v 3.5029 		-7.36 		50
v 3.5414 		-6.8477 		50
v 3.2629 		-10.8 		50
v 3.3723 		-9.9401 		50
v 3.5029 		-9.08 		50
v 3.5729 		-14.64 		50
v 3.4054 		-12.7197 		50
v 3.5029 		-15.08 		50
v 3.5354 		-14.8611 		50
v 3.7229 		-15.74 		50
v 3.5916 		-15.4196 		50
v 4.1829 		-16.06 		50
v 3.9371 		-15.9227 		50
v 4.8729 		-16.04 		50
v 4.5305 		-16.0807 		50
v 5.3929 		-15.57 		50
v 5.1528 		-15.8296 		50
v 5.5629 		-14.89 		50
v 5.5053 		-15.2391 		50
v 5.5003 		-8.4454 		50
v 5.4929 		-9.35 		50
v 5.3681 		-10.1301 		50
v 6.0398 		-2.6459 		50
v 5.9029 		-3.91 		50
v 5.8173 		-4.4049 		50
v 6.1619 		-0.3402 		50
v 6.1529 		-1.38 		50
v 6.2429 		1.51 		50
v 6.2035 		1.105 		50
v 6.1629 		0.7 		50
v 6.2429 		4.24 		50
v 6.252 		2.875 		50
v 6.1629 		5.22 		50
v 6.2169 		4.7319 		50
v 5.5829 		7.28 		50
v 5.9051 		6.2637 		50
v 4.7529 		8.26 		50
v 5.2057 		7.8058 		50
v 3.5429 		8.59 		50
v 4.1647 		8.4596 		50
v 2.9893 		8.6164 		50
v -2.9102 		2.9732 		50
v -0.0971 		6.45 		50
v 4.2429 		1.6 		50
v -2.4771 		-4.23 		50
v 3.5045 		-8.2203 		50
v 5.2629 		-10.9101 		50
v 5.7329 		-4.9 		50
v -2.8971 		4.33 		50
v 2.6229 		6.61 		50
v 4.1629 		-1.18 		50
v 5.5029 		-7.54 		50
v 5.4084 		-12.9006 		50
v 5.6069 		-6.2191 		50
v -2.7153 		4.9957 		50
v -2.4671 		5.64 		50
v -2.2828 		5.8526 		50
v 0.0978 		-5.9718 		50
v -2.0671 		6.04 		50
v -1.8143 		6.1917 		50
v -1.5471 		6.31 		50
v 3.8923 		-3.8319 		50
v 3.9329 		-3.58 		50
v -0.8256 		6.3954 		50
v 4.0596 		-2.3809 		50
v 2.9382 		6.6168 		50
v 3.2529 		6.61 		50
v 4.2518 		2.835 		50
v 3.4517 		6.5794 		50
v 4.2429 		4.07 		50
v 3.6429 		6.53 		50
v 4.2152 		4.5466 		50
v 3.7217 		6.4586 		50
v 4.1629 		5.02 		50
v 3.7829 		6.37 		50
v 3.9863 		5.6994 		50
v 2.4329 		8.61 		52
v 1.5729 		8.5315 		52
v 0.7129 		8.45 		52
v 0.2628 		8.4511 		52
v -0.1871 		8.45 		52
v -1.1723 		8.3622 		52
v -2.1471 		8.23 		52
v -2.6389 		8.0222 		52
v -3.1071 		7.76 		52
v -3.5886 		7.361 		52
v -4.0271 		6.92 		52
v -4.3237 		6.3535 		52
v -4.5771 		5.76 		52
v -4.7389 		5.2597 		52
v -4.8571 		4.75 		52
v -4.8849 		3.2169 		52
v -4.8971 		1.68 		52
v -5.0666 		-0.9248 		52
v -5.2171 		-3.53 		52
v -5.2336 		-9.3012 		52
v -3.2185 		-4.2306 		52
v -3.2181 		-3.95 		52
v -3.2175 		-3.6989 		52
v -3.2178 		-3.6394 		52
v -3.2171 		-3.58 		52
v -3.0493 		-0.9852 		52
v -2.8971 		1.61 		52
v 0.3529 		6.45 		52
v 0.8029 		6.45 		52
v 1.713 		6.5291 		52
v 4.2032 		1.195 		52
v 4.1629 		0.79 		52
v 4.1665 		-0.1952 		52
v 3.8307 		-4.1665 		52
v 3.0096 		-4.1542 		52
v 2.3029 		-4.15 		52
v 1.4779 		-4.0706 		52
v 0.6529 		-3.99 		52
v 0.1478 		-3.9744 		52
v -0.3571 		-3.98 		52
v -1.4169 		-4.1056 		52
v -2.7911 		-4.2359 		52
v -5.2171 		-15.0734 		52
v -5.2186 		-15.1319 		52
v -5.2171 		-15.19 		52
v -5.1788 		-15.416 		52
v -5.1171 		-15.63 		52
v -4.8835 		-15.8889 		52
v -4.6171 		-16.11 		52
v -4.3465 		-16.1697 		52
v -4.0671 		-16.18 		52
v -3.8025 		-16.0803 		52
v -3.5571 		-15.94 		52
v -3.378 		-15.72 		52
v -3.2571 		-15.47 		52
v -3.2182 		-11.3583 		52
v -3.2178 		-6.2375 		52
v -2.7504 		-6.2387 		52
v -2.4071 		-6.23 		52
v -1.3319 		-6.1104 		52
v -0.2571 		-5.98 		52
v 0.4529 		-5.98 		52
v 1.2778 		-6.062 		52
v 2.1029 		-6.14 		52
v 2.8042 		-6.1533 		52
v 3.6036 		-6.1523 		52
v 3.5414 		-6.8477 		52
v 3.5029 		-7.36 		52
v 3.5029 		-9.08 		52
v 3.3723 		-9.9401 		52
v 3.2629 		-10.8 		52
v 3.4054 		-12.7197 		52
v 3.5729 		-14.64 		52
v 3.5354 		-14.8611 		52
v 3.5029 		-15.08 		52
v 3.5916 		-15.4196 		52
v 3.7229 		-15.74 		52
v 3.9371 		-15.9227 		52
v 4.1829 		-16.06 		52
v 4.5305 		-16.0807 		52
v 4.8729 		-16.04 		52
v 5.1528 		-15.8296 		52
v 5.3929 		-15.57 		52
v 5.5053 		-15.2391 		52
v 5.5629 		-14.89 		52
v 5.3681 		-10.1301 		52
v 5.4929 		-9.35 		52
v 5.5003 		-8.4454 		52
v 5.8173 		-4.4049 		52
v 5.9029 		-3.91 		52
v 6.0398 		-2.6459 		52
v 6.1529 		-1.38 		52
v 6.1619 		-0.3402 		52
v 6.1629 		0.7 		52
v 6.2035 		1.105 		52
v 6.2429 		1.51 		52
v 6.252 		2.875 		52
v 6.2429 		4.24 		52
v 6.2169 		4.7319 		52
v 6.1629 		5.22 		52
v 5.9051 		6.2637 		52
v 5.5829 		7.28 		52
v 5.2057 		7.8058 		52
v 4.7529 		8.26 		52
v 4.1647 		8.4596 		52
v 3.5429 		8.59 		52
v 2.9893 		8.6164 		52
v -2.9102 		2.9732 		52
v -0.0971 		6.45 		52
v 4.2429 		1.6 		52
v -2.4771 		-4.23 		52
v 3.5045 		-8.2203 		52
v 5.2629 		-10.9101 		52
v 5.7329 		-4.9 		52
v -2.8971 		4.33 		52
v 2.6229 		6.61 		52
v 4.1629 		-1.18 		52
v 5.5029 		-7.54 		52
v 5.4084 		-12.9006 		52
v 5.6069 		-6.2191 		52
v -2.7153 		4.9957 		52
v -2.4671 		5.64 		52
v -2.2828 		5.8526 		52
v 0.0978 		-5.9718 		52
v -2.0671 		6.04 		52
v -1.8143 		6.1917 		52
v -1.5471 		6.31 		52
v 3.8923 		-3.8319 		52
v 3.9329 		-3.58 		52
v -0.8256 		6.3954 		52
v 4.0596 		-2.3809 		52
v 2.9382 		6.6168 		52
v 3.2529 		6.61 		52
v 4.2518 		2.835 		52
v 3.4517 		6.5794 		52
v 4.2429 		4.07 		52
v 3.6429 		6.53 		52
v 4.2152 		4.5466 		52
v 3.7217 		6.4586 		52
v 4.1629 		5.02 		52
v 3.7829 		6.37 		52
v 3.9863 		5.6994 		52
v -9.2975 		3.28 		50
v -9.3371 		3.64 		50
v -9.325 		4.8356 		50
v -9.2571 		1.27 		50
v -9.2588 		2.0946 		50
v -9.2571 		2.92 		50
v -9.1571 		0.83 		50
v -9.2232 		1.0435 		50
v -8.6571 		0.35 		50
v -8.9236 		0.5709 		50
v -8.0971 		0.28 		50
v -8.3815 		0.2901 		50
v -7.5971 		0.52 		50
v -7.8376 		0.3798 		50
v -7.2971 		0.99 		50
v -7.4225 		0.7413 		50
v -7.2571 		3.02 		50
v -7.2548 		2.0001 		50
v -7.3371 		3.74 		50
v -7.2965 		3.38 		50
v -7.3371 		6.38 		50
v -7.3365 		5.0603 		50
v -7.4171 		6.76 		50
v -7.362 		6.5752 		50
v -8.4271 		8.02 		50
v -7.8973 		7.4153 		50
v -9.4171 		8.39 		50
v -8.9048 		8.2353 		50
v -10.5471 		8.52 		50
v -9.9793 		8.4719 		50
v -14.1771 		8.53 		50
v -12.3627 		8.5435 		50
v -15.1971 		8.34 		50
v -14.6894 		8.4514 		50
v -16.3071 		7.98 		50
v -15.757 		8.1733 		50
v -17.3271 		7.4 		50
v -16.8244 		7.7037 		50
v -18.2671 		6.66 		50
v -17.8114 		7.0455 		50
v -19.0571 		5.51 		50
v -18.6839 		6.1007 		50
v -19.4971 		4.3 		50
v -19.295 		4.9126 		50
v -19.6971 		3.26 		50
v -19.6091 		3.7826 		50
v -19.8671 		1.27 		50
v -19.7953 		2.2661 		50
v -19.8771 		-2.27 		50
v -19.8851 		-0.4998 		50
v -19.7871 		-3.5 		50
v -19.8339 		-2.8851 		50
v -19.7871 		-4.74 		50
v -19.7902 		-4.1202 		50
v -19.3771 		-12 		50
v -19.3774 		-10.6703 		50
v -19.3771 		-9.34 		50
v -19.1171 		-13.81 		50
v -19.2678 		-12.908 		50
v -18.7371 		-14.98 		50
v -18.9593 		-14.4134 		50
v -17.6971 		-15.78 		50
v -18.2518 		-15.4225 		50
v -15.5171 		-16.19 		50
v -16.6201 		-16.0253 		50
v -13.6671 		-16.19 		50
v -14.5931 		-16.2087 		50
v -12.8471 		-16.1 		50
v -13.2562 		-16.1536 		50
v -8.8371 		-15.34 		50
v -10.8361 		-15.7402 		50
v -7.8071 		-14.85 		50
v -8.3062 		-15.1256 		50
v -6.8671 		-13.83 		50
v -7.2944 		-14.3701 		50
v -6.5171 		-11.75 		50
v -6.6344 		-12.8059 		50
v -6.8471 		-9.57 		50
v -6.6644 		-10.661 		50
v -6.993 		-7.2669 		50
v -6.9271 		-7.77 		50
v -6.8884 		-8.67 		50
v -7.4883 		-6.1964 		50
v -7.1071 		-6.78 		50
v -8.0954 		-5.4846 		50
v -7.9171 		-5.64 		50
v -9.9162 		-5.1591 		50
v -8.2971 		-5.37 		50
v -12.1672 		-4.9673 		50
v -11.5471 		-4.99 		50
v -13.007 		-5.0058 		50
v -12.7871 		-4.97 		50
v -13.4414 		-5.2455 		50
v -13.2171 		-5.07 		50
v -13.7367 		-5.7146 		50
v -13.6371 		-5.45 		50
v -13.6879 		-6.3201 		50
v -13.7871 		-5.99 		50
v -13.3127 		-6.8039 		50
v -13.5371 		-6.63 		50
v -12.441 		-6.9594 		50
v -13.0571 		-6.93 		50
v -10.0179 		-7.1846 		50
v -10.8871 		-7.12 		50
v -11.352 		-7.0435 		50
v -8.8471 		-9.68 		50
v -8.8804 		-8.8603 		50
v -8.9071 		-8.04 		50
v -17.3771 		-9.26 		50
v -17.377 		-10.5803 		50
v -17.3771 		-11.9 		50
v -17.7171 		-5.55 		50
v -17.542 		-7.4049 		50
v -9.3371 		6.02 		50
v -19.5773 		-7.0398 		50
v -11.8171 		-6.97 		50
v -8.6728 		-10.6807 		50
v -9.1571 		-7.26 		50
v -8.5171 		-11.68 		50
v -17.8087 		-3.9105 		50
v -9.4459 		6.1923 		50
v -9.5971 		6.34 		50
v -9.0822 		-7.3234 		50
v -9.7616 		6.411 		50
v -9.9371 		6.46 		50
v -9.0271 		-7.41 		50
v -10.3359 		6.5038 		50
v -8.9565 		-7.7218 		50
v -10.7371 		6.53 		50
v -12.4127 		6.5424 		50
v -14.0871 		6.53 		50
v -14.4087 		6.4762 		50
v -8.58 		-12.3141 		50
v -14.7271 		6.4 		50
v -8.6971 		-12.94 		50
v -15.1511 		6.2751 		50
v -8.7795 		-13.0537 		50
v -15.5671 		6.13 		50
v -8.8871 		-13.15 		50
v -9.1667 		-13.3 		50
v -15.9173 		5.9248 		50
v -9.4571 		-13.43 		50
v -16.2571 		5.7 		50
v -16.5765 		5.4645 		50
v -9.8791 		-13.5449 		50
v -16.8771 		5.21 		50
v -10.3071 		-13.64 		50
v -17.106 		4.8798 		50
v -12.0401 		-13.9325 		50
v -17.3071 		4.53 		50
v -13.7771 		-14.19 		50
v -17.4508 		4.1498 		50
v -14.5916 		-14.2108 		50
v -15.4071 		-14.19 		50
v -17.5671 		3.76 		50
v -16.0859 		-14.1113 		50
v -17.6924 		2.9621 		50
v -16.7571 		-14 		50
v -17.7971 		2.16 		50
v -16.9081 		-13.9192 		50
v -17.8448 		1.6355 		50
v -17.0371 		-13.81 		50
v -17.8771 		1.11 		50
v -17.1082 		-13.6114 		50
v -17.8877 		-0.58 		50
v -17.8771 		-2.27 		50
v -17.1571 		-13.4 		50
v -17.2809 		-12.6515 		50
v -9.325 		4.8356 		52
v -9.3371 		3.64 		52
v -9.2975 		3.28 		52
v -9.2571 		2.92 		52
v -9.2588 		2.0946 		52
v -9.2571 		1.27 		52
v -9.2232 		1.0435 		52
v -9.1571 		0.83 		52
v -8.9236 		0.5709 		52
v -8.6571 		0.35 		52
v -8.3815 		0.2901 		52
v -8.0971 		0.28 		52
v -7.8376 		0.3798 		52
v -7.5971 		0.52 		52
v -7.4225 		0.7413 		52
v -7.2971 		0.99 		52
v -7.2548 		2.0001 		52
v -7.2571 		3.02 		52
v -7.2965 		3.38 		52
v -7.3371 		3.74 		52
v -7.3365 		5.0603 		52
v -7.3371 		6.38 		52
v -7.362 		6.5752 		52
v -7.4171 		6.76 		52
v -7.8973 		7.4153 		52
v -8.4271 		8.02 		52
v -8.9048 		8.2353 		52
v -9.4171 		8.39 		52
v -9.9793 		8.4719 		52
v -10.5471 		8.52 		52
v -12.3627 		8.5435 		52
v -14.1771 		8.53 		52
v -14.6894 		8.4514 		52
v -15.1971 		8.34 		52
v -15.757 		8.1733 		52
v -16.3071 		7.98 		52
v -16.8244 		7.7037 		52
v -17.3271 		7.4 		52
v -17.8114 		7.0455 		52
v -18.2671 		6.66 		52
v -18.6839 		6.1007 		52
v -19.0571 		5.51 		52
v -19.295 		4.9126 		52
v -19.4971 		4.3 		52
v -19.6091 		3.7826 		52
v -19.6971 		3.26 		52
v -19.7953 		2.2661 		52
v -19.8671 		1.27 		52
v -19.8851 		-0.4998 		52
v -19.8771 		-2.27 		52
v -19.8339 		-2.8851 		52
v -19.7871 		-3.5 		52
v -19.7902 		-4.1202 		52
v -19.7871 		-4.74 		52
v -19.3771 		-9.34 		52
v -19.3774 		-10.6703 		52
v -19.3771 		-12 		52
v -19.2678 		-12.908 		52
v -19.1171 		-13.81 		52
v -18.9593 		-14.4134 		52
v -18.7371 		-14.98 		52
v -18.2518 		-15.4225 		52
v -17.6971 		-15.78 		52
v -16.6201 		-16.0253 		52
v -15.5171 		-16.19 		52
v -14.5931 		-16.2087 		52
v -13.6671 		-16.19 		52
v -13.2562 		-16.1536 		52
v -12.8471 		-16.1 		52
v -10.8361 		-15.7402 		52
v -8.8371 		-15.34 		52
v -8.3062 		-15.1256 		52
v -7.8071 		-14.85 		52
v -7.2944 		-14.3701 		52
v -6.8671 		-13.83 		52
v -6.6344 		-12.8059 		52
v -6.5171 		-11.75 		52
v -6.6644 		-10.661 		52
v -6.8471 		-9.57 		52
v -6.8884 		-8.67 		52
v -6.9271 		-7.77 		52
v -6.993 		-7.2669 		52
v -7.1071 		-6.78 		52
v -7.4883 		-6.1964 		52
v -7.9171 		-5.64 		52
v -8.0954 		-5.4846 		52
v -8.2971 		-5.37 		52
v -9.9162 		-5.1591 		52
v -11.5471 		-4.99 		52
v -12.1672 		-4.9673 		52
v -12.7871 		-4.97 		52
v -13.007 		-5.0058 		52
v -13.2171 		-5.07 		52
v -13.4414 		-5.2455 		52
v -13.6371 		-5.45 		52
v -13.7367 		-5.7146 		52
v -13.7871 		-5.99 		52
v -13.6879 		-6.3201 		52
v -13.5371 		-6.63 		52
v -13.3127 		-6.8039 		52
v -13.0571 		-6.93 		52
v -12.441 		-6.9594 		52
v -11.352 		-7.0435 		52
v -10.8871 		-7.12 		52
v -10.0179 		-7.1846 		52
v -8.9071 		-8.04 		52
v -8.8804 		-8.8603 		52
v -8.8471 		-9.68 		52
v -17.3771 		-11.9 		52
v -17.377 		-10.5803 		52
v -17.3771 		-9.26 		52
v -17.542 		-7.4049 		52
v -17.7171 		-5.55 		52
v -9.3371 		6.02 		52
v -19.5773 		-7.0398 		52
v -11.8171 		-6.97 		52
v -8.6728 		-10.6807 		52
v -9.1571 		-7.26 		52
v -8.5171 		-11.68 		52
v -17.8087 		-3.9105 		52
v -9.4459 		6.1923 		52
v -9.5971 		6.34 		52
v -9.0822 		-7.3234 		52
v -9.7616 		6.411 		52
v -9.9371 		6.46 		52
v -9.0271 		-7.41 		52
v -10.3359 		6.5038 		52
v -8.9565 		-7.7218 		52
v -10.7371 		6.53 		52
v -12.4127 		6.5424 		52
v -14.0871 		6.53 		52
v -14.4087 		6.4762 		52
v -8.58 		-12.3141 		52
v -14.7271 		6.4 		52
v -8.6971 		-12.94 		52
v -15.1511 		6.2751 		52
v -8.7795 		-13.0537 		52
v -15.5671 		6.13 		52
v -8.8871 		-13.15 		52
v -9.1667 		-13.3 		52
v -15.9173 		5.9248 		52
v -9.4571 		-13.43 		52
v -16.2571 		5.7 		52
v -16.5765 		5.4645 		52
v -9.8791 		-13.5449 		52
v -16.8771 		5.21 		52
v -10.3071 		-13.64 		52
v -17.106 		4.8798 		52
v -12.0401 		-13.9325 		52
v -17.3071 		4.53 		52
v -13.7771 		-14.19 		52
v -17.4508 		4.1498 		52
v -14.5916 		-14.2108 		52
v -15.4071 		-14.19 		52
v -17.5671 		3.76 		52
v -16.0859 		-14.1113 		52
v -17.6924 		2.9621 		52
v -16.7571 		-14 		52
v -17.7971 		2.16 		52
v -16.9081 		-13.9192 		52
v -17.8448 		1.6355 		52
v -17.0371 		-13.81 		52
v -17.8771 		1.11 		52
v -17.1082 		-13.6114 		52
v -17.8877 		-0.58 		52
v -17.8771 		-2.27 		52
v -17.1571 		-13.4 		52
v -17.2809 		-12.6515 		52
# 884 vertices

g group_0_8768998

usemtl color_8768998
s 0

f 1 	2 	3
f 4 	5 	1
f 6 	7 	4
f 8 	9 	10
f 11 	12 	8
f 7 	6 	13
f 14 	15 	16
f 17 	18 	14
f 19 	20 	17
f 21 	22 	19
f 23 	24 	21
f 25 	26 	23
f 27 	28 	29
f 30 	31 	32
f 33 	34 	30
f 35 	36 	33
f 37 	38 	35
f 39 	40 	37
f 41 	42 	39
f 43 	44 	41
f 45 	46 	43
f 47 	48 	49
f 50 	51 	47
f 52 	53 	54
f 55 	56 	52
f 57 	58 	55
f 59 	60 	57
f 61 	62 	59
f 63 	64 	61
f 65 	66 	63
f 67 	68 	65
f 69 	70 	67
f 71 	72 	69
f 73 	74 	71
f 75 	76 	73
f 77 	78 	75
f 79 	80 	77
f 81 	82 	79
f 83 	84 	81
f 85 	86 	83
f 87 	88 	85
f 3 	89 	87
f 4 	1 	3
f 90 	6 	4
f 8 	10 	91
f 92 	11 	8
f 7 	13 	93
f 17 	14 	16
f 21 	19 	17
f 25 	23 	21
f 94 	27 	29
f 30 	32 	95
f 35 	33 	30
f 39 	37 	35
f 43 	41 	39
f 96 	45 	43
f 47 	49 	96
f 97 	50 	47
f 55 	52 	54
f 59 	57 	55
f 63 	61 	59
f 67 	65 	63
f 71 	69 	67
f 75 	73 	71
f 79 	77 	75
f 83 	81 	79
f 87 	85 	83
f 4 	3 	87
f 98 	90 	4
f 92 	8 	91
f 7 	93 	92
f 17 	16 	7
f 25 	21 	17
f 94 	29 	99
f 35 	30 	95
f 43 	39 	35
f 97 	47 	96
f 59 	55 	54
f 67 	63 	59
f 75 	71 	67
f 83 	79 	75
f 4 	87 	83
f 100 	98 	4
f 17 	7 	92
f 94 	99 	101
f 35 	95 	102
f 96 	43 	35
f 59 	54 	103
f 75 	67 	59
f 4 	83 	75
f 104 	100 	4
f 17 	92 	91
f 105 	94 	101
f 35 	102 	105
f 97 	96 	35
f 59 	103 	106
f 104 	4 	75
f 25 	17 	91
f 35 	105 	101
f 59 	106 	107
f 108 	104 	75
f 25 	91 	109
f 97 	35 	101
f 59 	107 	97
f 110 	108 	75
f 25 	109 	111
f 97 	101 	112
f 113 	110 	75
f 97 	112 	25
f 114 	113 	75
f 97 	25 	111
f 115 	114 	75
f 97 	111 	116
f 117 	115 	75
f 59 	97 	116
f 118 	117 	75
f 59 	116 	119
f 120 	118 	75
f 59 	119 	121
f 122 	120 	75
f 59 	121 	123
f 124 	122 	75
f 59 	123 	125
f 126 	124 	75
f 59 	125 	127
f 126 	75 	59
f 59 	127 	128
f 129 	126 	59
f 59 	128 	130
f 131 	129 	59
f 59 	130 	132
f 132 	131 	59
f 133 	134 	135
f 135 	136 	137
f 137 	138 	139
f 140 	141 	142
f 142 	143 	144
f 145 	139 	138
f 146 	147 	148
f 148 	149 	150
f 150 	151 	152
f 152 	153 	154
f 154 	155 	156
f 156 	157 	158
f 159 	160 	161
f 162 	163 	164
f 164 	165 	166
f 166 	167 	168
f 168 	169 	170
f 170 	171 	172
f 172 	173 	174
f 174 	175 	176
f 176 	177 	178
f 179 	180 	181
f 181 	182 	183
f 184 	185 	186
f 186 	187 	188
f 188 	189 	190
f 190 	191 	192
f 192 	193 	194
f 194 	195 	196
f 196 	197 	198
f 198 	199 	200
f 200 	201 	202
f 202 	203 	204
f 204 	205 	206
f 206 	207 	208
f 208 	209 	210
f 210 	211 	212
f 212 	213 	214
f 214 	215 	216
f 216 	217 	218
f 218 	219 	220
f 220 	221 	133
f 133 	135 	137
f 137 	139 	222
f 223 	140 	142
f 142 	144 	224
f 225 	145 	138
f 146 	148 	150
f 150 	152 	154
f 154 	156 	158
f 159 	161 	226
f 227 	162 	164
f 164 	166 	168
f 168 	170 	172
f 172 	174 	176
f 176 	178 	228
f 228 	179 	181
f 181 	183 	229
f 184 	186 	188
f 188 	190 	192
f 192 	194 	196
f 196 	198 	200
f 200 	202 	204
f 204 	206 	208
f 208 	210 	212
f 212 	214 	216
f 216 	218 	220
f 220 	133 	137
f 137 	222 	230
f 223 	142 	224
f 224 	225 	138
f 138 	146 	150
f 150 	154 	158
f 231 	159 	226
f 227 	164 	168
f 168 	172 	176
f 228 	181 	229
f 184 	188 	192
f 192 	196 	200
f 200 	204 	208
f 208 	212 	216
f 216 	220 	137
f 137 	230 	232
f 224 	138 	150
f 233 	231 	226
f 234 	227 	168
f 168 	176 	228
f 235 	184 	192
f 192 	200 	208
f 208 	216 	137
f 137 	232 	236
f 223 	224 	150
f 233 	226 	237
f 237 	234 	168
f 168 	228 	229
f 238 	235 	192
f 208 	137 	236
f 223 	150 	158
f 233 	237 	168
f 239 	238 	192
f 208 	236 	240
f 241 	223 	158
f 233 	168 	229
f 229 	239 	192
f 208 	240 	242
f 243 	241 	158
f 244 	233 	229
f 208 	242 	245
f 158 	244 	229
f 208 	245 	246
f 243 	158 	229
f 208 	246 	247
f 248 	243 	229
f 208 	247 	249
f 248 	229 	192
f 208 	249 	250
f 251 	248 	192
f 208 	250 	252
f 253 	251 	192
f 208 	252 	254
f 255 	253 	192
f 208 	254 	256
f 257 	255 	192
f 208 	256 	258
f 259 	257 	192
f 192 	208 	258
f 260 	259 	192
f 192 	258 	261
f 262 	260 	192
f 192 	261 	263
f 264 	262 	192
f 192 	263 	264
f 2 	1 	134
f 1 	135 	134
f 1 	5 	135
f 5 	136 	135
f 5 	4 	136
f 4 	137 	136
f 4 	7 	137
f 7 	138 	137
f 7 	16 	138
f 16 	146 	138
f 16 	15 	146
f 15 	147 	146
f 15 	14 	147
f 14 	148 	147
f 14 	18 	148
f 18 	149 	148
f 18 	17 	149
f 17 	150 	149
f 17 	20 	150
f 20 	151 	150
f 20 	19 	151
f 19 	152 	151
f 19 	22 	152
f 22 	153 	152
f 22 	21 	153
f 21 	154 	153
f 21 	24 	154
f 24 	155 	154
f 24 	23 	155
f 23 	156 	155
f 23 	26 	156
f 26 	157 	156
f 26 	25 	157
f 25 	158 	157
f 25 	112 	158
f 112 	244 	158
f 112 	101 	244
f 101 	233 	244
f 101 	99 	233
f 99 	231 	233
f 99 	29 	231
f 29 	159 	231
f 29 	28 	159
f 28 	160 	159
f 28 	27 	160
f 27 	161 	160
f 27 	94 	161
f 94 	226 	161
f 94 	105 	226
f 105 	237 	226
f 105 	102 	237
f 102 	234 	237
f 102 	95 	234
f 95 	227 	234
f 95 	32 	227
f 32 	162 	227
f 32 	31 	162
f 31 	163 	162
f 31 	30 	163
f 30 	164 	163
f 30 	34 	164
f 34 	165 	164
f 34 	33 	165
f 33 	166 	165
f 33 	36 	166
f 36 	167 	166
f 36 	35 	167
f 35 	168 	167
f 35 	38 	168
f 38 	169 	168
f 38 	37 	169
f 37 	170 	169
f 37 	40 	170
f 40 	171 	170
f 40 	39 	171
f 39 	172 	171
f 39 	42 	172
f 42 	173 	172
f 42 	41 	173
f 41 	174 	173
f 41 	44 	174
f 44 	175 	174
f 44 	43 	175
f 43 	176 	175
f 43 	46 	176
f 46 	177 	176
f 46 	45 	177
f 45 	178 	177
f 45 	96 	178
f 96 	228 	178
f 96 	49 	228
f 49 	179 	228
f 49 	48 	179
f 48 	180 	179
f 48 	47 	180
f 47 	181 	180
f 47 	51 	181
f 51 	182 	181
f 51 	50 	182
f 50 	183 	182
f 50 	97 	183
f 97 	229 	183
f 97 	107 	229
f 107 	239 	229
f 107 	106 	239
f 106 	238 	239
f 106 	103 	238
f 103 	235 	238
f 103 	54 	235
f 54 	184 	235
f 54 	53 	184
f 53 	185 	184
f 53 	52 	185
f 52 	186 	185
f 52 	56 	186
f 56 	187 	186
f 56 	55 	187
f 55 	188 	187
f 55 	58 	188
f 58 	189 	188
f 58 	57 	189
f 57 	190 	189
f 57 	60 	190
f 60 	191 	190
f 60 	59 	191
f 59 	192 	191
f 59 	62 	192
f 62 	193 	192
f 62 	61 	193
f 61 	194 	193
f 61 	64 	194
f 64 	195 	194
f 64 	63 	195
f 63 	196 	195
f 63 	66 	196
f 66 	197 	196
f 66 	65 	197
f 65 	198 	197
f 65 	68 	198
f 68 	199 	198
f 68 	67 	199
f 67 	200 	199
f 67 	70 	200
f 70 	201 	200
f 70 	69 	201
f 69 	202 	201
f 69 	72 	202
f 72 	203 	202
f 72 	71 	203
f 71 	204 	203
f 71 	74 	204
f 74 	205 	204
f 74 	73 	205
f 73 	206 	205
f 73 	76 	206
f 76 	207 	206
f 76 	75 	207
f 75 	208 	207
f 75 	78 	208
f 78 	209 	208
f 78 	77 	209
f 77 	210 	209
f 77 	80 	210
f 80 	211 	210
f 80 	79 	211
f 79 	212 	211
f 79 	82 	212
f 82 	213 	212
f 82 	81 	213
f 81 	214 	213
f 81 	84 	214
f 84 	215 	214
f 84 	83 	215
f 83 	216 	215
f 83 	86 	216
f 86 	217 	216
f 86 	85 	217
f 85 	218 	217
f 85 	88 	218
f 88 	219 	218
f 88 	87 	219
f 87 	220 	219
f 87 	89 	220
f 89 	221 	220
f 89 	3 	221
f 3 	133 	221
f 3 	2 	133
f 2 	134 	133
f 6 	90 	139
f 90 	222 	139
f 90 	98 	222
f 98 	230 	222
f 98 	100 	230
f 100 	232 	230
f 100 	104 	232
f 104 	236 	232
f 104 	108 	236
f 108 	240 	236
f 108 	110 	240
f 110 	242 	240
f 110 	113 	242
f 113 	245 	242
f 113 	114 	245
f 114 	246 	245
f 114 	115 	246
f 115 	247 	246
f 115 	117 	247
f 117 	249 	247
f 117 	118 	249
f 118 	250 	249
f 118 	120 	250
f 120 	252 	250
f 120 	122 	252
f 122 	254 	252
f 122 	124 	254
f 124 	256 	254
f 124 	126 	256
f 126 	258 	256
f 126 	129 	258
f 129 	261 	258
f 129 	131 	261
f 131 	263 	261
f 131 	132 	263
f 132 	264 	263
f 132 	130 	264
f 130 	262 	264
f 130 	128 	262
f 128 	260 	262
f 128 	127 	260
f 127 	259 	260
f 127 	125 	259
f 125 	257 	259
f 125 	123 	257
f 123 	255 	257
f 123 	121 	255
f 121 	253 	255
f 121 	119 	253
f 119 	251 	253
f 119 	116 	251
f 116 	248 	251
f 116 	111 	248
f 111 	243 	248
f 111 	109 	243
f 109 	241 	243
f 109 	91 	241
f 91 	223 	241
f 91 	10 	223
f 10 	140 	223
f 10 	9 	140
f 9 	141 	140
f 9 	8 	141
f 8 	142 	141
f 8 	12 	142
f 12 	143 	142
f 12 	11 	143
f 11 	144 	143
f 11 	92 	144
f 92 	224 	144
f 92 	93 	224
f 93 	225 	224
f 93 	13 	225
f 13 	145 	225
f 13 	6 	145
f 6 	139 	145
f 265 	266 	267
f 268 	269 	265
f 270 	271 	268
f 272 	273 	270
f 274 	275 	272
f 276 	277 	274
f 278 	279 	276
f 280 	281 	278
f 282 	283 	280
f 284 	285 	282
f 286 	287 	288
f 289 	290 	291
f 292 	293 	294
f 295 	296 	297
f 298 	299 	300
f 301 	302 	303
f 304 	305 	301
f 285 	284 	306
f 307 	308 	309
f 310 	311 	307
f 312 	313 	310
f 314 	315 	312
f 316 	317 	314
f 318 	319 	316
f 320 	321 	318
f 322 	323 	320
f 324 	325 	322
f 326 	327 	328
f 329 	330 	326
f 331 	332 	329
f 333 	334 	335
f 336 	337 	333
f 338 	339 	336
f 340 	341 	338
f 342 	343 	340
f 344 	345 	342
f 346 	347 	344
f 348 	349 	346
f 350 	351 	352
f 353 	354 	355
f 356 	357 	353
f 358 	359 	360
f 361 	362 	358
f 363 	364 	361
f 365 	366 	363
f 367 	368 	365
f 369 	370 	367
f 267 	371 	369
f 270 	268 	265
f 274 	272 	270
f 278 	276 	274
f 284 	282 	280
f 286 	288 	284
f 372 	289 	291
f 292 	294 	373
f 295 	297 	374
f 301 	303 	298
f 375 	304 	301
f 285 	306 	375
f 310 	307 	309
f 314 	312 	310
f 318 	316 	314
f 324 	322 	320
f 329 	326 	328
f 376 	331 	329
f 336 	333 	335
f 340 	338 	336
f 344 	342 	340
f 348 	346 	344
f 350 	352 	377
f 353 	355 	378
f 360 	356 	353
f 361 	358 	360
f 365 	363 	361
f 369 	367 	365
f 265 	267 	369
f 274 	270 	265
f 280 	278 	274
f 286 	284 	280
f 379 	372 	291
f 380 	292 	373
f 381 	295 	374
f 375 	301 	298
f 310 	309 	285
f 318 	314 	310
f 335 	376 	329
f 340 	336 	335
f 348 	344 	340
f 382 	350 	377
f 360 	353 	378
f 365 	361 	360
f 265 	369 	365
f 286 	280 	274
f 375 	298 	300
f 318 	310 	285
f 340 	335 	329
f 383 	348 	340
f 360 	378 	384
f 274 	265 	365
f 291 	286 	274
f 320 	318 	285
f 383 	340 	329
f 365 	360 	384
f 379 	291 	274
f 320 	285 	375
f 377 	383 	329
f 365 	384 	382
f 385 	379 	274
f 320 	375 	300
f 382 	377 	329
f 386 	385 	274
f 324 	320 	300
f 365 	382 	329
f 387 	386 	274
f 388 	324 	300
f 389 	387 	274
f 328 	388 	300
f 390 	389 	274
f 329 	328 	300
f 391 	390 	274
f 329 	300 	392
f 391 	274 	365
f 329 	392 	393
f 394 	391 	365
f 365 	329 	393
f 373 	394 	365
f 365 	393 	395
f 380 	373 	365
f 365 	395 	381
f 396 	380 	365
f 365 	381 	374
f 397 	396 	365
f 365 	374 	398
f 399 	397 	365
f 365 	398 	400
f 401 	399 	365
f 365 	400 	402
f 403 	401 	365
f 365 	402 	404
f 405 	403 	365
f 365 	404 	406
f 406 	405 	365
f 407 	408 	409
f 409 	410 	411
f 411 	412 	413
f 413 	414 	415
f 415 	416 	417
f 417 	418 	419
f 419 	420 	421
f 421 	422 	423
f 423 	424 	425
f 425 	426 	427
f 428 	429 	430
f 431 	432 	433
f 434 	435 	436
f 437 	438 	439
f 440 	441 	442
f 443 	444 	445
f 445 	446 	447
f 448 	427 	426
f 449 	450 	451
f 451 	452 	453
f 453 	454 	455
f 455 	456 	457
f 457 	458 	459
f 459 	460 	461
f 461 	462 	463
f 463 	464 	465
f 465 	466 	467
f 468 	469 	470
f 470 	471 	472
f 472 	473 	474
f 475 	476 	477
f 477 	478 	479
f 479 	480 	481
f 481 	482 	483
f 483 	484 	485
f 485 	486 	487
f 487 	488 	489
f 489 	490 	491
f 492 	493 	494
f 495 	496 	497
f 497 	498 	499
f 500 	501 	502
f 502 	503 	504
f 504 	505 	506
f 506 	507 	508
f 508 	509 	510
f 510 	511 	512
f 512 	513 	407
f 409 	411 	413
f 413 	415 	417
f 417 	419 	421
f 423 	425 	427
f 427 	428 	430
f 431 	433 	514
f 515 	434 	436
f 516 	437 	439
f 442 	443 	445
f 445 	447 	517
f 517 	448 	426
f 449 	451 	453
f 453 	455 	457
f 457 	459 	461
f 463 	465 	467
f 468 	470 	472
f 472 	474 	518
f 475 	477 	479
f 479 	481 	483
f 483 	485 	487
f 487 	489 	491
f 519 	492 	494
f 520 	495 	497
f 497 	499 	500
f 500 	502 	504
f 504 	506 	508
f 508 	510 	512
f 512 	407 	409
f 409 	413 	417
f 417 	421 	423
f 423 	427 	430
f 431 	514 	521
f 515 	436 	522
f 516 	439 	523
f 442 	445 	517
f 426 	449 	453
f 453 	457 	461
f 472 	518 	475
f 475 	479 	483
f 483 	487 	491
f 519 	494 	524
f 520 	497 	500
f 500 	504 	508
f 508 	512 	409
f 417 	423 	430
f 440 	442 	517
f 426 	453 	461
f 472 	475 	483
f 483 	491 	525
f 526 	520 	500
f 508 	409 	417
f 417 	430 	431
f 426 	461 	463
f 472 	483 	525
f 526 	500 	508
f 417 	431 	521
f 517 	426 	463
f 472 	525 	519
f 524 	526 	508
f 417 	521 	527
f 440 	517 	463
f 472 	519 	524
f 417 	527 	528
f 440 	463 	467
f 472 	524 	508
f 417 	528 	529
f 440 	467 	530
f 417 	529 	531
f 440 	530 	468
f 417 	531 	532
f 440 	468 	472
f 417 	532 	533
f 534 	440 	472
f 508 	417 	533
f 535 	534 	472
f 508 	533 	536
f 535 	472 	508
f 508 	536 	515
f 537 	535 	508
f 508 	515 	522
f 523 	537 	508
f 508 	522 	538
f 516 	523 	508
f 508 	538 	539
f 540 	516 	508
f 508 	539 	541
f 542 	540 	508
f 508 	541 	543
f 544 	542 	508
f 508 	543 	545
f 546 	544 	508
f 508 	545 	547
f 548 	546 	508
f 508 	547 	548
f 266 	265 	408
f 265 	409 	408
f 265 	269 	409
f 269 	410 	409
f 269 	268 	410
f 268 	411 	410
f 268 	271 	411
f 271 	412 	411
f 271 	270 	412
f 270 	413 	412
f 270 	273 	413
f 273 	414 	413
f 273 	272 	414
f 272 	415 	414
f 272 	275 	415
f 275 	416 	415
f 275 	274 	416
f 274 	417 	416
f 274 	277 	417
f 277 	418 	417
f 277 	276 	418
f 276 	419 	418
f 276 	279 	419
f 279 	420 	419
f 279 	278 	420
f 278 	421 	420
f 278 	281 	421
f 281 	422 	421
f 281 	280 	422
f 280 	423 	422
f 280 	283 	423
f 283 	424 	423
f 283 	282 	424
f 282 	425 	424
f 282 	285 	425
f 285 	426 	425
f 285 	309 	426
f 309 	449 	426
f 309 	308 	449
f 308 	450 	449
f 308 	307 	450
f 307 	451 	450
f 307 	311 	451
f 311 	452 	451
f 311 	310 	452
f 310 	453 	452
f 310 	313 	453
f 313 	454 	453
f 313 	312 	454
f 312 	455 	454
f 312 	315 	455
f 315 	456 	455
f 315 	314 	456
f 314 	457 	456
f 314 	317 	457
f 317 	458 	457
f 317 	316 	458
f 316 	459 	458
f 316 	319 	459
f 319 	460 	459
f 319 	318 	460
f 318 	461 	460
f 318 	321 	461
f 321 	462 	461
f 321 	320 	462
f 320 	463 	462
f 320 	323 	463
f 323 	464 	463
f 323 	322 	464
f 322 	465 	464
f 322 	325 	465
f 325 	466 	465
f 325 	324 	466
f 324 	467 	466
f 324 	388 	467
f 388 	530 	467
f 388 	328 	530
f 328 	468 	530
f 328 	327 	468
f 327 	469 	468
f 327 	326 	469
f 326 	470 	469
f 326 	330 	470
f 330 	471 	470
f 330 	329 	471
f 329 	472 	471
f 329 	332 	472
f 332 	473 	472
f 332 	331 	473
f 331 	474 	473
f 331 	376 	474
f 376 	518 	474
f 376 	335 	518
f 335 	475 	518
f 335 	334 	475
f 334 	476 	475
f 334 	333 	476
f 333 	477 	476
f 333 	337 	477
f 337 	478 	477
f 337 	336 	478
f 336 	479 	478
f 336 	339 	479
f 339 	480 	479
f 339 	338 	480
f 338 	481 	480
f 338 	341 	481
f 341 	482 	481
f 341 	340 	482
f 340 	483 	482
f 340 	343 	483
f 343 	484 	483
f 343 	342 	484
f 342 	485 	484
f 342 	345 	485
f 345 	486 	485
f 345 	344 	486
f 344 	487 	486
f 344 	347 	487
f 347 	488 	487
f 347 	346 	488
f 346 	489 	488
f 346 	349 	489
f 349 	490 	489
f 349 	348 	490
f 348 	491 	490
f 348 	383 	491
f 383 	525 	491
f 383 	377 	525
f 377 	519 	525
f 377 	352 	519
f 352 	492 	519
f 352 	351 	492
f 351 	493 	492
f 351 	350 	493
f 350 	494 	493
f 350 	382 	494
f 382 	524 	494
f 382 	384 	524
f 384 	526 	524
f 384 	378 	526
f 378 	520 	526
f 378 	355 	520
f 355 	495 	520
f 355 	354 	495
f 354 	496 	495
f 354 	353 	496
f 353 	497 	496
f 353 	357 	497
f 357 	498 	497
f 357 	356 	498
f 356 	499 	498
f 356 	360 	499
f 360 	500 	499
f 360 	359 	500
f 359 	501 	500
f 359 	358 	501
f 358 	502 	501
f 358 	362 	502
f 362 	503 	502
f 362 	361 	503
f 361 	504 	503
f 361 	364 	504
f 364 	505 	504
f 364 	363 	505
f 363 	506 	505
f 363 	366 	506
f 366 	507 	506
f 366 	365 	507
f 365 	508 	507
f 365 	368 	508
f 368 	509 	508
f 368 	367 	509
f 367 	510 	509
f 367 	370 	510
f 370 	511 	510
f 370 	369 	511
f 369 	512 	511
f 369 	371 	512
f 371 	513 	512
f 371 	267 	513
f 267 	407 	513
f 267 	266 	407
f 266 	408 	407
f 392 	300 	534
f 300 	440 	534
f 300 	299 	440
f 299 	441 	440
f 299 	298 	441
f 298 	442 	441
f 298 	303 	442
f 303 	443 	442
f 303 	302 	443
f 302 	444 	443
f 302 	301 	444
f 301 	445 	444
f 301 	305 	445
f 305 	446 	445
f 305 	304 	446
f 304 	447 	446
f 304 	375 	447
f 375 	517 	447
f 375 	306 	517
f 306 	448 	517
f 306 	284 	448
f 284 	427 	448
f 284 	288 	427
f 288 	428 	427
f 288 	287 	428
f 287 	429 	428
f 287 	286 	429
f 286 	430 	429
f 286 	291 	430
f 291 	431 	430
f 291 	290 	431
f 290 	432 	431
f 290 	289 	432
f 289 	433 	432
f 289 	372 	433
f 372 	514 	433
f 372 	379 	514
f 379 	521 	514
f 379 	385 	521
f 385 	527 	521
f 385 	386 	527
f 386 	528 	527
f 386 	387 	528
f 387 	529 	528
f 387 	389 	529
f 389 	531 	529
f 389 	390 	531
f 390 	532 	531
f 390 	391 	532
f 391 	533 	532
f 391 	394 	533
f 394 	536 	533
f 394 	373 	536
f 373 	515 	536
f 373 	294 	515
f 294 	434 	515
f 294 	293 	434
f 293 	435 	434
f 293 	292 	435
f 292 	436 	435
f 292 	380 	436
f 380 	522 	436
f 380 	396 	522
f 396 	538 	522
f 396 	397 	538
f 397 	539 	538
f 397 	399 	539
f 399 	541 	539
f 399 	401 	541
f 401 	543 	541
f 401 	403 	543
f 403 	545 	543
f 403 	405 	545
f 405 	547 	545
f 405 	406 	547
f 406 	548 	547
f 406 	404 	548
f 404 	546 	548
f 404 	402 	546
f 402 	544 	546
f 402 	400 	544
f 400 	542 	544
f 400 	398 	542
f 398 	540 	542
f 398 	374 	540
f 374 	516 	540
f 374 	297 	516
f 297 	437 	516
f 297 	296 	437
f 296 	438 	437
f 296 	295 	438
f 295 	439 	438
f 295 	381 	439
f 381 	523 	439
f 381 	395 	523
f 395 	537 	523
f 395 	393 	537
f 393 	535 	537
f 393 	392 	535
f 392 	534 	535
f 549 	550 	551
f 552 	553 	554
f 555 	556 	552
f 557 	558 	555
f 559 	560 	557
f 561 	562 	559
f 563 	564 	561
f 565 	566 	563
f 567 	568 	565
f 569 	570 	567
f 571 	572 	569
f 573 	574 	571
f 575 	576 	573
f 577 	578 	575
f 579 	580 	577
f 581 	582 	579
f 583 	584 	581
f 585 	586 	583
f 587 	588 	585
f 589 	590 	587
f 591 	592 	589
f 593 	594 	591
f 595 	596 	593
f 597 	598 	595
f 599 	600 	597
f 601 	602 	599
f 603 	604 	605
f 606 	607 	603
f 608 	609 	606
f 610 	611 	608
f 612 	613 	610
f 614 	615 	612
f 616 	617 	614
f 618 	619 	616
f 620 	621 	618
f 622 	623 	620
f 624 	625 	622
f 626 	627 	624
f 628 	629 	630
f 631 	632 	628
f 633 	634 	631
f 635 	636 	633
f 637 	638 	635
f 639 	640 	637
f 641 	642 	639
f 643 	644 	641
f 645 	646 	643
f 647 	648 	645
f 649 	650 	647
f 651 	652 	653
f 654 	655 	656
f 657 	658 	659
f 660 	661 	657
f 549 	551 	662
f 555 	552 	554
f 559 	557 	555
f 563 	561 	559
f 567 	565 	563
f 571 	569 	567
f 575 	573 	571
f 579 	577 	575
f 583 	581 	579
f 587 	585 	583
f 591 	589 	587
f 595 	593 	591
f 599 	597 	595
f 663 	601 	599
f 606 	603 	605
f 610 	608 	606
f 614 	612 	610
f 618 	616 	614
f 622 	620 	618
f 626 	624 	622
f 628 	630 	626
f 633 	631 	628
f 637 	635 	633
f 641 	639 	637
f 645 	643 	641
f 649 	647 	645
f 651 	653 	664
f 665 	654 	656
f 660 	657 	659
f 554 	549 	662
f 559 	555 	554
f 567 	563 	559
f 575 	571 	567
f 583 	579 	575
f 591 	587 	583
f 599 	595 	591
f 605 	663 	599
f 610 	606 	605
f 618 	614 	610
f 626 	622 	618
f 633 	628 	626
f 641 	637 	633
f 649 	645 	641
f 666 	651 	664
f 667 	665 	656
f 668 	660 	659
f 559 	554 	662
f 575 	567 	559
f 599 	591 	583
f 610 	605 	599
f 649 	641 	633
f 575 	559 	662
f 664 	649 	633
f 575 	662 	669
f 666 	664 	633
f 575 	669 	670
f 671 	666 	633
f 575 	670 	672
f 671 	633 	626
f 575 	672 	673
f 674 	671 	626
f 575 	673 	675
f 676 	674 	626
f 575 	675 	677
f 656 	676 	626
f 575 	677 	678
f 667 	656 	626
f 575 	678 	679
f 667 	626 	618
f 575 	679 	680
f 681 	667 	618
f 575 	680 	682
f 683 	681 	618
f 575 	682 	684
f 685 	683 	618
f 575 	684 	686
f 687 	685 	618
f 583 	575 	686
f 688 	687 	618
f 583 	686 	689
f 690 	688 	618
f 583 	689 	691
f 690 	618 	610
f 583 	691 	692
f 693 	690 	610
f 583 	692 	694
f 695 	693 	610
f 583 	694 	696
f 697 	695 	610
f 583 	696 	698
f 699 	697 	610
f 583 	698 	700
f 701 	699 	610
f 599 	583 	700
f 702 	701 	610
f 599 	700 	703
f 704 	702 	610
f 599 	703 	705
f 706 	704 	610
f 599 	705 	707
f 708 	706 	610
f 599 	707 	709
f 710 	708 	610
f 599 	709 	711
f 712 	710 	610
f 599 	711 	713
f 712 	610 	599
f 599 	713 	714
f 715 	712 	599
f 599 	714 	668
f 716 	715 	599
f 599 	668 	659
f 659 	716 	599
f 717 	718 	719
f 720 	721 	722
f 722 	723 	724
f 724 	725 	726
f 726 	727 	728
f 728 	729 	730
f 730 	731 	732
f 732 	733 	734
f 734 	735 	736
f 736 	737 	738
f 738 	739 	740
f 740 	741 	742
f 742 	743 	744
f 744 	745 	746
f 746 	747 	748
f 748 	749 	750
f 750 	751 	752
f 752 	753 	754
f 754 	755 	756
f 756 	757 	758
f 758 	759 	760
f 760 	761 	762
f 762 	763 	764
f 764 	765 	766
f 766 	767 	768
f 768 	769 	770
f 771 	772 	773
f 773 	774 	775
f 775 	776 	777
f 777 	778 	779
f 779 	780 	781
f 781 	782 	783
f 783 	784 	785
f 785 	786 	787
f 787 	788 	789
f 789 	790 	791
f 791 	792 	793
f 793 	794 	795
f 796 	797 	798
f 798 	799 	800
f 800 	801 	802
f 802 	803 	804
f 804 	805 	806
f 806 	807 	808
f 808 	809 	810
f 810 	811 	812
f 812 	813 	814
f 814 	815 	816
f 816 	817 	818
f 819 	820 	821
f 822 	823 	824
f 825 	826 	827
f 827 	828 	829
f 830 	717 	719
f 720 	722 	724
f 724 	726 	728
f 728 	730 	732
f 732 	734 	736
f 736 	738 	740
f 740 	742 	744
f 744 	746 	748
f 748 	750 	752
f 752 	754 	756
f 756 	758 	760
f 760 	762 	764
f 764 	766 	768
f 768 	770 	831
f 771 	773 	775
f 775 	777 	779
f 779 	781 	783
f 783 	785 	787
f 787 	789 	791
f 791 	793 	795
f 795 	796 	798
f 798 	800 	802
f 802 	804 	806
f 806 	808 	810
f 810 	812 	814
f 814 	816 	818
f 832 	819 	821
f 822 	824 	833
f 825 	827 	829
f 830 	719 	720
f 720 	724 	728
f 728 	732 	736
f 736 	740 	744
f 744 	748 	752
f 752 	756 	760
f 760 	764 	768
f 768 	831 	771
f 771 	775 	779
f 779 	783 	787
f 787 	791 	795
f 795 	798 	802
f 802 	806 	810
f 810 	814 	818
f 832 	821 	834
f 822 	833 	835
f 825 	829 	836
f 830 	720 	728
f 728 	736 	744
f 752 	760 	768
f 768 	771 	779
f 802 	810 	818
f 830 	728 	744
f 802 	818 	832
f 837 	830 	744
f 802 	832 	834
f 838 	837 	744
f 802 	834 	839
f 840 	838 	744
f 795 	802 	839
f 841 	840 	744
f 795 	839 	842
f 843 	841 	744
f 795 	842 	844
f 845 	843 	744
f 795 	844 	822
f 846 	845 	744
f 795 	822 	835
f 847 	846 	744
f 787 	795 	835
f 848 	847 	744
f 787 	835 	849
f 850 	848 	744
f 787 	849 	851
f 852 	850 	744
f 787 	851 	853
f 854 	852 	744
f 787 	853 	855
f 854 	744 	752
f 787 	855 	856
f 857 	854 	752
f 787 	856 	858
f 859 	857 	752
f 779 	787 	858
f 860 	859 	752
f 779 	858 	861
f 862 	860 	752
f 779 	861 	863
f 864 	862 	752
f 779 	863 	865
f 866 	864 	752
f 779 	865 	867
f 868 	866 	752
f 779 	867 	869
f 868 	752 	768
f 779 	869 	870
f 871 	868 	768
f 779 	870 	872
f 873 	871 	768
f 779 	872 	874
f 875 	873 	768
f 779 	874 	876
f 877 	875 	768
f 779 	876 	878
f 879 	877 	768
f 779 	878 	880
f 881 	879 	768
f 768 	779 	880
f 882 	881 	768
f 768 	880 	883
f 836 	882 	768
f 768 	883 	884
f 825 	836 	768
f 768 	884 	825
f 680 	679 	848
f 679 	847 	848
f 679 	678 	847
f 678 	846 	847
f 678 	677 	846
f 677 	845 	846
f 677 	675 	845
f 675 	843 	845
f 675 	673 	843
f 673 	841 	843
f 673 	672 	841
f 672 	840 	841
f 672 	670 	840
f 670 	838 	840
f 670 	669 	838
f 669 	837 	838
f 669 	662 	837
f 662 	830 	837
f 662 	551 	830
f 551 	717 	830
f 551 	550 	717
f 550 	718 	717
f 550 	549 	718
f 549 	719 	718
f 549 	554 	719
f 554 	720 	719
f 554 	553 	720
f 553 	721 	720
f 553 	552 	721
f 552 	722 	721
f 552 	556 	722
f 556 	723 	722
f 556 	555 	723
f 555 	724 	723
f 555 	558 	724
f 558 	725 	724
f 558 	557 	725
f 557 	726 	725
f 557 	560 	726
f 560 	727 	726
f 560 	559 	727
f 559 	728 	727
f 559 	562 	728
f 562 	729 	728
f 562 	561 	729
f 561 	730 	729
f 561 	564 	730
f 564 	731 	730
f 564 	563 	731
f 563 	732 	731
f 563 	566 	732
f 566 	733 	732
f 566 	565 	733
f 565 	734 	733
f 565 	568 	734
f 568 	735 	734
f 568 	567 	735
f 567 	736 	735
f 567 	570 	736
f 570 	737 	736
f 570 	569 	737
f 569 	738 	737
f 569 	572 	738
f 572 	739 	738
f 572 	571 	739
f 571 	740 	739
f 571 	574 	740
f 574 	741 	740
f 574 	573 	741
f 573 	742 	741
f 573 	576 	742
f 576 	743 	742
f 576 	575 	743
f 575 	744 	743
f 575 	578 	744
f 578 	745 	744
f 578 	577 	745
f 577 	746 	745
f 577 	580 	746
f 580 	747 	746
f 580 	579 	747
f 579 	748 	747
f 579 	582 	748
f 582 	749 	748
f 582 	581 	749
f 581 	750 	749
f 581 	584 	750
f 584 	751 	750
f 584 	583 	751
f 583 	752 	751
f 583 	586 	752
f 586 	753 	752
f 586 	585 	753
f 585 	754 	753
f 585 	588 	754
f 588 	755 	754
f 588 	587 	755
f 587 	756 	755
f 587 	590 	756
f 590 	757 	756
f 590 	589 	757
f 589 	758 	757
f 589 	592 	758
f 592 	759 	758
f 592 	591 	759
f 591 	760 	759
f 591 	594 	760
f 594 	761 	760
f 594 	593 	761
f 593 	762 	761
f 593 	596 	762
f 596 	763 	762
f 596 	595 	763
f 595 	764 	763
f 595 	598 	764
f 598 	765 	764
f 598 	597 	765
f 597 	766 	765
f 597 	600 	766
f 600 	767 	766
f 600 	599 	767
f 599 	768 	767
f 599 	602 	768
f 602 	769 	768
f 602 	601 	769
f 601 	770 	769
f 601 	663 	770
f 663 	831 	770
f 663 	605 	831
f 605 	771 	831
f 605 	604 	771
f 604 	772 	771
f 604 	603 	772
f 603 	773 	772
f 603 	607 	773
f 607 	774 	773
f 607 	606 	774
f 606 	775 	774
f 606 	609 	775
f 609 	776 	775
f 609 	608 	776
f 608 	777 	776
f 608 	611 	777
f 611 	778 	777
f 611 	610 	778
f 610 	779 	778
f 610 	613 	779
f 613 	780 	779
f 613 	612 	780
f 612 	781 	780
f 612 	615 	781
f 615 	782 	781
f 615 	614 	782
f 614 	783 	782
f 614 	617 	783
f 617 	784 	783
f 617 	616 	784
f 616 	785 	784
f 616 	619 	785
f 619 	786 	785
f 619 	618 	786
f 618 	787 	786
f 618 	621 	787
f 621 	788 	787
f 621 	620 	788
f 620 	789 	788
f 620 	623 	789
f 623 	790 	789
f 623 	622 	790
f 622 	791 	790
f 622 	625 	791
f 625 	792 	791
f 625 	624 	792
f 624 	793 	792
f 624 	627 	793
f 627 	794 	793
f 627 	626 	794
f 626 	795 	794
f 626 	630 	795
f 630 	796 	795
f 630 	629 	796
f 629 	797 	796
f 629 	628 	797
f 628 	798 	797
f 628 	632 	798
f 632 	799 	798
f 632 	631 	799
f 631 	800 	799
f 631 	634 	800
f 634 	801 	800
f 634 	633 	801
f 633 	802 	801
f 633 	636 	802
f 636 	803 	802
f 636 	635 	803
f 635 	804 	803
f 635 	638 	804
f 638 	805 	804
f 638 	637 	805
f 637 	806 	805
f 637 	640 	806
f 640 	807 	806
f 640 	639 	807
f 639 	808 	807
f 639 	642 	808
f 642 	809 	808
f 642 	641 	809
f 641 	810 	809
f 641 	644 	810
f 644 	811 	810
f 644 	643 	811
f 643 	812 	811
f 643 	646 	812
f 646 	813 	812
f 646 	645 	813
f 645 	814 	813
f 645 	648 	814
f 648 	815 	814
f 648 	647 	815
f 647 	816 	815
f 647 	650 	816
f 650 	817 	816
f 650 	649 	817
f 649 	818 	817
f 649 	664 	818
f 664 	832 	818
f 664 	653 	832
f 653 	819 	832
f 653 	652 	819
f 652 	820 	819
f 652 	651 	820
f 651 	821 	820
f 651 	666 	821
f 666 	834 	821
f 666 	671 	834
f 671 	839 	834
f 671 	674 	839
f 674 	842 	839
f 674 	676 	842
f 676 	844 	842
f 676 	656 	844
f 656 	822 	844
f 656 	655 	822
f 655 	823 	822
f 655 	654 	823
f 654 	824 	823
f 654 	665 	824
f 665 	833 	824
f 665 	667 	833
f 667 	835 	833
f 667 	681 	835
f 681 	849 	835
f 681 	683 	849
f 683 	851 	849
f 683 	685 	851
f 685 	853 	851
f 685 	687 	853
f 687 	855 	853
f 687 	688 	855
f 688 	856 	855
f 688 	690 	856
f 690 	858 	856
f 690 	693 	858
f 693 	861 	858
f 693 	695 	861
f 695 	863 	861
f 695 	697 	863
f 697 	865 	863
f 697 	699 	865
f 699 	867 	865
f 699 	701 	867
f 701 	869 	867
f 701 	702 	869
f 702 	870 	869
f 702 	704 	870
f 704 	872 	870
f 704 	706 	872
f 706 	874 	872
f 706 	708 	874
f 708 	876 	874
f 708 	710 	876
f 710 	878 	876
f 710 	712 	878
f 712 	880 	878
f 712 	715 	880
f 715 	883 	880
f 715 	716 	883
f 716 	884 	883
f 716 	659 	884
f 659 	825 	884
f 659 	658 	825
f 658 	826 	825
f 658 	657 	826
f 657 	827 	826
f 657 	661 	827
f 661 	828 	827
f 661 	660 	828
f 660 	829 	828
f 660 	668 	829
f 668 	836 	829
f 668 	714 	836
f 714 	882 	836
f 714 	713 	882
f 713 	881 	882
f 713 	711 	881
f 711 	879 	881
f 711 	709 	879
f 709 	877 	879
f 709 	707 	877
f 707 	875 	877
f 707 	705 	875
f 705 	873 	875
f 705 	703 	873
f 703 	871 	873
f 703 	700 	871
f 700 	868 	871
f 700 	698 	868
f 698 	866 	868
f 698 	696 	866
f 696 	864 	866
f 696 	694 	864
f 694 	862 	864
f 694 	692 	862
f 692 	860 	862
f 692 	691 	860
f 691 	859 	860
f 691 	689 	859
f 689 	857 	859
f 689 	686 	857
f 686 	854 	857
f 686 	684 	854
f 684 	852 	854
f 684 	682 	852
f 682 	850 	852
f 682 	680 	850
f 680 	848 	850
# 1764 faces

 #end of obj_0

o obj_1
v 3.8947 		-37.1792 		0
v -1 		-37.5 		0
v -1 		0 		0
v 8.7057 		-36.2222 		0
v 13.3506 		-34.6455 		0
v 17.75 		-32.476 		0
v 21.8286 		-29.7508 		0
v 25.5165 		-26.5165 		0
v 28.7508 		-22.8286 		0
v 31.476 		-18.75 		0
v 33.6455 		-14.3506 		0
v 35.2222 		-9.7057 		0
v 36.1792 		-4.8947 		0
v 36.5 		0 		0
v 36.1792 		4.8947 		0
v 35.2222 		9.7057 		0
v 33.6455 		14.3506 		0
v 31.476 		18.75 		0
v 28.7508 		22.8286 		0
v 25.5165 		26.5165 		0
v 21.8286 		29.7508 		0
v 17.75 		32.476 		0
v 13.3506 		34.6455 		0
v 8.7057 		36.2222 		0
v 3.8947 		37.1792 		0
v -1 		37.5 		0
v -5.8947 		37.1792 		0
v -10.7057 		36.2222 		0
v -15.3506 		34.6455 		0
v -19.75 		32.476 		0
v -23.8286 		29.7508 		0
v -27.5165 		26.5165 		0
v -30.7508 		22.8286 		0
v -33.476 		18.75 		0
v -35.6455 		14.3506 		0
v -37.2222 		9.7057 		0
v -38.1792 		4.8947 		0
v -38.5 		0 		0
v -38.1792 		-4.8947 		0
v -37.2222 		-9.7057 		0
v -35.6455 		-14.3506 		0
v -33.476 		-18.75 		0
v -30.7508 		-22.8286 		0
v -27.5165 		-26.5165 		0
v -23.8286 		-29.7508 		0
v -19.75 		-32.476 		0
v -15.3506 		-34.6455 		0
v -10.7057 		-36.2222 		0
v -5.8947 		-37.1792 		0
v -1 		-37.5 		50
v 3.8947 		-37.1792 		50
v -1 		0 		50
v 8.7057 		-36.2222 		50
v 13.3506 		-34.6455 		50
v 17.75 		-32.476 		50
v 21.8286 		-29.7508 		50
v 25.5165 		-26.5165 		50
v 28.7508 		-22.8286 		50
v 31.476 		-18.75 		50
v 33.6455 		-14.3506 		50
v 35.2222 		-9.7057 		50
v 36.1792 		-4.8947 		50
v 36.5 		0 		50
v 36.1792 		4.8947 		50
v 35.2222 		9.7057 		50
v 33.6455 		14.3506 		50
v 31.476 		18.75 		50
v 28.7508 		22.8286 		50
v 25.5165 		26.5165 		50
v 21.8286 		29.7508 		50
v 17.75 		32.476 		50
v 13.3506 		34.6455 		50
v 8.7057 		36.2222 		50
v 3.8947 		37.1792 		50
v -1 		37.5 		50
v -5.8947 		37.1792 		50
v -10.7057 		36.2222 		50
v -15.3506 		34.6455 		50
v -19.75 		32.476 		50
v -23.8286 		29.7508 		50
v -27.5165 		26.5165 		50
v -30.7508 		22.8286 		50
v -33.476 		18.75 		50
v -35.6455 		14.3506 		50
v -37.2222 		9.7057 		50
v -38.1792 		4.8947 		50
v -38.5 		0 		50
v -38.1792 		-4.8947 		50
v -37.2222 		-9.7057 		50
v -35.6455 		-14.3506 		50
v -33.476 		-18.75 		50
v -30.7508 		-22.8286 		50
v -27.5165 		-26.5165 		50
v -23.8286 		-29.7508 		50
v -19.75 		-32.476 		50
v -15.3506 		-34.6455 		50
v -10.7057 		-36.2222 		50
v -5.8947 		-37.1792 		50
v 5.5263 		-49.5722 		6.25
v -1 		-50 		6.25
v 11.941 		-48.2963 		6.25
v 18.1342 		-46.194 		6.25
v 24 		-43.3013 		6.25
v 29.4381 		-39.6677 		6.25
v 34.3553 		-35.3553 		6.25
v 38.6677 		-30.4381 		6.25
v 42.3013 		-25 		6.25
v 45.194 		-19.1342 		6.25
v 47.2963 		-12.941 		6.25
v 48.5722 		-6.5263 		6.25
v 49 		0 		6.25
v 48.5722 		6.5263 		6.25
v 47.2963 		12.941 		6.25
v 45.194 		19.1342 		6.25
v 42.3013 		25 		6.25
v 38.6677 		30.4381 		6.25
v 34.3553 		35.3553 		6.25
v 29.4381 		39.6677 		6.25
v 24 		43.3013 		6.25
v 18.1342 		46.194 		6.25
v 11.941 		48.2963 		6.25
v 5.5263 		49.5722 		6.25
v -1 		50 		6.25
v -7.5263 		49.5722 		6.25
v -13.941 		48.2963 		6.25
v -20.1342 		46.194 		6.25
v -26 		43.3013 		6.25
v -31.4381 		39.6677 		6.25
v -36.3553 		35.3553 		6.25
v -40.6677 		30.4381 		6.25
v -44.3013 		25 		6.25
v -47.194 		19.1342 		6.25
v -49.2963 		12.941 		6.25
v -50.5722 		6.5263 		6.25
v -51 		0 		6.25
v -50.5722 		-6.5263 		6.25
v -49.2963 		-12.941 		6.25
v -47.194 		-19.1342 		6.25
v -44.3013 		-25 		6.25
v -40.6677 		-30.4381 		6.25
v -36.3553 		-35.3553 		6.25
v -31.4381 		-39.6677 		6.25
v -26 		-43.3013 		6.25
v -20.1342 		-46.194 		6.25
v -13.941 		-48.2963 		6.25
v -7.5263 		-49.5722 		6.25
v 5.5263 		-49.5722 		43.75
v -1 		-50 		43.75
v 11.941 		-48.2963 		43.75
v 18.1342 		-46.194 		43.75
v 24 		-43.3013 		43.75
v 29.4381 		-39.6677 		43.75
v 34.3553 		-35.3553 		43.75
v 38.6677 		-30.4381 		43.75
v 42.3013 		-25 		43.75
v 45.194 		-19.1342 		43.75
v 47.2963 		-12.941 		43.75
v 48.5722 		-6.5263 		43.75
v 49 		0 		43.75
v 48.5722 		6.5263 		43.75
v 47.2963 		12.941 		43.75
v 45.194 		19.1342 		43.75
v 42.3013 		25 		43.75
v 38.6677 		30.4381 		43.75
v 34.3553 		35.3553 		43.75
v 29.4381 		39.6677 		43.75
v 24 		43.3013 		43.75
v 18.1342 		46.194 		43.75
v 11.941 		48.2963 		43.75
v 5.5263 		49.5722 		43.75
v -1 		50 		43.75
v -7.5263 		49.5722 		43.75
v -13.941 		48.2963 		43.75
v -20.1342 		46.194 		43.75
v -26 		43.3013 		43.75
v -31.4381 		39.6677 		43.75
v -36.3553 		35.3553 		43.75
v -40.6677 		30.4381 		43.75
v -44.3013 		25 		43.75
v -47.194 		19.1342 		43.75
v -49.2963 		12.941 		43.75
v -50.5722 		6.5263 		43.75
v -51 		0 		43.75
v -50.5722 		-6.5263 		43.75
v -49.2963 		-12.941 		43.75
v -47.194 		-19.1342 		43.75
v -44.3013 		-25 		43.75
v -40.6677 		-30.4381 		43.75
v -36.3553 		-35.3553 		43.75
v -31.4381 		-39.6677 		43.75
v -26 		-43.3013 		43.75
v -20.1342 		-46.194 		43.75
v -13.941 		-48.2963 		43.75
v -7.5263 		-49.5722 		43.75
# 194 vertices

g group_1_16089887

usemtl color_16089887
s 0

f 885 	886 	887
f 888 	885 	887
f 889 	888 	887
f 890 	889 	887
f 891 	890 	887
f 892 	891 	887
f 893 	892 	887
f 894 	893 	887
f 895 	894 	887
f 896 	895 	887
f 897 	896 	887
f 898 	897 	887
f 899 	898 	887
f 900 	899 	887
f 901 	900 	887
f 902 	901 	887
f 903 	902 	887
f 904 	903 	887
f 905 	904 	887
f 906 	905 	887
f 907 	906 	887
f 908 	907 	887
f 909 	908 	887
f 910 	909 	887
f 911 	910 	887
f 912 	911 	887
f 913 	912 	887
f 914 	913 	887
f 915 	914 	887
f 916 	915 	887
f 917 	916 	887
f 918 	917 	887
f 919 	918 	887
f 920 	919 	887
f 921 	920 	887
f 922 	921 	887
f 923 	922 	887
f 924 	923 	887
f 925 	924 	887
f 926 	925 	887
f 927 	926 	887
f 928 	927 	887
f 929 	928 	887
f 930 	929 	887
f 931 	930 	887
f 932 	931 	887
f 933 	932 	887
f 886 	933 	887
f 934 	935 	936
f 935 	937 	936
f 937 	938 	936
f 938 	939 	936
f 939 	940 	936
f 940 	941 	936
f 941 	942 	936
f 942 	943 	936
f 943 	944 	936
f 944 	945 	936
f 945 	946 	936
f 946 	947 	936
f 947 	948 	936
f 948 	949 	936
f 949 	950 	936
f 950 	951 	936
f 951 	952 	936
f 952 	953 	936
f 953 	954 	936
f 954 	955 	936
f 955 	956 	936
f 956 	957 	936
f 957 	958 	936
f 958 	959 	936
f 959 	960 	936
f 960 	961 	936
f 961 	962 	936
f 962 	963 	936
f 963 	964 	936
f 964 	965 	936
f 965 	966 	936
f 966 	967 	936
f 967 	968 	936
f 968 	969 	936
f 969 	970 	936
f 970 	971 	936
f 971 	972 	936
f 972 	973 	936
f 973 	974 	936
f 974 	975 	936
f 975 	976 	936
f 976 	977 	936
f 977 	978 	936
f 978 	979 	936
f 979 	980 	936
f 980 	981 	936
f 981 	982 	936
f 982 	934 	936
f 886 	885 	983
f 886 	983 	984
f 885 	888 	985
f 885 	985 	983
f 888 	889 	986
f 888 	986 	985
f 889 	890 	987
f 889 	987 	986
f 890 	891 	988
f 890 	988 	987
f 891 	892 	989
f 891 	989 	988
f 892 	893 	990
f 892 	990 	989
f 893 	894 	991
f 893 	991 	990
f 894 	895 	992
f 894 	992 	991
f 895 	896 	993
f 895 	993 	992
f 896 	897 	994
f 896 	994 	993
f 897 	898 	995
f 897 	995 	994
f 898 	899 	996
f 898 	996 	995
f 899 	900 	997
f 899 	997 	996
f 900 	901 	998
f 900 	998 	997
f 901 	902 	999
f 901 	999 	998
f 902 	903 	1000
f 902 	1000 	999
f 903 	904 	1001
f 903 	1001 	1000
f 904 	905 	1002
f 904 	1002 	1001
f 905 	906 	1003
f 905 	1003 	1002
f 906 	907 	1004
f 906 	1004 	1003
f 907 	908 	1005
f 907 	1005 	1004
f 908 	909 	1006
f 908 	1006 	1005
f 909 	910 	1007
f 909 	1007 	1006
f 910 	911 	1008
f 910 	1008 	1007
f 911 	912 	1009
f 911 	1009 	1008
f 912 	913 	1010
f 912 	1010 	1009
f 913 	914 	1011
f 913 	1011 	1010
f 914 	915 	1012
f 914 	1012 	1011
f 915 	916 	1013
f 915 	1013 	1012
f 916 	917 	1014
f 916 	1014 	1013
f 917 	918 	1015
f 917 	1015 	1014
f 918 	919 	1016
f 918 	1016 	1015
f 919 	920 	1017
f 919 	1017 	1016
f 920 	921 	1018
f 920 	1018 	1017
f 921 	922 	1019
f 921 	1019 	1018
f 922 	923 	1020
f 922 	1020 	1019
f 923 	924 	1021
f 923 	1021 	1020
f 924 	925 	1022
f 924 	1022 	1021
f 925 	926 	1023
f 925 	1023 	1022
f 926 	927 	1024
f 926 	1024 	1023
f 927 	928 	1025
f 927 	1025 	1024
f 928 	929 	1026
f 928 	1026 	1025
f 929 	930 	1027
f 929 	1027 	1026
f 930 	931 	1028
f 930 	1028 	1027
f 931 	932 	1029
f 931 	1029 	1028
f 932 	933 	1030
f 932 	1030 	1029
f 933 	886 	984
f 933 	984 	1030
f 984 	983 	1031
f 984 	1031 	1032
f 983 	985 	1033
f 983 	1033 	1031
f 985 	986 	1034
f 985 	1034 	1033
f 986 	987 	1035
f 986 	1035 	1034
f 987 	988 	1036
f 987 	1036 	1035
f 988 	989 	1037
f 988 	1037 	1036
f 989 	990 	1038
f 989 	1038 	1037
f 990 	991 	1039
f 990 	1039 	1038
f 991 	992 	1040
f 991 	1040 	1039
f 992 	993 	1041
f 992 	1041 	1040
f 993 	994 	1042
f 993 	1042 	1041
f 994 	995 	1043
f 994 	1043 	1042
f 995 	996 	1044
f 995 	1044 	1043
f 996 	997 	1045
f 996 	1045 	1044
f 997 	998 	1046
f 997 	1046 	1045
f 998 	999 	1047
f 998 	1047 	1046
f 999 	1000 	1048
f 999 	1048 	1047
f 1000 	1001 	1049
f 1000 	1049 	1048
f 1001 	1002 	1050
f 1001 	1050 	1049
f 1002 	1003 	1051
f 1002 	1051 	1050
f 1003 	1004 	1052
f 1003 	1052 	1051
f 1004 	1005 	1053
f 1004 	1053 	1052
f 1005 	1006 	1054
f 1005 	1054 	1053
f 1006 	1007 	1055
f 1006 	1055 	1054
f 1007 	1008 	1056
f 1007 	1056 	1055
f 1008 	1009 	1057
f 1008 	1057 	1056
f 1009 	1010 	1058
f 1009 	1058 	1057
f 1010 	1011 	1059
f 1010 	1059 	1058
f 1011 	1012 	1060
f 1011 	1060 	1059
f 1012 	1013 	1061
f 1012 	1061 	1060
f 1013 	1014 	1062
f 1013 	1062 	1061
f 1014 	1015 	1063
f 1014 	1063 	1062
f 1015 	1016 	1064
f 1015 	1064 	1063
f 1016 	1017 	1065
f 1016 	1065 	1064
f 1017 	1018 	1066
f 1017 	1066 	1065
f 1018 	1019 	1067
f 1018 	1067 	1066
f 1019 	1020 	1068
f 1019 	1068 	1067
f 1020 	1021 	1069
f 1020 	1069 	1068
f 1021 	1022 	1070
f 1021 	1070 	1069
f 1022 	1023 	1071
f 1022 	1071 	1070
f 1023 	1024 	1072
f 1023 	1072 	1071
f 1024 	1025 	1073
f 1024 	1073 	1072
f 1025 	1026 	1074
f 1025 	1074 	1073
f 1026 	1027 	1075
f 1026 	1075 	1074
f 1027 	1028 	1076
f 1027 	1076 	1075
f 1028 	1029 	1077
f 1028 	1077 	1076
f 1029 	1030 	1078
f 1029 	1078 	1077
f 1030 	984 	1032
f 1030 	1032 	1078
f 1032 	1031 	935
f 1032 	935 	934
f 1031 	1033 	937
f 1031 	937 	935
f 1033 	1034 	938
f 1033 	938 	937
f 1034 	1035 	939
f 1034 	939 	938
f 1035 	1036 	940
f 1035 	940 	939
f 1036 	1037 	941
f 1036 	941 	940
f 1037 	1038 	942
f 1037 	942 	941
f 1038 	1039 	943
f 1038 	943 	942
f 1039 	1040 	944
f 1039 	944 	943
f 1040 	1041 	945
f 1040 	945 	944
f 1041 	1042 	946
f 1041 	946 	945
f 1042 	1043 	947
f 1042 	947 	946
f 1043 	1044 	948
f 1043 	948 	947
f 1044 	1045 	949
f 1044 	949 	948
f 1045 	1046 	950
f 1045 	950 	949
f 1046 	1047 	951
f 1046 	951 	950
f 1047 	1048 	952
f 1047 	952 	951
f 1048 	1049 	953
f 1048 	953 	952
f 1049 	1050 	954
f 1049 	954 	953
f 1050 	1051 	955
f 1050 	955 	954
f 1051 	1052 	956
f 1051 	956 	955
f 1052 	1053 	957
f 1052 	957 	956
f 1053 	1054 	958
f 1053 	958 	957
f 1054 	1055 	959
f 1054 	959 	958
f 1055 	1056 	960
f 1055 	960 	959
f 1056 	1057 	961
f 1056 	961 	960
f 1057 	1058 	962
f 1057 	962 	961
f 1058 	1059 	963
f 1058 	963 	962
f 1059 	1060 	964
f 1059 	964 	963
f 1060 	1061 	965
f 1060 	965 	964
f 1061 	1062 	966
f 1061 	966 	965
f 1062 	1063 	967
f 1062 	967 	966
f 1063 	1064 	968
f 1063 	968 	967
f 1064 	1065 	969
f 1064 	969 	968
f 1065 	1066 	970
f 1065 	970 	969
f 1066 	1067 	971
f 1066 	971 	970
f 1067 	1068 	972
f 1067 	972 	971
f 1068 	1069 	973
f 1068 	973 	972
f 1069 	1070 	974
f 1069 	974 	973
f 1070 	1071 	975
f 1070 	975 	974
f 1071 	1072 	976
f 1071 	976 	975
f 1072 	1073 	977
f 1072 	977 	976
f 1073 	1074 	978
f 1073 	978 	977
f 1074 	1075 	979
f 1074 	979 	978
f 1075 	1076 	980
f 1075 	980 	979
f 1076 	1077 	981
f 1076 	981 	980
f 1077 	1078 	982
f 1077 	982 	981
f 1078 	1032 	934
f 1078 	934 	982
# 384 faces

 #end of obj_1

