# Object Export From Tinkercad Server 2015

mtllib obj.mtl

o obj_0
v 5.7198 		-9.9941 		0
v 5.5 		-10 		0
v 5.5 		-7 		0
v 5.9387 		-9.9763 		0
v 6.1558 		-9.9469 		0
v 6.3704 		-9.9057 		0
v 6.5816 		-9.8532 		0
v 6.7884 		-9.7893 		0
v 6.9902 		-9.7145 		0
v 7.1861 		-9.6289 		0
v 7.3754 		-9.533 		0
v 7.5572 		-9.4271 		0
v 7.731 		-9.3115 		0
v 7.8959 		-9.1869 		0
v 8.0514 		-9.0536 		0
v 8.1968 		-8.9123 		0
v 8.3316 		-8.7634 		0
v 8.4551 		-8.6075 		0
v 8.5671 		-8.4453 		0
v 8.6669 		-8.2773 		0
v 8.7542 		-8.1044 		0
v 8.8287 		-7.9271 		0
v 8.89 		-7.7461 		0
v 8.938 		-7.5621 		0
v 8.9724 		-7.376 		0
v 8.9931 		-7.1884 		0
v 9 		-7 		0
v 8.9931 		-6.8116 		0
v 8.9724 		-6.624 		0
v 8.938 		-6.4379 		0
v 8.89 		-6.2539 		0
v 8.8287 		-6.0729 		0
v 8.7542 		-5.8956 		0
v 8.6669 		-5.7227 		0
v 8.5671 		-5.5547 		0
v 8.4551 		-5.3925 		0
v 8.3316 		-5.2366 		0
v 8.1968 		-5.0877 		0
v 8.0514 		-4.9464 		0
v 7.8959 		-4.8131 		0
v 7.731 		-4.6885 		0
v 7.5572 		-4.5729 		0
v 7.3754 		-4.467 		0
v 7.1861 		-4.3711 		0
v 6.9902 		-4.2855 		0
v 6.7884 		-4.2107 		0
v 6.5816 		-4.1468 		0
v 6.3704 		-4.0943 		0
v 6.1558 		-4.0531 		0
v 5.9387 		-4.0237 		0
v 5.7198 		-4.0059 		0
v 5.5 		-4 		0
v 5.2802 		-4.0059 		0
v 5.0613 		-4.0237 		0
v 4.8442 		-4.0531 		0
v 4.6296 		-4.0943 		0
v 4.4184 		-4.1468 		0
v 4.2116 		-4.2107 		0
v 4.0098 		-4.2855 		0
v 3.8139 		-4.3711 		0
v 3.6246 		-4.467 		0
v 3.4428 		-4.5729 		0
v 3.269 		-4.6885 		0
v 3.1041 		-4.8131 		0
v 2.9486 		-4.9464 		0
v 2.8032 		-5.0877 		0
v 2.6684 		-5.2366 		0
v 2.5449 		-5.3925 		0
v 2.4329 		-5.5547 		0
v 2.3331 		-5.7227 		0
v 2.2458 		-5.8956 		0
v 2.1713 		-6.0729 		0
v 2.11 		-6.2539 		0
v 2.062 		-6.4379 		0
v 2.0276 		-6.624 		0
v 2.0069 		-6.8116 		0
v 2 		-7 		0
v 2.0069 		-7.1884 		0
v 2.0276 		-7.376 		0
v 2.062 		-7.5621 		0
v 2.11 		-7.7461 		0
v 2.1713 		-7.9271 		0
v 2.2458 		-8.1044 		0
v 2.3331 		-8.2773 		0
v 2.4329 		-8.4453 		0
v 2.5449 		-8.6075 		0
v 2.6684 		-8.7634 		0
v 2.8032 		-8.9123 		0
v 2.9486 		-9.0536 		0
v 3.1041 		-9.1869 		0
v 3.269 		-9.3115 		0
v 3.4428 		-9.4271 		0
v 3.6246 		-9.533 		0
v 3.8139 		-9.6289 		0
v 4.0098 		-9.7145 		0
v 4.2116 		-9.7893 		0
v 4.4184 		-9.8532 		0
v 4.6296 		-9.9057 		0
v 4.8442 		-9.9469 		0
v 5.0613 		-9.9763 		0
v 5.2802 		-9.9941 		0
v 5.5 		-10 		60
v 5.7198 		-9.9941 		60
v 5.5 		-7 		60
v 5.9387 		-9.9763 		60
v 6.1558 		-9.9469 		60
v 6.3704 		-9.9057 		60
v 6.5816 		-9.8532 		60
v 6.7884 		-9.7893 		60
v 6.9902 		-9.7145 		60
v 7.1861 		-9.6289 		60
v 7.3754 		-9.533 		60
v 7.5572 		-9.4271 		60
v 7.731 		-9.3115 		60
v 7.8959 		-9.1869 		60
v 8.0514 		-9.0536 		60
v 8.1968 		-8.9123 		60
v 8.3316 		-8.7634 		60
v 8.4551 		-8.6075 		60
v 8.5671 		-8.4453 		60
v 8.6669 		-8.2773 		60
v 8.7542 		-8.1044 		60
v 8.8287 		-7.9271 		60
v 8.89 		-7.7461 		60
v 8.938 		-7.5621 		60
v 8.9724 		-7.376 		60
v 8.9931 		-7.1884 		60
v 9 		-7 		60
v 8.9931 		-6.8116 		60
v 8.9724 		-6.624 		60
v 8.938 		-6.4379 		60
v 8.89 		-6.2539 		60
v 8.8287 		-6.0729 		60
v 8.7542 		-5.8956 		60
v 8.6669 		-5.7227 		60
v 8.5671 		-5.5547 		60
v 8.4551 		-5.3925 		60
v 8.3316 		-5.2366 		60
v 8.1968 		-5.0877 		60
v 8.0514 		-4.9464 		60
v 7.8959 		-4.8131 		60
v 7.731 		-4.6885 		60
v 7.5572 		-4.5729 		60
v 7.3754 		-4.467 		60
v 7.1861 		-4.3711 		60
v 6.9902 		-4.2855 		60
v 6.7884 		-4.2107 		60
v 6.5816 		-4.1468 		60
v 6.3704 		-4.0943 		60
v 6.1558 		-4.0531 		60
v 5.9387 		-4.0237 		60
v 5.7198 		-4.0059 		60
v 5.5 		-4 		60
v 5.2802 		-4.0059 		60
v 5.0613 		-4.0237 		60
v 4.8442 		-4.0531 		60
v 4.6296 		-4.0943 		60
v 4.4184 		-4.1468 		60
v 4.2116 		-4.2107 		60
v 4.0098 		-4.2855 		60
v 3.8139 		-4.3711 		60
v 3.6246 		-4.467 		60
v 3.4428 		-4.5729 		60
v 3.269 		-4.6885 		60
v 3.1041 		-4.8131 		60
v 2.9486 		-4.9464 		60
v 2.8032 		-5.0877 		60
v 2.6684 		-5.2366 		60
v 2.5449 		-5.3925 		60
v 2.4329 		-5.5547 		60
v 2.3331 		-5.7227 		60
v 2.2458 		-5.8956 		60
v 2.1713 		-6.0729 		60
v 2.11 		-6.2539 		60
v 2.062 		-6.4379 		60
v 2.0276 		-6.624 		60
v 2.0069 		-6.8116 		60
v 2 		-7 		60
v 2.0069 		-7.1884 		60
v 2.0276 		-7.376 		60
v 2.062 		-7.5621 		60
v 2.11 		-7.7461 		60
v 2.1713 		-7.9271 		60
v 2.2458 		-8.1044 		60
v 2.3331 		-8.2773 		60
v 2.4329 		-8.4453 		60
v 2.5449 		-8.6075 		60
v 2.6684 		-8.7634 		60
v 2.8032 		-8.9123 		60
v 2.9486 		-9.0536 		60
v 3.1041 		-9.1869 		60
v 3.269 		-9.3115 		60
v 3.4428 		-9.4271 		60
v 3.6246 		-9.533 		60
v 3.8139 		-9.6289 		60
v 4.0098 		-9.7145 		60
v 4.2116 		-9.7893 		60
v 4.4184 		-9.8532 		60
v 4.6296 		-9.9057 		60
v 4.8442 		-9.9469 		60
v 5.0613 		-9.9763 		60
v 5.2802 		-9.9941 		60
# 202 vertices

g group_0_16089887

usemtl color_16089887
s 0

f 1 	2 	3
f 4 	1 	3
f 5 	4 	3
f 6 	5 	3
f 7 	6 	3
f 8 	7 	3
f 9 	8 	3
f 10 	9 	3
f 11 	10 	3
f 12 	11 	3
f 13 	12 	3
f 14 	13 	3
f 15 	14 	3
f 16 	15 	3
f 17 	16 	3
f 18 	17 	3
f 19 	18 	3
f 20 	19 	3
f 21 	20 	3
f 22 	21 	3
f 23 	22 	3
f 24 	23 	3
f 25 	24 	3
f 26 	25 	3
f 27 	26 	3
f 28 	27 	3
f 29 	28 	3
f 30 	29 	3
f 31 	30 	3
f 32 	31 	3
f 33 	32 	3
f 34 	33 	3
f 35 	34 	3
f 36 	35 	3
f 37 	36 	3
f 38 	37 	3
f 39 	38 	3
f 40 	39 	3
f 41 	40 	3
f 42 	41 	3
f 43 	42 	3
f 44 	43 	3
f 45 	44 	3
f 46 	45 	3
f 47 	46 	3
f 48 	47 	3
f 49 	48 	3
f 50 	49 	3
f 51 	50 	3
f 52 	51 	3
f 53 	52 	3
f 54 	53 	3
f 55 	54 	3
f 56 	55 	3
f 57 	56 	3
f 58 	57 	3
f 59 	58 	3
f 60 	59 	3
f 61 	60 	3
f 62 	61 	3
f 63 	62 	3
f 64 	63 	3
f 65 	64 	3
f 66 	65 	3
f 67 	66 	3
f 68 	67 	3
f 69 	68 	3
f 70 	69 	3
f 71 	70 	3
f 72 	71 	3
f 73 	72 	3
f 74 	73 	3
f 75 	74 	3
f 76 	75 	3
f 77 	76 	3
f 78 	77 	3
f 79 	78 	3
f 80 	79 	3
f 81 	80 	3
f 82 	81 	3
f 83 	82 	3
f 84 	83 	3
f 85 	84 	3
f 86 	85 	3
f 87 	86 	3
f 88 	87 	3
f 89 	88 	3
f 90 	89 	3
f 91 	90 	3
f 92 	91 	3
f 93 	92 	3
f 94 	93 	3
f 95 	94 	3
f 96 	95 	3
f 97 	96 	3
f 98 	97 	3
f 99 	98 	3
f 100 	99 	3
f 101 	100 	3
f 2 	101 	3
f 102 	103 	104
f 103 	105 	104
f 105 	106 	104
f 106 	107 	104
f 107 	108 	104
f 108 	109 	104
f 109 	110 	104
f 110 	111 	104
f 111 	112 	104
f 112 	113 	104
f 113 	114 	104
f 114 	115 	104
f 115 	116 	104
f 116 	117 	104
f 117 	118 	104
f 118 	119 	104
f 119 	120 	104
f 120 	121 	104
f 121 	122 	104
f 122 	123 	104
f 123 	124 	104
f 124 	125 	104
f 125 	126 	104
f 126 	127 	104
f 127 	128 	104
f 128 	129 	104
f 129 	130 	104
f 130 	131 	104
f 131 	132 	104
f 132 	133 	104
f 133 	134 	104
f 134 	135 	104
f 135 	136 	104
f 136 	137 	104
f 137 	138 	104
f 138 	139 	104
f 139 	140 	104
f 140 	141 	104
f 141 	142 	104
f 142 	143 	104
f 143 	144 	104
f 144 	145 	104
f 145 	146 	104
f 146 	147 	104
f 147 	148 	104
f 148 	149 	104
f 149 	150 	104
f 150 	151 	104
f 151 	152 	104
f 152 	153 	104
f 153 	154 	104
f 154 	155 	104
f 155 	156 	104
f 156 	157 	104
f 157 	158 	104
f 158 	159 	104
f 159 	160 	104
f 160 	161 	104
f 161 	162 	104
f 162 	163 	104
f 163 	164 	104
f 164 	165 	104
f 165 	166 	104
f 166 	167 	104
f 167 	168 	104
f 168 	169 	104
f 169 	170 	104
f 170 	171 	104
f 171 	172 	104
f 172 	173 	104
f 173 	174 	104
f 174 	175 	104
f 175 	176 	104
f 176 	177 	104
f 177 	178 	104
f 178 	179 	104
f 179 	180 	104
f 180 	181 	104
f 181 	182 	104
f 182 	183 	104
f 183 	184 	104
f 184 	185 	104
f 185 	186 	104
f 186 	187 	104
f 187 	188 	104
f 188 	189 	104
f 189 	190 	104
f 190 	191 	104
f 191 	192 	104
f 192 	193 	104
f 193 	194 	104
f 194 	195 	104
f 195 	196 	104
f 196 	197 	104
f 197 	198 	104
f 198 	199 	104
f 199 	200 	104
f 200 	201 	104
f 201 	202 	104
f 202 	102 	104
f 2 	1 	1
f 1 	4 	4
f 4 	5 	5
f 5 	6 	6
f 6 	7 	7
f 7 	8 	8
f 8 	9 	9
f 9 	10 	10
f 10 	11 	11
f 11 	12 	12
f 12 	13 	13
f 13 	14 	14
f 14 	15 	15
f 15 	16 	16
f 16 	17 	17
f 17 	18 	18
f 18 	19 	19
f 19 	20 	20
f 20 	21 	21
f 21 	22 	22
f 22 	23 	23
f 23 	24 	24
f 24 	25 	25
f 25 	26 	26
f 26 	27 	27
f 27 	28 	28
f 28 	29 	29
f 29 	30 	30
f 30 	31 	31
f 31 	32 	32
f 32 	33 	33
f 33 	34 	34
f 34 	35 	35
f 35 	36 	36
f 36 	37 	37
f 37 	38 	38
f 38 	39 	39
f 39 	40 	40
f 40 	41 	41
f 41 	42 	42
f 42 	43 	43
f 43 	44 	44
f 44 	45 	45
f 45 	46 	46
f 46 	47 	47
f 47 	48 	48
f 48 	49 	49
f 49 	50 	50
f 50 	51 	51
f 51 	52 	52
f 52 	53 	53
f 53 	54 	54
f 54 	55 	55
f 55 	56 	56
f 56 	57 	57
f 57 	58 	58
f 58 	59 	59
f 59 	60 	60
f 60 	61 	61
f 61 	62 	62
f 62 	63 	63
f 63 	64 	64
f 64 	65 	65
f 65 	66 	66
f 66 	67 	67
f 67 	68 	68
f 68 	69 	69
f 69 	70 	70
f 70 	71 	71
f 71 	72 	72
f 72 	73 	73
f 73 	74 	74
f 74 	75 	75
f 75 	76 	76
f 76 	77 	77
f 77 	78 	78
f 78 	79 	79
f 79 	80 	80
f 80 	81 	81
f 81 	82 	82
f 82 	83 	83
f 83 	84 	84
f 84 	85 	85
f 85 	86 	86
f 86 	87 	87
f 87 	88 	88
f 88 	89 	89
f 89 	90 	90
f 90 	91 	91
f 91 	92 	92
f 92 	93 	93
f 93 	94 	94
f 94 	95 	95
f 95 	96 	96
f 96 	97 	97
f 97 	98 	98
f 98 	99 	99
f 99 	100 	100
f 100 	101 	101
f 101 	2 	2
f 2 	1 	103
f 2 	103 	102
f 1 	4 	105
f 1 	105 	103
f 4 	5 	106
f 4 	106 	105
f 5 	6 	107
f 5 	107 	106
f 6 	7 	108
f 6 	108 	107
f 7 	8 	109
f 7 	109 	108
f 8 	9 	110
f 8 	110 	109
f 9 	10 	111
f 9 	111 	110
f 10 	11 	112
f 10 	112 	111
f 11 	12 	113
f 11 	113 	112
f 12 	13 	114
f 12 	114 	113
f 13 	14 	115
f 13 	115 	114
f 14 	15 	116
f 14 	116 	115
f 15 	16 	117
f 15 	117 	116
f 16 	17 	118
f 16 	118 	117
f 17 	18 	119
f 17 	119 	118
f 18 	19 	120
f 18 	120 	119
f 19 	20 	121
f 19 	121 	120
f 20 	21 	122
f 20 	122 	121
f 21 	22 	123
f 21 	123 	122
f 22 	23 	124
f 22 	124 	123
f 23 	24 	125
f 23 	125 	124
f 24 	25 	126
f 24 	126 	125
f 25 	26 	127
f 25 	127 	126
f 26 	27 	128
f 26 	128 	127
f 27 	28 	129
f 27 	129 	128
f 28 	29 	130
f 28 	130 	129
f 29 	30 	131
f 29 	131 	130
f 30 	31 	132
f 30 	132 	131
f 31 	32 	133
f 31 	133 	132
f 32 	33 	134
f 32 	134 	133
f 33 	34 	135
f 33 	135 	134
f 34 	35 	136
f 34 	136 	135
f 35 	36 	137
f 35 	137 	136
f 36 	37 	138
f 36 	138 	137
f 37 	38 	139
f 37 	139 	138
f 38 	39 	140
f 38 	140 	139
f 39 	40 	141
f 39 	141 	140
f 40 	41 	142
f 40 	142 	141
f 41 	42 	143
f 41 	143 	142
f 42 	43 	144
f 42 	144 	143
f 43 	44 	145
f 43 	145 	144
f 44 	45 	146
f 44 	146 	145
f 45 	46 	147
f 45 	147 	146
f 46 	47 	148
f 46 	148 	147
f 47 	48 	149
f 47 	149 	148
f 48 	49 	150
f 48 	150 	149
f 49 	50 	151
f 49 	151 	150
f 50 	51 	152
f 50 	152 	151
f 51 	52 	153
f 51 	153 	152
f 52 	53 	154
f 52 	154 	153
f 53 	54 	155
f 53 	155 	154
f 54 	55 	156
f 54 	156 	155
f 55 	56 	157
f 55 	157 	156
f 56 	57 	158
f 56 	158 	157
f 57 	58 	159
f 57 	159 	158
f 58 	59 	160
f 58 	160 	159
f 59 	60 	161
f 59 	161 	160
f 60 	61 	162
f 60 	162 	161
f 61 	62 	163
f 61 	163 	162
f 62 	63 	164
f 62 	164 	163
f 63 	64 	165
f 63 	165 	164
f 64 	65 	166
f 64 	166 	165
f 65 	66 	167
f 65 	167 	166
f 66 	67 	168
f 66 	168 	167
f 67 	68 	169
f 67 	169 	168
f 68 	69 	170
f 68 	170 	169
f 69 	70 	171
f 69 	171 	170
f 70 	71 	172
f 70 	172 	171
f 71 	72 	173
f 71 	173 	172
f 72 	73 	174
f 72 	174 	173
f 73 	74 	175
f 73 	175 	174
f 74 	75 	176
f 74 	176 	175
f 75 	76 	177
f 75 	177 	176
f 76 	77 	178
f 76 	178 	177
f 77 	78 	179
f 77 	179 	178
f 78 	79 	180
f 78 	180 	179
f 79 	80 	181
f 79 	181 	180
f 80 	81 	182
f 80 	182 	181
f 81 	82 	183
f 81 	183 	182
f 82 	83 	184
f 82 	184 	183
f 83 	84 	185
f 83 	185 	184
f 84 	85 	186
f 84 	186 	185
f 85 	86 	187
f 85 	187 	186
f 86 	87 	188
f 86 	188 	187
f 87 	88 	189
f 87 	189 	188
f 88 	89 	190
f 88 	190 	189
f 89 	90 	191
f 89 	191 	190
f 90 	91 	192
f 90 	192 	191
f 91 	92 	193
f 91 	193 	192
f 92 	93 	194
f 92 	194 	193
f 93 	94 	195
f 93 	195 	194
f 94 	95 	196
f 94 	196 	195
f 95 	96 	197
f 95 	197 	196
f 96 	97 	198
f 96 	198 	197
f 97 	98 	199
f 97 	199 	198
f 98 	99 	200
f 98 	200 	199
f 99 	100 	201
f 99 	201 	200
f 100 	101 	202
f 100 	202 	201
f 101 	2 	102
f 101 	102 	202
f 102 	103 	103
f 103 	105 	105
f 105 	106 	106
f 106 	107 	107
f 107 	108 	108
f 108 	109 	109
f 109 	110 	110
f 110 	111 	111
f 111 	112 	112
f 112 	113 	113
f 113 	114 	114
f 114 	115 	115
f 115 	116 	116
f 116 	117 	117
f 117 	118 	118
f 118 	119 	119
f 119 	120 	120
f 120 	121 	121
f 121 	122 	122
f 122 	123 	123
f 123 	124 	124
f 124 	125 	125
f 125 	126 	126
f 126 	127 	127
f 127 	128 	128
f 128 	129 	129
f 129 	130 	130
f 130 	131 	131
f 131 	132 	132
f 132 	133 	133
f 133 	134 	134
f 134 	135 	135
f 135 	136 	136
f 136 	137 	137
f 137 	138 	138
f 138 	139 	139
f 139 	140 	140
f 140 	141 	141
f 141 	142 	142
f 142 	143 	143
f 143 	144 	144
f 144 	145 	145
f 145 	146 	146
f 146 	147 	147
f 147 	148 	148
f 148 	149 	149
f 149 	150 	150
f 150 	151 	151
f 151 	152 	152
f 152 	153 	153
f 153 	154 	154
f 154 	155 	155
f 155 	156 	156
f 156 	157 	157
f 157 	158 	158
f 158 	159 	159
f 159 	160 	160
f 160 	161 	161
f 161 	162 	162
f 162 	163 	163
f 163 	164 	164
f 164 	165 	165
f 165 	166 	166
f 166 	167 	167
f 167 	168 	168
f 168 	169 	169
f 169 	170 	170
f 170 	171 	171
f 171 	172 	172
f 172 	173 	173
f 173 	174 	174
f 174 	175 	175
f 175 	176 	176
f 176 	177 	177
f 177 	178 	178
f 178 	179 	179
f 179 	180 	180
f 180 	181 	181
f 181 	182 	182
f 182 	183 	183
f 183 	184 	184
f 184 	185 	185
f 185 	186 	186
f 186 	187 	187
f 187 	188 	188
f 188 	189 	189
f 189 	190 	190
f 190 	191 	191
f 191 	192 	192
f 192 	193 	193
f 193 	194 	194
f 194 	195 	195
f 195 	196 	196
f 196 	197 	197
f 197 	198 	198
f 198 	199 	199
f 199 	200 	200
f 200 	201 	201
f 201 	202 	202
f 202 	102 	102
# 600 faces

 #end of obj_0

o obj_1
v 5 		-6 		61
v 3.4312 		-6 		60.9467
v 3.455 		-6.2119 		60.9467
v 3.5258 		-6.4173 		60.9467
v 3.6414 		-6.6101 		60.9467
v 3.7982 		-6.7843 		60.9467
v 3.9916 		-6.9347 		60.9467
v 4.2156 		-7.0567 		60.9467
v 4.4634 		-7.1466 		60.9467
v 4.7276 		-7.2016 		60.9467
v 5 		-7.2202 		60.9467
v 5.2724 		-7.2016 		60.9467
v 5.5366 		-7.1466 		60.9467
v 5.7844 		-7.0567 		60.9467
v 6.0084 		-6.9347 		60.9467
v 6.2018 		-6.7843 		60.9467
v 6.3586 		-6.6101 		60.9467
v 6.4742 		-6.4173 		60.9467
v 6.545 		-6.2119 		60.9467
v 6.5688 		-6 		60.9467
v 6.545 		-5.7881 		60.9467
v 6.4742 		-5.5827 		60.9467
v 6.3586 		-5.3899 		60.9467
v 6.2018 		-5.2157 		60.9467
v 6.0084 		-5.0653 		60.9467
v 5.7844 		-4.9433 		60.9467
v 5.5366 		-4.8534 		60.9467
v 5.2724 		-4.7984 		60.9467
v 5 		-4.7798 		60.9467
v 4.7276 		-4.7984 		60.9467
v 4.4634 		-4.8534 		60.9467
v 4.2156 		-4.9433 		60.9467
v 3.9916 		-5.0653 		60.9467
v 3.7982 		-5.2157 		60.9467
v 3.6414 		-5.3899 		60.9467
v 3.5258 		-5.5827 		60.9467
v 3.455 		-5.7881 		60.9467
v 1.9218 		-6.4222 		60.7873
v 1.8743 		-6 		60.7873
v 2.0628 		-6.8315 		60.7873
v 2.2931 		-7.2155 		60.7873
v 2.6056 		-7.5627 		60.7873
v 2.9909 		-7.8623 		60.7873
v 3.4372 		-8.1054 		60.7873
v 3.931 		-8.2845 		60.7873
v 4.4572 		-8.3941 		60.7873
v 5 		-8.4311 		60.7873
v 5.5428 		-8.3941 		60.7873
v 6.069 		-8.2845 		60.7873
v 6.5628 		-8.1054 		60.7873
v 7.0091 		-7.8623 		60.7873
v 7.3944 		-7.5627 		60.7873
v 7.7069 		-7.2155 		60.7873
v 7.9372 		-6.8315 		60.7873
v 8.0782 		-6.4222 		60.7873
v 8.1257 		-6 		60.7873
v 8.0782 		-5.5778 		60.7873
v 7.9372 		-5.1685 		60.7873
v 7.7069 		-4.7845 		60.7873
v 7.3944 		-4.4373 		60.7873
v 7.0091 		-4.1377 		60.7873
v 6.5628 		-3.8946 		60.7873
v 6.069 		-3.7155 		60.7873
v 5.5428 		-3.6059 		60.7873
v 5 		-3.5689 		60.7873
v 4.4572 		-3.6059 		60.7873
v 3.931 		-3.7155 		60.7873
v 3.4372 		-3.8946 		60.7873
v 2.9909 		-4.1377 		60.7873
v 2.6056 		-4.4373 		60.7873
v 2.2931 		-4.7845 		60.7873
v 2.0628 		-5.1685 		60.7873
v 1.9218 		-5.5778 		60.7873
v 0.412 		-6.6292 		60.523
v 0.3413 		-6 		60.523
v 0.6222 		-7.2393 		60.523
v 0.9654 		-7.8117 		60.523
v 1.4312 		-8.3291 		60.523
v 2.0054 		-8.7757 		60.523
v 2.6706 		-9.138 		60.523
v 3.4066 		-9.4049 		60.523
v 4.191 		-9.5684 		60.523
v 5 		-9.6235 		60.523
v 5.809 		-9.5684 		60.523
v 6.5934 		-9.4049 		60.523
v 7.3294 		-9.138 		60.523
v 7.9946 		-8.7757 		60.523
v 8.5688 		-8.3291 		60.523
v 9.0346 		-7.8117 		60.523
v 9.3778 		-7.2393 		60.523
v 9.588 		-6.6292 		60.523
v 9.6587 		-6 		60.523
v 9.588 		-5.3708 		60.523
v 9.3778 		-4.7607 		60.523
v 9.0346 		-4.1883 		60.523
v 8.5688 		-3.6709 		60.523
v 7.9946 		-3.2243 		60.523
v 7.3294 		-2.862 		60.523
v 6.5934 		-2.5951 		60.523
v 5.809 		-2.4316 		60.523
v 5 		-2.3765 		60.523
v 4.191 		-2.4316 		60.523
v 3.4066 		-2.5951 		60.523
v 2.6706 		-2.862 		60.523
v 2.0054 		-3.2243 		60.523
v 1.4312 		-3.6709 		60.523
v 0.9654 		-4.1883 		60.523
v 0.6222 		-4.7607 		60.523
v 0.412 		-5.3708 		60.523
v -1.0628 		-6.8315 		60.1557
v -1.1564 		-6 		60.1557
v -0.7851 		-7.6377 		60.1557
v -0.3316 		-8.3941 		60.1557
v 0.284 		-9.0778 		60.1557
v 1.0428 		-9.668 		60.1557
v 1.9218 		-10.1468 		60.1557
v 2.8944 		-10.4995 		60.1557
v 3.931 		-10.7155 		60.1557
v 5 		-10.7883 		60.1557
v 6.069 		-10.7155 		60.1557
v 7.1056 		-10.4995 		60.1557
v 8.0782 		-10.1468 		60.1557
v 8.9572 		-9.668 		60.1557
v 9.716 		-9.0778 		60.1557
v 10.3316 		-8.3941 		60.1557
v 10.7851 		-7.6377 		60.1557
v 11.0628 		-6.8315 		60.1557
v 11.1564 		-6 		60.1557
v 11.0628 		-5.1685 		60.1557
v 10.7851 		-4.3623 		60.1557
v 10.3316 		-3.6059 		60.1557
v 9.716 		-2.9222 		60.1557
v 8.9572 		-2.332 		60.1557
v 8.0782 		-1.8532 		60.1557
v 7.1056 		-1.5005 		60.1557
v 6.069 		-1.2845 		60.1557
v 5 		-1.2117 		60.1557
v 3.931 		-1.2845 		60.1557
v 2.8944 		-1.5005 		60.1557
v 1.9218 		-1.8532 		60.1557
v 1.0428 		-2.332 		60.1557
v 0.284 		-2.9222 		60.1557
v -0.3316 		-3.6059 		60.1557
v -0.7851 		-4.3623 		60.1557
v -1.0628 		-5.1685 		60.1557
v -2.4916 		-7.0274 		59.6883
v -2.6071 		-6 		59.6883
v -2.1484 		-8.0236 		59.6883
v -1.588 		-8.9583 		59.6883
v -0.8274 		-9.8032 		59.6883
v 0.1102 		-10.5324 		59.6883
v 1.1964 		-11.124 		59.6883
v 2.3982 		-11.5598 		59.6883
v 3.679 		-11.8268 		59.6883
v 5 		-11.9167 		59.6883
v 6.321 		-11.8268 		59.6883
v 7.6018 		-11.5598 		59.6883
v 8.8036 		-11.124 		59.6883
v 9.8898 		-10.5324 		59.6883
v 10.8274 		-9.8032 		59.6883
v 11.588 		-8.9583 		59.6883
v 12.1484 		-8.0236 		59.6883
v 12.4916 		-7.0274 		59.6883
v 12.6071 		-6 		59.6883
v 12.4916 		-4.9726 		59.6883
v 12.1484 		-3.9764 		59.6883
v 11.588 		-3.0417 		59.6883
v 10.8274 		-2.1968 		59.6883
v 9.8898 		-1.4676 		59.6883
v 8.8036 		-0.876 		59.6883
v 7.6018 		-0.4402 		59.6883
v 6.321 		-0.1732 		59.6883
v 5 		-0.0833 		59.6883
v 3.679 		-0.1732 		59.6883
v 2.3982 		-0.4402 		59.6883
v 1.1964 		-0.876 		59.6883
v 0.1102 		-1.4676 		59.6883
v -0.8274 		-2.1968 		59.6883
v -1.588 		-3.0417 		59.6883
v -2.1484 		-3.9764 		59.6883
v -2.4916 		-4.9726 		59.6883
v -3.8633 		-7.2155 		59.1244
v -4 		-6 		59.1244
v -3.4572 		-8.3941 		59.1244
v -2.7942 		-9.5 		59.1244
v -1.8944 		-10.4995 		59.1244
v -0.7851 		-11.3623 		59.1244
v 0.5 		-12.0622 		59.1244
v 1.9218 		-12.5778 		59.1244
v 3.4372 		-12.8937 		59.1244
v 5 		-13 		59.1244
v 6.5628 		-12.8937 		59.1244
v 8.0782 		-12.5778 		59.1244
v 9.5 		-12.0622 		59.1244
v 10.7851 		-11.3623 		59.1244
v 11.8944 		-10.4995 		59.1244
v 12.7942 		-9.5 		59.1244
v 13.4572 		-8.3941 		59.1244
v 13.8633 		-7.2155 		59.1244
v 14 		-6 		59.1244
v 13.8633 		-4.7845 		59.1244
v 13.4572 		-3.6059 		59.1244
v 12.7942 		-2.5 		59.1244
v 11.8944 		-1.5005 		59.1244
v 10.7851 		-0.6377 		59.1244
v 9.5 		0.0622 		59.1244
v 8.0782 		0.5778 		59.1244
v 6.5628 		0.8937 		59.1244
v 5 		1 		59.1244
v 3.4372 		0.8937 		59.1244
v 1.9218 		0.5778 		59.1244
v 0.5 		0.0622 		59.1244
v -0.7851 		-0.6377 		59.1244
v -1.8944 		-1.5005 		59.1244
v -2.7942 		-2.5 		59.1244
v -3.4572 		-3.6059 		59.1244
v -3.8633 		-4.7845 		59.1244
v -5.1675 		-7.3944 		58.4681
v -5.3244 		-6 		58.4681
v -4.7017 		-8.7464 		58.4681
v -3.9412 		-10.015 		58.4681
v -2.9089 		-11.1616 		58.4681
v -1.6364 		-12.1514 		58.4681
v -0.1622 		-12.9542 		58.4681
v 1.4689 		-13.5458 		58.4681
v 3.2072 		-13.9081 		58.4681
v 5 		-14.0301 		58.4681
v 6.7928 		-13.9081 		58.4681
v 8.5311 		-13.5458 		58.4681
v 10.1622 		-12.9542 		58.4681
v 11.6364 		-12.1514 		58.4681
v 12.9089 		-11.1616 		58.4681
v 13.9412 		-10.015 		58.4681
v 14.7017 		-8.7464 		58.4681
v 15.1675 		-7.3944 		58.4681
v 15.3244 		-6 		58.4681
v 15.1675 		-4.6056 		58.4681
v 14.7017 		-3.2536 		58.4681
v 13.9412 		-1.985 		58.4681
v 12.9089 		-0.8384 		58.4681
v 11.6364 		0.1514 		58.4681
v 10.1622 		0.9542 		58.4681
v 8.5311 		1.5458 		58.4681
v 6.7928 		1.9081 		58.4681
v 5 		2.0301 		58.4681
v 3.2072 		1.9081 		58.4681
v 1.4689 		1.5458 		58.4681
v -0.1622 		0.9542 		58.4681
v -1.6364 		0.1514 		58.4681
v -2.9089 		-0.8384 		58.4681
v -3.9412 		-1.985 		58.4681
v -4.7017 		-3.2536 		58.4681
v -5.1675 		-4.6056 		58.4681
v -6.3944 		-7.5627 		57.7246
v -6.5702 		-6 		57.7246
v -5.8724 		-9.0778 		57.7246
v -5.0201 		-10.4995 		57.7246
v -3.8633 		-11.7845 		57.7246
v -2.4372 		-12.8937 		57.7246
v -0.7851 		-13.7934 		57.7246
v 1.0428 		-14.4563 		57.7246
v 2.9909 		-14.8623 		57.7246
v 5 		-14.999 		57.7246
v 7.0091 		-14.8623 		57.7246
v 8.9572 		-14.4563 		57.7246
v 10.7851 		-13.7934 		57.7246
v 12.4372 		-12.8937 		57.7246
v 13.8633 		-11.7845 		57.7246
v 15.0201 		-10.4995 		57.7246
v 15.8724 		-9.0778 		57.7246
v 16.3944 		-7.5627 		57.7246
v 16.5702 		-6 		57.7246
v 16.3944 		-4.4373 		57.7246
v 15.8724 		-2.9222 		57.7246
v 15.0201 		-1.5005 		57.7246
v 13.8633 		-0.2155 		57.7246
v 12.4372 		0.8937 		57.7246
v 10.7851 		1.7934 		57.7246
v 8.9572 		2.4563 		57.7246
v 7.0091 		2.8623 		57.7246
v 5 		2.999 		57.7246
v 2.9909 		2.8623 		57.7246
v 1.0428 		2.4563 		57.7246
v -0.7851 		1.7934 		57.7246
v -2.4372 		0.8937 		57.7246
v -3.8633 		-0.2155 		57.7246
v -5.0201 		-1.5005 		57.7246
v -5.8724 		-2.9222 		57.7246
v -6.3944 		-4.4373 		57.7246
v -7.5346 		-7.719 		56.8995
v -7.7279 		-6 		56.8995
v -6.9603 		-9.3858 		56.8995
v -6.0227 		-10.9497 		56.8995
v -4.7502 		-12.3633 		56.8995
v -3.1814 		-13.5835 		56.8995
v -1.364 		-14.5732 		56.8995
v 0.6468 		-15.3025 		56.8995
v 2.7898 		-15.7491 		56.8995
v 5 		-15.8995 		56.8995
v 7.2102 		-15.7491 		56.8995
v 9.3532 		-15.3025 		56.8995
v 11.364 		-14.5732 		56.8995
v 13.1814 		-13.5835 		56.8995
v 14.7502 		-12.3633 		56.8995
v 16.0227 		-10.9497 		56.8995
v 16.9603 		-9.3858 		56.8995
v 17.5346 		-7.719 		56.8995
v 17.7279 		-6 		56.8995
v 17.5346 		-4.281 		56.8995
v 16.9603 		-2.6142 		56.8995
v 16.0227 		-1.0503 		56.8995
v 14.7502 		0.3633 		56.8995
v 13.1814 		1.5835 		56.8995
v 11.364 		2.5732 		56.8995
v 9.3532 		3.3025 		56.8995
v 7.2102 		3.7491 		56.8995
v 5 		3.8995 		56.8995
v 2.7898 		3.7491 		56.8995
v 0.6468 		3.3025 		56.8995
v -1.364 		2.5732 		56.8995
v -3.1814 		1.5835 		56.8995
v -4.7502 		0.3633 		56.8995
v -6.0227 		-1.0503 		56.8995
v -6.9603 		-2.6142 		56.8995
v -7.5346 		-4.281 		56.8995
v -8.5793 		-7.8623 		55.999
v -8.7888 		-6 		55.999
v -7.9572 		-9.668 		55.999
v -6.9415 		-11.3623 		55.999
v -5.5628 		-12.8937 		55.999
v -3.8633 		-14.2155 		55.999
v -1.8944 		-15.2878 		55.999
v 0.284 		-16.0778 		55.999
v 2.6056 		-16.5617 		55.999
v 5 		-16.7246 		55.999
v 7.3944 		-16.5617 		55.999
v 9.716 		-16.0778 		55.999
v 11.8944 		-15.2878 		55.999
v 13.8633 		-14.2155 		55.999
v 15.5628 		-12.8937 		55.999
v 16.9415 		-11.3623 		55.999
v 17.9572 		-9.668 		55.999
v 18.5793 		-7.8623 		55.999
v 18.7888 		-6 		55.999
v 18.5793 		-4.1377 		55.999
v 17.9572 		-2.332 		55.999
v 16.9415 		-0.6377 		55.999
v 15.5628 		0.8937 		55.999
v 13.8633 		2.2155 		55.999
v 11.8944 		3.2878 		55.999
v 9.716 		4.0778 		55.999
v 7.3944 		4.5617 		55.999
v 5 		4.7246 		55.999
v 2.6056 		4.5617 		55.999
v 0.284 		4.0778 		55.999
v -1.8944 		3.2878 		55.999
v -3.8633 		2.2155 		55.999
v -5.5628 		0.8937 		55.999
v -6.9415 		-0.6377 		55.999
v -7.9572 		-2.332 		55.999
v -8.5793 		-4.1377 		55.999
v -9.5207 		-7.9914 		55.0301
v -9.7447 		-6 		55.0301
v -8.8555 		-9.9223 		55.0301
v -7.7693 		-11.7341 		55.0301
v -6.2951 		-13.3716 		55.0301
v -4.4777 		-14.7851 		55.0301
v -2.3724 		-15.9317 		55.0301
v -0.043 		-16.7765 		55.0301
v 2.4396 		-17.2939 		55.0301
v 5 		-17.4681 		55.0301
v 7.5604 		-17.2939 		55.0301
v 10.043 		-16.7765 		55.0301
v 12.3724 		-15.9317 		55.0301
v 14.4777 		-14.7851 		55.0301
v 16.2951 		-13.3716 		55.0301
v 17.7693 		-11.7341 		55.0301
v 18.8555 		-9.9223 		55.0301
v 19.5207 		-7.9914 		55.0301
v 19.7447 		-6 		55.0301
v 19.5207 		-4.0086 		55.0301
v 18.8555 		-2.0777 		55.0301
v 17.7693 		-0.2659 		55.0301
v 16.2951 		1.3716 		55.0301
v 14.4777 		2.7851 		55.0301
v 12.3724 		3.9317 		55.0301
v 10.043 		4.7765 		55.0301
v 7.5604 		5.2939 		55.0301
v 5 		5.4681 		55.0301
v 2.4396 		5.2939 		55.0301
v -0.043 		4.7765 		55.0301
v -2.3724 		3.9317 		55.0301
v -4.4777 		2.7851 		55.0301
v -6.2951 		1.3716 		55.0301
v -7.7693 		-0.2659 		55.0301
v -8.8555 		-2.0777 		55.0301
v -9.5207 		-4.0086 		55.0301
v -10.3516 		-8.1054 		54
v -10.5885 		-6 		54
v -9.6484 		-10.1468 		54
v -8.5 		-12.0622 		54
v -6.9415 		-13.7934 		54
v -5.0201 		-15.2878 		54
v -2.7942 		-16.5 		54
v -0.3316 		-17.3932 		54
v 2.2931 		-17.9402 		54
v 5 		-18.1244 		54
v 7.7069 		-17.9402 		54
v 10.3316 		-17.3932 		54
v 12.7942 		-16.5 		54
v 15.0201 		-15.2878 		54
v 16.9415 		-13.7934 		54
v 18.5 		-12.0622 		54
v 19.6484 		-10.1468 		54
v 20.3516 		-8.1054 		54
v 20.5885 		-6 		54
v 20.3516 		-3.8946 		54
v 19.6484 		-1.8532 		54
v 18.5 		0.0622 		54
v 16.9415 		1.7934 		54
v 15.0201 		3.2878 		54
v 12.7942 		4.5 		54
v 10.3316 		5.3932 		54
v 7.7069 		5.9402 		54
v 5 		6.1244 		54
v 2.2931 		5.9402 		54
v -0.3316 		5.3932 		54
v -2.7942 		4.5 		54
v -5.0201 		3.2878 		54
v -6.9415 		1.7934 		54
v -8.5 		0.0622 		54
v -9.6484 		-1.8532 		54
v -10.3516 		-3.8946 		54
v -11.0657 		-8.2033 		52.9167
v -11.3135 		-6 		52.9167
v -10.3297 		-10.3397 		52.9167
v -9.1279 		-12.3442 		52.9167
v -7.4969 		-14.1559 		52.9167
v -5.4861 		-15.7198 		52.9167
v -3.1568 		-16.9884 		52.9167
v -0.5796 		-17.9231 		52.9167
v 2.1672 		-18.4955 		52.9167
v 5 		-18.6883 		52.9167
v 7.8328 		-18.4955 		52.9167
v 10.5796 		-17.9231 		52.9167
v 13.1568 		-16.9884 		52.9167
v 15.4861 		-15.7198 		52.9167
v 17.4969 		-14.1559 		52.9167
v 19.1279 		-12.3442 		52.9167
v 20.3297 		-10.3397 		52.9167
v 21.0657 		-8.2033 		52.9167
v 21.3135 		-6 		52.9167
v 21.0657 		-3.7967 		52.9167
v 20.3297 		-1.6603 		52.9167
v 19.1279 		0.3442 		52.9167
v 17.4969 		2.1559 		52.9167
v 15.4861 		3.7198 		52.9167
v 13.1568 		4.9884 		52.9167
v 10.5796 		5.9231 		52.9167
v 7.8328 		6.4955 		52.9167
v 5 		6.6883 		52.9167
v 2.1672 		6.4955 		52.9167
v -0.5796 		5.9231 		52.9167
v -3.1568 		4.9884 		52.9167
v -5.4861 		3.7198 		52.9167
v -7.4969 		2.1559 		52.9167
v -9.1279 		0.3442 		52.9167
v -10.3297 		-1.6603 		52.9167
v -11.0657 		-3.7967 		52.9167
v -11.6575 		-8.2845 		51.7883
v -11.9145 		-6 		51.7883
v -10.8944 		-10.4995 		51.7883
v -9.6484 		-12.5778 		51.7883
v -7.9572 		-14.4563 		51.7883
v -5.8724 		-16.0778 		51.7883
v -3.4572 		-17.3932 		51.7883
v -0.7851 		-18.3623 		51.7883
v 2.0628 		-18.9558 		51.7883
v 5 		-19.1557 		51.7883
v 7.9372 		-18.9558 		51.7883
v 10.7851 		-18.3623 		51.7883
v 13.4572 		-17.3932 		51.7883
v 15.8724 		-16.0778 		51.7883
v 17.9572 		-14.4563 		51.7883
v 19.6484 		-12.5778 		51.7883
v 20.8944 		-10.4995 		51.7883
v 21.6575 		-8.2845 		51.7883
v 21.9145 		-6 		51.7883
v 21.6575 		-3.7155 		51.7883
v 20.8944 		-1.5005 		51.7883
v 19.6484 		0.5778 		51.7883
v 17.9572 		2.4563 		51.7883
v 15.8724 		4.0778 		51.7883
v 13.4572 		5.3932 		51.7883
v 10.7851 		6.3623 		51.7883
v 7.9372 		6.9558 		51.7883
v 5 		7.1557 		51.7883
v 2.0628 		6.9558 		51.7883
v -0.7851 		6.3623 		51.7883
v -3.4572 		5.3932 		51.7883
v -5.8724 		4.0778 		51.7883
v -7.9572 		2.4563 		51.7883
v -9.6484 		0.5778 		51.7883
v -10.8944 		-1.5005 		51.7883
v -11.6575 		-3.7155 		51.7883
v -12.1225 		-8.3482 		50.6235
v -12.3867 		-6 		50.6235
v -11.3381 		-10.6251 		50.6235
v -10.0573 		-12.7615 		50.6235
v -8.319 		-14.6924 		50.6235
v -6.1759 		-16.3592 		50.6235
v -3.6933 		-17.7112 		50.6235
v -0.9466 		-18.7074 		50.6235
v 1.9808 		-19.3175 		50.6235
v 5 		-19.523 		50.6235
v 8.0192 		-19.3175 		50.6235
v 10.9466 		-18.7074 		50.6235
v 13.6933 		-17.7112 		50.6235
v 16.1759 		-16.3592 		50.6235
v 18.319 		-14.6924 		50.6235
v 20.0573 		-12.7615 		50.6235
v 21.3381 		-10.6251 		50.6235
v 22.1225 		-8.3482 		50.6235
v 22.3867 		-6 		50.6235
v 22.1225 		-3.6518 		50.6235
v 21.3381 		-1.3749 		50.6235
v 20.0573 		0.7615 		50.6235
v 18.319 		2.6924 		50.6235
v 16.1759 		4.3592 		50.6235
v 13.6933 		5.7112 		50.6235
v 10.9466 		6.7074 		50.6235
v 8.0192 		7.3175 		50.6235
v 5 		7.523 		50.6235
v 1.9808 		7.3175 		50.6235
v -0.9466 		6.7074 		50.6235
v -3.6933 		5.7112 		50.6235
v -6.1759 		4.3592 		50.6235
v -8.319 		2.6924 		50.6235
v -10.0573 		0.7615 		50.6235
v -11.3381 		-1.3749 		50.6235
v -12.1225 		-3.6518 		50.6235
v -12.4572 		-8.3941 		49.4311
v -12.7265 		-6 		49.4311
v -11.6575 		-10.7155 		49.4311
v -10.3516 		-12.8937 		49.4311
v -8.5793 		-14.8623 		49.4311
v -6.3944 		-16.5617 		49.4311
v -3.8633 		-17.9402 		49.4311
v -1.0628 		-18.9558 		49.4311
v 1.9218 		-19.5778 		49.4311
v 5 		-19.7873 		49.4311
v 8.0782 		-19.5778 		49.4311
v 11.0628 		-18.9558 		49.4311
v 13.8633 		-17.9402 		49.4311
v 16.3944 		-16.5617 		49.4311
v 18.5793 		-14.8623 		49.4311
v 20.3516 		-12.8937 		49.4311
v 21.6575 		-10.7155 		49.4311
v 22.4572 		-8.3941 		49.4311
v 22.7265 		-6 		49.4311
v 22.4572 		-3.6059 		49.4311
v 21.6575 		-1.2845 		49.4311
v 20.3516 		0.8937 		49.4311
v 18.5793 		2.8623 		49.4311
v 16.3944 		4.5617 		49.4311
v 13.8633 		5.9402 		49.4311
v 11.0628 		6.9558 		49.4311
v 8.0782 		7.5778 		49.4311
v 5 		7.7873 		49.4311
v 1.9218 		7.5778 		49.4311
v -1.0628 		6.9558 		49.4311
v -3.8633 		5.9402 		49.4311
v -6.3944 		4.5617 		49.4311
v -8.5793 		2.8623 		49.4311
v -10.3516 		0.8937 		49.4311
v -11.6575 		-1.2845 		49.4311
v -12.4572 		-3.6059 		49.4311
v -12.6591 		-8.4218 		48.2202
v -12.9315 		-6 		48.2202
v -11.8501 		-10.7701 		48.2202
v -10.5291 		-12.9734 		48.2202
v -8.7363 		-14.9648 		48.2202
v -6.5261 		-16.6838 		48.2202
v -3.9658 		-18.0782 		48.2202
v -1.1329 		-19.1056 		48.2202
v 1.8862 		-19.7348 		48.2202
v 5 		-19.9467 		48.2202
v 8.1138 		-19.7348 		48.2202
v 11.1329 		-19.1056 		48.2202
v 13.9658 		-18.0782 		48.2202
v 16.5261 		-16.6838 		48.2202
v 18.7363 		-14.9648 		48.2202
v 20.5291 		-12.9734 		48.2202
v 21.8501 		-10.7701 		48.2202
v 22.6591 		-8.4218 		48.2202
v 22.9315 		-6 		48.2202
v 22.6591 		-3.5782 		48.2202
v 21.8501 		-1.2299 		48.2202
v 20.5291 		0.9734 		48.2202
v 18.7363 		2.9648 		48.2202
v 16.5261 		4.6838 		48.2202
v 13.9658 		6.0782 		48.2202
v 11.1329 		7.1056 		48.2202
v 8.1138 		7.7348 		48.2202
v 5 		7.9467 		48.2202
v 1.8862 		7.7348 		48.2202
v -1.1329 		7.1056 		48.2202
v -3.9658 		6.0782 		48.2202
v -6.5261 		4.6838 		48.2202
v -8.7363 		2.9648 		48.2202
v -10.5291 		0.9734 		48.2202
v -11.8501 		-1.2299 		48.2202
v -12.6591 		-3.5782 		48.2202
v -12.7265 		-8.4311 		47
v -13 		-6 		47
v -11.9145 		-10.7883 		47
v -10.5885 		-13 		47
v -8.7888 		-14.999 		47
v -6.5702 		-16.7246 		47
v -4 		-18.1244 		47
v -1.1564 		-19.1557 		47
v 1.8743 		-19.7873 		47
v 5 		-20 		47
v 8.1257 		-19.7873 		47
v 11.1564 		-19.1557 		47
v 14 		-18.1244 		47
v 16.5702 		-16.7246 		47
v 18.7888 		-14.999 		47
v 20.5885 		-13 		47
v 21.9145 		-10.7883 		47
v 22.7265 		-8.4311 		47
v 23 		-6 		47
v 22.7265 		-3.5689 		47
v 21.9145 		-1.2117 		47
v 20.5885 		1 		47
v 18.7888 		2.999 		47
v 16.5702 		4.7246 		47
v 14 		6.1244 		47
v 11.1564 		7.1557 		47
v 8.1257 		7.7873 		47
v 5 		8 		47
v 1.8743 		7.7873 		47
v -1.1564 		7.1557 		47
v -4 		6.1244 		47
v -6.5702 		4.7246 		47
v -8.7888 		2.999 		47
v -10.5885 		1 		47
v -11.9145 		-1.2117 		47
v -12.7265 		-3.5689 		47
v 5 		-6 		47
# 650 vertices

g group_1_4634441

usemtl color_4634441
s 0

f 203 	204 	205
f 203 	205 	206
f 203 	206 	207
f 203 	207 	208
f 203 	208 	209
f 203 	209 	210
f 203 	210 	211
f 203 	211 	212
f 203 	212 	213
f 203 	213 	214
f 203 	214 	215
f 203 	215 	216
f 203 	216 	217
f 203 	217 	218
f 203 	218 	219
f 203 	219 	220
f 203 	220 	221
f 203 	221 	222
f 203 	222 	223
f 203 	223 	224
f 203 	224 	225
f 203 	225 	226
f 203 	226 	227
f 203 	227 	228
f 203 	228 	229
f 203 	229 	230
f 203 	230 	231
f 203 	231 	232
f 203 	232 	233
f 203 	233 	234
f 203 	234 	235
f 203 	235 	236
f 203 	236 	237
f 203 	237 	238
f 203 	238 	239
f 203 	239 	204
f 205 	204 	240
f 204 	241 	240
f 206 	205 	242
f 205 	240 	242
f 207 	206 	243
f 206 	242 	243
f 208 	207 	244
f 207 	243 	244
f 209 	208 	245
f 208 	244 	245
f 210 	209 	246
f 209 	245 	246
f 211 	210 	247
f 210 	246 	247
f 212 	211 	248
f 211 	247 	248
f 213 	212 	249
f 212 	248 	249
f 214 	213 	250
f 213 	249 	250
f 215 	214 	251
f 214 	250 	251
f 216 	215 	252
f 215 	251 	252
f 217 	216 	253
f 216 	252 	253
f 218 	217 	254
f 217 	253 	254
f 219 	218 	255
f 218 	254 	255
f 220 	219 	256
f 219 	255 	256
f 221 	220 	257
f 220 	256 	257
f 222 	221 	258
f 221 	257 	258
f 223 	222 	259
f 222 	258 	259
f 224 	223 	260
f 223 	259 	260
f 225 	224 	261
f 224 	260 	261
f 226 	225 	262
f 225 	261 	262
f 227 	226 	263
f 226 	262 	263
f 228 	227 	264
f 227 	263 	264
f 229 	228 	265
f 228 	264 	265
f 230 	229 	266
f 229 	265 	266
f 231 	230 	267
f 230 	266 	267
f 232 	231 	268
f 231 	267 	268
f 233 	232 	269
f 232 	268 	269
f 234 	233 	270
f 233 	269 	270
f 235 	234 	271
f 234 	270 	271
f 236 	235 	272
f 235 	271 	272
f 237 	236 	273
f 236 	272 	273
f 238 	237 	274
f 237 	273 	274
f 239 	238 	275
f 238 	274 	275
f 204 	239 	241
f 239 	275 	241
f 240 	241 	276
f 241 	277 	276
f 242 	240 	278
f 240 	276 	278
f 243 	242 	279
f 242 	278 	279
f 244 	243 	280
f 243 	279 	280
f 245 	244 	281
f 244 	280 	281
f 246 	245 	282
f 245 	281 	282
f 247 	246 	283
f 246 	282 	283
f 248 	247 	284
f 247 	283 	284
f 249 	248 	285
f 248 	284 	285
f 250 	249 	286
f 249 	285 	286
f 251 	250 	287
f 250 	286 	287
f 252 	251 	288
f 251 	287 	288
f 253 	252 	289
f 252 	288 	289
f 254 	253 	290
f 253 	289 	290
f 255 	254 	291
f 254 	290 	291
f 256 	255 	292
f 255 	291 	292
f 257 	256 	293
f 256 	292 	293
f 258 	257 	294
f 257 	293 	294
f 259 	258 	295
f 258 	294 	295
f 260 	259 	296
f 259 	295 	296
f 261 	260 	297
f 260 	296 	297
f 262 	261 	298
f 261 	297 	298
f 263 	262 	299
f 262 	298 	299
f 264 	263 	300
f 263 	299 	300
f 265 	264 	301
f 264 	300 	301
f 266 	265 	302
f 265 	301 	302
f 267 	266 	303
f 266 	302 	303
f 268 	267 	304
f 267 	303 	304
f 269 	268 	305
f 268 	304 	305
f 270 	269 	306
f 269 	305 	306
f 271 	270 	307
f 270 	306 	307
f 272 	271 	308
f 271 	307 	308
f 273 	272 	309
f 272 	308 	309
f 274 	273 	310
f 273 	309 	310
f 275 	274 	311
f 274 	310 	311
f 241 	275 	277
f 275 	311 	277
f 276 	277 	312
f 277 	313 	312
f 278 	276 	314
f 276 	312 	314
f 279 	278 	315
f 278 	314 	315
f 280 	279 	316
f 279 	315 	316
f 281 	280 	317
f 280 	316 	317
f 282 	281 	318
f 281 	317 	318
f 283 	282 	319
f 282 	318 	319
f 284 	283 	320
f 283 	319 	320
f 285 	284 	321
f 284 	320 	321
f 286 	285 	322
f 285 	321 	322
f 287 	286 	323
f 286 	322 	323
f 288 	287 	324
f 287 	323 	324
f 289 	288 	325
f 288 	324 	325
f 290 	289 	326
f 289 	325 	326
f 291 	290 	327
f 290 	326 	327
f 292 	291 	328
f 291 	327 	328
f 293 	292 	329
f 292 	328 	329
f 294 	293 	330
f 293 	329 	330
f 295 	294 	331
f 294 	330 	331
f 296 	295 	332
f 295 	331 	332
f 297 	296 	333
f 296 	332 	333
f 298 	297 	334
f 297 	333 	334
f 299 	298 	335
f 298 	334 	335
f 300 	299 	336
f 299 	335 	336
f 301 	300 	337
f 300 	336 	337
f 302 	301 	338
f 301 	337 	338
f 303 	302 	339
f 302 	338 	339
f 304 	303 	340
f 303 	339 	340
f 305 	304 	341
f 304 	340 	341
f 306 	305 	342
f 305 	341 	342
f 307 	306 	343
f 306 	342 	343
f 308 	307 	344
f 307 	343 	344
f 309 	308 	345
f 308 	344 	345
f 310 	309 	346
f 309 	345 	346
f 311 	310 	347
f 310 	346 	347
f 277 	311 	313
f 311 	347 	313
f 312 	313 	348
f 313 	349 	348
f 314 	312 	350
f 312 	348 	350
f 315 	314 	351
f 314 	350 	351
f 316 	315 	352
f 315 	351 	352
f 317 	316 	353
f 316 	352 	353
f 318 	317 	354
f 317 	353 	354
f 319 	318 	355
f 318 	354 	355
f 320 	319 	356
f 319 	355 	356
f 321 	320 	357
f 320 	356 	357
f 322 	321 	358
f 321 	357 	358
f 323 	322 	359
f 322 	358 	359
f 324 	323 	360
f 323 	359 	360
f 325 	324 	361
f 324 	360 	361
f 326 	325 	362
f 325 	361 	362
f 327 	326 	363
f 326 	362 	363
f 328 	327 	364
f 327 	363 	364
f 329 	328 	365
f 328 	364 	365
f 330 	329 	366
f 329 	365 	366
f 331 	330 	367
f 330 	366 	367
f 332 	331 	368
f 331 	367 	368
f 333 	332 	369
f 332 	368 	369
f 334 	333 	370
f 333 	369 	370
f 335 	334 	371
f 334 	370 	371
f 336 	335 	372
f 335 	371 	372
f 337 	336 	373
f 336 	372 	373
f 338 	337 	374
f 337 	373 	374
f 339 	338 	375
f 338 	374 	375
f 340 	339 	376
f 339 	375 	376
f 341 	340 	377
f 340 	376 	377
f 342 	341 	378
f 341 	377 	378
f 343 	342 	379
f 342 	378 	379
f 344 	343 	380
f 343 	379 	380
f 345 	344 	381
f 344 	380 	381
f 346 	345 	382
f 345 	381 	382
f 347 	346 	383
f 346 	382 	383
f 313 	347 	349
f 347 	383 	349
f 348 	349 	384
f 349 	385 	384
f 350 	348 	386
f 348 	384 	386
f 351 	350 	387
f 350 	386 	387
f 352 	351 	388
f 351 	387 	388
f 353 	352 	389
f 352 	388 	389
f 354 	353 	390
f 353 	389 	390
f 355 	354 	391
f 354 	390 	391
f 356 	355 	392
f 355 	391 	392
f 357 	356 	393
f 356 	392 	393
f 358 	357 	394
f 357 	393 	394
f 359 	358 	395
f 358 	394 	395
f 360 	359 	396
f 359 	395 	396
f 361 	360 	397
f 360 	396 	397
f 362 	361 	398
f 361 	397 	398
f 363 	362 	399
f 362 	398 	399
f 364 	363 	400
f 363 	399 	400
f 365 	364 	401
f 364 	400 	401
f 366 	365 	402
f 365 	401 	402
f 367 	366 	403
f 366 	402 	403
f 368 	367 	404
f 367 	403 	404
f 369 	368 	405
f 368 	404 	405
f 370 	369 	406
f 369 	405 	406
f 371 	370 	407
f 370 	406 	407
f 372 	371 	408
f 371 	407 	408
f 373 	372 	409
f 372 	408 	409
f 374 	373 	410
f 373 	409 	410
f 375 	374 	411
f 374 	410 	411
f 376 	375 	412
f 375 	411 	412
f 377 	376 	413
f 376 	412 	413
f 378 	377 	414
f 377 	413 	414
f 379 	378 	415
f 378 	414 	415
f 380 	379 	416
f 379 	415 	416
f 381 	380 	417
f 380 	416 	417
f 382 	381 	418
f 381 	417 	418
f 383 	382 	419
f 382 	418 	419
f 349 	383 	385
f 383 	419 	385
f 384 	385 	420
f 385 	421 	420
f 386 	384 	422
f 384 	420 	422
f 387 	386 	423
f 386 	422 	423
f 388 	387 	424
f 387 	423 	424
f 389 	388 	425
f 388 	424 	425
f 390 	389 	426
f 389 	425 	426
f 391 	390 	427
f 390 	426 	427
f 392 	391 	428
f 391 	427 	428
f 393 	392 	429
f 392 	428 	429
f 394 	393 	430
f 393 	429 	430
f 395 	394 	431
f 394 	430 	431
f 396 	395 	432
f 395 	431 	432
f 397 	396 	433
f 396 	432 	433
f 398 	397 	434
f 397 	433 	434
f 399 	398 	435
f 398 	434 	435
f 400 	399 	436
f 399 	435 	436
f 401 	400 	437
f 400 	436 	437
f 402 	401 	438
f 401 	437 	438
f 403 	402 	439
f 402 	438 	439
f 404 	403 	440
f 403 	439 	440
f 405 	404 	441
f 404 	440 	441
f 406 	405 	442
f 405 	441 	442
f 407 	406 	443
f 406 	442 	443
f 408 	407 	444
f 407 	443 	444
f 409 	408 	445
f 408 	444 	445
f 410 	409 	446
f 409 	445 	446
f 411 	410 	447
f 410 	446 	447
f 412 	411 	448
f 411 	447 	448
f 413 	412 	449
f 412 	448 	449
f 414 	413 	450
f 413 	449 	450
f 415 	414 	451
f 414 	450 	451
f 416 	415 	452
f 415 	451 	452
f 417 	416 	453
f 416 	452 	453
f 418 	417 	454
f 417 	453 	454
f 419 	418 	455
f 418 	454 	455
f 385 	419 	421
f 419 	455 	421
f 420 	421 	456
f 421 	457 	456
f 422 	420 	458
f 420 	456 	458
f 423 	422 	459
f 422 	458 	459
f 424 	423 	460
f 423 	459 	460
f 425 	424 	461
f 424 	460 	461
f 426 	425 	462
f 425 	461 	462
f 427 	426 	463
f 426 	462 	463
f 428 	427 	464
f 427 	463 	464
f 429 	428 	465
f 428 	464 	465
f 430 	429 	466
f 429 	465 	466
f 431 	430 	467
f 430 	466 	467
f 432 	431 	468
f 431 	467 	468
f 433 	432 	469
f 432 	468 	469
f 434 	433 	470
f 433 	469 	470
f 435 	434 	471
f 434 	470 	471
f 436 	435 	472
f 435 	471 	472
f 437 	436 	473
f 436 	472 	473
f 438 	437 	474
f 437 	473 	474
f 439 	438 	475
f 438 	474 	475
f 440 	439 	476
f 439 	475 	476
f 441 	440 	477
f 440 	476 	477
f 442 	441 	478
f 441 	477 	478
f 443 	442 	479
f 442 	478 	479
f 444 	443 	480
f 443 	479 	480
f 445 	444 	481
f 444 	480 	481
f 446 	445 	482
f 445 	481 	482
f 447 	446 	483
f 446 	482 	483
f 448 	447 	484
f 447 	483 	484
f 449 	448 	485
f 448 	484 	485
f 450 	449 	486
f 449 	485 	486
f 451 	450 	487
f 450 	486 	487
f 452 	451 	488
f 451 	487 	488
f 453 	452 	489
f 452 	488 	489
f 454 	453 	490
f 453 	489 	490
f 455 	454 	491
f 454 	490 	491
f 421 	455 	457
f 455 	491 	457
f 456 	457 	492
f 457 	493 	492
f 458 	456 	494
f 456 	492 	494
f 459 	458 	495
f 458 	494 	495
f 460 	459 	496
f 459 	495 	496
f 461 	460 	497
f 460 	496 	497
f 462 	461 	498
f 461 	497 	498
f 463 	462 	499
f 462 	498 	499
f 464 	463 	500
f 463 	499 	500
f 465 	464 	501
f 464 	500 	501
f 466 	465 	502
f 465 	501 	502
f 467 	466 	503
f 466 	502 	503
f 468 	467 	504
f 467 	503 	504
f 469 	468 	505
f 468 	504 	505
f 470 	469 	506
f 469 	505 	506
f 471 	470 	507
f 470 	506 	507
f 472 	471 	508
f 471 	507 	508
f 473 	472 	509
f 472 	508 	509
f 474 	473 	510
f 473 	509 	510
f 475 	474 	511
f 474 	510 	511
f 476 	475 	512
f 475 	511 	512
f 477 	476 	513
f 476 	512 	513
f 478 	477 	514
f 477 	513 	514
f 479 	478 	515
f 478 	514 	515
f 480 	479 	516
f 479 	515 	516
f 481 	480 	517
f 480 	516 	517
f 482 	481 	518
f 481 	517 	518
f 483 	482 	519
f 482 	518 	519
f 484 	483 	520
f 483 	519 	520
f 485 	484 	521
f 484 	520 	521
f 486 	485 	522
f 485 	521 	522
f 487 	486 	523
f 486 	522 	523
f 488 	487 	524
f 487 	523 	524
f 489 	488 	525
f 488 	524 	525
f 490 	489 	526
f 489 	525 	526
f 491 	490 	527
f 490 	526 	527
f 457 	491 	493
f 491 	527 	493
f 492 	493 	528
f 493 	529 	528
f 494 	492 	530
f 492 	528 	530
f 495 	494 	531
f 494 	530 	531
f 496 	495 	532
f 495 	531 	532
f 497 	496 	533
f 496 	532 	533
f 498 	497 	534
f 497 	533 	534
f 499 	498 	535
f 498 	534 	535
f 500 	499 	536
f 499 	535 	536
f 501 	500 	537
f 500 	536 	537
f 502 	501 	538
f 501 	537 	538
f 503 	502 	539
f 502 	538 	539
f 504 	503 	540
f 503 	539 	540
f 505 	504 	541
f 504 	540 	541
f 506 	505 	542
f 505 	541 	542
f 507 	506 	543
f 506 	542 	543
f 508 	507 	544
f 507 	543 	544
f 509 	508 	545
f 508 	544 	545
f 510 	509 	546
f 509 	545 	546
f 511 	510 	547
f 510 	546 	547
f 512 	511 	548
f 511 	547 	548
f 513 	512 	549
f 512 	548 	549
f 514 	513 	550
f 513 	549 	550
f 515 	514 	551
f 514 	550 	551
f 516 	515 	552
f 515 	551 	552
f 517 	516 	553
f 516 	552 	553
f 518 	517 	554
f 517 	553 	554
f 519 	518 	555
f 518 	554 	555
f 520 	519 	556
f 519 	555 	556
f 521 	520 	557
f 520 	556 	557
f 522 	521 	558
f 521 	557 	558
f 523 	522 	559
f 522 	558 	559
f 524 	523 	560
f 523 	559 	560
f 525 	524 	561
f 524 	560 	561
f 526 	525 	562
f 525 	561 	562
f 527 	526 	563
f 526 	562 	563
f 493 	527 	529
f 527 	563 	529
f 528 	529 	564
f 529 	565 	564
f 530 	528 	566
f 528 	564 	566
f 531 	530 	567
f 530 	566 	567
f 532 	531 	568
f 531 	567 	568
f 533 	532 	569
f 532 	568 	569
f 534 	533 	570
f 533 	569 	570
f 535 	534 	571
f 534 	570 	571
f 536 	535 	572
f 535 	571 	572
f 537 	536 	573
f 536 	572 	573
f 538 	537 	574
f 537 	573 	574
f 539 	538 	575
f 538 	574 	575
f 540 	539 	576
f 539 	575 	576
f 541 	540 	577
f 540 	576 	577
f 542 	541 	578
f 541 	577 	578
f 543 	542 	579
f 542 	578 	579
f 544 	543 	580
f 543 	579 	580
f 545 	544 	581
f 544 	580 	581
f 546 	545 	582
f 545 	581 	582
f 547 	546 	583
f 546 	582 	583
f 548 	547 	584
f 547 	583 	584
f 549 	548 	585
f 548 	584 	585
f 550 	549 	586
f 549 	585 	586
f 551 	550 	587
f 550 	586 	587
f 552 	551 	588
f 551 	587 	588
f 553 	552 	589
f 552 	588 	589
f 554 	553 	590
f 553 	589 	590
f 555 	554 	591
f 554 	590 	591
f 556 	555 	592
f 555 	591 	592
f 557 	556 	593
f 556 	592 	593
f 558 	557 	594
f 557 	593 	594
f 559 	558 	595
f 558 	594 	595
f 560 	559 	596
f 559 	595 	596
f 561 	560 	597
f 560 	596 	597
f 562 	561 	598
f 561 	597 	598
f 563 	562 	599
f 562 	598 	599
f 529 	563 	565
f 563 	599 	565
f 564 	565 	600
f 565 	601 	600
f 566 	564 	602
f 564 	600 	602
f 567 	566 	603
f 566 	602 	603
f 568 	567 	604
f 567 	603 	604
f 569 	568 	605
f 568 	604 	605
f 570 	569 	606
f 569 	605 	606
f 571 	570 	607
f 570 	606 	607
f 572 	571 	608
f 571 	607 	608
f 573 	572 	609
f 572 	608 	609
f 574 	573 	610
f 573 	609 	610
f 575 	574 	611
f 574 	610 	611
f 576 	575 	612
f 575 	611 	612
f 577 	576 	613
f 576 	612 	613
f 578 	577 	614
f 577 	613 	614
f 579 	578 	615
f 578 	614 	615
f 580 	579 	616
f 579 	615 	616
f 581 	580 	617
f 580 	616 	617
f 582 	581 	618
f 581 	617 	618
f 583 	582 	619
f 582 	618 	619
f 584 	583 	620
f 583 	619 	620
f 585 	584 	621
f 584 	620 	621
f 586 	585 	622
f 585 	621 	622
f 587 	586 	623
f 586 	622 	623
f 588 	587 	624
f 587 	623 	624
f 589 	588 	625
f 588 	624 	625
f 590 	589 	626
f 589 	625 	626
f 591 	590 	627
f 590 	626 	627
f 592 	591 	628
f 591 	627 	628
f 593 	592 	629
f 592 	628 	629
f 594 	593 	630
f 593 	629 	630
f 595 	594 	631
f 594 	630 	631
f 596 	595 	632
f 595 	631 	632
f 597 	596 	633
f 596 	632 	633
f 598 	597 	634
f 597 	633 	634
f 599 	598 	635
f 598 	634 	635
f 565 	599 	601
f 599 	635 	601
f 600 	601 	636
f 601 	637 	636
f 602 	600 	638
f 600 	636 	638
f 603 	602 	639
f 602 	638 	639
f 604 	603 	640
f 603 	639 	640
f 605 	604 	641
f 604 	640 	641
f 606 	605 	642
f 605 	641 	642
f 607 	606 	643
f 606 	642 	643
f 608 	607 	644
f 607 	643 	644
f 609 	608 	645
f 608 	644 	645
f 610 	609 	646
f 609 	645 	646
f 611 	610 	647
f 610 	646 	647
f 612 	611 	648
f 611 	647 	648
f 613 	612 	649
f 612 	648 	649
f 614 	613 	650
f 613 	649 	650
f 615 	614 	651
f 614 	650 	651
f 616 	615 	652
f 615 	651 	652
f 617 	616 	653
f 616 	652 	653
f 618 	617 	654
f 617 	653 	654
f 619 	618 	655
f 618 	654 	655
f 620 	619 	656
f 619 	655 	656
f 621 	620 	657
f 620 	656 	657
f 622 	621 	658
f 621 	657 	658
f 623 	622 	659
f 622 	658 	659
f 624 	623 	660
f 623 	659 	660
f 625 	624 	661
f 624 	660 	661
f 626 	625 	662
f 625 	661 	662
f 627 	626 	663
f 626 	662 	663
f 628 	627 	664
f 627 	663 	664
f 629 	628 	665
f 628 	664 	665
f 630 	629 	666
f 629 	665 	666
f 631 	630 	667
f 630 	666 	667
f 632 	631 	668
f 631 	667 	668
f 633 	632 	669
f 632 	668 	669
f 634 	633 	670
f 633 	669 	670
f 635 	634 	671
f 634 	670 	671
f 601 	635 	637
f 635 	671 	637
f 636 	637 	672
f 637 	673 	672
f 638 	636 	674
f 636 	672 	674
f 639 	638 	675
f 638 	674 	675
f 640 	639 	676
f 639 	675 	676
f 641 	640 	677
f 640 	676 	677
f 642 	641 	678
f 641 	677 	678
f 643 	642 	679
f 642 	678 	679
f 644 	643 	680
f 643 	679 	680
f 645 	644 	681
f 644 	680 	681
f 646 	645 	682
f 645 	681 	682
f 647 	646 	683
f 646 	682 	683
f 648 	647 	684
f 647 	683 	684
f 649 	648 	685
f 648 	684 	685
f 650 	649 	686
f 649 	685 	686
f 651 	650 	687
f 650 	686 	687
f 652 	651 	688
f 651 	687 	688
f 653 	652 	689
f 652 	688 	689
f 654 	653 	690
f 653 	689 	690
f 655 	654 	691
f 654 	690 	691
f 656 	655 	692
f 655 	691 	692
f 657 	656 	693
f 656 	692 	693
f 658 	657 	694
f 657 	693 	694
f 659 	658 	695
f 658 	694 	695
f 660 	659 	696
f 659 	695 	696
f 661 	660 	697
f 660 	696 	697
f 662 	661 	698
f 661 	697 	698
f 663 	662 	699
f 662 	698 	699
f 664 	663 	700
f 663 	699 	700
f 665 	664 	701
f 664 	700 	701
f 666 	665 	702
f 665 	701 	702
f 667 	666 	703
f 666 	702 	703
f 668 	667 	704
f 667 	703 	704
f 669 	668 	705
f 668 	704 	705
f 670 	669 	706
f 669 	705 	706
f 671 	670 	707
f 670 	706 	707
f 637 	671 	673
f 671 	707 	673
f 672 	673 	708
f 673 	709 	708
f 674 	672 	710
f 672 	708 	710
f 675 	674 	711
f 674 	710 	711
f 676 	675 	712
f 675 	711 	712
f 677 	676 	713
f 676 	712 	713
f 678 	677 	714
f 677 	713 	714
f 679 	678 	715
f 678 	714 	715
f 680 	679 	716
f 679 	715 	716
f 681 	680 	717
f 680 	716 	717
f 682 	681 	718
f 681 	717 	718
f 683 	682 	719
f 682 	718 	719
f 684 	683 	720
f 683 	719 	720
f 685 	684 	721
f 684 	720 	721
f 686 	685 	722
f 685 	721 	722
f 687 	686 	723
f 686 	722 	723
f 688 	687 	724
f 687 	723 	724
f 689 	688 	725
f 688 	724 	725
f 690 	689 	726
f 689 	725 	726
f 691 	690 	727
f 690 	726 	727
f 692 	691 	728
f 691 	727 	728
f 693 	692 	729
f 692 	728 	729
f 694 	693 	730
f 693 	729 	730
f 695 	694 	731
f 694 	730 	731
f 696 	695 	732
f 695 	731 	732
f 697 	696 	733
f 696 	732 	733
f 698 	697 	734
f 697 	733 	734
f 699 	698 	735
f 698 	734 	735
f 700 	699 	736
f 699 	735 	736
f 701 	700 	737
f 700 	736 	737
f 702 	701 	738
f 701 	737 	738
f 703 	702 	739
f 702 	738 	739
f 704 	703 	740
f 703 	739 	740
f 705 	704 	741
f 704 	740 	741
f 706 	705 	742
f 705 	741 	742
f 707 	706 	743
f 706 	742 	743
f 673 	707 	709
f 707 	743 	709
f 708 	709 	744
f 709 	745 	744
f 710 	708 	746
f 708 	744 	746
f 711 	710 	747
f 710 	746 	747
f 712 	711 	748
f 711 	747 	748
f 713 	712 	749
f 712 	748 	749
f 714 	713 	750
f 713 	749 	750
f 715 	714 	751
f 714 	750 	751
f 716 	715 	752
f 715 	751 	752
f 717 	716 	753
f 716 	752 	753
f 718 	717 	754
f 717 	753 	754
f 719 	718 	755
f 718 	754 	755
f 720 	719 	756
f 719 	755 	756
f 721 	720 	757
f 720 	756 	757
f 722 	721 	758
f 721 	757 	758
f 723 	722 	759
f 722 	758 	759
f 724 	723 	760
f 723 	759 	760
f 725 	724 	761
f 724 	760 	761
f 726 	725 	762
f 725 	761 	762
f 727 	726 	763
f 726 	762 	763
f 728 	727 	764
f 727 	763 	764
f 729 	728 	765
f 728 	764 	765
f 730 	729 	766
f 729 	765 	766
f 731 	730 	767
f 730 	766 	767
f 732 	731 	768
f 731 	767 	768
f 733 	732 	769
f 732 	768 	769
f 734 	733 	770
f 733 	769 	770
f 735 	734 	771
f 734 	770 	771
f 736 	735 	772
f 735 	771 	772
f 737 	736 	773
f 736 	772 	773
f 738 	737 	774
f 737 	773 	774
f 739 	738 	775
f 738 	774 	775
f 740 	739 	776
f 739 	775 	776
f 741 	740 	777
f 740 	776 	777
f 742 	741 	778
f 741 	777 	778
f 743 	742 	779
f 742 	778 	779
f 709 	743 	745
f 743 	779 	745
f 744 	745 	780
f 745 	781 	780
f 746 	744 	782
f 744 	780 	782
f 747 	746 	783
f 746 	782 	783
f 748 	747 	784
f 747 	783 	784
f 749 	748 	785
f 748 	784 	785
f 750 	749 	786
f 749 	785 	786
f 751 	750 	787
f 750 	786 	787
f 752 	751 	788
f 751 	787 	788
f 753 	752 	789
f 752 	788 	789
f 754 	753 	790
f 753 	789 	790
f 755 	754 	791
f 754 	790 	791
f 756 	755 	792
f 755 	791 	792
f 757 	756 	793
f 756 	792 	793
f 758 	757 	794
f 757 	793 	794
f 759 	758 	795
f 758 	794 	795
f 760 	759 	796
f 759 	795 	796
f 761 	760 	797
f 760 	796 	797
f 762 	761 	798
f 761 	797 	798
f 763 	762 	799
f 762 	798 	799
f 764 	763 	800
f 763 	799 	800
f 765 	764 	801
f 764 	800 	801
f 766 	765 	802
f 765 	801 	802
f 767 	766 	803
f 766 	802 	803
f 768 	767 	804
f 767 	803 	804
f 769 	768 	805
f 768 	804 	805
f 770 	769 	806
f 769 	805 	806
f 771 	770 	807
f 770 	806 	807
f 772 	771 	808
f 771 	807 	808
f 773 	772 	809
f 772 	808 	809
f 774 	773 	810
f 773 	809 	810
f 775 	774 	811
f 774 	810 	811
f 776 	775 	812
f 775 	811 	812
f 777 	776 	813
f 776 	812 	813
f 778 	777 	814
f 777 	813 	814
f 779 	778 	815
f 778 	814 	815
f 745 	779 	781
f 779 	815 	781
f 780 	781 	816
f 781 	817 	816
f 782 	780 	818
f 780 	816 	818
f 783 	782 	819
f 782 	818 	819
f 784 	783 	820
f 783 	819 	820
f 785 	784 	821
f 784 	820 	821
f 786 	785 	822
f 785 	821 	822
f 787 	786 	823
f 786 	822 	823
f 788 	787 	824
f 787 	823 	824
f 789 	788 	825
f 788 	824 	825
f 790 	789 	826
f 789 	825 	826
f 791 	790 	827
f 790 	826 	827
f 792 	791 	828
f 791 	827 	828
f 793 	792 	829
f 792 	828 	829
f 794 	793 	830
f 793 	829 	830
f 795 	794 	831
f 794 	830 	831
f 796 	795 	832
f 795 	831 	832
f 797 	796 	833
f 796 	832 	833
f 798 	797 	834
f 797 	833 	834
f 799 	798 	835
f 798 	834 	835
f 800 	799 	836
f 799 	835 	836
f 801 	800 	837
f 800 	836 	837
f 802 	801 	838
f 801 	837 	838
f 803 	802 	839
f 802 	838 	839
f 804 	803 	840
f 803 	839 	840
f 805 	804 	841
f 804 	840 	841
f 806 	805 	842
f 805 	841 	842
f 807 	806 	843
f 806 	842 	843
f 808 	807 	844
f 807 	843 	844
f 809 	808 	845
f 808 	844 	845
f 810 	809 	846
f 809 	845 	846
f 811 	810 	847
f 810 	846 	847
f 812 	811 	848
f 811 	847 	848
f 813 	812 	849
f 812 	848 	849
f 814 	813 	850
f 813 	849 	850
f 815 	814 	851
f 814 	850 	851
f 781 	815 	817
f 815 	851 	817
f 816 	817 	852
f 818 	816 	852
f 819 	818 	852
f 820 	819 	852
f 821 	820 	852
f 822 	821 	852
f 823 	822 	852
f 824 	823 	852
f 825 	824 	852
f 826 	825 	852
f 827 	826 	852
f 828 	827 	852
f 829 	828 	852
f 830 	829 	852
f 831 	830 	852
f 832 	831 	852
f 833 	832 	852
f 834 	833 	852
f 835 	834 	852
f 836 	835 	852
f 837 	836 	852
f 838 	837 	852
f 839 	838 	852
f 840 	839 	852
f 841 	840 	852
f 842 	841 	852
f 843 	842 	852
f 844 	843 	852
f 845 	844 	852
f 846 	845 	852
f 847 	846 	852
f 848 	847 	852
f 849 	848 	852
f 850 	849 	852
f 851 	850 	852
f 817 	851 	852
# 1296 faces

 #end of obj_1

