# Object Export From Tinkercad Server 2015

mtllib obj.mtl

o obj_0
v -16 		-22.5 		0
v -16 		-22.5 		20
v -16 		-5.5 		20
v -16 		17.5 		20
v -16 		17.5 		0
v -16 		-2.5 		20
v -16 		-1.853 		34.415
v -16 		-1.543 		34.31
v -16 		-1.25 		34.165
v -16 		-0.978 		33.983
v -16 		-0.732 		33.768
v -16 		-0.517 		33.522
v -16 		-0.335 		33.25
v -1 		-4.022 		30.017
v -16 		-0.19 		32.957
v -1 		-3.75 		29.835
v -1 		-3.457 		29.69
v -1 		-4.483 		30.478
v -1 		-4.268 		30.232
v -2.14 		-0.335 		30.75
v -5.805 		-3.147 		29.585
v -1 		-4.979 		31.674
v -1 		-5 		32
v -16 		-4.81 		32.957
v -16 		-4.665 		33.25
v -16 		-4.483 		33.522
v -16 		-4.268 		33.768
v -16 		-4.022 		33.983
v -16 		-3.75 		34.165
v -16 		-3.457 		34.31
v -1 		-4.915 		31.353
v -16 		-3.147 		34.415
v -16 		-2.826 		34.479
v -16 		-2.5 		34.5
v -16 		-2.174 		34.479
v -5.869 		-2.826 		29.521
v -1 		-4.81 		31.043
v -11.086 		-3.147 		29.585
v -16 		-0.085 		32.647
v -16 		-0.021 		32.326
v -16 		0 		32
v -1 		-4.665 		30.75
v -11.022 		-2.826 		29.521
v -11 		-2.5 		29.5
v -1 		-4.915 		32.647
v -16 		-5 		32
v -16 		-4.979 		32.326
v -16 		-4.915 		32.647
v -1 		-4.979 		32.326
v -16 		-0.021 		31.674
v -16 		-0.085 		31.353
v -12.544 		-0.19 		31.043
v -13.5 		-5 		21.5
v -16 		-0.19 		31.043
v -16 		-0.335 		30.75
v -11.022 		-2.174 		29.521
v -12.853 		-0.085 		31.353
v -15.9781 		-2.1693 		21.5
v -2.433 		-0.19 		31.043
v -16 		-0.517 		30.478
v -13.174 		-0.021 		31.674
v -16 		-0.732 		30.232
v -1.225 		-3.75 		29.835
v -16 		-0.978 		30.017
v -15.9781 		-2.8307 		21.5
v -15.915 		-3.147 		21.5
v -16 		-1.25 		29.835
v -15.81 		-3.457 		21.5
v -16 		-1.543 		29.69
v -15.665 		-3.75 		21.5
v -15.484 		-4.022 		21.5
v -5.7 		-3.457 		29.69
v -16 		-1.853 		29.585
v -15.268 		-4.268 		21.5
v -13.5 		-5 		32
v -5.805 		-3.147 		28
v -5.7 		-3.457 		28
v -15.022 		-4.483 		21.5
v -16 		-2.174 		29.521
v -1.08 		-3.457 		29.69
v -14.75 		-4.665 		21.5
v -2.743 		-0.085 		31.353
v -14.457 		-4.81 		21.5
v -16 		-2.5 		29.5
v -14.147 		-4.915 		21.5
v -15.979 		-2.174 		29.521
v -16 		-4.665 		30.75
v -16 		-4.81 		31.043
v -16 		-4.915 		31.353
v -16 		-4.979 		31.674
v -13.827 		-4.979 		21.5
v -13.5 		0 		32
v -16 		-2.826 		29.521
v -16 		-3.147 		29.585
v -16 		-3.457 		29.69
v -16 		-3.75 		29.835
v -2.743 		-0.085 		32.647
v -16 		-4.022 		30.017
v -16 		-4.268 		30.232
v -16 		-4.483 		30.478
v -11.409 		-0.909 		21.5
v 14 		-5.5 		20
v -11.215 		-1.13 		21.5
v -5.555 		-3.75 		29.835
v 14 		-22.5 		20
v 14 		-22.5 		0
v -1 		-3.2208 		29.61
v 9.003 		-17.5028 		20
v -5.555 		-3.75 		28
v -11.002 		-17.5028 		20
v 9.003 		-5.5 		20
v -11.051 		-1.375 		21.5
v -11.002 		-5.5 		20
v -13 		-5.5 		20
v -10.921 		-1.639 		21.5
v -5.373 		-4.022 		30.017
v -5.373 		-4.022 		28
v 9.003 		-17.43 		19.022
v -11.002 		-17.43 		19.022
v -10.228 		-1.352 		21.5
v -10.402 		-1 		21.5
v -10.62 		-0.674 		21.5
v -10.879 		-0.379 		21.5
v 9.003 		-17.214 		18.051
v -3.064 		-0.021 		31.674
v -11.002 		-17.214 		18.051
v 9.003 		-16.856 		17.098
v -10.102 		-1.724 		21.5
v -11.002 		-16.856 		17.098
v 9.003 		-16.361 		16.174
v -11.002 		-16.361 		16.174
v -3.064 		-0.021 		32.326
v 9.003 		-15.731 		15.286
v -11.002 		-15.731 		15.286
v -11.174 		-0.12 		21.5
v 9.003 		-14.974 		14.444
v -11.002 		-14.974 		14.444
v 9.003 		-14.097 		13.655
v -11.002 		-14.097 		13.655
v -13.5 		0 		21.5
v 9.003 		-13.108 		12.928
v -11.002 		-13.108 		12.928
v -3.064 		-4.979 		31.674
v 9.003 		-12.017 		12.269
v -11.002 		-12.017 		12.269
v 9.003 		-10.835 		11.684
v -11.002 		-10.835 		11.684
v 9.003 		-9.572 		11.179
v -11.002 		-9.572 		11.179
v -15.979 		-2.826 		29.521
v -12.853 		-0.085 		21.5
v 9.003 		-8.241 		10.759
v -11.002 		-8.241 		10.759
v -13.174 		-0.021 		21.5
v 9.003 		-6.855 		10.428
v -11.002 		-6.855 		10.428
v -3.064 		-4.979 		32.326
v -11.875 		-0.551 		21.5
v -12.25 		-0.335 		21.5
v -12.0726 		-0.4537 		21.5
v -12.544 		-0.19 		21.5
v -2.743 		-4.915 		31.353
v -13.392 		0.474 		21.5
v -11.63 		-0.715 		21.5
v -2.743 		-4.915 		32.647
v -13.827 		-0.021 		31.674
v 14 		17.5 		20
v 14 		17.5 		0
v -13 		0.5 		21.5
v -15.915 		-3.147 		29.585
v -11.5 		0.098 		21.5
v -11.852 		0.272 		21.5
v -12.224 		0.398 		21.5
v -12.608 		0.474 		21.5
v -11.002 		-5.427 		10.19
v -2.433 		-4.81 		31.043
v -3.39 		0 		32
v -11.002 		-3.971 		10.046
v -11.002 		-2.5 		9.998
v -11.002 		-1.029 		10.046
v -11.002 		0.427 		10.19
v -15.484 		-0.978 		21.5
v -11.002 		1.855 		10.428
v -11.002 		3.241 		10.759
v -11.002 		4.572 		11.179
v -2.14 		-4.665 		30.75
v -15.268 		-0.732 		21.5
v -11.002 		5.835 		11.684
v -11.002 		7.017 		12.269
v -13.776 		0.398 		21.5
v -14.148 		0.272 		21.5
v -14.5 		0.098 		21.5
v -11.002 		8.108 		12.928
v -13.827 		-0.021 		21.5
v -11.002 		9.097 		13.655
v -14.826 		-0.12 		21.5
v -14.147 		-0.085 		21.5
v -11.002 		9.974 		14.444
v -3.716 		-0.021 		31.674
v -1.225 		-1.25 		28
v -1.08 		-1.543 		28
v -0.975 		-1.853 		28
v -15.81 		-3.457 		29.69
v -15.121 		-0.379 		21.5
v -14.457 		-0.19 		21.5
v -14.147 		-0.085 		31.353
v -3.39 		-5 		32
v -3.716 		-0.021 		32.326
v -14.75 		-0.335 		21.5
v -11.002 		10.731 		15.286
v -11.002 		11.361 		16.174
v -15.38 		-0.674 		21.5
v -15.022 		-0.517 		21.5
v -11.002 		11.856 		17.098
v -5.158 		-0.732 		28
v -11.002 		12.214 		18.051
v -4.912 		-0.517 		28
v -4.64 		-0.335 		28
v -4.347 		-0.19 		28
v -4.037 		-0.085 		28
v -3.716 		-0.021 		28
v -3.39 		0 		28
v -3.064 		-0.021 		28
v -2.743 		-0.085 		28
v -11.002 		12.43 		19.022
v -15.598 		-1 		21.5
v -2.433 		-0.19 		28
v -2.14 		-0.335 		28
v -1.868 		-0.517 		28
v -1.622 		-0.732 		28
v -1.407 		-0.978 		28
v -11.002 		12.5028 		20
v -5.805 		-1.853 		28
v -5.7 		-1.543 		28
v -5.555 		-1.25 		28
v -5.373 		-0.978 		28
v 9.003 		-5.427 		10.19
v -15.772 		-1.352 		21.5
v -15.665 		-1.25 		21.5
v 9.003 		-3.971 		10.046
v -0.911 		-2.174 		28
v -0.89 		-2.5 		28
v -15.81 		-1.543 		21.5
v -0.911 		-2.826 		28
v -0.975 		-3.147 		28
v -1.08 		-3.457 		28
v -1.225 		-3.75 		28
v -15.898 		-1.724 		21.5
v 9.003 		-2.5 		9.998
v -15.915 		-1.853 		21.5
v 9.003 		-1.029 		10.046
v 9.003 		0.427 		10.19
v -10.827 		-1.918 		21.5
v -3.39 		-5 		28
v -3.716 		-4.979 		28
v -4.037 		-4.915 		28
v -10.769 		-2.206 		21.5
v 9.003 		1.855 		10.428
v -4.347 		-4.81 		28
v -4.64 		-4.665 		28
v -4.912 		-4.483 		28
v -5.158 		-4.268 		28
v -10.75 		-2.5 		21.5
v 9.003 		3.241 		10.759
v -1.407 		-4.022 		28
v -1.622 		-4.268 		28
v -10.769 		-2.794 		21.5
v -1.868 		-4.483 		28
v -2.14 		-4.665 		28
v -2.433 		-4.81 		28
v -2.743 		-4.915 		28
v -3.064 		-4.979 		28
v 9.003 		4.572 		11.179
v -10.827 		-3.082 		21.5
v -10.921 		-3.361 		21.5
v 9.003 		5.835 		11.684
v -5.869 		-2.826 		28
v -5.89 		-2.5 		28
v -5.869 		-2.174 		28
v 9.003 		7.017 		12.269
v -4.037 		-0.085 		31.353
v -11.051 		-3.625 		21.5
v 9.003 		8.108 		12.928
v -10.026 		-2.108 		21.5
v -1 		-0.335 		33.25
v -1 		-0.517 		33.522
v -1 		-0.732 		33.768
v -1 		-0.978 		33.983
v -1 		-1.25 		34.165
v 9.003 		9.097 		13.655
v -15.665 		-3.75 		29.835
v -14.457 		-0.19 		31.043
v -1 		-1.543 		34.31
v -1 		-1.853 		34.415
v -4.037 		-0.085 		32.647
v -1 		-1.7792 		33
v -11.215 		-3.87 		21.5
v 9.003 		9.974 		14.444
v -1 		-2.174 		34.479
v 9.003 		10.731 		15.286
v -1 		-2.5 		34.5
v -1 		-2.826 		34.479
v -10 		-2.5 		21.5
v -1 		-3.147 		34.415
v -1 		-3.457 		34.31
v -1 		-3.75 		34.165
v -1 		-4.022 		33.983
v -1 		-4.268 		33.768
v 9.003 		11.361 		16.174
v -1 		-4.483 		33.522
v -1 		-4.665 		33.25
v -10.228 		-3.648 		21.5
v -10.102 		-3.276 		21.5
v -10.026 		-2.892 		21.5
v -1 		-3.2208 		33
v 9.003 		11.856 		17.098
v 9.003 		12.214 		18.051
v 9.003 		12.43 		19.022
v -2.39 		-0.2113 		33
v -4.39 		-0.2113 		33
v -11.409 		-4.091 		21.5
v 9.003 		12.5028 		20
v -10.879 		-4.621 		21.5
v -10.62 		-4.326 		21.5
v -10.402 		-4 		21.5
v -11.174 		-4.88 		21.5
v -4.347 		-0.19 		31.043
v -4.64 		-4.665 		30.75
v -15.484 		-4.022 		30.017
v -14.75 		-0.335 		30.75
v -11.002 		-0.271 		20
v -11.63 		-4.285 		21.5
v -11.002 		-1.4745 		20
v -11.002 		-2.4704 		20
v -11.002 		-2.5296 		20
v -11.875 		-4.449 		21.5
v -11.002 		-3.5255 		20
v -11.002 		-4.729 		20
v -12.0726 		-4.5463 		21.5
v -4.64 		-0.335 		30.75
v -4.347 		-4.81 		31.043
v -4.39 		-4.7887 		33
v -2.39 		-4.7887 		33
v -12.25 		-4.665 		21.5
v -1.407 		-0.978 		30.017
v -13.392 		-5.474 		21.5
v -13 		-5.5 		21.5
v -12.608 		-5.474 		21.5
v -13 		0.5 		20
v -12.224 		-5.398 		21.5
v -11.852 		-5.272 		21.5
v -11.5 		-5.098 		21.5
v -15.022 		-0.517 		30.478
v -11.0758 		-1.904 		20
v -15.268 		-4.268 		30.232
v -11.051 		-1.375 		20
v -11.215 		-1.13 		20
v -11.2346 		-1.1077 		20
v -11.086 		-1.853 		20
v -13.174 		-4.979 		21.5
v -11.4037 		-0.915 		20
v -11.191 		-1.543 		20
v -12.853 		-4.915 		21.5
v -11.409 		-0.909 		20
v -11.488 		-0.8396 		20
v -11.335 		-1.25 		20
v -4.037 		-4.915 		31.353
v -12.544 		-4.81 		21.5
v -11.488 		-1.0213 		20
v -10.921 		-1.639 		20
v -4.037 		-4.915 		32.647
v -11.174 		-0.12 		20
v -11.488 		0.09 		20
v -1.622 		-0.732 		30.232
v -10.879 		-0.379 		20
v -15.974 		-2.108 		21.5
v -10.62 		-0.674 		20
v -10.402 		-1 		20
v -10.228 		-1.352 		20
v -3.716 		-4.979 		31.674
v -10.102 		-1.724 		20
v -15.974 		-2.892 		21.5
v -15.898 		-3.276 		21.5
v -15.022 		-4.483 		30.478
v -15.268 		-0.732 		30.232
v -3.716 		-4.979 		32.326
v -15.772 		-3.648 		21.5
v -11.5736 		-0.7645 		20
v -11.63 		-0.715 		20
v -11.7441 		-0.6386 		20
v -11.517 		-0.978 		20
v -11.875 		-0.551 		20
v -11.9048 		-0.5363 		20
v -11.733 		-0.732 		20
v -12.0214 		-0.4789 		20
v -11.978 		-0.517 		20
v -12.0726 		-0.4537 		20
v -13.403 		0.4718 		20
v -13.536 		0.4455 		20
v -13.0131 		0.4991 		20
v -14.148 		-5.272 		21.5
v -13.776 		-5.398 		21.5
v -1.868 		-0.517 		30.478
v -13.392 		0.474 		20
v -14.5 		-5.098 		21.5
v -0.975 		-1.853 		33
v -11.5 		0.098 		20
v -15.598 		-4 		21.5
v -15.38 		-4.326 		21.5
v -14.75 		-4.665 		30.75
v -11.852 		0.272 		20
v -3.39 		0 		33
v -3.716 		-0.021 		33
v -4.037 		-0.085 		33
v -4.347 		-0.19 		33
v -12.224 		0.398 		20
v -15.121 		-4.621 		21.5
v -2.433 		-0.19 		33
v -2.743 		-0.085 		33
v -12.608 		0.474 		20
v -3.064 		-0.021 		33
v -15.484 		-0.978 		30.017
v -15.3917 		-0.6914 		20
v -15.584 		-0.9791 		20
v -14.826 		-4.88 		21.5
v -0.89 		-2.5 		33
v -0.911 		-2.174 		33
v -13.776 		0.398 		20
v -0.975 		-3.147 		33
v -0.911 		-2.826 		33
v -14.148 		0.272 		20
v -14.5 		0.098 		20
v -3.716 		-4.979 		33
v -3.39 		-5 		33
v -3.064 		-4.979 		33
v -14.826 		-0.12 		20
v -15.121 		-0.379 		20
v -15.38 		-0.674 		20
v -2.743 		-4.915 		33
v -4.037 		-4.915 		33
v -15.598 		-1 		20
v -15.772 		-1.352 		20
v -2.433 		-4.81 		33
v -4.347 		-4.81 		33
v -15.898 		-1.724 		20
v -14.457 		-4.81 		31.043
v -15.9336 		-1.904 		20
v -1 		-0.19 		32.957
v -15.665 		-1.25 		29.835
v -11.287 		-3.952 		20
v -11.215 		-3.87 		20
v -11.1232 		-3.7329 		20
v -11.051 		-3.625 		20
v -11.335 		-3.75 		20
v -11.4702 		-3.952 		20
v -11.191 		-3.457 		20
v -11.086 		-3.147 		20
v -11.022 		-2.826 		20
v -1.868 		-4.483 		30.478
v -11.022 		-2.174 		20
v -15.81 		-1.543 		29.69
v -14.147 		-4.915 		31.353
v -11 		-2.5 		20
v -10.827 		-1.918 		20
v -1.622 		-4.268 		30.232
v -10.769 		-2.206 		20
v -2.433 		-0.19 		32.957
v -10.75 		-2.5 		20
v -15.915 		-1.853 		29.585
v -13.827 		-4.979 		31.674
v -10.769 		-2.794 		20
v -10.827 		-3.082 		20
v -10.921 		-3.361 		20
v -1.407 		-4.022 		30.017
v -10.026 		-2.108 		20
v -11.086 		-1.853 		29.585
v -10 		-2.5 		20
v -10.026 		-2.892 		20
v -10.102 		-3.276 		20
v -10.228 		-3.648 		20
v -11.488 		-4.1604 		20
v -11.463 		-4.1384 		20
v -13.174 		-4.979 		31.674
v -11.409 		-4.091 		20
v -11.488 		-3.9787 		20
v -4.347 		-0.19 		32.957
v -11.174 		-4.88 		20
v -11.488 		-5.09 		20
v -10.402 		-4 		20
v -10.62 		-4.326 		20
v -10.879 		-4.621 		20
v -11.978 		-4.483 		20
v -12.0726 		-4.5463 		20
v -11.875 		-4.449 		20
v -11.63 		-4.285 		20
v -11.733 		-4.268 		20
v -5.158 		-4.268 		30.232
v -11.517 		-4.022 		20
v -12.853 		-4.915 		31.353
v -12.608 		-5.474 		20
v -12.224 		-5.398 		20
v -11.852 		-5.272 		20
v -1 		-4.81 		32.957
v -11.5 		-5.098 		20
v -13.392 		-5.474 		20
v -13.536 		-5.4455 		20
v -11.191 		-1.543 		29.69
v -4.912 		-0.517 		30.478
v -15.6217 		-3.952 		20
v -15.7624 		-3.6674 		20
v -15.974 		-2.108 		20
v -15.979 		-2.174 		20
v -15.9781 		-2.1693 		20
v -4.912 		-4.483 		30.478
v -15.979 		-2.826 		20
v -15.974 		-2.892 		20
v -15.9781 		-2.8307 		20
v -15.898 		-3.276 		20
v -15.772 		-3.648 		20
v -15.598 		-4 		20
v -15.38 		-4.326 		20
v -12.544 		-4.81 		31.043
v -15.121 		-4.621 		20
v -14.826 		-4.88 		20
v -14.5 		-5.098 		20
v -14.148 		-5.272 		20
v -13.776 		-5.398 		20
v -5.158 		-0.732 		30.232
v -11.335 		-1.25 		29.835
v -2.433 		-4.81 		32.957
v -12.25 		-4.665 		30.75
v -11.517 		-0.978 		30.017
v -4.347 		-4.81 		32.957
v -11.978 		-4.483 		30.478
v -5.869 		-2.174 		29.521
v -11.733 		-0.732 		30.232
v -11.733 		-4.268 		30.232
v -5.89 		-2.5 		29.5
v -1 		0 		32
v -1 		-0.021 		32.326
v -1 		-0.085 		32.647
v -1 		-1.543 		29.69
v -1 		-1.25 		29.835
v -1 		-0.978 		30.017
v -1 		-0.732 		30.232
v -1 		-0.517 		30.478
v -1 		-0.335 		30.75
v -1 		-0.19 		31.043
v -1 		-0.085 		31.353
v -1 		-0.021 		31.674
v -5.373 		-0.978 		30.017
v -11.517 		-4.022 		30.017
v -11.978 		-0.517 		30.478
v -11.335 		-3.75 		29.835
v -1 		-1.7792 		29.61
v -1.08 		-1.543 		29.69
v -12.25 		-0.335 		30.75
v -5.555 		-1.25 		29.835
v -11.191 		-3.457 		29.69
v -1.225 		-1.25 		29.835
v -5.7 		-1.543 		29.69
v -5.805 		-1.853 		29.585
# 562 vertices

g group_0_14541540

usemtl color_14541540
s 0

f 1 	2 	3
f 3 	6 	1
f 5 	1 	6
f 6 	4 	5
f 9 	67 	8
f 10 	64 	9
f 39 	60 	15
f 62 	64 	15
f 17 	315 	16
f 19 	14 	315
f 14 	16 	315
f 24 	25 	26
f 24 	26 	27
f 24 	27 	28
f 24 	28 	29
f 24 	29 	30
f 24 	30 	32
f 24 	32 	33
f 24 	33 	34
f 35 	100 	34
f 11 	64 	10
f 13 	15 	64
f 40 	60 	39
f 41 	60 	40
f 12 	13 	64
f 24 	34 	48
f 48 	34 	47
f 7 	8 	67
f 47 	34 	46
f 41 	50 	51
f 54 	41 	51
f 55 	41 	54
f 60 	41 	55
f 62 	15 	60
f 63 	16 	14
f 463 	334 	44
f 63 	80 	16
f 66 	150 	65
f 67 	9 	64
f 11 	12 	64
f 73 	35 	69
f 69 	35 	67
f 35 	7 	67
f 84 	35 	79
f 73 	79 	35
f 17 	16 	80
f 80 	107 	17
f 76 	77 	21
f 72 	21 	77
f 79 	86 	84
f 89 	34 	88
f 90 	34 	89
f 46 	34 	90
f 88 	34 	87
f 84 	93 	35
f 247 	80 	63
f 86 	79 	73
f 94 	35 	93
f 95 	35 	94
f 96 	35 	95
f 98 	35 	96
f 99 	35 	98
f 100 	35 	99
f 87 	34 	100
f 103 	123 	101
f 17 	107 	315
f 102 	111 	108
f 110 	105 	108
f 102 	108 	105
f 72 	77 	109
f 104 	72 	109
f 245 	429 	107
f 140 	92 	61
f 224 	82 	59
f 113 	114 	110
f 114 	3 	110
f 2 	110 	3
f 105 	110 	2
f 246 	107 	80
f 112 	122 	103
f 106 	1 	168
f 105 	1 	106
f 2 	1 	105
f 245 	107 	246
f 108 	118 	119
f 108 	119 	110
f 116 	104 	117
f 119 	118 	124
f 119 	124 	126
f 244 	430 	245
f 123 	103 	122
f 121 	122 	112
f 120 	121 	112
f 112 	115 	120
f 253 	128 	115
f 257 	128 	253
f 120 	115 	128
f 126 	124 	127
f 126 	127 	129
f 242 	430 	244
f 109 	117 	104
f 129 	127 	130
f 129 	130 	131
f 131 	130 	133
f 131 	133 	134
f 134 	133 	136
f 134 	136 	137
f 138 	139 	137
f 138 	137 	136
f 141 	142 	139
f 141 	139 	138
f 22 	23 	143
f 144 	145 	142
f 144 	142 	141
f 143 	162 	22
f 224 	223 	82
f 146 	147 	145
f 146 	145 	144
f 148 	149 	147
f 148 	147 	146
f 94 	93 	150
f 161 	174 	151
f 151 	169 	154
f 93 	84 	150
f 152 	153 	149
f 152 	149 	148
f 155 	156 	153
f 155 	153 	152
f 45 	165 	49
f 6 	515 	84
f 154 	163 	140
f 49 	157 	23
f 191 	194 	190
f 163 	190 	140
f 155 	237 	156
f 175 	156 	237
f 135 	171 	158
f 177 	539 	125
f 159 	173 	161
f 31 	22 	162
f 111 	155 	152
f 111 	152 	148
f 111 	148 	146
f 111 	146 	144
f 111 	144 	141
f 111 	141 	138
f 111 	138 	136
f 111 	136 	133
f 111 	133 	130
f 111 	130 	127
f 111 	127 	124
f 111 	124 	118
f 111 	118 	108
f 132 	539 	177
f 176 	37 	31
f 162 	176 	31
f 111 	237 	155
f 176 	186 	37
f 123 	135 	164
f 126 	113 	119
f 129 	113 	126
f 131 	113 	129
f 134 	113 	131
f 137 	113 	134
f 139 	113 	137
f 142 	113 	139
f 145 	113 	142
f 147 	113 	145
f 149 	113 	147
f 153 	113 	149
f 156 	113 	153
f 110 	119 	113
f 158 	164 	135
f 157 	49 	165
f 166 	206 	50
f 96 	95 	203
f 105 	106 	102
f 106 	168 	102
f 167 	102 	168
f 222 	177 	125
f 95 	94 	170
f 95 	170 	203
f 92 	166 	41
f 50 	41 	166
f 1 	5 	168
f 94 	150 	170
f 163 	154 	169
f 172 	160 	171
f 174 	161 	173
f 169 	151 	174
f 160 	172 	159
f 160 	158 	171
f 5 	4 	168
f 167 	168 	4
f 177 	412 	132
f 101 	123 	164
f 173 	159 	172
f 175 	237 	178
f 42 	37 	186
f 180 	252 	181
f 194 	166 	140
f 181 	252 	183
f 92 	140 	166
f 100 	384 	87
f 185 	276 	188
f 213 	204 	187
f 187 	212 	182
f 188 	276 	189
f 192 	197 	191
f 140 	190 	194
f 330 	353 	55
f 329 	98 	291
f 196 	205 	192
f 194 	191 	197
f 55 	54 	330
f 241 	242 	247
f 204 	209 	196
f 197 	192 	205
f 206 	292 	51
f 205 	196 	209
f 23 	207 	143
f 51 	50 	206
f 157 	207 	23
f 226 	182 	212
f 212 	187 	204
f 209 	204 	213
f 318 	225 	216
f 435 	434 	157
f 201 	215 	217
f 201 	217 	218
f 201 	218 	219
f 201 	219 	220
f 201 	220 	221
f 201 	221 	222
f 201 	222 	223
f 201 	223 	224
f 201 	224 	227
f 201 	227 	228
f 201 	228 	229
f 201 	229 	230
f 201 	230 	231
f 231 	200 	201
f 322 	232 	318
f 225 	318 	232
f 238 	239 	226
f 68 	203 	170
f 235 	201 	234
f 236 	201 	235
f 215 	201 	236
f 233 	234 	201
f 177 	222 	199
f 182 	226 	239
f 240 	178 	237
f 238 	243 	239
f 244 	245 	242
f 245 	246 	242
f 246 	247 	242
f 247 	265 	202
f 201 	202 	265
f 202 	241 	247
f 179 	178 	240
f 179 	240 	249
f 250 	243 	248
f 238 	248 	243
f 251 	180 	179
f 251 	179 	249
f 248 	376 	250
f 221 	199 	222
f 180 	251 	252
f 258 	183 	252
f 412 	177 	208
f 412 	208 	413
f 183 	258 	184
f 264 	184 	258
f 194 	206 	166
f 256 	201 	255
f 259 	201 	256
f 260 	201 	259
f 261 	201 	260
f 262 	201 	261
f 117 	201 	262
f 254 	255 	201
f 265 	266 	201
f 266 	268 	201
f 268 	269 	201
f 269 	270 	201
f 270 	271 	201
f 271 	272 	201
f 254 	201 	272
f 274 	275 	313
f 267 	303 	263
f 273 	185 	184
f 273 	184 	264
f 312 	313 	275
f 263 	303 	257
f 185 	273 	276
f 76 	201 	77
f 109 	77 	201
f 277 	201 	76
f 278 	201 	277
f 279 	201 	278
f 233 	201 	279
f 117 	109 	201
f 280 	189 	276
f 99 	98 	329
f 189 	280 	193
f 283 	193 	280
f 128 	257 	284
f 284 	257 	303
f 96 	291 	98
f 54 	292 	330
f 290 	195 	193
f 290 	193 	283
f 288 	296 	287
f 289 	296 	288
f 286 	287 	296
f 293 	296 	289
f 294 	296 	293
f 285 	286 	296
f 96 	203 	291
f 54 	51 	292
f 195 	290 	198
f 298 	198 	290
f 282 	312 	275
f 300 	198 	298
f 198 	300 	210
f 309 	211 	210
f 309 	210 	300
f 274 	313 	267
f 314 	267 	313
f 303 	267 	314
f 296 	294 	299
f 296 	299 	301
f 302 	315 	301
f 304 	315 	302
f 305 	315 	304
f 306 	315 	305
f 307 	315 	306
f 308 	315 	307
f 311 	503 	315
f 296 	301 	315
f 291 	203 	70
f 211 	309 	214
f 316 	214 	309
f 317 	216 	214
f 317 	214 	316
f 205 	292 	197
f 297 	324 	282
f 216 	317 	318
f 68 	70 	203
f 285 	319 	320
f 321 	323 	297
f 221 	281 	199
f 312 	282 	325
f 324 	297 	323
f 208 	295 	413
f 88 	446 	89
f 111 	300 	298
f 111 	298 	290
f 111 	290 	283
f 111 	283 	280
f 111 	280 	276
f 111 	276 	273
f 111 	273 	264
f 111 	264 	258
f 252 	111 	258
f 251 	111 	252
f 249 	111 	251
f 240 	111 	249
f 237 	111 	240
f 317 	111 	318
f 316 	111 	317
f 309 	111 	316
f 300 	111 	309
f 322 	318 	111
f 384 	100 	355
f 353 	385 	60
f 325 	282 	324
f 60 	55 	353
f 220 	327 	281
f 336 	326 	332
f 321 	332 	323
f 292 	205 	330
f 179 	180 	333
f 331 	333 	180
f 180 	181 	331
f 181 	183 	331
f 183 	184 	331
f 184 	185 	331
f 185 	188 	331
f 188 	189 	331
f 189 	193 	331
f 193 	195 	331
f 195 	198 	331
f 198 	210 	331
f 333 	334 	179
f 334 	335 	179
f 335 	337 	179
f 178 	179 	337
f 337 	338 	178
f 175 	178 	338
f 338 	113 	175
f 156 	175 	113
f 216 	225 	331
f 214 	216 	331
f 211 	214 	331
f 232 	331 	225
f 210 	211 	331
f 70 	71 	291
f 27 	310 	308
f 167 	322 	102
f 287 	11 	10
f 339 	352 	336
f 323 	332 	326
f 311 	342 	343
f 111 	102 	322
f 232 	322 	167
f 64 	62 	422
f 348 	363 	347
f 350 	368 	348
f 351 	344 	350
f 326 	336 	352
f 352 	339 	351
f 363 	360 	347
f 399 	232 	428
f 398 	232 	399
f 400 	232 	404
f 349 	232 	400
f 420 	232 	349
f 411 	232 	416
f 4 	431 	232
f 411 	407 	232
f 4 	232 	167
f 62 	60 	385
f 99 	355 	100
f 356 	362 	333
f 357 	366 	356
f 358 	366 	357
f 354 	333 	359
f 53 	346 	360
f 99 	329 	355
f 361 	369 	358
f 359 	333 	362
f 344 	351 	339
f 346 	347 	360
f 364 	391 	361
f 365 	391 	364
f 362 	356 	366
f 330 	209 	353
f 368 	350 	344
f 363 	348 	368
f 331 	375 	333
f 355 	329 	74
f 331 	232 	372
f 387 	408 	70
f 87 	410 	88
f 446 	88 	410
f 546 	374 	403
f 305 	304 	30
f 58 	250 	376
f 422 	449 	64
f 403 	547 	546
f 383 	66 	382
f 65 	382 	66
f 62 	385 	422
f 30 	29 	305
f 375 	377 	333
f 379 	333 	378
f 381 	370 	379
f 378 	333 	377
f 466 	464 	381
f 333 	379 	370
f 70 	68 	387
f 383 	387 	68
f 383 	68 	66
f 388 	391 	365
f 384 	355 	78
f 366 	358 	369
f 389 	394 	388
f 390 	394 	389
f 369 	361 	391
f 380 	367 	255
f 307 	28 	308
f 392 	394 	390
f 393 	394 	392
f 391 	388 	394
f 74 	78 	355
f 395 	396 	393
f 394 	393 	396
f 396 	395 	397
f 40 	208 	92
f 41 	40 	92
f 371 	386 	433
f 404 	232 	398
f 346 	53 	402
f 296 	315 	406
f 255 	254 	380
f 372 	232 	373
f 373 	232 	407
f 409 	71 	408
f 433 	386 	434
f 229 	403 	374
f 207 	434 	386
f 416 	232 	420
f 414 	418 	413
f 415 	418 	414
f 412 	413 	418
f 412 	418 	419
f 412 	419 	421
f 87 	384 	410
f 417 	74 	409
f 71 	70 	408
f 67 	64 	449
f 415 	320 	418
f 319 	418 	320
f 71 	409 	74
f 417 	425 	81
f 401 	85 	405
f 427 	406 	426
f 429 	406 	315
f 430 	406 	429
f 426 	406 	430
f 74 	417 	78
f 405 	83 	425
f 428 	232 	431
f 78 	417 	81
f 78 	81 	384
f 432 	4 	436
f 435 	440 	434
f 433 	434 	440
f 81 	425 	83
f 402 	91 	401
f 424 	423 	4
f 436 	4 	437
f 272 	162 	143
f 437 	4 	438
f 182 	422 	187
f 385 	187 	422
f 287 	12 	11
f 438 	4 	423
f 83 	405 	85
f 444 	440 	439
f 435 	439 	440
f 90 	470 	46
f 75 	46 	470
f 424 	4 	441
f 431 	4 	432
f 85 	401 	91
f 470 	90 	462
f 441 	4 	442
f 402 	53 	91
f 343 	342 	443
f 439 	443 	342
f 439 	342 	444
f 442 	4 	445
f 89 	446 	462
f 461 	469 	69
f 445 	4 	447
f 285 	296 	448
f 403 	229 	228
f 69 	67 	461
f 294 	8 	7
f 186 	459 	42
f 18 	42 	459
f 452 	454 	451
f 35 	299 	7
f 465 	19 	18
f 459 	465 	18
f 455 	450 	454
f 337 	456 	453
f 20 	403 	228
f 101 	365 	364
f 301 	299 	34
f 269 	186 	270
f 454 	452 	456
f 541 	448 	296
f 539 	540 	296
f 103 	358 	357
f 81 	83 	410
f 33 	302 	34
f 456 	337 	457
f 103 	101 	358
f 176 	270 	186
f 304 	302 	32
f 182 	449 	422
f 101 	364 	361
f 361 	358 	101
f 446 	410 	83
f 337 	335 	458
f 337 	458 	457
f 304 	32 	30
f 103 	357 	356
f 103 	356 	112
f 467 	319 	448
f 59 	20 	227
f 228 	227 	20
f 115 	333 	370
f 334 	333 	460
f 285 	448 	319
f 89 	462 	90
f 112 	356 	333
f 115 	112 	333
f 227 	224 	59
f 67 	449 	461
f 460 	333 	354
f 115 	370 	464
f 115 	464 	253
f 125 	82 	223
f 334 	463 	335
f 475 	381 	128
f 269 	459 	186
f 223 	222 	125
f 381 	379 	120
f 381 	120 	128
f 462 	446 	85
f 379 	378 	121
f 379 	121 	120
f 370 	381 	464
f 378 	377 	122
f 378 	122 	121
f 14 	19 	474
f 83 	85 	446
f 469 	86 	73
f 375 	123 	122
f 375 	122 	377
f 73 	69 	469
f 177 	92 	208
f 39 	295 	40
f 372 	135 	331
f 135 	123 	331
f 375 	331 	123
f 319 	467 	418
f 281 	221 	220
f 475 	477 	466
f 381 	475 	466
f 372 	373 	135
f 471 	468 	477
f 468 	466 	477
f 19 	465 	474
f 97 	419 	467
f 467 	419 	418
f 85 	91 	462
f 473 	472 	479
f 478 	479 	471
f 477 	478 	471
f 419 	97 	421
f 132 	421 	97
f 472 	471 	479
f 46 	75 	47
f 396 	397 	160
f 469 	250 	86
f 132 	412 	421
f 158 	393 	392
f 160 	395 	158
f 393 	158 	395
f 480 	489 	337
f 337 	473 	480
f 479 	480 	473
f 395 	160 	397
f 14 	474 	63
f 190 	163 	399
f 398 	399 	163
f 219 	327 	220
f 486 	15 	320
f 451 	454 	450
f 450 	455 	484
f 164 	390 	389
f 75 	470 	53
f 63 	474 	265
f 482 	484 	498
f 453 	456 	452
f 390 	164 	158
f 390 	158 	392
f 413 	295 	414
f 400 	404 	163
f 400 	163 	169
f 460 	354 	56
f 247 	63 	265
f 485 	484 	455
f 498 	484 	485
f 404 	398 	163
f 360 	483 	53
f 388 	365 	164
f 101 	164 	365
f 113 	487 	488
f 113 	488 	504
f 504 	502 	113
f 113 	338 	487
f 388 	164 	389
f 75 	53 	483
f 486 	414 	295
f 415 	414 	486
f 373 	407 	171
f 373 	171 	135
f 407 	411 	172
f 407 	172 	171
f 207 	254 	143
f 491 	337 	490
f 489 	490 	337
f 338 	337 	491
f 411 	416 	173
f 411 	173 	172
f 416 	420 	174
f 416 	174 	173
f 493 	494 	492
f 494 	495 	496
f 481 	498 	495
f 486 	320 	415
f 420 	349 	169
f 420 	169 	174
f 349 	400 	169
f 482 	498 	481
f 492 	494 	496
f 295 	39 	486
f 226 	212 	424
f 496 	495 	498
f 399 	428 	190
f 476 	56 	359
f 219 	340 	327
f 428 	431 	191
f 428 	191 	190
f 501 	500 	113
f 114 	113 	500
f 501 	113 	502
f 45 	315 	503
f 49 	315 	45
f 431 	432 	192
f 431 	192 	191
f 196 	192 	436
f 432 	436 	192
f 530 	45 	503
f 3 	114 	505
f 505 	506 	3
f 561 	476 	507
f 204 	196 	437
f 436 	437 	196
f 310 	311 	315
f 151 	154 	57
f 212 	204 	438
f 437 	438 	204
f 308 	310 	315
f 447 	4 	511
f 117 	262 	116
f 423 	424 	212
f 438 	423 	212
f 315 	107 	429
f 61 	154 	140
f 4 	6 	512
f 4 	512 	511
f 513 	511 	512
f 430 	429 	245
f 424 	441 	226
f 6 	3 	515
f 242 	426 	430
f 238 	226 	442
f 441 	442 	226
f 517 	515 	516
f 3 	516 	515
f 426 	242 	427
f 241 	427 	242
f 248 	238 	445
f 442 	445 	238
f 510 	3 	509
f 510 	519 	3
f 516 	3 	518
f 261 	514 	497
f 360 	499 	483
f 445 	447 	248
f 340 	218 	508
f 518 	3 	519
f 197 	206 	194
f 206 	197 	292
f 509 	3 	520
f 520 	3 	521
f 209 	330 	205
f 521 	3 	523
f 523 	3 	524
f 328 	514 	260
f 261 	260 	514
f 207 	157 	434
f 524 	3 	525
f 525 	3 	526
f 353 	213 	385
f 341 	328 	259
f 260 	259 	328
f 526 	3 	527
f 311 	343 	503
f 259 	256 	341
f 367 	341 	256
f 507 	476 	362
f 527 	3 	506
f 367 	256 	255
f 39 	15 	486
f 359 	362 	476
f 285 	320 	13
f 13 	320 	15
f 461 	243 	469
f 499 	363 	522
f 13 	12 	285
f 286 	285 	12
f 80 	247 	246
f 12 	287 	286
f 157 	165 	435
f 439 	435 	165
f 215 	528 	217
f 253 	464 	466
f 253 	466 	257
f 368 	522 	363
f 10 	288 	287
f 530 	503 	343
f 257 	466 	468
f 257 	468 	263
f 289 	288 	9
f 10 	9 	288
f 508 	217 	528
f 45 	530 	165
f 508 	528 	553
f 263 	468 	471
f 263 	471 	267
f 9 	8 	293
f 9 	293 	289
f 267 	471 	472
f 267 	472 	274
f 8 	294 	293
f 274 	472 	473
f 274 	473 	275
f 458 	43 	457
f 530 	439 	165
f 294 	7 	299
f 43 	458 	44
f 458 	335 	44
f 272 	143 	254
f 443 	439 	530
f 56 	44 	460
f 271 	162 	272
f 282 	275 	337
f 453 	282 	337
f 473 	337 	275
f 530 	343 	443
f 359 	56 	354
f 162 	271 	176
f 270 	176 	271
f 35 	34 	299
f 128 	284 	475
f 301 	34 	302
f 451 	297 	452
f 282 	452 	297
f 459 	269 	268
f 344 	531 	368
f 499 	360 	363
f 33 	32 	302
f 282 	453 	452
f 459 	268 	465
f 266 	465 	268
f 362 	366 	507
f 522 	368 	531
f 306 	305 	29
f 297 	451 	450
f 29 	28 	307
f 29 	307 	306
f 480 	479 	313
f 480 	313 	312
f 27 	308 	28
f 465 	266 	474
f 265 	474 	266
f 479 	478 	314
f 479 	314 	313
f 25 	24 	342
f 27 	26 	310
f 478 	477 	303
f 478 	303 	314
f 427 	241 	202
f 24 	48 	533
f 311 	310 	25
f 26 	25 	310
f 284 	303 	477
f 284 	477 	475
f 497 	116 	262
f 533 	444 	342
f 470 	91 	53
f 311 	25 	342
f 497 	262 	261
f 497 	534 	537
f 450 	484 	321
f 450 	321 	297
f 345 	560 	231
f 321 	482 	481
f 374 	345 	230
f 231 	230 	345
f 321 	484 	482
f 444 	533 	440
f 371 	440 	533
f 344 	534 	531
f 488 	487 	326
f 230 	229 	374
f 532 	529 	391
f 326 	338 	323
f 487 	338 	326
f 491 	323 	338
f 476 	561 	562
f 463 	44 	335
f 207 	380 	254
f 490 	324 	323
f 490 	323 	491
f 433 	440 	371
f 460 	44 	334
f 561 	507 	529
f 489 	325 	324
f 489 	324 	490
f 312 	325 	489
f 312 	489 	480
f 551 	529 	532
f 535 	56 	562
f 339 	493 	492
f 536 	528 	532
f 533 	342 	24
f 508 	553 	557
f 56 	535 	44
f 371 	533 	48
f 485 	455 	554
f 279 	278 	538
f 279 	538 	535
f 537 	552 	497
f 481 	495 	332
f 481 	332 	321
f 332 	495 	494
f 332 	494 	336
f 340 	219 	218
f 496 	537 	492
f 336 	494 	493
f 336 	493 	339
f 217 	508 	218
f 500 	348 	347
f 500 	347 	114
f 501 	350 	348
f 501 	348 	500
f 502 	351 	350
f 502 	350 	501
f 504 	352 	351
f 504 	351 	502
f 504 	488 	352
f 326 	352 	488
f 541 	296 	540
f 542 	543 	296
f 543 	544 	296
f 544 	545 	296
f 545 	546 	296
f 546 	547 	296
f 547 	548 	296
f 548 	549 	296
f 549 	550 	296
f 539 	296 	550
f 505 	346 	506
f 391 	394 	532
f 114 	347 	346
f 114 	346 	505
f 509 	387 	510
f 86 	512 	84
f 447 	511 	376
f 447 	376 	248
f 58 	513 	512
f 58 	512 	86
f 551 	532 	528
f 6 	84 	512
f 536 	532 	394
f 150 	66 	170
f 511 	513 	58
f 511 	58 	376
f 498 	552 	496
f 150 	84 	515
f 170 	66 	68
f 536 	553 	528
f 515 	517 	65
f 515 	65 	150
f 65 	517 	516
f 65 	516 	382
f 537 	496 	552
f 340 	508 	557
f 340 	557 	327
f 52 	327 	557
f 516 	518 	383
f 516 	383 	382
f 329 	291 	71
f 387 	383 	519
f 518 	519 	383
f 71 	74 	329
f 281 	327 	57
f 52 	57 	327
f 519 	510 	387
f 509 	520 	408
f 509 	408 	387
f 57 	199 	281
f 520 	521 	409
f 520 	409 	408
f 410 	384 	81
f 417 	409 	523
f 521 	523 	409
f 534 	497 	514
f 538 	278 	277
f 104 	552 	554
f 524 	425 	417
f 524 	417 	523
f 425 	524 	405
f 525 	405 	524
f 277 	36 	538
f 208 	40 	295
f 526 	401 	405
f 526 	405 	525
f 483 	380 	75
f 207 	75 	380
f 470 	462 	91
f 527 	402 	401
f 527 	401 	526
f 202 	406 	427
f 554 	72 	104
f 527 	506 	402
f 346 	402 	506
f 367 	380 	499
f 483 	499 	380
f 394 	396 	536
f 498 	485 	554
f 367 	499 	341
f 555 	542 	296
f 43 	36 	21
f 522 	531 	341
f 328 	341 	531
f 556 	542 	555
f 43 	44 	36
f 538 	36 	44
f 236 	551 	215
f 552 	498 	554
f 542 	556 	543
f 560 	543 	556
f 534 	514 	531
f 538 	44 	535
f 529 	507 	366
f 543 	560 	544
f 560 	345 	544
f 528 	215 	551
f 476 	562 	56
f 374 	545 	345
f 544 	345 	545
f 386 	371 	47
f 48 	47 	371
f 529 	369 	391
f 366 	369 	529
f 545 	374 	546
f 207 	386 	75
f 47 	75 	386
f 553 	160 	159
f 557 	553 	159
f 522 	341 	499
f 72 	554 	559
f 328 	531 	514
f 553 	536 	396
f 529 	551 	558
f 396 	160 	553
f 559 	38 	72
f 406 	202 	555
f 296 	406 	555
f 201 	555 	202
f 235 	558 	236
f 552 	116 	497
f 57 	52 	151
f 61 	57 	154
f 552 	104 	116
f 555 	201 	556
f 236 	558 	551
f 61 	92 	199
f 556 	201 	200
f 52 	557 	161
f 456 	559 	454
f 560 	556 	200
f 529 	558 	561
f 159 	161 	557
f 277 	76 	36
f 454 	559 	554
f 353 	209 	213
f 76 	21 	36
f 187 	385 	213
f 234 	561 	235
f 558 	235 	561
f 21 	72 	38
f 449 	182 	239
f 449 	239 	461
f 243 	461 	239
f 250 	469 	243
f 199 	57 	61
f 86 	250 	58
f 200 	231 	560
f 177 	199 	92
f 559 	456 	38
f 38 	456 	457
f 561 	234 	562
f 161 	151 	52
f 233 	562 	234
f 534 	344 	339
f 492 	534 	339
f 534 	492 	537
f 279 	535 	233
f 233 	535 	562
f 454 	554 	455
f 38 	43 	21
f 547 	20 	548
f 31 	37 	315
f 37 	42 	315
f 22 	31 	315
f 42 	18 	315
f 18 	19 	315
f 23 	22 	315
f 49 	23 	315
f 82 	549 	59
f 548 	59 	549
f 549 	82 	550
f 125 	550 	82
f 38 	457 	43
f 125 	539 	550
f 97 	541 	540
f 97 	540 	132
f 448 	541 	467
f 97 	467 	541
f 20 	547 	403
f 59 	548 	20
f 132 	540 	539
# 1124 faces

 #end of obj_0

o obj_1
v -8 		10 		22
v -8 		10 		20
v -8 		18 		20
v -15.003 		17.003 		22
v -8 		18 		22
v -8.998 		17.003 		22
v -16 		18 		22
v -8.998 		10.998 		22
v -15.003 		10.998 		22
v -15.003 		17.003 		20.3992
v -16 		10 		22
v -15.003 		10.998 		20.3992
v -8.998 		10.998 		20.3992
v -8.998 		17.003 		20.3992
v -16 		10 		20
v -16 		18 		20
# 16 vertices

g group_1_15277357

usemtl color_15277357
s 0

f 563 	564 	565
f 563 	565 	567
f 567 	569 	568
f 571 	573 	570
f 563 	570 	573
f 567 	568 	570
f 567 	570 	563
f 566 	569 	571
f 566 	568 	569
f 573 	571 	569
f 572 	566 	571
f 572 	571 	574
f 575 	570 	568
f 575 	568 	576
f 578 	565 	577
f 564 	577 	565
f 569 	578 	577
f 569 	577 	573
f 566 	572 	576
f 566 	576 	568
f 570 	575 	574
f 570 	574 	571
f 567 	578 	569
f 574 	575 	576
f 574 	576 	572
f 564 	573 	577
f 567 	565 	578
f 563 	573 	564
# 28 faces

 #end of obj_1

o obj_2
v -14.2536 		13.3415 		22.125
v -14.3832 		13.3415 		22.1179
v -14.3812 		13.3275 		22.1179
v -14.3754 		13.3138 		22.1179
v -14.3658 		13.301 		22.1179
v -14.3529 		13.2894 		22.1179
v -14.3369 		13.2795 		22.1179
v -14.3184 		13.2714 		22.1179
v -14.2979 		13.2654 		22.1179
v -14.2761 		13.2617 		22.1179
v -14.2536 		13.2605 		22.1179
v -10.7464 		13.3415 		22.125
v -10.7464 		13.2605 		22.1179
v -10.7239 		13.2617 		22.1179
v -10.7021 		13.2654 		22.1179
v -10.6816 		13.2714 		22.1179
v -10.6631 		13.2795 		22.1179
v -10.6471 		13.2894 		22.1179
v -10.6342 		13.301 		22.1179
v -10.6246 		13.3138 		22.1179
v -10.6188 		13.3275 		22.1179
v -10.6168 		13.3415 		22.1179
v -10.7464 		15.5335 		22.125
v -10.6168 		15.5335 		22.1179
v -10.6188 		15.5475 		22.1179
v -10.6246 		15.5612 		22.1179
v -10.6342 		15.574 		22.1179
v -10.6471 		15.5856 		22.1179
v -10.6631 		15.5955 		22.1179
v -10.6816 		15.6036 		22.1179
v -10.7021 		15.6096 		22.1179
v -10.7239 		15.6133 		22.1179
v -10.7464 		15.6145 		22.1179
v -14.2536 		15.5335 		22.125
v -14.2536 		15.6145 		22.1179
v -14.2761 		15.6133 		22.1179
v -14.2979 		15.6096 		22.1179
v -14.3184 		15.6036 		22.1179
v -14.3369 		15.5955 		22.1179
v -14.3529 		15.5856 		22.1179
v -14.3658 		15.574 		22.1179
v -14.3754 		15.5612 		22.1179
v -14.3812 		15.5475 		22.1179
v -14.3832 		15.5335 		22.1179
v -14.505 		13.3138 		22.0969
v -14.5089 		13.3415 		22.0969
v -14.4935 		13.2869 		22.0969
v -14.4747 		13.2617 		22.0969
v -14.4491 		13.239 		22.0969
v -14.4177 		13.2193 		22.0969
v -14.3812 		13.2033 		22.0969
v -14.3409 		13.1916 		22.0969
v -14.2979 		13.1844 		22.0969
v -14.2536 		13.182 		22.0969
v -10.7464 		13.182 		22.0969
v -10.7021 		13.1844 		22.0969
v -10.6591 		13.1916 		22.0969
v -10.6188 		13.2033 		22.0969
v -10.5823 		13.2193 		22.0969
v -10.5509 		13.239 		22.0969
v -10.5253 		13.2617 		22.0969
v -10.5065 		13.2869 		22.0969
v -10.495 		13.3138 		22.0969
v -10.4911 		13.3415 		22.0969
v -10.4911 		15.5335 		22.0969
v -10.495 		15.5612 		22.0969
v -10.5065 		15.5881 		22.0969
v -10.5253 		15.6133 		22.0969
v -10.5509 		15.636 		22.0969
v -10.5823 		15.6557 		22.0969
v -10.6188 		15.6717 		22.0969
v -10.6591 		15.6834 		22.0969
v -10.7021 		15.6906 		22.0969
v -10.7464 		15.693 		22.0969
v -14.2536 		15.693 		22.0969
v -14.2979 		15.6906 		22.0969
v -14.3409 		15.6834 		22.0969
v -14.3812 		15.6717 		22.0969
v -14.4177 		15.6557 		22.0969
v -14.4491 		15.636 		22.0969
v -14.4747 		15.6133 		22.0969
v -14.4935 		15.5881 		22.0969
v -14.505 		15.5612 		22.0969
v -14.5089 		15.5335 		22.0969
v -14.6211 		13.301 		22.0625
v -14.6268 		13.3415 		22.0625
v -14.6043 		13.2617 		22.0625
v -14.5768 		13.2249 		22.0625
v -14.5395 		13.1916 		22.0625
v -14.4935 		13.1628 		22.0625
v -14.4402 		13.1395 		22.0625
v -14.3812 		13.1223 		22.0625
v -14.3184 		13.1118 		22.0625
v -14.2536 		13.1083 		22.0625
v -10.7464 		13.1083 		22.0625
v -10.6816 		13.1118 		22.0625
v -10.6188 		13.1223 		22.0625
v -10.5598 		13.1395 		22.0625
v -10.5065 		13.1628 		22.0625
v -10.4605 		13.1916 		22.0625
v -10.4232 		13.2249 		22.0625
v -10.3957 		13.2617 		22.0625
v -10.3789 		13.301 		22.0625
v -10.3732 		13.3415 		22.0625
v -10.3732 		15.5335 		22.0625
v -10.3789 		15.574 		22.0625
v -10.3957 		15.6133 		22.0625
v -10.4232 		15.6501 		22.0625
v -10.4605 		15.6834 		22.0625
v -10.5065 		15.7122 		22.0625
v -10.5598 		15.7355 		22.0625
v -10.6188 		15.7527 		22.0625
v -10.6816 		15.7632 		22.0625
v -10.7464 		15.7667 		22.0625
v -14.2536 		15.7667 		22.0625
v -14.3184 		15.7632 		22.0625
v -14.3812 		15.7527 		22.0625
v -14.4402 		15.7355 		22.0625
v -14.4935 		15.7122 		22.0625
v -14.5395 		15.6834 		22.0625
v -14.5768 		15.6501 		22.0625
v -14.6043 		15.6133 		22.0625
v -14.6211 		15.574 		22.0625
v -14.6268 		15.5335 		22.0625
v -14.7261 		13.2894 		22.0159
v -14.7334 		13.3415 		22.0159
v -14.7044 		13.239 		22.0159
v -14.6691 		13.1916 		22.0159
v -14.6211 		13.1488 		22.0159
v -14.562 		13.1118 		22.0159
v -14.4935 		13.0818 		22.0159
v -14.4177 		13.0597 		22.0159
v -14.3369 		13.0462 		22.0159
v -14.2536 		13.0416 		22.0159
v -10.7464 		13.0416 		22.0159
v -10.6631 		13.0462 		22.0159
v -10.5823 		13.0597 		22.0159
v -10.5065 		13.0818 		22.0159
v -10.438 		13.1118 		22.0159
v -10.3789 		13.1488 		22.0159
v -10.3309 		13.1916 		22.0159
v -10.2956 		13.239 		22.0159
v -10.2739 		13.2894 		22.0159
v -10.2666 		13.3415 		22.0159
v -10.2666 		15.5335 		22.0159
v -10.2739 		15.5856 		22.0159
v -10.2956 		15.636 		22.0159
v -10.3309 		15.6834 		22.0159
v -10.3789 		15.7262 		22.0159
v -10.438 		15.7632 		22.0159
v -10.5065 		15.7932 		22.0159
v -10.5823 		15.8153 		22.0159
v -10.6631 		15.8288 		22.0159
v -10.7464 		15.8334 		22.0159
v -14.2536 		15.8334 		22.0159
v -14.3369 		15.8288 		22.0159
v -14.4177 		15.8153 		22.0159
v -14.4935 		15.7932 		22.0159
v -14.562 		15.7632 		22.0159
v -14.6211 		15.7262 		22.0159
v -14.6691 		15.6834 		22.0159
v -14.7044 		15.636 		22.0159
v -14.7261 		15.5856 		22.0159
v -14.7334 		15.5335 		22.0159
v -14.8167 		13.2795 		21.9584
v -14.8254 		13.3415 		21.9584
v -14.7909 		13.2193 		21.9584
v -14.7488 		13.1628 		21.9584
v -14.6916 		13.1118 		21.9584
v -14.6211 		13.0678 		21.9584
v -14.5395 		13.032 		21.9584
v -14.4491 		13.0057 		21.9584
v -14.3529 		12.9896 		21.9584
v -14.2536 		12.9841 		21.9584
v -10.7464 		12.9841 		21.9584
v -10.6471 		12.9896 		21.9584
v -10.5509 		13.0057 		21.9584
v -10.4605 		13.032 		21.9584
v -10.3789 		13.0678 		21.9584
v -10.3084 		13.1118 		21.9584
v -10.2512 		13.1628 		21.9584
v -10.2091 		13.2193 		21.9584
v -10.1833 		13.2795 		21.9584
v -10.1746 		13.3415 		21.9584
v -10.1746 		15.5335 		21.9584
v -10.1833 		15.5955 		21.9584
v -10.2091 		15.6557 		21.9584
v -10.2512 		15.7122 		21.9584
v -10.3084 		15.7632 		21.9584
v -10.3789 		15.8072 		21.9584
v -10.4605 		15.843 		21.9584
v -10.5509 		15.8693 		21.9584
v -10.6471 		15.8854 		21.9584
v -10.7464 		15.8909 		21.9584
v -14.2536 		15.8909 		21.9584
v -14.3529 		15.8854 		21.9584
v -14.4491 		15.8693 		21.9584
v -14.5395 		15.843 		21.9584
v -14.6211 		15.8072 		21.9584
v -14.6916 		15.7632 		21.9584
v -14.7488 		15.7122 		21.9584
v -14.7909 		15.6557 		21.9584
v -14.8167 		15.5955 		21.9584
v -14.8254 		15.5335 		21.9584
v -14.8902 		13.2714 		21.8917
v -14.9 		13.3415 		21.8917
v -14.861 		13.2033 		21.8917
v -14.8134 		13.1395 		21.8917
v -14.7488 		13.0818 		21.8917
v -14.6691 		13.032 		21.8917
v -14.5768 		12.9916 		21.8917
v -14.4747 		12.9619 		21.8917
v -14.3658 		12.9436 		21.8917
v -14.2536 		12.9375 		21.8917
v -10.7464 		12.9375 		21.8917
v -10.6342 		12.9436 		21.8917
v -10.5253 		12.9619 		21.8917
v -10.4232 		12.9916 		21.8917
v -10.3309 		13.032 		21.8917
v -10.2512 		13.0818 		21.8917
v -10.1866 		13.1395 		21.8917
v -10.139 		13.2033 		21.8917
v -10.1098 		13.2714 		21.8917
v -10.1 		13.3415 		21.8917
v -10.1 		15.5335 		21.8917
v -10.1098 		15.6036 		21.8917
v -10.139 		15.6717 		21.8917
v -10.1866 		15.7355 		21.8917
v -10.2512 		15.7932 		21.8917
v -10.3309 		15.843 		21.8917
v -10.4232 		15.8834 		21.8917
v -10.5253 		15.9131 		21.8917
v -10.6342 		15.9314 		21.8917
v -10.7464 		15.9375 		21.8917
v -14.2536 		15.9375 		21.8917
v -14.3658 		15.9314 		21.8917
v -14.4747 		15.9131 		21.8917
v -14.5768 		15.8834 		21.8917
v -14.6691 		15.843 		21.8917
v -14.7488 		15.7932 		21.8917
v -14.8134 		15.7355 		21.8917
v -14.861 		15.6717 		21.8917
v -14.8902 		15.6036 		21.8917
v -14.9 		15.5335 		21.8917
v -14.9443 		13.2654 		21.818
v -14.955 		13.3415 		21.818
v -14.9127 		13.1916 		21.818
v -14.861 		13.1223 		21.818
v -14.7909 		13.0597 		21.818
v -14.7044 		13.0057 		21.818
v -14.6043 		12.9619 		21.818
v -14.4935 		12.9296 		21.818
v -14.3754 		12.9098 		21.818
v -14.2536 		12.9031 		21.818
v -10.7464 		12.9031 		21.818
v -10.6246 		12.9098 		21.818
v -10.5065 		12.9296 		21.818
v -10.3957 		12.9619 		21.818
v -10.2956 		13.0057 		21.818
v -10.2091 		13.0597 		21.818
v -10.139 		13.1223 		21.818
v -10.0873 		13.1916 		21.818
v -10.0557 		13.2654 		21.818
v -10.045 		13.3415 		21.818
v -10.045 		15.5335 		21.818
v -10.0557 		15.6096 		21.818
v -10.0873 		15.6834 		21.818
v -10.139 		15.7527 		21.818
v -10.2091 		15.8153 		21.818
v -10.2956 		15.8693 		21.818
v -10.3957 		15.9131 		21.818
v -10.5065 		15.9454 		21.818
v -10.6246 		15.9652 		21.818
v -10.7464 		15.9719 		21.818
v -14.2536 		15.9719 		21.818
v -14.3754 		15.9652 		21.818
v -14.4935 		15.9454 		21.818
v -14.6043 		15.9131 		21.818
v -14.7044 		15.8693 		21.818
v -14.7909 		15.8153 		21.818
v -14.861 		15.7527 		21.818
v -14.9127 		15.6834 		21.818
v -14.9443 		15.6096 		21.818
v -14.955 		15.5335 		21.818
v -14.9775 		13.2617 		21.7395
v -14.9887 		13.3415 		21.7395
v -14.9443 		13.1844 		21.7395
v -14.8902 		13.1118 		21.7395
v -14.8167 		13.0462 		21.7395
v -14.7261 		12.9896 		21.7395
v -14.6211 		12.9436 		21.7395
v -14.505 		12.9098 		21.7395
v -14.3812 		12.8891 		21.7395
v -14.2536 		12.8821 		21.7395
v -10.7464 		12.8821 		21.7395
v -10.6188 		12.8891 		21.7395
v -10.495 		12.9098 		21.7395
v -10.3789 		12.9436 		21.7395
v -10.2739 		12.9896 		21.7395
v -10.1833 		13.0462 		21.7395
v -10.1098 		13.1118 		21.7395
v -10.0557 		13.1844 		21.7395
v -10.0225 		13.2617 		21.7395
v -10.0113 		13.3415 		21.7395
v -10.0113 		15.5335 		21.7395
v -10.0225 		15.6133 		21.7395
v -10.0557 		15.6906 		21.7395
v -10.1098 		15.7632 		21.7395
v -10.1833 		15.8288 		21.7395
v -10.2739 		15.8854 		21.7395
v -10.3789 		15.9314 		21.7395
v -10.495 		15.9652 		21.7395
v -10.6188 		15.9859 		21.7395
v -10.7464 		15.9929 		21.7395
v -14.2536 		15.9929 		21.7395
v -14.3812 		15.9859 		21.7395
v -14.505 		15.9652 		21.7395
v -14.6211 		15.9314 		21.7395
v -14.7261 		15.8854 		21.7395
v -14.8167 		15.8288 		21.7395
v -14.8902 		15.7632 		21.7395
v -14.9443 		15.6906 		21.7395
v -14.9775 		15.6133 		21.7395
v -14.9887 		15.5335 		21.7395
v -14.9887 		13.2605 		21.6585
v -15 		13.3415 		21.6585
v -14.955 		13.182 		21.6585
v -14.9 		13.1083 		21.6585
v -14.8254 		13.0416 		21.6585
v -14.7334 		12.9841 		21.6585
v -14.6268 		12.9375 		21.6585
v -14.5089 		12.9031 		21.6585
v -14.3832 		12.8821 		21.6585
v -14.2536 		12.875 		21.6585
v -10.7464 		12.875 		21.6585
v -10.6168 		12.8821 		21.6585
v -10.4911 		12.9031 		21.6585
v -10.3732 		12.9375 		21.6585
v -10.2666 		12.9841 		21.6585
v -10.1746 		13.0416 		21.6585
v -10.1 		13.1083 		21.6585
v -10.045 		13.182 		21.6585
v -10.0113 		13.2605 		21.6585
v -10 		13.3415 		21.6585
v -10 		15.5335 		21.6585
v -10.0113 		15.6145 		21.6585
v -10.045 		15.693 		21.6585
v -10.1 		15.7667 		21.6585
v -10.1746 		15.8334 		21.6585
v -10.2666 		15.8909 		21.6585
v -10.3732 		15.9375 		21.6585
v -10.4911 		15.9719 		21.6585
v -10.6168 		15.9929 		21.6585
v -10.7464 		16 		21.6585
v -14.2536 		16 		21.6585
v -14.3832 		15.9929 		21.6585
v -14.5089 		15.9719 		21.6585
v -14.6268 		15.9375 		21.6585
v -14.7334 		15.8909 		21.6585
v -14.8254 		15.8334 		21.6585
v -14.9 		15.7667 		21.6585
v -14.955 		15.693 		21.6585
v -14.9887 		15.6145 		21.6585
v -15 		15.5335 		21.6585
v -14.9887 		13.2605 		19.4665
v -15 		13.3415 		19.4665
v -14.955 		13.182 		19.4665
v -14.9 		13.1083 		19.4665
v -14.8254 		13.0416 		19.4665
v -14.7334 		12.9841 		19.4665
v -14.6268 		12.9375 		19.4665
v -14.5089 		12.9031 		19.4665
v -14.3832 		12.8821 		19.4665
v -14.2536 		12.875 		19.4665
v -10.7464 		12.875 		19.4665
v -10.6168 		12.8821 		19.4665
v -10.4911 		12.9031 		19.4665
v -10.3732 		12.9375 		19.4665
v -10.2666 		12.9841 		19.4665
v -10.1746 		13.0416 		19.4665
v -10.1 		13.1083 		19.4665
v -10.045 		13.182 		19.4665
v -10.0113 		13.2605 		19.4665
v -10 		13.3415 		19.4665
v -10 		15.5335 		19.4665
v -10.0113 		15.6145 		19.4665
v -10.045 		15.693 		19.4665
v -10.1 		15.7667 		19.4665
v -10.1746 		15.8334 		19.4665
v -10.2666 		15.8909 		19.4665
v -10.3732 		15.9375 		19.4665
v -10.4911 		15.9719 		19.4665
v -10.6168 		15.9929 		19.4665
v -10.7464 		16 		19.4665
v -14.2536 		16 		19.4665
v -14.3832 		15.9929 		19.4665
v -14.5089 		15.9719 		19.4665
v -14.6268 		15.9375 		19.4665
v -14.7334 		15.8909 		19.4665
v -14.8254 		15.8334 		19.4665
v -14.9 		15.7667 		19.4665
v -14.955 		15.693 		19.4665
v -14.9887 		15.6145 		19.4665
v -15 		15.5335 		19.4665
v -14.9775 		13.2617 		19.3855
v -14.9887 		13.3415 		19.3855
v -14.9443 		13.1844 		19.3855
v -14.8902 		13.1118 		19.3855
v -14.8167 		13.0462 		19.3855
v -14.7261 		12.9896 		19.3855
v -14.6211 		12.9436 		19.3855
v -14.505 		12.9098 		19.3855
v -14.3812 		12.8891 		19.3855
v -14.2536 		12.8821 		19.3855
v -10.7464 		12.8821 		19.3855
v -10.6188 		12.8891 		19.3855
v -10.495 		12.9098 		19.3855
v -10.3789 		12.9436 		19.3855
v -10.2739 		12.9896 		19.3855
v -10.1833 		13.0462 		19.3855
v -10.1098 		13.1118 		19.3855
v -10.0557 		13.1844 		19.3855
v -10.0225 		13.2617 		19.3855
v -10.0113 		13.3415 		19.3855
v -10.0113 		15.5335 		19.3855
v -10.0225 		15.6133 		19.3855
v -10.0557 		15.6906 		19.3855
v -10.1098 		15.7632 		19.3855
v -10.1833 		15.8288 		19.3855
v -10.2739 		15.8854 		19.3855
v -10.3789 		15.9314 		19.3855
v -10.495 		15.9652 		19.3855
v -10.6188 		15.9859 		19.3855
v -10.7464 		15.9929 		19.3855
v -14.2536 		15.9929 		19.3855
v -14.3812 		15.9859 		19.3855
v -14.505 		15.9652 		19.3855
v -14.6211 		15.9314 		19.3855
v -14.7261 		15.8854 		19.3855
v -14.8167 		15.8288 		19.3855
v -14.8902 		15.7632 		19.3855
v -14.9443 		15.6906 		19.3855
v -14.9775 		15.6133 		19.3855
v -14.9887 		15.5335 		19.3855
v -14.9443 		13.2654 		19.307
v -14.955 		13.3415 		19.307
v -14.9127 		13.1916 		19.307
v -14.861 		13.1223 		19.307
v -14.7909 		13.0597 		19.307
v -14.7044 		13.0057 		19.307
v -14.6043 		12.9619 		19.307
v -14.4935 		12.9296 		19.307
v -14.3754 		12.9098 		19.307
v -14.2536 		12.9031 		19.307
v -10.7464 		12.9031 		19.307
v -10.6246 		12.9098 		19.307
v -10.5065 		12.9296 		19.307
v -10.3957 		12.9619 		19.307
v -10.2956 		13.0057 		19.307
v -10.2091 		13.0597 		19.307
v -10.139 		13.1223 		19.307
v -10.0873 		13.1916 		19.307
v -10.0557 		13.2654 		19.307
v -10.045 		13.3415 		19.307
v -10.045 		15.5335 		19.307
v -10.0557 		15.6096 		19.307
v -10.0873 		15.6834 		19.307
v -10.139 		15.7527 		19.307
v -10.2091 		15.8153 		19.307
v -10.2956 		15.8693 		19.307
v -10.3957 		15.9131 		19.307
v -10.5065 		15.9454 		19.307
v -10.6246 		15.9652 		19.307
v -10.7464 		15.9719 		19.307
v -14.2536 		15.9719 		19.307
v -14.3754 		15.9652 		19.307
v -14.4935 		15.9454 		19.307
v -14.6043 		15.9131 		19.307
v -14.7044 		15.8693 		19.307
v -14.7909 		15.8153 		19.307
v -14.861 		15.7527 		19.307
v -14.9127 		15.6834 		19.307
v -14.9443 		15.6096 		19.307
v -14.955 		15.5335 		19.307
v -14.8902 		13.2714 		19.2333
v -14.9 		13.3415 		19.2333
v -14.861 		13.2033 		19.2333
v -14.8134 		13.1395 		19.2333
v -14.7488 		13.0818 		19.2333
v -14.6691 		13.032 		19.2333
v -14.5768 		12.9916 		19.2333
v -14.4747 		12.9619 		19.2333
v -14.3658 		12.9436 		19.2333
v -14.2536 		12.9375 		19.2333
v -10.7464 		12.9375 		19.2333
v -10.6342 		12.9436 		19.2333
v -10.5253 		12.9619 		19.2333
v -10.4232 		12.9916 		19.2333
v -10.3309 		13.032 		19.2333
v -10.2512 		13.0818 		19.2333
v -10.1866 		13.1395 		19.2333
v -10.139 		13.2033 		19.2333
v -10.1098 		13.2714 		19.2333
v -10.1 		13.3415 		19.2333
v -10.1 		15.5335 		19.2333
v -10.1098 		15.6036 		19.2333
v -10.139 		15.6717 		19.2333
v -10.1866 		15.7355 		19.2333
v -10.2512 		15.7932 		19.2333
v -10.3309 		15.843 		19.2333
v -10.4232 		15.8834 		19.2333
v -10.5253 		15.9131 		19.2333
v -10.6342 		15.9314 		19.2333
v -10.7464 		15.9375 		19.2333
v -14.2536 		15.9375 		19.2333
v -14.3658 		15.9314 		19.2333
v -14.4747 		15.9131 		19.2333
v -14.5768 		15.8834 		19.2333
v -14.6691 		15.843 		19.2333
v -14.7488 		15.7932 		19.2333
v -14.8134 		15.7355 		19.2333
v -14.861 		15.6717 		19.2333
v -14.8902 		15.6036 		19.2333
v -14.9 		15.5335 		19.2333
v -14.8167 		13.2795 		19.1666
v -14.8254 		13.3415 		19.1666
v -14.7909 		13.2193 		19.1666
v -14.7488 		13.1628 		19.1666
v -14.6916 		13.1118 		19.1666
v -14.6211 		13.0678 		19.1666
v -14.5395 		13.032 		19.1666
v -14.4491 		13.0057 		19.1666
v -14.3529 		12.9896 		19.1666
v -14.2536 		12.9841 		19.1666
v -10.7464 		12.9841 		19.1666
v -10.6471 		12.9896 		19.1666
v -10.5509 		13.0057 		19.1666
v -10.4605 		13.032 		19.1666
v -10.3789 		13.0678 		19.1666
v -10.3084 		13.1118 		19.1666
v -10.2512 		13.1628 		19.1666
v -10.2091 		13.2193 		19.1666
v -10.1833 		13.2795 		19.1666
v -10.1746 		13.3415 		19.1666
v -10.1746 		15.5335 		19.1666
v -10.1833 		15.5955 		19.1666
v -10.2091 		15.6557 		19.1666
v -10.2512 		15.7122 		19.1666
v -10.3084 		15.7632 		19.1666
v -10.3789 		15.8072 		19.1666
v -10.4605 		15.843 		19.1666
v -10.5509 		15.8693 		19.1666
v -10.6471 		15.8854 		19.1666
v -10.7464 		15.8909 		19.1666
v -14.2536 		15.8909 		19.1666
v -14.3529 		15.8854 		19.1666
v -14.4491 		15.8693 		19.1666
v -14.5395 		15.843 		19.1666
v -14.6211 		15.8072 		19.1666
v -14.6916 		15.7632 		19.1666
v -14.7488 		15.7122 		19.1666
v -14.7909 		15.6557 		19.1666
v -14.8167 		15.5955 		19.1666
v -14.8254 		15.5335 		19.1666
v -14.7261 		13.2894 		19.1091
v -14.7334 		13.3415 		19.1091
v -14.7044 		13.239 		19.1091
v -14.6691 		13.1916 		19.1091
v -14.6211 		13.1488 		19.1091
v -14.562 		13.1118 		19.1091
v -14.4935 		13.0818 		19.1091
v -14.4177 		13.0597 		19.1091
v -14.3369 		13.0462 		19.1091
v -14.2536 		13.0416 		19.1091
v -10.7464 		13.0416 		19.1091
v -10.6631 		13.0462 		19.1091
v -10.5823 		13.0597 		19.1091
v -10.5065 		13.0818 		19.1091
v -10.438 		13.1118 		19.1091
v -10.3789 		13.1488 		19.1091
v -10.3309 		13.1916 		19.1091
v -10.2956 		13.239 		19.1091
v -10.2739 		13.2894 		19.1091
v -10.2666 		13.3415 		19.1091
v -10.2666 		15.5335 		19.1091
v -10.2739 		15.5856 		19.1091
v -10.2956 		15.636 		19.1091
v -10.3309 		15.6834 		19.1091
v -10.3789 		15.7262 		19.1091
v -10.438 		15.7632 		19.1091
v -10.5065 		15.7932 		19.1091
v -10.5823 		15.8153 		19.1091
v -10.6631 		15.8288 		19.1091
v -10.7464 		15.8334 		19.1091
v -14.2536 		15.8334 		19.1091
v -14.3369 		15.8288 		19.1091
v -14.4177 		15.8153 		19.1091
v -14.4935 		15.7932 		19.1091
v -14.562 		15.7632 		19.1091
v -14.6211 		15.7262 		19.1091
v -14.6691 		15.6834 		19.1091
v -14.7044 		15.636 		19.1091
v -14.7261 		15.5856 		19.1091
v -14.7334 		15.5335 		19.1091
v -14.6211 		13.301 		19.0625
v -14.6268 		13.3415 		19.0625
v -14.6043 		13.2617 		19.0625
v -14.5768 		13.2249 		19.0625
v -14.5395 		13.1916 		19.0625
v -14.4935 		13.1628 		19.0625
v -14.4402 		13.1395 		19.0625
v -14.3812 		13.1223 		19.0625
v -14.3184 		13.1118 		19.0625
v -14.2536 		13.1083 		19.0625
v -10.7464 		13.1083 		19.0625
v -10.6816 		13.1118 		19.0625
v -10.6188 		13.1223 		19.0625
v -10.5598 		13.1395 		19.0625
v -10.5065 		13.1628 		19.0625
v -10.4605 		13.1916 		19.0625
v -10.4232 		13.2249 		19.0625
v -10.3957 		13.2617 		19.0625
v -10.3789 		13.301 		19.0625
v -10.3732 		13.3415 		19.0625
v -10.3732 		15.5335 		19.0625
v -10.3789 		15.574 		19.0625
v -10.3957 		15.6133 		19.0625
v -10.4232 		15.6501 		19.0625
v -10.4605 		15.6834 		19.0625
v -10.5065 		15.7122 		19.0625
v -10.5598 		15.7355 		19.0625
v -10.6188 		15.7527 		19.0625
v -10.6816 		15.7632 		19.0625
v -10.7464 		15.7667 		19.0625
v -14.2536 		15.7667 		19.0625
v -14.3184 		15.7632 		19.0625
v -14.3812 		15.7527 		19.0625
v -14.4402 		15.7355 		19.0625
v -14.4935 		15.7122 		19.0625
v -14.5395 		15.6834 		19.0625
v -14.5768 		15.6501 		19.0625
v -14.6043 		15.6133 		19.0625
v -14.6211 		15.574 		19.0625
v -14.6268 		15.5335 		19.0625
v -14.505 		13.3138 		19.0281
v -14.5089 		13.3415 		19.0281
v -14.4935 		13.2869 		19.0281
v -14.4747 		13.2617 		19.0281
v -14.4491 		13.239 		19.0281
v -14.4177 		13.2193 		19.0281
v -14.3812 		13.2033 		19.0281
v -14.3409 		13.1916 		19.0281
v -14.2979 		13.1844 		19.0281
v -14.2536 		13.182 		19.0281
v -10.7464 		13.182 		19.0281
v -10.7021 		13.1844 		19.0281
v -10.6591 		13.1916 		19.0281
v -10.6188 		13.2033 		19.0281
v -10.5823 		13.2193 		19.0281
v -10.5509 		13.239 		19.0281
v -10.5253 		13.2617 		19.0281
v -10.5065 		13.2869 		19.0281
v -10.495 		13.3138 		19.0281
v -10.4911 		13.3415 		19.0281
v -10.4911 		15.5335 		19.0281
v -10.495 		15.5612 		19.0281
v -10.5065 		15.5881 		19.0281
v -10.5253 		15.6133 		19.0281
v -10.5509 		15.636 		19.0281
v -10.5823 		15.6557 		19.0281
v -10.6188 		15.6717 		19.0281
v -10.6591 		15.6834 		19.0281
v -10.7021 		15.6906 		19.0281
v -10.7464 		15.693 		19.0281
v -14.2536 		15.693 		19.0281
v -14.2979 		15.6906 		19.0281
v -14.3409 		15.6834 		19.0281
v -14.3812 		15.6717 		19.0281
v -14.4177 		15.6557 		19.0281
v -14.4491 		15.636 		19.0281
v -14.4747 		15.6133 		19.0281
v -14.4935 		15.5881 		19.0281
v -14.505 		15.5612 		19.0281
v -14.5089 		15.5335 		19.0281
v -14.3812 		13.3275 		19.0071
v -14.3832 		13.3415 		19.0071
v -14.3754 		13.3138 		19.0071
v -14.3658 		13.301 		19.0071
v -14.3529 		13.2894 		19.0071
v -14.3369 		13.2795 		19.0071
v -14.3184 		13.2714 		19.0071
v -14.2979 		13.2654 		19.0071
v -14.2761 		13.2617 		19.0071
v -14.2536 		13.2605 		19.0071
v -10.7464 		13.2605 		19.0071
v -10.7239 		13.2617 		19.0071
v -10.7021 		13.2654 		19.0071
v -10.6816 		13.2714 		19.0071
v -10.6631 		13.2795 		19.0071
v -10.6471 		13.2894 		19.0071
v -10.6342 		13.301 		19.0071
v -10.6246 		13.3138 		19.0071
v -10.6188 		13.3275 		19.0071
v -10.6168 		13.3415 		19.0071
v -10.6168 		15.5335 		19.0071
v -10.6188 		15.5475 		19.0071
v -10.6246 		15.5612 		19.0071
v -10.6342 		15.574 		19.0071
v -10.6471 		15.5856 		19.0071
v -10.6631 		15.5955 		19.0071
v -10.6816 		15.6036 		19.0071
v -10.7021 		15.6096 		19.0071
v -10.7239 		15.6133 		19.0071
v -10.7464 		15.6145 		19.0071
v -14.2536 		15.6145 		19.0071
v -14.2761 		15.6133 		19.0071
v -14.2979 		15.6096 		19.0071
v -14.3184 		15.6036 		19.0071
v -14.3369 		15.5955 		19.0071
v -14.3529 		15.5856 		19.0071
v -14.3658 		15.574 		19.0071
v -14.3754 		15.5612 		19.0071
v -14.3812 		15.5475 		19.0071
v -14.3832 		15.5335 		19.0071
v -14.2536 		13.3415 		19
v -10.7464 		13.3415 		19
v -10.7464 		15.5335 		19
v -14.2536 		15.5335 		19
# 728 vertices

g group_2_16448250

usemtl color_16448250
s 0

f 579 	580 	581
f 579 	581 	582
f 579 	582 	583
f 579 	583 	584
f 579 	584 	585
f 579 	585 	586
f 579 	586 	587
f 579 	587 	588
f 579 	588 	589
f 590 	579 	591
f 579 	589 	591
f 590 	591 	592
f 590 	592 	593
f 590 	593 	594
f 590 	594 	595
f 590 	595 	596
f 590 	596 	597
f 590 	597 	598
f 590 	598 	599
f 590 	599 	600
f 601 	590 	602
f 590 	600 	602
f 601 	602 	603
f 601 	603 	604
f 601 	604 	605
f 601 	605 	606
f 601 	606 	607
f 601 	607 	608
f 601 	608 	609
f 601 	609 	610
f 601 	610 	611
f 612 	601 	613
f 601 	611 	613
f 612 	613 	614
f 612 	614 	615
f 612 	615 	616
f 612 	616 	617
f 612 	617 	618
f 612 	618 	619
f 612 	619 	620
f 612 	620 	621
f 612 	621 	622
f 579 	612 	580
f 612 	622 	580
f 581 	580 	623
f 580 	624 	623
f 582 	581 	625
f 581 	623 	625
f 583 	582 	626
f 582 	625 	626
f 584 	583 	627
f 583 	626 	627
f 585 	584 	628
f 584 	627 	628
f 586 	585 	629
f 585 	628 	629
f 587 	586 	630
f 586 	629 	630
f 588 	587 	631
f 587 	630 	631
f 589 	588 	632
f 588 	631 	632
f 591 	589 	633
f 589 	632 	633
f 592 	591 	634
f 591 	633 	634
f 593 	592 	635
f 592 	634 	635
f 594 	593 	636
f 593 	635 	636
f 595 	594 	637
f 594 	636 	637
f 596 	595 	638
f 595 	637 	638
f 597 	596 	639
f 596 	638 	639
f 598 	597 	640
f 597 	639 	640
f 599 	598 	641
f 598 	640 	641
f 600 	599 	642
f 599 	641 	642
f 602 	600 	643
f 600 	642 	643
f 603 	602 	644
f 602 	643 	644
f 604 	603 	645
f 603 	644 	645
f 605 	604 	646
f 604 	645 	646
f 606 	605 	647
f 605 	646 	647
f 607 	606 	648
f 606 	647 	648
f 608 	607 	649
f 607 	648 	649
f 609 	608 	650
f 608 	649 	650
f 610 	609 	651
f 609 	650 	651
f 611 	610 	652
f 610 	651 	652
f 613 	611 	653
f 611 	652 	653
f 614 	613 	654
f 613 	653 	654
f 615 	614 	655
f 614 	654 	655
f 616 	615 	656
f 615 	655 	656
f 617 	616 	657
f 616 	656 	657
f 618 	617 	658
f 617 	657 	658
f 619 	618 	659
f 618 	658 	659
f 620 	619 	660
f 619 	659 	660
f 621 	620 	661
f 620 	660 	661
f 622 	621 	662
f 621 	661 	662
f 580 	622 	624
f 622 	662 	624
f 623 	624 	663
f 624 	664 	663
f 625 	623 	665
f 623 	663 	665
f 626 	625 	666
f 625 	665 	666
f 627 	626 	667
f 626 	666 	667
f 628 	627 	668
f 627 	667 	668
f 629 	628 	669
f 628 	668 	669
f 630 	629 	670
f 629 	669 	670
f 631 	630 	671
f 630 	670 	671
f 632 	631 	672
f 631 	671 	672
f 633 	632 	673
f 632 	672 	673
f 634 	633 	674
f 633 	673 	674
f 635 	634 	675
f 634 	674 	675
f 636 	635 	676
f 635 	675 	676
f 637 	636 	677
f 636 	676 	677
f 638 	637 	678
f 637 	677 	678
f 639 	638 	679
f 638 	678 	679
f 640 	639 	680
f 639 	679 	680
f 641 	640 	681
f 640 	680 	681
f 642 	641 	682
f 641 	681 	682
f 643 	642 	683
f 642 	682 	683
f 644 	643 	684
f 643 	683 	684
f 645 	644 	685
f 644 	684 	685
f 646 	645 	686
f 645 	685 	686
f 647 	646 	687
f 646 	686 	687
f 648 	647 	688
f 647 	687 	688
f 649 	648 	689
f 648 	688 	689
f 650 	649 	690
f 649 	689 	690
f 651 	650 	691
f 650 	690 	691
f 652 	651 	692
f 651 	691 	692
f 653 	652 	693
f 652 	692 	693
f 654 	653 	694
f 653 	693 	694
f 655 	654 	695
f 654 	694 	695
f 656 	655 	696
f 655 	695 	696
f 657 	656 	697
f 656 	696 	697
f 658 	657 	698
f 657 	697 	698
f 659 	658 	699
f 658 	698 	699
f 660 	659 	700
f 659 	699 	700
f 661 	660 	701
f 660 	700 	701
f 662 	661 	702
f 661 	701 	702
f 624 	662 	664
f 662 	702 	664
f 663 	664 	703
f 664 	704 	703
f 665 	663 	705
f 663 	703 	705
f 666 	665 	706
f 665 	705 	706
f 667 	666 	707
f 666 	706 	707
f 668 	667 	708
f 667 	707 	708
f 669 	668 	709
f 668 	708 	709
f 670 	669 	710
f 669 	709 	710
f 671 	670 	711
f 670 	710 	711
f 672 	671 	712
f 671 	711 	712
f 673 	672 	713
f 672 	712 	713
f 674 	673 	714
f 673 	713 	714
f 675 	674 	715
f 674 	714 	715
f 676 	675 	716
f 675 	715 	716
f 677 	676 	717
f 676 	716 	717
f 678 	677 	718
f 677 	717 	718
f 679 	678 	719
f 678 	718 	719
f 680 	679 	720
f 679 	719 	720
f 681 	680 	721
f 680 	720 	721
f 682 	681 	722
f 681 	721 	722
f 683 	682 	723
f 682 	722 	723
f 684 	683 	724
f 683 	723 	724
f 685 	684 	725
f 684 	724 	725
f 686 	685 	726
f 685 	725 	726
f 687 	686 	727
f 686 	726 	727
f 688 	687 	728
f 687 	727 	728
f 689 	688 	729
f 688 	728 	729
f 690 	689 	730
f 689 	729 	730
f 691 	690 	731
f 690 	730 	731
f 692 	691 	732
f 691 	731 	732
f 693 	692 	733
f 692 	732 	733
f 694 	693 	734
f 693 	733 	734
f 695 	694 	735
f 694 	734 	735
f 696 	695 	736
f 695 	735 	736
f 697 	696 	737
f 696 	736 	737
f 698 	697 	738
f 697 	737 	738
f 699 	698 	739
f 698 	738 	739
f 700 	699 	740
f 699 	739 	740
f 701 	700 	741
f 700 	740 	741
f 702 	701 	742
f 701 	741 	742
f 664 	702 	704
f 702 	742 	704
f 703 	704 	743
f 704 	744 	743
f 705 	703 	745
f 703 	743 	745
f 706 	705 	746
f 705 	745 	746
f 707 	706 	747
f 706 	746 	747
f 708 	707 	748
f 707 	747 	748
f 709 	708 	749
f 708 	748 	749
f 710 	709 	750
f 709 	749 	750
f 711 	710 	751
f 710 	750 	751
f 712 	711 	752
f 711 	751 	752
f 713 	712 	753
f 712 	752 	753
f 714 	713 	754
f 713 	753 	754
f 715 	714 	755
f 714 	754 	755
f 716 	715 	756
f 715 	755 	756
f 717 	716 	757
f 716 	756 	757
f 718 	717 	758
f 717 	757 	758
f 719 	718 	759
f 718 	758 	759
f 720 	719 	760
f 719 	759 	760
f 721 	720 	761
f 720 	760 	761
f 722 	721 	762
f 721 	761 	762
f 723 	722 	763
f 722 	762 	763
f 724 	723 	764
f 723 	763 	764
f 725 	724 	765
f 724 	764 	765
f 726 	725 	766
f 725 	765 	766
f 727 	726 	767
f 726 	766 	767
f 728 	727 	768
f 727 	767 	768
f 729 	728 	769
f 728 	768 	769
f 730 	729 	770
f 729 	769 	770
f 731 	730 	771
f 730 	770 	771
f 732 	731 	772
f 731 	771 	772
f 733 	732 	773
f 732 	772 	773
f 734 	733 	774
f 733 	773 	774
f 735 	734 	775
f 734 	774 	775
f 736 	735 	776
f 735 	775 	776
f 737 	736 	777
f 736 	776 	777
f 738 	737 	778
f 737 	777 	778
f 739 	738 	779
f 738 	778 	779
f 740 	739 	780
f 739 	779 	780
f 741 	740 	781
f 740 	780 	781
f 742 	741 	782
f 741 	781 	782
f 704 	742 	744
f 742 	782 	744
f 743 	744 	783
f 744 	784 	783
f 745 	743 	785
f 743 	783 	785
f 746 	745 	786
f 745 	785 	786
f 747 	746 	787
f 746 	786 	787
f 748 	747 	788
f 747 	787 	788
f 749 	748 	789
f 748 	788 	789
f 750 	749 	790
f 749 	789 	790
f 751 	750 	791
f 750 	790 	791
f 752 	751 	792
f 751 	791 	792
f 753 	752 	793
f 752 	792 	793
f 754 	753 	794
f 753 	793 	794
f 755 	754 	795
f 754 	794 	795
f 756 	755 	796
f 755 	795 	796
f 757 	756 	797
f 756 	796 	797
f 758 	757 	798
f 757 	797 	798
f 759 	758 	799
f 758 	798 	799
f 760 	759 	800
f 759 	799 	800
f 761 	760 	801
f 760 	800 	801
f 762 	761 	802
f 761 	801 	802
f 763 	762 	803
f 762 	802 	803
f 764 	763 	804
f 763 	803 	804
f 765 	764 	805
f 764 	804 	805
f 766 	765 	806
f 765 	805 	806
f 767 	766 	807
f 766 	806 	807
f 768 	767 	808
f 767 	807 	808
f 769 	768 	809
f 768 	808 	809
f 770 	769 	810
f 769 	809 	810
f 771 	770 	811
f 770 	810 	811
f 772 	771 	812
f 771 	811 	812
f 773 	772 	813
f 772 	812 	813
f 774 	773 	814
f 773 	813 	814
f 775 	774 	815
f 774 	814 	815
f 776 	775 	816
f 775 	815 	816
f 777 	776 	817
f 776 	816 	817
f 778 	777 	818
f 777 	817 	818
f 779 	778 	819
f 778 	818 	819
f 780 	779 	820
f 779 	819 	820
f 781 	780 	821
f 780 	820 	821
f 782 	781 	822
f 781 	821 	822
f 744 	782 	784
f 782 	822 	784
f 783 	784 	823
f 784 	824 	823
f 785 	783 	825
f 783 	823 	825
f 786 	785 	826
f 785 	825 	826
f 787 	786 	827
f 786 	826 	827
f 788 	787 	828
f 787 	827 	828
f 789 	788 	829
f 788 	828 	829
f 790 	789 	830
f 789 	829 	830
f 791 	790 	831
f 790 	830 	831
f 792 	791 	832
f 791 	831 	832
f 793 	792 	833
f 792 	832 	833
f 794 	793 	834
f 793 	833 	834
f 795 	794 	835
f 794 	834 	835
f 796 	795 	836
f 795 	835 	836
f 797 	796 	837
f 796 	836 	837
f 798 	797 	838
f 797 	837 	838
f 799 	798 	839
f 798 	838 	839
f 800 	799 	840
f 799 	839 	840
f 801 	800 	841
f 800 	840 	841
f 802 	801 	842
f 801 	841 	842
f 803 	802 	843
f 802 	842 	843
f 804 	803 	844
f 803 	843 	844
f 805 	804 	845
f 804 	844 	845
f 806 	805 	846
f 805 	845 	846
f 807 	806 	847
f 806 	846 	847
f 808 	807 	848
f 807 	847 	848
f 809 	808 	849
f 808 	848 	849
f 810 	809 	850
f 809 	849 	850
f 811 	810 	851
f 810 	850 	851
f 812 	811 	852
f 811 	851 	852
f 813 	812 	853
f 812 	852 	853
f 814 	813 	854
f 813 	853 	854
f 815 	814 	855
f 814 	854 	855
f 816 	815 	856
f 815 	855 	856
f 817 	816 	857
f 816 	856 	857
f 818 	817 	858
f 817 	857 	858
f 819 	818 	859
f 818 	858 	859
f 820 	819 	860
f 819 	859 	860
f 821 	820 	861
f 820 	860 	861
f 822 	821 	862
f 821 	861 	862
f 784 	822 	824
f 822 	862 	824
f 823 	824 	863
f 824 	864 	863
f 825 	823 	865
f 823 	863 	865
f 826 	825 	866
f 825 	865 	866
f 827 	826 	867
f 826 	866 	867
f 828 	827 	868
f 827 	867 	868
f 829 	828 	869
f 828 	868 	869
f 830 	829 	870
f 829 	869 	870
f 831 	830 	871
f 830 	870 	871
f 832 	831 	872
f 831 	871 	872
f 833 	832 	873
f 832 	872 	873
f 834 	833 	874
f 833 	873 	874
f 835 	834 	875
f 834 	874 	875
f 836 	835 	876
f 835 	875 	876
f 837 	836 	877
f 836 	876 	877
f 838 	837 	878
f 837 	877 	878
f 839 	838 	879
f 838 	878 	879
f 840 	839 	880
f 839 	879 	880
f 841 	840 	881
f 840 	880 	881
f 842 	841 	882
f 841 	881 	882
f 843 	842 	883
f 842 	882 	883
f 844 	843 	884
f 843 	883 	884
f 845 	844 	885
f 844 	884 	885
f 846 	845 	886
f 845 	885 	886
f 847 	846 	887
f 846 	886 	887
f 848 	847 	888
f 847 	887 	888
f 849 	848 	889
f 848 	888 	889
f 850 	849 	890
f 849 	889 	890
f 851 	850 	891
f 850 	890 	891
f 852 	851 	892
f 851 	891 	892
f 853 	852 	893
f 852 	892 	893
f 854 	853 	894
f 853 	893 	894
f 855 	854 	895
f 854 	894 	895
f 856 	855 	896
f 855 	895 	896
f 857 	856 	897
f 856 	896 	897
f 858 	857 	898
f 857 	897 	898
f 859 	858 	899
f 858 	898 	899
f 860 	859 	900
f 859 	899 	900
f 861 	860 	901
f 860 	900 	901
f 862 	861 	902
f 861 	901 	902
f 824 	862 	864
f 862 	902 	864
f 863 	864 	903
f 864 	904 	903
f 865 	863 	905
f 863 	903 	905
f 866 	865 	906
f 865 	905 	906
f 867 	866 	907
f 866 	906 	907
f 868 	867 	908
f 867 	907 	908
f 869 	868 	909
f 868 	908 	909
f 870 	869 	910
f 869 	909 	910
f 871 	870 	911
f 870 	910 	911
f 872 	871 	912
f 871 	911 	912
f 873 	872 	913
f 872 	912 	913
f 874 	873 	914
f 873 	913 	914
f 875 	874 	915
f 874 	914 	915
f 876 	875 	916
f 875 	915 	916
f 877 	876 	917
f 876 	916 	917
f 878 	877 	918
f 877 	917 	918
f 879 	878 	919
f 878 	918 	919
f 880 	879 	920
f 879 	919 	920
f 881 	880 	921
f 880 	920 	921
f 882 	881 	922
f 881 	921 	922
f 883 	882 	923
f 882 	922 	923
f 884 	883 	924
f 883 	923 	924
f 885 	884 	925
f 884 	924 	925
f 886 	885 	926
f 885 	925 	926
f 887 	886 	927
f 886 	926 	927
f 888 	887 	928
f 887 	927 	928
f 889 	888 	929
f 888 	928 	929
f 890 	889 	930
f 889 	929 	930
f 891 	890 	931
f 890 	930 	931
f 892 	891 	932
f 891 	931 	932
f 893 	892 	933
f 892 	932 	933
f 894 	893 	934
f 893 	933 	934
f 895 	894 	935
f 894 	934 	935
f 896 	895 	936
f 895 	935 	936
f 897 	896 	937
f 896 	936 	937
f 898 	897 	938
f 897 	937 	938
f 899 	898 	939
f 898 	938 	939
f 900 	899 	940
f 899 	939 	940
f 901 	900 	941
f 900 	940 	941
f 902 	901 	942
f 901 	941 	942
f 864 	902 	904
f 902 	942 	904
f 903 	904 	943
f 904 	944 	943
f 905 	903 	945
f 903 	943 	945
f 906 	905 	946
f 905 	945 	946
f 907 	906 	947
f 906 	946 	947
f 908 	907 	948
f 907 	947 	948
f 909 	908 	949
f 908 	948 	949
f 910 	909 	950
f 909 	949 	950
f 911 	910 	951
f 910 	950 	951
f 912 	911 	952
f 911 	951 	952
f 913 	912 	953
f 912 	952 	953
f 914 	913 	954
f 913 	953 	954
f 915 	914 	955
f 914 	954 	955
f 916 	915 	956
f 915 	955 	956
f 917 	916 	957
f 916 	956 	957
f 918 	917 	958
f 917 	957 	958
f 919 	918 	959
f 918 	958 	959
f 920 	919 	960
f 919 	959 	960
f 921 	920 	961
f 920 	960 	961
f 922 	921 	962
f 921 	961 	962
f 923 	922 	963
f 922 	962 	963
f 924 	923 	964
f 923 	963 	964
f 925 	924 	965
f 924 	964 	965
f 926 	925 	966
f 925 	965 	966
f 927 	926 	967
f 926 	966 	967
f 928 	927 	968
f 927 	967 	968
f 929 	928 	969
f 928 	968 	969
f 930 	929 	970
f 929 	969 	970
f 931 	930 	971
f 930 	970 	971
f 932 	931 	972
f 931 	971 	972
f 933 	932 	973
f 932 	972 	973
f 934 	933 	974
f 933 	973 	974
f 935 	934 	975
f 934 	974 	975
f 936 	935 	976
f 935 	975 	976
f 937 	936 	977
f 936 	976 	977
f 938 	937 	978
f 937 	977 	978
f 939 	938 	979
f 938 	978 	979
f 940 	939 	980
f 939 	979 	980
f 941 	940 	981
f 940 	980 	981
f 942 	941 	982
f 941 	981 	982
f 904 	942 	944
f 942 	982 	944
f 943 	944 	983
f 944 	984 	983
f 945 	943 	985
f 943 	983 	985
f 946 	945 	986
f 945 	985 	986
f 947 	946 	987
f 946 	986 	987
f 948 	947 	988
f 947 	987 	988
f 949 	948 	989
f 948 	988 	989
f 950 	949 	990
f 949 	989 	990
f 951 	950 	991
f 950 	990 	991
f 952 	951 	992
f 951 	991 	992
f 953 	952 	993
f 952 	992 	993
f 954 	953 	994
f 953 	993 	994
f 955 	954 	995
f 954 	994 	995
f 956 	955 	996
f 955 	995 	996
f 957 	956 	997
f 956 	996 	997
f 958 	957 	998
f 957 	997 	998
f 959 	958 	999
f 958 	998 	999
f 960 	959 	1000
f 959 	999 	1000
f 961 	960 	1001
f 960 	1000 	1001
f 962 	961 	1002
f 961 	1001 	1002
f 963 	962 	1003
f 962 	1002 	1003
f 964 	963 	1004
f 963 	1003 	1004
f 965 	964 	1005
f 964 	1004 	1005
f 966 	965 	1006
f 965 	1005 	1006
f 967 	966 	1007
f 966 	1006 	1007
f 968 	967 	1008
f 967 	1007 	1008
f 969 	968 	1009
f 968 	1008 	1009
f 970 	969 	1010
f 969 	1009 	1010
f 971 	970 	1011
f 970 	1010 	1011
f 972 	971 	1012
f 971 	1011 	1012
f 973 	972 	1013
f 972 	1012 	1013
f 974 	973 	1014
f 973 	1013 	1014
f 975 	974 	1015
f 974 	1014 	1015
f 976 	975 	1016
f 975 	1015 	1016
f 977 	976 	1017
f 976 	1016 	1017
f 978 	977 	1018
f 977 	1017 	1018
f 979 	978 	1019
f 978 	1018 	1019
f 980 	979 	1020
f 979 	1019 	1020
f 981 	980 	1021
f 980 	1020 	1021
f 982 	981 	1022
f 981 	1021 	1022
f 944 	982 	984
f 982 	1022 	984
f 983 	984 	1023
f 984 	1024 	1023
f 985 	983 	1025
f 983 	1023 	1025
f 986 	985 	1026
f 985 	1025 	1026
f 987 	986 	1027
f 986 	1026 	1027
f 988 	987 	1028
f 987 	1027 	1028
f 989 	988 	1029
f 988 	1028 	1029
f 990 	989 	1030
f 989 	1029 	1030
f 991 	990 	1031
f 990 	1030 	1031
f 992 	991 	1032
f 991 	1031 	1032
f 993 	992 	1033
f 992 	1032 	1033
f 994 	993 	1034
f 993 	1033 	1034
f 995 	994 	1035
f 994 	1034 	1035
f 996 	995 	1036
f 995 	1035 	1036
f 997 	996 	1037
f 996 	1036 	1037
f 998 	997 	1038
f 997 	1037 	1038
f 999 	998 	1039
f 998 	1038 	1039
f 1000 	999 	1040
f 999 	1039 	1040
f 1001 	1000 	1041
f 1000 	1040 	1041
f 1002 	1001 	1042
f 1001 	1041 	1042
f 1003 	1002 	1043
f 1002 	1042 	1043
f 1004 	1003 	1044
f 1003 	1043 	1044
f 1005 	1004 	1045
f 1004 	1044 	1045
f 1006 	1005 	1046
f 1005 	1045 	1046
f 1007 	1006 	1047
f 1006 	1046 	1047
f 1008 	1007 	1048
f 1007 	1047 	1048
f 1009 	1008 	1049
f 1008 	1048 	1049
f 1010 	1009 	1050
f 1009 	1049 	1050
f 1011 	1010 	1051
f 1010 	1050 	1051
f 1012 	1011 	1052
f 1011 	1051 	1052
f 1013 	1012 	1053
f 1012 	1052 	1053
f 1014 	1013 	1054
f 1013 	1053 	1054
f 1015 	1014 	1055
f 1014 	1054 	1055
f 1016 	1015 	1056
f 1015 	1055 	1056
f 1017 	1016 	1057
f 1016 	1056 	1057
f 1018 	1017 	1058
f 1017 	1057 	1058
f 1019 	1018 	1059
f 1018 	1058 	1059
f 1020 	1019 	1060
f 1019 	1059 	1060
f 1021 	1020 	1061
f 1020 	1060 	1061
f 1022 	1021 	1062
f 1021 	1061 	1062
f 984 	1022 	1024
f 1022 	1062 	1024
f 1023 	1024 	1063
f 1024 	1064 	1063
f 1025 	1023 	1065
f 1023 	1063 	1065
f 1026 	1025 	1066
f 1025 	1065 	1066
f 1027 	1026 	1067
f 1026 	1066 	1067
f 1028 	1027 	1068
f 1027 	1067 	1068
f 1029 	1028 	1069
f 1028 	1068 	1069
f 1030 	1029 	1070
f 1029 	1069 	1070
f 1031 	1030 	1071
f 1030 	1070 	1071
f 1032 	1031 	1072
f 1031 	1071 	1072
f 1033 	1032 	1073
f 1032 	1072 	1073
f 1034 	1033 	1074
f 1033 	1073 	1074
f 1035 	1034 	1075
f 1034 	1074 	1075
f 1036 	1035 	1076
f 1035 	1075 	1076
f 1037 	1036 	1077
f 1036 	1076 	1077
f 1038 	1037 	1078
f 1037 	1077 	1078
f 1039 	1038 	1079
f 1038 	1078 	1079
f 1040 	1039 	1080
f 1039 	1079 	1080
f 1041 	1040 	1081
f 1040 	1080 	1081
f 1042 	1041 	1082
f 1041 	1081 	1082
f 1043 	1042 	1083
f 1042 	1082 	1083
f 1044 	1043 	1084
f 1043 	1083 	1084
f 1045 	1044 	1085
f 1044 	1084 	1085
f 1046 	1045 	1086
f 1045 	1085 	1086
f 1047 	1046 	1087
f 1046 	1086 	1087
f 1048 	1047 	1088
f 1047 	1087 	1088
f 1049 	1048 	1089
f 1048 	1088 	1089
f 1050 	1049 	1090
f 1049 	1089 	1090
f 1051 	1050 	1091
f 1050 	1090 	1091
f 1052 	1051 	1092
f 1051 	1091 	1092
f 1053 	1052 	1093
f 1052 	1092 	1093
f 1054 	1053 	1094
f 1053 	1093 	1094
f 1055 	1054 	1095
f 1054 	1094 	1095
f 1056 	1055 	1096
f 1055 	1095 	1096
f 1057 	1056 	1097
f 1056 	1096 	1097
f 1058 	1057 	1098
f 1057 	1097 	1098
f 1059 	1058 	1099
f 1058 	1098 	1099
f 1060 	1059 	1100
f 1059 	1099 	1100
f 1061 	1060 	1101
f 1060 	1100 	1101
f 1062 	1061 	1102
f 1061 	1101 	1102
f 1024 	1062 	1064
f 1062 	1102 	1064
f 1063 	1064 	1103
f 1064 	1104 	1103
f 1065 	1063 	1105
f 1063 	1103 	1105
f 1066 	1065 	1106
f 1065 	1105 	1106
f 1067 	1066 	1107
f 1066 	1106 	1107
f 1068 	1067 	1108
f 1067 	1107 	1108
f 1069 	1068 	1109
f 1068 	1108 	1109
f 1070 	1069 	1110
f 1069 	1109 	1110
f 1071 	1070 	1111
f 1070 	1110 	1111
f 1072 	1071 	1112
f 1071 	1111 	1112
f 1073 	1072 	1113
f 1072 	1112 	1113
f 1074 	1073 	1114
f 1073 	1113 	1114
f 1075 	1074 	1115
f 1074 	1114 	1115
f 1076 	1075 	1116
f 1075 	1115 	1116
f 1077 	1076 	1117
f 1076 	1116 	1117
f 1078 	1077 	1118
f 1077 	1117 	1118
f 1079 	1078 	1119
f 1078 	1118 	1119
f 1080 	1079 	1120
f 1079 	1119 	1120
f 1081 	1080 	1121
f 1080 	1120 	1121
f 1082 	1081 	1122
f 1081 	1121 	1122
f 1083 	1082 	1123
f 1082 	1122 	1123
f 1084 	1083 	1124
f 1083 	1123 	1124
f 1085 	1084 	1125
f 1084 	1124 	1125
f 1086 	1085 	1126
f 1085 	1125 	1126
f 1087 	1086 	1127
f 1086 	1126 	1127
f 1088 	1087 	1128
f 1087 	1127 	1128
f 1089 	1088 	1129
f 1088 	1128 	1129
f 1090 	1089 	1130
f 1089 	1129 	1130
f 1091 	1090 	1131
f 1090 	1130 	1131
f 1092 	1091 	1132
f 1091 	1131 	1132
f 1093 	1092 	1133
f 1092 	1132 	1133
f 1094 	1093 	1134
f 1093 	1133 	1134
f 1095 	1094 	1135
f 1094 	1134 	1135
f 1096 	1095 	1136
f 1095 	1135 	1136
f 1097 	1096 	1137
f 1096 	1136 	1137
f 1098 	1097 	1138
f 1097 	1137 	1138
f 1099 	1098 	1139
f 1098 	1138 	1139
f 1100 	1099 	1140
f 1099 	1139 	1140
f 1101 	1100 	1141
f 1100 	1140 	1141
f 1102 	1101 	1142
f 1101 	1141 	1142
f 1064 	1102 	1104
f 1102 	1142 	1104
f 1103 	1104 	1143
f 1104 	1144 	1143
f 1105 	1103 	1145
f 1103 	1143 	1145
f 1106 	1105 	1146
f 1105 	1145 	1146
f 1107 	1106 	1147
f 1106 	1146 	1147
f 1108 	1107 	1148
f 1107 	1147 	1148
f 1109 	1108 	1149
f 1108 	1148 	1149
f 1110 	1109 	1150
f 1109 	1149 	1150
f 1111 	1110 	1151
f 1110 	1150 	1151
f 1112 	1111 	1152
f 1111 	1151 	1152
f 1113 	1112 	1153
f 1112 	1152 	1153
f 1114 	1113 	1154
f 1113 	1153 	1154
f 1115 	1114 	1155
f 1114 	1154 	1155
f 1116 	1115 	1156
f 1115 	1155 	1156
f 1117 	1116 	1157
f 1116 	1156 	1157
f 1118 	1117 	1158
f 1117 	1157 	1158
f 1119 	1118 	1159
f 1118 	1158 	1159
f 1120 	1119 	1160
f 1119 	1159 	1160
f 1121 	1120 	1161
f 1120 	1160 	1161
f 1122 	1121 	1162
f 1121 	1161 	1162
f 1123 	1122 	1163
f 1122 	1162 	1163
f 1124 	1123 	1164
f 1123 	1163 	1164
f 1125 	1124 	1165
f 1124 	1164 	1165
f 1126 	1125 	1166
f 1125 	1165 	1166
f 1127 	1126 	1167
f 1126 	1166 	1167
f 1128 	1127 	1168
f 1127 	1167 	1168
f 1129 	1128 	1169
f 1128 	1168 	1169
f 1130 	1129 	1170
f 1129 	1169 	1170
f 1131 	1130 	1171
f 1130 	1170 	1171
f 1132 	1131 	1172
f 1131 	1171 	1172
f 1133 	1132 	1173
f 1132 	1172 	1173
f 1134 	1133 	1174
f 1133 	1173 	1174
f 1135 	1134 	1175
f 1134 	1174 	1175
f 1136 	1135 	1176
f 1135 	1175 	1176
f 1137 	1136 	1177
f 1136 	1176 	1177
f 1138 	1137 	1178
f 1137 	1177 	1178
f 1139 	1138 	1179
f 1138 	1178 	1179
f 1140 	1139 	1180
f 1139 	1179 	1180
f 1141 	1140 	1181
f 1140 	1180 	1181
f 1142 	1141 	1182
f 1141 	1181 	1182
f 1104 	1142 	1144
f 1142 	1182 	1144
f 1143 	1144 	1183
f 1144 	1184 	1183
f 1145 	1143 	1185
f 1143 	1183 	1185
f 1146 	1145 	1186
f 1145 	1185 	1186
f 1147 	1146 	1187
f 1146 	1186 	1187
f 1148 	1147 	1188
f 1147 	1187 	1188
f 1149 	1148 	1189
f 1148 	1188 	1189
f 1150 	1149 	1190
f 1149 	1189 	1190
f 1151 	1150 	1191
f 1150 	1190 	1191
f 1152 	1151 	1192
f 1151 	1191 	1192
f 1153 	1152 	1193
f 1152 	1192 	1193
f 1154 	1153 	1194
f 1153 	1193 	1194
f 1155 	1154 	1195
f 1154 	1194 	1195
f 1156 	1155 	1196
f 1155 	1195 	1196
f 1157 	1156 	1197
f 1156 	1196 	1197
f 1158 	1157 	1198
f 1157 	1197 	1198
f 1159 	1158 	1199
f 1158 	1198 	1199
f 1160 	1159 	1200
f 1159 	1199 	1200
f 1161 	1160 	1201
f 1160 	1200 	1201
f 1162 	1161 	1202
f 1161 	1201 	1202
f 1163 	1162 	1203
f 1162 	1202 	1203
f 1164 	1163 	1204
f 1163 	1203 	1204
f 1165 	1164 	1205
f 1164 	1204 	1205
f 1166 	1165 	1206
f 1165 	1205 	1206
f 1167 	1166 	1207
f 1166 	1206 	1207
f 1168 	1167 	1208
f 1167 	1207 	1208
f 1169 	1168 	1209
f 1168 	1208 	1209
f 1170 	1169 	1210
f 1169 	1209 	1210
f 1171 	1170 	1211
f 1170 	1210 	1211
f 1172 	1171 	1212
f 1171 	1211 	1212
f 1173 	1172 	1213
f 1172 	1212 	1213
f 1174 	1173 	1214
f 1173 	1213 	1214
f 1175 	1174 	1215
f 1174 	1214 	1215
f 1176 	1175 	1216
f 1175 	1215 	1216
f 1177 	1176 	1217
f 1176 	1216 	1217
f 1178 	1177 	1218
f 1177 	1217 	1218
f 1179 	1178 	1219
f 1178 	1218 	1219
f 1180 	1179 	1220
f 1179 	1219 	1220
f 1181 	1180 	1221
f 1180 	1220 	1221
f 1182 	1181 	1222
f 1181 	1221 	1222
f 1144 	1182 	1184
f 1182 	1222 	1184
f 1183 	1184 	1223
f 1184 	1224 	1223
f 1185 	1183 	1225
f 1183 	1223 	1225
f 1186 	1185 	1226
f 1185 	1225 	1226
f 1187 	1186 	1227
f 1186 	1226 	1227
f 1188 	1187 	1228
f 1187 	1227 	1228
f 1189 	1188 	1229
f 1188 	1228 	1229
f 1190 	1189 	1230
f 1189 	1229 	1230
f 1191 	1190 	1231
f 1190 	1230 	1231
f 1192 	1191 	1232
f 1191 	1231 	1232
f 1193 	1192 	1233
f 1192 	1232 	1233
f 1194 	1193 	1234
f 1193 	1233 	1234
f 1195 	1194 	1235
f 1194 	1234 	1235
f 1196 	1195 	1236
f 1195 	1235 	1236
f 1197 	1196 	1237
f 1196 	1236 	1237
f 1198 	1197 	1238
f 1197 	1237 	1238
f 1199 	1198 	1239
f 1198 	1238 	1239
f 1200 	1199 	1240
f 1199 	1239 	1240
f 1201 	1200 	1241
f 1200 	1240 	1241
f 1202 	1201 	1242
f 1201 	1241 	1242
f 1203 	1202 	1243
f 1202 	1242 	1243
f 1204 	1203 	1244
f 1203 	1243 	1244
f 1205 	1204 	1245
f 1204 	1244 	1245
f 1206 	1205 	1246
f 1205 	1245 	1246
f 1207 	1206 	1247
f 1206 	1246 	1247
f 1208 	1207 	1248
f 1207 	1247 	1248
f 1209 	1208 	1249
f 1208 	1248 	1249
f 1210 	1209 	1250
f 1209 	1249 	1250
f 1211 	1210 	1251
f 1210 	1250 	1251
f 1212 	1211 	1252
f 1211 	1251 	1252
f 1213 	1212 	1253
f 1212 	1252 	1253
f 1214 	1213 	1254
f 1213 	1253 	1254
f 1215 	1214 	1255
f 1214 	1254 	1255
f 1216 	1215 	1256
f 1215 	1255 	1256
f 1217 	1216 	1257
f 1216 	1256 	1257
f 1218 	1217 	1258
f 1217 	1257 	1258
f 1219 	1218 	1259
f 1218 	1258 	1259
f 1220 	1219 	1260
f 1219 	1259 	1260
f 1221 	1220 	1261
f 1220 	1260 	1261
f 1222 	1221 	1262
f 1221 	1261 	1262
f 1184 	1222 	1224
f 1222 	1262 	1224
f 1223 	1224 	1263
f 1224 	1264 	1263
f 1225 	1223 	1265
f 1223 	1263 	1265
f 1226 	1225 	1266
f 1225 	1265 	1266
f 1227 	1226 	1267
f 1226 	1266 	1267
f 1228 	1227 	1268
f 1227 	1267 	1268
f 1229 	1228 	1269
f 1228 	1268 	1269
f 1230 	1229 	1270
f 1229 	1269 	1270
f 1231 	1230 	1271
f 1230 	1270 	1271
f 1232 	1231 	1272
f 1231 	1271 	1272
f 1233 	1232 	1273
f 1232 	1272 	1273
f 1234 	1233 	1274
f 1233 	1273 	1274
f 1235 	1234 	1275
f 1234 	1274 	1275
f 1236 	1235 	1276
f 1235 	1275 	1276
f 1237 	1236 	1277
f 1236 	1276 	1277
f 1238 	1237 	1278
f 1237 	1277 	1278
f 1239 	1238 	1279
f 1238 	1278 	1279
f 1240 	1239 	1280
f 1239 	1279 	1280
f 1241 	1240 	1281
f 1240 	1280 	1281
f 1242 	1241 	1282
f 1241 	1281 	1282
f 1243 	1242 	1283
f 1242 	1282 	1283
f 1244 	1243 	1284
f 1243 	1283 	1284
f 1245 	1244 	1285
f 1244 	1284 	1285
f 1246 	1245 	1286
f 1245 	1285 	1286
f 1247 	1246 	1287
f 1246 	1286 	1287
f 1248 	1247 	1288
f 1247 	1287 	1288
f 1249 	1248 	1289
f 1248 	1288 	1289
f 1250 	1249 	1290
f 1249 	1289 	1290
f 1251 	1250 	1291
f 1250 	1290 	1291
f 1252 	1251 	1292
f 1251 	1291 	1292
f 1253 	1252 	1293
f 1252 	1292 	1293
f 1254 	1253 	1294
f 1253 	1293 	1294
f 1255 	1254 	1295
f 1254 	1294 	1295
f 1256 	1255 	1296
f 1255 	1295 	1296
f 1257 	1256 	1297
f 1256 	1296 	1297
f 1258 	1257 	1298
f 1257 	1297 	1298
f 1259 	1258 	1299
f 1258 	1298 	1299
f 1260 	1259 	1300
f 1259 	1299 	1300
f 1261 	1260 	1301
f 1260 	1300 	1301
f 1262 	1261 	1302
f 1261 	1301 	1302
f 1224 	1262 	1264
f 1262 	1302 	1264
f 1263 	1264 	1303
f 1265 	1263 	1303
f 1266 	1265 	1303
f 1267 	1266 	1303
f 1268 	1267 	1303
f 1269 	1268 	1303
f 1270 	1269 	1303
f 1271 	1270 	1303
f 1272 	1271 	1303
f 1273 	1272 	1304
f 1272 	1303 	1304
f 1274 	1273 	1304
f 1275 	1274 	1304
f 1276 	1275 	1304
f 1277 	1276 	1304
f 1278 	1277 	1304
f 1279 	1278 	1304
f 1280 	1279 	1304
f 1281 	1280 	1304
f 1282 	1281 	1304
f 1283 	1282 	1305
f 1282 	1304 	1305
f 1284 	1283 	1305
f 1285 	1284 	1305
f 1286 	1285 	1305
f 1287 	1286 	1305
f 1288 	1287 	1305
f 1289 	1288 	1305
f 1290 	1289 	1305
f 1291 	1290 	1305
f 1292 	1291 	1305
f 1293 	1292 	1306
f 1292 	1305 	1306
f 1294 	1293 	1306
f 1295 	1294 	1306
f 1296 	1295 	1306
f 1297 	1296 	1306
f 1298 	1297 	1306
f 1299 	1298 	1306
f 1300 	1299 	1306
f 1301 	1300 	1306
f 1302 	1301 	1306
f 1264 	1302 	1303
f 1302 	1306 	1303
f 579 	590 	612
f 590 	601 	612
f 1303 	1306 	1304
f 1304 	1306 	1305
# 1452 faces

 #end of obj_2

