# Object Export From Tinkercad Server 2015

mtllib obj.mtl

o obj_0
v -57.805 		2.853 		29.585
v -53 		1.978 		30.017
v -53 		2.25 		29.835
v -53 		2.543 		29.69
v -63.086 		2.853 		29.585
v -53 		1.517 		30.478
v -53 		1.732 		30.232
v -57.869 		3.174 		29.521
v -63.022 		3.174 		29.521
v -53 		1.021 		31.674
v -53 		1 		32
v -53 		1.085 		31.353
v -53 		1.19 		31.043
v -53 		1.335 		30.75
v -64.544 		5.81 		31.043
v -64.853 		5.915 		31.353
v -53 		1.085 		32.647
v -65.174 		5.979 		31.674
v -63 		3.5 		29.5
v -53 		1.021 		32.326
v -54.14 		5.665 		30.75
v -63.022 		3.826 		29.521
v -68 		-16.5 		0
v -68 		-16.5 		20
v -65.5 		1 		21.5
v -68 		0.5 		20
v -67.9781 		3.8307 		21.5
v -68 		23.5 		20
v -68 		23.5 		0
v -68 		3.5 		20
v -68 		4.147 		34.415
v -68 		4.457 		34.31
v -68 		4.75 		34.165
v -68 		5.022 		33.983
v -54.433 		5.81 		31.043
v -68 		5.268 		33.768
v -68 		5.483 		33.522
v -68 		5.665 		33.25
v -68 		5.81 		32.957
v -53.225 		2.25 		29.835
v -68 		1.19 		32.957
v -68 		1.335 		33.25
v -68 		1.517 		33.522
v -68 		1.732 		33.768
v -68 		1.978 		33.983
v -68 		2.25 		34.165
v -68 		2.543 		34.31
v -68 		2.853 		34.415
v -68 		3.174 		34.479
v -68 		3.5 		34.5
v -68 		3.826 		34.479
v -67.9781 		3.1693 		21.5
v -67.915 		2.853 		21.5
v -67.81 		2.543 		21.5
v -68 		5.915 		32.647
v -68 		5.979 		32.326
v -68 		6 		32
v -67.665 		2.25 		21.5
v -65.5 		6 		32
v -68 		1 		32
v -68 		1.021 		32.326
v -68 		1.085 		32.647
v -57.7 		2.543 		29.69
v -57.805 		2.853 		28
v -57.7 		2.543 		28
v -68 		5.979 		31.674
v -68 		5.915 		31.353
v -54.743 		5.915 		31.353
v -53.08 		2.543 		29.69
v -65.5 		1 		32
v -54.743 		5.915 		32.647
v -67.484 		1.978 		21.5
v -67.268 		1.732 		21.5
v -68 		3.826 		29.521
v -67.979 		3.826 		29.521
v -68 		5.81 		31.043
v -68 		5.665 		30.75
v -67.022 		1.517 		21.5
v -66.75 		1.335 		21.5
v -66.457 		1.19 		21.5
v -66.147 		1.085 		21.5
v -53 		2.7792 		29.61
v -57.555 		2.25 		29.835
v -68 		5.483 		30.478
v -57.555 		2.25 		28
v -55.064 		5.979 		31.674
v -68 		5.268 		30.232
v -68 		3.5 		29.5
v -55.064 		5.979 		32.326
v -68 		5.022 		30.017
v -68 		4.75 		29.835
v -68 		4.457 		29.69
v -57.373 		1.978 		30.017
v -57.373 		1.978 		28
v -68 		4.147 		29.585
v -65.827 		5.979 		31.674
v -68 		1.021 		31.674
v -68 		1.085 		31.353
v -65.827 		1.021 		21.5
v -68 		1.19 		31.043
v -68 		1.335 		30.75
v -68 		1.517 		30.478
v -68 		3.174 		29.521
v -68 		2.853 		29.585
v -68 		2.543 		29.69
v -68 		2.25 		29.835
v -68 		1.978 		30.017
v -68 		1.732 		30.232
v -38 		0.5 		20
v -38 		-16.5 		20
v -38 		-16.5 		0
v -42.997 		-11.5028 		20
v -63.002 		-11.5028 		20
v -55.39 		6 		32
v -42.997 		0.5 		20
v -67.979 		3.174 		29.521
v -63.002 		0.5 		20
v -65 		0.5 		20
v -66.147 		5.915 		31.353
v -42.997 		-11.43 		19.022
v -63.002 		-11.43 		19.022
v -42.997 		-11.214 		18.051
v -63.002 		-11.214 		18.051
v -42.997 		-10.856 		17.098
v -63.002 		-10.856 		17.098
v -42.997 		-10.361 		16.174
v -63.002 		-10.361 		16.174
v -42.997 		-9.731 		15.286
v -63.002 		-9.731 		15.286
v -55.716 		5.979 		31.674
v -42.997 		-8.974 		14.444
v -63.002 		-8.974 		14.444
v -42.997 		-8.097 		13.655
v -63.002 		-8.097 		13.655
v -42.997 		-7.108 		12.928
v -63.002 		-7.108 		12.928
v -55.716 		5.979 		32.326
v -42.997 		-6.017 		12.269
v -63.002 		-6.017 		12.269
v -42.997 		-4.835 		11.684
v -53.225 		4.75 		28
v -63.002 		-4.835 		11.684
v -53.08 		4.457 		28
v -52.975 		4.147 		28
v -42.997 		-3.572 		11.179
v -63.002 		-3.572 		11.179
v -63.409 		5.091 		21.5
v -63.215 		4.87 		21.5
v -42.997 		-2.241 		10.759
v -63.002 		-2.241 		10.759
v -66.457 		5.81 		31.043
v -42.997 		-0.855 		10.428
v -63.002 		-0.855 		10.428
v -57.158 		5.268 		28
v -56.912 		5.483 		28
v -56.64 		5.665 		28
v -56.347 		5.81 		28
v -56.037 		5.915 		28
v -55.716 		5.979 		28
v -55.39 		6 		28
v -55.064 		5.979 		28
v -63.051 		4.625 		21.5
v -54.743 		5.915 		28
v -54.433 		5.81 		28
v -54.14 		5.665 		28
v -53.868 		5.483 		28
v -53.622 		5.268 		28
v -53.407 		5.022 		28
v -57.805 		4.147 		28
v -57.7 		4.457 		28
v -62.921 		4.361 		21.5
v -57.555 		4.75 		28
v -57.373 		5.022 		28
v -67.915 		2.853 		29.585
v -52.911 		3.826 		28
v -52.89 		3.5 		28
v -52.911 		3.174 		28
v -52.975 		2.853 		28
v -53.08 		2.543 		28
v -53.225 		2.25 		28
v -62.228 		4.648 		21.5
v -62.402 		5 		21.5
v -62.62 		5.326 		21.5
v -62.879 		5.621 		21.5
v -62.102 		4.276 		21.5
v -55.39 		1 		28
v -55.716 		1.021 		28
v -56.037 		1.085 		28
v -56.347 		1.19 		28
v -56.64 		1.335 		28
v -56.912 		1.517 		28
v -57.158 		1.732 		28
v -55.064 		1.021 		31.674
v -53.407 		1.978 		28
v -53.622 		1.732 		28
v -53.868 		1.517 		28
v -54.14 		1.335 		28
v -54.433 		1.19 		28
v -54.743 		1.085 		28
v -55.064 		1.021 		28
v -56.037 		5.915 		31.353
v -57.869 		3.174 		28
v -57.89 		3.5 		28
v -57.869 		3.826 		28
v -56.037 		5.915 		32.647
v -55.064 		1.021 		32.326
v -38 		23.5 		20
v -38 		23.5 		0
v -53 		5.665 		33.25
v -53 		5.483 		33.522
v -53 		5.268 		33.768
v -53 		5.022 		33.983
v -53 		4.75 		34.165
v -53 		4.457 		34.31
v -53 		4.147 		34.415
v -53 		4.2208 		33
v -53 		3.826 		34.479
v -53 		3.5 		34.5
v -53 		3.174 		34.479
v -53 		2.853 		34.415
v -53 		2.543 		34.31
v -53 		2.25 		34.165
v -53 		1.978 		33.983
v -63.174 		5.88 		21.5
v -53 		1.732 		33.768
v -53 		1.517 		33.522
v -53 		1.335 		33.25
v -63.002 		0.573 		10.19
v -53 		2.7792 		33
v -63.002 		2.029 		10.046
v -54.743 		1.085 		31.353
v -63.002 		3.5 		9.998
v -54.39 		5.7887 		33
v -56.39 		5.7887 		33
v -63.002 		4.971 		10.046
v -63.002 		6.427 		10.19
v -63.002 		7.855 		10.428
v -56.347 		5.81 		31.043
v -63.002 		9.241 		10.759
v -63.002 		10.572 		11.179
v -54.743 		1.085 		32.647
v -65.5 		6 		21.5
v -63.002 		11.835 		11.684
v -63.002 		13.017 		12.269
v -63.002 		14.108 		12.928
v -64.853 		5.915 		21.5
v -65.174 		5.979 		21.5
v -63.002 		15.097 		13.655
v -54.433 		1.19 		31.043
v -63.002 		15.974 		14.444
v -56.64 		5.665 		30.75
v -63.002 		16.731 		15.286
v -63.002 		17.361 		16.174
v -63.875 		5.449 		21.5
v -63.002 		17.856 		17.098
v -67.81 		2.543 		29.69
v -63.002 		18.214 		18.051
v -64.25 		5.665 		21.5
v -64.0726 		5.5463 		21.5
v -63.002 		18.43 		19.022
v -64.544 		5.81 		21.5
v -63.002 		18.5028 		20
v -54.14 		1.335 		30.75
v -42.997 		0.573 		10.19
v -56.39 		1.2113 		33
v -54.39 		1.2113 		33
v -42.997 		2.029 		10.046
v -53.407 		5.022 		30.017
v -66.75 		5.665 		30.75
v -42.997 		3.5 		9.998
v -42.997 		4.971 		10.046
v -42.997 		6.427 		10.19
v -42.997 		7.855 		10.428
v -55.39 		1 		32
v -42.997 		9.241 		10.759
v -42.997 		10.572 		11.179
v -42.997 		11.835 		11.684
v -65.392 		6.474 		21.5
v -42.997 		13.017 		12.269
v -63.63 		5.285 		21.5
v -42.997 		14.108 		12.928
v -42.997 		15.097 		13.655
v -42.997 		15.974 		14.444
v -65 		6.5 		21.5
v -53.622 		5.268 		30.232
v -63.5 		6.098 		21.5
v -63.852 		6.272 		21.5
v -64.224 		6.398 		21.5
v -64.608 		6.474 		21.5
v -42.997 		16.731 		15.286
v -42.997 		17.361 		16.174
v -42.997 		17.856 		17.098
v -42.997 		18.214 		18.051
v -42.997 		18.43 		19.022
v -67.484 		5.022 		21.5
v -42.997 		18.5028 		20
v -53.868 		5.483 		30.478
v -52.975 		4.147 		33
v -55.39 		6 		33
v -55.716 		5.979 		33
v -56.037 		5.915 		33
v -56.347 		5.81 		33
v -54.433 		5.81 		33
v -54.743 		5.915 		33
v -55.064 		5.979 		33
v -67.022 		5.483 		30.478
v -52.89 		3.5 		33
v -52.911 		3.826 		33
v -52.975 		2.853 		33
v -52.911 		3.174 		33
v -55.716 		1.021 		33
v -55.39 		1 		33
v -55.064 		1.021 		33
v -54.743 		1.085 		33
v -56.037 		1.085 		33
v -54.433 		1.19 		33
v -56.347 		1.19 		33
v -56.64 		1.335 		30.75
v -53 		5.81 		32.957
v -67.268 		5.268 		30.232
v -67.268 		5.268 		21.5
v -65.776 		6.398 		21.5
v -66.148 		6.272 		21.5
v -66.5 		6.098 		21.5
v -65.827 		5.979 		21.5
v -56.347 		1.19 		31.043
v -54.433 		5.81 		32.957
v -67.484 		5.022 		30.017
v -56.037 		1.085 		31.353
v -67.665 		2.25 		29.835
v -56.037 		1.085 		32.647
v -67.665 		4.75 		29.835
v -67.81 		4.457 		29.69
v -55.716 		1.021 		31.674
v -56.347 		5.81 		32.957
v -55.716 		1.021 		32.326
v -66.826 		5.88 		21.5
v -66.147 		5.915 		21.5
v -67.915 		4.147 		29.585
v -67.484 		1.978 		30.017
v -53 		1.19 		32.957
v -56.912 		5.483 		30.478
v -65.174 		1.021 		31.674
v -67.121 		5.621 		21.5
v -66.457 		5.81 		21.5
v -66.75 		5.665 		21.5
v -67.38 		5.326 		21.5
v -67.022 		5.483 		21.5
v -67.598 		5 		21.5
v -67.772 		4.648 		21.5
v -67.268 		1.732 		30.232
v -57.158 		5.268 		30.232
v -64.853 		1.085 		31.353
v -53.868 		1.517 		30.478
v -54.433 		1.19 		32.957
v -67.665 		4.75 		21.5
v -67.81 		4.457 		21.5
v -53.622 		1.732 		30.232
v -67.898 		4.276 		21.5
v -67.915 		4.147 		21.5
v -62.827 		4.082 		21.5
v -62.769 		3.794 		21.5
v -62.75 		3.5 		21.5
v -62.769 		3.206 		21.5
v -62.827 		2.918 		21.5
v -62.921 		2.639 		21.5
v -53.407 		1.978 		30.017
v -63.051 		2.375 		21.5
v -62.026 		3.892 		21.5
v -67.022 		1.517 		30.478
v -63.215 		2.13 		21.5
v -56.347 		1.19 		32.957
v -62 		3.5 		21.5
v -62.228 		2.352 		21.5
v -62.102 		2.724 		21.5
v -62.026 		3.108 		21.5
v -64.544 		1.19 		31.043
v -66.75 		1.335 		30.75
v -63.409 		1.909 		21.5
v -57.158 		1.732 		30.232
v -62.879 		1.379 		21.5
v -62.62 		1.674 		21.5
v -62.402 		2 		21.5
v -66.457 		1.19 		31.043
v -56.912 		1.517 		30.478
v -64.25 		1.335 		30.75
v -57.373 		5.022 		30.017
v -53 		6 		32
v -53 		5.979 		32.326
v -53 		5.915 		32.647
v -53 		4.457 		29.69
v -53 		4.75 		29.835
v -53 		5.022 		30.017
v -53 		5.268 		30.232
v -53 		5.483 		30.478
v -53 		5.665 		30.75
v -53 		5.81 		31.043
v -53 		5.915 		31.353
v -53 		5.979 		31.674
v -66.147 		1.085 		31.353
v -65.827 		1.021 		31.674
v -63.174 		1.12 		21.5
v -53 		4.2208 		29.61
v -53.08 		4.457 		29.69
v -57.555 		4.75 		29.835
v -53.225 		4.75 		29.835
v -63.63 		1.715 		21.5
v -63.875 		1.551 		21.5
v -64.0726 		1.4537 		21.5
v -57.869 		3.826 		29.521
v -63.978 		1.517 		30.478
v -57.7 		4.457 		29.69
v -64.25 		1.335 		21.5
v -57.89 		3.5 		29.5
v -57.805 		4.147 		29.585
v -65.392 		0.526 		21.5
v -65 		0.5 		21.5
v -64.608 		0.526 		21.5
v -64.224 		0.602 		21.5
v -63.852 		0.728 		21.5
v -63.5 		0.902 		21.5
v -65.174 		1.021 		21.5
v -64.853 		1.085 		21.5
v -64.544 		1.19 		21.5
v -63.733 		1.732 		30.232
v -67.974 		3.892 		21.5
v -67.974 		3.108 		21.5
v -67.898 		2.724 		21.5
v -67.772 		2.352 		21.5
v -63.517 		1.978 		30.017
v -66.148 		0.728 		21.5
v -65.776 		0.602 		21.5
v -66.5 		0.902 		21.5
v -67.598 		2 		21.5
v -67.38 		1.674 		21.5
v -63.335 		2.25 		29.835
v -67.121 		1.379 		21.5
v -66.826 		1.12 		21.5
v -63.0758 		4.096 		20
v -63.086 		4.147 		20
v -63.191 		4.457 		20
v -63.335 		4.75 		20
v -63.191 		2.543 		29.69
v -63.488 		4.9787 		20
v -63.488 		5.1604 		20
v -63.409 		5.091 		20
v -63.2346 		4.8923 		20
v -63.215 		4.87 		20
v -63.4037 		5.085 		20
v -63.051 		4.625 		20
v -62.921 		4.361 		20
v -63.002 		4.5255 		20
v -63.086 		4.147 		29.585
v -62.102 		4.276 		20
v -62.228 		4.648 		20
v -62.402 		5 		20
v -62.62 		5.326 		20
v -62.879 		5.621 		20
v -63.002 		5.729 		20
v -63.174 		5.88 		20
v -63.488 		6.09 		20
v -63.517 		5.022 		20
v -63.733 		5.268 		20
v -63.191 		4.457 		29.69
v -63.978 		5.483 		20
v -64.0726 		5.5463 		20
v -63.9048 		5.4637 		20
v -63.875 		5.449 		20
v -64.0214 		5.5211 		20
v -63.002 		3.5296 		20
v -63.002 		3.4704 		20
v -63.002 		2.4745 		20
v -65.403 		6.4718 		20
v -65.536 		6.4455 		20
v -63.002 		1.271 		20
v -63.7441 		5.3614 		20
v -63.63 		5.285 		20
v -65.0131 		6.4991 		20
v -65.392 		6.474 		20
v -63.335 		4.75 		29.835
v -63.5736 		5.2355 		20
v -63.5 		6.098 		20
v -63.852 		6.272 		20
v -64.224 		6.398 		20
v -64.608 		6.474 		20
v -65 		6.5 		20
v -67.3917 		5.3086 		20
v -67.584 		5.0209 		20
v -65.776 		6.398 		20
v -63.517 		5.022 		30.017
v -66.148 		6.272 		20
v -66.5 		6.098 		20
v -66.826 		5.88 		20
v -67.121 		5.621 		20
v -67.38 		5.326 		20
v -67.598 		5 		20
v -67.772 		4.648 		20
v -67.898 		4.276 		20
v -67.9336 		4.096 		20
v -63.733 		5.268 		30.232
v -63.4702 		2.048 		20
v -63.335 		2.25 		20
v -63.191 		2.543 		20
v -63.086 		2.853 		20
v -63.022 		3.174 		20
v -63 		3.5 		20
v -63.022 		3.826 		20
v -63.978 		5.483 		30.478
v -62.827 		4.082 		20
v -62.769 		3.794 		20
v -62.75 		3.5 		20
v -62.769 		3.206 		20
v -62.827 		2.918 		20
v -62.921 		2.639 		20
v -63.051 		2.375 		20
v -64.25 		5.665 		30.75
v -63.1232 		2.2671 		20
v -63.215 		2.13 		20
v -62.026 		3.892 		20
v -63.287 		2.048 		20
v -62.228 		2.352 		20
v -62.102 		2.724 		20
v -62.026 		3.108 		20
v -62 		3.5 		20
v -63.488 		2.0213 		20
v -63.409 		1.909 		20
v -63.463 		1.8616 		20
v -63.488 		1.8397 		20
v -63.488 		0.91 		20
v -63.174 		1.12 		20
v -62.879 		1.379 		20
v -62.62 		1.674 		20
v -62.402 		2 		20
v -64.0726 		1.4537 		20
v -63.978 		1.517 		20
v -63.733 		1.732 		20
v -63.517 		1.978 		20
v -63.63 		1.715 		20
v -63.875 		1.551 		20
v -64.608 		0.526 		20
v -64.224 		0.602 		20
v -63.852 		0.728 		20
v -63.5 		0.902 		20
v -65.392 		0.526 		20
v -65.536 		0.5545 		20
v -67.7624 		2.3326 		20
v -67.6217 		2.048 		20
v -67.974 		3.892 		20
v -67.9781 		3.8307 		20
v -67.979 		3.826 		20
v -67.979 		3.174 		20
v -67.9781 		3.1693 		20
v -67.974 		3.108 		20
v -67.898 		2.724 		20
v -67.772 		2.352 		20
v -67.598 		2 		20
v -67.38 		1.674 		20
v -67.121 		1.379 		20
v -66.826 		1.12 		20
v -66.5 		0.902 		20
v -66.148 		0.728 		20
v -65.776 		0.602 		20
# 562 vertices

g group_0_14541540

usemtl color_14541540
s 0

f 4 	229 	3
f 7 	2 	229
f 2 	3 	229
f 23 	24 	26
f 26 	30 	23
f 29 	23 	30
f 30 	28 	29
f 33 	62 	32
f 34 	62 	33
f 55 	84 	39
f 87 	90 	39
f 40 	3 	2
f 40 	69 	3
f 41 	42 	43
f 41 	43 	44
f 41 	44 	45
f 41 	45 	46
f 41 	46 	47
f 41 	47 	48
f 41 	48 	49
f 41 	49 	50
f 51 	62 	50
f 31 	32 	62
f 53 	116 	52
f 36 	102 	34
f 38 	39 	90
f 56 	84 	55
f 57 	84 	56
f 37 	38 	90
f 51 	31 	62
f 41 	50 	62
f 62 	34 	61
f 57 	66 	67
f 76 	57 	67
f 64 	65 	1
f 63 	1 	65
f 507 	439 	22
f 4 	3 	69
f 69 	82 	4
f 242 	59 	18
f 180 	69 	40
f 77 	57 	76
f 163 	68 	35
f 4 	82 	229
f 84 	57 	77
f 87 	39 	84
f 63 	65 	85
f 83 	63 	85
f 92 	95 	37
f 163 	161 	68
f 90 	91 	37
f 75 	88 	74
f 91 	92 	37
f 96 	119 	66
f 88 	103 	37
f 95 	74 	37
f 59 	96 	57
f 66 	57 	96
f 74 	88 	37
f 114 	388 	86
f 107 	108 	37
f 89 	388 	114
f 97 	34 	98
f 98 	34 	100
f 60 	34 	97
f 61 	34 	60
f 100 	34 	101
f 101 	34 	102
f 104 	37 	103
f 105 	106 	37
f 106 	107 	37
f 104 	105 	37
f 108 	102 	37
f 36 	37 	102
f 160 	114 	86
f 325 	96 	242
f 59 	242 	96
f 114 	299 	89
f 109 	115 	112
f 113 	110 	112
f 109 	112 	110
f 104 	103 	116
f 103 	88 	116
f 117 	118 	113
f 118 	26 	113
f 24 	113 	26
f 110 	113 	24
f 269 	306 	77
f 77 	76 	269
f 111 	23 	208
f 93 	83 	94
f 110 	23 	111
f 24 	23 	110
f 119 	151 	67
f 67 	66 	119
f 112 	120 	121
f 112 	121 	113
f 85 	94 	83
f 121 	120 	122
f 121 	122 	123
f 123 	122 	124
f 123 	124 	125
f 125 	124 	126
f 125 	126 	127
f 127 	126 	128
f 127 	128 	129
f 129 	128 	131
f 129 	131 	132
f 133 	134 	132
f 133 	132 	131
f 135 	136 	134
f 135 	134 	133
f 138 	139 	136
f 138 	136 	135
f 325 	119 	96
f 140 	142 	139
f 140 	139 	138
f 175 	176 	180
f 145 	146 	142
f 145 	142 	140
f 149 	150 	146
f 149 	146 	145
f 76 	151 	269
f 152 	153 	150
f 152 	150 	149
f 76 	67 	151
f 148 	184 	147
f 114 	160 	130
f 107 	340 	108
f 178 	309 	82
f 143 	154 	155
f 143 	155 	156
f 143 	156 	157
f 143 	157 	158
f 143 	158 	159
f 143 	159 	160
f 143 	160 	161
f 143 	161 	163
f 143 	163 	164
f 143 	164 	165
f 143 	165 	166
f 143 	166 	167
f 143 	167 	168
f 168 	141 	143
f 152 	264 	153
f 228 	153 	264
f 179 	82 	69
f 106 	105 	256
f 172 	143 	170
f 173 	143 	172
f 154 	143 	173
f 169 	170 	143
f 178 	82 	179
f 105 	104 	174
f 105 	174 	256
f 162 	183 	148
f 104 	116 	174
f 177 	310 	178
f 159 	130 	160
f 177 	178 	176
f 178 	179 	176
f 179 	180 	176
f 180 	194 	144
f 143 	144 	194
f 144 	175 	180
f 176 	310 	177
f 115 	152 	149
f 115 	149 	145
f 115 	145 	140
f 115 	140 	138
f 115 	138 	135
f 115 	135 	133
f 115 	133 	131
f 115 	131 	128
f 115 	128 	126
f 115 	126 	124
f 115 	124 	122
f 115 	122 	120
f 115 	120 	112
f 299 	114 	137
f 299 	137 	300
f 115 	264 	152
f 184 	148 	183
f 182 	183 	162
f 181 	182 	162
f 162 	171 	181
f 361 	185 	171
f 362 	185 	361
f 181 	171 	185
f 10 	11 	193
f 188 	143 	187
f 189 	143 	188
f 190 	143 	189
f 191 	143 	190
f 192 	143 	191
f 94 	143 	192
f 186 	187 	143
f 194 	195 	143
f 195 	196 	143
f 196 	197 	143
f 197 	198 	143
f 198 	199 	143
f 199 	200 	143
f 186 	143 	200
f 193 	231 	10
f 123 	117 	121
f 125 	117 	123
f 127 	117 	125
f 129 	117 	127
f 132 	117 	129
f 134 	117 	132
f 136 	117 	134
f 139 	117 	136
f 142 	117 	139
f 146 	117 	142
f 150 	117 	146
f 153 	117 	150
f 113 	121 	117
f 64 	143 	65
f 85 	65 	143
f 202 	143 	64
f 203 	143 	202
f 204 	143 	203
f 169 	143 	204
f 94 	85 	143
f 17 	241 	20
f 110 	111 	109
f 111 	208 	109
f 207 	109 	208
f 23 	29 	208
f 212 	216 	211
f 213 	216 	212
f 210 	211 	216
f 214 	216 	213
f 215 	216 	214
f 209 	210 	216
f 20 	206 	11
f 29 	28 	208
f 207 	208 	28
f 159 	201 	130
f 216 	215 	217
f 216 	217 	218
f 219 	229 	218
f 220 	229 	219
f 221 	229 	220
f 222 	229 	221
f 223 	229 	222
f 225 	229 	223
f 227 	341 	229
f 216 	218 	229
f 351 	102 	108
f 228 	264 	230
f 12 	10 	231
f 137 	205 	300
f 218 	51 	50
f 209 	233 	234
f 235 	272 	236
f 249 	13 	12
f 231 	249 	12
f 345 	151 	338
f 236 	272 	237
f 249 	263 	13
f 46 	222 	221
f 206 	20 	241
f 240 	277 	243
f 31 	51 	215
f 243 	277 	244
f 158 	238 	201
f 261 	289 	246
f 246 	284 	247
f 14 	13 	263
f 247 	278 	242
f 323 	325 	322
f 278 	322 	242
f 340 	107 	330
f 224 	286 	254
f 294 	260 	257
f 258 	288 	261
f 296 	262 	294
f 260 	294 	262
f 227 	265 	266
f 267 	230 	264
f 306 	320 	84
f 84 	77 	306
f 232 	230 	267
f 232 	267 	270
f 271 	235 	232
f 271 	232 	270
f 106 	256 	330
f 151 	345 	269
f 235 	271 	272
f 273 	237 	272
f 11 	274 	193
f 237 	273 	239
f 275 	239 	273
f 206 	274 	11
f 276 	240 	239
f 276 	239 	275
f 240 	276 	277
f 217 	215 	51
f 279 	244 	277
f 184 	224 	280
f 244 	279 	245
f 281 	245 	279
f 254 	280 	224
f 282 	248 	245
f 282 	245 	281
f 248 	282 	250
f 283 	250 	282
f 218 	49 	219
f 278 	247 	284
f 287 	259 	286
f 289 	261 	288
f 284 	246 	289
f 49 	220 	219
f 395 	285 	297
f 259 	287 	258
f 259 	254 	286
f 290 	250 	283
f 297 	396 	395
f 250 	290 	252
f 147 	184 	280
f 288 	258 	287
f 291 	253 	252
f 291 	252 	290
f 253 	291 	255
f 292 	255 	291
f 223 	222 	45
f 293 	257 	255
f 293 	255 	292
f 45 	225 	223
f 257 	293 	294
f 225 	44 	226
f 43 	42 	226
f 216 	229 	298
f 115 	290 	283
f 115 	283 	282
f 115 	282 	281
f 115 	281 	279
f 115 	279 	277
f 115 	277 	276
f 115 	276 	275
f 115 	275 	273
f 272 	115 	273
f 271 	115 	272
f 270 	115 	271
f 267 	115 	270
f 264 	115 	267
f 301 	303 	300
f 302 	303 	301
f 299 	300 	303
f 299 	303 	304
f 299 	304 	305
f 90 	87 	328
f 293 	115 	294
f 292 	115 	293
f 291 	115 	292
f 290 	115 	291
f 296 	294 	115
f 87 	84 	320
f 166 	297 	285
f 302 	234 	303
f 233 	303 	234
f 308 	298 	307
f 309 	298 	229
f 310 	298 	309
f 307 	298 	310
f 269 	346 	306
f 313 	315 	312
f 313 	314 	315
f 311 	312 	315
f 266 	265 	316
f 314 	316 	265
f 314 	265 	317
f 314 	317 	315
f 328 	332 	90
f 209 	216 	319
f 87 	320 	328
f 297 	166 	165
f 390 	319 	216
f 388 	389 	216
f 21 	297 	165
f 348 	344 	321
f 321 	347 	295
f 327 	233 	319
f 324 	338 	323
f 35 	21 	164
f 165 	164 	21
f 242 	322 	325
f 209 	319 	233
f 164 	163 	35
f 86 	68 	161
f 161 	160 	86
f 333 	92 	91
f 101 	102 	370
f 233 	327 	303
f 201 	159 	158
f 320 	321 	328
f 71 	304 	327
f 327 	304 	303
f 333 	339 	92
f 304 	71 	305
f 89 	305 	71
f 106 	330 	107
f 332 	333 	91
f 91 	90 	332
f 89 	299 	305
f 54 	58 	256
f 328 	295 	332
f 335 	39 	234
f 339 	75 	95
f 157 	238 	158
f 300 	205 	301
f 95 	92 	339
f 337 	345 	324
f 325 	323 	338
f 335 	301 	205
f 302 	301 	335
f 100 	384 	98
f 334 	329 	187
f 335 	234 	302
f 331 	336 	311
f 331 	311 	315
f 357 	339 	333
f 370 	102 	351
f 74 	95 	75
f 17 	229 	341
f 20 	229 	17
f 360 	75 	339
f 187 	186 	334
f 157 	251 	238
f 58 	72 	330
f 311 	336 	312
f 274 	312 	336
f 355 	17 	341
f 226 	227 	229
f 225 	226 	229
f 229 	82 	309
f 310 	309 	178
f 176 	307 	310
f 344 	346 	337
f 338 	324 	345
f 307 	176 	308
f 175 	308 	176
f 345 	337 	346
f 200 	231 	193
f 349 	295 	347
f 347 	321 	344
f 346 	344 	348
f 251 	156 	342
f 350 	356 	349
f 313 	312 	206
f 274 	206 	312
f 70 	25 	343
f 263 	354 	14
f 6 	14 	354
f 422 	343 	25
f 227 	266 	341
f 108 	340 	351
f 358 	7 	6
f 354 	358 	6
f 197 	263 	198
f 206 	241 	313
f 314 	313 	241
f 351 	340 	73
f 249 	198 	263
f 355 	341 	266
f 154 	352 	155
f 17 	355 	241
f 342 	155 	352
f 295 	349 	356
f 197 	354 	263
f 241 	355 	314
f 350 	357 	356
f 316 	314 	355
f 211 	36 	34
f 360 	357 	359
f 350 	359 	357
f 2 	7 	367
f 359 	426 	360
f 355 	266 	316
f 32 	31 	214
f 365 	366 	375
f 364 	373 	363
f 374 	375 	366
f 363 	373 	362
f 100 	101 	378
f 7 	358 	367
f 343 	422 	353
f 185 	362 	369
f 369 	362 	373
f 372 	265 	41
f 268 	406 	168
f 73 	78 	351
f 368 	374 	366
f 285 	268 	167
f 168 	167 	268
f 2 	367 	40
f 41 	62 	372
f 365 	375 	364
f 376 	364 	375
f 373 	364 	376
f 372 	317 	265
f 167 	166 	285
f 423 	353 	422
f 40 	367 	194
f 180 	40 	194
f 100 	378 	384
f 101 	370 	378
f 317 	372 	315
f 331 	315 	372
f 274 	186 	193
f 371 	382 	368
f 379 	381 	371
f 374 	368 	383
f 382 	371 	381
f 251 	157 	156
f 78 	79 	370
f 155 	342 	156
f 423 	377 	353
f 70 	60 	401
f 401 	97 	400
f 42 	41 	265
f 94 	192 	93
f 98 	384 	400
f 191 	385 	380
f 390 	216 	389
f 391 	392 	216
f 392 	393 	216
f 393 	394 	216
f 394 	395 	216
f 395 	396 	216
f 396 	397 	216
f 397 	398 	216
f 398 	399 	216
f 388 	216 	399
f 384 	378 	80
f 318 	385 	190
f 191 	190 	385
f 326 	318 	189
f 190 	189 	318
f 98 	400 	97
f 189 	188 	326
f 329 	326 	188
f 329 	188 	187
f 80 	81 	384
f 69 	180 	179
f 225 	45 	44
f 144 	298 	175
f 308 	175 	298
f 200 	193 	186
f 403 	391 	216
f 199 	231 	200
f 404 	391 	403
f 231 	199 	249
f 198 	249 	199
f 391 	404 	392
f 406 	392 	404
f 392 	406 	393
f 406 	268 	393
f 173 	387 	154
f 285 	394 	268
f 393 	268 	394
f 354 	197 	196
f 394 	285 	395
f 354 	196 	358
f 195 	358 	196
f 352 	154 	387
f 97 	401 	60
f 358 	195 	367
f 194 	367 	195
f 56 	137 	59
f 57 	56 	59
f 298 	144 	403
f 216 	298 	403
f 144 	143 	403
f 404 	403 	143
f 405 	412 	480
f 380 	93 	192
f 480 	387 	405
f 383 	368 	382
f 380 	192 	191
f 172 	405 	173
f 404 	143 	141
f 406 	404 	141
f 408 	402 	407
f 379 	407 	381
f 173 	405 	387
f 274 	334 	186
f 170 	412 	172
f 409 	421 	408
f 381 	407 	402
f 141 	168 	406
f 405 	172 	412
f 204 	203 	414
f 386 	413 	411
f 204 	414 	410
f 418 	423 	417
f 419 	424 	418
f 420 	413 	419
f 402 	408 	421
f 421 	409 	420
f 423 	422 	417
f 412 	170 	415
f 25 	416 	422
f 169 	415 	170
f 413 	420 	409
f 416 	417 	422
f 410 	169 	204
f 424 	419 	413
f 423 	418 	424
f 415 	169 	410
f 70 	401 	25
f 12 	13 	229
f 13 	14 	229
f 10 	12 	229
f 14 	6 	229
f 6 	7 	229
f 11 	10 	229
f 20 	11 	229
f 396 	21 	397
f 429 	434 	58
f 54 	429 	58
f 68 	398 	35
f 397 	35 	398
f 398 	68 	399
f 86 	399 	68
f 27 	360 	426
f 428 	53 	427
f 52 	427 	53
f 86 	388 	399
f 428 	429 	54
f 428 	54 	53
f 71 	390 	389
f 71 	389 	89
f 319 	390 	327
f 71 	327 	390
f 211 	37 	36
f 21 	396 	297
f 35 	397 	21
f 414 	203 	202
f 214 	33 	32
f 8 	414 	202
f 416 	25 	432
f 435 	72 	434
f 343 	334 	70
f 437 	73 	435
f 72 	58 	434
f 89 	389 	388
f 329 	353 	326
f 72 	435 	73
f 437 	438 	79
f 431 	81 	433
f 377 	386 	326
f 318 	326 	386
f 220 	49 	48
f 73 	437 	78
f 433 	80 	438
f 220 	48 	221
f 47 	221 	48
f 78 	437 	79
f 47 	46 	221
f 61 	70 	336
f 79 	438 	80
f 432 	99 	431
f 411 	385 	318
f 80 	433 	81
f 385 	411 	380
f 425 	430 	380
f 93 	380 	430
f 81 	431 	99
f 430 	83 	93
f 432 	25 	99
f 525 	436 	537
f 1 	8 	64
f 202 	64 	8
f 430 	537 	436
f 147 	445 	446
f 148 	447 	448
f 148 	147 	447
f 147 	446 	449
f 449 	447 	147
f 148 	448 	450
f 148 	450 	162
f 171 	452 	451
f 60 	70 	61
f 162 	450 	452
f 171 	162 	452
f 436 	502 	443
f 1 	63 	5
f 171 	451 	509
f 171 	509 	361
f 246 	247 	16
f 454 	455 	181
f 454 	181 	185
f 504 	5 	503
f 18 	247 	242
f 455 	456 	182
f 455 	182 	181
f 456 	457 	183
f 456 	183 	182
f 458 	184 	183
f 458 	183 	457
f 443 	503 	5
f 460 	224 	459
f 224 	184 	459
f 458 	459 	184
f 5 	9 	1
f 338 	119 	325
f 460 	461 	224
f 453 	22 	440
f 119 	338 	151
f 5 	504 	9
f 346 	269 	345
f 465 	466 	259
f 306 	348 	320
f 254 	467 	468
f 295 	328 	321
f 259 	469 	254
f 467 	254 	469
f 469 	259 	466
f 332 	356 	333
f 322 	278 	474
f 473 	474 	278
f 232 	235 	452
f 459 	452 	235
f 235 	236 	459
f 236 	237 	459
f 237 	239 	459
f 239 	240 	459
f 240 	243 	459
f 243 	244 	459
f 244 	245 	459
f 245 	248 	459
f 248 	250 	459
f 250 	252 	459
f 452 	470 	232
f 470 	471 	232
f 471 	472 	232
f 230 	232 	472
f 472 	475 	230
f 228 	230 	475
f 475 	117 	228
f 153 	228 	117
f 280 	476 	477
f 453 	440 	441
f 257 	260 	459
f 255 	257 	459
f 253 	255 	459
f 262 	459 	260
f 252 	253 	459
f 476 	280 	254
f 476 	254 	468
f 441 	464 	453
f 478 	479 	278
f 478 	278 	284
f 479 	473 	278
f 207 	296 	109
f 481 	445 	280
f 147 	280 	445
f 443 	502 	503
f 481 	280 	477
f 461 	482 	286
f 461 	286 	224
f 482 	483 	287
f 482 	287 	286
f 483 	484 	288
f 483 	288 	287
f 471 	19 	505
f 484 	485 	289
f 484 	289 	288
f 115 	109 	296
f 507 	22 	19
f 262 	296 	207
f 485 	486 	284
f 485 	284 	289
f 486 	478 	284
f 480 	464 	442
f 349 	347 	488
f 441 	442 	464
f 474 	489 	322
f 474 	262 	489
f 473 	262 	474
f 478 	262 	479
f 486 	262 	478
f 485 	262 	486
f 483 	262 	484
f 28 	491 	262
f 483 	482 	262
f 28 	262 	207
f 489 	491 	323
f 489 	323 	322
f 491 	492 	324
f 491 	324 	323
f 337 	324 	493
f 492 	493 	324
f 450 	441 	452
f 448 	442 	450
f 447 	442 	448
f 439 	452 	440
f 377 	424 	386
f 344 	337 	494
f 493 	494 	337
f 449 	444 	447
f 440 	452 	441
f 347 	344 	495
f 494 	495 	344
f 446 	462 	449
f 441 	450 	442
f 411 	535 	425
f 487 	488 	347
f 495 	487 	347
f 442 	447 	444
f 488 	496 	349
f 537 	430 	536
f 350 	349 	497
f 496 	497 	349
f 459 	458 	452
f 442 	444 	480
f 490 	480 	462
f 359 	350 	498
f 497 	498 	350
f 498 	499 	359
f 401 	99 	25
f 459 	262 	460
f 9 	504 	505
f 59 	114 	130
f 9 	505 	19
f 507 	19 	470
f 506 	470 	19
f 506 	19 	471
f 462 	463 	490
f 455 	454 	451
f 509 	451 	454
f 510 	509 	454
f 451 	452 	455
f 457 	456 	452
f 481 	462 	445
f 463 	500 	490
f 445 	462 	446
f 477 	463 	481
f 476 	463 	477
f 444 	449 	462
f 468 	463 	476
f 467 	463 	468
f 462 	481 	463
f 377 	423 	424
f 469 	465 	467
f 463 	467 	465
f 361 	509 	510
f 361 	510 	362
f 413 	386 	424
f 465 	469 	466
f 362 	510 	511
f 362 	511 	363
f 363 	511 	512
f 363 	512 	364
f 364 	512 	513
f 364 	513 	365
f 536 	425 	535
f 479 	262 	473
f 365 	513 	514
f 365 	514 	366
f 460 	262 	461
f 461 	262 	482
f 463 	465 	500
f 484 	262 	485
f 368 	366 	472
f 515 	368 	472
f 514 	472 	366
f 185 	369 	454
f 518 	371 	517
f 368 	517 	371
f 16 	130 	201
f 368 	515 	517
f 489 	262 	491
f 75 	550 	88
f 492 	28 	493
f 519 	454 	369
f 30 	551 	88
f 488 	487 	28
f 493 	28 	494
f 508 	259 	258
f 371 	518 	520
f 494 	28 	495
f 116 	53 	174
f 495 	28 	487
f 53 	54 	174
f 256 	174 	54
f 488 	28 	496
f 491 	28 	492
f 521 	522 	375
f 521 	375 	374
f 516 	508 	258
f 496 	28 	497
f 522 	523 	376
f 522 	376 	375
f 330 	256 	58
f 497 	28 	498
f 523 	524 	373
f 523 	373 	376
f 498 	28 	499
f 340 	330 	72
f 369 	373 	524
f 369 	524 	519
f 517 	502 	518
f 18 	59 	130
f 72 	73 	340
f 520 	526 	379
f 520 	379 	371
f 15 	516 	261
f 370 	351 	78
f 379 	527 	528
f 378 	370 	79
f 501 	520 	502
f 472 	503 	515
f 379 	526 	527
f 80 	378 	79
f 529 	530 	402
f 502 	517 	503
f 400 	384 	81
f 503 	472 	504
f 402 	475 	381
f 530 	475 	402
f 531 	381 	475
f 258 	261 	516
f 532 	382 	381
f 532 	381 	531
f 81 	99 	400
f 401 	400 	99
f 472 	471 	505
f 472 	505 	504
f 201 	238 	16
f 533 	383 	382
f 533 	382 	532
f 16 	18 	130
f 374 	383 	533
f 374 	533 	521
f 470 	452 	507
f 409 	534 	535
f 261 	246 	15
f 440 	22 	439
f 507 	452 	439
f 470 	506 	471
f 462 	480 	444
f 528 	538 	407
f 528 	407 	379
f 458 	457 	452
f 407 	538 	539
f 407 	539 	408
f 456 	455 	452
f 408 	539 	534
f 408 	534 	409
f 508 	500 	465
f 540 	418 	417
f 540 	417 	118
f 541 	419 	418
f 541 	418 	540
f 465 	259 	508
f 542 	420 	419
f 542 	419 	541
f 454 	519 	510
f 543 	421 	420
f 543 	420 	542
f 511 	510 	524
f 519 	524 	510
f 543 	529 	421
f 402 	421 	529
f 16 	15 	246
f 544 	416 	545
f 18 	16 	247
f 118 	417 	416
f 118 	416 	544
f 514 	513 	522
f 523 	522 	512
f 524 	523 	512
f 512 	511 	524
f 547 	429 	546
f 499 	548 	426
f 499 	426 	359
f 513 	512 	522
f 27 	549 	550
f 27 	550 	75
f 30 	88 	550
f 548 	549 	27
f 548 	27 	426
f 116 	88 	551
f 521 	533 	472
f 472 	514 	521
f 522 	521 	514
f 551 	552 	52
f 551 	52 	116
f 52 	552 	553
f 52 	553 	427
f 518 	502 	520
f 520 	501 	526
f 553 	554 	428
f 553 	428 	427
f 306 	346 	348
f 429 	428 	555
f 554 	555 	428
f 527 	526 	537
f 515 	503 	517
f 321 	320 	348
f 555 	546 	429
f 525 	526 	501
f 537 	526 	525
f 547 	556 	434
f 547 	434 	429
f 556 	557 	435
f 556 	435 	434
f 117 	530 	529
f 117 	529 	543
f 543 	542 	117
f 332 	295 	356
f 437 	435 	558
f 557 	558 	435
f 117 	475 	530
f 357 	333 	356
f 559 	438 	437
f 559 	437 	558
f 360 	339 	357
f 438 	559 	433
f 560 	433 	559
f 531 	472 	532
f 533 	532 	472
f 475 	472 	531
f 561 	431 	433
f 561 	433 	560
f 75 	360 	27
f 562 	432 	431
f 562 	431 	561
f 534 	539 	535
f 539 	538 	536
f 528 	537 	538
f 562 	545 	432
f 416 	432 	545
f 527 	537 	528
f 535 	539 	536
f 536 	538 	537
f 541 	540 	117
f 118 	117 	540
f 413 	409 	411
f 535 	411 	409
f 541 	117 	542
f 425 	536 	430
f 502 	436 	501
f 525 	501 	436
f 26 	118 	544
f 544 	545 	26
f 499 	28 	548
f 28 	30 	550
f 28 	550 	548
f 549 	548 	550
f 30 	26 	551
f 552 	551 	553
f 26 	553 	551
f 546 	26 	547
f 546 	555 	26
f 553 	26 	554
f 554 	26 	555
f 547 	26 	556
f 556 	26 	557
f 557 	26 	558
f 558 	26 	559
f 559 	26 	560
f 560 	26 	561
f 561 	26 	562
f 562 	26 	545
f 55 	39 	335
f 209 	234 	38
f 38 	234 	39
f 209 	38 	210
f 37 	210 	38
f 37 	211 	210
f 34 	212 	211
f 213 	212 	33
f 34 	33 	212
f 33 	214 	213
f 31 	215 	214
f 51 	218 	217
f 218 	50 	49
f 222 	46 	45
f 43 	226 	44
f 227 	226 	42
f 227 	42 	265
f 331 	372 	62
f 464 	412 	453
f 415 	453 	412
f 412 	464 	480
f 387 	480 	490
f 387 	490 	352
f 500 	352 	490
f 500 	508 	352
f 342 	352 	508
f 508 	516 	342
f 251 	342 	516
f 251 	516 	238
f 15 	238 	516
f 15 	16 	238
f 114 	59 	137
f 55 	205 	56
f 137 	56 	205
f 205 	55 	335
f 336 	331 	61
f 62 	61 	331
f 274 	336 	70
f 411 	318 	386
f 425 	380 	411
f 83 	430 	436
f 83 	436 	63
f 443 	63 	436
f 443 	5 	63
f 9 	8 	1
f 9 	19 	8
f 414 	8 	19
f 22 	410 	19
f 414 	19 	410
f 22 	415 	410
f 453 	415 	22
f 274 	70 	334
f 329 	334 	353
f 343 	353 	334
f 377 	326 	353
# 1124 faces

 #end of obj_0

o obj_1
v -60 		16 		22
v -60 		16 		20
v -60 		24 		20
v -60 		24 		22
v -68 		24 		22
v -68 		24 		20
v -68 		16 		20
v -68 		16 		22
v -67.003 		23.003 		22
v -60.998 		23.003 		22
v -60.998 		16.998 		22
v -67.003 		16.998 		22
v -67.003 		23.003 		20.3992
v -67.003 		16.998 		20.3992
v -60.998 		23.003 		20.3992
v -60.998 		16.998 		20.3992
# 16 vertices

g group_1_15277357

usemtl color_15277357
s 0

f 563 	564 	565
f 563 	565 	566
f 567 	568 	569
f 567 	569 	570
f 566 	567 	572
f 566 	572 	573
f 566 	573 	563
f 574 	570 	573
f 563 	573 	570
f 568 	565 	569
f 564 	569 	565
f 571 	567 	574
f 571 	572 	567
f 570 	574 	567
f 564 	570 	569
f 563 	570 	564
f 566 	568 	567
f 566 	565 	568
f 575 	571 	574
f 575 	574 	576
f 571 	575 	577
f 571 	577 	572
f 578 	573 	572
f 578 	572 	577
f 573 	578 	576
f 573 	576 	574
f 576 	578 	577
f 576 	577 	575
# 28 faces

 #end of obj_1

o obj_2
v -66.2536 		19.3415 		22.125
v -66.3832 		19.3415 		22.1179
v -66.3812 		19.3275 		22.1179
v -66.3754 		19.3138 		22.1179
v -66.3658 		19.301 		22.1179
v -66.3529 		19.2894 		22.1179
v -66.3369 		19.2795 		22.1179
v -66.3184 		19.2714 		22.1179
v -66.2979 		19.2654 		22.1179
v -66.2761 		19.2617 		22.1179
v -66.2536 		19.2605 		22.1179
v -62.7464 		19.3415 		22.125
v -62.7464 		19.2605 		22.1179
v -62.7239 		19.2617 		22.1179
v -62.7021 		19.2654 		22.1179
v -62.6816 		19.2714 		22.1179
v -62.6631 		19.2795 		22.1179
v -62.6471 		19.2894 		22.1179
v -62.6342 		19.301 		22.1179
v -62.6246 		19.3138 		22.1179
v -62.6188 		19.3275 		22.1179
v -62.6168 		19.3415 		22.1179
v -62.7464 		21.5335 		22.125
v -62.6168 		21.5335 		22.1179
v -62.6188 		21.5475 		22.1179
v -62.6246 		21.5612 		22.1179
v -62.6342 		21.574 		22.1179
v -62.6471 		21.5856 		22.1179
v -62.6631 		21.5955 		22.1179
v -62.6816 		21.6036 		22.1179
v -62.7021 		21.6096 		22.1179
v -62.7239 		21.6133 		22.1179
v -62.7464 		21.6145 		22.1179
v -66.2536 		21.5335 		22.125
v -66.2536 		21.6145 		22.1179
v -66.2761 		21.6133 		22.1179
v -66.2979 		21.6096 		22.1179
v -66.3184 		21.6036 		22.1179
v -66.3369 		21.5955 		22.1179
v -66.3529 		21.5856 		22.1179
v -66.3658 		21.574 		22.1179
v -66.3754 		21.5612 		22.1179
v -66.3812 		21.5475 		22.1179
v -66.3832 		21.5335 		22.1179
v -66.505 		19.3138 		22.0969
v -66.5089 		19.3415 		22.0969
v -66.4935 		19.2869 		22.0969
v -66.4747 		19.2617 		22.0969
v -66.4491 		19.239 		22.0969
v -66.4177 		19.2193 		22.0969
v -66.3812 		19.2033 		22.0969
v -66.3409 		19.1916 		22.0969
v -66.2979 		19.1844 		22.0969
v -66.2536 		19.182 		22.0969
v -62.7464 		19.182 		22.0969
v -62.7021 		19.1844 		22.0969
v -62.6591 		19.1916 		22.0969
v -62.6188 		19.2033 		22.0969
v -62.5823 		19.2193 		22.0969
v -62.5509 		19.239 		22.0969
v -62.5253 		19.2617 		22.0969
v -62.5065 		19.2869 		22.0969
v -62.495 		19.3138 		22.0969
v -62.4911 		19.3415 		22.0969
v -62.4911 		21.5335 		22.0969
v -62.495 		21.5612 		22.0969
v -62.5065 		21.5881 		22.0969
v -62.5253 		21.6133 		22.0969
v -62.5509 		21.636 		22.0969
v -62.5823 		21.6557 		22.0969
v -62.6188 		21.6717 		22.0969
v -62.6591 		21.6834 		22.0969
v -62.7021 		21.6906 		22.0969
v -62.7464 		21.693 		22.0969
v -66.2536 		21.693 		22.0969
v -66.2979 		21.6906 		22.0969
v -66.3409 		21.6834 		22.0969
v -66.3812 		21.6717 		22.0969
v -66.4177 		21.6557 		22.0969
v -66.4491 		21.636 		22.0969
v -66.4747 		21.6133 		22.0969
v -66.4935 		21.5881 		22.0969
v -66.505 		21.5612 		22.0969
v -66.5089 		21.5335 		22.0969
v -66.6211 		19.301 		22.0625
v -66.6268 		19.3415 		22.0625
v -66.6043 		19.2617 		22.0625
v -66.5768 		19.2249 		22.0625
v -66.5395 		19.1916 		22.0625
v -66.4935 		19.1628 		22.0625
v -66.4402 		19.1395 		22.0625
v -66.3812 		19.1223 		22.0625
v -66.3184 		19.1118 		22.0625
v -66.2536 		19.1083 		22.0625
v -62.7464 		19.1083 		22.0625
v -62.6816 		19.1118 		22.0625
v -62.6188 		19.1223 		22.0625
v -62.5598 		19.1395 		22.0625
v -62.5065 		19.1628 		22.0625
v -62.4605 		19.1916 		22.0625
v -62.4232 		19.2249 		22.0625
v -62.3957 		19.2617 		22.0625
v -62.3789 		19.301 		22.0625
v -62.3732 		19.3415 		22.0625
v -62.3732 		21.5335 		22.0625
v -62.3789 		21.574 		22.0625
v -62.3957 		21.6133 		22.0625
v -62.4232 		21.6501 		22.0625
v -62.4605 		21.6834 		22.0625
v -62.5065 		21.7122 		22.0625
v -62.5598 		21.7355 		22.0625
v -62.6188 		21.7527 		22.0625
v -62.6816 		21.7632 		22.0625
v -62.7464 		21.7667 		22.0625
v -66.2536 		21.7667 		22.0625
v -66.3184 		21.7632 		22.0625
v -66.3812 		21.7527 		22.0625
v -66.4402 		21.7355 		22.0625
v -66.4935 		21.7122 		22.0625
v -66.5395 		21.6834 		22.0625
v -66.5768 		21.6501 		22.0625
v -66.6043 		21.6133 		22.0625
v -66.6211 		21.574 		22.0625
v -66.6268 		21.5335 		22.0625
v -66.7261 		19.2894 		22.0159
v -66.7334 		19.3415 		22.0159
v -66.7044 		19.239 		22.0159
v -66.6691 		19.1916 		22.0159
v -66.6211 		19.1488 		22.0159
v -66.562 		19.1118 		22.0159
v -66.4935 		19.0818 		22.0159
v -66.4177 		19.0597 		22.0159
v -66.3369 		19.0462 		22.0159
v -66.2536 		19.0416 		22.0159
v -62.7464 		19.0416 		22.0159
v -62.6631 		19.0462 		22.0159
v -62.5823 		19.0597 		22.0159
v -62.5065 		19.0818 		22.0159
v -62.438 		19.1118 		22.0159
v -62.3789 		19.1488 		22.0159
v -62.3309 		19.1916 		22.0159
v -62.2956 		19.239 		22.0159
v -62.2739 		19.2894 		22.0159
v -62.2666 		19.3415 		22.0159
v -62.2666 		21.5335 		22.0159
v -62.2739 		21.5856 		22.0159
v -62.2956 		21.636 		22.0159
v -62.3309 		21.6834 		22.0159
v -62.3789 		21.7262 		22.0159
v -62.438 		21.7632 		22.0159
v -62.5065 		21.7932 		22.0159
v -62.5823 		21.8153 		22.0159
v -62.6631 		21.8288 		22.0159
v -62.7464 		21.8334 		22.0159
v -66.2536 		21.8334 		22.0159
v -66.3369 		21.8288 		22.0159
v -66.4177 		21.8153 		22.0159
v -66.4935 		21.7932 		22.0159
v -66.562 		21.7632 		22.0159
v -66.6211 		21.7262 		22.0159
v -66.6691 		21.6834 		22.0159
v -66.7044 		21.636 		22.0159
v -66.7261 		21.5856 		22.0159
v -66.7334 		21.5335 		22.0159
v -66.8167 		19.2795 		21.9584
v -66.8254 		19.3415 		21.9584
v -66.7909 		19.2193 		21.9584
v -66.7488 		19.1628 		21.9584
v -66.6916 		19.1118 		21.9584
v -66.6211 		19.0678 		21.9584
v -66.5395 		19.032 		21.9584
v -66.4491 		19.0057 		21.9584
v -66.3529 		18.9896 		21.9584
v -66.2536 		18.9841 		21.9584
v -62.7464 		18.9841 		21.9584
v -62.6471 		18.9896 		21.9584
v -62.5509 		19.0057 		21.9584
v -62.4605 		19.032 		21.9584
v -62.3789 		19.0678 		21.9584
v -62.3084 		19.1118 		21.9584
v -62.2512 		19.1628 		21.9584
v -62.2091 		19.2193 		21.9584
v -62.1833 		19.2795 		21.9584
v -62.1746 		19.3415 		21.9584
v -62.1746 		21.5335 		21.9584
v -62.1833 		21.5955 		21.9584
v -62.2091 		21.6557 		21.9584
v -62.2512 		21.7122 		21.9584
v -62.3084 		21.7632 		21.9584
v -62.3789 		21.8072 		21.9584
v -62.4605 		21.843 		21.9584
v -62.5509 		21.8693 		21.9584
v -62.6471 		21.8854 		21.9584
v -62.7464 		21.8909 		21.9584
v -66.2536 		21.8909 		21.9584
v -66.3529 		21.8854 		21.9584
v -66.4491 		21.8693 		21.9584
v -66.5395 		21.843 		21.9584
v -66.6211 		21.8072 		21.9584
v -66.6916 		21.7632 		21.9584
v -66.7488 		21.7122 		21.9584
v -66.7909 		21.6557 		21.9584
v -66.8167 		21.5955 		21.9584
v -66.8254 		21.5335 		21.9584
v -66.8902 		19.2714 		21.8917
v -66.9 		19.3415 		21.8917
v -66.861 		19.2033 		21.8917
v -66.8134 		19.1395 		21.8917
v -66.7488 		19.0818 		21.8917
v -66.6691 		19.032 		21.8917
v -66.5768 		18.9916 		21.8917
v -66.4747 		18.9619 		21.8917
v -66.3658 		18.9436 		21.8917
v -66.2536 		18.9375 		21.8917
v -62.7464 		18.9375 		21.8917
v -62.6342 		18.9436 		21.8917
v -62.5253 		18.9619 		21.8917
v -62.4232 		18.9916 		21.8917
v -62.3309 		19.032 		21.8917
v -62.2512 		19.0818 		21.8917
v -62.1866 		19.1395 		21.8917
v -62.139 		19.2033 		21.8917
v -62.1098 		19.2714 		21.8917
v -62.1 		19.3415 		21.8917
v -62.1 		21.5335 		21.8917
v -62.1098 		21.6036 		21.8917
v -62.139 		21.6717 		21.8917
v -62.1866 		21.7355 		21.8917
v -62.2512 		21.7932 		21.8917
v -62.3309 		21.843 		21.8917
v -62.4232 		21.8834 		21.8917
v -62.5253 		21.9131 		21.8917
v -62.6342 		21.9314 		21.8917
v -62.7464 		21.9375 		21.8917
v -66.2536 		21.9375 		21.8917
v -66.3658 		21.9314 		21.8917
v -66.4747 		21.9131 		21.8917
v -66.5768 		21.8834 		21.8917
v -66.6691 		21.843 		21.8917
v -66.7488 		21.7932 		21.8917
v -66.8134 		21.7355 		21.8917
v -66.861 		21.6717 		21.8917
v -66.8902 		21.6036 		21.8917
v -66.9 		21.5335 		21.8917
v -66.9443 		19.2654 		21.818
v -66.955 		19.3415 		21.818
v -66.9127 		19.1916 		21.818
v -66.861 		19.1223 		21.818
v -66.7909 		19.0597 		21.818
v -66.7044 		19.0057 		21.818
v -66.6043 		18.9619 		21.818
v -66.4935 		18.9296 		21.818
v -66.3754 		18.9098 		21.818
v -66.2536 		18.9031 		21.818
v -62.7464 		18.9031 		21.818
v -62.6246 		18.9098 		21.818
v -62.5065 		18.9296 		21.818
v -62.3957 		18.9619 		21.818
v -62.2956 		19.0057 		21.818
v -62.2091 		19.0597 		21.818
v -62.139 		19.1223 		21.818
v -62.0873 		19.1916 		21.818
v -62.0557 		19.2654 		21.818
v -62.045 		19.3415 		21.818
v -62.045 		21.5335 		21.818
v -62.0557 		21.6096 		21.818
v -62.0873 		21.6834 		21.818
v -62.139 		21.7527 		21.818
v -62.2091 		21.8153 		21.818
v -62.2956 		21.8693 		21.818
v -62.3957 		21.9131 		21.818
v -62.5065 		21.9454 		21.818
v -62.6246 		21.9652 		21.818
v -62.7464 		21.9719 		21.818
v -66.2536 		21.9719 		21.818
v -66.3754 		21.9652 		21.818
v -66.4935 		21.9454 		21.818
v -66.6043 		21.9131 		21.818
v -66.7044 		21.8693 		21.818
v -66.7909 		21.8153 		21.818
v -66.861 		21.7527 		21.818
v -66.9127 		21.6834 		21.818
v -66.9443 		21.6096 		21.818
v -66.955 		21.5335 		21.818
v -66.9775 		19.2617 		21.7395
v -66.9887 		19.3415 		21.7395
v -66.9443 		19.1844 		21.7395
v -66.8902 		19.1118 		21.7395
v -66.8167 		19.0462 		21.7395
v -66.7261 		18.9896 		21.7395
v -66.6211 		18.9436 		21.7395
v -66.505 		18.9098 		21.7395
v -66.3812 		18.8891 		21.7395
v -66.2536 		18.8821 		21.7395
v -62.7464 		18.8821 		21.7395
v -62.6188 		18.8891 		21.7395
v -62.495 		18.9098 		21.7395
v -62.3789 		18.9436 		21.7395
v -62.2739 		18.9896 		21.7395
v -62.1833 		19.0462 		21.7395
v -62.1098 		19.1118 		21.7395
v -62.0557 		19.1844 		21.7395
v -62.0225 		19.2617 		21.7395
v -62.0113 		19.3415 		21.7395
v -62.0113 		21.5335 		21.7395
v -62.0225 		21.6133 		21.7395
v -62.0557 		21.6906 		21.7395
v -62.1098 		21.7632 		21.7395
v -62.1833 		21.8288 		21.7395
v -62.2739 		21.8854 		21.7395
v -62.3789 		21.9314 		21.7395
v -62.495 		21.9652 		21.7395
v -62.6188 		21.9859 		21.7395
v -62.7464 		21.9929 		21.7395
v -66.2536 		21.9929 		21.7395
v -66.3812 		21.9859 		21.7395
v -66.505 		21.9652 		21.7395
v -66.6211 		21.9314 		21.7395
v -66.7261 		21.8854 		21.7395
v -66.8167 		21.8288 		21.7395
v -66.8902 		21.7632 		21.7395
v -66.9443 		21.6906 		21.7395
v -66.9775 		21.6133 		21.7395
v -66.9887 		21.5335 		21.7395
v -66.9887 		19.2605 		21.6585
v -67 		19.3415 		21.6585
v -66.955 		19.182 		21.6585
v -66.9 		19.1083 		21.6585
v -66.8254 		19.0416 		21.6585
v -66.7334 		18.9841 		21.6585
v -66.6268 		18.9375 		21.6585
v -66.5089 		18.9031 		21.6585
v -66.3832 		18.8821 		21.6585
v -66.2536 		18.875 		21.6585
v -62.7464 		18.875 		21.6585
v -62.6168 		18.8821 		21.6585
v -62.4911 		18.9031 		21.6585
v -62.3732 		18.9375 		21.6585
v -62.2666 		18.9841 		21.6585
v -62.1746 		19.0416 		21.6585
v -62.1 		19.1083 		21.6585
v -62.045 		19.182 		21.6585
v -62.0113 		19.2605 		21.6585
v -62 		19.3415 		21.6585
v -62 		21.5335 		21.6585
v -62.0113 		21.6145 		21.6585
v -62.045 		21.693 		21.6585
v -62.1 		21.7667 		21.6585
v -62.1746 		21.8334 		21.6585
v -62.2666 		21.8909 		21.6585
v -62.3732 		21.9375 		21.6585
v -62.4911 		21.9719 		21.6585
v -62.6168 		21.9929 		21.6585
v -62.7464 		22 		21.6585
v -66.2536 		22 		21.6585
v -66.3832 		21.9929 		21.6585
v -66.5089 		21.9719 		21.6585
v -66.6268 		21.9375 		21.6585
v -66.7334 		21.8909 		21.6585
v -66.8254 		21.8334 		21.6585
v -66.9 		21.7667 		21.6585
v -66.955 		21.693 		21.6585
v -66.9887 		21.6145 		21.6585
v -67 		21.5335 		21.6585
v -66.9887 		19.2605 		19.4665
v -67 		19.3415 		19.4665
v -66.955 		19.182 		19.4665
v -66.9 		19.1083 		19.4665
v -66.8254 		19.0416 		19.4665
v -66.7334 		18.9841 		19.4665
v -66.6268 		18.9375 		19.4665
v -66.5089 		18.9031 		19.4665
v -66.3832 		18.8821 		19.4665
v -66.2536 		18.875 		19.4665
v -62.7464 		18.875 		19.4665
v -62.6168 		18.8821 		19.4665
v -62.4911 		18.9031 		19.4665
v -62.3732 		18.9375 		19.4665
v -62.2666 		18.9841 		19.4665
v -62.1746 		19.0416 		19.4665
v -62.1 		19.1083 		19.4665
v -62.045 		19.182 		19.4665
v -62.0113 		19.2605 		19.4665
v -62 		19.3415 		19.4665
v -62 		21.5335 		19.4665
v -62.0113 		21.6145 		19.4665
v -62.045 		21.693 		19.4665
v -62.1 		21.7667 		19.4665
v -62.1746 		21.8334 		19.4665
v -62.2666 		21.8909 		19.4665
v -62.3732 		21.9375 		19.4665
v -62.4911 		21.9719 		19.4665
v -62.6168 		21.9929 		19.4665
v -62.7464 		22 		19.4665
v -66.2536 		22 		19.4665
v -66.3832 		21.9929 		19.4665
v -66.5089 		21.9719 		19.4665
v -66.6268 		21.9375 		19.4665
v -66.7334 		21.8909 		19.4665
v -66.8254 		21.8334 		19.4665
v -66.9 		21.7667 		19.4665
v -66.955 		21.693 		19.4665
v -66.9887 		21.6145 		19.4665
v -67 		21.5335 		19.4665
v -66.9775 		19.2617 		19.3855
v -66.9887 		19.3415 		19.3855
v -66.9443 		19.1844 		19.3855
v -66.8902 		19.1118 		19.3855
v -66.8167 		19.0462 		19.3855
v -66.7261 		18.9896 		19.3855
v -66.6211 		18.9436 		19.3855
v -66.505 		18.9098 		19.3855
v -66.3812 		18.8891 		19.3855
v -66.2536 		18.8821 		19.3855
v -62.7464 		18.8821 		19.3855
v -62.6188 		18.8891 		19.3855
v -62.495 		18.9098 		19.3855
v -62.3789 		18.9436 		19.3855
v -62.2739 		18.9896 		19.3855
v -62.1833 		19.0462 		19.3855
v -62.1098 		19.1118 		19.3855
v -62.0557 		19.1844 		19.3855
v -62.0225 		19.2617 		19.3855
v -62.0113 		19.3415 		19.3855
v -62.0113 		21.5335 		19.3855
v -62.0225 		21.6133 		19.3855
v -62.0557 		21.6906 		19.3855
v -62.1098 		21.7632 		19.3855
v -62.1833 		21.8288 		19.3855
v -62.2739 		21.8854 		19.3855
v -62.3789 		21.9314 		19.3855
v -62.495 		21.9652 		19.3855
v -62.6188 		21.9859 		19.3855
v -62.7464 		21.9929 		19.3855
v -66.2536 		21.9929 		19.3855
v -66.3812 		21.9859 		19.3855
v -66.505 		21.9652 		19.3855
v -66.6211 		21.9314 		19.3855
v -66.7261 		21.8854 		19.3855
v -66.8167 		21.8288 		19.3855
v -66.8902 		21.7632 		19.3855
v -66.9443 		21.6906 		19.3855
v -66.9775 		21.6133 		19.3855
v -66.9887 		21.5335 		19.3855
v -66.9443 		19.2654 		19.307
v -66.955 		19.3415 		19.307
v -66.9127 		19.1916 		19.307
v -66.861 		19.1223 		19.307
v -66.7909 		19.0597 		19.307
v -66.7044 		19.0057 		19.307
v -66.6043 		18.9619 		19.307
v -66.4935 		18.9296 		19.307
v -66.3754 		18.9098 		19.307
v -66.2536 		18.9031 		19.307
v -62.7464 		18.9031 		19.307
v -62.6246 		18.9098 		19.307
v -62.5065 		18.9296 		19.307
v -62.3957 		18.9619 		19.307
v -62.2956 		19.0057 		19.307
v -62.2091 		19.0597 		19.307
v -62.139 		19.1223 		19.307
v -62.0873 		19.1916 		19.307
v -62.0557 		19.2654 		19.307
v -62.045 		19.3415 		19.307
v -62.045 		21.5335 		19.307
v -62.0557 		21.6096 		19.307
v -62.0873 		21.6834 		19.307
v -62.139 		21.7527 		19.307
v -62.2091 		21.8153 		19.307
v -62.2956 		21.8693 		19.307
v -62.3957 		21.9131 		19.307
v -62.5065 		21.9454 		19.307
v -62.6246 		21.9652 		19.307
v -62.7464 		21.9719 		19.307
v -66.2536 		21.9719 		19.307
v -66.3754 		21.9652 		19.307
v -66.4935 		21.9454 		19.307
v -66.6043 		21.9131 		19.307
v -66.7044 		21.8693 		19.307
v -66.7909 		21.8153 		19.307
v -66.861 		21.7527 		19.307
v -66.9127 		21.6834 		19.307
v -66.9443 		21.6096 		19.307
v -66.955 		21.5335 		19.307
v -66.8902 		19.2714 		19.2333
v -66.9 		19.3415 		19.2333
v -66.861 		19.2033 		19.2333
v -66.8134 		19.1395 		19.2333
v -66.7488 		19.0818 		19.2333
v -66.6691 		19.032 		19.2333
v -66.5768 		18.9916 		19.2333
v -66.4747 		18.9619 		19.2333
v -66.3658 		18.9436 		19.2333
v -66.2536 		18.9375 		19.2333
v -62.7464 		18.9375 		19.2333
v -62.6342 		18.9436 		19.2333
v -62.5253 		18.9619 		19.2333
v -62.4232 		18.9916 		19.2333
v -62.3309 		19.032 		19.2333
v -62.2512 		19.0818 		19.2333
v -62.1866 		19.1395 		19.2333
v -62.139 		19.2033 		19.2333
v -62.1098 		19.2714 		19.2333
v -62.1 		19.3415 		19.2333
v -62.1 		21.5335 		19.2333
v -62.1098 		21.6036 		19.2333
v -62.139 		21.6717 		19.2333
v -62.1866 		21.7355 		19.2333
v -62.2512 		21.7932 		19.2333
v -62.3309 		21.843 		19.2333
v -62.4232 		21.8834 		19.2333
v -62.5253 		21.9131 		19.2333
v -62.6342 		21.9314 		19.2333
v -62.7464 		21.9375 		19.2333
v -66.2536 		21.9375 		19.2333
v -66.3658 		21.9314 		19.2333
v -66.4747 		21.9131 		19.2333
v -66.5768 		21.8834 		19.2333
v -66.6691 		21.843 		19.2333
v -66.7488 		21.7932 		19.2333
v -66.8134 		21.7355 		19.2333
v -66.861 		21.6717 		19.2333
v -66.8902 		21.6036 		19.2333
v -66.9 		21.5335 		19.2333
v -66.8167 		19.2795 		19.1666
v -66.8254 		19.3415 		19.1666
v -66.7909 		19.2193 		19.1666
v -66.7488 		19.1628 		19.1666
v -66.6916 		19.1118 		19.1666
v -66.6211 		19.0678 		19.1666
v -66.5395 		19.032 		19.1666
v -66.4491 		19.0057 		19.1666
v -66.3529 		18.9896 		19.1666
v -66.2536 		18.9841 		19.1666
v -62.7464 		18.9841 		19.1666
v -62.6471 		18.9896 		19.1666
v -62.5509 		19.0057 		19.1666
v -62.4605 		19.032 		19.1666
v -62.3789 		19.0678 		19.1666
v -62.3084 		19.1118 		19.1666
v -62.2512 		19.1628 		19.1666
v -62.2091 		19.2193 		19.1666
v -62.1833 		19.2795 		19.1666
v -62.1746 		19.3415 		19.1666
v -62.1746 		21.5335 		19.1666
v -62.1833 		21.5955 		19.1666
v -62.2091 		21.6557 		19.1666
v -62.2512 		21.7122 		19.1666
v -62.3084 		21.7632 		19.1666
v -62.3789 		21.8072 		19.1666
v -62.4605 		21.843 		19.1666
v -62.5509 		21.8693 		19.1666
v -62.6471 		21.8854 		19.1666
v -62.7464 		21.8909 		19.1666
v -66.2536 		21.8909 		19.1666
v -66.3529 		21.8854 		19.1666
v -66.4491 		21.8693 		19.1666
v -66.5395 		21.843 		19.1666
v -66.6211 		21.8072 		19.1666
v -66.6916 		21.7632 		19.1666
v -66.7488 		21.7122 		19.1666
v -66.7909 		21.6557 		19.1666
v -66.8167 		21.5955 		19.1666
v -66.8254 		21.5335 		19.1666
v -66.7261 		19.2894 		19.1091
v -66.7334 		19.3415 		19.1091
v -66.7044 		19.239 		19.1091
v -66.6691 		19.1916 		19.1091
v -66.6211 		19.1488 		19.1091
v -66.562 		19.1118 		19.1091
v -66.4935 		19.0818 		19.1091
v -66.4177 		19.0597 		19.1091
v -66.3369 		19.0462 		19.1091
v -66.2536 		19.0416 		19.1091
v -62.7464 		19.0416 		19.1091
v -62.6631 		19.0462 		19.1091
v -62.5823 		19.0597 		19.1091
v -62.5065 		19.0818 		19.1091
v -62.438 		19.1118 		19.1091
v -62.3789 		19.1488 		19.1091
v -62.3309 		19.1916 		19.1091
v -62.2956 		19.239 		19.1091
v -62.2739 		19.2894 		19.1091
v -62.2666 		19.3415 		19.1091
v -62.2666 		21.5335 		19.1091
v -62.2739 		21.5856 		19.1091
v -62.2956 		21.636 		19.1091
v -62.3309 		21.6834 		19.1091
v -62.3789 		21.7262 		19.1091
v -62.438 		21.7632 		19.1091
v -62.5065 		21.7932 		19.1091
v -62.5823 		21.8153 		19.1091
v -62.6631 		21.8288 		19.1091
v -62.7464 		21.8334 		19.1091
v -66.2536 		21.8334 		19.1091
v -66.3369 		21.8288 		19.1091
v -66.4177 		21.8153 		19.1091
v -66.4935 		21.7932 		19.1091
v -66.562 		21.7632 		19.1091
v -66.6211 		21.7262 		19.1091
v -66.6691 		21.6834 		19.1091
v -66.7044 		21.636 		19.1091
v -66.7261 		21.5856 		19.1091
v -66.7334 		21.5335 		19.1091
v -66.6211 		19.301 		19.0625
v -66.6268 		19.3415 		19.0625
v -66.6043 		19.2617 		19.0625
v -66.5768 		19.2249 		19.0625
v -66.5395 		19.1916 		19.0625
v -66.4935 		19.1628 		19.0625
v -66.4402 		19.1395 		19.0625
v -66.3812 		19.1223 		19.0625
v -66.3184 		19.1118 		19.0625
v -66.2536 		19.1083 		19.0625
v -62.7464 		19.1083 		19.0625
v -62.6816 		19.1118 		19.0625
v -62.6188 		19.1223 		19.0625
v -62.5598 		19.1395 		19.0625
v -62.5065 		19.1628 		19.0625
v -62.4605 		19.1916 		19.0625
v -62.4232 		19.2249 		19.0625
v -62.3957 		19.2617 		19.0625
v -62.3789 		19.301 		19.0625
v -62.3732 		19.3415 		19.0625
v -62.3732 		21.5335 		19.0625
v -62.3789 		21.574 		19.0625
v -62.3957 		21.6133 		19.0625
v -62.4232 		21.6501 		19.0625
v -62.4605 		21.6834 		19.0625
v -62.5065 		21.7122 		19.0625
v -62.5598 		21.7355 		19.0625
v -62.6188 		21.7527 		19.0625
v -62.6816 		21.7632 		19.0625
v -62.7464 		21.7667 		19.0625
v -66.2536 		21.7667 		19.0625
v -66.3184 		21.7632 		19.0625
v -66.3812 		21.7527 		19.0625
v -66.4402 		21.7355 		19.0625
v -66.4935 		21.7122 		19.0625
v -66.5395 		21.6834 		19.0625
v -66.5768 		21.6501 		19.0625
v -66.6043 		21.6133 		19.0625
v -66.6211 		21.574 		19.0625
v -66.6268 		21.5335 		19.0625
v -66.505 		19.3138 		19.0281
v -66.5089 		19.3415 		19.0281
v -66.4935 		19.2869 		19.0281
v -66.4747 		19.2617 		19.0281
v -66.4491 		19.239 		19.0281
v -66.4177 		19.2193 		19.0281
v -66.3812 		19.2033 		19.0281
v -66.3409 		19.1916 		19.0281
v -66.2979 		19.1844 		19.0281
v -66.2536 		19.182 		19.0281
v -62.7464 		19.182 		19.0281
v -62.7021 		19.1844 		19.0281
v -62.6591 		19.1916 		19.0281
v -62.6188 		19.2033 		19.0281
v -62.5823 		19.2193 		19.0281
v -62.5509 		19.239 		19.0281
v -62.5253 		19.2617 		19.0281
v -62.5065 		19.2869 		19.0281
v -62.495 		19.3138 		19.0281
v -62.4911 		19.3415 		19.0281
v -62.4911 		21.5335 		19.0281
v -62.495 		21.5612 		19.0281
v -62.5065 		21.5881 		19.0281
v -62.5253 		21.6133 		19.0281
v -62.5509 		21.636 		19.0281
v -62.5823 		21.6557 		19.0281
v -62.6188 		21.6717 		19.0281
v -62.6591 		21.6834 		19.0281
v -62.7021 		21.6906 		19.0281
v -62.7464 		21.693 		19.0281
v -66.2536 		21.693 		19.0281
v -66.2979 		21.6906 		19.0281
v -66.3409 		21.6834 		19.0281
v -66.3812 		21.6717 		19.0281
v -66.4177 		21.6557 		19.0281
v -66.4491 		21.636 		19.0281
v -66.4747 		21.6133 		19.0281
v -66.4935 		21.5881 		19.0281
v -66.505 		21.5612 		19.0281
v -66.5089 		21.5335 		19.0281
v -66.3812 		19.3275 		19.0071
v -66.3832 		19.3415 		19.0071
v -66.3754 		19.3138 		19.0071
v -66.3658 		19.301 		19.0071
v -66.3529 		19.2894 		19.0071
v -66.3369 		19.2795 		19.0071
v -66.3184 		19.2714 		19.0071
v -66.2979 		19.2654 		19.0071
v -66.2761 		19.2617 		19.0071
v -66.2536 		19.2605 		19.0071
v -62.7464 		19.2605 		19.0071
v -62.7239 		19.2617 		19.0071
v -62.7021 		19.2654 		19.0071
v -62.6816 		19.2714 		19.0071
v -62.6631 		19.2795 		19.0071
v -62.6471 		19.2894 		19.0071
v -62.6342 		19.301 		19.0071
v -62.6246 		19.3138 		19.0071
v -62.6188 		19.3275 		19.0071
v -62.6168 		19.3415 		19.0071
v -62.6168 		21.5335 		19.0071
v -62.6188 		21.5475 		19.0071
v -62.6246 		21.5612 		19.0071
v -62.6342 		21.574 		19.0071
v -62.6471 		21.5856 		19.0071
v -62.6631 		21.5955 		19.0071
v -62.6816 		21.6036 		19.0071
v -62.7021 		21.6096 		19.0071
v -62.7239 		21.6133 		19.0071
v -62.7464 		21.6145 		19.0071
v -66.2536 		21.6145 		19.0071
v -66.2761 		21.6133 		19.0071
v -66.2979 		21.6096 		19.0071
v -66.3184 		21.6036 		19.0071
v -66.3369 		21.5955 		19.0071
v -66.3529 		21.5856 		19.0071
v -66.3658 		21.574 		19.0071
v -66.3754 		21.5612 		19.0071
v -66.3812 		21.5475 		19.0071
v -66.3832 		21.5335 		19.0071
v -66.2536 		19.3415 		19
v -62.7464 		19.3415 		19
v -62.7464 		21.5335 		19
v -66.2536 		21.5335 		19
# 728 vertices

g group_2_16448250

usemtl color_16448250
s 0

f 579 	580 	581
f 579 	581 	582
f 579 	582 	583
f 579 	583 	584
f 579 	584 	585
f 579 	585 	586
f 579 	586 	587
f 579 	587 	588
f 579 	588 	589
f 590 	579 	591
f 579 	589 	591
f 590 	591 	592
f 590 	592 	593
f 590 	593 	594
f 590 	594 	595
f 590 	595 	596
f 590 	596 	597
f 590 	597 	598
f 590 	598 	599
f 590 	599 	600
f 601 	590 	602
f 590 	600 	602
f 601 	602 	603
f 601 	603 	604
f 601 	604 	605
f 601 	605 	606
f 601 	606 	607
f 601 	607 	608
f 601 	608 	609
f 601 	609 	610
f 601 	610 	611
f 612 	601 	613
f 601 	611 	613
f 612 	613 	614
f 612 	614 	615
f 612 	615 	616
f 612 	616 	617
f 612 	617 	618
f 612 	618 	619
f 612 	619 	620
f 612 	620 	621
f 612 	621 	622
f 579 	612 	580
f 612 	622 	580
f 581 	580 	623
f 580 	624 	623
f 582 	581 	625
f 581 	623 	625
f 583 	582 	626
f 582 	625 	626
f 584 	583 	627
f 583 	626 	627
f 585 	584 	628
f 584 	627 	628
f 586 	585 	629
f 585 	628 	629
f 587 	586 	630
f 586 	629 	630
f 588 	587 	631
f 587 	630 	631
f 589 	588 	632
f 588 	631 	632
f 591 	589 	633
f 589 	632 	633
f 592 	591 	634
f 591 	633 	634
f 593 	592 	635
f 592 	634 	635
f 594 	593 	636
f 593 	635 	636
f 595 	594 	637
f 594 	636 	637
f 596 	595 	638
f 595 	637 	638
f 597 	596 	639
f 596 	638 	639
f 598 	597 	640
f 597 	639 	640
f 599 	598 	641
f 598 	640 	641
f 600 	599 	642
f 599 	641 	642
f 602 	600 	643
f 600 	642 	643
f 603 	602 	644
f 602 	643 	644
f 604 	603 	645
f 603 	644 	645
f 605 	604 	646
f 604 	645 	646
f 606 	605 	647
f 605 	646 	647
f 607 	606 	648
f 606 	647 	648
f 608 	607 	649
f 607 	648 	649
f 609 	608 	650
f 608 	649 	650
f 610 	609 	651
f 609 	650 	651
f 611 	610 	652
f 610 	651 	652
f 613 	611 	653
f 611 	652 	653
f 614 	613 	654
f 613 	653 	654
f 615 	614 	655
f 614 	654 	655
f 616 	615 	656
f 615 	655 	656
f 617 	616 	657
f 616 	656 	657
f 618 	617 	658
f 617 	657 	658
f 619 	618 	659
f 618 	658 	659
f 620 	619 	660
f 619 	659 	660
f 621 	620 	661
f 620 	660 	661
f 622 	621 	662
f 621 	661 	662
f 580 	622 	624
f 622 	662 	624
f 623 	624 	663
f 624 	664 	663
f 625 	623 	665
f 623 	663 	665
f 626 	625 	666
f 625 	665 	666
f 627 	626 	667
f 626 	666 	667
f 628 	627 	668
f 627 	667 	668
f 629 	628 	669
f 628 	668 	669
f 630 	629 	670
f 629 	669 	670
f 631 	630 	671
f 630 	670 	671
f 632 	631 	672
f 631 	671 	672
f 633 	632 	673
f 632 	672 	673
f 634 	633 	674
f 633 	673 	674
f 635 	634 	675
f 634 	674 	675
f 636 	635 	676
f 635 	675 	676
f 637 	636 	677
f 636 	676 	677
f 638 	637 	678
f 637 	677 	678
f 639 	638 	679
f 638 	678 	679
f 640 	639 	680
f 639 	679 	680
f 641 	640 	681
f 640 	680 	681
f 642 	641 	682
f 641 	681 	682
f 643 	642 	683
f 642 	682 	683
f 644 	643 	684
f 643 	683 	684
f 645 	644 	685
f 644 	684 	685
f 646 	645 	686
f 645 	685 	686
f 647 	646 	687
f 646 	686 	687
f 648 	647 	688
f 647 	687 	688
f 649 	648 	689
f 648 	688 	689
f 650 	649 	690
f 649 	689 	690
f 651 	650 	691
f 650 	690 	691
f 652 	651 	692
f 651 	691 	692
f 653 	652 	693
f 652 	692 	693
f 654 	653 	694
f 653 	693 	694
f 655 	654 	695
f 654 	694 	695
f 656 	655 	696
f 655 	695 	696
f 657 	656 	697
f 656 	696 	697
f 658 	657 	698
f 657 	697 	698
f 659 	658 	699
f 658 	698 	699
f 660 	659 	700
f 659 	699 	700
f 661 	660 	701
f 660 	700 	701
f 662 	661 	702
f 661 	701 	702
f 624 	662 	664
f 662 	702 	664
f 663 	664 	703
f 664 	704 	703
f 665 	663 	705
f 663 	703 	705
f 666 	665 	706
f 665 	705 	706
f 667 	666 	707
f 666 	706 	707
f 668 	667 	708
f 667 	707 	708
f 669 	668 	709
f 668 	708 	709
f 670 	669 	710
f 669 	709 	710
f 671 	670 	711
f 670 	710 	711
f 672 	671 	712
f 671 	711 	712
f 673 	672 	713
f 672 	712 	713
f 674 	673 	714
f 673 	713 	714
f 675 	674 	715
f 674 	714 	715
f 676 	675 	716
f 675 	715 	716
f 677 	676 	717
f 676 	716 	717
f 678 	677 	718
f 677 	717 	718
f 679 	678 	719
f 678 	718 	719
f 680 	679 	720
f 679 	719 	720
f 681 	680 	721
f 680 	720 	721
f 682 	681 	722
f 681 	721 	722
f 683 	682 	723
f 682 	722 	723
f 684 	683 	724
f 683 	723 	724
f 685 	684 	725
f 684 	724 	725
f 686 	685 	726
f 685 	725 	726
f 687 	686 	727
f 686 	726 	727
f 688 	687 	728
f 687 	727 	728
f 689 	688 	729
f 688 	728 	729
f 690 	689 	730
f 689 	729 	730
f 691 	690 	731
f 690 	730 	731
f 692 	691 	732
f 691 	731 	732
f 693 	692 	733
f 692 	732 	733
f 694 	693 	734
f 693 	733 	734
f 695 	694 	735
f 694 	734 	735
f 696 	695 	736
f 695 	735 	736
f 697 	696 	737
f 696 	736 	737
f 698 	697 	738
f 697 	737 	738
f 699 	698 	739
f 698 	738 	739
f 700 	699 	740
f 699 	739 	740
f 701 	700 	741
f 700 	740 	741
f 702 	701 	742
f 701 	741 	742
f 664 	702 	704
f 702 	742 	704
f 703 	704 	743
f 704 	744 	743
f 705 	703 	745
f 703 	743 	745
f 706 	705 	746
f 705 	745 	746
f 707 	706 	747
f 706 	746 	747
f 708 	707 	748
f 707 	747 	748
f 709 	708 	749
f 708 	748 	749
f 710 	709 	750
f 709 	749 	750
f 711 	710 	751
f 710 	750 	751
f 712 	711 	752
f 711 	751 	752
f 713 	712 	753
f 712 	752 	753
f 714 	713 	754
f 713 	753 	754
f 715 	714 	755
f 714 	754 	755
f 716 	715 	756
f 715 	755 	756
f 717 	716 	757
f 716 	756 	757
f 718 	717 	758
f 717 	757 	758
f 719 	718 	759
f 718 	758 	759
f 720 	719 	760
f 719 	759 	760
f 721 	720 	761
f 720 	760 	761
f 722 	721 	762
f 721 	761 	762
f 723 	722 	763
f 722 	762 	763
f 724 	723 	764
f 723 	763 	764
f 725 	724 	765
f 724 	764 	765
f 726 	725 	766
f 725 	765 	766
f 727 	726 	767
f 726 	766 	767
f 728 	727 	768
f 727 	767 	768
f 729 	728 	769
f 728 	768 	769
f 730 	729 	770
f 729 	769 	770
f 731 	730 	771
f 730 	770 	771
f 732 	731 	772
f 731 	771 	772
f 733 	732 	773
f 732 	772 	773
f 734 	733 	774
f 733 	773 	774
f 735 	734 	775
f 734 	774 	775
f 736 	735 	776
f 735 	775 	776
f 737 	736 	777
f 736 	776 	777
f 738 	737 	778
f 737 	777 	778
f 739 	738 	779
f 738 	778 	779
f 740 	739 	780
f 739 	779 	780
f 741 	740 	781
f 740 	780 	781
f 742 	741 	782
f 741 	781 	782
f 704 	742 	744
f 742 	782 	744
f 743 	744 	783
f 744 	784 	783
f 745 	743 	785
f 743 	783 	785
f 746 	745 	786
f 745 	785 	786
f 747 	746 	787
f 746 	786 	787
f 748 	747 	788
f 747 	787 	788
f 749 	748 	789
f 748 	788 	789
f 750 	749 	790
f 749 	789 	790
f 751 	750 	791
f 750 	790 	791
f 752 	751 	792
f 751 	791 	792
f 753 	752 	793
f 752 	792 	793
f 754 	753 	794
f 753 	793 	794
f 755 	754 	795
f 754 	794 	795
f 756 	755 	796
f 755 	795 	796
f 757 	756 	797
f 756 	796 	797
f 758 	757 	798
f 757 	797 	798
f 759 	758 	799
f 758 	798 	799
f 760 	759 	800
f 759 	799 	800
f 761 	760 	801
f 760 	800 	801
f 762 	761 	802
f 761 	801 	802
f 763 	762 	803
f 762 	802 	803
f 764 	763 	804
f 763 	803 	804
f 765 	764 	805
f 764 	804 	805
f 766 	765 	806
f 765 	805 	806
f 767 	766 	807
f 766 	806 	807
f 768 	767 	808
f 767 	807 	808
f 769 	768 	809
f 768 	808 	809
f 770 	769 	810
f 769 	809 	810
f 771 	770 	811
f 770 	810 	811
f 772 	771 	812
f 771 	811 	812
f 773 	772 	813
f 772 	812 	813
f 774 	773 	814
f 773 	813 	814
f 775 	774 	815
f 774 	814 	815
f 776 	775 	816
f 775 	815 	816
f 777 	776 	817
f 776 	816 	817
f 778 	777 	818
f 777 	817 	818
f 779 	778 	819
f 778 	818 	819
f 780 	779 	820
f 779 	819 	820
f 781 	780 	821
f 780 	820 	821
f 782 	781 	822
f 781 	821 	822
f 744 	782 	784
f 782 	822 	784
f 783 	784 	823
f 784 	824 	823
f 785 	783 	825
f 783 	823 	825
f 786 	785 	826
f 785 	825 	826
f 787 	786 	827
f 786 	826 	827
f 788 	787 	828
f 787 	827 	828
f 789 	788 	829
f 788 	828 	829
f 790 	789 	830
f 789 	829 	830
f 791 	790 	831
f 790 	830 	831
f 792 	791 	832
f 791 	831 	832
f 793 	792 	833
f 792 	832 	833
f 794 	793 	834
f 793 	833 	834
f 795 	794 	835
f 794 	834 	835
f 796 	795 	836
f 795 	835 	836
f 797 	796 	837
f 796 	836 	837
f 798 	797 	838
f 797 	837 	838
f 799 	798 	839
f 798 	838 	839
f 800 	799 	840
f 799 	839 	840
f 801 	800 	841
f 800 	840 	841
f 802 	801 	842
f 801 	841 	842
f 803 	802 	843
f 802 	842 	843
f 804 	803 	844
f 803 	843 	844
f 805 	804 	845
f 804 	844 	845
f 806 	805 	846
f 805 	845 	846
f 807 	806 	847
f 806 	846 	847
f 808 	807 	848
f 807 	847 	848
f 809 	808 	849
f 808 	848 	849
f 810 	809 	850
f 809 	849 	850
f 811 	810 	851
f 810 	850 	851
f 812 	811 	852
f 811 	851 	852
f 813 	812 	853
f 812 	852 	853
f 814 	813 	854
f 813 	853 	854
f 815 	814 	855
f 814 	854 	855
f 816 	815 	856
f 815 	855 	856
f 817 	816 	857
f 816 	856 	857
f 818 	817 	858
f 817 	857 	858
f 819 	818 	859
f 818 	858 	859
f 820 	819 	860
f 819 	859 	860
f 821 	820 	861
f 820 	860 	861
f 822 	821 	862
f 821 	861 	862
f 784 	822 	824
f 822 	862 	824
f 823 	824 	863
f 824 	864 	863
f 825 	823 	865
f 823 	863 	865
f 826 	825 	866
f 825 	865 	866
f 827 	826 	867
f 826 	866 	867
f 828 	827 	868
f 827 	867 	868
f 829 	828 	869
f 828 	868 	869
f 830 	829 	870
f 829 	869 	870
f 831 	830 	871
f 830 	870 	871
f 832 	831 	872
f 831 	871 	872
f 833 	832 	873
f 832 	872 	873
f 834 	833 	874
f 833 	873 	874
f 835 	834 	875
f 834 	874 	875
f 836 	835 	876
f 835 	875 	876
f 837 	836 	877
f 836 	876 	877
f 838 	837 	878
f 837 	877 	878
f 839 	838 	879
f 838 	878 	879
f 840 	839 	880
f 839 	879 	880
f 841 	840 	881
f 840 	880 	881
f 842 	841 	882
f 841 	881 	882
f 843 	842 	883
f 842 	882 	883
f 844 	843 	884
f 843 	883 	884
f 845 	844 	885
f 844 	884 	885
f 846 	845 	886
f 845 	885 	886
f 847 	846 	887
f 846 	886 	887
f 848 	847 	888
f 847 	887 	888
f 849 	848 	889
f 848 	888 	889
f 850 	849 	890
f 849 	889 	890
f 851 	850 	891
f 850 	890 	891
f 852 	851 	892
f 851 	891 	892
f 853 	852 	893
f 852 	892 	893
f 854 	853 	894
f 853 	893 	894
f 855 	854 	895
f 854 	894 	895
f 856 	855 	896
f 855 	895 	896
f 857 	856 	897
f 856 	896 	897
f 858 	857 	898
f 857 	897 	898
f 859 	858 	899
f 858 	898 	899
f 860 	859 	900
f 859 	899 	900
f 861 	860 	901
f 860 	900 	901
f 862 	861 	902
f 861 	901 	902
f 824 	862 	864
f 862 	902 	864
f 863 	864 	903
f 864 	904 	903
f 865 	863 	905
f 863 	903 	905
f 866 	865 	906
f 865 	905 	906
f 867 	866 	907
f 866 	906 	907
f 868 	867 	908
f 867 	907 	908
f 869 	868 	909
f 868 	908 	909
f 870 	869 	910
f 869 	909 	910
f 871 	870 	911
f 870 	910 	911
f 872 	871 	912
f 871 	911 	912
f 873 	872 	913
f 872 	912 	913
f 874 	873 	914
f 873 	913 	914
f 875 	874 	915
f 874 	914 	915
f 876 	875 	916
f 875 	915 	916
f 877 	876 	917
f 876 	916 	917
f 878 	877 	918
f 877 	917 	918
f 879 	878 	919
f 878 	918 	919
f 880 	879 	920
f 879 	919 	920
f 881 	880 	921
f 880 	920 	921
f 882 	881 	922
f 881 	921 	922
f 883 	882 	923
f 882 	922 	923
f 884 	883 	924
f 883 	923 	924
f 885 	884 	925
f 884 	924 	925
f 886 	885 	926
f 885 	925 	926
f 887 	886 	927
f 886 	926 	927
f 888 	887 	928
f 887 	927 	928
f 889 	888 	929
f 888 	928 	929
f 890 	889 	930
f 889 	929 	930
f 891 	890 	931
f 890 	930 	931
f 892 	891 	932
f 891 	931 	932
f 893 	892 	933
f 892 	932 	933
f 894 	893 	934
f 893 	933 	934
f 895 	894 	935
f 894 	934 	935
f 896 	895 	936
f 895 	935 	936
f 897 	896 	937
f 896 	936 	937
f 898 	897 	938
f 897 	937 	938
f 899 	898 	939
f 898 	938 	939
f 900 	899 	940
f 899 	939 	940
f 901 	900 	941
f 900 	940 	941
f 902 	901 	942
f 901 	941 	942
f 864 	902 	904
f 902 	942 	904
f 903 	904 	943
f 904 	944 	943
f 905 	903 	945
f 903 	943 	945
f 906 	905 	946
f 905 	945 	946
f 907 	906 	947
f 906 	946 	947
f 908 	907 	948
f 907 	947 	948
f 909 	908 	949
f 908 	948 	949
f 910 	909 	950
f 909 	949 	950
f 911 	910 	951
f 910 	950 	951
f 912 	911 	952
f 911 	951 	952
f 913 	912 	953
f 912 	952 	953
f 914 	913 	954
f 913 	953 	954
f 915 	914 	955
f 914 	954 	955
f 916 	915 	956
f 915 	955 	956
f 917 	916 	957
f 916 	956 	957
f 918 	917 	958
f 917 	957 	958
f 919 	918 	959
f 918 	958 	959
f 920 	919 	960
f 919 	959 	960
f 921 	920 	961
f 920 	960 	961
f 922 	921 	962
f 921 	961 	962
f 923 	922 	963
f 922 	962 	963
f 924 	923 	964
f 923 	963 	964
f 925 	924 	965
f 924 	964 	965
f 926 	925 	966
f 925 	965 	966
f 927 	926 	967
f 926 	966 	967
f 928 	927 	968
f 927 	967 	968
f 929 	928 	969
f 928 	968 	969
f 930 	929 	970
f 929 	969 	970
f 931 	930 	971
f 930 	970 	971
f 932 	931 	972
f 931 	971 	972
f 933 	932 	973
f 932 	972 	973
f 934 	933 	974
f 933 	973 	974
f 935 	934 	975
f 934 	974 	975
f 936 	935 	976
f 935 	975 	976
f 937 	936 	977
f 936 	976 	977
f 938 	937 	978
f 937 	977 	978
f 939 	938 	979
f 938 	978 	979
f 940 	939 	980
f 939 	979 	980
f 941 	940 	981
f 940 	980 	981
f 942 	941 	982
f 941 	981 	982
f 904 	942 	944
f 942 	982 	944
f 943 	944 	983
f 944 	984 	983
f 945 	943 	985
f 943 	983 	985
f 946 	945 	986
f 945 	985 	986
f 947 	946 	987
f 946 	986 	987
f 948 	947 	988
f 947 	987 	988
f 949 	948 	989
f 948 	988 	989
f 950 	949 	990
f 949 	989 	990
f 951 	950 	991
f 950 	990 	991
f 952 	951 	992
f 951 	991 	992
f 953 	952 	993
f 952 	992 	993
f 954 	953 	994
f 953 	993 	994
f 955 	954 	995
f 954 	994 	995
f 956 	955 	996
f 955 	995 	996
f 957 	956 	997
f 956 	996 	997
f 958 	957 	998
f 957 	997 	998
f 959 	958 	999
f 958 	998 	999
f 960 	959 	1000
f 959 	999 	1000
f 961 	960 	1001
f 960 	1000 	1001
f 962 	961 	1002
f 961 	1001 	1002
f 963 	962 	1003
f 962 	1002 	1003
f 964 	963 	1004
f 963 	1003 	1004
f 965 	964 	1005
f 964 	1004 	1005
f 966 	965 	1006
f 965 	1005 	1006
f 967 	966 	1007
f 966 	1006 	1007
f 968 	967 	1008
f 967 	1007 	1008
f 969 	968 	1009
f 968 	1008 	1009
f 970 	969 	1010
f 969 	1009 	1010
f 971 	970 	1011
f 970 	1010 	1011
f 972 	971 	1012
f 971 	1011 	1012
f 973 	972 	1013
f 972 	1012 	1013
f 974 	973 	1014
f 973 	1013 	1014
f 975 	974 	1015
f 974 	1014 	1015
f 976 	975 	1016
f 975 	1015 	1016
f 977 	976 	1017
f 976 	1016 	1017
f 978 	977 	1018
f 977 	1017 	1018
f 979 	978 	1019
f 978 	1018 	1019
f 980 	979 	1020
f 979 	1019 	1020
f 981 	980 	1021
f 980 	1020 	1021
f 982 	981 	1022
f 981 	1021 	1022
f 944 	982 	984
f 982 	1022 	984
f 983 	984 	1023
f 984 	1024 	1023
f 985 	983 	1025
f 983 	1023 	1025
f 986 	985 	1026
f 985 	1025 	1026
f 987 	986 	1027
f 986 	1026 	1027
f 988 	987 	1028
f 987 	1027 	1028
f 989 	988 	1029
f 988 	1028 	1029
f 990 	989 	1030
f 989 	1029 	1030
f 991 	990 	1031
f 990 	1030 	1031
f 992 	991 	1032
f 991 	1031 	1032
f 993 	992 	1033
f 992 	1032 	1033
f 994 	993 	1034
f 993 	1033 	1034
f 995 	994 	1035
f 994 	1034 	1035
f 996 	995 	1036
f 995 	1035 	1036
f 997 	996 	1037
f 996 	1036 	1037
f 998 	997 	1038
f 997 	1037 	1038
f 999 	998 	1039
f 998 	1038 	1039
f 1000 	999 	1040
f 999 	1039 	1040
f 1001 	1000 	1041
f 1000 	1040 	1041
f 1002 	1001 	1042
f 1001 	1041 	1042
f 1003 	1002 	1043
f 1002 	1042 	1043
f 1004 	1003 	1044
f 1003 	1043 	1044
f 1005 	1004 	1045
f 1004 	1044 	1045
f 1006 	1005 	1046
f 1005 	1045 	1046
f 1007 	1006 	1047
f 1006 	1046 	1047
f 1008 	1007 	1048
f 1007 	1047 	1048
f 1009 	1008 	1049
f 1008 	1048 	1049
f 1010 	1009 	1050
f 1009 	1049 	1050
f 1011 	1010 	1051
f 1010 	1050 	1051
f 1012 	1011 	1052
f 1011 	1051 	1052
f 1013 	1012 	1053
f 1012 	1052 	1053
f 1014 	1013 	1054
f 1013 	1053 	1054
f 1015 	1014 	1055
f 1014 	1054 	1055
f 1016 	1015 	1056
f 1015 	1055 	1056
f 1017 	1016 	1057
f 1016 	1056 	1057
f 1018 	1017 	1058
f 1017 	1057 	1058
f 1019 	1018 	1059
f 1018 	1058 	1059
f 1020 	1019 	1060
f 1019 	1059 	1060
f 1021 	1020 	1061
f 1020 	1060 	1061
f 1022 	1021 	1062
f 1021 	1061 	1062
f 984 	1022 	1024
f 1022 	1062 	1024
f 1023 	1024 	1063
f 1024 	1064 	1063
f 1025 	1023 	1065
f 1023 	1063 	1065
f 1026 	1025 	1066
f 1025 	1065 	1066
f 1027 	1026 	1067
f 1026 	1066 	1067
f 1028 	1027 	1068
f 1027 	1067 	1068
f 1029 	1028 	1069
f 1028 	1068 	1069
f 1030 	1029 	1070
f 1029 	1069 	1070
f 1031 	1030 	1071
f 1030 	1070 	1071
f 1032 	1031 	1072
f 1031 	1071 	1072
f 1033 	1032 	1073
f 1032 	1072 	1073
f 1034 	1033 	1074
f 1033 	1073 	1074
f 1035 	1034 	1075
f 1034 	1074 	1075
f 1036 	1035 	1076
f 1035 	1075 	1076
f 1037 	1036 	1077
f 1036 	1076 	1077
f 1038 	1037 	1078
f 1037 	1077 	1078
f 1039 	1038 	1079
f 1038 	1078 	1079
f 1040 	1039 	1080
f 1039 	1079 	1080
f 1041 	1040 	1081
f 1040 	1080 	1081
f 1042 	1041 	1082
f 1041 	1081 	1082
f 1043 	1042 	1083
f 1042 	1082 	1083
f 1044 	1043 	1084
f 1043 	1083 	1084
f 1045 	1044 	1085
f 1044 	1084 	1085
f 1046 	1045 	1086
f 1045 	1085 	1086
f 1047 	1046 	1087
f 1046 	1086 	1087
f 1048 	1047 	1088
f 1047 	1087 	1088
f 1049 	1048 	1089
f 1048 	1088 	1089
f 1050 	1049 	1090
f 1049 	1089 	1090
f 1051 	1050 	1091
f 1050 	1090 	1091
f 1052 	1051 	1092
f 1051 	1091 	1092
f 1053 	1052 	1093
f 1052 	1092 	1093
f 1054 	1053 	1094
f 1053 	1093 	1094
f 1055 	1054 	1095
f 1054 	1094 	1095
f 1056 	1055 	1096
f 1055 	1095 	1096
f 1057 	1056 	1097
f 1056 	1096 	1097
f 1058 	1057 	1098
f 1057 	1097 	1098
f 1059 	1058 	1099
f 1058 	1098 	1099
f 1060 	1059 	1100
f 1059 	1099 	1100
f 1061 	1060 	1101
f 1060 	1100 	1101
f 1062 	1061 	1102
f 1061 	1101 	1102
f 1024 	1062 	1064
f 1062 	1102 	1064
f 1063 	1064 	1103
f 1064 	1104 	1103
f 1065 	1063 	1105
f 1063 	1103 	1105
f 1066 	1065 	1106
f 1065 	1105 	1106
f 1067 	1066 	1107
f 1066 	1106 	1107
f 1068 	1067 	1108
f 1067 	1107 	1108
f 1069 	1068 	1109
f 1068 	1108 	1109
f 1070 	1069 	1110
f 1069 	1109 	1110
f 1071 	1070 	1111
f 1070 	1110 	1111
f 1072 	1071 	1112
f 1071 	1111 	1112
f 1073 	1072 	1113
f 1072 	1112 	1113
f 1074 	1073 	1114
f 1073 	1113 	1114
f 1075 	1074 	1115
f 1074 	1114 	1115
f 1076 	1075 	1116
f 1075 	1115 	1116
f 1077 	1076 	1117
f 1076 	1116 	1117
f 1078 	1077 	1118
f 1077 	1117 	1118
f 1079 	1078 	1119
f 1078 	1118 	1119
f 1080 	1079 	1120
f 1079 	1119 	1120
f 1081 	1080 	1121
f 1080 	1120 	1121
f 1082 	1081 	1122
f 1081 	1121 	1122
f 1083 	1082 	1123
f 1082 	1122 	1123
f 1084 	1083 	1124
f 1083 	1123 	1124
f 1085 	1084 	1125
f 1084 	1124 	1125
f 1086 	1085 	1126
f 1085 	1125 	1126
f 1087 	1086 	1127
f 1086 	1126 	1127
f 1088 	1087 	1128
f 1087 	1127 	1128
f 1089 	1088 	1129
f 1088 	1128 	1129
f 1090 	1089 	1130
f 1089 	1129 	1130
f 1091 	1090 	1131
f 1090 	1130 	1131
f 1092 	1091 	1132
f 1091 	1131 	1132
f 1093 	1092 	1133
f 1092 	1132 	1133
f 1094 	1093 	1134
f 1093 	1133 	1134
f 1095 	1094 	1135
f 1094 	1134 	1135
f 1096 	1095 	1136
f 1095 	1135 	1136
f 1097 	1096 	1137
f 1096 	1136 	1137
f 1098 	1097 	1138
f 1097 	1137 	1138
f 1099 	1098 	1139
f 1098 	1138 	1139
f 1100 	1099 	1140
f 1099 	1139 	1140
f 1101 	1100 	1141
f 1100 	1140 	1141
f 1102 	1101 	1142
f 1101 	1141 	1142
f 1064 	1102 	1104
f 1102 	1142 	1104
f 1103 	1104 	1143
f 1104 	1144 	1143
f 1105 	1103 	1145
f 1103 	1143 	1145
f 1106 	1105 	1146
f 1105 	1145 	1146
f 1107 	1106 	1147
f 1106 	1146 	1147
f 1108 	1107 	1148
f 1107 	1147 	1148
f 1109 	1108 	1149
f 1108 	1148 	1149
f 1110 	1109 	1150
f 1109 	1149 	1150
f 1111 	1110 	1151
f 1110 	1150 	1151
f 1112 	1111 	1152
f 1111 	1151 	1152
f 1113 	1112 	1153
f 1112 	1152 	1153
f 1114 	1113 	1154
f 1113 	1153 	1154
f 1115 	1114 	1155
f 1114 	1154 	1155
f 1116 	1115 	1156
f 1115 	1155 	1156
f 1117 	1116 	1157
f 1116 	1156 	1157
f 1118 	1117 	1158
f 1117 	1157 	1158
f 1119 	1118 	1159
f 1118 	1158 	1159
f 1120 	1119 	1160
f 1119 	1159 	1160
f 1121 	1120 	1161
f 1120 	1160 	1161
f 1122 	1121 	1162
f 1121 	1161 	1162
f 1123 	1122 	1163
f 1122 	1162 	1163
f 1124 	1123 	1164
f 1123 	1163 	1164
f 1125 	1124 	1165
f 1124 	1164 	1165
f 1126 	1125 	1166
f 1125 	1165 	1166
f 1127 	1126 	1167
f 1126 	1166 	1167
f 1128 	1127 	1168
f 1127 	1167 	1168
f 1129 	1128 	1169
f 1128 	1168 	1169
f 1130 	1129 	1170
f 1129 	1169 	1170
f 1131 	1130 	1171
f 1130 	1170 	1171
f 1132 	1131 	1172
f 1131 	1171 	1172
f 1133 	1132 	1173
f 1132 	1172 	1173
f 1134 	1133 	1174
f 1133 	1173 	1174
f 1135 	1134 	1175
f 1134 	1174 	1175
f 1136 	1135 	1176
f 1135 	1175 	1176
f 1137 	1136 	1177
f 1136 	1176 	1177
f 1138 	1137 	1178
f 1137 	1177 	1178
f 1139 	1138 	1179
f 1138 	1178 	1179
f 1140 	1139 	1180
f 1139 	1179 	1180
f 1141 	1140 	1181
f 1140 	1180 	1181
f 1142 	1141 	1182
f 1141 	1181 	1182
f 1104 	1142 	1144
f 1142 	1182 	1144
f 1143 	1144 	1183
f 1144 	1184 	1183
f 1145 	1143 	1185
f 1143 	1183 	1185
f 1146 	1145 	1186
f 1145 	1185 	1186
f 1147 	1146 	1187
f 1146 	1186 	1187
f 1148 	1147 	1188
f 1147 	1187 	1188
f 1149 	1148 	1189
f 1148 	1188 	1189
f 1150 	1149 	1190
f 1149 	1189 	1190
f 1151 	1150 	1191
f 1150 	1190 	1191
f 1152 	1151 	1192
f 1151 	1191 	1192
f 1153 	1152 	1193
f 1152 	1192 	1193
f 1154 	1153 	1194
f 1153 	1193 	1194
f 1155 	1154 	1195
f 1154 	1194 	1195
f 1156 	1155 	1196
f 1155 	1195 	1196
f 1157 	1156 	1197
f 1156 	1196 	1197
f 1158 	1157 	1198
f 1157 	1197 	1198
f 1159 	1158 	1199
f 1158 	1198 	1199
f 1160 	1159 	1200
f 1159 	1199 	1200
f 1161 	1160 	1201
f 1160 	1200 	1201
f 1162 	1161 	1202
f 1161 	1201 	1202
f 1163 	1162 	1203
f 1162 	1202 	1203
f 1164 	1163 	1204
f 1163 	1203 	1204
f 1165 	1164 	1205
f 1164 	1204 	1205
f 1166 	1165 	1206
f 1165 	1205 	1206
f 1167 	1166 	1207
f 1166 	1206 	1207
f 1168 	1167 	1208
f 1167 	1207 	1208
f 1169 	1168 	1209
f 1168 	1208 	1209
f 1170 	1169 	1210
f 1169 	1209 	1210
f 1171 	1170 	1211
f 1170 	1210 	1211
f 1172 	1171 	1212
f 1171 	1211 	1212
f 1173 	1172 	1213
f 1172 	1212 	1213
f 1174 	1173 	1214
f 1173 	1213 	1214
f 1175 	1174 	1215
f 1174 	1214 	1215
f 1176 	1175 	1216
f 1175 	1215 	1216
f 1177 	1176 	1217
f 1176 	1216 	1217
f 1178 	1177 	1218
f 1177 	1217 	1218
f 1179 	1178 	1219
f 1178 	1218 	1219
f 1180 	1179 	1220
f 1179 	1219 	1220
f 1181 	1180 	1221
f 1180 	1220 	1221
f 1182 	1181 	1222
f 1181 	1221 	1222
f 1144 	1182 	1184
f 1182 	1222 	1184
f 1183 	1184 	1223
f 1184 	1224 	1223
f 1185 	1183 	1225
f 1183 	1223 	1225
f 1186 	1185 	1226
f 1185 	1225 	1226
f 1187 	1186 	1227
f 1186 	1226 	1227
f 1188 	1187 	1228
f 1187 	1227 	1228
f 1189 	1188 	1229
f 1188 	1228 	1229
f 1190 	1189 	1230
f 1189 	1229 	1230
f 1191 	1190 	1231
f 1190 	1230 	1231
f 1192 	1191 	1232
f 1191 	1231 	1232
f 1193 	1192 	1233
f 1192 	1232 	1233
f 1194 	1193 	1234
f 1193 	1233 	1234
f 1195 	1194 	1235
f 1194 	1234 	1235
f 1196 	1195 	1236
f 1195 	1235 	1236
f 1197 	1196 	1237
f 1196 	1236 	1237
f 1198 	1197 	1238
f 1197 	1237 	1238
f 1199 	1198 	1239
f 1198 	1238 	1239
f 1200 	1199 	1240
f 1199 	1239 	1240
f 1201 	1200 	1241
f 1200 	1240 	1241
f 1202 	1201 	1242
f 1201 	1241 	1242
f 1203 	1202 	1243
f 1202 	1242 	1243
f 1204 	1203 	1244
f 1203 	1243 	1244
f 1205 	1204 	1245
f 1204 	1244 	1245
f 1206 	1205 	1246
f 1205 	1245 	1246
f 1207 	1206 	1247
f 1206 	1246 	1247
f 1208 	1207 	1248
f 1207 	1247 	1248
f 1209 	1208 	1249
f 1208 	1248 	1249
f 1210 	1209 	1250
f 1209 	1249 	1250
f 1211 	1210 	1251
f 1210 	1250 	1251
f 1212 	1211 	1252
f 1211 	1251 	1252
f 1213 	1212 	1253
f 1212 	1252 	1253
f 1214 	1213 	1254
f 1213 	1253 	1254
f 1215 	1214 	1255
f 1214 	1254 	1255
f 1216 	1215 	1256
f 1215 	1255 	1256
f 1217 	1216 	1257
f 1216 	1256 	1257
f 1218 	1217 	1258
f 1217 	1257 	1258
f 1219 	1218 	1259
f 1218 	1258 	1259
f 1220 	1219 	1260
f 1219 	1259 	1260
f 1221 	1220 	1261
f 1220 	1260 	1261
f 1222 	1221 	1262
f 1221 	1261 	1262
f 1184 	1222 	1224
f 1222 	1262 	1224
f 1223 	1224 	1263
f 1224 	1264 	1263
f 1225 	1223 	1265
f 1223 	1263 	1265
f 1226 	1225 	1266
f 1225 	1265 	1266
f 1227 	1226 	1267
f 1226 	1266 	1267
f 1228 	1227 	1268
f 1227 	1267 	1268
f 1229 	1228 	1269
f 1228 	1268 	1269
f 1230 	1229 	1270
f 1229 	1269 	1270
f 1231 	1230 	1271
f 1230 	1270 	1271
f 1232 	1231 	1272
f 1231 	1271 	1272
f 1233 	1232 	1273
f 1232 	1272 	1273
f 1234 	1233 	1274
f 1233 	1273 	1274
f 1235 	1234 	1275
f 1234 	1274 	1275
f 1236 	1235 	1276
f 1235 	1275 	1276
f 1237 	1236 	1277
f 1236 	1276 	1277
f 1238 	1237 	1278
f 1237 	1277 	1278
f 1239 	1238 	1279
f 1238 	1278 	1279
f 1240 	1239 	1280
f 1239 	1279 	1280
f 1241 	1240 	1281
f 1240 	1280 	1281
f 1242 	1241 	1282
f 1241 	1281 	1282
f 1243 	1242 	1283
f 1242 	1282 	1283
f 1244 	1243 	1284
f 1243 	1283 	1284
f 1245 	1244 	1285
f 1244 	1284 	1285
f 1246 	1245 	1286
f 1245 	1285 	1286
f 1247 	1246 	1287
f 1246 	1286 	1287
f 1248 	1247 	1288
f 1247 	1287 	1288
f 1249 	1248 	1289
f 1248 	1288 	1289
f 1250 	1249 	1290
f 1249 	1289 	1290
f 1251 	1250 	1291
f 1250 	1290 	1291
f 1252 	1251 	1292
f 1251 	1291 	1292
f 1253 	1252 	1293
f 1252 	1292 	1293
f 1254 	1253 	1294
f 1253 	1293 	1294
f 1255 	1254 	1295
f 1254 	1294 	1295
f 1256 	1255 	1296
f 1255 	1295 	1296
f 1257 	1256 	1297
f 1256 	1296 	1297
f 1258 	1257 	1298
f 1257 	1297 	1298
f 1259 	1258 	1299
f 1258 	1298 	1299
f 1260 	1259 	1300
f 1259 	1299 	1300
f 1261 	1260 	1301
f 1260 	1300 	1301
f 1262 	1261 	1302
f 1261 	1301 	1302
f 1224 	1262 	1264
f 1262 	1302 	1264
f 1263 	1264 	1303
f 1265 	1263 	1303
f 1266 	1265 	1303
f 1267 	1266 	1303
f 1268 	1267 	1303
f 1269 	1268 	1303
f 1270 	1269 	1303
f 1271 	1270 	1303
f 1272 	1271 	1303
f 1273 	1272 	1304
f 1272 	1303 	1304
f 1274 	1273 	1304
f 1275 	1274 	1304
f 1276 	1275 	1304
f 1277 	1276 	1304
f 1278 	1277 	1304
f 1279 	1278 	1304
f 1280 	1279 	1304
f 1281 	1280 	1304
f 1282 	1281 	1304
f 1283 	1282 	1305
f 1282 	1304 	1305
f 1284 	1283 	1305
f 1285 	1284 	1305
f 1286 	1285 	1305
f 1287 	1286 	1305
f 1288 	1287 	1305
f 1289 	1288 	1305
f 1290 	1289 	1305
f 1291 	1290 	1305
f 1292 	1291 	1305
f 1293 	1292 	1306
f 1292 	1305 	1306
f 1294 	1293 	1306
f 1295 	1294 	1306
f 1296 	1295 	1306
f 1297 	1296 	1306
f 1298 	1297 	1306
f 1299 	1298 	1306
f 1300 	1299 	1306
f 1301 	1300 	1306
f 1302 	1301 	1306
f 1264 	1302 	1303
f 1302 	1306 	1303
f 579 	590 	612
f 590 	601 	612
f 1303 	1306 	1304
f 1304 	1306 	1305
# 1452 faces

 #end of obj_2

