# Object Export From Tinkercad Server 2015

mtllib obj.mtl

o obj_0
v -3 		-24 		0
v -3 		-24 		20
v -3 		-6 		20
v -3 		-3 		0
v -3 		-6 		30
v -3 		-3 		30
v -0.625 		-24 		18.5
v -0.512 		-24 		18.5
v -0.625 		-6 		20
v 6.144 		-24 		18.5
v 6.656 		-24 		18.5
v 13.824 		-24 		18.5
v 14.336 		-24 		18.5
v 10.752 		-24 		18.5
v 10.24 		-24 		18.5
v 9.728 		-24 		18.5
v 5.632 		-24 		18.5
v 9.216 		-24 		18.5
v 13.312 		-24 		18.5
v 8.704 		-24 		18.5
v -0.625 		-18 		20
v -0.378 		-24 		3.998
v 8.375 		-24 		18.5
v 8.192 		-24 		18.5
v 7.68 		-24 		18.5
v 12.8 		-24 		18.5
v 7.168 		-24 		18.5
v -0.625 		-13 		20
v -0.625 		-10 		20
v -1.625 		-24.038 		18.691
v -1.625 		-24.017 		18.629
v -1.625 		-24.004 		18.565
v -1.625 		-24 		18.5
v -1.625 		-24.004 		18.435
v 4.755 		-11.826 		20
v 4.496 		-12.121 		20
v 4.973 		-11.5 		20
v 5.147 		-11.148 		20
v 5.273 		-10.776 		20
v -1.625 		-24.565 		18.996
v -1.625 		-24.5 		19
v 5.349 		-10.392 		20
v -1.625 		-24.435 		18.996
v 5.375 		-10 		20
v 5.349 		-9.608 		20
v 5.273 		-9.224 		20
v 5.147 		-8.852 		20
v 4.973 		-8.5 		20
v 4.767 		-8.192 		20
v 2.375 		-13 		20
v 2.767 		-12.974 		20
v 3.151 		-12.898 		20
v 3.523 		-12.772 		20
v 3.875 		-12.598 		20
v 4.096 		-12.4502 		20
v 0 		-11.8317 		20
v 0.254 		-12.121 		20
v 0.549 		-12.38 		20
v 0.875 		-12.598 		20
v 1.227 		-12.772 		20
v 1.599 		-12.898 		20
v 1.983 		-12.974 		20
v -0.017 		-8.192 		20
v -0.223 		-8.5 		20
v -0.397 		-8.852 		20
v -0.503 		-9.1649 		20
v 14.628 		-24 		3.998
v 17 		-24 		0
v -0.523 		-9.224 		20
v 15.375 		-24 		18.5
v -0.599 		-9.608 		20
v 17 		-24 		20
v -0.599 		-10.392 		20
v 15.36 		-24 		18.5
v -0.523 		-10.776 		20
v -0.503 		-10.8351 		20
v -0.397 		-11.148 		20
v -0.223 		-11.5 		20
v -0.005 		-11.826 		20
v 4.755 		-16.174 		20
v 4.8954 		-16.384 		20
v 4.496 		-15.879 		20
v 4.201 		-15.62 		20
v 3.875 		-15.402 		20
v 3.523 		-15.228 		20
v 3.151 		-15.102 		20
v 2.767 		-15.026 		20
v 2.375 		-15 		20
v 1.983 		-15.026 		20
v 1.599 		-15.102 		20
v 14.848 		-24 		18.5
v 5.12 		-24 		18.5
v 1.227 		-15.228 		20
v 0.875 		-15.402 		20
v 0.549 		-15.62 		20
v 14.628 		-24 		18.5
v 0.254 		-15.879 		20
v 14.628 		-24 		18.003
v -0.005 		-16.174 		20
v -0.1454 		-16.384 		20
v 5.375 		-21 		20
v 4.201 		-20.38 		20
v 4.096 		-20.4502 		20
v 4.496 		-20.121 		20
v 4.755 		-19.826 		20
v 4.973 		-19.5 		20
v 5.147 		-19.148 		20
v 5.273 		-18.776 		20
v 5.349 		-18.392 		20
v 5.375 		-18 		20
v 5.349 		-17.608 		20
v 5.273 		-17.224 		20
v 5.147 		-16.852 		20
v 4.973 		-16.5 		20
v 2.375 		-21 		20
v 2.767 		-20.974 		20
v 3.151 		-20.898 		20
v 3.523 		-20.772 		20
v 3.875 		-20.598 		20
v 0.254 		-20.121 		20
v 0 		-19.8317 		20
v 0.549 		-20.38 		20
v 0.875 		-20.598 		20
v 1.227 		-20.772 		20
v 1.599 		-20.898 		20
v 1.983 		-20.974 		20
v -0.223 		-16.5 		20
v -0.397 		-16.852 		20
v -0.523 		-17.224 		20
v -0.599 		-17.608 		20
v -0.426 		-21 		20
v -0.599 		-18.392 		20
v -0.523 		-18.776 		20
v -0.397 		-19.148 		20
v -0.223 		-19.5 		20
v -0.005 		-19.826 		20
v 8.375 		-6 		20
v 2.375 		-7 		20.2
v 1.983 		-7.026 		20.2
v 1.599 		-7.102 		20.2
v 1.227 		-7.228 		20.2
v 0.875 		-7.402 		20.2
v 0.549 		-7.62 		20.2
v 0.254 		-7.879 		20.2
v -0.005 		-8.174 		20.2
v 4.755 		-8.174 		20.2
v 4.496 		-7.879 		20.2
v 4.201 		-7.62 		20.2
v 3.875 		-7.402 		20.2
v 3.523 		-7.228 		20.2
v 3.151 		-7.102 		20.2
v 2.767 		-7.026 		20.2
v 5.375 		-10 		20.2
v 5.349 		-9.608 		20.2
v 5.273 		-9.224 		20.2
v 5.147 		-8.852 		20.2
v 4.973 		-8.5 		20.2
v 4.201 		-12.38 		20.2
v 4.496 		-12.121 		20.2
v 4.755 		-11.826 		20.2
v 4.973 		-11.5 		20.2
v 5.147 		-11.148 		20.2
v 5.273 		-10.776 		20.2
v 5.349 		-10.392 		20.2
v 17 		-6 		20
v 17 		-21 		20
v 17 		-3 		0
v 1.983 		-12.974 		20.2
v 2.375 		-13 		20.2
v 2.767 		-12.974 		20.2
v 3.151 		-12.898 		20.2
v 3.523 		-12.772 		20.2
v 3.875 		-12.598 		20.2
v 0.254 		-12.121 		20.2
v 0.549 		-12.38 		20.2
v 0.875 		-12.598 		20.2
v 1.227 		-12.772 		20.2
v 1.599 		-12.898 		20.2
v 14.503 		-19.998 		3.998
v 14.503 		-6 		3.998
v 14.503 		-6 		18.003
v 14.503 		-19.998 		18.003
v 14.628 		-19.998 		18.003
v -0.523 		-10.776 		20.2
v 14.628 		-19.998 		3.998
v -0.397 		-11.148 		20.2
v -0.223 		-11.5 		20.2
v -0.005 		-11.826 		20.2
v -0.223 		-8.5 		20.2
v -0.397 		-8.852 		20.2
v -0.523 		-9.224 		20.2
v -0.599 		-9.608 		20.2
v -0.625 		-10 		20.2
v -0.599 		-10.392 		20.2
v 4.755 		-8.174 		20
v 4.496 		-7.879 		20
v 4.201 		-7.62 		20
v 14.375 		-10 		20
v 3.875 		-7.402 		20
v 14.375 		-15 		20
v 14.375 		-18 		20
v 3.523 		-7.228 		20
v 3.151 		-7.102 		20
v 2.767 		-7.026 		20
v 2.375 		-7 		20
v 1.983 		-7.026 		20
v 1.599 		-7.102 		20
v 1.227 		-7.228 		20
v 0.875 		-7.402 		20
v 0.549 		-7.62 		20
v 0.254 		-7.879 		20
v -0.005 		-8.174 		20
v 4.608 		-24 		18.5
v 4.201 		-12.38 		20
v 4.096 		-24 		18.5
v 3.584 		-24 		18.5
v 2.375 		-15 		20.2
v 1.983 		-15.026 		20.2
v 1.599 		-15.102 		20.2
v 1.227 		-15.228 		20.2
v 0.875 		-15.402 		20.2
v 0.549 		-15.62 		20.2
v 0.254 		-15.879 		20.2
v -0.005 		-16.174 		20.2
v 4.755 		-16.174 		20.2
v 4.496 		-15.879 		20.2
v 4.201 		-15.62 		20.2
v 3.875 		-15.402 		20.2
v 3.523 		-15.228 		20.2
v 3.151 		-15.102 		20.2
v 2.767 		-15.026 		20.2
v 5.375 		-18 		20.2
v 5.349 		-17.608 		20.2
v 5.273 		-17.224 		20.2
v 5.147 		-16.852 		20.2
v 4.973 		-16.5 		20.2
v 4.201 		-20.38 		20.2
v 4.496 		-20.121 		20.2
v 4.755 		-19.826 		20.2
v 4.973 		-19.5 		20.2
v 5.147 		-19.148 		20.2
v 5.273 		-18.776 		20.2
v 5.349 		-18.392 		20.2
v 1.983 		-20.974 		20.2
v 2.375 		-21 		20.2
v 2.767 		-20.974 		20.2
v 3.151 		-20.898 		20.2
v 3.523 		-20.772 		20.2
v 3.875 		-20.598 		20.2
v 0.254 		-20.121 		20.2
v 0.549 		-20.38 		20.2
v 0.875 		-20.598 		20.2
v 1.227 		-20.772 		20.2
v 1.599 		-20.898 		20.2
v -0.523 		-18.776 		20.2
v -0.397 		-19.148 		20.2
v -0.223 		-19.5 		20.2
v -0.005 		-19.826 		20.2
v -0.223 		-16.5 		20.2
v -0.397 		-16.852 		20.2
v -0.523 		-17.224 		20.2
v -0.599 		-17.608 		20.2
v -0.625 		-18 		20.2
v -0.599 		-18.392 		20.2
v 3.072 		-24 		18.5
v 2.56 		-24 		18.5
v 11.375 		-21 		20
v 15.375 		-24.004 		18.565
v 15.375 		-24.017 		18.629
v 15.375 		-24.038 		18.691
v 15.375 		-24.004 		18.435
v 15.375 		-24.5 		19
v 15.375 		-24.565 		18.996
v 15.375 		-24.067 		18.75
v 15.375 		-24.103 		18.804
v 15.375 		-24.146 		18.854
v 15.375 		-24.196 		18.897
v 15.375 		-24.25 		18.933
v 15.375 		-24.309 		18.962
v 15.375 		-24.371 		18.983
v 15.375 		-24.435 		18.996
v 15.375 		-24.996 		18.565
v 15.375 		-25 		18.5
v 15.375 		-24.996 		18.435
v 15.375 		-24.629 		18.983
v 15.375 		-24.691 		18.962
v 15.375 		-24.75 		18.933
v 15.375 		-24.804 		18.897
v 15.375 		-24.854 		18.854
v 15.375 		-24.897 		18.804
v 15.375 		-24.933 		18.75
v 15.375 		-24.962 		18.691
v 15.375 		-24.983 		18.629
v 15.375 		-24.5 		18
v 15.375 		-24.435 		18.004
v 15.375 		-24.371 		18.017
v 15.375 		-24.309 		18.038
v 15.375 		-24.25 		18.067
v 15.375 		-24.196 		18.103
v 15.375 		-24.146 		18.146
v 15.375 		-24.103 		18.196
v 15.375 		-24.067 		18.25
v 15.375 		-24.038 		18.309
v 15.375 		-24.017 		18.371
v 15.375 		-24.565 		18.004
v 15.375 		-24.629 		18.017
v 15.375 		-24.983 		18.371
v 15.375 		-24.962 		18.309
v 15.375 		-24.933 		18.25
v 15.375 		-24.897 		18.196
v 15.375 		-24.854 		18.146
v 15.375 		-24.804 		18.103
v 15.375 		-24.75 		18.067
v 15.375 		-24.691 		18.038
v 2.048 		-24 		18.5
v 1.536 		-24 		18.5
v 1.024 		-24 		18.5
v 0.512 		-24 		18.5
v 12.288 		-24 		18.5
v 0 		-24 		18.5
v -0.378 		-24 		18.5
v -0.378 		-24 		18.003
v 11.776 		-24 		18.5
v -1.625 		-24.371 		18.983
v -1.625 		-24.309 		18.962
v -1.625 		-24.25 		18.933
v -1.625 		-24.196 		18.897
v -1.625 		-24.146 		18.854
v -1.625 		-24.103 		18.804
v -1.625 		-24.067 		18.75
v -1.625 		-25 		18.5
v -1.625 		-24.996 		18.565
v -1.625 		-24.983 		18.629
v -1.625 		-24.962 		18.691
v -1.625 		-24.933 		18.75
v -1.625 		-24.897 		18.804
v -1.625 		-24.854 		18.854
v -1.625 		-24.804 		18.897
v -1.625 		-24.75 		18.933
v -1.625 		-24.691 		18.962
v -1.625 		-24.629 		18.983
v -1.625 		-24.996 		18.435
v -1.625 		-24.017 		18.371
v -1.625 		-24.038 		18.309
v -1.625 		-24.067 		18.25
v -1.625 		-24.103 		18.196
v -1.625 		-24.146 		18.146
v -1.625 		-24.196 		18.103
v -1.625 		-24.25 		18.067
v -1.625 		-24.309 		18.038
v -1.625 		-24.371 		18.017
v -1.625 		-24.435 		18.004
v -1.625 		-24.5 		18
v -1.625 		-24.565 		18.004
v -1.625 		-24.629 		18.017
v -1.625 		-24.691 		18.038
v -1.625 		-24.75 		18.067
v -1.625 		-24.804 		18.103
v -1.625 		-24.854 		18.146
v -1.625 		-24.897 		18.196
v -1.625 		-24.933 		18.25
v -1.625 		-24.962 		18.309
v -1.625 		-24.983 		18.371
v -1.024 		-24 		18.5
v 11.375 		-15 		20
v 11.375 		-13 		20
v 11.375 		-7 		20
v 13.767 		-8.192 		20
v 13.755 		-8.174 		20
v 13.496 		-7.879 		20
v 13.201 		-7.62 		20
v 12.875 		-7.402 		20
v 12.523 		-7.228 		20
v 12.151 		-7.102 		20
v 11.767 		-7.026 		20
v 10.983 		-7.026 		20
v 10.599 		-7.102 		20
v 10.227 		-7.228 		20
v 9.875 		-7.402 		20
v 9.549 		-7.62 		20
v 9.254 		-7.879 		20
v 8.995 		-8.174 		20
v 8.983 		-8.192 		20
v 12.523 		-12.772 		20
v 12.288 		-12.8516 		20
v 12.875 		-12.598 		20
v 13.201 		-12.38 		20
v 13.496 		-12.121 		20
v 13.755 		-11.826 		20
v 13.973 		-11.5 		20
v 14.147 		-11.148 		20
v 14.273 		-10.776 		20
v 14.349 		-10.392 		20
v 14.349 		-9.608 		20
v 14.273 		-9.224 		20
v 14.147 		-8.852 		20
v 13.973 		-8.5 		20
v 8.777 		-8.5 		20
v 8.603 		-8.852 		20
v 8.477 		-9.224 		20
v 8.401 		-9.608 		20
v 8.375 		-10 		20
v 8.401 		-10.392 		20
v 8.477 		-10.776 		20
v 8.603 		-11.148 		20
v 8.777 		-11.5 		20
v 8.995 		-11.826 		20
v 9.254 		-12.121 		20
v 11.767 		-12.974 		20
v 12.151 		-12.898 		20
v 9.549 		-12.38 		20
v 9.875 		-12.598 		20
v 10.227 		-12.772 		20
v 10.599 		-12.898 		20
v 10.983 		-12.974 		20
v 13.8954 		-16.384 		20
v 13.755 		-16.174 		20
v 13.496 		-15.879 		20
v 13.201 		-15.62 		20
v 12.875 		-15.402 		20
v -1.536 		-24 		18.5
v 12.523 		-15.228 		20
v 12.151 		-15.102 		20
v 11.767 		-15.026 		20
v 10.983 		-15.026 		20
v 10.599 		-15.102 		20
v 10.227 		-15.228 		20
v 9.875 		-15.402 		20
v 9.549 		-15.62 		20
v 9.254 		-15.879 		20
v 8.995 		-16.174 		20
v 8.8546 		-16.384 		20
v 12.523 		-20.772 		20
v 12.288 		-20.8516 		20
v 12.875 		-20.598 		20
v 13.201 		-20.38 		20
v 13.496 		-20.121 		20
v 13.755 		-19.826 		20
v 13.973 		-19.5 		20
v 14.147 		-19.148 		20
v 14.273 		-18.776 		20
v 14.349 		-18.392 		20
v 14.349 		-17.608 		20
v 14.273 		-17.224 		20
v 14.147 		-16.852 		20
v 13.973 		-16.5 		20
v 8.777 		-16.5 		20
v 8.603 		-16.852 		20
v 8.477 		-17.224 		20
v 8.401 		-17.608 		20
v 8.375 		-18 		20
v 8.401 		-18.392 		20
v 8.477 		-18.776 		20
v 8.603 		-19.148 		20
v 8.777 		-19.5 		20
v 8.995 		-19.826 		20
v 9.254 		-20.121 		20
v 9.549 		-20.38 		20
v 9.6985 		-20.48 		20
v 11.264 		-24 		18.5
v 11.767 		-20.974 		20
v 12.151 		-20.898 		20
v 9.875 		-20.598 		20
v 10.227 		-20.772 		20
v 10.599 		-20.898 		20
v -0.378 		-23 		3.998
v 10.983 		-20.974 		20
v 17 		-3 		30
v 17 		-6 		30
v -0.378 		-23 		18.003
v -0.503 		-23 		3.998
v -0.503 		-23 		18.003
v 11.375 		-7 		20.2
v 10.983 		-7.026 		20.2
v 10.599 		-7.102 		20.2
v 10.227 		-7.228 		20.2
v 9.875 		-7.402 		20.2
v 9.549 		-7.62 		20.2
v 9.254 		-7.879 		20.2
v 8.995 		-8.174 		20.2
v 13.755 		-8.174 		20.2
v 13.496 		-7.879 		20.2
v 13.201 		-7.62 		20.2
v 12.875 		-7.402 		20.2
v 12.523 		-7.228 		20.2
v 12.151 		-7.102 		20.2
v 11.767 		-7.026 		20.2
v 14.375 		-10 		20.2
v 14.349 		-9.608 		20.2
v 14.273 		-9.224 		20.2
v 14.147 		-8.852 		20.2
v 13.973 		-8.5 		20.2
v 12.523 		-12.772 		20.2
v 12.875 		-12.598 		20.2
v 13.201 		-12.38 		20.2
v 13.496 		-12.121 		20.2
v 13.755 		-11.826 		20.2
v 13.973 		-11.5 		20.2
v 14.147 		-11.148 		20.2
v 14.273 		-10.776 		20.2
v 14.349 		-10.392 		20.2
v 8.375 		-10 		20.2
v 8.401 		-10.392 		20.2
v 8.477 		-10.776 		20.2
v 8.603 		-11.148 		20.2
v 8.777 		-11.5 		20.2
v 8.995 		-11.826 		20.2
v 9.254 		-12.121 		20.2
v 8.777 		-8.5 		20.2
v 8.603 		-8.852 		20.2
v 8.477 		-9.224 		20.2
v 8.401 		-9.608 		20.2
v 10.983 		-12.974 		20.2
v 11.375 		-13 		20.2
v 11.767 		-12.974 		20.2
v 12.151 		-12.898 		20.2
v 9.549 		-12.38 		20.2
v 9.875 		-12.598 		20.2
v 10.227 		-12.772 		20.2
v 10.599 		-12.898 		20.2
v -0.503 		-6 		3.998
v -0.503 		-6 		18.003
v 11.375 		-15 		20.2
v 10.983 		-15.026 		20.2
v 10.599 		-15.102 		20.2
v 10.227 		-15.228 		20.2
v 9.875 		-15.402 		20.2
v 9.549 		-15.62 		20.2
v 9.254 		-15.879 		20.2
v 8.995 		-16.174 		20.2
v 13.755 		-16.174 		20.2
v 13.496 		-15.879 		20.2
v 13.201 		-15.62 		20.2
v 12.875 		-15.402 		20.2
v 12.523 		-15.228 		20.2
v 12.151 		-15.102 		20.2
v 11.767 		-15.026 		20.2
v 14.375 		-18 		20.2
v 14.349 		-17.608 		20.2
v 14.273 		-17.224 		20.2
v 14.147 		-16.852 		20.2
v 13.973 		-16.5 		20.2
v 12.523 		-20.772 		20.2
v 12.875 		-20.598 		20.2
v 13.201 		-20.38 		20.2
v 13.496 		-20.121 		20.2
v 13.755 		-19.826 		20.2
v 13.973 		-19.5 		20.2
v 14.147 		-19.148 		20.2
v 14.273 		-18.776 		20.2
v 14.349 		-18.392 		20.2
v 8.375 		-18 		20.2
v 8.401 		-18.392 		20.2
v 8.477 		-18.776 		20.2
v 8.603 		-19.148 		20.2
v 8.777 		-19.5 		20.2
v 8.995 		-19.826 		20.2
v 9.254 		-20.121 		20.2
v 9.549 		-20.38 		20.2
v 8.777 		-16.5 		20.2
v 8.603 		-16.852 		20.2
v 8.477 		-17.224 		20.2
v 8.401 		-17.608 		20.2
v 10.983 		-20.974 		20.2
v 11.375 		-21 		20.2
v 11.767 		-20.974 		20.2
v 12.151 		-20.898 		20.2
v 9.875 		-20.598 		20.2
v 10.227 		-20.772 		20.2
v 10.599 		-20.898 		20.2
# 570 vertices

g group_0_12568524

usemtl color_12568524
s 0

f 2 	3 	1
f 4 	1 	3
f 5 	6 	3
f 4 	3 	6
f 8 	34 	7
f 10 	11 	34
f 32 	11 	10
f 12 	13 	271
f 268 	13 	12
f 15 	72 	16
f 17 	10 	34
f 32 	10 	17
f 19 	12 	271
f 268 	12 	19
f 16 	18 	98
f 14 	460 	271
f 15 	268 	14
f 72 	2 	27
f 72 	27 	24
f 24 	27 	98
f 23 	24 	98
f 26 	19 	271
f 26 	268 	19
f 27 	24 	25
f 25 	24 	27
f 11 	322 	27
f 21 	28 	2
f 3 	2 	28
f 28 	29 	3
f 29 	9 	3
f 33 	353 	32
f 31 	32 	353
f 34 	353 	33
f 343 	353 	34
f 82 	80 	447
f 214 	82 	447
f 432 	431 	214
f 36 	214 	431
f 431 	430 	36
f 44 	401 	45
f 45 	401 	46
f 18 	72 	20
f 20 	72 	23
f 400 	399 	46
f 47 	137 	48
f 50 	88 	51
f 53 	84 	54
f 11 	27 	2
f 56 	28 	57
f 59 	93 	60
f 57 	28 	58
f 58 	28 	59
f 23 	98 	20
f 64 	9 	65
f 20 	98 	18
f 65 	9 	66
f 10 	322 	11
f 66 	9 	69
f 9 	29 	71
f 9 	71 	69
f 17 	322 	10
f 29 	28 	73
f 28 	76 	75
f 28 	75 	73
f 70 	72 	74
f 91 	74 	72
f 76 	28 	77
f 317 	316 	2
f 10 	11 	2
f 79 	28 	56
f 78 	28 	79
f 81 	114 	447
f 114 	113 	448
f 113 	112 	448
f 82 	214 	83
f 448 	447 	114
f 89 	61 	90
f 70 	74 	67
f 68 	72 	67
f 70 	67 	72
f 17 	10 	2
f 93 	28 	94
f 90 	60 	93
f 94 	28 	95
f 13 	96 	72
f 95 	28 	97
f 100 	99 	28
f 97 	28 	99
f 105 	104 	101
f 102 	103 	101
f 119 	101 	103
f 105 	101 	106
f 102 	101 	104
f 91 	98 	74
f 449 	448 	112
f 110 	450 	111
f 111 	450 	112
f 450 	449 	112
f 185 	179 	67
f 119 	118 	101
f 115 	101 	116
f 116 	101 	117
f 117 	101 	118
f 121 	131 	120
f 120 	131 	122
f 122 	131 	123
f 123 	131 	124
f 124 	131 	125
f 131 	126 	125
f 131 	115 	126
f 100 	28 	127
f 15 	14 	271
f 127 	28 	128
f 16 	268 	15
f 128 	28 	129
f 28 	21 	130
f 129 	28 	130
f 92 	17 	34
f 21 	131 	132
f 92 	32 	17
f 131 	133 	132
f 133 	131 	134
f 134 	131 	135
f 136 	131 	121
f 135 	131 	136
f 5 	9 	137
f 142 	168 	141
f 140 	141 	168
f 143 	168 	142
f 144 	168 	143
f 139 	140 	168
f 145 	168 	144
f 138 	139 	168
f 146 	147 	168
f 147 	148 	168
f 148 	149 	168
f 149 	150 	168
f 151 	168 	150
f 152 	168 	151
f 138 	168 	152
f 185 	67 	98
f 157 	158 	156
f 155 	156 	158
f 154 	155 	158
f 158 	159 	154
f 153 	154 	159
f 160 	164 	159
f 161 	164 	160
f 162 	163 	161
f 164 	161 	163
f 153 	159 	164
f 98 	183 	185
f 166 	167 	165
f 170 	157 	169
f 171 	157 	170
f 172 	157 	171
f 173 	157 	172
f 158 	157 	173
f 168 	169 	157
f 157 	146 	168
f 174 	175 	145
f 175 	176 	145
f 176 	177 	145
f 178 	145 	177
f 168 	145 	178
f 521 	466 	179
f 180 	521 	179
f 183 	98 	182
f 180 	179 	182
f 180 	182 	181
f 183 	182 	179
f 183 	179 	185
f 187 	145 	186
f 188 	145 	187
f 174 	145 	188
f 184 	186 	145
f 184 	145 	189
f 184 	189 	190
f 184 	190 	191
f 184 	191 	192
f 193 	194 	192
f 184 	192 	194
f 49 	195 	146
f 49 	146 	157
f 521 	180 	181
f 195 	196 	147
f 195 	147 	146
f 196 	197 	148
f 196 	148 	147
f 197 	199 	149
f 197 	149 	148
f 199 	202 	150
f 199 	150 	149
f 166 	165 	200
f 201 	166 	443
f 200 	444 	166
f 441 	166 	442
f 201 	442 	166
f 166 	441 	440
f 166 	440 	439
f 166 	439 	438
f 438 	437 	166
f 202 	203 	151
f 202 	151 	150
f 203 	204 	152
f 203 	152 	151
f 92 	322 	17
f 204 	205 	138
f 204 	138 	152
f 205 	206 	139
f 205 	139 	138
f 206 	207 	140
f 206 	140 	139
f 207 	208 	141
f 207 	141 	140
f 208 	209 	142
f 208 	142 	141
f 209 	210 	143
f 209 	143 	142
f 210 	211 	144
f 210 	144 	143
f 211 	212 	145
f 211 	145 	144
f 212 	63 	145
f 55 	214 	158
f 92 	17 	2
f 214 	36 	159
f 214 	159 	158
f 36 	35 	160
f 36 	160 	159
f 35 	37 	161
f 35 	161 	160
f 37 	38 	162
f 37 	162 	161
f 38 	39 	163
f 38 	163 	162
f 39 	42 	164
f 39 	164 	163
f 42 	44 	153
f 42 	153 	164
f 45 	154 	153
f 45 	153 	44
f 46 	155 	154
f 46 	154 	45
f 47 	156 	155
f 47 	155 	46
f 213 	322 	92
f 48 	157 	156
f 48 	156 	47
f 157 	48 	49
f 51 	170 	169
f 51 	169 	50
f 52 	171 	170
f 52 	170 	51
f 53 	172 	171
f 53 	171 	52
f 215 	322 	213
f 54 	173 	172
f 54 	172 	53
f 54 	55 	173
f 158 	173 	55
f 56 	57 	174
f 213 	92 	2
f 58 	175 	174
f 58 	174 	57
f 59 	176 	175
f 59 	175 	58
f 60 	177 	176
f 60 	176 	59
f 61 	178 	177
f 61 	177 	60
f 62 	168 	178
f 62 	178 	61
f 50 	169 	168
f 50 	168 	62
f 63 	64 	189
f 63 	189 	145
f 64 	65 	190
f 64 	190 	189
f 69 	191 	66
f 191 	190 	66
f 65 	66 	190
f 69 	71 	192
f 69 	192 	191
f 71 	29 	193
f 71 	193 	192
f 193 	29 	73
f 193 	73 	194
f 73 	75 	184
f 73 	184 	194
f 77 	186 	76
f 186 	184 	76
f 75 	76 	184
f 77 	78 	187
f 77 	187 	186
f 78 	79 	188
f 78 	188 	187
f 174 	188 	56
f 79 	56 	188
f 213 	92 	34
f 32 	92 	213
f 215 	213 	2
f 221 	244 	220
f 219 	220 	244
f 222 	244 	221
f 223 	244 	222
f 218 	219 	244
f 224 	244 	223
f 217 	218 	244
f 225 	226 	244
f 226 	227 	244
f 227 	228 	244
f 228 	229 	244
f 230 	244 	229
f 231 	244 	230
f 217 	244 	231
f 236 	237 	235
f 234 	235 	237
f 233 	234 	237
f 237 	238 	233
f 232 	233 	238
f 239 	243 	238
f 240 	243 	239
f 241 	242 	240
f 243 	240 	242
f 232 	238 	243
f 246 	236 	245
f 247 	236 	246
f 248 	236 	247
f 249 	236 	248
f 237 	236 	249
f 244 	245 	236
f 236 	225 	244
f 250 	251 	224
f 251 	252 	224
f 252 	253 	224
f 254 	224 	253
f 244 	224 	254
f 216 	322 	215
f 257 	224 	256
f 258 	224 	257
f 250 	224 	258
f 255 	256 	224
f 255 	224 	259
f 255 	259 	260
f 255 	260 	261
f 255 	261 	262
f 263 	264 	262
f 255 	262 	264
f 81 	80 	225
f 81 	225 	236
f 80 	82 	226
f 80 	226 	225
f 82 	83 	227
f 82 	227 	226
f 83 	84 	228
f 83 	228 	227
f 84 	85 	229
f 84 	229 	228
f 85 	86 	230
f 85 	230 	229
f 216 	215 	2
f 86 	87 	231
f 86 	231 	230
f 87 	88 	217
f 87 	217 	231
f 88 	89 	218
f 88 	218 	217
f 89 	90 	219
f 89 	219 	218
f 90 	93 	220
f 90 	220 	219
f 265 	322 	216
f 93 	94 	221
f 93 	221 	220
f 94 	95 	222
f 94 	222 	221
f 95 	97 	223
f 95 	223 	222
f 97 	99 	224
f 97 	224 	223
f 99 	100 	224
f 103 	102 	237
f 102 	104 	238
f 102 	238 	237
f 104 	105 	239
f 104 	239 	238
f 105 	106 	240
f 105 	240 	239
f 106 	107 	241
f 106 	241 	240
f 107 	108 	242
f 107 	242 	241
f 108 	109 	243
f 108 	243 	242
f 265 	216 	2
f 109 	110 	232
f 109 	232 	243
f 111 	233 	232
f 111 	232 	110
f 112 	234 	233
f 112 	233 	111
f 113 	235 	234
f 113 	234 	112
f 114 	236 	235
f 114 	235 	113
f 236 	114 	81
f 116 	246 	245
f 116 	245 	115
f 117 	247 	246
f 117 	246 	116
f 118 	248 	247
f 118 	247 	117
f 119 	249 	248
f 119 	248 	118
f 119 	103 	249
f 237 	249 	103
f 121 	120 	250
f 122 	251 	250
f 122 	250 	120
f 123 	252 	251
f 123 	251 	122
f 124 	253 	252
f 124 	252 	123
f 125 	254 	253
f 125 	253 	124
f 126 	244 	254
f 126 	254 	125
f 115 	245 	244
f 115 	244 	126
f 100 	127 	259
f 100 	259 	224
f 127 	128 	260
f 127 	260 	259
f 128 	129 	261
f 128 	261 	260
f 129 	130 	262
f 129 	262 	261
f 130 	21 	263
f 130 	263 	262
f 263 	21 	132
f 263 	132 	264
f 132 	133 	255
f 132 	255 	264
f 134 	256 	133
f 256 	255 	133
f 134 	135 	257
f 134 	257 	256
f 135 	136 	258
f 135 	258 	257
f 250 	258 	121
f 136 	121 	258
f 72 	68 	166
f 167 	166 	68
f 166 	267 	72
f 267 	101 	72
f 270 	294 	269
f 70 	268 	294
f 269 	294 	268
f 273 	294 	272
f 274 	275 	294
f 275 	276 	294
f 276 	277 	294
f 277 	278 	294
f 278 	279 	294
f 279 	280 	294
f 280 	281 	294
f 272 	294 	281
f 284 	307 	285
f 283 	284 	285
f 285 	286 	283
f 286 	287 	283
f 287 	288 	283
f 282 	283 	288
f 282 	288 	289
f 282 	289 	290
f 291 	292 	290
f 293 	290 	292
f 282 	290 	293
f 294 	295 	296
f 294 	296 	297
f 294 	297 	298
f 294 	298 	299
f 294 	299 	300
f 294 	300 	301
f 294 	301 	302
f 294 	302 	303
f 304 	271 	294
f 271 	70 	294
f 303 	304 	294
f 270 	274 	294
f 294 	273 	305
f 306 	305 	273
f 307 	308 	285
f 308 	309 	285
f 309 	310 	285
f 273 	285 	310
f 310 	311 	273
f 311 	312 	273
f 312 	313 	273
f 314 	273 	313
f 306 	273 	314
f 74 	70 	271
f 268 	70 	74
f 266 	265 	2
f 315 	322 	266
f 315 	266 	2
f 266 	322 	265
f 316 	322 	315
f 316 	315 	2
f 266 	265 	34
f 32 	265 	266
f 215 	213 	34
f 215 	32 	213
f 315 	266 	34
f 32 	266 	315
f 317 	322 	316
f 319 	268 	26
f 318 	322 	317
f 318 	317 	2
f 98 	27 	322
f 320 	318 	2
f 216 	215 	34
f 216 	32 	215
f 319 	26 	271
f 323 	319 	271
f 91 	74 	271
f 268 	74 	91
f 316 	315 	34
f 316 	32 	315
f 321 	8 	322
f 68 	22 	1
f 30 	40 	41
f 30 	41 	43
f 30 	43 	324
f 30 	324 	325
f 30 	325 	326
f 30 	326 	327
f 30 	327 	328
f 30 	328 	329
f 30 	329 	330
f 333 	30 	332
f 334 	30 	333
f 335 	30 	334
f 336 	30 	335
f 337 	30 	336
f 338 	30 	337
f 339 	30 	338
f 340 	30 	339
f 341 	30 	340
f 40 	30 	341
f 331 	332 	30
f 331 	30 	342
f 345 	346 	344
f 343 	344 	346
f 343 	346 	347
f 343 	347 	348
f 343 	348 	349
f 343 	349 	350
f 343 	350 	351
f 343 	351 	352
f 343 	352 	353
f 354 	30 	353
f 355 	30 	354
f 30 	31 	353
f 358 	30 	357
f 356 	357 	30
f 359 	30 	358
f 360 	30 	359
f 361 	30 	360
f 362 	30 	361
f 363 	30 	362
f 342 	30 	363
f 355 	356 	30
f 364 	7 	34
f 7 	364 	32
f 96 	91 	271
f 13 	96 	271
f 96 	268 	91
f 268 	96 	13
f 198 	393 	165
f 386 	384 	200
f 422 	420 	384
f 365 	424 	366
f 427 	426 	414
f 412 	411 	429
f 375 	165 	367
f 165 	375 	374
f 373 	165 	374
f 137 	367 	165
f 369 	368 	165
f 397 	165 	368
f 373 	372 	165
f 369 	165 	370
f 370 	165 	371
f 371 	165 	372
f 367 	137 	376
f 376 	137 	377
f 377 	137 	378
f 378 	137 	379
f 379 	137 	380
f 383 	382 	137
f 380 	137 	381
f 381 	137 	382
f 385 	410 	423
f 385 	422 	384
f 386 	200 	387
f 387 	200 	388
f 388 	200 	389
f 393 	392 	165
f 389 	200 	390
f 390 	200 	391
f 391 	200 	392
f 200 	165 	392
f 323 	268 	319
f 397 	396 	165
f 198 	165 	394
f 394 	165 	395
f 395 	165 	396
f 399 	398 	47
f 137 	47 	383
f 398 	383 	47
f 402 	44 	403
f 44 	42 	403
f 405 	404 	39
f 404 	403 	42
f 42 	39 	404
f 424 	423 	410
f 366 	424 	409
f 409 	424 	410
f 430 	429 	411
f 407 	37 	408
f 39 	38 	405
f 411 	408 	430
f 428 	427 	413
f 413 	412 	428
f 443 	166 	444
f 416 	200 	417
f 417 	200 	418
f 418 	200 	419
f 200 	384 	420
f 420 	419 	200
f 32 	364 	421
f 423 	422 	385
f 365 	366 	425
f 366 	415 	425
f 426 	425 	415
f 415 	414 	426
f 414 	413 	427
f 429 	428 	412
f 38 	37 	405
f 436 	435 	166
f 166 	433 	434
f 436 	166 	437
f 433 	166 	435
f 200 	445 	444
f 416 	446 	200
f 445 	200 	446
f 34 	33 	421
f 421 	364 	34
f 37 	35 	430
f 406 	405 	37
f 407 	406 	37
f 33 	32 	421
f 430 	408 	37
f 35 	36 	430
f 451 	110 	452
f 110 	109 	452
f 455 	101 	456
f 453 	108 	454
f 454 	101 	455
f 16 	15 	271
f 18 	268 	16
f 460 	323 	271
f 460 	268 	323
f 2 	1 	33
f 421 	364 	2
f 33 	421 	2
f 8 	321 	2
f 7 	8 	2
f 364 	7 	2
f 1 	22 	33
f 22 	322 	364
f 421 	33 	22
f 5 	3 	9
f 18 	16 	271
f 20 	18 	271
f 20 	268 	18
f 131 	2 	115
f 115 	2 	101
f 21 	2 	131
f 72 	101 	2
f 68 	1 	167
f 167 	1 	4
f 24 	23 	271
f 268 	460 	14
f 268 	23 	24
f 321 	320 	2
f 318 	320 	322
f 321 	322 	320
f 7 	364 	322
f 7 	322 	8
f 434 	462 	166
f 267 	166 	461
f 421 	22 	364
f 461 	166 	462
f 463 	459 	101
f 458 	101 	459
f 457 	101 	458
f 457 	456 	101
f 463 	101 	464
f 464 	101 	465
f 22 	67 	466
f 101 	267 	467
f 101 	467 	465
f 468 	469 	165
f 468 	165 	167
f 167 	6 	468
f 522 	182 	470
f 322 	470 	98
f 98 	470 	182
f 22 	466 	322
f 470 	322 	466
f 470 	466 	471
f 470 	471 	472
f 67 	179 	466
f 472 	522 	470
f 477 	482 	476
f 475 	476 	482
f 478 	482 	477
f 479 	482 	478
f 474 	475 	482
f 480 	492 	479
f 481 	482 	479
f 473 	474 	482
f 483 	487 	482
f 484 	487 	483
f 485 	486 	484
f 487 	484 	486
f 473 	482 	487
f 492 	480 	491
f 490 	491 	480
f 489 	490 	480
f 481 	479 	492
f 488 	489 	480
f 480 	509 	494
f 494 	495 	480
f 495 	496 	480
f 496 	497 	480
f 497 	498 	480
f 498 	499 	480
f 500 	480 	499
f 501 	480 	500
f 488 	480 	501
f 506 	493 	505
f 504 	505 	493
f 507 	493 	506
f 503 	504 	493
f 508 	493 	507
f 502 	503 	493
f 493 	494 	509
f 509 	510 	493
f 511 	493 	510
f 512 	493 	511
f 502 	493 	512
f 515 	493 	514
f 493 	515 	516
f 513 	514 	493
f 508 	517 	493
f 517 	518 	493
f 518 	519 	493
f 520 	493 	519
f 513 	493 	520
f 317 	316 	34
f 368 	369 	481
f 317 	32 	316
f 369 	370 	482
f 369 	482 	481
f 370 	371 	483
f 370 	483 	482
f 371 	372 	484
f 371 	484 	483
f 372 	373 	485
f 372 	485 	484
f 373 	374 	486
f 373 	486 	485
f 374 	375 	487
f 374 	487 	486
f 375 	367 	473
f 375 	473 	487
f 367 	376 	474
f 367 	474 	473
f 376 	377 	475
f 376 	475 	474
f 377 	378 	476
f 377 	476 	475
f 378 	379 	477
f 378 	477 	476
f 379 	380 	478
f 379 	478 	477
f 380 	381 	479
f 380 	479 	478
f 381 	382 	480
f 381 	480 	479
f 382 	383 	480
f 385 	384 	493
f 385 	493 	516
f 384 	386 	494
f 384 	494 	493
f 386 	387 	495
f 386 	495 	494
f 471 	466 	521
f 181 	182 	522
f 387 	388 	496
f 387 	496 	495
f 471 	521 	522
f 471 	522 	472
f 181 	522 	521
f 388 	389 	497
f 388 	497 	496
f 167 	4 	6
f 389 	390 	498
f 389 	498 	497
f 390 	391 	499
f 390 	499 	498
f 391 	392 	500
f 391 	500 	499
f 392 	393 	501
f 392 	501 	500
f 393 	198 	488
f 393 	488 	501
f 394 	489 	488
f 394 	488 	198
f 361 	309 	362
f 395 	490 	489
f 395 	489 	394
f 396 	491 	490
f 396 	490 	395
f 397 	492 	491
f 397 	491 	396
f 401 	44 	402
f 47 	46 	399
f 401 	400 	46
f 450 	110 	451
f 453 	452 	109
f 109 	108 	453
f 107 	454 	108
f 106 	454 	107
f 101 	454 	106
f 265 	216 	34
f 32 	216 	265
f 275 	329 	328
f 34 	11 	271
f 25 	27 	268
f 325 	324 	279
f 317 	34 	318
f 318 	32 	317
f 352 	295 	294
f 275 	274 	329
f 301 	347 	346
f 304 	303 	343
f 308 	363 	362
f 397 	368 	492
f 481 	492 	368
f 383 	398 	509
f 383 	509 	480
f 398 	399 	510
f 398 	510 	509
f 399 	400 	511
f 399 	511 	510
f 400 	401 	512
f 400 	512 	511
f 401 	402 	502
f 401 	502 	512
f 502 	402 	403
f 502 	403 	503
f 403 	404 	504
f 403 	504 	503
f 404 	405 	505
f 404 	505 	504
f 405 	406 	506
f 405 	506 	505
f 406 	407 	507
f 406 	507 	506
f 407 	408 	508
f 407 	508 	507
f 508 	408 	411
f 514 	366 	409
f 514 	409 	515
f 410 	516 	515
f 410 	515 	409
f 516 	410 	385
f 508 	411 	517
f 412 	518 	517
f 412 	517 	411
f 413 	519 	518
f 413 	518 	412
f 414 	520 	519
f 414 	519 	413
f 415 	513 	520
f 415 	520 	414
f 366 	514 	513
f 366 	513 	415
f 469 	5 	137
f 469 	137 	165
f 6 	5 	469
f 6 	469 	468
f 527 	532 	526
f 525 	526 	532
f 528 	532 	527
f 529 	532 	528
f 524 	525 	532
f 530 	539 	529
f 531 	529 	542
f 531 	532 	529
f 523 	524 	532
f 533 	537 	532
f 534 	537 	533
f 535 	536 	534
f 537 	534 	536
f 523 	532 	537
f 542 	529 	541
f 540 	541 	529
f 540 	529 	539
f 530 	560 	539
f 560 	561 	539
f 545 	546 	553
f 546 	547 	553
f 552 	553 	551
f 547 	548 	553
f 548 	549 	553
f 550 	553 	549
f 551 	553 	550
f 538 	563 	551
f 556 	557 	544
f 555 	556 	544
f 557 	558 	544
f 554 	555 	544
f 558 	559 	544
f 559 	568 	544
f 553 	554 	544
f 544 	545 	553
f 538 	539 	563
f 562 	539 	561
f 563 	539 	562
f 552 	551 	563
f 288 	338 	289
f 566 	543 	565
f 567 	543 	566
f 564 	565 	543
f 543 	544 	568
f 568 	569 	543
f 570 	543 	569
f 564 	543 	570
f 416 	417 	531
f 416 	531 	542
f 337 	290 	289
f 417 	418 	532
f 417 	532 	531
f 418 	419 	533
f 418 	533 	532
f 419 	420 	534
f 419 	534 	533
f 420 	422 	535
f 420 	535 	534
f 422 	423 	536
f 422 	536 	535
f 423 	424 	537
f 423 	537 	536
f 424 	365 	523
f 424 	523 	537
f 365 	425 	524
f 365 	524 	523
f 425 	426 	525
f 425 	525 	524
f 426 	427 	526
f 426 	526 	525
f 427 	428 	527
f 427 	527 	526
f 428 	429 	528
f 428 	528 	527
f 429 	430 	529
f 429 	529 	528
f 430 	431 	530
f 430 	530 	529
f 431 	432 	530
f 434 	433 	543
f 433 	435 	544
f 433 	544 	543
f 435 	436 	545
f 435 	545 	544
f 436 	437 	546
f 436 	546 	545
f 437 	438 	547
f 437 	547 	546
f 438 	439 	548
f 438 	548 	547
f 439 	440 	549
f 439 	549 	548
f 440 	441 	550
f 440 	550 	549
f 441 	442 	551
f 441 	551 	550
f 442 	201 	538
f 442 	538 	551
f 443 	539 	538
f 443 	538 	201
f 444 	540 	539
f 444 	539 	443
f 445 	541 	540
f 445 	540 	444
f 446 	542 	541
f 446 	541 	445
f 542 	446 	416
f 432 	447 	560
f 432 	560 	530
f 447 	448 	561
f 447 	561 	560
f 448 	449 	562
f 448 	562 	561
f 449 	450 	563
f 449 	563 	562
f 450 	451 	552
f 450 	552 	563
f 552 	451 	452
f 552 	452 	553
f 452 	453 	554
f 452 	554 	553
f 62 	88 	50
f 61 	89 	62
f 60 	90 	61
f 88 	62 	89
f 28 	93 	59
f 77 	28 	78
f 52 	51 	87
f 87 	86 	52
f 85 	84 	53
f 86 	85 	52
f 84 	83 	54
f 453 	454 	555
f 453 	555 	554
f 454 	455 	556
f 454 	556 	555
f 205 	204 	9
f 199 	137 	202
f 455 	456 	557
f 455 	557 	556
f 456 	457 	558
f 456 	558 	557
f 458 	559 	558
f 458 	558 	457
f 197 	196 	137
f 195 	49 	137
f 49 	48 	137
f 197 	137 	199
f 195 	137 	196
f 202 	137 	203
f 137 	204 	203
f 137 	9 	204
f 205 	9 	206
f 206 	9 	207
f 305 	306 	354
f 207 	9 	208
f 357 	314 	313
f 209 	9 	210
f 271 	23 	20
f 208 	9 	209
f 23 	268 	20
f 64 	63 	9
f 24 	271 	25
f 63 	212 	9
f 210 	9 	211
f 211 	9 	212
f 27 	11 	268
f 55 	83 	214
f 54 	83 	55
f 52 	85 	53
f 88 	87 	51
f 447 	432 	214
f 80 	81 	447
f 30 	330 	270
f 276 	328 	277
f 318 	34 	320
f 327 	278 	277
f 320 	32 	318
f 321 	32 	320
f 280 	279 	324
f 280 	324 	281
f 281 	41 	272
f 272 	41 	273
f 331 	284 	283
f 286 	285 	340
f 288 	287 	338
f 340 	287 	286
f 289 	338 	337
f 559 	458 	459
f 565 	267 	461
f 565 	461 	566
f 462 	567 	566
f 462 	566 	461
f 462 	434 	567
f 543 	567 	434
f 559 	459 	568
f 463 	568 	459
f 464 	569 	568
f 464 	568 	463
f 465 	570 	569
f 465 	569 	464
f 467 	564 	570
f 467 	570 	465
f 267 	565 	564
f 267 	564 	467
f 293 	333 	282
f 335 	291 	290
f 331 	283 	332
f 282 	332 	283
f 296 	295 	351
f 306 	355 	354
f 298 	349 	299
f 348 	299 	349
f 348 	347 	299
f 300 	347 	301
f 34 	271 	304
f 346 	302 	301
f 363 	307 	284
f 344 	303 	302
f 344 	343 	303
f 363 	308 	307
f 308 	362 	309
f 361 	360 	309
f 310 	309 	360
f 360 	311 	310
f 357 	313 	312
f 355 	306 	314
f 22 	68 	67
f 25 	271 	27
f 27 	271 	11
f 24 	25 	268
f 32 	268 	11
f 24 	23 	72
f 14 	72 	15
f 18 	16 	72
f 460 	72 	14
f 32 	269 	268
f 30 	270 	269
f 91 	72 	96
f 274 	270 	330
f 330 	329 	274
f 328 	276 	275
f 327 	277 	328
f 91 	96 	98
f 13 	98 	96
f 324 	43 	281
f 281 	43 	41
f 12 	13 	72
f 98 	67 	74
f 12 	19 	98
f 273 	40 	285
f 285 	341 	340
f 287 	340 	339
f 287 	339 	338
f 291 	335 	292
f 293 	292 	333
f 72 	19 	12
f 332 	282 	333
f 354 	294 	305
f 12 	98 	13
f 319 	98 	26
f 295 	352 	351
f 351 	297 	296
f 349 	298 	297
f 297 	350 	349
f 300 	299 	347
f 19 	72 	26
f 19 	26 	98
f 311 	360 	359
f 312 	311 	358
f 312 	358 	357
f 304 	343 	34
f 320 	34 	321
f 321 	34 	8
f 319 	26 	72
f 321 	8 	32
f 8 	7 	32
f 31 	269 	32
f 269 	31 	30
f 327 	326 	278
f 325 	279 	278
f 326 	325 	278
f 460 	98 	323
f 273 	41 	40
f 323 	319 	72
f 323 	72 	460
f 341 	285 	40
f 319 	323 	98
f 284 	331 	342
f 14 	15 	98
f 284 	342 	363
f 16 	98 	15
f 337 	336 	290
f 336 	335 	290
f 14 	98 	460
f 334 	292 	335
f 292 	334 	333
f 294 	354 	353
f 353 	352 	294
f 297 	351 	350
f 345 	302 	346
f 344 	302 	345
f 359 	358 	311
f 356 	314 	357
f 314 	356 	355
# 1212 faces

 #end of obj_0

