# Object Export From Tinkercad Server 2015

mtllib obj.mtl

o obj_0
v 37.625 		-23 		0
v 37.625 		-23 		20
v 37.625 		-5 		20
v 37.625 		-2 		0
v 37.625 		-5 		30
v 37.625 		-2 		30
v 40 		-5 		20
v 40 		-17 		20
v 40 		-12 		20
v 40 		-9 		20
v 39 		-23.5 		19
v 39 		-23.435 		18.996
v 39 		-23.371 		18.983
v 39 		-23.309 		18.962
v 39 		-23.25 		18.933
v 39 		-23.196 		18.897
v 39 		-23.146 		18.854
v 39 		-23.103 		18.804
v 39 		-23.067 		18.75
v 39 		-23.038 		18.691
v 39 		-23.017 		18.629
v 39 		-23.004 		18.565
v 39 		-23 		18.5
v 39 		-23.004 		18.435
v 39 		-24 		18.5
v 39 		-23.996 		18.565
v 39 		-23.983 		18.629
v 46 		-9 		20
v 45.974 		-9.392 		20
v 39 		-23.962 		18.691
v 39 		-23.933 		18.75
v 39 		-23.897 		18.804
v 39 		-23.854 		18.854
v 45.974 		-8.608 		20
v 39 		-23.804 		18.897
v 39 		-23.75 		18.933
v 39 		-23.691 		18.962
v 39 		-23.629 		18.983
v 39 		-23.565 		18.996
v 45.898 		-8.224 		20
v 39 		-23.996 		18.435
v 45.8872 		-8.192 		20
v 43 		-12 		20
v 39 		-23.017 		18.371
v 43.392 		-11.974 		20
v 39 		-23.038 		18.309
v 39 		-23.067 		18.25
v 39 		-23.103 		18.196
v 43.776 		-11.898 		20
v 44.148 		-11.772 		20
v 44.5 		-11.598 		20
v 44.826 		-11.38 		20
v 45.056 		-11.1781 		20
v 40.96 		-11.1921 		20
v 41.174 		-11.38 		20
v 41.5 		-11.598 		20
v 39 		-23.146 		18.146
v 39 		-23.196 		18.103
v 39 		-23.25 		18.067
v 39 		-23.309 		18.038
v 39 		-23.371 		18.017
v 39 		-23.435 		18.004
v 39 		-23.5 		18
v 41.852 		-11.772 		20
v 42.224 		-11.898 		20
v 42.608 		-11.974 		20
v 40.102 		-8.224 		20
v 40.1128 		-8.192 		20
v 40.026 		-8.608 		20
v 39 		-23.565 		18.004
v 39 		-23.629 		18.017
v 39 		-23.691 		18.038
v 39 		-23.75 		18.067
v 40.026 		-9.392 		20
v 39 		-23.804 		18.103
v 39 		-23.854 		18.146
v 39 		-23.897 		18.196
v 39 		-23.933 		18.25
v 39 		-23.962 		18.309
v 39 		-23.983 		18.371
v 40.102 		-9.776 		20
v 40.123 		-9.838 		20
v 40.228 		-10.148 		20
v 40.402 		-10.5 		20
v 40.62 		-10.826 		20
v 40.879 		-11.121 		20
v 50.688 		-23 		18.5
v 46 		-14 		20
v 45.898 		-16.224 		20
v 50.176 		-23 		18.5
v 46.592 		-23 		18.5
v 47.104 		-23 		18.5
v 45.9297 		-16.384 		20
v 45.772 		-15.852 		20
v 45.598 		-15.5 		20
v 45.38 		-15.174 		20
v 39.936 		-23 		18.5
v 40 		-23 		18.5
v 45.121 		-14.879 		20
v 45.056 		-14.8219 		20
v 44.826 		-14.62 		20
v 44.5 		-14.402 		20
v 44.148 		-14.228 		20
v 43.776 		-14.102 		20
v 43.392 		-14.026 		20
v 43 		-14 		20
v 42.608 		-14.026 		20
v 42.224 		-14.102 		20
v 40.248 		-23 		3.998
v 41.852 		-14.228 		20
v 41.5 		-14.402 		20
v 41.174 		-14.62 		20
v 40.96 		-14.8079 		20
v 43.008 		-23 		18.5
v 43.52 		-23 		18.5
v 40.879 		-14.879 		20
v 40.62 		-15.174 		20
v 49.664 		-23 		18.5
v 40.402 		-15.5 		20
v 40.228 		-15.852 		20
v 49 		-23 		18.5
v 48.64 		-23 		18.5
v 40.102 		-16.224 		20
v 53.76 		-23 		18.5
v 54.272 		-23 		18.5
v 40.0703 		-16.384 		20
v 46 		-20 		20
v 45.121 		-19.121 		20
v 45.056 		-19.1781 		20
v 45.38 		-18.826 		20
v 45.598 		-18.5 		20
v 45.772 		-18.148 		20
v 45.898 		-17.776 		20
v 45.974 		-17.392 		20
v 46 		-17 		20
v 45.974 		-16.608 		20
v 43 		-20 		20
v 43.392 		-19.974 		20
v 43.776 		-19.898 		20
v 44.148 		-19.772 		20
v 44.5 		-19.598 		20
v 44.826 		-19.38 		20
v 41.174 		-19.38 		20
v 49.152 		-23 		18.5
v 40.96 		-19.1921 		20
v 41.5 		-19.598 		20
v 41.852 		-19.772 		20
v 42.224 		-19.898 		20
v 42.608 		-19.974 		20
v 48.128 		-23 		18.5
v 40.026 		-16.608 		20
v 40.199 		-20 		20
v 40.026 		-17.392 		20
v 40.102 		-17.776 		20
v 40.228 		-18.148 		20
v 40.402 		-18.5 		20
v 40.62 		-18.826 		20
v 40.879 		-19.121 		20
v 49 		-5 		20
v 47.616 		-23 		18.5
v 43 		-6 		20.2
v 42.608 		-6.026 		20.2
v 42.224 		-6.102 		20.2
v 41.852 		-6.228 		20.2
v 41.5 		-6.402 		20.2
v 41.174 		-6.62 		20.2
v 45.772 		-7.852 		20.2
v 45.598 		-7.5 		20.2
v 45.38 		-7.174 		20.2
v 45.121 		-6.879 		20.2
v 44.826 		-6.62 		20.2
v 44.5 		-6.402 		20.2
v 44.148 		-6.228 		20.2
v 43.776 		-6.102 		20.2
v 43.392 		-6.026 		20.2
v 55.253 		-23 		3.998
v 57.625 		-23 		0
v 40.879 		-6.879 		20.2
v 40.62 		-7.174 		20.2
v 40.402 		-7.5 		20.2
v 40.228 		-7.852 		20.2
v 56 		-23 		18.5
v 46 		-9 		20.2
v 45.974 		-8.608 		20.2
v 45.898 		-8.224 		20.2
v 45.121 		-11.121 		20.2
v 57.625 		-23 		20
v 45.38 		-10.826 		20.2
v 55.296 		-23 		18.5
v 45.598 		-10.5 		20.2
v 45.772 		-10.148 		20.2
v 45.898 		-9.776 		20.2
v 45.974 		-9.392 		20.2
v 42.608 		-11.974 		20.2
v 43 		-12 		20.2
v 43.392 		-11.974 		20.2
v 43.776 		-11.898 		20.2
v 44.148 		-11.772 		20.2
v 44.5 		-11.598 		20.2
v 44.826 		-11.38 		20.2
v 41.174 		-11.38 		20.2
v 41.5 		-11.598 		20.2
v 41.852 		-11.772 		20.2
v 42.224 		-11.898 		20.2
v 40.228 		-10.148 		20.2
v 40.402 		-10.5 		20.2
v 40.62 		-10.826 		20.2
v 40.879 		-11.121 		20.2
v 46.08 		-23 		18.5
v 40.102 		-8.224 		20.2
v 40.026 		-8.608 		20.2
v 40 		-9 		20.2
v 40.026 		-9.392 		20.2
v 40.102 		-9.776 		20.2
v 45.772 		-7.852 		20
v 45.598 		-7.5 		20
v 45.38 		-7.174 		20
v 45.121 		-6.879 		20
v 55.253 		-23 		18.5
v 44.826 		-6.62 		20
v 44.5 		-6.402 		20
v 55.253 		-23 		18.003
v 44.148 		-6.228 		20
v 43.776 		-6.102 		20
v 43.392 		-6.026 		20
v 43 		-6 		20
v 42.608 		-6.026 		20
v 42.224 		-6.102 		20
v 41.852 		-6.228 		20
v 41.5 		-6.402 		20
v 57.625 		-5 		20
v 57.625 		-20 		20
v 41.174 		-6.62 		20
v 57.625 		-2 		0
v 55.128 		-18.998 		3.998
v 55.128 		-5 		3.998
v 55.128 		-5 		18.003
v 55.128 		-18.998 		18.003
v 55.253 		-18.998 		18.003
v 55.253 		-18.998 		3.998
v 42.496 		-23 		18.5
v 55 		-9 		20
v 55 		-14 		20
v 40.96 		-6.8079 		20
v 55 		-17 		20
v 40.879 		-6.879 		20
v 45.568 		-23 		18.5
v 52 		-14 		20
v 40.62 		-7.174 		20
v 40.402 		-7.5 		20
v 53.248 		-23 		18.5
v 40.228 		-7.852 		20
v 40.123 		-8.162 		20
v 45.121 		-11.121 		20
v 45.38 		-10.826 		20
v 52 		-12 		20
v 45.598 		-10.5 		20
v 45.772 		-10.148 		20
v 45.898 		-9.776 		20
v 45.056 		-23 		18.5
v 52 		-6 		20
v 54.8872 		-8.192 		20
v 54.772 		-7.852 		20
v 54.598 		-7.5 		20
v 54.38 		-7.174 		20
v 54.121 		-6.879 		20
v 53.826 		-6.62 		20
v 44.544 		-23 		18.5
v 53.5 		-6.402 		20
v 53.248 		-6.2774 		20
v 53.148 		-6.228 		20
v 52.776 		-6.102 		20
v 52.392 		-6.026 		20
v 45.772 		-15.852 		20.2
v 45.598 		-15.5 		20.2
v 45.38 		-15.174 		20.2
v 45.121 		-14.879 		20.2
v 45.898 		-16.224 		20.2
v 51.608 		-6.026 		20
v 51.224 		-6.102 		20
v 50.852 		-6.228 		20
v 43 		-14 		20.2
v 42.608 		-14.026 		20.2
v 42.224 		-14.102 		20.2
v 41.852 		-14.228 		20.2
v 41.5 		-14.402 		20.2
v 41.174 		-14.62 		20.2
v 50.5 		-6.402 		20
v 44.826 		-14.62 		20.2
v 44.5 		-14.402 		20.2
v 44.148 		-14.228 		20.2
v 43.776 		-14.102 		20.2
v 43.392 		-14.026 		20.2
v 50.174 		-6.62 		20
v 40.879 		-14.879 		20.2
v 40.62 		-15.174 		20.2
v 40.402 		-15.5 		20.2
v 40.228 		-15.852 		20.2
v 40.102 		-16.224 		20.2
v 49.879 		-6.879 		20
v 49.62 		-7.174 		20
v 49.402 		-7.5 		20
v 46 		-17 		20.2
v 45.974 		-16.608 		20.2
v 49.228 		-7.852 		20
v 45.121 		-19.121 		20.2
v 45.38 		-18.826 		20.2
v 45.598 		-18.5 		20.2
v 45.772 		-18.148 		20.2
v 45.898 		-17.776 		20.2
v 45.974 		-17.392 		20.2
v 49.1128 		-8.192 		20
v 42.608 		-19.974 		20.2
v 43 		-20 		20.2
v 43.392 		-19.974 		20.2
v 43.776 		-19.898 		20.2
v 44.148 		-19.772 		20.2
v 44.5 		-19.598 		20.2
v 44.826 		-19.38 		20.2
v 53.5 		-11.598 		20
v 41.174 		-19.38 		20.2
v 41.5 		-19.598 		20.2
v 53.248 		-11.7226 		20
v 41.852 		-19.772 		20.2
v 42.224 		-19.898 		20.2
v 53.826 		-11.38 		20
v 54.121 		-11.121 		20
v 54.38 		-10.826 		20
v 40.228 		-18.148 		20.2
v 40.402 		-18.5 		20.2
v 40.62 		-18.826 		20.2
v 40.879 		-19.121 		20.2
v 54.598 		-10.5 		20
v 40.026 		-16.608 		20.2
v 40 		-17 		20.2
v 40.026 		-17.392 		20.2
v 40.102 		-17.776 		20.2
v 44.032 		-23 		18.5
v 54.772 		-10.148 		20
v 54.898 		-9.776 		20
v 54.974 		-9.392 		20
v 54.974 		-8.608 		20
v 54.898 		-8.224 		20
v 52.392 		-11.974 		20
v 52.776 		-11.898 		20
v 53.148 		-11.772 		20
v 49.228 		-10.148 		20
v 49.152 		-9.9236 		20
v 49.402 		-10.5 		20
v 49.62 		-10.826 		20
v 49.879 		-11.121 		20
v 50.174 		-11.38 		20
v 50.5 		-11.598 		20
v 50.852 		-11.772 		20
v 51.224 		-11.898 		20
v 51.608 		-11.974 		20
v 49.102 		-8.224 		20
v 49.026 		-8.608 		20
v 49 		-9 		20
v 49.026 		-9.392 		20
v 49.102 		-9.776 		20
v 54.9297 		-16.384 		20
v 54.898 		-16.224 		20
v 54.772 		-15.852 		20
v 54.598 		-15.5 		20
v 54.38 		-15.174 		20
v 54.121 		-14.879 		20
v 53.826 		-14.62 		20
v 53.5 		-14.402 		20
v 53.248 		-14.2774 		20
v 53.148 		-14.228 		20
v 52.776 		-14.102 		20
v 52.392 		-14.026 		20
v 51.608 		-14.026 		20
v 51.224 		-14.102 		20
v 50.852 		-14.228 		20
v 50.5 		-14.402 		20
v 50.174 		-14.62 		20
v 49.879 		-14.879 		20
v 49.62 		-15.174 		20
v 49.402 		-15.5 		20
v 49.228 		-15.852 		20
v 49.152 		-16.0764 		20
v 49.102 		-16.224 		20
v 52.736 		-23 		18.5
v 41.984 		-23 		18.5
v 49.0703 		-16.384 		20
v 53.5 		-19.598 		20
v 53.248 		-19.7226 		20
v 53.826 		-19.38 		20
v 54.121 		-19.121 		20
v 52 		-20 		20
v 54.38 		-18.826 		20
v 54.598 		-18.5 		20
v 54.772 		-18.148 		20
v 54.898 		-17.776 		20
v 54.974 		-17.392 		20
v 54.974 		-16.608 		20
v 52.392 		-19.974 		20
v 52.776 		-19.898 		20
v 53.148 		-19.772 		20
v 56 		-23.5 		19
v 49.228 		-18.148 		20
v 49.152 		-17.9236 		20
v 56 		-23.004 		18.435
v 56 		-23.004 		18.565
v 56 		-23.017 		18.629
v 56 		-23.038 		18.691
v 49.402 		-18.5 		20
v 49.62 		-18.826 		20
v 49.879 		-19.121 		20
v 56 		-23.067 		18.75
v 56 		-23.103 		18.804
v 56 		-23.146 		18.854
v 56 		-23.196 		18.897
v 50.174 		-19.38 		20
v 50.5 		-19.598 		20
v 50.852 		-19.772 		20
v 56 		-23.25 		18.933
v 56 		-23.309 		18.962
v 56 		-23.371 		18.983
v 56 		-23.435 		18.996
v 51.224 		-19.898 		20
v 51.608 		-19.974 		20
v 49.026 		-16.608 		20
v 56 		-23.996 		18.565
v 56 		-24 		18.5
v 56 		-23.996 		18.435
v 49 		-17 		20
v 56 		-23.565 		18.996
v 56 		-23.629 		18.983
v 56 		-23.691 		18.962
v 56 		-23.75 		18.933
v 56 		-23.804 		18.897
v 56 		-23.854 		18.854
v 56 		-23.897 		18.804
v 56 		-23.933 		18.75
v 56 		-23.962 		18.691
v 56 		-23.983 		18.629
v 49.026 		-17.392 		20
v 49.102 		-17.776 		20
v 57.625 		-2 		30
v 57.625 		-5 		30
v 56 		-23.5 		18
v 56 		-23.435 		18.004
v 56 		-23.371 		18.017
v 56 		-23.309 		18.038
v 56 		-23.25 		18.067
v 56 		-23.196 		18.103
v 56 		-23.146 		18.146
v 56 		-23.103 		18.196
v 56 		-23.067 		18.25
v 56 		-23.038 		18.309
v 56 		-23.017 		18.371
v 54.121 		-6.879 		20.2
v 53.826 		-6.62 		20.2
v 53.5 		-6.402 		20.2
v 54.772 		-7.852 		20.2
v 54.598 		-7.5 		20.2
v 54.38 		-7.174 		20.2
v 56 		-23.629 		18.017
v 56 		-23.565 		18.004
v 56 		-23.983 		18.371
v 56 		-23.962 		18.309
v 56 		-23.933 		18.25
v 56 		-23.897 		18.196
v 56 		-23.854 		18.146
v 56 		-23.804 		18.103
v 56 		-23.75 		18.067
v 56 		-23.691 		18.038
v 52 		-6 		20.2
v 51.608 		-6.026 		20.2
v 51.224 		-6.102 		20.2
v 50.852 		-6.228 		20.2
v 50.5 		-6.402 		20.2
v 50.174 		-6.62 		20.2
v 49.879 		-6.879 		20.2
v 49.62 		-7.174 		20.2
v 49.402 		-7.5 		20.2
v 49.228 		-7.852 		20.2
v 53.148 		-6.228 		20.2
v 52.776 		-6.102 		20.2
v 52.392 		-6.026 		20.2
v 41.472 		-23 		18.5
v 55 		-9 		20.2
v 54.974 		-8.608 		20.2
v 54.898 		-8.224 		20.2
v 53.5 		-11.598 		20.2
v 53.826 		-11.38 		20.2
v 54.121 		-11.121 		20.2
v 54.38 		-10.826 		20.2
v 54.598 		-10.5 		20.2
v 54.772 		-10.148 		20.2
v 54.898 		-9.776 		20.2
v 54.974 		-9.392 		20.2
v 51.608 		-11.974 		20.2
v 52 		-12 		20.2
v 40.96 		-23 		18.5
v 52.392 		-11.974 		20.2
v 52.776 		-11.898 		20.2
v 53.148 		-11.772 		20.2
v 49.228 		-10.148 		20.2
v 49.402 		-10.5 		20.2
v 49.62 		-10.826 		20.2
v 49.879 		-11.121 		20.2
v 50.174 		-11.38 		20.2
v 50.5 		-11.598 		20.2
v 50.852 		-11.772 		20.2
v 51.224 		-11.898 		20.2
v 49 		-9 		20.2
v 49.026 		-9.392 		20.2
v 49.102 		-9.776 		20.2
v 49.102 		-8.224 		20.2
v 49.026 		-8.608 		20.2
v 52.224 		-23 		18.5
v 40.448 		-23 		18.5
v 40.248 		-23 		18.5
v 40.248 		-23 		18.003
v 54.784 		-23 		18.5
v 40.248 		-22 		3.998
v 54.121 		-14.879 		20.2
v 53.826 		-14.62 		20.2
v 53.5 		-14.402 		20.2
v 54.898 		-16.224 		20.2
v 54.772 		-15.852 		20.2
v 54.598 		-15.5 		20.2
v 54.38 		-15.174 		20.2
v 52 		-14 		20.2
v 51.608 		-14.026 		20.2
v 51.224 		-14.102 		20.2
v 50.852 		-14.228 		20.2
v 50.5 		-14.402 		20.2
v 50.174 		-14.62 		20.2
v 49.879 		-14.879 		20.2
v 49.62 		-15.174 		20.2
v 49.402 		-15.5 		20.2
v 49.228 		-15.852 		20.2
v 53.148 		-14.228 		20.2
v 52.776 		-14.102 		20.2
v 52.392 		-14.026 		20.2
v 49.102 		-16.224 		20.2
v 55 		-17 		20.2
v 54.974 		-16.608 		20.2
v 53.5 		-19.598 		20.2
v 53.826 		-19.38 		20.2
v 54.121 		-19.121 		20.2
v 54.38 		-18.826 		20.2
v 54.598 		-18.5 		20.2
v 54.772 		-18.148 		20.2
v 54.898 		-17.776 		20.2
v 54.974 		-17.392 		20.2
v 51.608 		-19.974 		20.2
v 52 		-20 		20.2
v 52.392 		-19.974 		20.2
v 52.776 		-19.898 		20.2
v 53.148 		-19.772 		20.2
v 49.228 		-18.148 		20.2
v 49.402 		-18.5 		20.2
v 49.62 		-18.826 		20.2
v 49.879 		-19.121 		20.2
v 50.174 		-19.38 		20.2
v 50.5 		-19.598 		20.2
v 50.852 		-19.772 		20.2
v 51.224 		-19.898 		20.2
v 49 		-17 		20.2
v 49.026 		-17.392 		20.2
v 49.102 		-17.776 		20.2
v 49.026 		-16.608 		20.2
v 40.248 		-22 		18.003
v 40.123 		-22 		3.998
v 40.123 		-22 		18.003
v 40.123 		-5 		3.998
v 40.123 		-5 		18.003
v 51.712 		-23 		18.5
v 51.2 		-23 		18.5
# 575 vertices

g group_0_2829873

usemtl color_2829873
s 0

f 165 	168 	164
f 163 	164 	168
f 166 	168 	165
f 162 	163 	168
f 167 	168 	166
f 168 	169 	162
f 169 	170 	162
f 161 	162 	170
f 171 	175 	170
f 172 	175 	171
f 173 	174 	172
f 175 	172 	174
f 161 	170 	175
f 179 	180 	178
f 180 	181 	178
f 181 	210 	178
f 210 	211 	178
f 167 	166 	185
f 184 	185 	166
f 183 	184 	166
f 186 	188 	166
f 188 	190 	166
f 190 	191 	166
f 192 	166 	191
f 193 	166 	192
f 183 	166 	193
f 196 	166 	195
f 197 	166 	196
f 198 	166 	197
f 199 	166 	198
f 200 	166 	199
f 186 	166 	200
f 194 	195 	166
f 201 	202 	166
f 202 	203 	166
f 204 	166 	203
f 194 	166 	204
f 208 	166 	207
f 206 	207 	166
f 201 	166 	208
f 205 	206 	166
f 211 	212 	178
f 212 	213 	178
f 166 	178 	213
f 213 	214 	166
f 205 	166 	214
f 42 	215 	167
f 215 	216 	168
f 215 	168 	167
f 216 	217 	169
f 216 	169 	168
f 217 	218 	170
f 217 	170 	169
f 218 	220 	171
f 218 	171 	170
f 220 	221 	172
f 220 	172 	171
f 221 	223 	173
f 221 	173 	172
f 223 	224 	174
f 223 	174 	173
f 224 	225 	175
f 224 	175 	174
f 225 	226 	161
f 225 	161 	175
f 226 	227 	162
f 226 	162 	161
f 227 	228 	163
f 227 	163 	162
f 228 	229 	164
f 228 	164 	163
f 229 	230 	165
f 229 	165 	164
f 230 	233 	166
f 230 	166 	165
f 233 	244 	166
f 244 	246 	178
f 244 	178 	166
f 246 	249 	179
f 246 	179 	178
f 249 	250 	180
f 249 	180 	179
f 250 	252 	181
f 250 	181 	180
f 68 	210 	253
f 210 	181 	253
f 252 	253 	181
f 53 	254 	186
f 254 	255 	188
f 254 	188 	186
f 255 	257 	190
f 255 	190 	188
f 257 	258 	191
f 257 	191 	190
f 258 	259 	192
f 258 	192 	191
f 259 	29 	193
f 259 	193 	192
f 29 	28 	183
f 29 	183 	193
f 34 	184 	183
f 34 	183 	28
f 40 	185 	184
f 40 	184 	34
f 40 	42 	185
f 167 	185 	42
f 45 	196 	195
f 45 	195 	43
f 49 	197 	196
f 49 	196 	45
f 50 	198 	197
f 50 	197 	49
f 51 	199 	198
f 51 	198 	50
f 52 	200 	199
f 52 	199 	51
f 52 	53 	200
f 186 	200 	53
f 55 	201 	54
f 56 	202 	201
f 56 	201 	55
f 64 	203 	202
f 64 	202 	56
f 65 	204 	203
f 65 	203 	64
f 66 	194 	204
f 66 	204 	65
f 43 	195 	194
f 43 	194 	66
f 68 	67 	210
f 67 	69 	211
f 67 	211 	210
f 69 	10 	212
f 69 	212 	211
f 212 	10 	74
f 212 	74 	213
f 74 	81 	214
f 74 	214 	213
f 83 	205 	82
f 205 	214 	82
f 81 	82 	214
f 83 	84 	206
f 83 	206 	205
f 84 	85 	207
f 84 	207 	206
f 85 	86 	208
f 85 	208 	207
f 86 	54 	208
f 201 	208 	54
f 277 	306 	276
f 275 	276 	306
f 274 	275 	306
f 286 	290 	285
f 284 	285 	290
f 287 	290 	286
f 283 	284 	290
f 295 	296 	290
f 287 	295 	290
f 282 	283 	290
f 291 	292 	290
f 293 	290 	292
f 282 	290 	293
f 297 	290 	296
f 298 	290 	297
f 334 	290 	299
f 335 	290 	334
f 299 	290 	298
f 278 	274 	306
f 304 	278 	306
f 306 	307 	304
f 303 	304 	307
f 308 	311 	307
f 309 	310 	308
f 311 	308 	310
f 303 	307 	311
f 315 	277 	314
f 316 	277 	315
f 317 	277 	316
f 318 	277 	317
f 319 	277 	318
f 306 	277 	319
f 313 	314 	277
f 332 	321 	277
f 321 	322 	277
f 322 	324 	277
f 325 	277 	324
f 313 	277 	325
f 332 	289 	331
f 331 	289 	330
f 277 	289 	332
f 330 	289 	329
f 289 	290 	336
f 335 	336 	290
f 337 	289 	336
f 329 	289 	337
f 93 	89 	278
f 89 	94 	274
f 89 	274 	278
f 95 	275 	274
f 95 	274 	94
f 96 	276 	275
f 96 	275 	95
f 99 	277 	276
f 99 	276 	96
f 99 	100 	277
f 100 	101 	289
f 100 	289 	277
f 101 	102 	290
f 101 	290 	289
f 102 	103 	291
f 102 	291 	290
f 103 	104 	292
f 103 	292 	291
f 104 	105 	293
f 104 	293 	292
f 105 	106 	282
f 105 	282 	293
f 106 	107 	283
f 106 	283 	282
f 107 	108 	284
f 107 	284 	283
f 108 	110 	285
f 108 	285 	284
f 110 	111 	286
f 110 	286 	285
f 111 	112 	287
f 111 	287 	286
f 295 	287 	113
f 112 	113 	287
f 113 	116 	295
f 116 	117 	296
f 116 	296 	295
f 117 	119 	297
f 117 	297 	296
f 119 	120 	298
f 119 	298 	297
f 299 	298 	123
f 120 	123 	298
f 334 	299 	126
f 123 	126 	299
f 129 	128 	306
f 128 	130 	307
f 128 	307 	306
f 130 	131 	308
f 130 	308 	307
f 131 	132 	309
f 131 	309 	308
f 132 	133 	310
f 132 	310 	309
f 133 	134 	311
f 133 	311 	310
f 134 	135 	303
f 134 	303 	311
f 136 	304 	303
f 136 	303 	135
f 136 	93 	304
f 278 	304 	93
f 138 	315 	314
f 138 	314 	137
f 139 	316 	315
f 139 	315 	138
f 140 	317 	316
f 140 	316 	139
f 141 	318 	317
f 141 	317 	140
f 142 	319 	318
f 142 	318 	141
f 142 	129 	319
f 306 	319 	129
f 332 	145 	321
f 143 	321 	145
f 146 	322 	321
f 146 	321 	143
f 147 	324 	322
f 147 	322 	146
f 148 	325 	324
f 148 	324 	147
f 149 	313 	325
f 149 	325 	148
f 137 	314 	313
f 137 	313 	149
f 126 	151 	334
f 151 	8 	335
f 151 	335 	334
f 335 	8 	153
f 335 	153 	336
f 153 	154 	337
f 153 	337 	336
f 155 	329 	154
f 329 	337 	154
f 155 	156 	330
f 155 	330 	329
f 156 	157 	331
f 156 	331 	330
f 157 	158 	332
f 157 	332 	331
f 332 	158 	145
f 457 	488 	456
f 458 	459 	489
f 456 	488 	455
f 459 	460 	489
f 455 	489 	460
f 474 	475 	473
f 472 	473 	475
f 475 	476 	472
f 476 	477 	472
f 471 	472 	477
f 478 	457 	477
f 479 	457 	478
f 480 	457 	479
f 457 	481 	477
f 482 	477 	481
f 483 	477 	482
f 471 	477 	483
f 487 	458 	489
f 486 	487 	489
f 489 	455 	488
f 489 	490 	486
f 485 	486 	490
f 491 	495 	490
f 492 	495 	491
f 493 	494 	492
f 495 	492 	494
f 485 	490 	495
f 499 	457 	497
f 500 	457 	499
f 501 	457 	500
f 488 	457 	501
f 496 	497 	457
f 480 	513 	457
f 502 	503 	457
f 503 	504 	457
f 504 	505 	457
f 505 	506 	457
f 506 	507 	457
f 507 	508 	457
f 509 	457 	508
f 496 	457 	509
f 502 	457 	512
f 511 	512 	457
f 510 	511 	457
f 514 	457 	513
f 510 	457 	514
f 262 	263 	458
f 262 	458 	487
f 263 	264 	459
f 263 	459 	458
f 264 	265 	460
f 264 	460 	459
f 265 	266 	455
f 265 	455 	460
f 266 	267 	456
f 266 	456 	455
f 267 	269 	457
f 267 	457 	456
f 269 	270 	457
f 270 	271 	481
f 270 	481 	457
f 271 	272 	482
f 271 	482 	481
f 272 	273 	483
f 272 	483 	482
f 273 	261 	471
f 273 	471 	483
f 261 	279 	472
f 261 	472 	471
f 279 	280 	473
f 279 	473 	472
f 280 	281 	474
f 280 	474 	473
f 281 	288 	475
f 281 	475 	474
f 288 	294 	476
f 288 	476 	475
f 294 	300 	477
f 294 	477 	476
f 300 	301 	478
f 300 	478 	477
f 301 	302 	479
f 301 	479 	478
f 302 	305 	480
f 302 	480 	479
f 305 	312 	480
f 323 	320 	488
f 320 	326 	489
f 320 	489 	488
f 326 	327 	490
f 326 	490 	489
f 327 	328 	491
f 327 	491 	490
f 328 	333 	492
f 328 	492 	491
f 333 	339 	493
f 333 	493 	492
f 339 	340 	494
f 339 	494 	493
f 340 	341 	495
f 340 	495 	494
f 341 	242 	485
f 341 	485 	495
f 342 	486 	485
f 342 	485 	242
f 343 	487 	486
f 343 	486 	342
f 487 	343 	262
f 344 	499 	497
f 344 	497 	256
f 345 	500 	499
f 345 	499 	344
f 346 	501 	500
f 346 	500 	345
f 346 	323 	501
f 488 	501 	323
f 348 	347 	502
f 347 	349 	503
f 347 	503 	502
f 349 	350 	504
f 349 	504 	503
f 350 	351 	505
f 350 	505 	504
f 352 	506 	505
f 352 	505 	351
f 353 	507 	506
f 353 	506 	352
f 354 	508 	507
f 354 	507 	353
f 355 	509 	508
f 355 	508 	354
f 356 	496 	509
f 356 	509 	355
f 256 	497 	496
f 256 	496 	356
f 312 	357 	513
f 312 	513 	480
f 357 	358 	514
f 357 	514 	513
f 358 	359 	510
f 358 	510 	514
f 510 	359 	360
f 510 	360 	511
f 360 	361 	512
f 360 	512 	511
f 502 	512 	348
f 361 	348 	512
f 523 	544 	522
f 522 	544 	521
f 525 	526 	544
f 526 	527 	544
f 521 	544 	527
f 531 	532 	530
f 529 	530 	532
f 532 	533 	529
f 533 	534 	529
f 528 	529 	534
f 535 	523 	534
f 536 	523 	535
f 537 	523 	536
f 537 	541 	523
f 523 	538 	534
f 539 	534 	538
f 540 	534 	539
f 528 	534 	540
f 568 	523 	541
f 524 	525 	544
f 543 	524 	544
f 544 	545 	543
f 545 	546 	543
f 542 	543 	546
f 547 	551 	546
f 548 	551 	547
f 549 	550 	548
f 551 	548 	550
f 542 	546 	551
f 554 	523 	553
f 555 	523 	554
f 556 	523 	555
f 544 	523 	556
f 552 	553 	523
f 568 	565 	523
f 567 	557 	523
f 557 	558 	523
f 558 	559 	523
f 559 	560 	523
f 560 	561 	523
f 561 	562 	523
f 562 	563 	523
f 564 	523 	563
f 552 	523 	564
f 567 	523 	566
f 565 	566 	523
f 362 	363 	524
f 363 	364 	525
f 363 	525 	524
f 364 	365 	526
f 364 	526 	525
f 365 	366 	527
f 365 	527 	526
f 366 	367 	521
f 366 	521 	527
f 367 	368 	522
f 367 	522 	521
f 368 	369 	523
f 368 	523 	522
f 369 	370 	523
f 370 	371 	538
f 370 	538 	523
f 371 	372 	539
f 371 	539 	538
f 372 	373 	540
f 372 	540 	539
f 373 	248 	528
f 373 	528 	540
f 248 	374 	529
f 248 	529 	528
f 374 	375 	530
f 374 	530 	529
f 375 	376 	531
f 375 	531 	530
f 376 	377 	532
f 376 	532 	531
f 377 	378 	533
f 377 	533 	532
f 378 	379 	534
f 378 	534 	533
f 379 	380 	535
f 379 	535 	534
f 380 	381 	536
f 380 	536 	535
f 381 	382 	537
f 381 	537 	536
f 382 	383 	537
f 383 	384 	541
f 383 	541 	537
f 568 	541 	387
f 384 	387 	541
f 389 	388 	544
f 388 	390 	545
f 388 	545 	544
f 390 	391 	546
f 390 	546 	545
f 391 	393 	547
f 391 	547 	546
f 393 	394 	548
f 393 	548 	547
f 394 	395 	549
f 394 	549 	548
f 395 	396 	550
f 395 	550 	549
f 396 	397 	551
f 396 	551 	550
f 397 	245 	542
f 397 	542 	551
f 398 	543 	542
f 398 	542 	245
f 398 	362 	543
f 524 	543 	362
f 399 	554 	553
f 399 	553 	392
f 400 	555 	554
f 400 	554 	399
f 401 	556 	555
f 401 	555 	400
f 401 	389 	556
f 544 	556 	389
f 404 	403 	557
f 404 	557 	567
f 403 	409 	558
f 403 	558 	557
f 409 	410 	559
f 409 	559 	558
f 410 	411 	560
f 410 	560 	559
f 416 	561 	560
f 416 	560 	411
f 417 	562 	561
f 417 	561 	416
f 418 	563 	562
f 418 	562 	417
f 423 	564 	563
f 423 	563 	418
f 424 	552 	564
f 424 	564 	423
f 392 	553 	552
f 392 	552 	424
f 387 	425 	568
f 425 	429 	565
f 425 	565 	568
f 565 	429 	440
f 565 	440 	566
f 440 	441 	567
f 440 	567 	566
f 441 	404 	567
# 592 faces

g group_0_14541540

usemtl color_14541540
s 0

f 2 	3 	1
f 4 	1 	3
f 5 	6 	3
f 4 	3 	6
f 8 	9 	2
f 3 	2 	9
f 9 	10 	3
f 10 	7 	3
f 12 	13 	11
f 11 	13 	14
f 11 	14 	15
f 11 	15 	16
f 11 	16 	17
f 11 	17 	18
f 11 	18 	19
f 11 	19 	20
f 11 	20 	21
f 11 	21 	22
f 11 	22 	23
f 11 	23 	24
f 11 	24 	44
f 29 	259 	361
f 28 	29 	360
f 25 	26 	27
f 25 	27 	30
f 25 	30 	31
f 25 	31 	32
f 25 	32 	33
f 25 	33 	35
f 25 	35 	36
f 25 	36 	37
f 25 	37 	38
f 25 	38 	39
f 25 	39 	11
f 25 	11 	41
f 106 	105 	45
f 50 	88 	51
f 54 	9 	55
f 55 	9 	56
f 48 	11 	47
f 46 	47 	11
f 57 	11 	48
f 58 	11 	57
f 59 	11 	58
f 60 	11 	59
f 61 	11 	60
f 62 	11 	61
f 63 	11 	62
f 70 	11 	63
f 44 	46 	11
f 7 	67 	68
f 7 	10 	69
f 7 	69 	67
f 10 	9 	74
f 75 	11 	73
f 72 	73 	11
f 71 	72 	11
f 76 	11 	75
f 77 	11 	76
f 78 	11 	77
f 79 	11 	78
f 80 	11 	79
f 41 	11 	80
f 70 	71 	11
f 9 	83 	82
f 9 	82 	81
f 9 	81 	74
f 83 	9 	84
f 84 	9 	85
f 86 	9 	54
f 85 	9 	86
f 91 	92 	24
f 93 	136 	425
f 425 	387 	93
f 22 	92 	91
f 89 	93 	387
f 95 	88 	96
f 98 	24 	97
f 99 	88 	100
f 96 	88 	99
f 100 	88 	101
f 88 	50 	102
f 101 	88 	102
f 106 	66 	107
f 111 	9 	112
f 108 	64 	110
f 110 	9 	111
f 114 	115 	24
f 22 	115 	114
f 113 	9 	116
f 112 	9 	113
f 116 	9 	117
f 117 	9 	119
f 119 	9 	120
f 120 	9 	123
f 125 	405 	124
f 123 	9 	126
f 128 	129 	127
f 128 	127 	130
f 130 	127 	131
f 127 	403 	131
f 132 	404 	133
f 90 	87 	405
f 429 	425 	136
f 135 	429 	136
f 406 	87 	90
f 139 	138 	127
f 137 	127 	138
f 139 	127 	140
f 140 	127 	141
f 90 	187 	118
f 129 	142 	127
f 141 	127 	142
f 145 	152 	143
f 143 	152 	146
f 147 	152 	148
f 152 	149 	148
f 152 	137 	149
f 9 	8 	151
f 126 	9 	151
f 8 	152 	153
f 152 	154 	153
f 154 	152 	155
f 147 	146 	152
f 155 	152 	156
f 158 	152 	145
f 156 	152 	157
f 157 	152 	158
f 121 	187 	122
f 144 	187 	121
f 121 	222 	144
f 7 	159 	5
f 118 	187 	144
f 150 	187 	160
f 90 	118 	222
f 160 	222 	150
f 122 	150 	222
f 122 	222 	121
f 144 	222 	118
f 187 	2 	160
f 187 	189 	182
f 91 	160 	92
f 177 	187 	176
f 92 	160 	91
f 182 	176 	187
f 209 	91 	24
f 22 	91 	209
f 91 	518 	160
f 24 	23 	97
f 23 	22 	97
f 176 	182 	222
f 219 	222 	189
f 109 	176 	520
f 240 	235 	176
f 260 	247 	2
f 222 	239 	176
f 91 	160 	2
f 240 	176 	239
f 232 	234 	231
f 236 	572 	235
f 239 	222 	238
f 118 	90 	405
f 236 	235 	238
f 236 	238 	237
f 239 	238 	235
f 239 	235 	240
f 406 	90 	118
f 520 	176 	235
f 241 	22 	114
f 232 	231 	341
f 232 	340 	243
f 243 	363 	232
f 362 	398 	232
f 232 	245 	397
f 232 	397 	396
f 232 	396 	395
f 232 	395 	394
f 394 	393 	232
f 342 	242 	231
f 247 	209 	2
f 406 	124 	251
f 209 	518 	91
f 247 	518 	209
f 209 	91 	2
f 2 	1 	23
f 97 	98 	2
f 23 	97 	2
f 373 	256 	248
f 375 	374 	356
f 88 	353 	352
f 350 	88 	351
f 273 	231 	261
f 159 	261 	231
f 343 	231 	262
f 262 	231 	263
f 263 	231 	264
f 269 	267 	231
f 264 	231 	265
f 265 	231 	266
f 266 	231 	267
f 338 	518 	268
f 269 	231 	270
f 273 	272 	231
f 270 	231 	271
f 271 	231 	272
f 281 	280 	159
f 261 	159 	279
f 279 	159 	280
f 281 	159 	288
f 294 	159 	300
f 1 	109 	23
f 312 	305 	215
f 302 	301 	215
f 159 	215 	301
f 301 	300 	159
f 294 	288 	159
f 98 	517 	2
f 333 	328 	243
f 320 	323 	370
f 371 	370 	323
f 247 	209 	24
f 320 	243 	326
f 326 	243 	327
f 22 	209 	247
f 327 	243 	328
f 333 	243 	339
f 339 	243 	340
f 232 	341 	340
f 260 	518 	247
f 5 	3 	7
f 242 	341 	231
f 231 	343 	342
f 392 	127 	187
f 256 	373 	344
f 152 	2 	137
f 344 	372 	345
f 323 	346 	371
f 345 	371 	346
f 137 	2 	127
f 348 	361 	259
f 347 	257 	349
f 8 	2 	152
f 187 	127 	2
f 349 	88 	350
f 1 	4 	177
f 351 	88 	352
f 88 	378 	353
f 353 	376 	354
f 356 	355 	375
f 355 	354 	375
f 268 	518 	260
f 115 	518 	338
f 361 	360 	29
f 42 	40 	357
f 40 	34 	358
f 358 	357 	40
f 362 	232 	363
f 122 	150 	406
f 363 	243 	364
f 364 	243 	365
f 365 	243 	366
f 268 	260 	2
f 370 	369 	320
f 366 	243 	367
f 367 	243 	368
f 243 	320 	369
f 368 	243 	369
f 372 	344 	373
f 371 	345 	372
f 248 	256 	374
f 375 	354 	376
f 256 	356 	374
f 376 	353 	377
f 377 	353 	378
f 381 	88 	382
f 378 	88 	379
f 379 	88 	380
f 380 	88 	381
f 385 	251 	405
f 187 	177 	232
f 95 	94 	382
f 88 	95 	382
f 259 	258 	348
f 234 	232 	177
f 241 	114 	24
f 386 	241 	24
f 232 	392 	187
f 385 	406 	251
f 391 	390 	232
f 389 	232 	388
f 338 	268 	2
f 391 	232 	393
f 388 	232 	390
f 386 	22 	241
f 245 	232 	398
f 392 	232 	399
f 399 	232 	400
f 389 	401 	232
f 400 	232 	401
f 404 	132 	403
f 403 	127 	409
f 417 	416 	127
f 409 	127 	410
f 410 	127 	411
f 411 	127 	416
f 417 	127 	418
f 182 	402 	405
f 402 	182 	406
f 402 	406 	407
f 402 	407 	408
f 402 	408 	412
f 402 	412 	413
f 402 	413 	414
f 402 	414 	415
f 402 	415 	419
f 402 	419 	420
f 402 	420 	421
f 402 	421 	422
f 418 	127 	423
f 114 	115 	2
f 127 	392 	424
f 127 	424 	423
f 94 	89 	383
f 115 	338 	2
f 241 	114 	2
f 428 	405 	427
f 426 	427 	405
f 402 	430 	405
f 430 	431 	405
f 431 	432 	405
f 432 	433 	405
f 433 	434 	405
f 434 	435 	405
f 435 	436 	405
f 436 	437 	405
f 438 	405 	437
f 439 	405 	438
f 426 	405 	439
f 429 	135 	440
f 441 	133 	404
f 135 	134 	440
f 442 	443 	231
f 442 	231 	234
f 241 	518 	114
f 444 	445 	446
f 444 	446 	447
f 444 	447 	448
f 444 	448 	449
f 444 	449 	450
f 444 	450 	451
f 444 	451 	452
f 444 	452 	453
f 405 	468 	454
f 453 	454 	444
f 444 	454 	462
f 462 	454 	461
f 428 	463 	405
f 463 	464 	405
f 464 	465 	405
f 465 	466 	405
f 466 	467 	405
f 467 	468 	405
f 469 	454 	468
f 470 	454 	469
f 461 	454 	470
f 386 	518 	241
f 260 	247 	24
f 114 	518 	115
f 189 	182 	405
f 406 	182 	189
f 22 	247 	260
f 386 	241 	2
f 144 	118 	405
f 122 	121 	405
f 406 	118 	144
f 150 	122 	405
f 150 	160 	406
f 484 	518 	386
f 484 	386 	24
f 484 	22 	386
f 516 	518 	484
f 498 	484 	516
f 516 	484 	498
f 515 	406 	385
f 484 	386 	2
f 222 	160 	518
f 98 	518 	517
f 177 	109 	1
f 516 	484 	2
f 517 	516 	2
f 518 	23 	109
f 516 	517 	518
f 268 	260 	24
f 98 	97 	518
f 22 	260 	268
f 219 	189 	405
f 519 	219 	405
f 97 	23 	518
f 189 	219 	406
f 406 	219 	519
f 443 	5 	159
f 443 	159 	231
f 6 	442 	234
f 6 	5 	443
f 6 	443 	442
f 160 	150 	405
f 22 	406 	160
f 144 	405 	121
f 121 	122 	406
f 573 	238 	569
f 518 	569 	222
f 109 	520 	518
f 569 	518 	520
f 569 	520 	570
f 569 	570 	571
f 571 	573 	569
f 498 	484 	24
f 498 	22 	484
f 4 	234 	177
f 520 	235 	572
f 570 	520 	572
f 237 	238 	573
f 222 	569 	238
f 570 	572 	573
f 570 	573 	571
f 237 	573 	572
f 237 	572 	236
f 234 	4 	6
f 467 	76 	75
f 22 	268 	338
f 405 	454 	24
f 405 	24 	160
f 92 	160 	24
f 144 	121 	406
f 22 	160 	92
f 125 	519 	405
f 251 	124 	405
f 21 	407 	22
f 519 	125 	406
f 125 	124 	406
f 17 	414 	18
f 515 	385 	405
f 574 	406 	515
f 384 	383 	89
f 383 	382 	94
f 357 	312 	42
f 215 	42 	312
f 305 	302 	215
f 360 	359 	28
f 387 	384 	89
f 441 	440 	134
f 134 	133 	441
f 131 	403 	132
f 21 	20 	407
f 30 	439 	438
f 43 	106 	45
f 66 	106 	43
f 65 	107 	66
f 56 	110 	64
f 64 	108 	65
f 9 	110 	56
f 107 	65 	108
f 49 	45 	105
f 105 	104 	49
f 104 	103 	50
f 103 	102 	50
f 432 	36 	433
f 36 	35 	433
f 439 	27 	426
f 426 	26 	25
f 227 	226 	7
f 159 	7 	225
f 218 	217 	159
f 436 	32 	31
f 438 	31 	30
f 216 	215 	159
f 359 	358 	34
f 34 	28 	359
f 216 	159 	217
f 218 	159 	220
f 516 	498 	24
f 98 	517 	24
f 516 	22 	498
f 517 	22 	516
f 220 	159 	221
f 221 	159 	223
f 61 	446 	445
f 223 	159 	224
f 48 	452 	451
f 446 	61 	447
f 225 	224 	159
f 59 	448 	447
f 412 	19 	18
f 59 	58 	448
f 227 	7 	228
f 226 	225 	7
f 228 	7 	229
f 230 	7 	233
f 46 	453 	452
f 454 	46 	44
f 246 	244 	7
f 244 	233 	7
f 229 	7 	230
f 44 	24 	454
f 246 	7 	249
f 252 	250 	7
f 249 	7 	250
f 68 	253 	7
f 7 	253 	252
f 35 	435 	434
f 463 	80 	79
f 467 	77 	76
f 88 	254 	53
f 88 	53 	52
f 51 	88 	52
f 49 	104 	50
f 469 	75 	73
f 254 	88 	255
f 88 	349 	255
f 255 	349 	257
f 470 	72 	71
f 347 	348 	258
f 258 	257 	347
f 450 	449 	57
f 422 	13 	12
f 422 	12 	402
f 11 	402 	12
f 48 	451 	57
f 402 	11 	39
f 115 	338 	24
f 268 	24 	338
f 22 	338 	115
f 412 	20 	19
f 18 	413 	412
f 464 	79 	465
f 78 	465 	79
f 466 	465 	77
f 439 	30 	27
f 463 	41 	80
f 38 	37 	431
f 445 	63 	62
f 469 	73 	470
f 432 	37 	36
f 62 	61 	445
f 436 	33 	32
f 447 	60 	59
f 109 	177 	176
f 462 	461 	70
f 26 	426 	27
f 63 	444 	70
f 47 	452 	48
f 87 	187 	90
f 150 	122 	187
f 187 	87 	575
f 515 	385 	187
f 574 	515 	187
f 125 	519 	187
f 575 	574 	187
f 47 	46 	452
f 13 	421 	14
f 189 	187 	219
f 60 	447 	61
f 449 	448 	58
f 449 	58 	57
f 219 	187 	519
f 574 	515 	405
f 182 	189 	222
f 575 	406 	574
f 470 	73 	72
f 519 	222 	219
f 413 	18 	414
f 17 	415 	414
f 25 	41 	427
f 517 	516 	24
f 98 	22 	517
f 98 	97 	22
f 16 	415 	17
f 437 	436 	31
f 16 	15 	415
f 31 	438 	437
f 251 	222 	124
f 124 	125 	187
f 25 	427 	426
f 462 	70 	444
f 38 	431 	39
f 63 	445 	444
f 432 	431 	37
f 125 	124 	222
f 450 	57 	451
f 385 	251 	187
f 124 	187 	251
f 46 	454 	453
f 519 	125 	222
f 464 	463 	79
f 78 	77 	465
f 77 	467 	466
f 75 	468 	467
f 468 	75 	469
f 71 	461 	470
f 71 	70 	461
f 420 	419 	14
f 419 	15 	14
f 420 	14 	421
f 421 	13 	422
f 575 	574 	405
f 87 	575 	405
f 406 	575 	87
f 406 	22 	407
f 408 	407 	20
f 20 	412 	408
f 15 	419 	415
f 428 	427 	41
f 428 	41 	463
f 39 	430 	402
f 39 	431 	430
f 35 	434 	433
f 33 	435 	35
f 33 	436 	435
f 222 	251 	385
f 385 	515 	222
f 575 	222 	574
f 574 	222 	515
f 90 	222 	87
f 575 	87 	222
# 624 faces

 #end of obj_0

