# Object Export From Tinkercad Server 2015

mtllib obj.mtl

o obj_0
v -14.6192 		5.1401 		8.6207
v -10.7141 		9.0452 		8.6207
v -10.7141 		5.1401 		43.9042
v -14.6192 		5.1401 		33.1897
v -10.7141 		9.0452 		33.1897
v -10.7141 		-8.1932 		33.1897
v -14.6192 		-4.2881 		33.1897
v -14.6192 		5.1401 		41.3793
v -10.7141 		9.0452 		41.3793
v -10.7141 		5.1401 		35.7145
v -10.7141 		-4.2881 		27.5249
v -10.7141 		5.1401 		27.5249
v -14.6192 		5.1401 		16.8103
v -10.7141 		9.0452 		16.8103
v -14.6192 		5.1401 		25
v -15.4282 		-4.2881 		33.1897
v -10.7141 		9.0452 		25
v -10.7141 		-4.2881 		29.3103
v -4.0474 		-4.2881 		29.3103
v -1.2859 		-4.2881 		29.3103
v -10.7141 		5.1401 		19.3352
v -10.7141 		5.1401 		11.1456
v -4.0474 		-4.2881 		23.6456
v -6 		-6.2407 		45.6897
v -7.9526 		-4.2881 		45.6897
v -15.4282 		-3.4792 		33.1897
v -7.9526 		-4.2881 		48.2145
v -2.2598 		-2.4439 		8.6207
v -16 		-2.9073 		33.1897
v -15.4282 		-2.3355 		33.1897
v -10.7141 		-4.2881 		45.6897
v -10.7141 		5.1401 		45.6897
v -8.4575 		-3.5894 		8.6207
v -8.357 		-3.6564 		8.6207
v -7.8041 		-3.9293 		8.6207
v -1.286 		-1.5266 		40.025
v -4.8619 		-0.0454 		41.3793
v -2.3333 		-2.574 		41.3793
v -7.22 		-4.1273 		8.6207
v -15.4282 		5.1401 		41.3793
v -6.6152 		-4.2475 		8.6207
v -5.5286 		-4.2881 		41.3793
v -5.5286 		-0.7121 		41.3793
v -3 		-3.2407 		41.3793
v -6 		-4.2881 		8.6207
v -15.4282 		5.1401 		33.1897
v -7.9526 		-4.2881 		40.0249
v -10.7141 		5.1401 		37.5
v -8.5096 		-4.2881 		8.6207
v -6 		5.1401 		22.3831
v -7.9526 		5.1401 		23.6456
v -10.7141 		-2.2125 		8.6207
v -4.0474 		-4.288 		40.025
v -6.4714 		5.1401 		25
v -9.8946 		-2.2125 		8.6207
v -9.7402 		-2.4439 		8.6207
v -10.7141 		5.1401 		29.3103
v -10.7141 		-1.5266 		29.3103
v -9.3333 		-2.9073 		8.6207
v -9 		-3.2407 		41.3793
v -5.5286 		5.1401 		25
v -6.4714 		-0.7121 		41.3793
v -6.4714 		-4.2881 		41.3793
v -4.0474 		5.1401 		23.6456
v -8.8699 		-3.3142 		8.6207
v -15.4282 		5.1401 		25
v -12.6667 		0.426 		29.3103
v -7.9526 		-4.288 		40.025
v -7.1381 		-0.0454 		41.3793
v -9.6667 		-2.574 		41.3793
v -1.6447 		2.2301 		8.6207
v -1.4478 		1.6493 		8.6207
v -7.9526 		-4.2881 		37.5
v -10.7141 		-0.0454 		41.3793
v -10.7141 		-1.5266 		23.6456
v -1.9176 		2.783 		8.6207
v -10.714 		-1.5266 		40.025
v -10.7141 		-4.2881 		37.5
v -2.2598 		3.2959 		8.6207
v -7.9526 		-4.2881 		31.8352
v -1.2859 		5.1401 		37.5
v -2.6667 		3.7593 		8.6207
v -1.2859 		2.3786 		40.0249
v -1.2859 		2.3786 		37.5
v -6 		-4.2881 		38.7624
v -3.1301 		4.1662 		8.6207
v -7.9526 		-4.2881 		29.3103
v -4.0474 		-4.2881 		40.0249
v -1.2859 		-0.0454 		41.3793
v -1.2859 		5.1401 		29.3103
v -3.643 		4.5084 		8.6207
v -10.7141 		0.8974 		25
v -3.2385 		-9.0022 		41.3793
v -8.7615 		-9.0022 		41.3793
v -10.7141 		-0.0454 		25
v -4.1959 		4.7813 		8.6207
v -7.9526 		-4.2881 		23.6456
v -2.3333 		3.426 		33.1897
v -4.8619 		0.8974 		33.1897
v -1.286 		2.3786 		31.8353
v -2.6667 		-9.574 		41.3793
v -4.78 		4.9793 		8.6207
v -6 		-4.2881 		46.9521
v -6 		-4.2881 		50
v -10.7141 		0.426 		22.3831
v -6 		-6.2407 		37.5
v -3 		4.0927 		33.1897
v -6 		5.1401 		14.1935
v -7.9526 		5.1401 		15.4559
v -6.4714 		5.1401 		16.8103
v -5.5286 		1.5641 		33.1897
v -5.3848 		5.0995 		8.6207
v -5.5286 		5.1401 		33.1897
v -1.2859 		5.1401 		12.931
v -4.0474 		5.1401 		12.931
v -4.0474 		5.1401 		15.4559
v -15.4282 		5.1401 		16.8103
v -10.7141 		5.1401 		21.1207
v -4.0474 		5.14 		31.8353
v -10.7141 		2.3786 		23.6456
v -6 		5.1401 		8.6207
v -5.5286 		5.1401 		16.8103
v -15.4282 		5.1401 		8.6207
v -10.7141 		-8.1932 		16.8103
v -10.7141 		5.1401 		12.931
v -14.6192 		-4.2881 		16.8103
v -16 		3.7593 		8.6207
v -15.4282 		4.3312 		8.6207
v -15.4282 		3.1875 		8.6207
v -6.6152 		5.0995 		8.6207
v -10.7141 		-8.1932 		25
v -14.6192 		-4.2881 		25
v -9.3333 		3.7593 		46.9522
v -7.9526 		5.14 		48.2146
v -7.22 		4.9793 		8.6207
v -6 		-6.2407 		35.7147
v -4.0474 		-4.2881 		48.2145
v -2.0948 		-9.0022 		41.3793
v -10.714 		2.3786 		48.2146
v -7.8041 		4.7813 		8.6207
v -6.4714 		5.1401 		33.1897
v -6.4714 		1.5641 		33.1897
v -9 		4.0927 		33.1897
v -1.2859 		-9.0022 		41.3793
v -1.2859 		-8.1932 		41.3793
v -9 		4.0927 		41.3793
v -9.6667 		3.426 		41.3793
v -8.357 		4.5084 		8.6207
v -7.9526 		5.14 		31.8353
v -9.6667 		3.426 		33.1897
v -7.1381 		0.8974 		33.1897
v -4.0474 		-4.2881 		37.5
v -10.7141 		0.8974 		33.1897
v -1.9176 		-1.931 		8.6207
v -15.4282 		-2.3355 		8.6207
v -9.3333 		3.7593 		38.7625
v -1.6447 		-1.3781 		8.6207
v -7.9526 		5.14 		40.025
v -1.2859 		-4.2881 		37.5
v -6.4714 		-4.2881 		33.1897
v -1.4467 		-0.794 		8.6207
v -6 		-4.2881 		30.5728
v -10.714 		2.3786 		31.8353
v -10.714 		2.3786 		40.025
v -1.3265 		-0.1892 		8.6207
v -1.2859 		0.8974 		33.1897
v -1.2859 		0.426 		8.6207
v -4.0474 		-4.2881 		31.8352
v -5.5286 		-4.2881 		33.1897
v -1.3265 		1.0412 		8.6207
v -9.3333 		-9.574 		41.3793
v -6.4714 		-4.2881 		25
v -1.4467 		1.646 		8.6207
v -2.3333 		-2.574 		33.1897
v -4.8619 		-0.0454 		33.1897
v -1.2859 		-0.0454 		33.1897
v -6 		-4.2881 		22.3831
v -1.286 		-1.5266 		31.8353
v -9.3333 		3.7593 		30.5728
v -5.5286 		-0.7121 		33.1897
v -3 		-3.2407 		33.1897
v -5.5286 		-4.2881 		25
v -8.8699 		4.1662 		8.6207
v -4.0474 		-4.288 		31.8353
v -9 		4.0927 		25
v -9.6667 		3.426 		25
v -9.3333 		3.7593 		8.6207
v -4.0474 		-4.2881 		21.1207
v -1.2859 		-4.2881 		21.1207
v -9 		-3.2407 		33.1897
v -6.4714 		-0.7121 		33.1897
v -9.7402 		3.2959 		8.6207
v -1.2859 		-4.2881 		12.931
v -7.9526 		-4.288 		31.8353
v -4.0474 		-4.2881 		15.4559
v -4.0474 		-4.2881 		12.931
v -10.0824 		2.783 		8.6207
v -7.1381 		-0.0454 		33.1897
v -9.6667 		-2.574 		33.1897
v -1.2859 		2.3786 		31.8352
v -1.2859 		2.3786 		29.3103
v -10.7141 		-0.0454 		33.1897
v -7.9526 		-4.2881 		21.1207
v -10.3553 		2.2301 		8.6207
v -10.7141 		-4.2881 		19.3352
v -1.2859 		5.1401 		21.1207
v -10.714 		-1.5266 		31.8353
v -1.2859 		2.3786 		23.6456
v -1.2859 		2.3786 		21.1207
v -10.7141 		-4.2881 		21.1207
v -10.5533 		1.646 		8.6207
v -15.4282 		-4.2881 		25
v -10.7141 		-4.2881 		12.931
v -7.9526 		-4.2881 		12.931
v -10.6735 		1.0412 		8.6207
v -7.9526 		-4.2881 		15.4559
v -1.2859 		0.426 		46.9521
v -1.2859 		0.426 		50
v -1.2859 		-1.5266 		48.2145
v -15.4282 		-4.2881 		16.8103
v -6 		-4.2881 		14.1935
v -10.7141 		0.426 		8.6207
v -6.4714 		-4.2881 		16.8103
v -15.4282 		-4.2881 		8.6207
v -14.6192 		-4.2881 		8.6207
v -10.7141 		-4.2881 		11.1456
v -10.6735 		-0.1892 		8.6207
v -5.5286 		-4.2881 		16.8103
v -9.3333 		3.7593 		22.3832
v -1.2859 		2.3786 		48.2145
v -7.9526 		5.14 		23.6456
v -2.3333 		3.426 		25
v -4.8619 		0.8974 		25
v -10.5533 		-0.794 		8.6207
v -1.286 		2.3786 		23.6456
v -10.714 		2.3786 		23.6456
v -3 		4.0927 		25
v -5.5286 		1.5641 		25
v -10.3553 		-1.3781 		8.6207
v -1.2859 		0.426 		38.7624
v -4.0474 		5.14 		23.6456
v -9 		4.0927 		16.8103
v -9.6667 		3.426 		16.8103
v -1.2859 		-1.5266 		40.0249
v -10.0824 		-1.931 		8.6207
v -8.357 		4.5084 		0
v -7.8041 		4.7813 		0
v -7.22 		4.9793 		0
v -6.6152 		5.0995 		0
v -6 		5.1401 		0
v -5.3848 		5.0995 		0
v -4.78 		4.9793 		0
v -4.1959 		4.7813 		0
v -3.643 		4.5084 		0
v -3.1301 		4.1662 		0
v -2.6667 		3.7593 		0
v -2.2598 		3.2959 		0
v -1.9176 		2.783 		0
v -1.2859 		0.8974 		41.3793
v -1.6447 		2.2301 		0
v -5.3848 		-4.2475 		8.6207
v -1.4467 		1.646 		0
v -1.3265 		1.0412 		0
v -1.2859 		0.426 		0
v -1.3265 		-0.1892 		0
v -1.4467 		-0.794 		0
v -1.6447 		-1.3781 		0
v -1.9176 		-1.931 		0
v -4.78 		-4.1273 		8.6207
v -12.6667 		0.426 		45.6897
v -4.1959 		-3.9293 		8.6207
v -12.6667 		0.426 		43.9043
v -9.9052 		-9.0022 		41.3793
v -3.643 		-3.6564 		8.6207
v -10.0824 		-1.931 		0
v -10.3553 		-1.3781 		0
v -10.5533 		-0.794 		0
v -10.6735 		-0.1892 		0
v -10.7141 		2.3786 		45.6897
v -10.7141 		0.426 		0
v -10.6735 		1.0412 		0
v -10.5533 		1.646 		0
v -10.3553 		2.2301 		0
v -10.0824 		2.783 		0
v -9.7402 		3.2959 		0
v -3.1301 		-3.3142 		8.6207
v -10.7141 		-9.0022 		41.3793
v -9.3333 		3.7593 		0
v -10.7141 		-8.1932 		41.3793
v -8.8699 		4.1662 		0
v -2.6667 		-2.9073 		8.6207
v -15.4282 		3.1875 		33.1897
v -6 		-4.2881 		0
v -6.6152 		-4.2475 		0
v -7.22 		-4.1273 		0
v -15.4282 		-2.3355 		41.3793
v -7.8041 		-3.9293 		0
v -15.4282 		3.1875 		41.3793
v -8.357 		-3.6564 		0
v -2.2598 		-2.4439 		0
v -2.6667 		-2.9073 		0
v -3.1301 		-3.3142 		0
v -3.643 		-3.6564 		0
v -4.1959 		-3.9293 		0
v -4.78 		-4.1273 		0
v -5.3848 		-4.2475 		0
v -8.8699 		-3.3142 		0
v -9.3333 		-2.9073 		0
v -9.7402 		-2.4439 		0
v -12.6667 		0.426 		35.7147
v 3.4282 		-2.3355 		8.6207
v 4 		-2.9073 		8.6207
v 3.4282 		-3.4792 		8.6207
v 3.4282 		3.1875 		8.6207
v 3.4282 		-4.2881 		8.6207
v 2.6192 		-4.2881 		8.6207
v -16 		3.7593 		41.3793
v -1.2859 		-3.9774 		8.6207
v -12.6667 		0.426 		37.5
v -16 		3.7593 		33.1897
v 3.4282 		3.1875 		16.8103
v 3.4282 		-2.3355 		16.8103
v 3.4282 		3.1875 		25
v -12.6667 		0.426 		27.525
v 3.4282 		-2.3355 		25
v -1.2859 		0.426 		30.5728
v 3.4282 		3.1875 		33.1897
v 3.4282 		-2.3355 		33.1897
v -1.2859 		-1.5266 		31.8352
v 3.4282 		3.1875 		41.3793
v 3.4282 		-2.3355 		41.3793
v -15.4282 		4.3312 		33.1897
v 0.6667 		0.426 		43.9043
v 0.6667 		0.426 		35.7147
v -15.4282 		4.3312 		41.3793
v -1.2859 		0.426 		22.3831
v -1.2859 		-0.0454 		25
v -1.2859 		-1.5266 		23.6456
v -3.2385 		-9.0022 		33.1897
v -8.7615 		-9.0022 		33.1897
v -1.2859 		0.8974 		25
v -15.4282 		-3.4792 		16.8103
v -16 		-2.9073 		16.8103
v -15.4282 		-2.3355 		16.8103
v -2.6667 		-9.574 		33.1897
v -1.2859 		-1.5266 		12.931
v -1.2859 		-1.5266 		15.4559
v -15.4282 		-3.4792 		25
v -1.2859 		0.426 		14.1935
v -1.2859 		-0.0454 		16.8103
v -6 		-6.2407 		29.3103
v -6.4714 		1.5641 		25
v -6 		-6.2407 		27.525
v -2.0948 		-9.0022 		33.1897
v -1.2859 		2.3786 		15.4559
v -1.2859 		2.3786 		12.931
v -16 		-2.9073 		25
v -15.4282 		-2.3355 		25
v -1.2859 		-9.0022 		33.1897
v -1.2859 		0.8974 		16.8103
v -1.2859 		-8.1932 		33.1897
v -9.9052 		9.8542 		8.6207
v -9.3333 		10.426 		8.6207
v -8.7615 		9.8542 		8.6207
v -2.6667 		10.426 		8.6207
v -2.0948 		9.8542 		8.6207
v -3.2385 		9.8542 		8.6207
v -7.1381 		0.8974 		25
v -1.2859 		5.1401 		8.6207
v -10.7141 		-1.5266 		21.1207
v -8.4575 		5.1401 		8.6207
v -10.7141 		9.8542 		8.6207
v -1.2859 		9.8542 		8.6207
v -1.2859 		9.0452 		8.6207
v -8.7615 		9.8542 		16.8103
v -3.2385 		9.8542 		16.8103
v -12.6667 		0.426 		21.1207
v -8.7615 		9.8542 		25
v -3.2385 		9.8542 		25
v -8.7615 		9.8542 		33.1897
v -3.2385 		9.8542 		33.1897
v -8.7615 		9.8542 		41.3793
v -3.2385 		9.8542 		41.3793
v -2.3333 		-2.574 		25
v -4.8619 		-0.0454 		25
v -10.7141 		-1.5266 		15.4559
v -12.6667 		0.426 		12.931
v -10.7141 		-1.5266 		12.931
v -1.286 		-1.5266 		23.6456
v -6 		7.0927 		43.9043
v -5.5286 		-0.7121 		25
v -3 		-3.2407 		25
v -6 		7.0927 		35.7147
v -9.3333 		-9.574 		33.1897
v -10.7141 		0.8974 		16.8103
v -10.7141 		-0.0454 		16.8103
v -6 		7.0927 		27.525
v -4.0474 		-4.288 		23.6456
v -6 		7.0927 		19.3353
v -9 		-3.2407 		25
v -10.7141 		0.426 		14.1935
v -6.4714 		-0.7121 		25
v -6 		7.0927 		45.6897
v -15.4282 		-3.4792 		8.6207
v -7.9526 		-4.288 		23.6456
v -9.3333 		10.426 		41.3793
v -10.7141 		-8.1932 		8.6207
v -16 		-2.9073 		8.6207
v -7.1381 		-0.0454 		25
v -9.3333 		10.426 		33.1897
v -9.6667 		-2.574 		25
v -6 		7.0927 		37.5
v -10.7141 		2.3786 		15.4559
v -6 		7.0927 		29.3103
v -10.714 		-1.5266 		23.6456
v -10.7141 		-4.2881 		43.9042
v -9.3333 		10.426 		25
v -9.3333 		10.426 		16.8103
v -6 		7.0927 		21.1207
v -6 		7.0927 		12.931
v 0.6667 		0.426 		27.525
v -6 		7.0927 		11.1457
v 0.6667 		0.426 		19.3353
v -10.7141 		-4.2881 		35.7145
v -2.3333 		3.426 		16.8103
v -4.8619 		0.8974 		16.8103
v -1.286 		2.3786 		15.456
v 0.6667 		0.426 		45.6897
v 4 		-2.9073 		41.3793
v -3 		4.0927 		16.8103
v -5.5286 		1.5641 		16.8103
v -4.0474 		5.14 		15.456
v 0.6667 		0.426 		37.5
v 4 		-2.9073 		33.1897
v -10.7141 		-9.0022 		33.1897
v -7.9526 		5.1401 		45.6897
v -2.6667 		3.7593 		14.1935
v 0.6667 		0.426 		29.3103
v 4 		-2.9073 		25
v 0.6667 		0.426 		21.1207
v 4 		-2.9073 		16.8103
v -6.4714 		1.5641 		16.8103
v -9.9052 		9.8542 		33.1897
v 0.6667 		0.426 		12.931
v -7.9526 		5.14 		15.456
v 0.6667 		0.426 		11.1457
v -10.7141 		9.8542 		33.1897
v -10.7141 		-9.0022 		25
v -7.1381 		0.8974 		16.8103
v -9.9052 		-9.0022 		33.1897
v -10.7141 		-9.0022 		16.8103
v -9.9052 		9.8542 		41.3793
v -10.7141 		-9.0022 		8.6207
v -10.7141 		9.8542 		41.3793
v -10.714 		2.3786 		15.456
v -9.3333 		3.7593 		14.1935
v -7.9526 		5.1401 		37.5
v -10.7141 		9.8542 		25
v -3 		-3.2407 		16.8103
v -2.3333 		-2.574 		16.8103
v -7.9526 		5.1401 		29.3103
v -10.7141 		9.8542 		16.8103
v -2.6667 		-2.9073 		14.1935
v -4.0474 		-4.288 		15.456
v -9.9052 		9.8542 		16.8103
v -1.286 		-1.5266 		15.456
v -10.7141 		2.3786 		48.2145
v -9.9052 		9.8542 		25
v -4.8619 		-0.0454 		16.8103
v -3.2385 		-9.0022 		16.8103
v -8.7615 		-9.0022 		16.8103
v -5.5286 		-0.7121 		16.8103
v -3.2385 		-9.0022 		25
v -8.7615 		-9.0022 		25
v -10.7141 		2.3786 		40.0249
v -6 		-6.2407 		19.3353
v -7.9526 		5.1401 		21.1207
v -2.6667 		-9.574 		25
v -10.7141 		2.3786 		37.5
v -9.6667 		-2.574 		16.8103
v -9 		-3.2407 		16.8103
v -2.6667 		-9.574 		16.8103
v -6 		-6.2407 		21.1207
v -7.9526 		5.1401 		12.931
v -2.6667 		-9.574 		8.6207
v -6 		-6.2407 		12.931
v -6 		-6.2407 		11.1457
v -3.2385 		-9.0022 		8.6207
v -10.7141 		2.3786 		31.8352
v -2.0948 		-9.0022 		16.8103
v -2.6667 		10.426 		41.3793
v -1.2859 		-9.0022 		16.8103
v -10.7141 		2.3786 		29.3103
v -1.2859 		-8.1932 		16.8103
v -2.6667 		10.426 		33.1897
v -10.714 		-1.5266 		15.456
v -9.3333 		-2.9073 		14.1935
v -2.0948 		-9.0022 		25
v -7.9526 		-4.288 		15.456
v -2.6667 		10.426 		25
v -1.2859 		-9.0022 		25
v -1.2859 		-8.1932 		25
v -6.4714 		-0.7121 		16.8103
v -2.6667 		10.426 		16.8103
v -10.7141 		2.3786 		21.1207
v -7.9526 		5.1401 		48.2145
v 3.4282 		-3.4792 		16.8103
v -7.1381 		-0.0454 		16.8103
v -10.7141 		-1.5266 		48.2145
v -2.0948 		-9.0022 		8.6207
v -7.9526 		5.1401 		40.0249
v -10.7141 		-1.5266 		45.6897
v -7.9526 		5.1401 		31.8352
v -10.7141 		-1.5266 		40.0249
v -9.3333 		-9.574 		25
v -9.3333 		-9.574 		16.8103
v -9.3333 		-9.574 		8.6207
v -8.7615 		-9.0022 		8.6207
v -10.7141 		-1.5266 		37.5
v -2.0948 		9.8542 		16.8103
v -1.2859 		9.8542 		16.8103
v -1.2859 		9.0452 		16.8103
v -2.0948 		9.8542 		25
v -10.7141 		-1.5266 		31.8352
v -1.2859 		9.8542 		25
v -1.2859 		9.0452 		25
v -9.9052 		-9.0022 		16.8103
v -2.0948 		9.8542 		33.1897
v -1.2859 		9.8542 		33.1897
v -9.9052 		-9.0022 		25
v -1.2859 		9.0452 		33.1897
v -2.0948 		9.8542 		41.3793
v -10.7141 		0.426 		50
v -10.7141 		0.426 		46.9521
v -1.2859 		9.8542 		41.3793
v -1.2859 		9.0452 		41.3793
v 3.4282 		-4.2881 		16.8103
v 2.6192 		-4.2881 		16.8103
v 3.4282 		-3.4792 		25
v -4.0474 		5.1401 		45.6897
v -1.2859 		5.1401 		45.6897
v -15.4282 		3.1875 		16.8103
v -4.0474 		5.1401 		37.5
v -15.4282 		3.1875 		25
v -10.7141 		0.426 		38.7624
v -12.6667 		0.426 		19.3353
v -4.0474 		5.1401 		29.3103
v -16 		3.7593 		25
v -10.7141 		0.8974 		41.3793
v -4.0474 		5.1401 		21.1207
v 3.4282 		-4.2881 		25
v 2.6192 		-4.2881 		25
v -16 		3.7593 		16.8103
v 3.4282 		-3.4792 		33.1897
v -12.6667 		0.426 		11.1457
v -4.0474 		5.1401 		48.2145
v 3.4282 		-4.2881 		33.1897
v -15.4282 		4.3312 		16.8103
v 2.6192 		-4.2881 		33.1897
v 3.4282 		-3.4792 		41.3793
v -4.0474 		5.1401 		40.0249
v -15.4282 		4.3312 		25
v -9.9052 		-9.0022 		8.6207
v 3.4282 		-4.2881 		41.3793
v 2.6192 		-4.2881 		41.3793
v -1.2859 		-9.0022 		8.6207
v -1.2859 		-1.5266 		45.6897
v -4.0474 		5.1401 		31.8352
v -9.3333 		3.7593 		50
v -1.2859 		-4.2881 		45.6897
v -1.2859 		-4.2881 		43.9042
v -1.2859 		-1.5266 		37.5
v -10.7141 		2.3786 		12.931
v -1.2859 		-4.2881 		35.7145
v -6 		5.1401 		46.9521
v -1.2859 		-1.5266 		29.3103
v -1.2859 		-4.2881 		27.5249
v -1.2859 		-4.2881 		19.3352
v -1.2859 		-4.2881 		11.1456
v -1.2859 		-1.5266 		21.1207
v -5.5286 		5.1401 		41.3793
v -6.4714 		5.1401 		41.3793
v -4.0474 		-4.2881 		45.6897
v -6 		5.1401 		38.7624
v 4 		3.7593 		41.3793
v -2.6667 		-2.9073 		46.9522
v -4.0474 		-4.288 		48.2146
v 4 		3.7593 		33.1897
v -1.286 		-1.5266 		48.2146
v 4 		3.7593 		25
v -16 		-2.9073 		41.3793
v 4 		3.7593 		16.8103
v -6 		5.1401 		30.5728
v -2.6667 		-2.9073 		38.7625
v 4 		3.7593 		8.6207
v 3.4282 		5.1401 		8.6207
v 3.4282 		4.3312 		8.6207
v 2.6192 		5.1401 		8.6207
v -10.7141 		2.1866 		8.6207
v 2.6192 		5.1401 		16.8103
v 2.6192 		5.1401 		25
v -2.6667 		-2.9073 		30.5728
v 2.6192 		5.1401 		33.1897
v 2.6192 		5.1401 		41.3793
v -1.2859 		5.1401 		43.9042
v -1.2859 		5.1401 		35.7145
v -1.2859 		5.1401 		27.5249
v -1.2859 		5.1401 		19.3352
v -2.6667 		-2.9073 		22.3832
v 3.4282 		5.1401 		41.3793
v -2.6667 		-2.9073 		50
v 3.4282 		5.1401 		33.1897
v 3.4282 		5.1401 		25
v 3.4282 		5.1401 		16.8103
v -1.2859 		5.1401 		11.1456
v 3.4282 		4.3312 		16.8103
v 3.4282 		4.3312 		25
v -10.7141 		0.426 		30.5728
v 3.4282 		4.3312 		33.1897
v 3.4282 		4.3312 		41.3793
v -1.2859 		2.3786 		45.6897
v -2.3333 		3.426 		41.3793
v -3 		4.0927 		41.3793
v -4.0474 		5.14 		48.2146
v -2.6667 		3.7593 		46.9522
v -1.286 		2.3786 		48.2146
v -6 		5.1401 		50
v -4.0474 		5.14 		40.025
v -2.6667 		3.7593 		38.7625
v -1.286 		2.3786 		40.025
v -2.6667 		3.7593 		30.5728
v -1.2859 		-8.1932 		8.6207
v -14.6192 		-4.2881 		41.3793
v -2.6667 		3.7593 		22.3832
v -2.6667 		3.7593 		50
v -15.4282 		-4.2881 		41.3793
v -15.4282 		-3.4792 		41.3793
v -7.9526 		-4.288 		48.2146
v -9.3333 		-2.9073 		46.9522
v -10.714 		-1.5266 		48.2146
v -6 		-6.2407 		43.9043
v -9.3333 		-2.9073 		38.7625
v -9.3333 		-2.9073 		30.5728
v -9.3333 		-2.9073 		22.3832
v -9.3333 		-2.9073 		50
v -4.8619 		0.8974 		41.3793
v -6 		0.426 		50
v -5.5286 		1.5641 		41.3793
v -6.4714 		1.5641 		41.3793
v -7.1381 		0.8974 		41.3793
# 650 vertices

g group_0_4634441

usemtl color_4634441
s 0

f 1 	2 	371
f 8 	3 	9
f 4 	10 	5
f 15 	12 	17
f 13 	21 	14
f 1 	22 	2
f 189 	182 	23
f 16 	26 	7
f 104 	31 	27
f 30 	292 	202
f 29 	30 	26
f 34 	35 	49
f 35 	39 	49
f 40 	32 	8
f 3 	8 	32
f 36 	37 	38
f 25 	27 	31
f 39 	41 	49
f 45 	49 	41
f 44 	42 	43
f 46 	48 	4
f 10 	4 	48
f 51 	54 	50
f 42 	53 	43
f 56 	52 	55
f 56 	59 	52
f 49 	52 	59
f 59 	65 	49
f 66 	57 	15
f 50 	54 	61
f 50 	61 	64
f 62 	63 	60
f 65 	33 	49
f 33 	34 	49
f 357 	348 	67
f 63 	78 	47
f 68 	62 	60
f 287 	273 	31
f 25 	31 	273
f 524 	67 	58
f 69 	70 	74
f 70 	69 	77
f 73 	47 	78
f 68 	63 	62
f 160 	18 	80
f 44 	43 	53
f 81 	259 	83
f 81 	83 	84
f 87 	80 	18
f 524 	618 	67
f 36 	89 	37
f 93 	94 	63
f 77 	69 	74
f 98 	99 	100
f 109 	110 	108
f 12 	15 	57
f 107 	111 	113
f 115 	116 	114
f 122 	114 	116
f 117 	118 	13
f 21 	13 	118
f 103 	104 	27
f 123 	125 	1
f 22 	1 	125
f 108 	110 	122
f 108 	122 	116
f 127 	128 	129
f 119 	111 	107
f 627 	32 	134
f 119 	113 	111
f 104 	103 	137
f 138 	101 	93
f 133 	32 	139
f 141 	142 	143
f 63 	42 	93
f 144 	138 	145
f 141 	149 	142
f 47 	85 	63
f 63 	85 	42
f 143 	142 	149
f 133 	134 	32
f 533 	139 	32
f 150 	151 	153
f 88 	42 	85
f 129 	128 	599
f 128 	1 	599
f 123 	1 	128
f 371 	599 	1
f 48 	156 	158
f 48 	158 	582
f 163 	151 	150
f 80 	162 	160
f 156 	48 	164
f 100 	99 	166
f 292 	332 	153
f 150 	4 	143
f 88 	106 	152
f 168 	169 	162
f 160 	162 	169
f 163 	153 	151
f 24 	171 	94
f 549 	164 	48
f 174 	175 	176
f 97 	177 	172
f 394 	340 	106
f 178 	175 	174
f 57 	179 	149
f 57 	149 	141
f 172 	177 	182
f 23 	182 	177
f 181 	169 	180
f 179 	57 	163
f 172 	210 	97
f 169 	184 	180
f 25 	273 	24
f 188 	189 	23
f 190 	191 	160
f 153 	163 	57
f 47 	106 	85
f 194 	191 	190
f 193 	228 	195
f 193 	195 	196
f 90 	166 	200
f 90 	200 	201
f 198 	199 	202
f 131 	11 	132
f 124 	205 	126
f 199 	198 	207
f 206 	341 	208
f 206 	208 	209
f 203 	97 	210
f 132 	11 	18
f 194 	160 	191
f 214 	216 	213
f 223 	213 	216
f 18 	212 	132
f 181 	180 	184
f 217 	218 	219
f 210 	220 	126
f 210 	126 	205
f 221 	223 	216
f 178 	176 	175
f 213 	224 	225
f 213 	225 	226
f 195 	228 	221
f 223 	221 	228
f 207 	198 	202
f 218 	217 	230
f 231 	118 	229
f 118 	231 	54
f 232 	233 	235
f 237 	238 	61
f 229 	118 	236
f 92 	236 	118
f 241 	238 	237
f 240 	89 	244
f 88 	85 	106
f 358 	544 	95
f 92 	15 	186
f 185 	186 	15
f 89 	240 	259
f 83 	259 	240
f 171 	273 	94
f 287 	289 	273
f 289 	60 	273
f 94 	273 	60
f 171 	24 	273
f 40 	335 	32
f 153 	202 	292
f 73 	450 	106
f 296 	272 	298
f 435 	450 	78
f 30 	310 	292
f 311 	312 	313
f 298 	272 	270
f 106 	47 	73
f 270 	317 	298
f 316 	318 	313
f 315 	316 	313
f 311 	313 	318
f 319 	320 	292
f 319 	292 	310
f 169 	339 	160
f 548 	544 	67
f 326 	176 	329
f 320 	332 	292
f 330 	333 	331
f 176 	326 	166
f 200 	166 	326
f 150 	153 	4
f 4 	153 	332
f 46 	4 	332
f 5 	143 	4
f 327 	334 	328
f 317 	335 	298
f 336 	337 	338
f 8 	549 	335
f 40 	8 	335
f 9 	146 	8
f 348 	18 	58
f 340 	450 	160
f 339 	340 	160
f 337 	336 	341
f 208 	341 	336
f 220 	342 	126
f 317 	270 	335
f 279 	335 	270
f 339 	136 	340
f 346 	347 	193
f 350 	193 	347
f 241 	61 	238
f 343 	344 	342
f 344 	480 	342
f 136 	339 	106
f 345 	106 	339
f 212 	348 	132
f 349 	350 	347
f 353 	473 	351
f 54 	352 	185
f 114 	360 	355
f 114 	355 	356
f 354 	345 	339
f 411 	132 	348
f 357 	358 	348
f 358 	411 	348
f 54 	231 	352
f 350 	349 	360
f 360 	349 	355
f 339 	169 	354
f 359 	354 	361
f 18 	348 	212
f 185 	352 	231
f 362 	363 	364
f 365 	366 	367
f 354 	152 	106
f 354 	106 	345
f 58 	67 	348
f 186 	368 	92
f 359 	159 	354
f 152 	354 	159
f 236 	368 	186
f 370 	342 	210
f 342 	220 	210
f 478 	498 	351
f 362 	364 	371
f 2 	362 	371
f 364 	367 	121
f 372 	362 	2
f 121 	371 	364
f 369 	121 	367
f 369 	367 	366
f 373 	374 	366
f 369 	366 	374
f 235 	233 	341
f 342 	370 	377
f 342 	377 	343
f 236 	92 	368
f 75 	377 	370
f 243 	13 	242
f 385 	337 	384
f 552 	384 	337
f 386 	387 	388
f 389 	385 	384
f 75 	105 	377
f 382 	390 	383
f 168 	351 	19
f 473 	182 	392
f 391 	392 	182
f 380 	393 	381
f 136 	106 	340
f 395 	396 	542
f 344 	542 	396
f 378 	397 	379
f 182 	398 	391
f 375 	399 	376
f 377 	105 	120
f 401 	387 	386
f 172 	400 	402
f 213 	388 	404
f 213 	404 	224
f 405 	402 	400
f 407 	226 	225
f 406 	403 	382
f 390 	382 	403
f 6 	160 	450
f 404 	388 	387
f 404 	387 	408
f 394 	106 	450
f 358 	95 	411
f 409 	411 	95
f 393 	380 	412
f 410 	412 	380
f 387 	401 	413
f 411 	409 	415
f 80 	351 	162
f 417 	414 	378
f 397 	378 	414
f 168 	162 	351
f 405 	172 	402
f 416 	289 	31
f 392 	391 	398
f 399 	375 	419
f 418 	419 	375
f 389 	337 	385
f 287 	31 	289
f 422 	364 	420
f 363 	420 	364
f 323 	421 	325
f 321 	423 	322
f 415 	409 	95
f 78 	424 	6
f 425 	426 	427
f 428 	429 	331
f 428 	331 	333
f 146 	9 	582
f 9 	452 	582
f 147 	8 	146
f 432 	431 	430
f 433 	434 	328
f 433 	328 	334
f 435 	78 	6
f 437 	114 	432
f 122 	432 	114
f 438 	439 	325
f 438 	325 	421
f 432 	122 	431
f 436 	452 	32
f 110 	442 	242
f 440 	441 	322
f 440 	322 	423
f 443 	410 	380
f 444 	312 	311
f 444 	311 	446
f 110 	445 	442
f 242 	442 	445
f 11 	131 	18
f 448 	18 	131
f 473 	474 	172
f 380 	143 	443
f 143 	5 	443
f 447 	443 	5
f 394 	450 	340
f 395 	243 	449
f 205 	124 	210
f 451 	210 	124
f 452 	406 	382
f 226 	407 	213
f 453 	213 	407
f 435 	6 	450
f 7 	199 	6
f 383 	582 	382
f 382 	582 	452
f 454 	452 	9
f 454 	9 	32
f 73 	78 	450
f 406 	452 	403
f 436 	403 	452
f 3 	32 	9
f 455 	449 	243
f 454 	32 	452
f 87 	530 	351
f 456 	125 	455
f 395 	455 	125
f 48 	447 	5
f 48 	5 	10
f 114 	437 	427
f 114 	427 	360
f 530 	87 	18
f 360 	427 	426
f 443 	457 	412
f 443 	412 	410
f 458 	17 	57
f 455 	395 	449
f 351 	80 	87
f 48 	457 	443
f 48 	443 	447
f 12 	57 	17
f 507 	538 	460
f 538 	494 	460
f 279 	32 	335
f 118 	462 	14
f 118 	14 	21
f 182 	473 	172
f 400 	172 	131
f 125 	372 	2
f 125 	2 	22
f 461 	468 	57
f 193 	463 	464
f 193 	464 	228
f 465 	418 	375
f 463 	459 	464
f 459 	463 	460
f 466 	460 	463
f 376 	110 	375
f 465 	375 	242
f 242 	14 	465
f 462 	465 	14
f 468 	417 	378
f 469 	350 	460
f 350 	322 	460
f 466 	469 	460
f 279 	467 	32
f 533 	32 	467
f 379 	54 	378
f 378 	185 	468
f 17 	468 	185
f 458 	468 	17
f 459 	494 	228
f 472 	459 	228
f 474 	530 	172
f 417 	468 	414
f 461 	414 	468
f 549 	48 	475
f 473 	353 	474
f 458 	57 	468
f 470 	476 	471
f 228 	464 	472
f 465 	477 	419
f 465 	419 	418
f 478 	351 	473
f 479 	475 	48
f 118 	477 	465
f 118 	465 	462
f 481 	124 	480
f 342 	480 	126
f 476 	470 	483
f 482 	483 	470
f 362 	484 	420
f 362 	420 	363
f 487 	488 	486
f 485 	486 	488
f 172 	405 	210
f 490 	482 	470
f 403 	491 	383
f 403 	383 	390
f 493 	489 	57
f 153 	57 	489
f 470 	228 	490
f 492 	490 	494
f 412 	495 	381
f 412 	381 	393
f 480 	496 	497
f 480 	497 	481
f 498 	478 	473
f 499 	481 	497
f 92 	118 	120
f 414 	500 	379
f 414 	379 	397
f 473 	392 	498
f 501 	498 	502
f 419 	504 	376
f 419 	376 	399
f 124 	481 	223
f 503 	223 	481
f 19 	351 	498
f 120 	118 	505
f 499 	503 	481
f 441 	507 	322
f 344 	396 	480
f 508 	480 	396
f 480 	508 	496
f 501 	20 	498
f 19 	498 	20
f 497 	213 	499
f 223 	499 	213
f 490 	188 	483
f 490 	483 	482
f 403 	436 	506
f 499 	223 	503
f 189 	188 	490
f 189 	490 	492
f 459 	472 	464
f 510 	196 	486
f 510 	486 	485
f 463 	193 	466
f 350 	466 	193
f 533 	509 	31
f 512 	31 	509
f 466 	350 	469
f 511 	412 	457
f 213 	497 	496
f 213 	496 	396
f 483 	188 	23
f 396 	496 	508
f 78 	74 	514
f 353 	351 	474
f 515 	474 	351
f 513 	414 	461
f 483 	516 	471
f 483 	471 	476
f 72 	71 	369
f 514 	519 	78
f 71 	76 	369
f 76 	79 	369
f 517 	518 	486
f 487 	486 	518
f 79 	82 	369
f 82 	86 	369
f 51 	419 	477
f 195 	486 	196
f 420 	365 	367
f 420 	367 	422
f 109 	420 	484
f 86 	91 	369
f 504 	520 	376
f 96 	369 	91
f 520 	522 	122
f 430 	122 	522
f 521 	522 	520
f 96 	102 	369
f 500 	523 	379
f 18 	202 	524
f 97 	483 	177
f 524 	58 	18
f 102 	112 	369
f 121 	369 	112
f 23 	177 	483
f 379 	523 	61
f 526 	61 	523
f 525 	526 	523
f 516 	527 	471
f 495 	528 	381
f 371 	121 	130
f 130 	135 	371
f 124 	223 	527
f 451 	124 	527
f 126 	480 	124
f 528 	107 	381
f 529 	531 	528
f 515 	530 	474
f 210 	95 	75
f 210 	75 	370
f 491 	532 	383
f 479 	332 	319
f 320 	319 	332
f 131 	172 	530
f 448 	131 	530
f 132 	411 	131
f 332 	479 	48
f 332 	48 	46
f 351 	530 	515
f 532 	581 	383
f 536 	581 	532
f 535 	536 	532
f 18 	448 	530
f 537 	538 	507
f 459 	460 	494
f 493 	562 	67
f 439 	539 	325
f 483 	203 	527
f 483 	527 	516
f 540 	532 	403
f 491 	403 	532
f 135 	140 	371
f 533 	534 	509
f 66 	562 	57
f 532 	540 	541
f 532 	541 	535
f 140 	148 	371
f 543 	528 	412
f 495 	412 	528
f 534 	533 	467
f 92 	95 	544
f 183 	371 	148
f 528 	543 	81
f 528 	81 	529
f 358 	324 	544
f 318 	154 	157
f 344 	546 	542
f 547 	523 	414
f 500 	414 	523
f 514 	74 	545
f 157 	161 	318
f 523 	547 	90
f 523 	90 	525
f 324 	67 	544
f 550 	520 	419
f 504 	419 	520
f 451 	527 	210
f 203 	210 	527
f 551 	552 	539
f 552 	337 	539
f 377 	553 	542
f 377 	542 	546
f 520 	550 	206
f 520 	206 	521
f 434 	554 	328
f 387 	127 	129
f 387 	129 	555
f 483 	97 	203
f 486 	216 	214
f 548 	67 	562
f 553 	558 	542
f 471 	527 	223
f 223 	228 	471
f 470 	471 	228
f 557 	559 	554
f 559 	174 	554
f 181 	174 	361
f 328 	554 	174
f 403 	556 	540
f 429 	560 	331
f 243 	395 	542
f 542 	558 	243
f 558 	13 	243
f 117 	13 	558
f 14 	242 	13
f 486 	221 	216
f 548 	562 	544
f 561 	543 	412
f 486 	214 	563
f 486 	563 	517
f 195 	221 	486
f 544 	562 	92
f 562 	15 	92
f 66 	15 	562
f 17 	185 	15
f 564 	565 	560
f 565 	89 	560
f 488 	487 	518
f 193 	196 	510
f 193 	510 	566
f 125 	456 	445
f 125 	445 	110
f 428 	567 	560
f 428 	560 	429
f 493 	57 	562
f 563 	214 	213
f 563 	213 	453
f 414 	568 	547
f 505 	558 	377
f 553 	377 	558
f 139 	569 	133
f 560 	567 	570
f 560 	570 	564
f 64 	550 	419
f 571 	565 	570
f 564 	570 	565
f 133 	569 	134
f 433 	572 	554
f 433 	554 	434
f 558 	505 	118
f 558 	118 	117
f 420 	116 	115
f 573 	128 	387
f 127 	387 	128
f 155 	555 	129
f 559 	557 	159
f 559 	159 	574
f 557 	554 	159
f 572 	159 	554
f 164 	147 	156
f 128 	573 	125
f 128 	125 	123
f 438 	576 	539
f 438 	539 	439
f 552 	551 	20
f 552 	20 	577
f 156 	147 	146
f 156 	146 	158
f 538 	537 	189
f 538 	189 	578
f 539 	576 	20
f 539 	20 	551
f 163 	150 	179
f 579 	316 	193
f 315 	193 	316
f 440 	580 	507
f 440 	507 	441
f 582 	383 	581
f 179 	150 	143
f 179 	143 	149
f 537 	507 	189
f 580 	189 	507
f 403 	575 	556
f 104 	137 	570
f 583 	570 	137
f 272 	296 	270
f 444 	346 	313
f 444 	313 	312
f 185 	229 	186
f 236 	186 	229
f 506 	575 	403
f 314 	446 	311
f 270 	467 	279
f 229 	185 	231
f 313 	346 	193
f 313 	193 	315
f 412 	584 	561
f 455 	243 	456
f 456 	243 	242
f 456 	242 	445
f 333 	330 	428
f 585 	428 	330
f 42 	88 	159
f 152 	159 	88
f 570 	586 	587
f 570 	587 	104
f 327 	588 	433
f 327 	433 	334
f 380 	381 	113
f 380 	113 	141
f 380 	141 	143
f 319 	475 	479
f 586 	570 	589
f 218 	589 	570
f 323 	590 	438
f 323 	438 	421
f 591 	270 	296
f 511 	584 	412
f 169 	168 	20
f 19 	20 	168
f 321 	592 	440
f 321 	440 	423
f 145 	44 	38
f 145 	38 	565
f 310 	30 	319
f 593 	568 	414
f 428 	219 	567
f 161 	165 	318
f 167 	318 	165
f 593 	414 	513
f 433 	244 	572
f 369 	167 	170
f 379 	61 	54
f 185 	378 	54
f 170 	173 	369
f 159 	594 	53
f 159 	53 	42
f 438 	329 	576
f 72 	369 	173
f 29 	319 	30
f 440 	338 	580
f 594 	159 	36
f 446 	314 	444
f 595 	444 	314
f 419 	50 	64
f 444 	347 	346
f 183 	187 	371
f 187 	192 	371
f 50 	419 	51
f 324 	358 	67
f 596 	597 	598
f 559 	361 	174
f 599 	371 	192
f 192 	197 	599
f 67 	489 	493
f 376 	520 	122
f 376 	122 	110
f 242 	375 	110
f 197 	204 	599
f 598 	597 	167
f 369 	598 	167
f 374 	598 	369
f 314 	311 	167
f 314 	167 	597
f 595 	314 	597
f 318 	167 	311
f 89 	36 	159
f 204 	211 	599
f 420 	108 	116
f 20 	602 	184
f 20 	184 	169
f 115 	366 	420
f 365 	420 	366
f 211 	215 	599
f 108 	420 	109
f 505 	377 	120
f 364 	422 	367
f 602 	20 	178
f 222 	599 	215
f 125 	484 	362
f 125 	362 	372
f 67 	358 	357
f 222 	227 	52
f 366 	115 	114
f 366 	114 	373
f 384 	502 	392
f 536 	605 	604
f 546 	344 	377
f 343 	377 	344
f 227 	234 	52
f 234 	239 	52
f 531 	606 	603
f 176 	178 	20
f 526 	607 	601
f 555 	155 	387
f 408 	387 	155
f 239 	245 	52
f 55 	52 	245
f 522 	608 	600
f 436 	32 	506
f 189 	609 	398
f 189 	398 	182
f 573 	387 	413
f 225 	224 	404
f 627 	506 	32
f 45 	261 	318
f 261 	269 	318
f 609 	189 	389
f 337 	389 	189
f 541 	610 	604
f 541 	604 	605
f 269 	271 	318
f 155 	129 	222
f 408 	155 	404
f 599 	222 	129
f 222 	52 	155
f 404 	155 	52
f 225 	404 	52
f 407 	225 	52
f 457 	48 	511
f 586 	611 	587
f 271 	274 	318
f 81 	612 	603
f 81 	603 	606
f 274 	286 	318
f 286 	291 	318
f 589 	611 	586
f 90 	613 	601
f 90 	601 	607
f 582 	511 	48
f 291 	28 	318
f 28 	154 	318
f 206 	614 	600
f 206 	600 	608
f 594 	44 	53
f 114 	596 	598
f 114 	598 	615
f 270 	534 	467
f 614 	616 	600
f 44 	594 	38
f 36 	38 	594
f 57 	141 	513
f 513 	461 	57
f 616 	321 	360
f 592 	321 	616
f 322 	350 	321
f 475 	545 	549
f 549 	545 	74
f 613 	617 	601
f 602 	181 	184
f 636 	633 	31
f 118 	54 	51
f 181 	602 	174
f 178 	174 	602
f 524 	202 	618
f 153 	618 	202
f 617 	323 	341
f 590 	323 	617
f 325 	337 	323
f 51 	477 	118
f 612 	619 	603
f 298 	335 	549
f 609 	392 	398
f 125 	110 	109
f 125 	109 	484
f 392 	609 	384
f 389 	384 	609
f 489 	618 	153
f 636 	31 	637
f 512 	637 	31
f 603 	98 	531
f 619 	327 	166
f 588 	327 	619
f 328 	176 	327
f 430 	522 	425
f 431 	122 	430
f 600 	425 	522
f 610 	620 	604
f 512 	270 	637
f 75 	95 	105
f 540 	556 	541
f 627 	541 	556
f 237 	526 	232
f 61 	526 	237
f 601 	232 	526
f 509 	270 	512
f 620 	259 	604
f 585 	330 	620
f 331 	89 	330
f 107 	531 	98
f 113 	381 	107
f 528 	531 	107
f 120 	105 	92
f 92 	105 	95
f 543 	561 	81
f 581 	81 	561
f 541 	621 	620
f 541 	620 	610
f 547 	568 	90
f 113 	90 	568
f 509 	534 	270
f 623 	536 	622
f 604 	622 	536
f 620 	621 	428
f 620 	428 	585
f 550 	64 	206
f 61 	206 	64
f 81 	84 	619
f 81 	619 	612
f 625 	541 	624
f 627 	624 	541
f 147 	549 	8
f 74 	298 	549
f 70 	633 	74
f 619 	84 	433
f 619 	433 	588
f 213 	396 	386
f 213 	386 	388
f 541 	625 	626
f 541 	626 	218
f 627 	575 	506
f 90 	201 	617
f 90 	617 	613
f 629 	81 	628
f 581 	628 	81
f 386 	396 	401
f 395 	401 	396
f 617 	201 	438
f 617 	438 	590
f 573 	413 	125
f 395 	125 	413
f 81 	629 	630
f 81 	630 	259
f 575 	627 	556
f 206 	209 	616
f 206 	616 	614
f 413 	401 	395
f 616 	209 	440
f 616 	440 	592
f 631 	90 	119
f 113 	119 	90
f 316 	632 	318
f 633 	70 	289
f 494 	490 	228
f 90 	631 	100
f 90 	100 	166
f 511 	582 	584
f 581 	584 	582
f 230 	428 	621
f 498 	392 	502
f 552 	502 	384
f 634 	206 	241
f 61 	241 	206
f 289 	416 	633
f 361 	354 	169
f 169 	181 	361
f 83 	433 	84
f 424 	7 	6
f 206 	634 	235
f 206 	235 	341
f 584 	581 	561
f 200 	438 	201
f 624 	635 	625
f 208 	440 	209
f 565 	571 	145
f 355 	444 	356
f 416 	31 	633
f 625 	635 	626
f 559 	574 	361
f 360 	321 	350
f 600 	616 	360
f 507 	460 	322
f 552 	577 	502
f 16 	7 	78
f 424 	78 	7
f 538 	578 	494
f 622 	629 	623
f 628 	623 	629
f 633 	637 	74
f 316 	579 	632
f 341 	323 	337
f 601 	617 	341
f 325 	539 	337
f 629 	622 	630
f 144 	145 	570
f 166 	327 	176
f 603 	619 	166
f 174 	176 	328
f 26 	30 	202
f 7 	26 	202
f 202 	199 	7
f 571 	570 	145
f 636 	637 	633
f 119 	107 	631
f 259 	330 	89
f 620 	330 	259
f 331 	560 	89
f 296 	74 	637
f 591 	296 	637
f 298 	74 	296
f 631 	107 	98
f 631 	98 	100
f 574 	159 	361
f 359 	361 	159
f 230 	217 	428
f 232 	634 	237
f 241 	237 	634
f 270 	591 	637
f 634 	232 	235
f 428 	217 	219
f 425 	437 	430
f 432 	430 	437
f 577 	20 	502
f 501 	502 	20
f 519 	26 	78
f 16 	78 	26
f 83 	240 	433
f 437 	425 	427
f 189 	492 	494
f 189 	494 	578
f 519 	319 	26
f 26 	319 	29
f 433 	240 	244
f 193 	566 	632
f 193 	632 	579
f 510 	485 	488
f 639 	31 	638
f 200 	326 	438
f 518 	517 	563
f 514 	319 	519
f 438 	326 	329
f 208 	336 	440
f 31 	639 	640
f 31 	640 	533
f 488 	518 	45
f 518 	563 	49
f 407 	49 	563
f 453 	407 	563
f 510 	488 	45
f 52 	49 	407
f 45 	518 	49
f 45 	632 	510
f 318 	632 	45
f 566 	510 	632
f 440 	336 	338
f 514 	545 	319
f 355 	349 	444
f 114 	356 	597
f 114 	597 	596
f 374 	615 	598
f 24 	27 	25
f 597 	356 	444
f 597 	444 	595
f 63 	94 	60
f 60 	289 	70
f 444 	349 	347
f 27 	24 	103
f 104 	638 	31
f 319 	545 	475
f 24 	137 	103
f 605 	536 	541
f 535 	541 	536
f 513 	141 	593
f 113 	593 	141
f 138 	93 	42
f 145 	138 	42
f 42 	44 	145
f 67 	618 	489
f 531 	529 	81
f 531 	81 	606
f 641 	93 	24
f 101 	24 	93
f 593 	113 	568
f 526 	525 	90
f 526 	90 	607
f 583 	24 	138
f 101 	138 	24
f 93 	641 	94
f 522 	521 	206
f 522 	206 	608
f 615 	374 	114
f 373 	114 	374
f 642 	78 	68
f 144 	570 	138
f 583 	138 	570
f 77 	78 	642
f 74 	78 	77
f 219 	570 	567
f 218 	570 	219
f 94 	641 	24
f 160 	6 	190
f 190 	6 	199
f 63 	68 	78
f 583 	137 	24
f 643 	18 	194
f 207 	18 	643
f 202 	18 	207
f 89 	159 	244
f 572 	244 	159
f 400 	131 	411
f 160 	194 	18
f 176 	20 	329
f 576 	329 	20
f 644 	210 	405
f 337 	189 	338
f 189 	580 	338
f 210 	644 	415
f 95 	210 	415
f 645 	640 	639
f 541 	218 	230
f 541 	230 	621
f 645 	639 	638
f 70 	77 	642
f 68 	60 	642
f 70 	642 	60
f 199 	207 	643
f 194 	190 	643
f 199 	643 	190
f 411 	415 	644
f 405 	400 	644
f 411 	644 	400
f 600 	360 	425
f 426 	425 	360
f 601 	341 	232
f 233 	232 	341
f 603 	166 	98
f 99 	98 	166
f 622 	604 	259
f 646 	622 	259
f 635 	647 	626
f 624 	647 	635
f 624 	627 	647
f 627 	134 	647
f 569 	647 	134
f 139 	647 	569
f 626 	647 	218
f 139 	533 	647
f 589 	647 	611
f 104 	587 	647
f 638 	647 	645
f 647 	640 	645
f 638 	104 	647
f 611 	647 	587
f 589 	218 	647
f 640 	647 	533
f 622 	646 	630
f 536 	623 	581
f 648 	581 	623
f 628 	648 	623
f 628 	581 	648
f 582 	649 	146
f 582 	158 	649
f 146 	649 	158
f 549 	147 	650
f 164 	650 	147
f 630 	646 	259
f 164 	549 	650
f 37 	89 	38
f 565 	38 	89
# 1151 faces

g group_0_16089887

usemtl color_16089887
s 0

f 251 	250 	112
f 267 	157 	154
f 161 	157 	267
f 173 	262 	72
f 290 	187 	183
f 187 	285 	192
f 285 	197 	192
f 211 	281 	215
f 281 	222 	215
f 234 	276 	239
f 276 	245 	239
f 245 	275 	55
f 247 	248 	246
f 246 	248 	249
f 246 	249 	250
f 246 	250 	251
f 246 	251 	252
f 246 	252 	253
f 246 	253 	254
f 246 	254 	255
f 246 	255 	256
f 246 	256 	257
f 246 	257 	258
f 246 	258 	260
f 263 	275 	262
f 263 	264 	265
f 263 	265 	266
f 263 	266 	267
f 263 	267 	268
f 305 	269 	261
f 271 	269 	305
f 277 	278 	262
f 278 	280 	262
f 280 	281 	262
f 281 	282 	262
f 260 	262 	282
f 283 	260 	282
f 284 	260 	283
f 285 	260 	284
f 288 	260 	285
f 290 	260 	288
f 246 	260 	290
f 276 	277 	262
f 275 	276 	262
f 301 	291 	286
f 28 	291 	301
f 299 	263 	297
f 295 	297 	263
f 294 	295 	263
f 307 	263 	299
f 293 	294 	263
f 268 	300 	263
f 300 	301 	263
f 301 	302 	263
f 302 	303 	263
f 303 	304 	263
f 305 	263 	304
f 306 	263 	305
f 293 	263 	306
f 297 	35 	34
f 309 	263 	308
f 275 	263 	309
f 307 	308 	263
f 39 	35 	297
f 294 	41 	39
f 45 	41 	294
f 258 	76 	71
f 76 	258 	79
f 257 	79 	258
f 79 	257 	82
f 256 	82 	257
f 86 	82 	255
f 256 	255 	82
f 91 	86 	254
f 255 	254 	86
f 254 	253 	96
f 254 	96 	91
f 96 	253 	102
f 251 	112 	102
f 121 	112 	250
f 249 	130 	250
f 121 	250 	130
f 130 	249 	135
f 248 	135 	249
f 248 	140 	135
f 154 	268 	267
f 161 	267 	266
f 165 	161 	266
f 264 	167 	165
f 167 	264 	170
f 263 	170 	264
f 173 	170 	263
f 262 	260 	72
f 260 	258 	71
f 102 	253 	252
f 252 	251 	102
f 248 	247 	140
f 148 	140 	246
f 247 	246 	140
f 154 	28 	268
f 266 	265 	165
f 265 	264 	165
f 262 	173 	263
f 71 	72 	260
f 290 	183 	148
f 246 	290 	148
f 187 	290 	288
f 288 	285 	187
f 197 	285 	284
f 284 	283 	204
f 284 	204 	197
f 211 	204 	282
f 283 	282 	204
f 282 	281 	211
f 222 	281 	280
f 278 	227 	280
f 222 	280 	227
f 278 	277 	234
f 278 	234 	227
f 277 	276 	234
f 245 	276 	275
f 275 	309 	55
f 45 	293 	306
f 45 	306 	261
f 306 	305 	261
f 271 	305 	304
f 304 	303 	274
f 304 	274 	271
f 302 	286 	274
f 302 	274 	303
f 286 	302 	301
f 300 	28 	301
f 28 	300 	268
f 65 	307 	33
f 34 	33 	299
f 297 	34 	299
f 295 	39 	297
f 39 	295 	294
f 293 	45 	294
f 56 	55 	309
f 59 	56 	308
f 309 	308 	56
f 59 	308 	65
f 307 	65 	308
f 307 	299 	33
# 145 faces

 #end of obj_0

