# Object Export From Tinkercad Server 2015

mtllib obj.mtl

o obj_0
v 10 		-10 		68
v 10 		-10 		0
v 10 		-7.071 		0
v 10 		-7.071 		68
v 7.071 		-10 		68
v 7.071 		-10 		0
v 2.929 		-10 		0
v 0 		-10 		0
v 0 		-7.071 		0
v 10 		0 		68
v 10 		0 		0
v 7.071 		0 		0
v 7.071 		0 		68
v 12.071 		-5 		0
v 12.071 		-5 		68
v 10 		-2.929 		0
v 10 		-2.929 		68
v 5 		-12.071 		68
v 5 		-12.071 		0
v 5 		2.071 		0
v 5 		2.071 		68
v 0 		0 		68
v 2.929 		0 		68
v 0 		0 		0
v 0 		-2.929 		0
v 0 		-2.929 		68
v 2.929 		0 		0
v -2.071 		-5 		0
v -2.071 		-5 		68
v 0 		-10 		68
v 2.929 		-10 		68
v 0 		-7.071 		68
# 32 vertices

g group_0_11107152

usemtl color_11107152
s 0

f 1 	2 	3
f 1 	3 	4
f 4 	5 	1
f 2 	6 	3
f 7 	8 	9
f 5 	6 	2
f 5 	2 	1
f 10 	11 	12
f 10 	12 	13
f 14 	15 	4
f 14 	4 	3
f 16 	17 	15
f 16 	15 	14
f 18 	19 	6
f 18 	6 	5
f 20 	21 	13
f 20 	13 	12
f 23 	22 	26
f 22 	24 	25
f 22 	25 	26
f 24 	27 	25
f 23 	27 	24
f 23 	24 	22
f 25 	28 	29
f 25 	29 	26
f 12 	11 	16
f 21 	20 	27
f 21 	27 	23
f 30 	31 	32
f 17 	10 	13
f 9 	25 	7
f 28 	25 	9
f 25 	27 	7
f 27 	12 	7
f 20 	12 	27
f 12 	6 	7
f 16 	3 	12
f 14 	3 	16
f 3 	6 	12
f 19 	7 	6
f 32 	9 	8
f 32 	8 	30
f 13 	23 	17
f 21 	23 	13
f 23 	26 	17
f 26 	32 	17
f 29 	32 	26
f 32 	4 	17
f 31 	5 	32
f 18 	5 	31
f 5 	4 	32
f 15 	17 	4
f 30 	8 	7
f 30 	7 	31
f 29 	28 	9
f 29 	9 	32
f 31 	7 	19
f 31 	19 	18
f 11 	10 	17
f 11 	17 	16
# 60 faces

 #end of obj_0

o obj_1
v 0.804 		-16.836 		43
v -11.592 		-12.58 		20
v -11.592 		-12.58 		15
v 22.592 		-12.58 		20
v 19.996 		-11.504 		13
v 19.996 		-19.996 		13
v 19.996 		-19.996 		8
v 0.804 		-16.836 		48
v 19.996 		-11.504 		8
v -4.114 		-1.517 		36
v -4.114 		-1.517 		41
v 5.5 		-13.148 		57
v 5.5 		-13.148 		62
v 1.676 		-14.732 		62
v 10.196 		-16.836 		48
v 1.676 		-14.732 		57
v 10.196 		-16.836 		43
v 19.996 		8.996 		13
v 19.996 		8.996 		8
v 9.483 		-15.114 		41
v 5.5 		-14.891 		43
v 22.592 		-12.58 		15
v 5.5 		-14.891 		48
v 5.5 		2.148 		62
v 5.5 		-26 		13
v 5.5 		-26 		8
v 5.5 		6.0317 		29
v 5.5 		6.0317 		34
v 17.305 		-17.305 		27
v 17.305 		-17.305 		22
v 15.5124 		-15.5124 		20
v 11.504 		8.996 		13
v -5.836 		-0.804 		43
v 12.1407 		-12.1407 		48
v 12.1407 		-12.1407 		43
v -3.891 		-5.5 		43
v 11.504 		8.996 		8
v -3.891 		-5.5 		48
v -5.836 		-0.804 		48
v -2.33 		2.33 		55
v -2.33 		2.33 		50
v -5.573 		-5.5 		50
v -2.33 		-2.257 		50
v -5.573 		-5.5 		55
v -3.732 		-1.676 		57
v 11.266 		8.42 		34
v 11.266 		8.42 		29
v 15.5124 		-15.5124 		15
v -1.58 		11.592 		15
v -3.732 		-1.676 		62
v -1.58 		11.592 		20
v 10.39 		6.305 		27
v -0.877 		0.877 		69
v -0.877 		0.877 		64
v -0.877 		-2.859 		64
v -0.877 		-2.859 		69
v 2.859 		0.877 		69
v 19.42 		-11.266 		29
v 19.42 		-11.266 		34
v 5.5 		8.097 		36
v 5.5 		-16.573 		50
v -0.504 		8.996 		13
v 5.5 		8.097 		41
v 8.743 		-13.33 		50
v -0.504 		8.996 		8
v 5.5 		-16.573 		55
v 9.324 		-14.732 		57
v 10.908 		-10.908 		57
v 9.324 		-14.732 		62
v 10.908 		-10.908 		62
v -0.266 		8.42 		34
v 17.305 		-10.39 		27
v -0.266 		8.42 		29
v 17.305 		-10.39 		22
v 0.61 		6.305 		27
v 10.39 		6.305 		22
v 2.257 		2.33 		50
v 2.257 		2.33 		55
v 5.5 		5.573 		55
v 5.5 		5.573 		50
v 5.5 		3.891 		48
v 10.196 		5.836 		48
v 10.196 		5.836 		43
v 9.483 		-15.114 		36
v 9.483 		4.114 		41
v 0.61 		6.305 		22
v 15.114 		-15.114 		41
v 15.114 		-15.114 		36
v 13.33 		-13.33 		50
v 13.33 		-13.33 		55
v 14.732 		-9.324 		57
v 14.732 		-9.324 		62
v 11.877 		-11.877 		64
v 22.195 		-5.5 		22
v 8.141 		-11.877 		64
v 22.195 		-5.5 		27
v 11.877 		-8.141 		64
v 8.141 		-11.877 		69
v 11.877 		-11.877 		69
v 14.518 		-5.5 		64
v 19.6595 		-5.5 		20
v 14.518 		-5.5 		69
v 11.877 		-8.141 		69
v 5.5 		-14.518 		69
v 5.5 		-14.518 		64
v 12.58 		11.592 		20
v 12.58 		11.592 		15
v 13.6542 		-13.6542 		34
v 13.6542 		-13.6542 		29
v 9.483 		4.114 		36
v 19.6595 		-5.5 		15
v -11.592 		1.58 		20
v -8.996 		8.996 		13
v -8.996 		8.996 		8
v -8.996 		0.504 		8
v -8.996 		0.504 		13
v 0.804 		5.836 		48
v 0.804 		5.836 		43
v -1.1407 		1.1407 		43
v 1.517 		4.114 		41
v -1.1407 		1.1407 		48
v 19.097 		-5.5 		36
v 19.097 		-5.5 		41
v 5.5 		15 		13
v 5.5 		15 		8
v 5.5 		2.148 		57
v -11.592 		1.58 		15
v 17.0317 		-5.5 		34
v 9.324 		3.732 		62
v 9.324 		3.732 		57
v -3.732 		-9.324 		62
v 0.092 		-10.908 		62
v -2.148 		-5.5 		62
v 14.732 		-1.676 		62
v 10.908 		-0.092 		62
v 13.148 		-5.5 		62
v -6.305 		6.305 		27
v -6.305 		6.305 		22
v -2.33 		-13.33 		55
v 2.257 		-13.33 		55
v -2.33 		-8.743 		55
v 13.33 		-2.257 		55
v -4.5124 		4.5124 		20
v 5.5 		3.891 		43
v 13.33 		2.33 		55
v 8.743 		2.33 		55
v -5.836 		-10.196 		48
v -1.1407 		-12.1407 		48
v 16.836 		-0.804 		48
v 12.1407 		1.1407 		48
v -4.114 		-9.483 		41
v -4.114 		-15.114 		41
v 15.114 		-1.517 		41
v 15.114 		4.114 		41
v 17.0317 		-5.5 		29
v -4.5124 		4.5124 		15
v -8.42 		-11.266 		34
v -2.6542 		-13.6542 		34
v 19.42 		0.266 		34
v 13.6542 		2.6542 		34
v -6.305 		-10.39 		27
v -6.305 		-17.305 		27
v -8.42 		0.266 		29
v -8.42 		0.266 		34
v 17.305 		-0.61 		27
v 17.305 		6.305 		27
v 13.33 		-8.743 		55
v 13.33 		-8.743 		50
v -4.5124 		-15.5124 		20
v 16.836 		-10.196 		43
v 16.836 		-10.196 		48
v 1.676 		3.732 		57
v 0.092 		-0.092 		57
v 1.676 		3.732 		62
v 8.743 		-13.33 		55
v 0.092 		-0.092 		62
v 26 		-5.5 		8
v 26 		-5.5 		13
v -4.5124 		-15.5124 		15
v -6.305 		-0.61 		22
v -6.305 		-0.61 		27
v 15.5124 		4.5124 		20
v 5.5 		-22.195 		27
v 5.5 		-22.195 		22
v 16.573 		-5.5 		50
v 16.573 		-5.5 		55
v 14.891 		-5.5 		48
v 15.5124 		4.5124 		15
v 5.5 		-19.6595 		20
v 1.517 		4.114 		36
v 5.5 		-19.6595 		15
v -8.996 		-11.504 		13
v 22.592 		1.58 		20
v 19.996 		0.504 		13
v 22.592 		1.58 		15
v -4.114 		4.114 		41
v -4.114 		4.114 		36
v -8.996 		-11.504 		8
v 19.996 		0.504 		8
v 15.114 		-9.483 		41
v 15.114 		-9.483 		36
v 5.5 		-19.097 		41
v 5.5 		-19.097 		36
v 5.5 		-17.0317 		34
v -11.195 		-5.5 		22
v -11.195 		-5.5 		27
v -6.305 		-17.305 		22
v -8.6595 		-5.5 		20
v 14.891 		-5.5 		43
v -6.305 		-10.39 		22
v 17.305 		6.305 		22
v 17.305 		-0.61 		22
v 2.859 		0.877 		64
v -8.6595 		-5.5 		15
v -3.518 		-5.5 		64
v -3.518 		-5.5 		69
v 5.5 		3.518 		69
v 5.5 		3.518 		64
v -0.877 		-11.877 		69
v 2.859 		-11.877 		69
v -0.877 		-8.141 		69
v 11.877 		-2.859 		69
v 11.877 		0.877 		69
v 8.141 		0.877 		69
v -8.996 		-19.996 		13
v -1.58 		-22.592 		20
v -1.58 		-22.592 		15
v -8.097 		-5.5 		36
v -8.097 		-5.5 		41
v -8.996 		-19.996 		8
v -2.6542 		2.6542 		29
v -2.6542 		2.6542 		34
v -6.0317 		-5.5 		34
v -2.6542 		-13.6542 		29
v -8.42 		-11.266 		29
v 13.6542 		2.6542 		29
v 19.42 		0.266 		29
v -0.504 		-19.996 		13
v -0.504 		-19.996 		8
v 12.58 		-22.592 		15
v 12.58 		-22.592 		20
v 11.504 		-19.996 		13
v 11.504 		-19.996 		8
v 5.5 		-17.0317 		29
v -4.114 		-15.114 		36
v -4.114 		-9.483 		36
v 15.114 		4.114 		36
v 15.114 		-1.517 		36
v -0.266 		-19.42 		34
v -0.266 		-19.42 		29
v 0.61 		-17.305 		27
v 11.266 		-19.42 		34
v -6.0317 		-5.5 		29
v 11.266 		-19.42 		29
v 10.39 		-17.305 		27
v -1.1407 		-12.1407 		43
v -5.836 		-10.196 		43
v 12.1407 		1.1407 		43
v 16.836 		-0.804 		43
v -2.33 		-2.257 		55
v 2.257 		-13.33 		50
v -2.33 		-13.33 		50
v -2.33 		-8.743 		50
v 8.743 		2.33 		50
v 13.33 		2.33 		50
v 13.33 		-2.257 		50
v 0.61 		-17.305 		22
v 10.39 		-17.305 		22
v 0.092 		-10.908 		57
v -3.732 		-9.324 		57
v -2.148 		-5.5 		57
v 10.908 		-0.092 		57
v 14.732 		-1.676 		57
v 13.148 		-5.5 		57
v 5.5 		11.195 		27
v 5.5 		11.195 		22
v 1.517 		-15.114 		41
v 2.859 		-11.877 		64
v -0.877 		-11.877 		64
v -0.877 		-8.141 		64
v 8.141 		0.877 		64
v 11.877 		0.877 		64
v 11.877 		-2.859 		64
v -15 		-5.5 		8
v -15 		-5.5 		13
v 5.5 		8.6595 		15
v 5.5 		8.6595 		20
v 1.517 		-15.114 		36
# 288 vertices

g group_1_1206582

usemtl color_1206582
s 0

f 37 	38 	39
f 37 	39 	41
f 42 	260 	261
f 42 	261 	43
f 35 	246 	211
f 47 	49 	67
f 46 	48 	44
f 46 	44 	45
f 63 	54 	36
f 61 	62 	106
f 66 	47 	67
f 79 	59 	60
f 70 	68 	179
f 73 	292 	72
f 76 	74 	173
f 165 	82 	77
f 85 	86 	87
f 80 	54 	63
f 87 	88 	85
f 89 	85 	88
f 33 	288 	53
f 210 	37 	41
f 99 	44 	100
f 45 	44 	99
f 45 	99 	101
f 104 	61 	106
f 67 	202 	66
f 81 	83 	319
f 108 	84 	243
f 109 	110 	112
f 111 	112 	110
f 94 	156 	97
f 157 	97 	156
f 59 	79 	268
f 178 	111 	110
f 234 	235 	52
f 116 	52 	235
f 84 	197 	198
f 64 	50 	69
f 51 	69 	50
f 138 	214 	139
f 100 	123 	102
f 124 	102 	123
f 108 	307 	84
f 124 	168 	102
f 60 	78 	79
f 44 	301 	304
f 287 	62 	61
f 125 	127 	129
f 130 	127 	125
f 130 	125 	131
f 132 	134 	135
f 132 	135 	129
f 127 	130 	137
f 136 	137 	130
f 198 	243 	84
f 268 	79 	78
f 279 	280 	142
f 145 	146 	147
f 145 	147 	148
f 117 	279 	142
f 149 	150 	153
f 151 	153 	150
f 142 	95 	117
f 114 	290 	115
f 111 	178 	296
f 161 	162 	158
f 161 	158 	56
f 163 	164 	165
f 159 	144 	188
f 175 	188 	144
f 166 	167 	168
f 164 	45 	208
f 46 	45 	164
f 101 	102 	45
f 208 	102 	168
f 208 	168 	167
f 161 	56 	167
f 208 	167 	56
f 142 	92 	95
f 91 	140 	90
f 171 	172 	173
f 141 	90 	140
f 174 	177 	178
f 113 	176 	150
f 113 	114 	176
f 115 	176 	114
f 110 	172 	207
f 178 	110 	207
f 226 	210 	231
f 39 	275 	41
f 94 	146 	145
f 114 	113 	182
f 40 	55 	180
f 185 	186 	117
f 95 	152 	117
f 184 	309 	183
f 117 	183 	185
f 269 	160 	187
f 66 	219 	55
f 78 	60 	192
f 281 	236 	190
f 265 	190 	60
f 122 	121 	199
f 199 	121 	200
f 157 	69 	97
f 59 	187 	141
f 90 	141 	187
f 81 	318 	188
f 155 	185 	232
f 147 	316 	317
f 147 	317 	148
f 115 	290 	176
f 192 	60 	236
f 119 	52 	120
f 116 	120 	52
f 109 	112 	296
f 112 	111 	296
f 203 	66 	202
f 204 	158 	205
f 99 	100 	101
f 102 	101 	100
f 204 	206 	158
f 56 	158 	206
f 208 	45 	102
f 60 	59 	103
f 122 	199 	207
f 47 	66 	55
f 165 	164 	208
f 209 	210 	41
f 173 	172 	292
f 213 	169 	212
f 170 	212 	169
f 210 	226 	37
f 35 	211 	201
f 35 	201 	34
f 62 	300 	106
f 50 	64 	226
f 176 	241 	67
f 106 	126 	104
f 128 	104 	126
f 217 	218 	199
f 217 	199 	200
f 128 	197 	104
f 218 	174 	199
f 181 	182 	219
f 212 	238 	213
f 226 	51 	50
f 108 	106 	118
f 105 	59 	263
f 182 	55 	219
f 180 	55 	182
f 203 	219 	66
f 220 	139 	214
f 185 	183 	232
f 227 	220 	214
f 42 	142 	278
f 192 	160 	191
f 209 	41 	231
f 229 	228 	222
f 152 	222 	228
f 192 	236 	160
f 292 	172 	110
f 95 	92 	152
f 222 	152 	92
f 144 	240 	175
f 138 	319 	214
f 228 	43 	152
f 43 	183 	117
f 225 	227 	214
f 143 	133 	54
f 36 	54 	133
f 273 	221 	272
f 223 	272 	221
f 214 	133 	225
f 280 	278 	142
f 285 	196 	195
f 42 	43 	229
f 228 	229 	43
f 117 	152 	43
f 133 	214 	319
f 160 	91 	187
f 90 	187 	91
f 120 	233 	119
f 232 	119 	233
f 209 	231 	210
f 109 	296 	96
f 75 	109 	96
f 72 	109 	73
f 264 	265 	60
f 145 	148 	94
f 275 	271 	230
f 69 	231 	147
f 231 	69 	51
f 205 	77 	82
f 133 	143 	227
f 133 	227 	225
f 205 	82 	208
f 224 	230 	257
f 84 	107 	197
f 169 	213 	107
f 208 	82 	165
f 94 	97 	146
f 286 	236 	276
f 51 	226 	231
f 275 	230 	41
f 59 	268 	187
f 160 	269 	191
f 227 	143 	220
f 150 	176 	151
f 67 	151 	176
f 233 	154 	232
f 155 	232 	154
f 154 	280 	155
f 220 	143 	318
f 298 	200 	296
f 202 	67 	241
f 176 	290 	241
f 188 	175 	81
f 83 	81 	175
f 158 	301 	205
f 241 	181 	219
f 107 	118 	169
f 170 	169 	118
f 244 	108 	243
f 203 	241 	219
f 92 	142 	222
f 86 	245 	87
f 64 	224 	226
f 37 	226 	224
f 86 	85 	245
f 89 	245 	85
f 87 	247 	248
f 87 	248 	88
f 217 	174 	218
f 245 	89 	250
f 249 	250 	89
f 230 	147 	231
f 246 	240 	159
f 299 	242 	300
f 118 	106 	212
f 244 	106 	108
f 251 	252 	253
f 240 	246 	35
f 254 	255 	256
f 143 	54 	80
f 239 	194 	242
f 193 	242 	194
f 123 	100 	306
f 113 	150 	149
f 168 	124 	306
f 123 	306 	124
f 126 	106 	244
f 256 	89 	254
f 249 	89 	256
f 89 	88 	254
f 88 	253 	254
f 248 	253 	88
f 253 	135 	254
f 252 	130 	253
f 136 	130 	252
f 130 	135 	253
f 134 	254 	135
f 182 	113 	70
f 195 	263 	285
f 135 	131 	125
f 135 	125 	129
f 193 	237 	242
f 280 	154 	233
f 120 	116 	233
f 197 	243 	198
f 244 	243 	197
f 105 	263 	103
f 257 	230 	262
f 270 	274 	224
f 263 	264 	103
f 183 	43 	261
f 128 	126 	197
f 244 	197 	126
f 203 	202 	241
f 267 	285 	266
f 135 	130 	131
f 189 	190 	265
f 174 	207 	199
f 119 	232 	52
f 269 	187 	268
f 201 	221 	240
f 34 	201 	240
f 64 	94 	224
f 267 	189 	285
f 189 	267 	266
f 189 	266 	190
f 316 	147 	230
f 283 	216 	215
f 191 	269 	268
f 191 	268 	192
f 271 	58 	270
f 224 	94 	148
f 192 	268 	78
f 224 	317 	230
f 316 	230 	317
f 275 	274 	57
f 201 	211 	258
f 236 	281 	276
f 39 	38 	275
f 274 	275 	38
f 159 	188 	246
f 276 	281 	282
f 140 	160 	236
f 266 	285 	276
f 240 	35 	34
f 193 	283 	197
f 212 	170 	118
f 280 	320 	278
f 233 	116 	280
f 67 	68 	151
f 238 	237 	193
f 183 	278 	277
f 183 	277 	184
f 195 	196 	263
f 263 	276 	285
f 140 	284 	286
f 196 	264 	263
f 261 	278 	183
f 80 	63 	272
f 273 	272 	63
f 140 	236 	284
f 196 	265 	264
f 279 	186 	185
f 279 	185 	280
f 265 	285 	189
f 186 	279 	117
f 200 	96 	296
f 196 	285 	265
f 275 	57 	58
f 185 	155 	280
f 72 	110 	109
f 140 	286 	141
f 259 	211 	223
f 288 	289 	68
f 260 	42 	278
f 58 	271 	275
f 153 	70 	113
f 261 	260 	278
f 291 	241 	290
f 288 	68 	53
f 65 	151 	68
f 133 	319 	63
f 68 	70 	65
f 71 	65 	70
f 270 	262 	271
f 179 	68 	289
f 197 	107 	213
f 175 	63 	319
f 73 	75 	292
f 235 	320 	116
f 179 	289 	288
f 179 	288 	180
f 180 	288 	33
f 180 	33 	40
f 291 	181 	241
f 259 	258 	211
f 181 	291 	290
f 181 	290 	182
f 221 	63 	240
f 182 	290 	114
f 211 	246 	318
f 293 	294 	295
f 38 	37 	274
f 296 	297 	298
f 212 	106 	300
f 53 	67 	49
f 69 	147 	97
f 55 	53 	49
f 55 	49 	47
f 61 	104 	287
f 193 	197 	213
f 295 	96 	293
f 74 	75 	295
f 93 	293 	96
f 217 	200 	298
f 121 	96 	200
f 188 	318 	246
f 173 	295 	294
f 173 	294 	171
f 171 	294 	293
f 171 	293 	172
f 295 	75 	96
f 173 	74 	295
f 224 	274 	37
f 172 	293 	93
f 172 	93 	98
f 223 	318 	80
f 208 	206 	205
f 204 	205 	206
f 297 	177 	174
f 297 	174 	298
f 208 	56 	206
f 177 	297 	296
f 177 	296 	178
f 242 	212 	300
f 72 	292 	110
f 298 	174 	217
f 287 	300 	62
f 283 	194 	299
f 153 	113 	149
f 301 	302 	303
f 304 	305 	306
f 283 	299 	216
f 287 	215 	300
f 216 	300 	215
f 103 	264 	60
f 42 	229 	222
f 237 	212 	242
f 282 	266 	276
f 286 	276 	141
f 306 	100 	304
f 100 	44 	304
f 48 	301 	44
f 158 	304 	301
f 77 	205 	303
f 301 	303 	205
f 162 	304 	158
f 165 	303 	302
f 165 	302 	163
f 141 	276 	59
f 163 	302 	301
f 163 	301 	164
f 222 	142 	42
f 165 	77 	303
f 309 	235 	234
f 91 	160 	140
f 67 	53 	68
f 107 	307 	118
f 308 	118 	307
f 151 	65 	71
f 151 	71 	153
f 55 	40 	33
f 55 	33 	53
f 164 	301 	48
f 164 	48 	46
f 305 	166 	168
f 305 	168 	306
f 73 	109 	75
f 166 	305 	304
f 166 	304 	167
f 75 	74 	76
f 75 	76 	292
f 207 	96 	121
f 207 	121 	122
f 167 	304 	162
f 167 	162 	161
f 52 	183 	309
f 309 	234 	52
f 310 	311 	312
f 98 	207 	172
f 76 	173 	292
f 96 	207 	93
f 98 	93 	207
f 313 	314 	315
f 174 	178 	207
f 283 	193 	194
f 71 	70 	153
f 179 	180 	70
f 180 	182 	70
f 52 	232 	183
f 263 	59 	276
f 215 	287 	283
f 236 	286 	284
f 312 	87 	310
f 247 	87 	312
f 87 	245 	310
f 245 	313 	310
f 250 	313 	245
f 313 	127 	310
f 315 	129 	313
f 132 	129 	315
f 129 	127 	313
f 137 	310 	127
f 253 	312 	311
f 253 	311 	251
f 221 	258 	223
f 259 	223 	258
f 231 	41 	230
f 251 	311 	310
f 251 	310 	252
f 270 	224 	257
f 236 	60 	190
f 248 	247 	312
f 248 	312 	253
f 197 	287 	104
f 252 	310 	137
f 252 	137 	136
f 240 	144 	159
f 156 	94 	64
f 314 	255 	254
f 314 	254 	315
f 36 	133 	63
f 255 	314 	313
f 255 	313 	256
f 80 	318 	143
f 272 	223 	80
f 212 	237 	238
f 315 	254 	134
f 315 	134 	132
f 262 	230 	271
f 256 	313 	249
f 250 	249 	313
f 238 	193 	213
f 274 	270 	57
f 81 	319 	318
f 257 	262 	270
f 317 	224 	148
f 57 	270 	58
f 146 	97 	147
f 118 	308 	108
f 258 	221 	201
f 308 	307 	108
f 105 	103 	59
f 211 	318 	223
f 107 	84 	307
f 216 	299 	300
f 69 	157 	156
f 319 	138 	318
f 139 	318 	138
f 239 	242 	299
f 83 	175 	319
f 239 	299 	194
f 197 	283 	287
f 64 	69 	156
f 281 	190 	282
f 266 	282 	190
f 139 	220 	318
f 280 	116 	320
f 277 	278 	320
f 320 	309 	277
f 184 	277 	309
f 309 	320 	235
f 175 	240 	63
f 273 	63 	221
# 540 faces

 #end of obj_1

