# Object Export From Tinkercad Server 2015

mtllib obj.mtl

o obj_0
v 3.3053 		-16.9144 		0
v 2 		-17 		0
v 2 		-7 		0
v 4.5882 		-16.6593 		0
v 5.8268 		-16.2388 		0
v 7 		-15.6603 		0
v 8.0876 		-14.9335 		0
v 9.0711 		-14.0711 		0
v 9.9335 		-13.0876 		0
v 10.6603 		-12 		0
v 11.2388 		-10.8268 		0
v 11.6593 		-9.5882 		0
v 11.9144 		-8.3053 		0
v 12 		-7 		0
v 11.9144 		-5.6947 		0
v 11.6593 		-4.4118 		0
v 11.2388 		-3.1732 		0
v 10.6603 		-2 		0
v 9.9335 		-0.9124 		0
v 9.0711 		0.0711 		0
v 8.0876 		0.9335 		0
v 7 		1.6603 		0
v 5.8268 		2.2388 		0
v 4.5882 		2.6593 		0
v 3.3053 		2.9144 		0
v 2 		3 		0
v 0.6947 		2.9144 		0
v -0.5882 		2.6593 		0
v -1.8268 		2.2388 		0
v -3 		1.6603 		0
v -4.0876 		0.9335 		0
v -5.0711 		0.0711 		0
v -5.9335 		-0.9124 		0
v -6.6603 		-2 		0
v -7.2388 		-3.1732 		0
v -7.6593 		-4.4118 		0
v -7.9144 		-5.6947 		0
v -8 		-7 		0
v -7.9144 		-8.3053 		0
v -7.6593 		-9.5882 		0
v -7.2388 		-10.8268 		0
v -6.6603 		-12 		0
v -5.9335 		-13.0876 		0
v -5.0711 		-14.0711 		0
v -4.0876 		-14.9335 		0
v -3 		-15.6603 		0
v -1.8268 		-16.2388 		0
v -0.5882 		-16.6593 		0
v 0.6947 		-16.9144 		0
v 2 		-17 		85
v 3.3053 		-16.9144 		85
v 2 		-7 		85
v 4.5882 		-16.6593 		85
v 5.8268 		-16.2388 		85
v 7 		-15.6603 		85
v 8.0876 		-14.9335 		85
v 9.0711 		-14.0711 		85
v 9.9335 		-13.0876 		85
v 10.6603 		-12 		85
v 11.2388 		-10.8268 		85
v 11.6593 		-9.5882 		85
v 11.9144 		-8.3053 		85
v 12 		-7 		85
v 11.9144 		-5.6947 		85
v 11.6593 		-4.4118 		85
v 11.2388 		-3.1732 		85
v 10.6603 		-2 		85
v 9.9335 		-0.9124 		85
v 9.0711 		0.0711 		85
v 8.0876 		0.9335 		85
v 7 		1.6603 		85
v 5.8268 		2.2388 		85
v 4.5882 		2.6593 		85
v 3.3053 		2.9144 		85
v 2 		3 		85
v 0.6947 		2.9144 		85
v -0.5882 		2.6593 		85
v -1.8268 		2.2388 		85
v -3 		1.6603 		85
v -4.0876 		0.9335 		85
v -5.0711 		0.0711 		85
v -5.9335 		-0.9124 		85
v -6.6603 		-2 		85
v -7.2388 		-3.1732 		85
v -7.6593 		-4.4118 		85
v -7.9144 		-5.6947 		85
v -8 		-7 		85
v -7.9144 		-8.3053 		85
v -7.6593 		-9.5882 		85
v -7.2388 		-10.8268 		85
v -6.6603 		-12 		85
v -5.9335 		-13.0876 		85
v -5.0711 		-14.0711 		85
v -4.0876 		-14.9335 		85
v -3 		-15.6603 		85
v -1.8268 		-16.2388 		85
v -0.5882 		-16.6593 		85
v 0.6947 		-16.9144 		85
# 98 vertices

g group_0_6306067

usemtl color_6306067
s 0

f 1 	2 	3
f 4 	1 	3
f 5 	4 	3
f 6 	5 	3
f 7 	6 	3
f 8 	7 	3
f 9 	8 	3
f 10 	9 	3
f 11 	10 	3
f 12 	11 	3
f 13 	12 	3
f 14 	13 	3
f 15 	14 	3
f 16 	15 	3
f 17 	16 	3
f 18 	17 	3
f 19 	18 	3
f 20 	19 	3
f 21 	20 	3
f 22 	21 	3
f 23 	22 	3
f 24 	23 	3
f 25 	24 	3
f 26 	25 	3
f 27 	26 	3
f 28 	27 	3
f 29 	28 	3
f 30 	29 	3
f 31 	30 	3
f 32 	31 	3
f 33 	32 	3
f 34 	33 	3
f 35 	34 	3
f 36 	35 	3
f 37 	36 	3
f 38 	37 	3
f 39 	38 	3
f 40 	39 	3
f 41 	40 	3
f 42 	41 	3
f 43 	42 	3
f 44 	43 	3
f 45 	44 	3
f 46 	45 	3
f 47 	46 	3
f 48 	47 	3
f 49 	48 	3
f 2 	49 	3
f 50 	51 	52
f 51 	53 	52
f 53 	54 	52
f 54 	55 	52
f 55 	56 	52
f 56 	57 	52
f 57 	58 	52
f 58 	59 	52
f 59 	60 	52
f 60 	61 	52
f 61 	62 	52
f 62 	63 	52
f 63 	64 	52
f 64 	65 	52
f 65 	66 	52
f 66 	67 	52
f 67 	68 	52
f 68 	69 	52
f 69 	70 	52
f 70 	71 	52
f 71 	72 	52
f 72 	73 	52
f 73 	74 	52
f 74 	75 	52
f 75 	76 	52
f 76 	77 	52
f 77 	78 	52
f 78 	79 	52
f 79 	80 	52
f 80 	81 	52
f 81 	82 	52
f 82 	83 	52
f 83 	84 	52
f 84 	85 	52
f 85 	86 	52
f 86 	87 	52
f 87 	88 	52
f 88 	89 	52
f 89 	90 	52
f 90 	91 	52
f 91 	92 	52
f 92 	93 	52
f 93 	94 	52
f 94 	95 	52
f 95 	96 	52
f 96 	97 	52
f 97 	98 	52
f 98 	50 	52
f 2 	1 	1
f 1 	4 	4
f 4 	5 	5
f 5 	6 	6
f 6 	7 	7
f 7 	8 	8
f 8 	9 	9
f 9 	10 	10
f 10 	11 	11
f 11 	12 	12
f 12 	13 	13
f 13 	14 	14
f 14 	15 	15
f 15 	16 	16
f 16 	17 	17
f 17 	18 	18
f 18 	19 	19
f 19 	20 	20
f 20 	21 	21
f 21 	22 	22
f 22 	23 	23
f 23 	24 	24
f 24 	25 	25
f 25 	26 	26
f 26 	27 	27
f 27 	28 	28
f 28 	29 	29
f 29 	30 	30
f 30 	31 	31
f 31 	32 	32
f 32 	33 	33
f 33 	34 	34
f 34 	35 	35
f 35 	36 	36
f 36 	37 	37
f 37 	38 	38
f 38 	39 	39
f 39 	40 	40
f 40 	41 	41
f 41 	42 	42
f 42 	43 	43
f 43 	44 	44
f 44 	45 	45
f 45 	46 	46
f 46 	47 	47
f 47 	48 	48
f 48 	49 	49
f 49 	2 	2
f 2 	1 	51
f 2 	51 	50
f 1 	4 	53
f 1 	53 	51
f 4 	5 	54
f 4 	54 	53
f 5 	6 	55
f 5 	55 	54
f 6 	7 	56
f 6 	56 	55
f 7 	8 	57
f 7 	57 	56
f 8 	9 	58
f 8 	58 	57
f 9 	10 	59
f 9 	59 	58
f 10 	11 	60
f 10 	60 	59
f 11 	12 	61
f 11 	61 	60
f 12 	13 	62
f 12 	62 	61
f 13 	14 	63
f 13 	63 	62
f 14 	15 	64
f 14 	64 	63
f 15 	16 	65
f 15 	65 	64
f 16 	17 	66
f 16 	66 	65
f 17 	18 	67
f 17 	67 	66
f 18 	19 	68
f 18 	68 	67
f 19 	20 	69
f 19 	69 	68
f 20 	21 	70
f 20 	70 	69
f 21 	22 	71
f 21 	71 	70
f 22 	23 	72
f 22 	72 	71
f 23 	24 	73
f 23 	73 	72
f 24 	25 	74
f 24 	74 	73
f 25 	26 	75
f 25 	75 	74
f 26 	27 	76
f 26 	76 	75
f 27 	28 	77
f 27 	77 	76
f 28 	29 	78
f 28 	78 	77
f 29 	30 	79
f 29 	79 	78
f 30 	31 	80
f 30 	80 	79
f 31 	32 	81
f 31 	81 	80
f 32 	33 	82
f 32 	82 	81
f 33 	34 	83
f 33 	83 	82
f 34 	35 	84
f 34 	84 	83
f 35 	36 	85
f 35 	85 	84
f 36 	37 	86
f 36 	86 	85
f 37 	38 	87
f 37 	87 	86
f 38 	39 	88
f 38 	88 	87
f 39 	40 	89
f 39 	89 	88
f 40 	41 	90
f 40 	90 	89
f 41 	42 	91
f 41 	91 	90
f 42 	43 	92
f 42 	92 	91
f 43 	44 	93
f 43 	93 	92
f 44 	45 	94
f 44 	94 	93
f 45 	46 	95
f 45 	95 	94
f 46 	47 	96
f 46 	96 	95
f 47 	48 	97
f 47 	97 	96
f 48 	49 	98
f 48 	98 	97
f 49 	2 	50
f 49 	50 	98
f 50 	51 	51
f 51 	53 	53
f 53 	54 	54
f 54 	55 	55
f 55 	56 	56
f 56 	57 	57
f 57 	58 	58
f 58 	59 	59
f 59 	60 	60
f 60 	61 	61
f 61 	62 	62
f 62 	63 	63
f 63 	64 	64
f 64 	65 	65
f 65 	66 	66
f 66 	67 	67
f 67 	68 	68
f 68 	69 	69
f 69 	70 	70
f 70 	71 	71
f 71 	72 	72
f 72 	73 	73
f 73 	74 	74
f 74 	75 	75
f 75 	76 	76
f 76 	77 	77
f 77 	78 	78
f 78 	79 	79
f 79 	80 	80
f 80 	81 	81
f 81 	82 	82
f 82 	83 	83
f 83 	84 	84
f 84 	85 	85
f 85 	86 	86
f 86 	87 	87
f 87 	88 	88
f 88 	89 	89
f 89 	90 	90
f 90 	91 	91
f 91 	92 	92
f 92 	93 	93
f 93 	94 	94
f 94 	95 	95
f 95 	96 	96
f 96 	97 	97
f 97 	98 	98
f 98 	50 	50
# 288 faces

 #end of obj_0

o obj_1
v 12.8942 		13.2322 		195.2126
v 0.2332 		13.2322 		194.7421
v 0.3415 		11.1281 		194.7421
v 0.6646 		9.06 		194.7421
v 1.1969 		7.0633 		194.7421
v 1.9294 		5.1722 		194.7421
v 2.8495 		3.4189 		194.7421
v 3.9415 		1.8336 		194.7421
v 5.1867 		0.4433 		194.7421
v 6.5637 		-0.7281 		194.7421
v 8.0491 		-1.6608 		194.7421
v 9.6173 		-2.3385 		194.7421
v 11.2416 		-2.7499 		194.7421
v 12.8942 		-2.8878 		194.7421
v 14.5468 		-2.7499 		194.7421
v 16.1711 		-2.3385 		194.7421
v 17.7394 		-1.6608 		194.7421
v 19.2247 		-0.7281 		194.7421
v 20.6018 		0.4433 		194.7421
v 21.8469 		1.8336 		194.7421
v 22.9389 		3.4189 		194.7421
v 23.859 		5.1722 		194.7421
v 24.5915 		7.0633 		194.7421
v 25.1239 		9.06 		194.7421
v 25.4469 		11.1281 		194.7421
v 25.5553 		13.2322 		194.7421
v 25.4469 		15.3363 		194.7421
v 25.1239 		17.4043 		194.7421
v 24.5915 		19.401 		194.7421
v 23.859 		21.2922 		194.7421
v 22.9389 		23.0454 		194.7421
v 21.8469 		24.6307 		194.7421
v 20.6018 		26.021 		194.7421
v 19.2247 		27.1925 		194.7421
v 17.7394 		28.1251 		194.7421
v 16.1711 		28.8029 		194.7421
v 14.5468 		29.2142 		194.7421
v 12.8942 		29.3522 		194.7421
v 11.2416 		29.2142 		194.7421
v 9.6173 		28.8029 		194.7421
v 8.0491 		28.1251 		194.7421
v 6.5637 		27.1925 		194.7421
v 5.1867 		26.021 		194.7421
v 3.9415 		24.6307 		194.7421
v 2.8495 		23.0454 		194.7421
v 1.9294 		21.2922 		194.7421
v 1.1969 		19.401 		194.7421
v 0.6646 		17.4043 		194.7421
v 0.3415 		15.3363 		194.7421
v -11.9964 		9.06 		193.3385
v -12.2112 		13.2322 		193.3385
v -11.3558 		4.9592 		193.3385
v -10.3002 		1 		193.3385
v -8.8477 		-2.7499 		193.3385
v -7.0233 		-6.2264 		193.3385
v -4.858 		-9.3699 		193.3385
v -2.389 		-12.1267 		193.3385
v 0.3415 		-14.4496 		193.3385
v 3.2868 		-16.2989 		193.3385
v 6.3965 		-17.6428 		193.3385
v 9.6173 		-18.4585 		193.3385
v 12.8942 		-18.732 		193.3385
v 16.1711 		-18.4585 		193.3385
v 19.392 		-17.6428 		193.3385
v 22.5017 		-16.2989 		193.3385
v 25.4469 		-14.4496 		193.3385
v 28.1775 		-12.1267 		193.3385
v 30.6465 		-9.3699 		193.3385
v 32.8117 		-6.2264 		193.3385
v 34.6362 		-2.7499 		193.3385
v 36.0886 		1 		193.3385
v 37.1442 		4.9592 		193.3385
v 37.7849 		9.06 		193.3385
v 37.9997 		13.2322 		193.3385
v 37.7849 		17.4043 		193.3385
v 37.1442 		21.5051 		193.3385
v 36.0886 		25.4643 		193.3385
v 34.6362 		29.2142 		193.3385
v 32.8117 		32.6907 		193.3385
v 30.6465 		35.8342 		193.3385
v 28.1775 		38.591 		193.3385
v 25.4469 		40.9139 		193.3385
v 22.5017 		42.7632 		193.3385
v 19.392 		44.1072 		193.3385
v 16.1711 		44.9229 		193.3385
v 12.8942 		45.1963 		193.3385
v 9.6173 		44.9229 		193.3385
v 6.3965 		44.1072 		193.3385
v 3.2868 		42.7632 		193.3385
v 0.3415 		40.9139 		193.3385
v -2.389 		38.591 		193.3385
v -4.858 		35.8342 		193.3385
v -7.0233 		32.6907 		193.3385
v -8.8477 		29.2142 		193.3385
v -10.3002 		25.4643 		193.3385
v -11.3558 		21.5051 		193.3385
v -11.9964 		17.4043 		193.3385
v -23.9085 		7.0633 		191.026
v -24.2261 		13.2322 		191.026
v -22.9612 		1 		191.026
v -21.4005 		-4.854 		191.026
v -19.2529 		-10.3985 		191.026
v -16.5553 		-15.5388 		191.026
v -13.3538 		-20.1867 		191.026
v -9.7032 		-24.2628 		191.026
v -5.6659 		-27.6974 		191.026
v -1.3111 		-30.4317 		191.026
v 3.2868 		-32.4188 		191.026
v 8.0491 		-33.6249 		191.026
v 12.8942 		-34.0292 		191.026
v 17.7394 		-33.6249 		191.026
v 22.5017 		-32.4188 		191.026
v 27.0995 		-30.4317 		191.026
v 31.4544 		-27.6974 		191.026
v 35.4916 		-24.2628 		191.026
v 39.1422 		-20.1867 		191.026
v 42.3437 		-15.5388 		191.026
v 45.0413 		-10.3985 		191.026
v 47.1889 		-4.854 		191.026
v 48.7497 		1 		191.026
v 49.6969 		7.0633 		191.026
v 50.0145 		13.2322 		191.026
v 49.6969 		19.401 		191.026
v 48.7497 		25.4643 		191.026
v 47.1889 		31.3183 		191.026
v 45.0413 		36.8629 		191.026
v 42.3437 		42.0031 		191.026
v 39.1422 		46.651 		191.026
v 35.4916 		50.7272 		191.026
v 31.4544 		54.1617 		191.026
v 27.0995 		56.896 		191.026
v 22.5017 		58.8832 		191.026
v 17.7394 		60.0892 		191.026
v 12.8942 		60.4936 		191.026
v 8.0491 		60.0892 		191.026
v 3.2868 		58.8832 		191.026
v -1.3111 		56.896 		191.026
v -5.6659 		54.1617 		191.026
v -9.7032 		50.7272 		191.026
v -13.3538 		46.651 		191.026
v -16.5553 		42.0031 		191.026
v -19.2529 		36.8629 		191.026
v -21.4005 		31.3183 		191.026
v -22.9612 		25.4643 		191.026
v -23.9085 		19.401 		191.026
v -35.1909 		5.1722 		187.844
v -35.6058 		13.2322 		187.844
v -33.9532 		-2.7499 		187.844
v -31.9139 		-10.3985 		187.844
v -29.108 		-17.6428 		187.844
v -25.5834 		-24.3588 		187.844
v -21.4005 		-30.4317 		187.844
v -16.6307 		-35.7574 		187.844
v -11.3558 		-40.2449 		187.844
v -5.6659 		-43.8174 		187.844
v 0.3415 		-46.4137 		187.844
v 6.5637 		-47.9896 		187.844
v 12.8942 		-48.5178 		187.844
v 19.2247 		-47.9896 		187.844
v 25.4469 		-46.4137 		187.844
v 31.4544 		-43.8174 		187.844
v 37.1442 		-40.2449 		187.844
v 42.4192 		-35.7574 		187.844
v 47.1889 		-30.4317 		187.844
v 51.3719 		-24.3588 		187.844
v 54.8965 		-17.6428 		187.844
v 57.7024 		-10.3985 		187.844
v 59.7416 		-2.7499 		187.844
v 60.9793 		5.1722 		187.844
v 61.3942 		13.2322 		187.844
v 60.9793 		21.2922 		187.844
v 59.7416 		29.2142 		187.844
v 57.7024 		36.8629 		187.844
v 54.8965 		44.1072 		187.844
v 51.3719 		50.8232 		187.844
v 47.1889 		56.896 		187.844
v 42.4192 		62.2217 		187.844
v 37.1442 		66.7092 		187.844
v 31.4544 		70.2817 		187.844
v 25.4469 		72.8781 		187.844
v 19.2247 		74.4539 		187.844
v 12.8942 		74.9822 		187.844
v 6.5637 		74.4539 		187.844
v 0.3415 		72.8781 		187.844
v -5.6659 		70.2817 		187.844
v -11.3558 		66.7092 		187.844
v -16.6307 		62.2217 		187.844
v -21.4005 		56.896 		187.844
v -25.5834 		50.8232 		187.844
v -29.108 		44.1072 		187.844
v -31.9139 		36.8629 		187.844
v -33.9532 		29.2142 		187.844
v -35.1909 		21.2922 		187.844
v -45.6505 		3.4189 		183.8471
v -46.1556 		13.2322 		183.8471
v -44.1436 		-6.2264 		183.8471
v -41.6607 		-15.5388 		183.8471
v -38.2445 		-24.3588 		183.8471
v -33.9532 		-32.5358 		183.8471
v -28.8603 		-39.9296 		183.8471
v -23.0531 		-46.4137 		183.8471
v -16.6307 		-51.8774 		183.8471
v -9.7032 		-56.227 		183.8471
v -2.389 		-59.3881 		183.8471
v 5.1867 		-61.3067 		183.8471
v 12.8942 		-61.9499 		183.8471
v 20.6018 		-61.3067 		183.8471
v 28.1775 		-59.3881 		183.8471
v 35.4916 		-56.227 		183.8471
v 42.4192 		-51.8774 		183.8471
v 48.8415 		-46.4137 		183.8471
v 54.6488 		-39.9296 		183.8471
v 59.7416 		-32.5358 		183.8471
v 64.0329 		-24.3588 		183.8471
v 67.4492 		-15.5388 		183.8471
v 69.932 		-6.2264 		183.8471
v 71.4389 		3.4189 		183.8471
v 71.9441 		13.2322 		183.8471
v 71.4389 		23.0454 		183.8471
v 69.932 		32.6907 		183.8471
v 67.4492 		42.0031 		183.8471
v 64.0329 		50.8232 		183.8471
v 59.7416 		59.0001 		183.8471
v 54.6488 		66.3939 		183.8471
v 48.8415 		72.8781 		183.8471
v 42.4192 		78.3417 		183.8471
v 35.4916 		82.6913 		183.8471
v 28.1775 		85.8524 		183.8471
v 20.6018 		87.771 		183.8471
v 12.8942 		88.4142 		183.8471
v 5.1867 		87.771 		183.8471
v -2.389 		85.8524 		183.8471
v -9.7032 		82.6913 		183.8471
v -16.6307 		78.3417 		183.8471
v -23.0531 		72.8781 		183.8471
v -28.8603 		66.3939 		183.8471
v -33.9532 		59.0001 		183.8471
v -38.2445 		50.8232 		183.8471
v -41.6607 		42.0031 		183.8471
v -44.1436 		32.6907 		183.8471
v -45.6505 		23.0454 		183.8471
v -55.1083 		1.8336 		179.1035
v -55.6951 		13.2322 		179.1035
v -53.358 		-9.3699 		179.1035
v -50.4741 		-20.1867 		179.1035
v -46.5059 		-30.4317 		179.1035
v -41.5214 		-39.9296 		179.1035
v -35.6058 		-48.5178 		179.1035
v -28.8603 		-56.0495 		179.1035
v -21.4005 		-62.3958 		179.1035
v -13.3538 		-67.4481 		179.1035
v -4.858 		-71.1199 		179.1035
v 3.9415 		-73.3484 		179.1035
v 12.8942 		-74.0955 		179.1035
v 21.8469 		-73.3484 		179.1035
v 30.6465 		-71.1199 		179.1035
v 39.1422 		-67.4481 		179.1035
v 47.1889 		-62.3958 		179.1035
v 54.6488 		-56.0495 		179.1035
v 61.3942 		-48.5178 		179.1035
v 67.3098 		-39.9296 		179.1035
v 72.2944 		-30.4317 		179.1035
v 76.2625 		-20.1867 		179.1035
v 79.1465 		-9.3699 		179.1035
v 80.8968 		1.8336 		179.1035
v 81.4836 		13.2322 		179.1035
v 80.8968 		24.6307 		179.1035
v 79.1465 		35.8342 		179.1035
v 76.2625 		46.651 		179.1035
v 72.2944 		56.896 		179.1035
v 67.3098 		66.3939 		179.1035
v 61.3942 		74.9822 		179.1035
v 54.6488 		82.5139 		179.1035
v 47.1889 		88.8602 		179.1035
v 39.1422 		93.9124 		179.1035
v 30.6465 		97.5842 		179.1035
v 21.8469 		99.8128 		179.1035
v 12.8942 		100.5599 		179.1035
v 3.9415 		99.8128 		179.1035
v -4.858 		97.5842 		179.1035
v -13.3538 		93.9124 		179.1035
v -21.4005 		88.8602 		179.1035
v -28.8603 		82.5139 		179.1035
v -35.6058 		74.9822 		179.1035
v -41.5214 		66.3939 		179.1035
v -46.5059 		56.896 		179.1035
v -50.4741 		46.651 		179.1035
v -53.358 		35.8342 		179.1035
v -55.1083 		24.6307 		179.1035
v -63.4027 		0.4433 		173.6945
v -64.061 		13.2322 		173.6945
v -61.4389 		-12.1267 		173.6945
v -58.2032 		-24.2628 		173.6945
v -53.751 		-35.7574 		173.6945
v -48.1585 		-46.4137 		173.6945
v -41.5214 		-56.0495 		173.6945
v -33.9532 		-64.4999 		173.6945
v -25.5834 		-71.6202 		173.6945
v -16.5553 		-77.2887 		173.6945
v -7.0233 		-81.4084 		173.6945
v 2.8495 		-83.9087 		173.6945
v 12.8942 		-84.747 		173.6945
v 22.9389 		-83.9087 		173.6945
v 32.8117 		-81.4084 		173.6945
v 42.3437 		-77.2887 		173.6945
v 51.3719 		-71.6202 		173.6945
v 59.7416 		-64.4999 		173.6945
v 67.3098 		-56.0495 		173.6945
v 73.9469 		-46.4137 		173.6945
v 79.5394 		-35.7574 		173.6945
v 83.9916 		-24.2628 		173.6945
v 87.2273 		-12.1267 		173.6945
v 89.1911 		0.4433 		173.6945
v 89.8495 		13.2322 		173.6945
v 89.1911 		26.021 		173.6945
v 87.2273 		38.591 		173.6945
v 83.9916 		50.7272 		173.6945
v 79.5394 		62.2217 		173.6945
v 73.9469 		72.8781 		173.6945
v 67.3098 		82.5139 		173.6945
v 59.7416 		90.9642 		173.6945
v 51.3719 		98.0846 		173.6945
v 42.3437 		103.7531 		173.6945
v 32.8117 		107.8727 		173.6945
v 22.9389 		110.3731 		173.6945
v 12.8942 		111.2113 		173.6945
v 2.8495 		110.3731 		173.6945
v -7.0233 		107.8727 		173.6945
v -16.5553 		103.7531 		173.6945
v -25.5834 		98.0846 		173.6945
v -33.9532 		90.9642 		173.6945
v -41.5214 		82.5139 		173.6945
v -48.1585 		72.8781 		173.6945
v -53.751 		62.2217 		173.6945
v -58.2032 		50.7272 		173.6945
v -61.4389 		38.591 		173.6945
v -63.4027 		26.021 		173.6945
v -70.3916 		-0.7281 		167.7126
v -71.1102 		13.2322 		167.7126
v -68.2479 		-14.4496 		167.7126
v -64.7158 		-27.6974 		167.7126
v -59.8558 		-40.2449 		167.7126
v -53.751 		-51.8774 		167.7126
v -46.5059 		-62.3958 		167.7126
v -38.2445 		-71.6202 		167.7126
v -29.108 		-79.3928 		167.7126
v -19.2529 		-85.5806 		167.7126
v -8.8477 		-90.0776 		167.7126
v 1.9294 		-92.807 		167.7126
v 12.8942 		-93.722 		167.7126
v 23.859 		-92.807 		167.7126
v 34.6362 		-90.0776 		167.7126
v 45.0413 		-85.5806 		167.7126
v 54.8965 		-79.3928 		167.7126
v 64.0329 		-71.6202 		167.7126
v 72.2944 		-62.3958 		167.7126
v 79.5394 		-51.8774 		167.7126
v 85.6442 		-40.2449 		167.7126
v 90.5042 		-27.6974 		167.7126
v 94.0363 		-14.4496 		167.7126
v 96.18 		-0.7281 		167.7126
v 96.8987 		13.2322 		167.7126
v 96.18 		27.1925 		167.7126
v 94.0363 		40.9139 		167.7126
v 90.5042 		54.1617 		167.7126
v 85.6442 		66.7092 		167.7126
v 79.5394 		78.3417 		167.7126
v 72.2944 		88.8602 		167.7126
v 64.0329 		98.0846 		167.7126
v 54.8965 		105.8572 		167.7126
v 45.0413 		112.0449 		167.7126
v 34.6362 		116.5419 		167.7126
v 23.859 		119.2713 		167.7126
v 12.8942 		120.1863 		167.7126
v 1.9294 		119.2713 		167.7126
v -8.8477 		116.5419 		167.7126
v -19.2529 		112.0449 		167.7126
v -29.108 		105.8572 		167.7126
v -38.2445 		98.0846 		167.7126
v -46.5059 		88.8602 		167.7126
v -53.751 		78.3417 		167.7126
v -59.8558 		66.7092 		167.7126
v -64.7158 		54.1617 		167.7126
v -68.2479 		40.9139 		167.7126
v -70.3916 		27.1925 		167.7126
v -75.9554 		-1.6608 		161.2602
v -76.7221 		13.2322 		161.2602
v -73.6685 		-16.2989 		161.2602
v -69.9005 		-30.4317 		161.2602
v -64.7158 		-43.8174 		161.2602
v -58.2032 		-56.227 		161.2602
v -50.4741 		-67.4481 		161.2602
v -41.6607 		-77.2887 		161.2602
v -31.9139 		-85.5806 		161.2602
v -21.4005 		-92.1817 		161.2602
v -10.3002 		-96.9791 		161.2602
v 1.1969 		-99.8908 		161.2602
v 12.8942 		-100.867 		161.2602
v 24.5915 		-99.8908 		161.2602
v 36.0886 		-96.9791 		161.2602
v 47.1889 		-92.1817 		161.2602
v 57.7024 		-85.5806 		161.2602
v 67.4492 		-77.2887 		161.2602
v 76.2625 		-67.4481 		161.2602
v 83.9916 		-56.227 		161.2602
v 90.5042 		-43.8174 		161.2602
v 95.6889 		-30.4317 		161.2602
v 99.4569 		-16.2989 		161.2602
v 101.7439 		-1.6608 		161.2602
v 102.5105 		13.2322 		161.2602
v 101.7439 		28.1251 		161.2602
v 99.4569 		42.7632 		161.2602
v 95.6889 		56.896 		161.2602
v 90.5042 		70.2817 		161.2602
v 83.9916 		82.6913 		161.2602
v 76.2625 		93.9124 		161.2602
v 67.4492 		103.7531 		161.2602
v 57.7024 		112.0449 		161.2602
v 47.1889 		118.646 		161.2602
v 36.0886 		123.4435 		161.2602
v 24.5915 		126.3552 		161.2602
v 12.8942 		127.3313 		161.2602
v 1.1969 		126.3552 		161.2602
v -10.3002 		123.4435 		161.2602
v -21.4005 		118.646 		161.2602
v -31.9139 		112.0449 		161.2602
v -41.6607 		103.7531 		161.2602
v -50.4741 		93.9124 		161.2602
v -58.2032 		82.6913 		161.2602
v -64.7158 		70.2817 		161.2602
v -69.9005 		56.896 		161.2602
v -73.6685 		42.7632 		161.2602
v -75.9554 		28.1251 		161.2602
v -79.999 		-2.3385 		154.4477
v -80.8006 		13.2322 		154.4477
v -77.608 		-17.6428 		154.4477
v -73.6685 		-32.4188 		154.4477
v -68.2479 		-46.4137 		154.4477
v -61.4389 		-59.3881 		154.4477
v -53.358 		-71.1199 		154.4477
v -44.1436 		-81.4084 		154.4477
v -33.9532 		-90.0776 		154.4477
v -22.9612 		-96.9791 		154.4477
v -11.3558 		-101.9949 		154.4477
v 0.6646 		-105.0391 		154.4477
v 12.8942 		-106.0597 		154.4477
v 25.1239 		-105.0391 		154.4477
v 37.1442 		-101.9949 		154.4477
v 48.7497 		-96.9791 		154.4477
v 59.7416 		-90.0776 		154.4477
v 69.932 		-81.4084 		154.4477
v 79.1465 		-71.1199 		154.4477
v 87.2273 		-59.3881 		154.4477
v 94.0363 		-46.4137 		154.4477
v 99.4569 		-32.4188 		154.4477
v 103.3965 		-17.6428 		154.4477
v 105.7875 		-2.3385 		154.4477
v 106.589 		13.2322 		154.4477
v 105.7875 		28.8029 		154.4477
v 103.3965 		44.1072 		154.4477
v 99.4569 		58.8832 		154.4477
v 94.0363 		72.8781 		154.4477
v 87.2273 		85.8524 		154.4477
v 79.1465 		97.5842 		154.4477
v 69.932 		107.8727 		154.4477
v 59.7416 		116.5419 		154.4477
v 48.7497 		123.4435 		154.4477
v 37.1442 		128.4592 		154.4477
v 25.1239 		131.5035 		154.4477
v 12.8942 		132.524 		154.4477
v 0.6646 		131.5035 		154.4477
v -11.3558 		128.4592 		154.4477
v -22.9612 		123.4435 		154.4477
v -33.9532 		116.5419 		154.4477
v -44.1436 		107.8727 		154.4477
v -53.358 		97.5842 		154.4477
v -61.4389 		85.8524 		154.4477
v -68.2479 		72.8781 		154.4477
v -73.6685 		58.8832 		154.4477
v -77.608 		44.1072 		154.4477
v -79.999 		28.8029 		154.4477
v -82.4532 		-2.7499 		147.3916
v -83.2759 		13.2322 		147.3916
v -79.999 		-18.4585 		147.3916
v -75.9554 		-33.6249 		147.3916
v -70.3916 		-47.9896 		147.3916
v -63.4027 		-61.3067 		147.3916
v -55.1083 		-73.3484 		147.3916
v -45.6505 		-83.9087 		147.3916
v -35.1909 		-92.807 		147.3916
v -23.9085 		-99.8908 		147.3916
v -11.9964 		-105.0391 		147.3916
v 0.3415 		-108.1637 		147.3916
v 12.8942 		-109.2113 		147.3916
v 25.4469 		-108.1637 		147.3916
v 37.7849 		-105.0391 		147.3916
v 49.6969 		-99.8908 		147.3916
v 60.9793 		-92.807 		147.3916
v 71.4389 		-83.9087 		147.3916
v 80.8968 		-73.3484 		147.3916
v 89.1911 		-61.3067 		147.3916
v 96.18 		-47.9896 		147.3916
v 101.7439 		-33.6249 		147.3916
v 105.7875 		-18.4585 		147.3916
v 108.2416 		-2.7499 		147.3916
v 109.0644 		13.2322 		147.3916
v 108.2416 		29.2142 		147.3916
v 105.7875 		44.9229 		147.3916
v 101.7439 		60.0892 		147.3916
v 96.18 		74.4539 		147.3916
v 89.1911 		87.771 		147.3916
v 80.8968 		99.8128 		147.3916
v 71.4389 		110.3731 		147.3916
v 60.9793 		119.2713 		147.3916
v 49.6969 		126.3552 		147.3916
v 37.7849 		131.5035 		147.3916
v 25.4469 		134.6281 		147.3916
v 12.8942 		135.6756 		147.3916
v 0.3415 		134.6281 		147.3916
v -11.9964 		131.5035 		147.3916
v -23.9085 		126.3552 		147.3916
v -35.1909 		119.2713 		147.3916
v -45.6505 		110.3731 		147.3916
v -55.1083 		99.8128 		147.3916
v -63.4027 		87.771 		147.3916
v -70.3916 		74.4539 		147.3916
v -75.9554 		60.0892 		147.3916
v -79.999 		44.9229 		147.3916
v -82.4532 		29.2142 		147.3916
v -83.2759 		-2.8878 		140.2126
v -84.1058 		13.2322 		140.2126
v -80.8006 		-18.732 		140.2126
v -76.7221 		-34.0292 		140.2126
v -71.1102 		-48.5178 		140.2126
v -64.061 		-61.9499 		140.2126
v -55.6951 		-74.0955 		140.2126
v -46.1556 		-84.747 		140.2126
v -35.6058 		-93.722 		140.2126
v -24.2261 		-100.867 		140.2126
v -12.2112 		-106.0597 		140.2126
v 0.2332 		-109.2113 		140.2126
v 12.8942 		-110.2678 		140.2126
v 25.5553 		-109.2113 		140.2126
v 37.9997 		-106.0597 		140.2126
v 50.0145 		-100.867 		140.2126
v 61.3942 		-93.722 		140.2126
v 71.9441 		-84.747 		140.2126
v 81.4836 		-74.0955 		140.2126
v 89.8495 		-61.9499 		140.2126
v 96.8987 		-48.5178 		140.2126
v 102.5105 		-34.0292 		140.2126
v 106.589 		-18.732 		140.2126
v 109.0644 		-2.8878 		140.2126
v 109.8942 		13.2322 		140.2126
v 109.0644 		29.3522 		140.2126
v 106.589 		45.1963 		140.2126
v 102.5105 		60.4936 		140.2126
v 96.8987 		74.9822 		140.2126
v 89.8495 		88.4142 		140.2126
v 81.4836 		100.5599 		140.2126
v 71.9441 		111.2113 		140.2126
v 61.3942 		120.1863 		140.2126
v 50.0145 		127.3313 		140.2126
v 37.9997 		132.524 		140.2126
v 25.5553 		135.6756 		140.2126
v 12.8942 		136.7322 		140.2126
v 0.2332 		135.6756 		140.2126
v -12.2112 		132.524 		140.2126
v -24.2261 		127.3313 		140.2126
v -35.6058 		120.1863 		140.2126
v -46.1556 		111.2113 		140.2126
v -55.6951 		100.5599 		140.2126
v -64.061 		88.4142 		140.2126
v -71.1102 		74.9822 		140.2126
v -76.7221 		60.4936 		140.2126
v -80.8006 		45.1963 		140.2126
v -83.2759 		29.3522 		140.2126
v -82.4532 		-2.7499 		133.0337
v -83.2759 		13.2322 		133.0337
v -79.999 		-18.4585 		133.0337
v -75.9554 		-33.6249 		133.0337
v -70.3916 		-47.9896 		133.0337
v -63.4027 		-61.3067 		133.0337
v -55.1083 		-73.3484 		133.0337
v -45.6505 		-83.9087 		133.0337
v -35.1909 		-92.807 		133.0337
v -23.9085 		-99.8908 		133.0337
v -11.9964 		-105.0391 		133.0337
v 0.3415 		-108.1637 		133.0337
v 12.8942 		-109.2113 		133.0337
v 25.4469 		-108.1637 		133.0337
v 37.7849 		-105.0391 		133.0337
v 49.6969 		-99.8908 		133.0337
v 60.9793 		-92.807 		133.0337
v 71.4389 		-83.9087 		133.0337
v 80.8968 		-73.3484 		133.0337
v 89.1911 		-61.3067 		133.0337
v 96.18 		-47.9896 		133.0337
v 101.7439 		-33.6249 		133.0337
v 105.7875 		-18.4585 		133.0337
v 108.2416 		-2.7499 		133.0337
v 109.0644 		13.2322 		133.0337
v 108.2416 		29.2142 		133.0337
v 105.7875 		44.9229 		133.0337
v 101.7439 		60.0892 		133.0337
v 96.18 		74.4539 		133.0337
v 89.1911 		87.771 		133.0337
v 80.8968 		99.8128 		133.0337
v 71.4389 		110.3731 		133.0337
v 60.9793 		119.2713 		133.0337
v 49.6969 		126.3552 		133.0337
v 37.7849 		131.5035 		133.0337
v 25.4469 		134.6281 		133.0337
v 12.8942 		135.6756 		133.0337
v 0.3415 		134.6281 		133.0337
v -11.9964 		131.5035 		133.0337
v -23.9085 		126.3552 		133.0337
v -35.1909 		119.2713 		133.0337
v -45.6505 		110.3731 		133.0337
v -55.1083 		99.8128 		133.0337
v -63.4027 		87.771 		133.0337
v -70.3916 		74.4539 		133.0337
v -75.9554 		60.0892 		133.0337
v -79.999 		44.9229 		133.0337
v -82.4532 		29.2142 		133.0337
v -79.999 		-2.3385 		125.9776
v -80.8006 		13.2322 		125.9776
v -77.608 		-17.6428 		125.9776
v -73.6685 		-32.4188 		125.9776
v -68.2479 		-46.4137 		125.9776
v -61.4389 		-59.3881 		125.9776
v -53.358 		-71.1199 		125.9776
v -44.1436 		-81.4084 		125.9776
v -33.9532 		-90.0776 		125.9776
v -22.9612 		-96.9791 		125.9776
v -11.3558 		-101.9949 		125.9776
v 0.6646 		-105.0391 		125.9776
v 12.8942 		-106.0597 		125.9776
v 25.1239 		-105.0391 		125.9776
v 37.1442 		-101.9949 		125.9776
v 48.7497 		-96.9791 		125.9776
v 59.7416 		-90.0776 		125.9776
v 69.932 		-81.4084 		125.9776
v 79.1465 		-71.1199 		125.9776
v 87.2273 		-59.3881 		125.9776
v 94.0363 		-46.4137 		125.9776
v 99.4569 		-32.4188 		125.9776
v 103.3965 		-17.6428 		125.9776
v 105.7875 		-2.3385 		125.9776
v 106.589 		13.2322 		125.9776
v 105.7875 		28.8029 		125.9776
v 103.3965 		44.1072 		125.9776
v 99.4569 		58.8832 		125.9776
v 94.0363 		72.8781 		125.9776
v 87.2273 		85.8524 		125.9776
v 79.1465 		97.5842 		125.9776
v 69.932 		107.8727 		125.9776
v 59.7416 		116.5419 		125.9776
v 48.7497 		123.4435 		125.9776
v 37.1442 		128.4592 		125.9776
v 25.1239 		131.5035 		125.9776
v 12.8942 		132.524 		125.9776
v 0.6646 		131.5035 		125.9776
v -11.3558 		128.4592 		125.9776
v -22.9612 		123.4435 		125.9776
v -33.9532 		116.5419 		125.9776
v -44.1436 		107.8727 		125.9776
v -53.358 		97.5842 		125.9776
v -61.4389 		85.8524 		125.9776
v -68.2479 		72.8781 		125.9776
v -73.6685 		58.8832 		125.9776
v -77.608 		44.1072 		125.9776
v -79.999 		28.8029 		125.9776
v -75.9554 		-1.6608 		119.165
v -76.7221 		13.2322 		119.165
v -73.6685 		-16.2989 		119.165
v -69.9005 		-30.4317 		119.165
v -64.7158 		-43.8174 		119.165
v -58.2032 		-56.227 		119.165
v -50.4741 		-67.4481 		119.165
v -41.6607 		-77.2887 		119.165
v -31.9139 		-85.5806 		119.165
v -21.4005 		-92.1817 		119.165
v -10.3002 		-96.9791 		119.165
v 1.1969 		-99.8908 		119.165
v 12.8942 		-100.867 		119.165
v 24.5915 		-99.8908 		119.165
v 36.0886 		-96.9791 		119.165
v 47.1889 		-92.1817 		119.165
v 57.7024 		-85.5806 		119.165
v 67.4492 		-77.2887 		119.165
v 76.2625 		-67.4481 		119.165
v 83.9916 		-56.227 		119.165
v 90.5042 		-43.8174 		119.165
v 95.6889 		-30.4317 		119.165
v 99.4569 		-16.2989 		119.165
v 101.7439 		-1.6608 		119.165
v 102.5105 		13.2322 		119.165
v 101.7439 		28.1251 		119.165
v 99.4569 		42.7632 		119.165
v 95.6889 		56.896 		119.165
v 90.5042 		70.2817 		119.165
v 83.9916 		82.6913 		119.165
v 76.2625 		93.9124 		119.165
v 67.4492 		103.7531 		119.165
v 57.7024 		112.0449 		119.165
v 47.1889 		118.646 		119.165
v 36.0886 		123.4435 		119.165
v 24.5915 		126.3552 		119.165
v 12.8942 		127.3313 		119.165
v 1.1969 		126.3552 		119.165
v -10.3002 		123.4435 		119.165
v -21.4005 		118.646 		119.165
v -31.9139 		112.0449 		119.165
v -41.6607 		103.7531 		119.165
v -50.4741 		93.9124 		119.165
v -58.2032 		82.6913 		119.165
v -64.7158 		70.2817 		119.165
v -69.9005 		56.896 		119.165
v -73.6685 		42.7632 		119.165
v -75.9554 		28.1251 		119.165
v -70.3916 		-0.7281 		112.7126
v -71.1102 		13.2322 		112.7126
v -68.2479 		-14.4496 		112.7126
v -64.7158 		-27.6974 		112.7126
v -59.8558 		-40.2449 		112.7126
v -53.751 		-51.8774 		112.7126
v -46.5059 		-62.3958 		112.7126
v -38.2445 		-71.6202 		112.7126
v -29.108 		-79.3928 		112.7126
v -19.2529 		-85.5806 		112.7126
v -8.8477 		-90.0776 		112.7126
v 1.9294 		-92.807 		112.7126
v 12.8942 		-93.722 		112.7126
v 23.859 		-92.807 		112.7126
v 34.6362 		-90.0776 		112.7126
v 45.0413 		-85.5806 		112.7126
v 54.8965 		-79.3928 		112.7126
v 64.0329 		-71.6202 		112.7126
v 72.2944 		-62.3958 		112.7126
v 79.5394 		-51.8774 		112.7126
v 85.6442 		-40.2449 		112.7126
v 90.5042 		-27.6974 		112.7126
v 94.0363 		-14.4496 		112.7126
v 96.18 		-0.7281 		112.7126
v 96.8987 		13.2322 		112.7126
v 96.18 		27.1925 		112.7126
v 94.0363 		40.9139 		112.7126
v 90.5042 		54.1617 		112.7126
v 85.6442 		66.7092 		112.7126
v 79.5394 		78.3417 		112.7126
v 72.2944 		88.8602 		112.7126
v 64.0329 		98.0846 		112.7126
v 54.8965 		105.8572 		112.7126
v 45.0413 		112.0449 		112.7126
v 34.6362 		116.5419 		112.7126
v 23.859 		119.2713 		112.7126
v 12.8942 		120.1863 		112.7126
v 1.9294 		119.2713 		112.7126
v -8.8477 		116.5419 		112.7126
v -19.2529 		112.0449 		112.7126
v -29.108 		105.8572 		112.7126
v -38.2445 		98.0846 		112.7126
v -46.5059 		88.8602 		112.7126
v -53.751 		78.3417 		112.7126
v -59.8558 		66.7092 		112.7126
v -64.7158 		54.1617 		112.7126
v -68.2479 		40.9139 		112.7126
v -70.3916 		27.1925 		112.7126
v -63.4027 		0.4433 		106.7308
v -64.061 		13.2322 		106.7308
v -61.4389 		-12.1267 		106.7308
v -58.2032 		-24.2628 		106.7308
v -53.751 		-35.7574 		106.7308
v -48.1585 		-46.4137 		106.7308
v -41.5214 		-56.0495 		106.7308
v -33.9532 		-64.4999 		106.7308
v -25.5834 		-71.6202 		106.7308
v -16.5553 		-77.2887 		106.7308
v -7.0233 		-81.4084 		106.7308
v 2.8495 		-83.9087 		106.7308
v 12.8942 		-84.747 		106.7308
v 22.9389 		-83.9087 		106.7308
v 32.8117 		-81.4084 		106.7308
v 42.3437 		-77.2887 		106.7308
v 51.3719 		-71.6202 		106.7308
v 59.7416 		-64.4999 		106.7308
v 67.3098 		-56.0495 		106.7308
v 73.9469 		-46.4137 		106.7308
v 79.5394 		-35.7574 		106.7308
v 83.9916 		-24.2628 		106.7308
v 87.2273 		-12.1267 		106.7308
v 89.1911 		0.4433 		106.7308
v 89.8495 		13.2322 		106.7308
v 89.1911 		26.021 		106.7308
v 87.2273 		38.591 		106.7308
v 83.9916 		50.7272 		106.7308
v 79.5394 		62.2217 		106.7308
v 73.9469 		72.8781 		106.7308
v 67.3098 		82.5139 		106.7308
v 59.7416 		90.9642 		106.7308
v 51.3719 		98.0846 		106.7308
v 42.3437 		103.7531 		106.7308
v 32.8117 		107.8727 		106.7308
v 22.9389 		110.3731 		106.7308
v 12.8942 		111.2113 		106.7308
v 2.8495 		110.3731 		106.7308
v -7.0233 		107.8727 		106.7308
v -16.5553 		103.7531 		106.7308
v -25.5834 		98.0846 		106.7308
v -33.9532 		90.9642 		106.7308
v -41.5214 		82.5139 		106.7308
v -48.1585 		72.8781 		106.7308
v -53.751 		62.2217 		106.7308
v -58.2032 		50.7272 		106.7308
v -61.4389 		38.591 		106.7308
v -63.4027 		26.021 		106.7308
v -55.1083 		1.8336 		101.3218
v -55.6951 		13.2322 		101.3218
v -53.358 		-9.3699 		101.3218
v -50.4741 		-20.1867 		101.3218
v -46.5059 		-30.4317 		101.3218
v -41.5214 		-39.9296 		101.3218
v -35.6058 		-48.5178 		101.3218
v -28.8603 		-56.0495 		101.3218
v -21.4005 		-62.3958 		101.3218
v -13.3538 		-67.4481 		101.3218
v -4.858 		-71.1199 		101.3218
v 3.9415 		-73.3484 		101.3218
v 12.8942 		-74.0955 		101.3218
v 21.8469 		-73.3484 		101.3218
v 30.6465 		-71.1199 		101.3218
v 39.1422 		-67.4481 		101.3218
v 47.1889 		-62.3958 		101.3218
v 54.6488 		-56.0495 		101.3218
v 61.3942 		-48.5178 		101.3218
v 67.3098 		-39.9296 		101.3218
v 72.2944 		-30.4317 		101.3218
v 76.2625 		-20.1867 		101.3218
v 79.1465 		-9.3699 		101.3218
v 80.8968 		1.8336 		101.3218
v 81.4836 		13.2322 		101.3218
v 80.8968 		24.6307 		101.3218
v 79.1465 		35.8342 		101.3218
v 76.2625 		46.651 		101.3218
v 72.2944 		56.896 		101.3218
v 67.3098 		66.3939 		101.3218
v 61.3942 		74.9822 		101.3218
v 54.6488 		82.5139 		101.3218
v 47.1889 		88.8602 		101.3218
v 39.1422 		93.9124 		101.3218
v 30.6465 		97.5842 		101.3218
v 21.8469 		99.8128 		101.3218
v 12.8942 		100.5599 		101.3218
v 3.9415 		99.8128 		101.3218
v -4.858 		97.5842 		101.3218
v -13.3538 		93.9124 		101.3218
v -21.4005 		88.8602 		101.3218
v -28.8603 		82.5139 		101.3218
v -35.6058 		74.9822 		101.3218
v -41.5214 		66.3939 		101.3218
v -46.5059 		56.896 		101.3218
v -50.4741 		46.651 		101.3218
v -53.358 		35.8342 		101.3218
v -55.1083 		24.6307 		101.3218
v -45.6505 		3.4189 		96.5782
v -46.1556 		13.2322 		96.5782
v -44.1436 		-6.2264 		96.5782
v -41.6607 		-15.5388 		96.5782
v -38.2445 		-24.3588 		96.5782
v -33.9532 		-32.5358 		96.5782
v -28.8603 		-39.9296 		96.5782
v -23.0531 		-46.4137 		96.5782
v -16.6307 		-51.8774 		96.5782
v -9.7032 		-56.227 		96.5782
v -2.389 		-59.3881 		96.5782
v 5.1867 		-61.3067 		96.5782
v 12.8942 		-61.9499 		96.5782
v 20.6018 		-61.3067 		96.5782
v 28.1775 		-59.3881 		96.5782
v 35.4916 		-56.227 		96.5782
v 42.4192 		-51.8774 		96.5782
v 48.8415 		-46.4137 		96.5782
v 54.6488 		-39.9296 		96.5782
v 59.7416 		-32.5358 		96.5782
v 64.0329 		-24.3588 		96.5782
v 67.4492 		-15.5388 		96.5782
v 69.932 		-6.2264 		96.5782
v 71.4389 		3.4189 		96.5782
v 71.9441 		13.2322 		96.5782
v 71.4389 		23.0454 		96.5782
v 69.932 		32.6907 		96.5782
v 67.4492 		42.0031 		96.5782
v 64.0329 		50.8232 		96.5782
v 59.7416 		59.0001 		96.5782
v 54.6488 		66.3939 		96.5782
v 48.8415 		72.8781 		96.5782
v 42.4192 		78.3417 		96.5782
v 35.4916 		82.6913 		96.5782
v 28.1775 		85.8524 		96.5782
v 20.6018 		87.771 		96.5782
v 12.8942 		88.4142 		96.5782
v 5.1867 		87.771 		96.5782
v -2.389 		85.8524 		96.5782
v -9.7032 		82.6913 		96.5782
v -16.6307 		78.3417 		96.5782
v -23.0531 		72.8781 		96.5782
v -28.8603 		66.3939 		96.5782
v -33.9532 		59.0001 		96.5782
v -38.2445 		50.8232 		96.5782
v -41.6607 		42.0031 		96.5782
v -44.1436 		32.6907 		96.5782
v -45.6505 		23.0454 		96.5782
v -35.1909 		5.1722 		92.5812
v -35.6058 		13.2322 		92.5812
v -33.9532 		-2.7499 		92.5812
v -31.9139 		-10.3985 		92.5812
v -29.108 		-17.6428 		92.5812
v -25.5834 		-24.3588 		92.5812
v -21.4005 		-30.4317 		92.5812
v -16.6307 		-35.7574 		92.5812
v -11.3558 		-40.2449 		92.5812
v -5.6659 		-43.8174 		92.5812
v 0.3415 		-46.4137 		92.5812
v 6.5637 		-47.9896 		92.5812
v 12.8942 		-48.5178 		92.5812
v 19.2247 		-47.9896 		92.5812
v 25.4469 		-46.4137 		92.5812
v 31.4544 		-43.8174 		92.5812
v 37.1442 		-40.2449 		92.5812
v 42.4192 		-35.7574 		92.5812
v 47.1889 		-30.4317 		92.5812
v 51.3719 		-24.3588 		92.5812
v 54.8965 		-17.6428 		92.5812
v 57.7024 		-10.3985 		92.5812
v 59.7416 		-2.7499 		92.5812
v 60.9793 		5.1722 		92.5812
v 61.3942 		13.2322 		92.5812
v 60.9793 		21.2922 		92.5812
v 59.7416 		29.2142 		92.5812
v 57.7024 		36.8629 		92.5812
v 54.8965 		44.1072 		92.5812
v 51.3719 		50.8232 		92.5812
v 47.1889 		56.896 		92.5812
v 42.4192 		62.2217 		92.5812
v 37.1442 		66.7092 		92.5812
v 31.4544 		70.2817 		92.5812
v 25.4469 		72.8781 		92.5812
v 19.2247 		74.4539 		92.5812
v 12.8942 		74.9822 		92.5812
v 6.5637 		74.4539 		92.5812
v 0.3415 		72.8781 		92.5812
v -5.6659 		70.2817 		92.5812
v -11.3558 		66.7092 		92.5812
v -16.6307 		62.2217 		92.5812
v -21.4005 		56.896 		92.5812
v -25.5834 		50.8232 		92.5812
v -29.108 		44.1072 		92.5812
v -31.9139 		36.8629 		92.5812
v -33.9532 		29.2142 		92.5812
v -35.1909 		21.2922 		92.5812
v -23.9085 		7.0633 		89.3993
v -24.2261 		13.2322 		89.3993
v -22.9612 		1 		89.3993
v -21.4005 		-4.854 		89.3993
v -19.2529 		-10.3985 		89.3993
v -16.5553 		-15.5388 		89.3993
v -13.3538 		-20.1867 		89.3993
v -9.7032 		-24.2628 		89.3993
v -5.6659 		-27.6974 		89.3993
v -1.3111 		-30.4317 		89.3993
v 3.2868 		-32.4188 		89.3993
v 8.0491 		-33.6249 		89.3993
v 12.8942 		-34.0292 		89.3993
v 17.7394 		-33.6249 		89.3993
v 22.5017 		-32.4188 		89.3993
v 27.0995 		-30.4317 		89.3993
v 31.4544 		-27.6974 		89.3993
v 35.4916 		-24.2628 		89.3993
v 39.1422 		-20.1867 		89.3993
v 42.3437 		-15.5388 		89.3993
v 45.0413 		-10.3985 		89.3993
v 47.1889 		-4.854 		89.3993
v 48.7497 		1 		89.3993
v 49.6969 		7.0633 		89.3993
v 50.0145 		13.2322 		89.3993
v 49.6969 		19.401 		89.3993
v 48.7497 		25.4643 		89.3993
v 47.1889 		31.3183 		89.3993
v 45.0413 		36.8629 		89.3993
v 42.3437 		42.0031 		89.3993
v 39.1422 		46.651 		89.3993
v 35.4916 		50.7272 		89.3993
v 31.4544 		54.1617 		89.3993
v 27.0995 		56.896 		89.3993
v 22.5017 		58.8832 		89.3993
v 17.7394 		60.0892 		89.3993
v 12.8942 		60.4936 		89.3993
v 8.0491 		60.0892 		89.3993
v 3.2868 		58.8832 		89.3993
v -1.3111 		56.896 		89.3993
v -5.6659 		54.1617 		89.3993
v -9.7032 		50.7272 		89.3993
v -13.3538 		46.651 		89.3993
v -16.5553 		42.0031 		89.3993
v -19.2529 		36.8629 		89.3993
v -21.4005 		31.3183 		89.3993
v -22.9612 		25.4643 		89.3993
v -23.9085 		19.401 		89.3993
v -11.9964 		9.06 		87.0867
v -12.2112 		13.2322 		87.0867
v -11.3558 		4.9592 		87.0867
v -10.3002 		1 		87.0867
v -8.8477 		-2.7499 		87.0867
v -7.0233 		-6.2264 		87.0867
v -4.858 		-9.3699 		87.0867
v -2.389 		-12.1267 		87.0867
v 0.3415 		-14.4496 		87.0867
v 3.2868 		-16.2989 		87.0867
v 6.3965 		-17.6428 		87.0867
v 9.6173 		-18.4585 		87.0867
v 12.8942 		-18.732 		87.0867
v 16.1711 		-18.4585 		87.0867
v 19.392 		-17.6428 		87.0867
v 22.5017 		-16.2989 		87.0867
v 25.4469 		-14.4496 		87.0867
v 28.1775 		-12.1267 		87.0867
v 30.6465 		-9.3699 		87.0867
v 32.8117 		-6.2264 		87.0867
v 34.6362 		-2.7499 		87.0867
v 36.0886 		1 		87.0867
v 37.1442 		4.9592 		87.0867
v 37.7849 		9.06 		87.0867
v 37.9997 		13.2322 		87.0867
v 37.7849 		17.4043 		87.0867
v 37.1442 		21.5051 		87.0867
v 36.0886 		25.4643 		87.0867
v 34.6362 		29.2142 		87.0867
v 32.8117 		32.6907 		87.0867
v 30.6465 		35.8342 		87.0867
v 28.1775 		38.591 		87.0867
v 25.4469 		40.9139 		87.0867
v 22.5017 		42.7632 		87.0867
v 19.392 		44.1072 		87.0867
v 16.1711 		44.9229 		87.0867
v 12.8942 		45.1963 		87.0867
v 9.6173 		44.9229 		87.0867
v 6.3965 		44.1072 		87.0867
v 3.2868 		42.7632 		87.0867
v 0.3415 		40.9139 		87.0867
v -2.389 		38.591 		87.0867
v -4.858 		35.8342 		87.0867
v -7.0233 		32.6907 		87.0867
v -8.8477 		29.2142 		87.0867
v -10.3002 		25.4643 		87.0867
v -11.3558 		21.5051 		87.0867
v -11.9964 		17.4043 		87.0867
v 0.3415 		11.1281 		85.6832
v 0.2332 		13.2322 		85.6832
v 0.6646 		9.06 		85.6832
v 1.1969 		7.0633 		85.6832
v 1.9294 		5.1722 		85.6832
v 2.8495 		3.4189 		85.6832
v 3.9415 		1.8336 		85.6832
v 5.1867 		0.4433 		85.6832
v 6.5637 		-0.7281 		85.6832
v 8.0491 		-1.6608 		85.6832
v 9.6173 		-2.3385 		85.6832
v 11.2416 		-2.7499 		85.6832
v 12.8942 		-2.8878 		85.6832
v 14.5468 		-2.7499 		85.6832
v 16.1711 		-2.3385 		85.6832
v 17.7394 		-1.6608 		85.6832
v 19.2247 		-0.7281 		85.6832
v 20.6018 		0.4433 		85.6832
v 21.8469 		1.8336 		85.6832
v 22.9389 		3.4189 		85.6832
v 23.859 		5.1722 		85.6832
v 24.5915 		7.0633 		85.6832
v 25.1239 		9.06 		85.6832
v 25.4469 		11.1281 		85.6832
v 25.5553 		13.2322 		85.6832
v 25.4469 		15.3363 		85.6832
v 25.1239 		17.4043 		85.6832
v 24.5915 		19.401 		85.6832
v 23.859 		21.2922 		85.6832
v 22.9389 		23.0454 		85.6832
v 21.8469 		24.6307 		85.6832
v 20.6018 		26.021 		85.6832
v 19.2247 		27.1925 		85.6832
v 17.7394 		28.1251 		85.6832
v 16.1711 		28.8029 		85.6832
v 14.5468 		29.2142 		85.6832
v 12.8942 		29.3522 		85.6832
v 11.2416 		29.2142 		85.6832
v 9.6173 		28.8029 		85.6832
v 8.0491 		28.1251 		85.6832
v 6.5637 		27.1925 		85.6832
v 5.1867 		26.021 		85.6832
v 3.9415 		24.6307 		85.6832
v 2.8495 		23.0454 		85.6832
v 1.9294 		21.2922 		85.6832
v 1.1969 		19.401 		85.6832
v 0.6646 		17.4043 		85.6832
v 0.3415 		15.3363 		85.6832
v 12.8942 		13.2322 		85.2126
# 1106 vertices

g group_1_15277357

usemtl color_15277357
s 0

f 99 	100 	101
f 99 	101 	102
f 99 	102 	103
f 99 	103 	104
f 99 	104 	105
f 99 	105 	106
f 99 	106 	107
f 99 	107 	108
f 99 	108 	109
f 99 	109 	110
f 99 	110 	111
f 99 	111 	112
f 99 	112 	113
f 99 	113 	114
f 99 	114 	115
f 99 	115 	116
f 99 	116 	117
f 99 	117 	118
f 99 	118 	119
f 99 	119 	120
f 99 	120 	121
f 99 	121 	122
f 99 	122 	123
f 99 	123 	124
f 99 	124 	125
f 99 	125 	126
f 99 	126 	127
f 99 	127 	128
f 99 	128 	129
f 99 	129 	130
f 99 	130 	131
f 99 	131 	132
f 99 	132 	133
f 99 	133 	134
f 99 	134 	135
f 99 	135 	136
f 99 	136 	137
f 99 	137 	138
f 99 	138 	139
f 99 	139 	140
f 99 	140 	141
f 99 	141 	142
f 99 	142 	143
f 99 	143 	144
f 99 	144 	145
f 99 	145 	146
f 99 	146 	147
f 99 	147 	100
f 101 	100 	148
f 100 	149 	148
f 102 	101 	150
f 101 	148 	150
f 103 	102 	151
f 102 	150 	151
f 104 	103 	152
f 103 	151 	152
f 105 	104 	153
f 104 	152 	153
f 106 	105 	154
f 105 	153 	154
f 107 	106 	155
f 106 	154 	155
f 108 	107 	156
f 107 	155 	156
f 109 	108 	157
f 108 	156 	157
f 110 	109 	158
f 109 	157 	158
f 111 	110 	159
f 110 	158 	159
f 112 	111 	160
f 111 	159 	160
f 113 	112 	161
f 112 	160 	161
f 114 	113 	162
f 113 	161 	162
f 115 	114 	163
f 114 	162 	163
f 116 	115 	164
f 115 	163 	164
f 117 	116 	165
f 116 	164 	165
f 118 	117 	166
f 117 	165 	166
f 119 	118 	167
f 118 	166 	167
f 120 	119 	168
f 119 	167 	168
f 121 	120 	169
f 120 	168 	169
f 122 	121 	170
f 121 	169 	170
f 123 	122 	171
f 122 	170 	171
f 124 	123 	172
f 123 	171 	172
f 125 	124 	173
f 124 	172 	173
f 126 	125 	174
f 125 	173 	174
f 127 	126 	175
f 126 	174 	175
f 128 	127 	176
f 127 	175 	176
f 129 	128 	177
f 128 	176 	177
f 130 	129 	178
f 129 	177 	178
f 131 	130 	179
f 130 	178 	179
f 132 	131 	180
f 131 	179 	180
f 133 	132 	181
f 132 	180 	181
f 134 	133 	182
f 133 	181 	182
f 135 	134 	183
f 134 	182 	183
f 136 	135 	184
f 135 	183 	184
f 137 	136 	185
f 136 	184 	185
f 138 	137 	186
f 137 	185 	186
f 139 	138 	187
f 138 	186 	187
f 140 	139 	188
f 139 	187 	188
f 141 	140 	189
f 140 	188 	189
f 142 	141 	190
f 141 	189 	190
f 143 	142 	191
f 142 	190 	191
f 144 	143 	192
f 143 	191 	192
f 145 	144 	193
f 144 	192 	193
f 146 	145 	194
f 145 	193 	194
f 147 	146 	195
f 146 	194 	195
f 100 	147 	149
f 147 	195 	149
f 148 	149 	196
f 149 	197 	196
f 150 	148 	198
f 148 	196 	198
f 151 	150 	199
f 150 	198 	199
f 152 	151 	200
f 151 	199 	200
f 153 	152 	201
f 152 	200 	201
f 154 	153 	202
f 153 	201 	202
f 155 	154 	203
f 154 	202 	203
f 156 	155 	204
f 155 	203 	204
f 157 	156 	205
f 156 	204 	205
f 158 	157 	206
f 157 	205 	206
f 159 	158 	207
f 158 	206 	207
f 160 	159 	208
f 159 	207 	208
f 161 	160 	209
f 160 	208 	209
f 162 	161 	210
f 161 	209 	210
f 163 	162 	211
f 162 	210 	211
f 164 	163 	212
f 163 	211 	212
f 165 	164 	213
f 164 	212 	213
f 166 	165 	214
f 165 	213 	214
f 167 	166 	215
f 166 	214 	215
f 168 	167 	216
f 167 	215 	216
f 169 	168 	217
f 168 	216 	217
f 170 	169 	218
f 169 	217 	218
f 171 	170 	219
f 170 	218 	219
f 172 	171 	220
f 171 	219 	220
f 173 	172 	221
f 172 	220 	221
f 174 	173 	222
f 173 	221 	222
f 175 	174 	223
f 174 	222 	223
f 176 	175 	224
f 175 	223 	224
f 177 	176 	225
f 176 	224 	225
f 178 	177 	226
f 177 	225 	226
f 179 	178 	227
f 178 	226 	227
f 180 	179 	228
f 179 	227 	228
f 181 	180 	229
f 180 	228 	229
f 182 	181 	230
f 181 	229 	230
f 183 	182 	231
f 182 	230 	231
f 184 	183 	232
f 183 	231 	232
f 185 	184 	233
f 184 	232 	233
f 186 	185 	234
f 185 	233 	234
f 187 	186 	235
f 186 	234 	235
f 188 	187 	236
f 187 	235 	236
f 189 	188 	237
f 188 	236 	237
f 190 	189 	238
f 189 	237 	238
f 191 	190 	239
f 190 	238 	239
f 192 	191 	240
f 191 	239 	240
f 193 	192 	241
f 192 	240 	241
f 194 	193 	242
f 193 	241 	242
f 195 	194 	243
f 194 	242 	243
f 149 	195 	197
f 195 	243 	197
f 196 	197 	244
f 197 	245 	244
f 198 	196 	246
f 196 	244 	246
f 199 	198 	247
f 198 	246 	247
f 200 	199 	248
f 199 	247 	248
f 201 	200 	249
f 200 	248 	249
f 202 	201 	250
f 201 	249 	250
f 203 	202 	251
f 202 	250 	251
f 204 	203 	252
f 203 	251 	252
f 205 	204 	253
f 204 	252 	253
f 206 	205 	254
f 205 	253 	254
f 207 	206 	255
f 206 	254 	255
f 208 	207 	256
f 207 	255 	256
f 209 	208 	257
f 208 	256 	257
f 210 	209 	258
f 209 	257 	258
f 211 	210 	259
f 210 	258 	259
f 212 	211 	260
f 211 	259 	260
f 213 	212 	261
f 212 	260 	261
f 214 	213 	262
f 213 	261 	262
f 215 	214 	263
f 214 	262 	263
f 216 	215 	264
f 215 	263 	264
f 217 	216 	265
f 216 	264 	265
f 218 	217 	266
f 217 	265 	266
f 219 	218 	267
f 218 	266 	267
f 220 	219 	268
f 219 	267 	268
f 221 	220 	269
f 220 	268 	269
f 222 	221 	270
f 221 	269 	270
f 223 	222 	271
f 222 	270 	271
f 224 	223 	272
f 223 	271 	272
f 225 	224 	273
f 224 	272 	273
f 226 	225 	274
f 225 	273 	274
f 227 	226 	275
f 226 	274 	275
f 228 	227 	276
f 227 	275 	276
f 229 	228 	277
f 228 	276 	277
f 230 	229 	278
f 229 	277 	278
f 231 	230 	279
f 230 	278 	279
f 232 	231 	280
f 231 	279 	280
f 233 	232 	281
f 232 	280 	281
f 234 	233 	282
f 233 	281 	282
f 235 	234 	283
f 234 	282 	283
f 236 	235 	284
f 235 	283 	284
f 237 	236 	285
f 236 	284 	285
f 238 	237 	286
f 237 	285 	286
f 239 	238 	287
f 238 	286 	287
f 240 	239 	288
f 239 	287 	288
f 241 	240 	289
f 240 	288 	289
f 242 	241 	290
f 241 	289 	290
f 243 	242 	291
f 242 	290 	291
f 197 	243 	245
f 243 	291 	245
f 244 	245 	292
f 245 	293 	292
f 246 	244 	294
f 244 	292 	294
f 247 	246 	295
f 246 	294 	295
f 248 	247 	296
f 247 	295 	296
f 249 	248 	297
f 248 	296 	297
f 250 	249 	298
f 249 	297 	298
f 251 	250 	299
f 250 	298 	299
f 252 	251 	300
f 251 	299 	300
f 253 	252 	301
f 252 	300 	301
f 254 	253 	302
f 253 	301 	302
f 255 	254 	303
f 254 	302 	303
f 256 	255 	304
f 255 	303 	304
f 257 	256 	305
f 256 	304 	305
f 258 	257 	306
f 257 	305 	306
f 259 	258 	307
f 258 	306 	307
f 260 	259 	308
f 259 	307 	308
f 261 	260 	309
f 260 	308 	309
f 262 	261 	310
f 261 	309 	310
f 263 	262 	311
f 262 	310 	311
f 264 	263 	312
f 263 	311 	312
f 265 	264 	313
f 264 	312 	313
f 266 	265 	314
f 265 	313 	314
f 267 	266 	315
f 266 	314 	315
f 268 	267 	316
f 267 	315 	316
f 269 	268 	317
f 268 	316 	317
f 270 	269 	318
f 269 	317 	318
f 271 	270 	319
f 270 	318 	319
f 272 	271 	320
f 271 	319 	320
f 273 	272 	321
f 272 	320 	321
f 274 	273 	322
f 273 	321 	322
f 275 	274 	323
f 274 	322 	323
f 276 	275 	324
f 275 	323 	324
f 277 	276 	325
f 276 	324 	325
f 278 	277 	326
f 277 	325 	326
f 279 	278 	327
f 278 	326 	327
f 280 	279 	328
f 279 	327 	328
f 281 	280 	329
f 280 	328 	329
f 282 	281 	330
f 281 	329 	330
f 283 	282 	331
f 282 	330 	331
f 284 	283 	332
f 283 	331 	332
f 285 	284 	333
f 284 	332 	333
f 286 	285 	334
f 285 	333 	334
f 287 	286 	335
f 286 	334 	335
f 288 	287 	336
f 287 	335 	336
f 289 	288 	337
f 288 	336 	337
f 290 	289 	338
f 289 	337 	338
f 291 	290 	339
f 290 	338 	339
f 245 	291 	293
f 291 	339 	293
f 292 	293 	340
f 293 	341 	340
f 294 	292 	342
f 292 	340 	342
f 295 	294 	343
f 294 	342 	343
f 296 	295 	344
f 295 	343 	344
f 297 	296 	345
f 296 	344 	345
f 298 	297 	346
f 297 	345 	346
f 299 	298 	347
f 298 	346 	347
f 300 	299 	348
f 299 	347 	348
f 301 	300 	349
f 300 	348 	349
f 302 	301 	350
f 301 	349 	350
f 303 	302 	351
f 302 	350 	351
f 304 	303 	352
f 303 	351 	352
f 305 	304 	353
f 304 	352 	353
f 306 	305 	354
f 305 	353 	354
f 307 	306 	355
f 306 	354 	355
f 308 	307 	356
f 307 	355 	356
f 309 	308 	357
f 308 	356 	357
f 310 	309 	358
f 309 	357 	358
f 311 	310 	359
f 310 	358 	359
f 312 	311 	360
f 311 	359 	360
f 313 	312 	361
f 312 	360 	361
f 314 	313 	362
f 313 	361 	362
f 315 	314 	363
f 314 	362 	363
f 316 	315 	364
f 315 	363 	364
f 317 	316 	365
f 316 	364 	365
f 318 	317 	366
f 317 	365 	366
f 319 	318 	367
f 318 	366 	367
f 320 	319 	368
f 319 	367 	368
f 321 	320 	369
f 320 	368 	369
f 322 	321 	370
f 321 	369 	370
f 323 	322 	371
f 322 	370 	371
f 324 	323 	372
f 323 	371 	372
f 325 	324 	373
f 324 	372 	373
f 326 	325 	374
f 325 	373 	374
f 327 	326 	375
f 326 	374 	375
f 328 	327 	376
f 327 	375 	376
f 329 	328 	377
f 328 	376 	377
f 330 	329 	378
f 329 	377 	378
f 331 	330 	379
f 330 	378 	379
f 332 	331 	380
f 331 	379 	380
f 333 	332 	381
f 332 	380 	381
f 334 	333 	382
f 333 	381 	382
f 335 	334 	383
f 334 	382 	383
f 336 	335 	384
f 335 	383 	384
f 337 	336 	385
f 336 	384 	385
f 338 	337 	386
f 337 	385 	386
f 339 	338 	387
f 338 	386 	387
f 293 	339 	341
f 339 	387 	341
f 340 	341 	388
f 341 	389 	388
f 342 	340 	390
f 340 	388 	390
f 343 	342 	391
f 342 	390 	391
f 344 	343 	392
f 343 	391 	392
f 345 	344 	393
f 344 	392 	393
f 346 	345 	394
f 345 	393 	394
f 347 	346 	395
f 346 	394 	395
f 348 	347 	396
f 347 	395 	396
f 349 	348 	397
f 348 	396 	397
f 350 	349 	398
f 349 	397 	398
f 351 	350 	399
f 350 	398 	399
f 352 	351 	400
f 351 	399 	400
f 353 	352 	401
f 352 	400 	401
f 354 	353 	402
f 353 	401 	402
f 355 	354 	403
f 354 	402 	403
f 356 	355 	404
f 355 	403 	404
f 357 	356 	405
f 356 	404 	405
f 358 	357 	406
f 357 	405 	406
f 359 	358 	407
f 358 	406 	407
f 360 	359 	408
f 359 	407 	408
f 361 	360 	409
f 360 	408 	409
f 362 	361 	410
f 361 	409 	410
f 363 	362 	411
f 362 	410 	411
f 364 	363 	412
f 363 	411 	412
f 365 	364 	413
f 364 	412 	413
f 366 	365 	414
f 365 	413 	414
f 367 	366 	415
f 366 	414 	415
f 368 	367 	416
f 367 	415 	416
f 369 	368 	417
f 368 	416 	417
f 370 	369 	418
f 369 	417 	418
f 371 	370 	419
f 370 	418 	419
f 372 	371 	420
f 371 	419 	420
f 373 	372 	421
f 372 	420 	421
f 374 	373 	422
f 373 	421 	422
f 375 	374 	423
f 374 	422 	423
f 376 	375 	424
f 375 	423 	424
f 377 	376 	425
f 376 	424 	425
f 378 	377 	426
f 377 	425 	426
f 379 	378 	427
f 378 	426 	427
f 380 	379 	428
f 379 	427 	428
f 381 	380 	429
f 380 	428 	429
f 382 	381 	430
f 381 	429 	430
f 383 	382 	431
f 382 	430 	431
f 384 	383 	432
f 383 	431 	432
f 385 	384 	433
f 384 	432 	433
f 386 	385 	434
f 385 	433 	434
f 387 	386 	435
f 386 	434 	435
f 341 	387 	389
f 387 	435 	389
f 388 	389 	436
f 389 	437 	436
f 390 	388 	438
f 388 	436 	438
f 391 	390 	439
f 390 	438 	439
f 392 	391 	440
f 391 	439 	440
f 393 	392 	441
f 392 	440 	441
f 394 	393 	442
f 393 	441 	442
f 395 	394 	443
f 394 	442 	443
f 396 	395 	444
f 395 	443 	444
f 397 	396 	445
f 396 	444 	445
f 398 	397 	446
f 397 	445 	446
f 399 	398 	447
f 398 	446 	447
f 400 	399 	448
f 399 	447 	448
f 401 	400 	449
f 400 	448 	449
f 402 	401 	450
f 401 	449 	450
f 403 	402 	451
f 402 	450 	451
f 404 	403 	452
f 403 	451 	452
f 405 	404 	453
f 404 	452 	453
f 406 	405 	454
f 405 	453 	454
f 407 	406 	455
f 406 	454 	455
f 408 	407 	456
f 407 	455 	456
f 409 	408 	457
f 408 	456 	457
f 410 	409 	458
f 409 	457 	458
f 411 	410 	459
f 410 	458 	459
f 412 	411 	460
f 411 	459 	460
f 413 	412 	461
f 412 	460 	461
f 414 	413 	462
f 413 	461 	462
f 415 	414 	463
f 414 	462 	463
f 416 	415 	464
f 415 	463 	464
f 417 	416 	465
f 416 	464 	465
f 418 	417 	466
f 417 	465 	466
f 419 	418 	467
f 418 	466 	467
f 420 	419 	468
f 419 	467 	468
f 421 	420 	469
f 420 	468 	469
f 422 	421 	470
f 421 	469 	470
f 423 	422 	471
f 422 	470 	471
f 424 	423 	472
f 423 	471 	472
f 425 	424 	473
f 424 	472 	473
f 426 	425 	474
f 425 	473 	474
f 427 	426 	475
f 426 	474 	475
f 428 	427 	476
f 427 	475 	476
f 429 	428 	477
f 428 	476 	477
f 430 	429 	478
f 429 	477 	478
f 431 	430 	479
f 430 	478 	479
f 432 	431 	480
f 431 	479 	480
f 433 	432 	481
f 432 	480 	481
f 434 	433 	482
f 433 	481 	482
f 435 	434 	483
f 434 	482 	483
f 389 	435 	437
f 435 	483 	437
f 436 	437 	484
f 437 	485 	484
f 438 	436 	486
f 436 	484 	486
f 439 	438 	487
f 438 	486 	487
f 440 	439 	488
f 439 	487 	488
f 441 	440 	489
f 440 	488 	489
f 442 	441 	490
f 441 	489 	490
f 443 	442 	491
f 442 	490 	491
f 444 	443 	492
f 443 	491 	492
f 445 	444 	493
f 444 	492 	493
f 446 	445 	494
f 445 	493 	494
f 447 	446 	495
f 446 	494 	495
f 448 	447 	496
f 447 	495 	496
f 449 	448 	497
f 448 	496 	497
f 450 	449 	498
f 449 	497 	498
f 451 	450 	499
f 450 	498 	499
f 452 	451 	500
f 451 	499 	500
f 453 	452 	501
f 452 	500 	501
f 454 	453 	502
f 453 	501 	502
f 455 	454 	503
f 454 	502 	503
f 456 	455 	504
f 455 	503 	504
f 457 	456 	505
f 456 	504 	505
f 458 	457 	506
f 457 	505 	506
f 459 	458 	507
f 458 	506 	507
f 460 	459 	508
f 459 	507 	508
f 461 	460 	509
f 460 	508 	509
f 462 	461 	510
f 461 	509 	510
f 463 	462 	511
f 462 	510 	511
f 464 	463 	512
f 463 	511 	512
f 465 	464 	513
f 464 	512 	513
f 466 	465 	514
f 465 	513 	514
f 467 	466 	515
f 466 	514 	515
f 468 	467 	516
f 467 	515 	516
f 469 	468 	517
f 468 	516 	517
f 470 	469 	518
f 469 	517 	518
f 471 	470 	519
f 470 	518 	519
f 472 	471 	520
f 471 	519 	520
f 473 	472 	521
f 472 	520 	521
f 474 	473 	522
f 473 	521 	522
f 475 	474 	523
f 474 	522 	523
f 476 	475 	524
f 475 	523 	524
f 477 	476 	525
f 476 	524 	525
f 478 	477 	526
f 477 	525 	526
f 479 	478 	527
f 478 	526 	527
f 480 	479 	528
f 479 	527 	528
f 481 	480 	529
f 480 	528 	529
f 482 	481 	530
f 481 	529 	530
f 483 	482 	531
f 482 	530 	531
f 437 	483 	485
f 483 	531 	485
f 484 	485 	532
f 485 	533 	532
f 486 	484 	534
f 484 	532 	534
f 487 	486 	535
f 486 	534 	535
f 488 	487 	536
f 487 	535 	536
f 489 	488 	537
f 488 	536 	537
f 490 	489 	538
f 489 	537 	538
f 491 	490 	539
f 490 	538 	539
f 492 	491 	540
f 491 	539 	540
f 493 	492 	541
f 492 	540 	541
f 494 	493 	542
f 493 	541 	542
f 495 	494 	543
f 494 	542 	543
f 496 	495 	544
f 495 	543 	544
f 497 	496 	545
f 496 	544 	545
f 498 	497 	546
f 497 	545 	546
f 499 	498 	547
f 498 	546 	547
f 500 	499 	548
f 499 	547 	548
f 501 	500 	549
f 500 	548 	549
f 502 	501 	550
f 501 	549 	550
f 503 	502 	551
f 502 	550 	551
f 504 	503 	552
f 503 	551 	552
f 505 	504 	553
f 504 	552 	553
f 506 	505 	554
f 505 	553 	554
f 507 	506 	555
f 506 	554 	555
f 508 	507 	556
f 507 	555 	556
f 509 	508 	557
f 508 	556 	557
f 510 	509 	558
f 509 	557 	558
f 511 	510 	559
f 510 	558 	559
f 512 	511 	560
f 511 	559 	560
f 513 	512 	561
f 512 	560 	561
f 514 	513 	562
f 513 	561 	562
f 515 	514 	563
f 514 	562 	563
f 516 	515 	564
f 515 	563 	564
f 517 	516 	565
f 516 	564 	565
f 518 	517 	566
f 517 	565 	566
f 519 	518 	567
f 518 	566 	567
f 520 	519 	568
f 519 	567 	568
f 521 	520 	569
f 520 	568 	569
f 522 	521 	570
f 521 	569 	570
f 523 	522 	571
f 522 	570 	571
f 524 	523 	572
f 523 	571 	572
f 525 	524 	573
f 524 	572 	573
f 526 	525 	574
f 525 	573 	574
f 527 	526 	575
f 526 	574 	575
f 528 	527 	576
f 527 	575 	576
f 529 	528 	577
f 528 	576 	577
f 530 	529 	578
f 529 	577 	578
f 531 	530 	579
f 530 	578 	579
f 485 	531 	533
f 531 	579 	533
f 532 	533 	580
f 533 	581 	580
f 534 	532 	582
f 532 	580 	582
f 535 	534 	583
f 534 	582 	583
f 536 	535 	584
f 535 	583 	584
f 537 	536 	585
f 536 	584 	585
f 538 	537 	586
f 537 	585 	586
f 539 	538 	587
f 538 	586 	587
f 540 	539 	588
f 539 	587 	588
f 541 	540 	589
f 540 	588 	589
f 542 	541 	590
f 541 	589 	590
f 543 	542 	591
f 542 	590 	591
f 544 	543 	592
f 543 	591 	592
f 545 	544 	593
f 544 	592 	593
f 546 	545 	594
f 545 	593 	594
f 547 	546 	595
f 546 	594 	595
f 548 	547 	596
f 547 	595 	596
f 549 	548 	597
f 548 	596 	597
f 550 	549 	598
f 549 	597 	598
f 551 	550 	599
f 550 	598 	599
f 552 	551 	600
f 551 	599 	600
f 553 	552 	601
f 552 	600 	601
f 554 	553 	602
f 553 	601 	602
f 555 	554 	603
f 554 	602 	603
f 556 	555 	604
f 555 	603 	604
f 557 	556 	605
f 556 	604 	605
f 558 	557 	606
f 557 	605 	606
f 559 	558 	607
f 558 	606 	607
f 560 	559 	608
f 559 	607 	608
f 561 	560 	609
f 560 	608 	609
f 562 	561 	610
f 561 	609 	610
f 563 	562 	611
f 562 	610 	611
f 564 	563 	612
f 563 	611 	612
f 565 	564 	613
f 564 	612 	613
f 566 	565 	614
f 565 	613 	614
f 567 	566 	615
f 566 	614 	615
f 568 	567 	616
f 567 	615 	616
f 569 	568 	617
f 568 	616 	617
f 570 	569 	618
f 569 	617 	618
f 571 	570 	619
f 570 	618 	619
f 572 	571 	620
f 571 	619 	620
f 573 	572 	621
f 572 	620 	621
f 574 	573 	622
f 573 	621 	622
f 575 	574 	623
f 574 	622 	623
f 576 	575 	624
f 575 	623 	624
f 577 	576 	625
f 576 	624 	625
f 578 	577 	626
f 577 	625 	626
f 579 	578 	627
f 578 	626 	627
f 533 	579 	581
f 579 	627 	581
f 580 	581 	628
f 581 	629 	628
f 582 	580 	630
f 580 	628 	630
f 583 	582 	631
f 582 	630 	631
f 584 	583 	632
f 583 	631 	632
f 585 	584 	633
f 584 	632 	633
f 586 	585 	634
f 585 	633 	634
f 587 	586 	635
f 586 	634 	635
f 588 	587 	636
f 587 	635 	636
f 589 	588 	637
f 588 	636 	637
f 590 	589 	638
f 589 	637 	638
f 591 	590 	639
f 590 	638 	639
f 592 	591 	640
f 591 	639 	640
f 593 	592 	641
f 592 	640 	641
f 594 	593 	642
f 593 	641 	642
f 595 	594 	643
f 594 	642 	643
f 596 	595 	644
f 595 	643 	644
f 597 	596 	645
f 596 	644 	645
f 598 	597 	646
f 597 	645 	646
f 599 	598 	647
f 598 	646 	647
f 600 	599 	648
f 599 	647 	648
f 601 	600 	649
f 600 	648 	649
f 602 	601 	650
f 601 	649 	650
f 603 	602 	651
f 602 	650 	651
f 604 	603 	652
f 603 	651 	652
f 605 	604 	653
f 604 	652 	653
f 606 	605 	654
f 605 	653 	654
f 607 	606 	655
f 606 	654 	655
f 608 	607 	656
f 607 	655 	656
f 609 	608 	657
f 608 	656 	657
f 610 	609 	658
f 609 	657 	658
f 611 	610 	659
f 610 	658 	659
f 612 	611 	660
f 611 	659 	660
f 613 	612 	661
f 612 	660 	661
f 614 	613 	662
f 613 	661 	662
f 615 	614 	663
f 614 	662 	663
f 616 	615 	664
f 615 	663 	664
f 617 	616 	665
f 616 	664 	665
f 618 	617 	666
f 617 	665 	666
f 619 	618 	667
f 618 	666 	667
f 620 	619 	668
f 619 	667 	668
f 621 	620 	669
f 620 	668 	669
f 622 	621 	670
f 621 	669 	670
f 623 	622 	671
f 622 	670 	671
f 624 	623 	672
f 623 	671 	672
f 625 	624 	673
f 624 	672 	673
f 626 	625 	674
f 625 	673 	674
f 627 	626 	675
f 626 	674 	675
f 581 	627 	629
f 627 	675 	629
f 628 	629 	676
f 629 	677 	676
f 630 	628 	678
f 628 	676 	678
f 631 	630 	679
f 630 	678 	679
f 632 	631 	680
f 631 	679 	680
f 633 	632 	681
f 632 	680 	681
f 634 	633 	682
f 633 	681 	682
f 635 	634 	683
f 634 	682 	683
f 636 	635 	684
f 635 	683 	684
f 637 	636 	685
f 636 	684 	685
f 638 	637 	686
f 637 	685 	686
f 639 	638 	687
f 638 	686 	687
f 640 	639 	688
f 639 	687 	688
f 641 	640 	689
f 640 	688 	689
f 642 	641 	690
f 641 	689 	690
f 643 	642 	691
f 642 	690 	691
f 644 	643 	692
f 643 	691 	692
f 645 	644 	693
f 644 	692 	693
f 646 	645 	694
f 645 	693 	694
f 647 	646 	695
f 646 	694 	695
f 648 	647 	696
f 647 	695 	696
f 649 	648 	697
f 648 	696 	697
f 650 	649 	698
f 649 	697 	698
f 651 	650 	699
f 650 	698 	699
f 652 	651 	700
f 651 	699 	700
f 653 	652 	701
f 652 	700 	701
f 654 	653 	702
f 653 	701 	702
f 655 	654 	703
f 654 	702 	703
f 656 	655 	704
f 655 	703 	704
f 657 	656 	705
f 656 	704 	705
f 658 	657 	706
f 657 	705 	706
f 659 	658 	707
f 658 	706 	707
f 660 	659 	708
f 659 	707 	708
f 661 	660 	709
f 660 	708 	709
f 662 	661 	710
f 661 	709 	710
f 663 	662 	711
f 662 	710 	711
f 664 	663 	712
f 663 	711 	712
f 665 	664 	713
f 664 	712 	713
f 666 	665 	714
f 665 	713 	714
f 667 	666 	715
f 666 	714 	715
f 668 	667 	716
f 667 	715 	716
f 669 	668 	717
f 668 	716 	717
f 670 	669 	718
f 669 	717 	718
f 671 	670 	719
f 670 	718 	719
f 672 	671 	720
f 671 	719 	720
f 673 	672 	721
f 672 	720 	721
f 674 	673 	722
f 673 	721 	722
f 675 	674 	723
f 674 	722 	723
f 629 	675 	677
f 675 	723 	677
f 676 	677 	724
f 677 	725 	724
f 678 	676 	726
f 676 	724 	726
f 679 	678 	727
f 678 	726 	727
f 680 	679 	728
f 679 	727 	728
f 681 	680 	729
f 680 	728 	729
f 682 	681 	730
f 681 	729 	730
f 683 	682 	731
f 682 	730 	731
f 684 	683 	732
f 683 	731 	732
f 685 	684 	733
f 684 	732 	733
f 686 	685 	734
f 685 	733 	734
f 687 	686 	735
f 686 	734 	735
f 688 	687 	736
f 687 	735 	736
f 689 	688 	737
f 688 	736 	737
f 690 	689 	738
f 689 	737 	738
f 691 	690 	739
f 690 	738 	739
f 692 	691 	740
f 691 	739 	740
f 693 	692 	741
f 692 	740 	741
f 694 	693 	742
f 693 	741 	742
f 695 	694 	743
f 694 	742 	743
f 696 	695 	744
f 695 	743 	744
f 697 	696 	745
f 696 	744 	745
f 698 	697 	746
f 697 	745 	746
f 699 	698 	747
f 698 	746 	747
f 700 	699 	748
f 699 	747 	748
f 701 	700 	749
f 700 	748 	749
f 702 	701 	750
f 701 	749 	750
f 703 	702 	751
f 702 	750 	751
f 704 	703 	752
f 703 	751 	752
f 705 	704 	753
f 704 	752 	753
f 706 	705 	754
f 705 	753 	754
f 707 	706 	755
f 706 	754 	755
f 708 	707 	756
f 707 	755 	756
f 709 	708 	757
f 708 	756 	757
f 710 	709 	758
f 709 	757 	758
f 711 	710 	759
f 710 	758 	759
f 712 	711 	760
f 711 	759 	760
f 713 	712 	761
f 712 	760 	761
f 714 	713 	762
f 713 	761 	762
f 715 	714 	763
f 714 	762 	763
f 716 	715 	764
f 715 	763 	764
f 717 	716 	765
f 716 	764 	765
f 718 	717 	766
f 717 	765 	766
f 719 	718 	767
f 718 	766 	767
f 720 	719 	768
f 719 	767 	768
f 721 	720 	769
f 720 	768 	769
f 722 	721 	770
f 721 	769 	770
f 723 	722 	771
f 722 	770 	771
f 677 	723 	725
f 723 	771 	725
f 724 	725 	772
f 725 	773 	772
f 726 	724 	774
f 724 	772 	774
f 727 	726 	775
f 726 	774 	775
f 728 	727 	776
f 727 	775 	776
f 729 	728 	777
f 728 	776 	777
f 730 	729 	778
f 729 	777 	778
f 731 	730 	779
f 730 	778 	779
f 732 	731 	780
f 731 	779 	780
f 733 	732 	781
f 732 	780 	781
f 734 	733 	782
f 733 	781 	782
f 735 	734 	783
f 734 	782 	783
f 736 	735 	784
f 735 	783 	784
f 737 	736 	785
f 736 	784 	785
f 738 	737 	786
f 737 	785 	786
f 739 	738 	787
f 738 	786 	787
f 740 	739 	788
f 739 	787 	788
f 741 	740 	789
f 740 	788 	789
f 742 	741 	790
f 741 	789 	790
f 743 	742 	791
f 742 	790 	791
f 744 	743 	792
f 743 	791 	792
f 745 	744 	793
f 744 	792 	793
f 746 	745 	794
f 745 	793 	794
f 747 	746 	795
f 746 	794 	795
f 748 	747 	796
f 747 	795 	796
f 749 	748 	797
f 748 	796 	797
f 750 	749 	798
f 749 	797 	798
f 751 	750 	799
f 750 	798 	799
f 752 	751 	800
f 751 	799 	800
f 753 	752 	801
f 752 	800 	801
f 754 	753 	802
f 753 	801 	802
f 755 	754 	803
f 754 	802 	803
f 756 	755 	804
f 755 	803 	804
f 757 	756 	805
f 756 	804 	805
f 758 	757 	806
f 757 	805 	806
f 759 	758 	807
f 758 	806 	807
f 760 	759 	808
f 759 	807 	808
f 761 	760 	809
f 760 	808 	809
f 762 	761 	810
f 761 	809 	810
f 763 	762 	811
f 762 	810 	811
f 764 	763 	812
f 763 	811 	812
f 765 	764 	813
f 764 	812 	813
f 766 	765 	814
f 765 	813 	814
f 767 	766 	815
f 766 	814 	815
f 768 	767 	816
f 767 	815 	816
f 769 	768 	817
f 768 	816 	817
f 770 	769 	818
f 769 	817 	818
f 771 	770 	819
f 770 	818 	819
f 725 	771 	773
f 771 	819 	773
f 772 	773 	820
f 773 	821 	820
f 774 	772 	822
f 772 	820 	822
f 775 	774 	823
f 774 	822 	823
f 776 	775 	824
f 775 	823 	824
f 777 	776 	825
f 776 	824 	825
f 778 	777 	826
f 777 	825 	826
f 779 	778 	827
f 778 	826 	827
f 780 	779 	828
f 779 	827 	828
f 781 	780 	829
f 780 	828 	829
f 782 	781 	830
f 781 	829 	830
f 783 	782 	831
f 782 	830 	831
f 784 	783 	832
f 783 	831 	832
f 785 	784 	833
f 784 	832 	833
f 786 	785 	834
f 785 	833 	834
f 787 	786 	835
f 786 	834 	835
f 788 	787 	836
f 787 	835 	836
f 789 	788 	837
f 788 	836 	837
f 790 	789 	838
f 789 	837 	838
f 791 	790 	839
f 790 	838 	839
f 792 	791 	840
f 791 	839 	840
f 793 	792 	841
f 792 	840 	841
f 794 	793 	842
f 793 	841 	842
f 795 	794 	843
f 794 	842 	843
f 796 	795 	844
f 795 	843 	844
f 797 	796 	845
f 796 	844 	845
f 798 	797 	846
f 797 	845 	846
f 799 	798 	847
f 798 	846 	847
f 800 	799 	848
f 799 	847 	848
f 801 	800 	849
f 800 	848 	849
f 802 	801 	850
f 801 	849 	850
f 803 	802 	851
f 802 	850 	851
f 804 	803 	852
f 803 	851 	852
f 805 	804 	853
f 804 	852 	853
f 806 	805 	854
f 805 	853 	854
f 807 	806 	855
f 806 	854 	855
f 808 	807 	856
f 807 	855 	856
f 809 	808 	857
f 808 	856 	857
f 810 	809 	858
f 809 	857 	858
f 811 	810 	859
f 810 	858 	859
f 812 	811 	860
f 811 	859 	860
f 813 	812 	861
f 812 	860 	861
f 814 	813 	862
f 813 	861 	862
f 815 	814 	863
f 814 	862 	863
f 816 	815 	864
f 815 	863 	864
f 817 	816 	865
f 816 	864 	865
f 818 	817 	866
f 817 	865 	866
f 819 	818 	867
f 818 	866 	867
f 773 	819 	821
f 819 	867 	821
f 820 	821 	868
f 821 	869 	868
f 822 	820 	870
f 820 	868 	870
f 823 	822 	871
f 822 	870 	871
f 824 	823 	872
f 823 	871 	872
f 825 	824 	873
f 824 	872 	873
f 826 	825 	874
f 825 	873 	874
f 827 	826 	875
f 826 	874 	875
f 828 	827 	876
f 827 	875 	876
f 829 	828 	877
f 828 	876 	877
f 830 	829 	878
f 829 	877 	878
f 831 	830 	879
f 830 	878 	879
f 832 	831 	880
f 831 	879 	880
f 833 	832 	881
f 832 	880 	881
f 834 	833 	882
f 833 	881 	882
f 835 	834 	883
f 834 	882 	883
f 836 	835 	884
f 835 	883 	884
f 837 	836 	885
f 836 	884 	885
f 838 	837 	886
f 837 	885 	886
f 839 	838 	887
f 838 	886 	887
f 840 	839 	888
f 839 	887 	888
f 841 	840 	889
f 840 	888 	889
f 842 	841 	890
f 841 	889 	890
f 843 	842 	891
f 842 	890 	891
f 844 	843 	892
f 843 	891 	892
f 845 	844 	893
f 844 	892 	893
f 846 	845 	894
f 845 	893 	894
f 847 	846 	895
f 846 	894 	895
f 848 	847 	896
f 847 	895 	896
f 849 	848 	897
f 848 	896 	897
f 850 	849 	898
f 849 	897 	898
f 851 	850 	899
f 850 	898 	899
f 852 	851 	900
f 851 	899 	900
f 853 	852 	901
f 852 	900 	901
f 854 	853 	902
f 853 	901 	902
f 855 	854 	903
f 854 	902 	903
f 856 	855 	904
f 855 	903 	904
f 857 	856 	905
f 856 	904 	905
f 858 	857 	906
f 857 	905 	906
f 859 	858 	907
f 858 	906 	907
f 860 	859 	908
f 859 	907 	908
f 861 	860 	909
f 860 	908 	909
f 862 	861 	910
f 861 	909 	910
f 863 	862 	911
f 862 	910 	911
f 864 	863 	912
f 863 	911 	912
f 865 	864 	913
f 864 	912 	913
f 866 	865 	914
f 865 	913 	914
f 867 	866 	915
f 866 	914 	915
f 821 	867 	869
f 867 	915 	869
f 868 	869 	916
f 869 	917 	916
f 870 	868 	918
f 868 	916 	918
f 871 	870 	919
f 870 	918 	919
f 872 	871 	920
f 871 	919 	920
f 873 	872 	921
f 872 	920 	921
f 874 	873 	922
f 873 	921 	922
f 875 	874 	923
f 874 	922 	923
f 876 	875 	924
f 875 	923 	924
f 877 	876 	925
f 876 	924 	925
f 878 	877 	926
f 877 	925 	926
f 879 	878 	927
f 878 	926 	927
f 880 	879 	928
f 879 	927 	928
f 881 	880 	929
f 880 	928 	929
f 882 	881 	930
f 881 	929 	930
f 883 	882 	931
f 882 	930 	931
f 884 	883 	932
f 883 	931 	932
f 885 	884 	933
f 884 	932 	933
f 886 	885 	934
f 885 	933 	934
f 887 	886 	935
f 886 	934 	935
f 888 	887 	936
f 887 	935 	936
f 889 	888 	937
f 888 	936 	937
f 890 	889 	938
f 889 	937 	938
f 891 	890 	939
f 890 	938 	939
f 892 	891 	940
f 891 	939 	940
f 893 	892 	941
f 892 	940 	941
f 894 	893 	942
f 893 	941 	942
f 895 	894 	943
f 894 	942 	943
f 896 	895 	944
f 895 	943 	944
f 897 	896 	945
f 896 	944 	945
f 898 	897 	946
f 897 	945 	946
f 899 	898 	947
f 898 	946 	947
f 900 	899 	948
f 899 	947 	948
f 901 	900 	949
f 900 	948 	949
f 902 	901 	950
f 901 	949 	950
f 903 	902 	951
f 902 	950 	951
f 904 	903 	952
f 903 	951 	952
f 905 	904 	953
f 904 	952 	953
f 906 	905 	954
f 905 	953 	954
f 907 	906 	955
f 906 	954 	955
f 908 	907 	956
f 907 	955 	956
f 909 	908 	957
f 908 	956 	957
f 910 	909 	958
f 909 	957 	958
f 911 	910 	959
f 910 	958 	959
f 912 	911 	960
f 911 	959 	960
f 913 	912 	961
f 912 	960 	961
f 914 	913 	962
f 913 	961 	962
f 915 	914 	963
f 914 	962 	963
f 869 	915 	917
f 915 	963 	917
f 916 	917 	964
f 917 	965 	964
f 918 	916 	966
f 916 	964 	966
f 919 	918 	967
f 918 	966 	967
f 920 	919 	968
f 919 	967 	968
f 921 	920 	969
f 920 	968 	969
f 922 	921 	970
f 921 	969 	970
f 923 	922 	971
f 922 	970 	971
f 924 	923 	972
f 923 	971 	972
f 925 	924 	973
f 924 	972 	973
f 926 	925 	974
f 925 	973 	974
f 927 	926 	975
f 926 	974 	975
f 928 	927 	976
f 927 	975 	976
f 929 	928 	977
f 928 	976 	977
f 930 	929 	978
f 929 	977 	978
f 931 	930 	979
f 930 	978 	979
f 932 	931 	980
f 931 	979 	980
f 933 	932 	981
f 932 	980 	981
f 934 	933 	982
f 933 	981 	982
f 935 	934 	983
f 934 	982 	983
f 936 	935 	984
f 935 	983 	984
f 937 	936 	985
f 936 	984 	985
f 938 	937 	986
f 937 	985 	986
f 939 	938 	987
f 938 	986 	987
f 940 	939 	988
f 939 	987 	988
f 941 	940 	989
f 940 	988 	989
f 942 	941 	990
f 941 	989 	990
f 943 	942 	991
f 942 	990 	991
f 944 	943 	992
f 943 	991 	992
f 945 	944 	993
f 944 	992 	993
f 946 	945 	994
f 945 	993 	994
f 947 	946 	995
f 946 	994 	995
f 948 	947 	996
f 947 	995 	996
f 949 	948 	997
f 948 	996 	997
f 950 	949 	998
f 949 	997 	998
f 951 	950 	999
f 950 	998 	999
f 952 	951 	1000
f 951 	999 	1000
f 953 	952 	1001
f 952 	1000 	1001
f 954 	953 	1002
f 953 	1001 	1002
f 955 	954 	1003
f 954 	1002 	1003
f 956 	955 	1004
f 955 	1003 	1004
f 957 	956 	1005
f 956 	1004 	1005
f 958 	957 	1006
f 957 	1005 	1006
f 959 	958 	1007
f 958 	1006 	1007
f 960 	959 	1008
f 959 	1007 	1008
f 961 	960 	1009
f 960 	1008 	1009
f 962 	961 	1010
f 961 	1009 	1010
f 963 	962 	1011
f 962 	1010 	1011
f 917 	963 	965
f 963 	1011 	965
f 964 	965 	1012
f 965 	1013 	1012
f 966 	964 	1014
f 964 	1012 	1014
f 967 	966 	1015
f 966 	1014 	1015
f 968 	967 	1016
f 967 	1015 	1016
f 969 	968 	1017
f 968 	1016 	1017
f 970 	969 	1018
f 969 	1017 	1018
f 971 	970 	1019
f 970 	1018 	1019
f 972 	971 	1020
f 971 	1019 	1020
f 973 	972 	1021
f 972 	1020 	1021
f 974 	973 	1022
f 973 	1021 	1022
f 975 	974 	1023
f 974 	1022 	1023
f 976 	975 	1024
f 975 	1023 	1024
f 977 	976 	1025
f 976 	1024 	1025
f 978 	977 	1026
f 977 	1025 	1026
f 979 	978 	1027
f 978 	1026 	1027
f 980 	979 	1028
f 979 	1027 	1028
f 981 	980 	1029
f 980 	1028 	1029
f 982 	981 	1030
f 981 	1029 	1030
f 983 	982 	1031
f 982 	1030 	1031
f 984 	983 	1032
f 983 	1031 	1032
f 985 	984 	1033
f 984 	1032 	1033
f 986 	985 	1034
f 985 	1033 	1034
f 987 	986 	1035
f 986 	1034 	1035
f 988 	987 	1036
f 987 	1035 	1036
f 989 	988 	1037
f 988 	1036 	1037
f 990 	989 	1038
f 989 	1037 	1038
f 991 	990 	1039
f 990 	1038 	1039
f 992 	991 	1040
f 991 	1039 	1040
f 993 	992 	1041
f 992 	1040 	1041
f 994 	993 	1042
f 993 	1041 	1042
f 995 	994 	1043
f 994 	1042 	1043
f 996 	995 	1044
f 995 	1043 	1044
f 997 	996 	1045
f 996 	1044 	1045
f 998 	997 	1046
f 997 	1045 	1046
f 999 	998 	1047
f 998 	1046 	1047
f 1000 	999 	1048
f 999 	1047 	1048
f 1001 	1000 	1049
f 1000 	1048 	1049
f 1002 	1001 	1050
f 1001 	1049 	1050
f 1003 	1002 	1051
f 1002 	1050 	1051
f 1004 	1003 	1052
f 1003 	1051 	1052
f 1005 	1004 	1053
f 1004 	1052 	1053
f 1006 	1005 	1054
f 1005 	1053 	1054
f 1007 	1006 	1055
f 1006 	1054 	1055
f 1008 	1007 	1056
f 1007 	1055 	1056
f 1009 	1008 	1057
f 1008 	1056 	1057
f 1010 	1009 	1058
f 1009 	1057 	1058
f 1011 	1010 	1059
f 1010 	1058 	1059
f 965 	1011 	1013
f 1011 	1059 	1013
f 1012 	1013 	1060
f 1013 	1061 	1060
f 1014 	1012 	1062
f 1012 	1060 	1062
f 1015 	1014 	1063
f 1014 	1062 	1063
f 1016 	1015 	1064
f 1015 	1063 	1064
f 1017 	1016 	1065
f 1016 	1064 	1065
f 1018 	1017 	1066
f 1017 	1065 	1066
f 1019 	1018 	1067
f 1018 	1066 	1067
f 1020 	1019 	1068
f 1019 	1067 	1068
f 1021 	1020 	1069
f 1020 	1068 	1069
f 1022 	1021 	1070
f 1021 	1069 	1070
f 1023 	1022 	1071
f 1022 	1070 	1071
f 1024 	1023 	1072
f 1023 	1071 	1072
f 1025 	1024 	1073
f 1024 	1072 	1073
f 1026 	1025 	1074
f 1025 	1073 	1074
f 1027 	1026 	1075
f 1026 	1074 	1075
f 1028 	1027 	1076
f 1027 	1075 	1076
f 1029 	1028 	1077
f 1028 	1076 	1077
f 1030 	1029 	1078
f 1029 	1077 	1078
f 1031 	1030 	1079
f 1030 	1078 	1079
f 1032 	1031 	1080
f 1031 	1079 	1080
f 1033 	1032 	1081
f 1032 	1080 	1081
f 1034 	1033 	1082
f 1033 	1081 	1082
f 1035 	1034 	1083
f 1034 	1082 	1083
f 1036 	1035 	1084
f 1035 	1083 	1084
f 1037 	1036 	1085
f 1036 	1084 	1085
f 1038 	1037 	1086
f 1037 	1085 	1086
f 1039 	1038 	1087
f 1038 	1086 	1087
f 1040 	1039 	1088
f 1039 	1087 	1088
f 1041 	1040 	1089
f 1040 	1088 	1089
f 1042 	1041 	1090
f 1041 	1089 	1090
f 1043 	1042 	1091
f 1042 	1090 	1091
f 1044 	1043 	1092
f 1043 	1091 	1092
f 1045 	1044 	1093
f 1044 	1092 	1093
f 1046 	1045 	1094
f 1045 	1093 	1094
f 1047 	1046 	1095
f 1046 	1094 	1095
f 1048 	1047 	1096
f 1047 	1095 	1096
f 1049 	1048 	1097
f 1048 	1096 	1097
f 1050 	1049 	1098
f 1049 	1097 	1098
f 1051 	1050 	1099
f 1050 	1098 	1099
f 1052 	1051 	1100
f 1051 	1099 	1100
f 1053 	1052 	1101
f 1052 	1100 	1101
f 1054 	1053 	1102
f 1053 	1101 	1102
f 1055 	1054 	1103
f 1054 	1102 	1103
f 1056 	1055 	1104
f 1055 	1103 	1104
f 1057 	1056 	1105
f 1056 	1104 	1105
f 1058 	1057 	1106
f 1057 	1105 	1106
f 1059 	1058 	1107
f 1058 	1106 	1107
f 1013 	1059 	1061
f 1059 	1107 	1061
f 1060 	1061 	1108
f 1061 	1109 	1108
f 1062 	1060 	1110
f 1060 	1108 	1110
f 1063 	1062 	1111
f 1062 	1110 	1111
f 1064 	1063 	1112
f 1063 	1111 	1112
f 1065 	1064 	1113
f 1064 	1112 	1113
f 1066 	1065 	1114
f 1065 	1113 	1114
f 1067 	1066 	1115
f 1066 	1114 	1115
f 1068 	1067 	1116
f 1067 	1115 	1116
f 1069 	1068 	1117
f 1068 	1116 	1117
f 1070 	1069 	1118
f 1069 	1117 	1118
f 1071 	1070 	1119
f 1070 	1118 	1119
f 1072 	1071 	1120
f 1071 	1119 	1120
f 1073 	1072 	1121
f 1072 	1120 	1121
f 1074 	1073 	1122
f 1073 	1121 	1122
f 1075 	1074 	1123
f 1074 	1122 	1123
f 1076 	1075 	1124
f 1075 	1123 	1124
f 1077 	1076 	1125
f 1076 	1124 	1125
f 1078 	1077 	1126
f 1077 	1125 	1126
f 1079 	1078 	1127
f 1078 	1126 	1127
f 1080 	1079 	1128
f 1079 	1127 	1128
f 1081 	1080 	1129
f 1080 	1128 	1129
f 1082 	1081 	1130
f 1081 	1129 	1130
f 1083 	1082 	1131
f 1082 	1130 	1131
f 1084 	1083 	1132
f 1083 	1131 	1132
f 1085 	1084 	1133
f 1084 	1132 	1133
f 1086 	1085 	1134
f 1085 	1133 	1134
f 1087 	1086 	1135
f 1086 	1134 	1135
f 1088 	1087 	1136
f 1087 	1135 	1136
f 1089 	1088 	1137
f 1088 	1136 	1137
f 1090 	1089 	1138
f 1089 	1137 	1138
f 1091 	1090 	1139
f 1090 	1138 	1139
f 1092 	1091 	1140
f 1091 	1139 	1140
f 1093 	1092 	1141
f 1092 	1140 	1141
f 1094 	1093 	1142
f 1093 	1141 	1142
f 1095 	1094 	1143
f 1094 	1142 	1143
f 1096 	1095 	1144
f 1095 	1143 	1144
f 1097 	1096 	1145
f 1096 	1144 	1145
f 1098 	1097 	1146
f 1097 	1145 	1146
f 1099 	1098 	1147
f 1098 	1146 	1147
f 1100 	1099 	1148
f 1099 	1147 	1148
f 1101 	1100 	1149
f 1100 	1148 	1149
f 1102 	1101 	1150
f 1101 	1149 	1150
f 1103 	1102 	1151
f 1102 	1150 	1151
f 1104 	1103 	1152
f 1103 	1151 	1152
f 1105 	1104 	1153
f 1104 	1152 	1153
f 1106 	1105 	1154
f 1105 	1153 	1154
f 1107 	1106 	1155
f 1106 	1154 	1155
f 1061 	1107 	1109
f 1107 	1155 	1109
f 1108 	1109 	1156
f 1109 	1157 	1156
f 1110 	1108 	1158
f 1108 	1156 	1158
f 1111 	1110 	1159
f 1110 	1158 	1159
f 1112 	1111 	1160
f 1111 	1159 	1160
f 1113 	1112 	1161
f 1112 	1160 	1161
f 1114 	1113 	1162
f 1113 	1161 	1162
f 1115 	1114 	1163
f 1114 	1162 	1163
f 1116 	1115 	1164
f 1115 	1163 	1164
f 1117 	1116 	1165
f 1116 	1164 	1165
f 1118 	1117 	1166
f 1117 	1165 	1166
f 1119 	1118 	1167
f 1118 	1166 	1167
f 1120 	1119 	1168
f 1119 	1167 	1168
f 1121 	1120 	1169
f 1120 	1168 	1169
f 1122 	1121 	1170
f 1121 	1169 	1170
f 1123 	1122 	1171
f 1122 	1170 	1171
f 1124 	1123 	1172
f 1123 	1171 	1172
f 1125 	1124 	1173
f 1124 	1172 	1173
f 1126 	1125 	1174
f 1125 	1173 	1174
f 1127 	1126 	1175
f 1126 	1174 	1175
f 1128 	1127 	1176
f 1127 	1175 	1176
f 1129 	1128 	1177
f 1128 	1176 	1177
f 1130 	1129 	1178
f 1129 	1177 	1178
f 1131 	1130 	1179
f 1130 	1178 	1179
f 1132 	1131 	1180
f 1131 	1179 	1180
f 1133 	1132 	1181
f 1132 	1180 	1181
f 1134 	1133 	1182
f 1133 	1181 	1182
f 1135 	1134 	1183
f 1134 	1182 	1183
f 1136 	1135 	1184
f 1135 	1183 	1184
f 1137 	1136 	1185
f 1136 	1184 	1185
f 1138 	1137 	1186
f 1137 	1185 	1186
f 1139 	1138 	1187
f 1138 	1186 	1187
f 1140 	1139 	1188
f 1139 	1187 	1188
f 1141 	1140 	1189
f 1140 	1188 	1189
f 1142 	1141 	1190
f 1141 	1189 	1190
f 1143 	1142 	1191
f 1142 	1190 	1191
f 1144 	1143 	1192
f 1143 	1191 	1192
f 1145 	1144 	1193
f 1144 	1192 	1193
f 1146 	1145 	1194
f 1145 	1193 	1194
f 1147 	1146 	1195
f 1146 	1194 	1195
f 1148 	1147 	1196
f 1147 	1195 	1196
f 1149 	1148 	1197
f 1148 	1196 	1197
f 1150 	1149 	1198
f 1149 	1197 	1198
f 1151 	1150 	1199
f 1150 	1198 	1199
f 1152 	1151 	1200
f 1151 	1199 	1200
f 1153 	1152 	1201
f 1152 	1200 	1201
f 1154 	1153 	1202
f 1153 	1201 	1202
f 1155 	1154 	1203
f 1154 	1202 	1203
f 1109 	1155 	1157
f 1155 	1203 	1157
f 1156 	1157 	1204
f 1158 	1156 	1204
f 1159 	1158 	1204
f 1160 	1159 	1204
f 1161 	1160 	1204
f 1162 	1161 	1204
f 1163 	1162 	1204
f 1164 	1163 	1204
f 1165 	1164 	1204
f 1166 	1165 	1204
f 1167 	1166 	1204
f 1168 	1167 	1204
f 1169 	1168 	1204
f 1170 	1169 	1204
f 1171 	1170 	1204
f 1172 	1171 	1204
f 1173 	1172 	1204
f 1174 	1173 	1204
f 1175 	1174 	1204
f 1176 	1175 	1204
f 1177 	1176 	1204
f 1178 	1177 	1204
f 1179 	1178 	1204
f 1180 	1179 	1204
f 1181 	1180 	1204
f 1182 	1181 	1204
f 1183 	1182 	1204
f 1184 	1183 	1204
f 1185 	1184 	1204
f 1186 	1185 	1204
f 1187 	1186 	1204
f 1188 	1187 	1204
f 1189 	1188 	1204
f 1190 	1189 	1204
f 1191 	1190 	1204
f 1192 	1191 	1204
f 1193 	1192 	1204
f 1194 	1193 	1204
f 1195 	1194 	1204
f 1196 	1195 	1204
f 1197 	1196 	1204
f 1198 	1197 	1204
f 1199 	1198 	1204
f 1200 	1199 	1204
f 1201 	1200 	1204
f 1202 	1201 	1204
f 1203 	1202 	1204
f 1157 	1203 	1204
# 2208 faces

 #end of obj_1

