# Object Export From Tinkercad Server 2015

mtllib obj.mtl

o obj_0
v -1 		4 		16
v -1.5221 		3.9658 		16
v -1 		6.0454 		16.6818
v -1.7891 		5.9937 		16.6818
v -1 		6.3114 		14.8197
v -1.8238 		6.2575 		14.8197
v -1 		5 		14
v -1.6526 		4.9572 		14
v -1 		6.4516 		13.8387
v -1.8421 		6.3964 		13.8387
v -1 		6.9491 		10.3559
v -1.907 		6.8897 		10.3559
v -1 		6 		10
v -1.7831 		5.9486 		10
v -1 		6.9846 		9.8769
v -1.9117 		6.9248 		9.8769
v -1 		6.5246 		6.1967
v -1.8516 		6.4688 		6.1967
v -1 		6 		6
v -1.7831 		5.9486 		6
v -1 		6.48 		5.84
v -1.8458 		6.4245 		5.84
v -1 		6 		2
v -1.7831 		5.9486 		2
v -1 		12 		4
v -2.5663 		11.8973 		4
v -1 		14 		9
v -2.8274 		13.8802 		9
v -1 		7 		10
v -1.9137 		6.9402 		10
v -1 		14 		13
v -2.8274 		13.8802 		13
v -1 		13 		19
v -2.6968 		12.8888 		19
v -1 		6 		17
v -1.7832 		5.9487 		17
v -1 		5.1702 		18.1064
v -1.6748 		5.126 		18.1064
v -1 		9 		25
v -2.1747 		8.923 		25
v -1 		3 		21
v -1.3916 		2.9743 		21
v -2.0353 		3.8637 		16
v -2.5647 		5.8394 		16.6818
v -2.6335 		6.0964 		14.8197
v -2.2941 		4.8296 		14
v -2.6698 		6.2318 		13.8387
v -2.7986 		6.7123 		10.3559
v -2.5529 		5.7955 		10
v -2.8077 		6.7466 		9.8769
v -2.6887 		6.3022 		6.1967
v -2.5529 		5.7955 		6
v -2.6771 		6.2592 		5.84
v -2.5529 		5.7955 		2
v -4.1058 		11.5911 		4
v -4.6235 		13.523 		9
v -2.8117 		6.7615 		10
v -4.6235 		13.523 		13
v -4.3646 		12.557 		19
v -2.5529 		5.7956 		17
v -2.3381 		4.994 		18.1064
v -3.3294 		8.6933 		25
v -1.7764 		2.8977 		21
v -2.5307 		3.6955 		16
v -3.3135 		5.5852 		16.6818
v -3.4153 		5.831 		14.8197
v -2.9134 		4.6194 		14
v -3.4689 		5.9605 		13.8387
v -3.6593 		6.4201 		10.3559
v -3.2961 		5.5433 		10
v -3.6729 		6.4529 		9.8769
v -3.4968 		6.0279 		6.1967
v -3.2961 		5.5432 		6
v -3.4798 		5.9867 		5.84
v -3.2961 		5.5432 		2
v -5.5922 		11.0866 		4
v -6.3576 		12.9343 		9
v -3.6788 		6.4672 		10
v -6.3576 		12.9343 		13
v -5.9749 		12.0104 		19
v -3.3135 		5.5853 		16.6819
v -3.2961 		5.5433 		17
v -2.9786 		4.7767 		18.1064
v -4.4441 		8.3149 		25
v -2.148 		2.7716 		21
v -3 		3.4641 		16
v -4.0227 		5.2355 		16.6818
v -4.1557 		5.4659 		14.8197
v -3.5 		4.3301 		14
v -4.2258 		5.5872 		13.8387
v -4.4746 		6.0181 		10.3559
v -4 		5.1961 		10
v -4.4923 		6.0488 		9.8769
v -4.2623 		5.6504 		6.1967
v -4 		5.1961 		6
v -4.24 		5.6118 		5.84
v -4 		5.1961 		2
v -7 		10.3923 		4
v -8 		12.1244 		9
v -4.5 		6.0622 		10
v -8 		12.1244 		13
v -7.5 		11.2583 		19
v -4.0227 		5.2355 		16.6819
v -4 		5.1962 		17
v -3.5851 		4.4775 		18.1064
v -5.5 		7.7942 		25
v -2.5 		2.598 		21
v -3.435 		3.1734 		16
v -4.6802 		4.7962 		16.6818
v -4.8422 		5.0072 		14.8197
v -4.0438 		3.9667 		14
v -4.9275 		5.1184 		13.8387
v -5.2304 		5.5131 		10.3559
v -4.6526 		4.7601 		10
v -5.2519 		5.5412 		9.8769
v -4.9719 		5.1763 		6.1967
v -4.6525 		4.7601 		6
v -4.9448 		5.1409 		5.84
v -4.6525 		4.7601 		2
v -8.3051 		9.5202 		4
v -9.5227 		11.1069 		9
v -5.2614 		5.5535 		10
v -9.5227 		11.1069 		13
v -4.9275 		5.1184 		13.8387
v -8.9139 		10.3136 		19
v -4.6526 		4.7601 		17
v -4.1474 		4.1018 		18.1064
v -6.4788 		7.1402 		25
v -2.8263 		2.38 		21
v -3.8284 		2.8284 		16
v -5.2748 		4.2748 		16.6818
v -5.4629 		4.4629 		14.8197
v -4.5355 		3.5355 		14
v -5.562 		4.562 		13.8387
v -5.9138 		4.9138 		10.3559
v -5.2426 		4.2426 		10
v -5.9388 		4.9388 		9.8769
v -5.6136 		4.6136 		6.1967
v -5.2426 		4.2426 		6
v -5.582 		4.582 		5.84
v -5.2426 		4.2426 		2
v -9.4853 		8.4853 		4
v -10.8995 		9.8995 		9
v -5.9498 		4.9498 		10
v -10.8995 		9.8995 		13
v -10.1924 		9.1924 		19
v -5.2427 		4.2427 		17
v -4.6559 		3.6559 		18.1064
v -7.364 		6.364 		25
v -3.1213 		2.1213 		21
v -4.1734 		2.435 		16
v -5.7962 		3.6802 		16.6818
v -6.0072 		3.8422 		14.8197
v -4.9667 		3.0438 		14
v -6.1184 		3.9275 		13.8387
v -6.5131 		4.2304 		10.3559
v -5.7601 		3.6526 		10
v -6.5412 		4.2519 		9.8769
v -6.1763 		3.9719 		6.1967
v -5.7601 		3.6525 		6
v -6.1409 		3.9448 		5.84
v -5.7601 		3.6525 		2
v -10.5202 		7.3051 		4
v -12.1069 		8.5227 		9
v -6.5535 		4.2614 		10
v -12.1069 		8.5227 		13
v -6.1184 		3.9275 		13.8387
v -11.3136 		7.9139 		19
v -5.7601 		3.6526 		17
v -5.1018 		3.1474 		18.1064
v -8.1402 		5.4788 		25
v -3.38 		1.8263 		21
v -4.4641 		2 		16
v -6.2355 		3.0227 		16.6818
v -6.4659 		3.1557 		14.8197
v -5.3301 		2.5 		14
v -6.5872 		3.2258 		13.8387
v -7.0181 		3.4746 		10.3559
v -6.1961 		3 		10
v -7.0488 		3.4923 		9.8769
v -6.6504 		3.2623 		6.1967
v -6.1961 		3 		6
v -6.6118 		3.24 		5.84
v -6.1961 		3 		2
v -11.3923 		6 		4
v -13.1244 		7 		9
v -7.0622 		3.5 		10
v -13.1244 		7 		13
v -12.2583 		6.5 		19
v -6.2355 		3.0227 		16.6819
v -6.1962 		3 		17
v -5.4775 		2.5851 		18.1064
v -8.7942 		4.5 		25
v -3.598 		1.5 		21
v -4.6955 		1.5307 		16
v -6.5852 		2.3135 		16.6818
v -6.831 		2.4153 		14.8197
v -5.6194 		1.9134 		14
v -6.9605 		2.4689 		13.8387
v -7.4201 		2.6593 		10.3559
v -6.5433 		2.2961 		10
v -7.4529 		2.6729 		9.8769
v -7.0279 		2.4968 		6.1967
v -6.5432 		2.2961 		6
v -6.9867 		2.4798 		5.84
v -6.5432 		2.2961 		2
v -12.0866 		4.5922 		4
v -13.9343 		5.3576 		9
v -7.4672 		2.6788 		10
v -13.9343 		5.3576 		13
v -13.0104 		4.9749 		19
v -6.5853 		2.3135 		16.6819
v -6.5433 		2.2961 		17
v -5.7767 		1.9786 		18.1064
v -9.3149 		3.4441 		25
v -3.7716 		1.148 		21
v -4.8637 		1.0353 		16
v -6.8394 		1.5647 		16.6818
v -7.0964 		1.6335 		14.8197
v -5.8296 		1.2941 		14
v -7.2318 		1.6698 		13.8387
v -7.7123 		1.7986 		10.3559
v -6.7955 		1.5529 		10
v -7.7466 		1.8077 		9.8769
v -7.3022 		1.6887 		6.1967
v -6.7955 		1.5529 		6
v -7.2592 		1.6771 		5.84
v -6.7955 		1.5529 		2
v -12.5911 		3.1058 		4
v -14.523 		3.6235 		9
v -7.7615 		1.8117 		10
v -14.523 		3.6235 		13
v -13.557 		3.3646 		19
v -6.7956 		1.5529 		17
v -5.994 		1.3381 		18.1064
v -9.6933 		2.3294 		25
v -3.8977 		0.7764 		21
v -4.9658 		0.5221 		16
v -6.9937 		0.7891 		16.6818
v -7.2575 		0.8238 		14.8197
v -5.9572 		0.6526 		14
v -7.3964 		0.8421 		13.8387
v -7.8897 		0.907 		10.3559
v -6.9486 		0.7831 		10
v -7.9248 		0.9117 		9.8769
v -7.4688 		0.8516 		6.1967
v -6.9486 		0.7831 		6
v -7.4245 		0.8458 		5.84
v -6.9486 		0.7831 		2
v -12.8973 		1.5663 		4
v -14.8802 		1.8274 		9
v -7.9402 		0.9137 		10
v -14.8802 		1.8274 		13
v -13.8888 		1.6968 		19
v -6.9487 		0.7832 		17
v -6.126 		0.6748 		18.1064
v -9.923 		1.1747 		25
v -3.9743 		0.3916 		21
v -5 		0 		16
v -7.0454 		0 		16.6818
v -7.3114 		0 		14.8197
v -6 		0 		14
v -7.4516 		0 		13.8387
v -7.9491 		0 		10.3559
v -7 		0 		10
v -7.9846 		0 		9.8769
v -7.5246 		0 		6.1967
v -7 		0 		6
v -7.48 		0 		5.84
v -7 		0 		2
v -13 		0 		4
v -15 		0 		9
v -8 		0 		10
v -15 		0 		13
v -14 		0 		19
v -7 		0 		17
v -6.1702 		0 		18.1064
v -10 		0 		25
v -4 		0 		21
v -4.9658 		-0.5221 		16
v -6.9937 		-0.7891 		16.6818
v -7.2575 		-0.8238 		14.8197
v -5.9572 		-0.6526 		14
v -7.3964 		-0.8421 		13.8387
v -7.8897 		-0.9071 		10.3559
v -6.9486 		-0.7832 		10
v -7.9248 		-0.9117 		9.8769
v -7.4688 		-0.8516 		6.1967
v -6.9486 		-0.7832 		6
v -7.4245 		-0.8458 		5.84
v -6.9486 		-0.7832 		2
v -12.8973 		-1.5663 		4
v -14.8802 		-1.8274 		9
v -7.9402 		-0.9137 		10
v -14.8802 		-1.8274 		13
v -13.8888 		-1.6969 		19
v -6.9487 		-0.7832 		17
v -6.126 		-0.6749 		18.1064
v -9.923 		-1.1747 		25
v -3.9743 		-0.3916 		21
v -4.8637 		-1.0353 		16
v -6.8394 		-1.5647 		16.6818
v -7.0964 		-1.6335 		14.8197
v -5.8296 		-1.2941 		14
v -7.2318 		-1.6698 		13.8387
v -7.7123 		-1.7986 		10.3559
v -6.7955 		-1.5529 		10
v -7.7466 		-1.8078 		9.8769
v -7.3022 		-1.6887 		6.1967
v -6.7955 		-1.5529 		6
v -7.2592 		-1.6772 		5.84
v -6.7955 		-1.5529 		2
v -12.5911 		-3.1058 		4
v -14.523 		-3.6235 		9
v -7.7615 		-1.8118 		10
v -14.523 		-3.6235 		13
v -13.557 		-3.3647 		19
v -6.7956 		-1.5529 		17
v -5.994 		-1.3382 		18.1064
v -9.6933 		-2.3294 		25
v -3.8977 		-0.7765 		21
v -4.6955 		-1.5307 		16
v -6.5852 		-2.3135 		16.6818
v -6.831 		-2.4153 		14.8197
v -5.6194 		-1.9134 		14
v -6.9605 		-2.4689 		13.8387
v -7.4201 		-2.6593 		10.3559
v -6.5433 		-2.2961 		10
v -7.4529 		-2.6729 		9.8769
v -7.0279 		-2.4969 		6.1967
v -6.5432 		-2.2961 		6
v -6.9867 		-2.4798 		5.84
v -6.5432 		-2.2961 		2
v -12.0866 		-4.5922 		4
v -13.9343 		-5.3576 		9
v -7.4672 		-2.6788 		10
v -13.9343 		-5.3576 		13
v -13.0104 		-4.9749 		19
v -6.5853 		-2.3135 		16.6819
v -6.5433 		-2.2961 		17
v -5.7767 		-1.9786 		18.1064
v -9.3149 		-3.4442 		25
v -3.7716 		-1.148 		21
v -4.4641 		-2 		16
v -6.2355 		-3.0227 		16.6818
v -6.4659 		-3.1557 		14.8197
v -5.3301 		-2.5 		14
v -6.5872 		-3.2258 		13.8387
v -7.0181 		-3.4746 		10.3559
v -6.1961 		-3 		10
v -7.0488 		-3.4923 		9.8769
v -6.6504 		-3.2623 		6.1967
v -6.1961 		-3 		6
v -6.6118 		-3.24 		5.84
v -6.1961 		-3 		2
v -11.3923 		-6 		4
v -13.1244 		-7 		9
v -7.0622 		-3.5 		10
v -13.1244 		-7 		13
v -12.2583 		-6.5 		19
v -6.2355 		-3.0228 		16.6819
v -6.1962 		-3 		17
v -5.4775 		-2.5851 		18.1064
v -8.7942 		-4.5 		25
v -3.598 		-1.5 		21
v -4.1734 		-2.4351 		16
v -5.7962 		-3.6802 		16.6818
v -6.0072 		-3.8422 		14.8197
v -4.9667 		-3.0438 		14
v -6.1184 		-3.9275 		13.8387
v -6.5131 		-4.2304 		10.3559
v -5.7601 		-3.6526 		10
v -6.5412 		-4.252 		9.8769
v -6.1763 		-3.9719 		6.1967
v -5.7601 		-3.6526 		6
v -6.1409 		-3.9448 		5.84
v -5.7601 		-3.6526 		2
v -10.5202 		-7.3052 		4
v -12.1069 		-8.5227 		9
v -6.5535 		-4.2614 		10
v -12.1069 		-8.5227 		13
v -6.1184 		-3.9275 		13.8387
v -11.3136 		-7.9139 		19
v -5.7601 		-3.6526 		17
v -5.1018 		-3.1474 		18.1064
v -8.1402 		-5.4789 		25
v -3.38 		-1.8263 		21
v -3.8284 		-2.8284 		16
v -5.2748 		-4.2748 		16.6818
v -5.4629 		-4.4629 		14.8197
v -4.5355 		-3.5355 		14
v -5.562 		-4.562 		13.8387
v -5.9138 		-4.9138 		10.3559
v -5.2426 		-4.2426 		10
v -5.9388 		-4.9389 		9.8769
v -5.6136 		-4.6136 		6.1967
v -5.2426 		-4.2426 		6
v -5.582 		-4.582 		5.84
v -5.2426 		-4.2426 		2
v -9.4853 		-8.4853 		4
v -10.8995 		-9.8995 		9
v -5.9498 		-4.9498 		10
v -10.8995 		-9.8995 		13
v -10.1924 		-9.1924 		19
v -5.2427 		-4.2427 		17
v -4.6559 		-3.6559 		18.1064
v -7.364 		-6.364 		25
v -3.1213 		-2.1213 		21
v -3.435 		-3.1734 		16
v -4.6802 		-4.7962 		16.6818
v -4.8422 		-5.0072 		14.8197
v -4.0438 		-3.9668 		14
v -4.9275 		-5.1184 		13.8387
v -5.2304 		-5.5131 		10.3559
v -4.6526 		-4.7601 		10
v -5.2519 		-5.5413 		9.8769
v -4.9719 		-5.1763 		6.1967
v -4.6525 		-4.7601 		6
v -4.9448 		-5.1409 		5.84
v -4.6525 		-4.7601 		2
v -8.3051 		-9.5203 		4
v -9.5227 		-11.107 		9
v -5.2614 		-5.5535 		10
v -9.5227 		-11.107 		13
v -4.9275 		-5.1184 		13.8387
v -8.9139 		-10.3136 		19
v -4.6526 		-4.7602 		17
v -4.1474 		-4.1018 		18.1064
v -6.4788 		-7.1402 		25
v -2.8263 		-2.38 		21
v -3 		-3.4641 		16
v -4.0227 		-5.2355 		16.6818
v -4.1557 		-5.4659 		14.8197
v -3.5 		-4.3301 		14
v -4.2258 		-5.5873 		13.8387
v -4.4746 		-6.0181 		10.3559
v -4 		-5.1962 		10
v -4.4923 		-6.0488 		9.8769
v -4.2623 		-5.6505 		6.1967
v -4 		-5.1961 		6
v -4.24 		-5.6118 		5.84
v -4 		-5.1961 		2
v -7 		-10.3923 		4
v -8 		-12.1244 		9
v -4.5 		-6.0622 		10
v -8 		-12.1244 		13
v -7.5 		-11.2583 		19
v -4.0227 		-5.2355 		16.6819
v -4 		-5.1962 		17
v -3.5851 		-4.4776 		18.1064
v -5.5 		-7.7942 		25
v -2.5 		-2.5981 		21
v -2.5307 		-3.6955 		16
v -3.3135 		-5.5853 		16.6818
v -3.4153 		-5.831 		14.8197
v -2.9134 		-4.6194 		14
v -3.4689 		-5.9605 		13.8387
v -3.6593 		-6.4202 		10.3559
v -3.2961 		-5.5433 		10
v -3.6729 		-6.4529 		9.8769
v -3.4968 		-6.0279 		6.1967
v -3.2961 		-5.5433 		6
v -3.4798 		-5.9867 		5.84
v -3.2961 		-5.5433 		2
v -5.5922 		-11.0866 		4
v -6.3576 		-12.9343 		9
v -3.6788 		-6.4672 		10
v -6.3576 		-12.9343 		13
v -5.9749 		-12.0105 		19
v -3.3135 		-5.5853 		16.6819
v -3.2961 		-5.5433 		17
v -2.9786 		-4.7767 		18.1064
v -4.4441 		-8.3149 		25
v -2.148 		-2.7716 		21
v -2.0353 		-3.8637 		16
v -2.5647 		-5.8394 		16.6818
v -2.6335 		-6.0964 		14.8197
v -2.2941 		-4.8296 		14
v -2.6698 		-6.2318 		13.8387
v -2.7986 		-6.7124 		10.3559
v -2.5529 		-5.7956 		10
v -2.8077 		-6.7466 		9.8769
v -2.6887 		-6.3023 		6.1967
v -2.5529 		-5.7955 		6
v -2.6771 		-6.2592 		5.84
v -2.5529 		-5.7955 		2
v -4.1058 		-11.5911 		4
v -4.6235 		-13.523 		9
v -2.8117 		-6.7615 		10
v -4.6235 		-13.523 		13
v -4.3646 		-12.5571 		19
v -2.5529 		-5.7956 		17
v -2.3381 		-4.9941 		18.1064
v -3.3294 		-8.6934 		25
v -1.7764 		-2.8978 		21
v -1.5221 		-3.9658 		16
v -1.7891 		-5.9937 		16.6818
v -1.8238 		-6.2575 		14.8197
v -1.6526 		-4.9572 		14
v -1.8421 		-6.3964 		13.8387
v -1.907 		-6.8897 		10.3559
v -1.7831 		-5.9487 		10
v -1.9117 		-6.9248 		9.8769
v -1.8516 		-6.4688 		6.1967
v -1.7831 		-5.9487 		6
v -1.8458 		-6.4246 		5.84
v -1.7831 		-5.9487 		2
v -2.5663 		-11.8974 		4
v -2.8274 		-13.8802 		9
v -1.9137 		-6.9402 		10
v -2.8274 		-13.8802 		13
v -2.6968 		-12.8888 		19
v -1.7832 		-5.9487 		17
v -1.6748 		-5.126 		18.1064
v -2.1747 		-8.923 		25
v -1.3916 		-2.9743 		21
v -1 		-4 		16
v -1 		-6.0454 		16.6818
v -1 		-6.3115 		14.8197
v -1 		-5 		14
v -1 		-6.4516 		13.8387
v -1 		-6.9491 		10.3559
v -1 		-6 		10
v -1 		-6.9846 		9.8769
v -1 		-6.5246 		6.1967
v -1 		-6 		6
v -1 		-6.48 		5.84
v -1 		-6 		2
v -1 		-12 		4
v -1 		-14 		9
v -1 		-7.0001 		10
v -1 		-14 		13
v -1 		-13 		19
v -1 		-6.0001 		17
v -1 		-5.1702 		18.1064
v -1 		-9 		25
v -1 		-3 		21
v -0.4779 		-3.9658 		16
v -0.2109 		-5.9937 		16.6818
v -0.1762 		-6.2575 		14.8197
v -0.3474 		-4.9572 		14
v -0.1579 		-6.3964 		13.8387
v -0.0929 		-6.8897 		10.3559
v -0.2168 		-5.9487 		10
v -0.0883 		-6.9248 		9.8769
v -0.1484 		-6.4688 		6.1967
v -0.2168 		-5.9487 		6
v -0.1542 		-6.4246 		5.84
v -0.2168 		-5.9487 		2
v 0.5663 		-11.8974 		4
v 0.8274 		-13.8802 		9
v -0.0863 		-6.9402 		10
v 0.8274 		-13.8802 		13
v 0.6969 		-12.8888 		19
v -0.2168 		-5.9487 		17
v -0.3251 		-5.126 		18.1064
v 0.1747 		-8.923 		25
v -0.6084 		-2.9743 		21
v 0.0353 		-3.8637 		16
v 0.5647 		-5.8394 		16.6818
v 0.6335 		-6.0964 		14.8197
v 0.2941 		-4.8296 		14
v 0.6698 		-6.2318 		13.8387
v 0.7986 		-6.7124 		10.3559
v 0.5529 		-5.7956 		10
v 0.8078 		-6.7466 		9.8769
v 0.6887 		-6.3023 		6.1967
v 0.5529 		-5.7955 		6
v 0.6772 		-6.2592 		5.84
v 0.5529 		-5.7955 		2
v 2.1058 		-11.5911 		4
v 2.6235 		-13.523 		9
v 0.8118 		-6.7615 		10
v 2.6235 		-13.523 		13
v 2.3647 		-12.5571 		19
v 0.5529 		-5.7956 		17
v 0.3382 		-4.9941 		18.1064
v 1.3294 		-8.6934 		25
v -0.2235 		-2.8978 		21
v 0.5307 		-3.6955 		16
v 1.3135 		-5.5853 		16.6818
v 1.4153 		-5.831 		14.8197
v 0.9134 		-4.6194 		14
v 1.4689 		-5.9605 		13.8387
v 1.6593 		-6.4202 		10.3559
v 1.2961 		-5.5433 		10
v 1.6729 		-6.4529 		9.8769
v 1.4969 		-6.0279 		6.1967
v 1.2961 		-5.5433 		6
v 1.4798 		-5.9867 		5.84
v 1.2961 		-5.5433 		2
v 3.5922 		-11.0866 		4
v 4.3576 		-12.9343 		9
v 1.6788 		-6.4672 		10
v 4.3576 		-12.9343 		13
v 3.9749 		-12.0105 		19
v 1.3135 		-5.5853 		16.6819
v 1.2961 		-5.5433 		17
v 0.9786 		-4.7767 		18.1064
v 2.4442 		-8.3149 		25
v 0.148 		-2.7716 		21
v 1 		-3.4641 		16
v 2.0227 		-5.2355 		16.6818
v 2.1557 		-5.4659 		14.8197
v 1.5 		-4.3301 		14
v 2.2258 		-5.5873 		13.8387
v 2.4746 		-6.0181 		10.3559
v 2 		-5.1962 		10
v 2.4923 		-6.0488 		9.8769
v 2.2623 		-5.6505 		6.1967
v 2 		-5.1961 		6
v 2.24 		-5.6118 		5.84
v 2 		-5.1961 		2
v 5 		-10.3923 		4
v 6 		-12.1244 		9
v 2.5 		-6.0622 		10
v 6 		-12.1244 		13
v 5.5 		-11.2583 		19
v 2.0228 		-5.2355 		16.6819
v 2 		-5.1962 		17
v 1.5851 		-4.4776 		18.1064
v 3.5 		-7.7942 		25
v 0.5 		-2.5981 		21
v 1.4351 		-3.1734 		16
v 2.6802 		-4.7962 		16.6818
v 2.8422 		-5.0072 		14.8197
v 2.0438 		-3.9668 		14
v 2.9275 		-5.1184 		13.8387
v 3.2304 		-5.5131 		10.3559
v 2.6526 		-4.7601 		10
v 3.252 		-5.5413 		9.8769
v 2.9719 		-5.1763 		6.1967
v 2.6526 		-4.7601 		6
v 2.9448 		-5.1409 		5.84
v 2.6526 		-4.7601 		2
v 6.3052 		-9.5203 		4
v 7.5227 		-11.107 		9
v 3.2614 		-5.5535 		10
v 7.5227 		-11.107 		13
v 2.9275 		-5.1184 		13.8387
v 6.9139 		-10.3136 		19
v 2.6526 		-4.7602 		17
v 2.1474 		-4.1018 		18.1064
v 4.4789 		-7.1402 		25
v 0.8263 		-2.38 		21
v 1.8284 		-2.8284 		16
v 3.2748 		-4.2748 		16.6818
v 3.4629 		-4.4629 		14.8197
v 2.5355 		-3.5355 		14
v 3.562 		-4.562 		13.8387
v 3.9138 		-4.9138 		10.3559
v 3.2426 		-4.2426 		10
v 3.9389 		-4.9389 		9.8769
v 3.6136 		-4.6136 		6.1967
v 3.2426 		-4.2426 		6
v 3.582 		-4.582 		5.84
v 3.2426 		-4.2426 		2
v 7.4853 		-8.4853 		4
v 8.8995 		-9.8995 		9
v 3.9498 		-4.9498 		10
v 8.8995 		-9.8995 		13
v 8.1924 		-9.1924 		19
v 3.2427 		-4.2427 		17
v 2.6559 		-3.6559 		18.1064
v 5.364 		-6.364 		25
v 1.1213 		-2.1213 		21
v 2.1734 		-2.4351 		16
v 3.7962 		-3.6802 		16.6818
v 4.0072 		-3.8422 		14.8197
v 2.9668 		-3.0438 		14
v 4.1184 		-3.9275 		13.8387
v 4.5131 		-4.2304 		10.3559
v 3.7601 		-3.6526 		10
v 4.5413 		-4.252 		9.8769
v 4.1763 		-3.9719 		6.1967
v 3.7601 		-3.6526 		6
v 4.1409 		-3.9448 		5.84
v 3.7601 		-3.6526 		2
v 8.5203 		-7.3052 		4
v 10.107 		-8.5227 		9
v 4.5535 		-4.2614 		10
v 10.107 		-8.5227 		13
v 4.1184 		-3.9275 		13.8387
v 9.3136 		-7.9139 		19
v 3.7602 		-3.6526 		17
v 3.1018 		-3.1474 		18.1064
v 6.1402 		-5.4789 		25
v 1.38 		-1.8263 		21
v 2.4641 		-2 		16
v 4.2355 		-3.0227 		16.6818
v 4.4659 		-3.1557 		14.8197
v 3.3301 		-2.5 		14
v 4.5873 		-3.2258 		13.8387
v 5.0181 		-3.4746 		10.3559
v 4.1962 		-3 		10
v 5.0488 		-3.4923 		9.8769
v 4.6505 		-3.2623 		6.1967
v 4.1961 		-3 		6
v 4.6118 		-3.24 		5.84
v 4.1961 		-3 		2
v 9.3923 		-6 		4
v 11.1244 		-7 		9
v 5.0622 		-3.5 		10
v 11.1244 		-7 		13
v 10.2583 		-6.5 		19
v 4.2355 		-3.0228 		16.6819
v 4.1962 		-3 		17
v 3.4776 		-2.5851 		18.1064
v 6.7942 		-4.5 		25
v 1.5981 		-1.5 		21
v 2.6955 		-1.5307 		16
v 4.5853 		-2.3135 		16.6818
v 4.831 		-2.4153 		14.8197
v 3.6194 		-1.9134 		14
v 4.9605 		-2.4689 		13.8387
v 5.4202 		-2.6593 		10.3559
v 4.5433 		-2.2961 		10
v 5.4529 		-2.6729 		9.8769
v 5.0279 		-2.4969 		6.1967
v 4.5433 		-2.2961 		6
v 4.9867 		-2.4798 		5.84
v 4.5433 		-2.2961 		2
v 10.0866 		-4.5922 		4
v 11.9343 		-5.3576 		9
v 5.4672 		-2.6788 		10
v 11.9343 		-5.3576 		13
v 11.0105 		-4.9749 		19
v 4.5853 		-2.3135 		16.6819
v 4.5433 		-2.2961 		17
v 3.7767 		-1.9786 		18.1064
v 7.3149 		-3.4442 		25
v 1.7716 		-1.148 		21
v 2.8637 		-1.0353 		16
v 4.8394 		-1.5647 		16.6818
v 5.0964 		-1.6335 		14.8197
v 3.8296 		-1.2941 		14
v 5.2318 		-1.6698 		13.8387
v 5.7124 		-1.7986 		10.3559
v 4.7956 		-1.5529 		10
v 5.7466 		-1.8078 		9.8769
v 5.3023 		-1.6887 		6.1967
v 4.7955 		-1.5529 		6
v 5.2592 		-1.6772 		5.84
v 4.7955 		-1.5529 		2
v 10.5911 		-3.1058 		4
v 12.523 		-3.6235 		9
v 5.7615 		-1.8118 		10
v 12.523 		-3.6235 		13
v 11.5571 		-3.3647 		19
v 4.7956 		-1.5529 		17
v 3.9941 		-1.3382 		18.1064
v 7.6934 		-2.3294 		25
v 1.8978 		-0.7765 		21
v 2.9658 		-0.5221 		16
v 4.9937 		-0.7891 		16.6818
v 5.2575 		-0.8238 		14.8197
v 3.9572 		-0.6526 		14
v 5.3964 		-0.8421 		13.8387
v 5.8897 		-0.9071 		10.3559
v 4.9487 		-0.7832 		10
v 5.9248 		-0.9117 		9.8769
v 5.4688 		-0.8516 		6.1967
v 4.9487 		-0.7832 		6
v 5.4246 		-0.8458 		5.84
v 4.9487 		-0.7832 		2
v 10.8974 		-1.5663 		4
v 12.8802 		-1.8274 		9
v 5.9402 		-0.9137 		10
v 12.8802 		-1.8274 		13
v 11.8888 		-1.6969 		19
v 4.9487 		-0.7832 		17
v 4.126 		-0.6749 		18.1064
v 7.923 		-1.1747 		25
v 1.9743 		-0.3916 		21
v 3 		0 		16
v 5.0454 		0 		16.6818
v 5.3115 		0 		14.8197
v 4 		0 		14
v 5.4516 		0 		13.8387
v 5.9491 		0 		10.3559
v 5 		0 		10
v 5.9846 		0 		9.8769
v 5.5246 		0 		6.1967
v 5 		0 		6
v 5.48 		0 		5.84
v 5 		0 		2
v 11 		0 		4
v 13 		0 		9
v 6.0001 		0 		10
v 13 		0 		13
v 12 		0 		19
v 5.0001 		0 		17
v 4.1702 		0 		18.1064
v 8 		0 		25
v 2 		0 		21
v 2.9658 		0.5221 		16
v 4.9937 		0.7891 		16.6818
v 5.2575 		0.8238 		14.8197
v 3.9572 		0.6526 		14
v 5.3964 		0.8421 		13.8387
v 5.8897 		0.907 		10.3559
v 4.9487 		0.7831 		10
v 5.9248 		0.9117 		9.8769
v 5.4688 		0.8516 		6.1967
v 4.9487 		0.7831 		6
v 5.4246 		0.8458 		5.84
v 4.9487 		0.7831 		2
v 10.8974 		1.5663 		4
v 12.8802 		1.8274 		9
v 5.9402 		0.9137 		10
v 12.8802 		1.8274 		13
v 11.8888 		1.6968 		19
v 4.9487 		0.7832 		17
v 4.126 		0.6748 		18.1064
v 7.923 		1.1747 		25
v 1.9743 		0.3916 		21
v 2.8637 		1.0353 		16
v 4.8394 		1.5647 		16.6818
v 5.0964 		1.6335 		14.8197
v 3.8296 		1.2941 		14
v 5.2318 		1.6698 		13.8387
v 5.7124 		1.7986 		10.3559
v 4.7956 		1.5529 		10
v 5.7466 		1.8077 		9.8769
v 5.3023 		1.6887 		6.1967
v 4.7955 		1.5529 		6
v 5.2592 		1.6771 		5.84
v 4.7955 		1.5529 		2
v 10.5911 		3.1058 		4
v 12.523 		3.6235 		9
v 5.7615 		1.8117 		10
v 12.523 		3.6235 		13
v 11.5571 		3.3646 		19
v 4.7956 		1.5529 		17
v 3.9941 		1.3381 		18.1064
v 7.6934 		2.3294 		25
v 1.8978 		0.7764 		21
v 2.6955 		1.5307 		16
v 4.5853 		2.3135 		16.6818
v 4.831 		2.4153 		14.8197
v 3.6194 		1.9134 		14
v 4.9605 		2.4689 		13.8387
v 5.4202 		2.6593 		10.3559
v 4.5433 		2.2961 		10
v 5.4529 		2.6729 		9.8769
v 5.0279 		2.4968 		6.1967
v 4.5433 		2.2961 		6
v 4.9867 		2.4798 		5.84
v 4.5433 		2.2961 		2
v 10.0866 		4.5922 		4
v 11.9343 		5.3576 		9
v 5.4672 		2.6788 		10
v 11.9343 		5.3576 		13
v 11.0105 		4.9749 		19
v 4.5853 		2.3135 		16.6819
v 4.5433 		2.2961 		17
v 3.7767 		1.9786 		18.1064
v 7.3149 		3.4441 		25
v 1.7716 		1.148 		21
v 2.4641 		2 		16
v 4.2355 		3.0227 		16.6818
v 4.4659 		3.1557 		14.8197
v 3.3301 		2.5 		14
v 4.5873 		3.2258 		13.8387
v 5.0181 		3.4746 		10.3559
v 4.1962 		3 		10
v 5.0488 		3.4923 		9.8769
v 4.6505 		3.2623 		6.1967
v 4.1961 		3 		6
v 4.6118 		3.24 		5.84
v 4.1961 		3 		2
v 9.3923 		6 		4
v 11.1244 		7 		9
v 5.0622 		3.5 		10
v 11.1244 		7 		13
v 10.2583 		6.5 		19
v 4.2355 		3.0227 		16.6819
v 4.1962 		3 		17
v 3.4776 		2.5851 		18.1064
v 6.7942 		4.5 		25
v 1.5981 		1.5 		21
v 2.1734 		2.435 		16
v 3.7962 		3.6802 		16.6818
v 4.0072 		3.8422 		14.8197
v 2.9668 		3.0438 		14
v 4.1184 		3.9275 		13.8387
v 4.5131 		4.2304 		10.3559
v 3.7601 		3.6526 		10
v 4.5413 		4.2519 		9.8769
v 4.1763 		3.9719 		6.1967
v 3.7601 		3.6525 		6
v 4.1409 		3.9448 		5.84
v 3.7601 		3.6525 		2
v 8.5203 		7.3051 		4
v 10.107 		8.5227 		9
v 4.5535 		4.2614 		10
v 10.107 		8.5227 		13
v 4.1184 		3.9275 		13.8387
v 9.3136 		7.9139 		19
v 3.7602 		3.6526 		17
v 3.1018 		3.1474 		18.1064
v 6.1402 		5.4788 		25
v 1.38 		1.8263 		21
v 1.8284 		2.8284 		16
v 3.2748 		4.2748 		16.6818
v 3.4629 		4.4629 		14.8197
v 2.5355 		3.5355 		14
v 3.562 		4.562 		13.8387
v 3.9138 		4.9138 		10.3559
v 3.2426 		4.2426 		10
v 3.9389 		4.9388 		9.8769
v 3.6136 		4.6136 		6.1967
v 3.2426 		4.2426 		6
v 3.582 		4.582 		5.84
v 3.2426 		4.2426 		2
v 7.4853 		8.4853 		4
v 8.8995 		9.8995 		9
v 3.9498 		4.9498 		10
v 8.8995 		9.8995 		13
v 8.1924 		9.1924 		19
v 3.2427 		4.2427 		17
v 2.6559 		3.6559 		18.1064
v 5.364 		6.364 		25
v 1.1213 		2.1213 		21
v 1.4351 		3.1734 		16
v 2.6802 		4.7962 		16.6818
v 2.8422 		5.0072 		14.8197
v 2.0438 		3.9667 		14
v 2.9275 		5.1184 		13.8387
v 3.2304 		5.5131 		10.3559
v 2.6526 		4.7601 		10
v 3.252 		5.5412 		9.8769
v 2.9719 		5.1763 		6.1967
v 2.6526 		4.7601 		6
v 2.9448 		5.1409 		5.84
v 2.6526 		4.7601 		2
v 6.3052 		9.5202 		4
v 7.5227 		11.1069 		9
v 3.2614 		5.5535 		10
v 7.5227 		11.1069 		13
v 2.9275 		5.1184 		13.8387
v 6.9139 		10.3136 		19
v 2.6526 		4.7601 		17
v 2.1474 		4.1018 		18.1064
v 4.4789 		7.1402 		25
v 0.8263 		2.38 		21
v 1 		3.4641 		16
v 2.0227 		5.2355 		16.6818
v 2.1557 		5.4659 		14.8197
v 1.5 		4.3301 		14
v 2.2258 		5.5872 		13.8387
v 2.4746 		6.0181 		10.3559
v 2 		5.1961 		10
v 2.4923 		6.0488 		9.8769
v 2.2623 		5.6504 		6.1967
v 2 		5.1961 		6
v 2.24 		5.6118 		5.84
v 2 		5.1961 		2
v 5 		10.3923 		4
v 6 		12.1244 		9
v 2.5 		6.0622 		10
v 6 		12.1244 		13
v 5.5 		11.2583 		19
v 2.0228 		5.2355 		16.6819
v 2 		5.1962 		17
v 1.5851 		4.4775 		18.1064
v 3.5 		7.7942 		25
v 0.5 		2.598 		21
v 0.5307 		3.6955 		16
v 1.3135 		5.5852 		16.6818
v 1.4153 		5.831 		14.8197
v 0.9134 		4.6194 		14
v 1.4689 		5.9605 		13.8387
v 1.6593 		6.4201 		10.3559
v 1.2961 		5.5433 		10
v 1.6729 		6.4529 		9.8769
v 1.4969 		6.0279 		6.1967
v 1.2961 		5.5432 		6
v 1.4798 		5.9867 		5.84
v 1.2961 		5.5432 		2
v 3.5922 		11.0866 		4
v 4.3576 		12.9343 		9
v 1.6788 		6.4672 		10
v 4.3576 		12.9343 		13
v 3.9749 		12.0104 		19
v 1.3135 		5.5853 		16.6819
v 1.2961 		5.5433 		17
v 0.9786 		4.7767 		18.1064
v 2.4442 		8.3149 		25
v 0.148 		2.7716 		21
v 0.0353 		3.8637 		16
v 0.5647 		5.8394 		16.6818
v 0.6335 		6.0964 		14.8197
v 0.2941 		4.8296 		14
v 0.6698 		6.2318 		13.8387
v 0.7986 		6.7123 		10.3559
v 0.5529 		5.7955 		10
v 0.8078 		6.7466 		9.8769
v 0.6887 		6.3022 		6.1967
v 0.5529 		5.7955 		6
v 0.6772 		6.2592 		5.84
v 0.5529 		5.7955 		2
v 2.1058 		11.5911 		4
v 2.6235 		13.523 		9
v 0.8118 		6.7615 		10
v 2.6235 		13.523 		13
v 2.3647 		12.557 		19
v 0.5529 		5.7956 		17
v 0.3382 		4.994 		18.1064
v 1.3294 		8.6933 		25
v -0.2235 		2.8977 		21
v -0.4779 		3.9658 		16
v -0.2109 		5.9937 		16.6818
v -0.1762 		6.2575 		14.8197
v -0.3474 		4.9572 		14
v -0.1579 		6.3964 		13.8387
v -0.0929 		6.8897 		10.3559
v -0.2168 		5.9486 		10
v -0.0883 		6.9248 		9.8769
v -0.1484 		6.4688 		6.1967
v -0.2168 		5.9486 		6
v -0.1542 		6.4245 		5.84
v -0.2168 		5.9486 		2
v 0.5663 		11.8973 		4
v 0.8274 		13.8802 		9
v -0.0863 		6.9402 		10
v 0.8274 		13.8802 		13
v 0.6969 		12.8888 		19
v -0.2168 		5.9487 		17
v -0.3251 		5.126 		18.1064
v 0.1747 		8.923 		25
v -0.6084 		2.9743 		21
# 1032 vertices

g group_0_14789940

usemtl color_14789940
s 0

f 1 	2 	3
f 2 	4 	3
f 3 	4 	5
f 4 	6 	5
f 5 	6 	7
f 6 	8 	7
f 7 	8 	9
f 8 	10 	9
f 9 	10 	11
f 10 	12 	11
f 11 	12 	13
f 12 	14 	13
f 13 	14 	15
f 14 	16 	15
f 15 	16 	17
f 16 	18 	17
f 17 	18 	19
f 18 	20 	19
f 19 	20 	21
f 20 	22 	21
f 21 	22 	23
f 22 	24 	23
f 23 	24 	25
f 24 	26 	25
f 25 	26 	21
f 26 	22 	21
f 21 	22 	17
f 22 	18 	17
f 17 	18 	27
f 18 	28 	27
f 27 	28 	15
f 28 	16 	15
f 15 	16 	29
f 16 	30 	29
f 29 	30 	11
f 30 	12 	11
f 11 	12 	31
f 12 	32 	31
f 31 	32 	9
f 32 	10 	9
f 9 	10 	5
f 10 	6 	5
f 5 	6 	33
f 6 	34 	33
f 33 	34 	3
f 34 	4 	3
f 3 	4 	35
f 4 	36 	35
f 35 	36 	37
f 36 	38 	37
f 37 	38 	39
f 38 	40 	39
f 39 	40 	41
f 40 	42 	41
f 41 	42 	37
f 42 	38 	37
f 37 	38 	1
f 38 	2 	1
f 2 	43 	4
f 43 	44 	4
f 4 	44 	6
f 44 	45 	6
f 6 	45 	8
f 45 	46 	8
f 8 	46 	10
f 46 	47 	10
f 10 	47 	12
f 47 	48 	12
f 12 	48 	14
f 48 	49 	14
f 14 	49 	16
f 49 	50 	16
f 16 	50 	18
f 50 	51 	18
f 18 	51 	20
f 51 	52 	20
f 20 	52 	22
f 52 	53 	22
f 22 	53 	24
f 53 	54 	24
f 24 	54 	26
f 54 	55 	26
f 26 	55 	22
f 55 	53 	22
f 22 	53 	18
f 53 	51 	18
f 18 	51 	28
f 51 	56 	28
f 28 	56 	16
f 56 	50 	16
f 16 	50 	30
f 50 	57 	30
f 30 	57 	12
f 57 	48 	12
f 12 	48 	32
f 48 	58 	32
f 32 	58 	10
f 58 	47 	10
f 10 	47 	6
f 47 	45 	6
f 6 	45 	34
f 45 	59 	34
f 34 	59 	4
f 59 	44 	4
f 4 	44 	36
f 44 	60 	36
f 36 	60 	38
f 60 	61 	38
f 38 	61 	40
f 61 	62 	40
f 40 	62 	42
f 62 	63 	42
f 42 	63 	38
f 63 	61 	38
f 38 	61 	2
f 61 	43 	2
f 43 	64 	44
f 64 	65 	44
f 44 	65 	45
f 65 	66 	45
f 45 	66 	46
f 66 	67 	46
f 46 	67 	47
f 67 	68 	47
f 47 	68 	48
f 68 	69 	48
f 48 	69 	49
f 69 	70 	49
f 49 	70 	50
f 70 	71 	50
f 50 	71 	51
f 71 	72 	51
f 51 	72 	52
f 72 	73 	52
f 52 	73 	53
f 73 	74 	53
f 53 	74 	54
f 74 	75 	54
f 54 	75 	55
f 75 	76 	55
f 55 	76 	53
f 76 	74 	53
f 53 	74 	51
f 74 	72 	51
f 51 	72 	56
f 72 	77 	56
f 56 	77 	50
f 77 	71 	50
f 50 	71 	57
f 71 	78 	57
f 57 	78 	48
f 78 	69 	48
f 48 	69 	58
f 69 	79 	58
f 58 	79 	47
f 79 	68 	47
f 47 	68 	45
f 68 	66 	45
f 45 	66 	59
f 66 	80 	59
f 59 	80 	44
f 80 	81 	44
f 44 	81 	60
f 81 	82 	60
f 60 	82 	61
f 82 	83 	61
f 61 	83 	62
f 83 	84 	62
f 62 	84 	63
f 84 	85 	63
f 63 	85 	61
f 85 	83 	61
f 61 	83 	43
f 83 	64 	43
f 64 	86 	65
f 86 	87 	65
f 65 	87 	66
f 87 	88 	66
f 66 	88 	67
f 88 	89 	67
f 67 	89 	68
f 89 	90 	68
f 68 	90 	69
f 90 	91 	69
f 69 	91 	70
f 91 	92 	70
f 70 	92 	71
f 92 	93 	71
f 71 	93 	72
f 93 	94 	72
f 72 	94 	73
f 94 	95 	73
f 73 	95 	74
f 95 	96 	74
f 74 	96 	75
f 96 	97 	75
f 75 	97 	76
f 97 	98 	76
f 76 	98 	74
f 98 	96 	74
f 74 	96 	72
f 96 	94 	72
f 72 	94 	77
f 94 	99 	77
f 77 	99 	71
f 99 	93 	71
f 71 	93 	78
f 93 	100 	78
f 78 	100 	69
f 100 	91 	69
f 69 	91 	79
f 91 	101 	79
f 79 	101 	68
f 101 	90 	68
f 68 	90 	66
f 90 	88 	66
f 66 	88 	80
f 88 	102 	80
f 80 	102 	81
f 102 	103 	81
f 81 	103 	82
f 103 	104 	82
f 82 	104 	83
f 104 	105 	83
f 83 	105 	84
f 105 	106 	84
f 84 	106 	85
f 106 	107 	85
f 85 	107 	83
f 107 	105 	83
f 83 	105 	64
f 105 	86 	64
f 86 	108 	87
f 108 	109 	87
f 87 	109 	88
f 109 	110 	88
f 88 	110 	89
f 110 	111 	89
f 89 	111 	90
f 111 	112 	90
f 90 	112 	91
f 112 	113 	91
f 91 	113 	92
f 113 	114 	92
f 92 	114 	93
f 114 	115 	93
f 93 	115 	94
f 115 	116 	94
f 94 	116 	95
f 116 	117 	95
f 95 	117 	96
f 117 	118 	96
f 96 	118 	97
f 118 	119 	97
f 97 	119 	98
f 119 	120 	98
f 98 	120 	96
f 120 	118 	96
f 96 	118 	94
f 118 	116 	94
f 94 	116 	99
f 116 	121 	99
f 99 	121 	93
f 121 	115 	93
f 93 	115 	100
f 115 	122 	100
f 100 	122 	91
f 122 	113 	91
f 91 	113 	101
f 113 	123 	101
f 101 	123 	90
f 123 	124 	90
f 90 	124 	88
f 124 	110 	88
f 88 	110 	102
f 110 	125 	102
f 102 	125 	103
f 125 	109 	103
f 103 	109 	104
f 109 	126 	104
f 104 	126 	105
f 126 	127 	105
f 105 	127 	106
f 127 	128 	106
f 106 	128 	107
f 128 	129 	107
f 107 	129 	105
f 129 	127 	105
f 105 	127 	86
f 127 	108 	86
f 108 	130 	109
f 130 	131 	109
f 109 	131 	110
f 131 	132 	110
f 110 	132 	111
f 132 	133 	111
f 111 	133 	112
f 133 	134 	112
f 112 	134 	113
f 134 	135 	113
f 113 	135 	114
f 135 	136 	114
f 114 	136 	115
f 136 	137 	115
f 115 	137 	116
f 137 	138 	116
f 116 	138 	117
f 138 	139 	117
f 117 	139 	118
f 139 	140 	118
f 118 	140 	119
f 140 	141 	119
f 119 	141 	120
f 141 	142 	120
f 120 	142 	118
f 142 	140 	118
f 118 	140 	116
f 140 	138 	116
f 116 	138 	121
f 138 	143 	121
f 121 	143 	115
f 143 	137 	115
f 115 	137 	122
f 137 	144 	122
f 122 	144 	113
f 144 	135 	113
f 113 	135 	123
f 135 	145 	123
f 123 	145 	124
f 145 	134 	124
f 124 	134 	110
f 134 	132 	110
f 110 	132 	125
f 132 	146 	125
f 125 	146 	109
f 146 	131 	109
f 109 	131 	126
f 131 	147 	126
f 126 	147 	127
f 147 	148 	127
f 127 	148 	128
f 148 	149 	128
f 128 	149 	129
f 149 	150 	129
f 129 	150 	127
f 150 	148 	127
f 127 	148 	108
f 148 	130 	108
f 130 	151 	131
f 151 	152 	131
f 131 	152 	132
f 152 	153 	132
f 132 	153 	133
f 153 	154 	133
f 133 	154 	134
f 154 	155 	134
f 134 	155 	135
f 155 	156 	135
f 135 	156 	136
f 156 	157 	136
f 136 	157 	137
f 157 	158 	137
f 137 	158 	138
f 158 	159 	138
f 138 	159 	139
f 159 	160 	139
f 139 	160 	140
f 160 	161 	140
f 140 	161 	141
f 161 	162 	141
f 141 	162 	142
f 162 	163 	142
f 142 	163 	140
f 163 	161 	140
f 140 	161 	138
f 161 	159 	138
f 138 	159 	143
f 159 	164 	143
f 143 	164 	137
f 164 	158 	137
f 137 	158 	144
f 158 	165 	144
f 144 	165 	135
f 165 	156 	135
f 135 	156 	145
f 156 	166 	145
f 145 	166 	134
f 166 	167 	134
f 134 	167 	132
f 167 	153 	132
f 132 	153 	146
f 153 	168 	146
f 146 	168 	131
f 168 	152 	131
f 131 	152 	147
f 152 	169 	147
f 147 	169 	148
f 169 	170 	148
f 148 	170 	149
f 170 	171 	149
f 149 	171 	150
f 171 	172 	150
f 150 	172 	148
f 172 	170 	148
f 148 	170 	130
f 170 	151 	130
f 151 	173 	152
f 173 	174 	152
f 152 	174 	153
f 174 	175 	153
f 153 	175 	154
f 175 	176 	154
f 154 	176 	155
f 176 	177 	155
f 155 	177 	156
f 177 	178 	156
f 156 	178 	157
f 178 	179 	157
f 157 	179 	158
f 179 	180 	158
f 158 	180 	159
f 180 	181 	159
f 159 	181 	160
f 181 	182 	160
f 160 	182 	161
f 182 	183 	161
f 161 	183 	162
f 183 	184 	162
f 162 	184 	163
f 184 	185 	163
f 163 	185 	161
f 185 	183 	161
f 161 	183 	159
f 183 	181 	159
f 159 	181 	164
f 181 	186 	164
f 164 	186 	158
f 186 	180 	158
f 158 	180 	165
f 180 	187 	165
f 165 	187 	156
f 187 	178 	156
f 156 	178 	166
f 178 	188 	166
f 166 	188 	167
f 188 	177 	167
f 167 	177 	153
f 177 	175 	153
f 153 	175 	168
f 175 	189 	168
f 168 	189 	152
f 189 	190 	152
f 152 	190 	169
f 190 	191 	169
f 169 	191 	170
f 191 	192 	170
f 170 	192 	171
f 192 	193 	171
f 171 	193 	172
f 193 	194 	172
f 172 	194 	170
f 194 	192 	170
f 170 	192 	151
f 192 	173 	151
f 173 	195 	174
f 195 	196 	174
f 174 	196 	175
f 196 	197 	175
f 175 	197 	176
f 197 	198 	176
f 176 	198 	177
f 198 	199 	177
f 177 	199 	178
f 199 	200 	178
f 178 	200 	179
f 200 	201 	179
f 179 	201 	180
f 201 	202 	180
f 180 	202 	181
f 202 	203 	181
f 181 	203 	182
f 203 	204 	182
f 182 	204 	183
f 204 	205 	183
f 183 	205 	184
f 205 	206 	184
f 184 	206 	185
f 206 	207 	185
f 185 	207 	183
f 207 	205 	183
f 183 	205 	181
f 205 	203 	181
f 181 	203 	186
f 203 	208 	186
f 186 	208 	180
f 208 	202 	180
f 180 	202 	187
f 202 	209 	187
f 187 	209 	178
f 209 	200 	178
f 178 	200 	188
f 200 	210 	188
f 188 	210 	177
f 210 	199 	177
f 177 	199 	175
f 199 	197 	175
f 175 	197 	189
f 197 	211 	189
f 189 	211 	190
f 211 	212 	190
f 190 	212 	191
f 212 	213 	191
f 191 	213 	192
f 213 	214 	192
f 192 	214 	193
f 214 	215 	193
f 193 	215 	194
f 215 	216 	194
f 194 	216 	192
f 216 	214 	192
f 192 	214 	173
f 214 	195 	173
f 195 	217 	196
f 217 	218 	196
f 196 	218 	197
f 218 	219 	197
f 197 	219 	198
f 219 	220 	198
f 198 	220 	199
f 220 	221 	199
f 199 	221 	200
f 221 	222 	200
f 200 	222 	201
f 222 	223 	201
f 201 	223 	202
f 223 	224 	202
f 202 	224 	203
f 224 	225 	203
f 203 	225 	204
f 225 	226 	204
f 204 	226 	205
f 226 	227 	205
f 205 	227 	206
f 227 	228 	206
f 206 	228 	207
f 228 	229 	207
f 207 	229 	205
f 229 	227 	205
f 205 	227 	203
f 227 	225 	203
f 203 	225 	208
f 225 	230 	208
f 208 	230 	202
f 230 	224 	202
f 202 	224 	209
f 224 	231 	209
f 209 	231 	200
f 231 	222 	200
f 200 	222 	210
f 222 	232 	210
f 210 	232 	199
f 232 	221 	199
f 199 	221 	197
f 221 	219 	197
f 197 	219 	211
f 219 	233 	211
f 211 	233 	212
f 233 	218 	212
f 212 	218 	213
f 218 	234 	213
f 213 	234 	214
f 234 	235 	214
f 214 	235 	215
f 235 	236 	215
f 215 	236 	216
f 236 	237 	216
f 216 	237 	214
f 237 	235 	214
f 214 	235 	195
f 235 	217 	195
f 217 	238 	218
f 238 	239 	218
f 218 	239 	219
f 239 	240 	219
f 219 	240 	220
f 240 	241 	220
f 220 	241 	221
f 241 	242 	221
f 221 	242 	222
f 242 	243 	222
f 222 	243 	223
f 243 	244 	223
f 223 	244 	224
f 244 	245 	224
f 224 	245 	225
f 245 	246 	225
f 225 	246 	226
f 246 	247 	226
f 226 	247 	227
f 247 	248 	227
f 227 	248 	228
f 248 	249 	228
f 228 	249 	229
f 249 	250 	229
f 229 	250 	227
f 250 	248 	227
f 227 	248 	225
f 248 	246 	225
f 225 	246 	230
f 246 	251 	230
f 230 	251 	224
f 251 	245 	224
f 224 	245 	231
f 245 	252 	231
f 231 	252 	222
f 252 	243 	222
f 222 	243 	232
f 243 	253 	232
f 232 	253 	221
f 253 	242 	221
f 221 	242 	219
f 242 	240 	219
f 219 	240 	233
f 240 	254 	233
f 233 	254 	218
f 254 	239 	218
f 218 	239 	234
f 239 	255 	234
f 234 	255 	235
f 255 	256 	235
f 235 	256 	236
f 256 	257 	236
f 236 	257 	237
f 257 	258 	237
f 237 	258 	235
f 258 	256 	235
f 235 	256 	217
f 256 	238 	217
f 238 	259 	239
f 259 	260 	239
f 239 	260 	240
f 260 	261 	240
f 240 	261 	241
f 261 	262 	241
f 241 	262 	242
f 262 	263 	242
f 242 	263 	243
f 263 	264 	243
f 243 	264 	244
f 264 	265 	244
f 244 	265 	245
f 265 	266 	245
f 245 	266 	246
f 266 	267 	246
f 246 	267 	247
f 267 	268 	247
f 247 	268 	248
f 268 	269 	248
f 248 	269 	249
f 269 	270 	249
f 249 	270 	250
f 270 	271 	250
f 250 	271 	248
f 271 	269 	248
f 248 	269 	246
f 269 	267 	246
f 246 	267 	251
f 267 	272 	251
f 251 	272 	245
f 272 	266 	245
f 245 	266 	252
f 266 	273 	252
f 252 	273 	243
f 273 	264 	243
f 243 	264 	253
f 264 	274 	253
f 253 	274 	242
f 274 	263 	242
f 242 	263 	240
f 263 	261 	240
f 240 	261 	254
f 261 	275 	254
f 254 	275 	239
f 275 	260 	239
f 239 	260 	255
f 260 	276 	255
f 255 	276 	256
f 276 	277 	256
f 256 	277 	257
f 277 	278 	257
f 257 	278 	258
f 278 	279 	258
f 258 	279 	256
f 279 	277 	256
f 256 	277 	238
f 277 	259 	238
f 259 	280 	260
f 280 	281 	260
f 260 	281 	261
f 281 	282 	261
f 261 	282 	262
f 282 	283 	262
f 262 	283 	263
f 283 	284 	263
f 263 	284 	264
f 284 	285 	264
f 264 	285 	265
f 285 	286 	265
f 265 	286 	266
f 286 	287 	266
f 266 	287 	267
f 287 	288 	267
f 267 	288 	268
f 288 	289 	268
f 268 	289 	269
f 289 	290 	269
f 269 	290 	270
f 290 	291 	270
f 270 	291 	271
f 291 	292 	271
f 271 	292 	269
f 292 	290 	269
f 269 	290 	267
f 290 	288 	267
f 267 	288 	272
f 288 	293 	272
f 272 	293 	266
f 293 	287 	266
f 266 	287 	273
f 287 	294 	273
f 273 	294 	264
f 294 	285 	264
f 264 	285 	274
f 285 	295 	274
f 274 	295 	263
f 295 	284 	263
f 263 	284 	261
f 284 	282 	261
f 261 	282 	275
f 282 	296 	275
f 275 	296 	260
f 296 	281 	260
f 260 	281 	276
f 281 	297 	276
f 276 	297 	277
f 297 	298 	277
f 277 	298 	278
f 298 	299 	278
f 278 	299 	279
f 299 	300 	279
f 279 	300 	277
f 300 	298 	277
f 277 	298 	259
f 298 	280 	259
f 280 	301 	281
f 301 	302 	281
f 281 	302 	282
f 302 	303 	282
f 282 	303 	283
f 303 	304 	283
f 283 	304 	284
f 304 	305 	284
f 284 	305 	285
f 305 	306 	285
f 285 	306 	286
f 306 	307 	286
f 286 	307 	287
f 307 	308 	287
f 287 	308 	288
f 308 	309 	288
f 288 	309 	289
f 309 	310 	289
f 289 	310 	290
f 310 	311 	290
f 290 	311 	291
f 311 	312 	291
f 291 	312 	292
f 312 	313 	292
f 292 	313 	290
f 313 	311 	290
f 290 	311 	288
f 311 	309 	288
f 288 	309 	293
f 309 	314 	293
f 293 	314 	287
f 314 	308 	287
f 287 	308 	294
f 308 	315 	294
f 294 	315 	285
f 315 	306 	285
f 285 	306 	295
f 306 	316 	295
f 295 	316 	284
f 316 	305 	284
f 284 	305 	282
f 305 	303 	282
f 282 	303 	296
f 303 	317 	296
f 296 	317 	281
f 317 	302 	281
f 281 	302 	297
f 302 	318 	297
f 297 	318 	298
f 318 	319 	298
f 298 	319 	299
f 319 	320 	299
f 299 	320 	300
f 320 	321 	300
f 300 	321 	298
f 321 	319 	298
f 298 	319 	280
f 319 	301 	280
f 301 	322 	302
f 322 	323 	302
f 302 	323 	303
f 323 	324 	303
f 303 	324 	304
f 324 	325 	304
f 304 	325 	305
f 325 	326 	305
f 305 	326 	306
f 326 	327 	306
f 306 	327 	307
f 327 	328 	307
f 307 	328 	308
f 328 	329 	308
f 308 	329 	309
f 329 	330 	309
f 309 	330 	310
f 330 	331 	310
f 310 	331 	311
f 331 	332 	311
f 311 	332 	312
f 332 	333 	312
f 312 	333 	313
f 333 	334 	313
f 313 	334 	311
f 334 	332 	311
f 311 	332 	309
f 332 	330 	309
f 309 	330 	314
f 330 	335 	314
f 314 	335 	308
f 335 	329 	308
f 308 	329 	315
f 329 	336 	315
f 315 	336 	306
f 336 	327 	306
f 306 	327 	316
f 327 	337 	316
f 316 	337 	305
f 337 	326 	305
f 305 	326 	303
f 326 	324 	303
f 303 	324 	317
f 324 	338 	317
f 317 	338 	302
f 338 	339 	302
f 302 	339 	318
f 339 	340 	318
f 318 	340 	319
f 340 	341 	319
f 319 	341 	320
f 341 	342 	320
f 320 	342 	321
f 342 	343 	321
f 321 	343 	319
f 343 	341 	319
f 319 	341 	301
f 341 	322 	301
f 322 	344 	323
f 344 	345 	323
f 323 	345 	324
f 345 	346 	324
f 324 	346 	325
f 346 	347 	325
f 325 	347 	326
f 347 	348 	326
f 326 	348 	327
f 348 	349 	327
f 327 	349 	328
f 349 	350 	328
f 328 	350 	329
f 350 	351 	329
f 329 	351 	330
f 351 	352 	330
f 330 	352 	331
f 352 	353 	331
f 331 	353 	332
f 353 	354 	332
f 332 	354 	333
f 354 	355 	333
f 333 	355 	334
f 355 	356 	334
f 334 	356 	332
f 356 	354 	332
f 332 	354 	330
f 354 	352 	330
f 330 	352 	335
f 352 	357 	335
f 335 	357 	329
f 357 	351 	329
f 329 	351 	336
f 351 	358 	336
f 336 	358 	327
f 358 	349 	327
f 327 	349 	337
f 349 	359 	337
f 337 	359 	326
f 359 	348 	326
f 326 	348 	324
f 348 	346 	324
f 324 	346 	338
f 346 	360 	338
f 338 	360 	339
f 360 	361 	339
f 339 	361 	340
f 361 	362 	340
f 340 	362 	341
f 362 	363 	341
f 341 	363 	342
f 363 	364 	342
f 342 	364 	343
f 364 	365 	343
f 343 	365 	341
f 365 	363 	341
f 341 	363 	322
f 363 	344 	322
f 344 	366 	345
f 366 	367 	345
f 345 	367 	346
f 367 	368 	346
f 346 	368 	347
f 368 	369 	347
f 347 	369 	348
f 369 	370 	348
f 348 	370 	349
f 370 	371 	349
f 349 	371 	350
f 371 	372 	350
f 350 	372 	351
f 372 	373 	351
f 351 	373 	352
f 373 	374 	352
f 352 	374 	353
f 374 	375 	353
f 353 	375 	354
f 375 	376 	354
f 354 	376 	355
f 376 	377 	355
f 355 	377 	356
f 377 	378 	356
f 356 	378 	354
f 378 	376 	354
f 354 	376 	352
f 376 	374 	352
f 352 	374 	357
f 374 	379 	357
f 357 	379 	351
f 379 	373 	351
f 351 	373 	358
f 373 	380 	358
f 358 	380 	349
f 380 	371 	349
f 349 	371 	359
f 371 	381 	359
f 359 	381 	348
f 381 	382 	348
f 348 	382 	346
f 382 	368 	346
f 346 	368 	360
f 368 	383 	360
f 360 	383 	361
f 383 	367 	361
f 361 	367 	362
f 367 	384 	362
f 362 	384 	363
f 384 	385 	363
f 363 	385 	364
f 385 	386 	364
f 364 	386 	365
f 386 	387 	365
f 365 	387 	363
f 387 	385 	363
f 363 	385 	344
f 385 	366 	344
f 366 	388 	367
f 388 	389 	367
f 367 	389 	368
f 389 	390 	368
f 368 	390 	369
f 390 	391 	369
f 369 	391 	370
f 391 	392 	370
f 370 	392 	371
f 392 	393 	371
f 371 	393 	372
f 393 	394 	372
f 372 	394 	373
f 394 	395 	373
f 373 	395 	374
f 395 	396 	374
f 374 	396 	375
f 396 	397 	375
f 375 	397 	376
f 397 	398 	376
f 376 	398 	377
f 398 	399 	377
f 377 	399 	378
f 399 	400 	378
f 378 	400 	376
f 400 	398 	376
f 376 	398 	374
f 398 	396 	374
f 374 	396 	379
f 396 	401 	379
f 379 	401 	373
f 401 	395 	373
f 373 	395 	380
f 395 	402 	380
f 380 	402 	371
f 402 	393 	371
f 371 	393 	381
f 393 	403 	381
f 381 	403 	382
f 403 	392 	382
f 382 	392 	368
f 392 	390 	368
f 368 	390 	383
f 390 	404 	383
f 383 	404 	367
f 404 	389 	367
f 367 	389 	384
f 389 	405 	384
f 384 	405 	385
f 405 	406 	385
f 385 	406 	386
f 406 	407 	386
f 386 	407 	387
f 407 	408 	387
f 387 	408 	385
f 408 	406 	385
f 385 	406 	366
f 406 	388 	366
f 388 	409 	389
f 409 	410 	389
f 389 	410 	390
f 410 	411 	390
f 390 	411 	391
f 411 	412 	391
f 391 	412 	392
f 412 	413 	392
f 392 	413 	393
f 413 	414 	393
f 393 	414 	394
f 414 	415 	394
f 394 	415 	395
f 415 	416 	395
f 395 	416 	396
f 416 	417 	396
f 396 	417 	397
f 417 	418 	397
f 397 	418 	398
f 418 	419 	398
f 398 	419 	399
f 419 	420 	399
f 399 	420 	400
f 420 	421 	400
f 400 	421 	398
f 421 	419 	398
f 398 	419 	396
f 419 	417 	396
f 396 	417 	401
f 417 	422 	401
f 401 	422 	395
f 422 	416 	395
f 395 	416 	402
f 416 	423 	402
f 402 	423 	393
f 423 	414 	393
f 393 	414 	403
f 414 	424 	403
f 403 	424 	392
f 424 	425 	392
f 392 	425 	390
f 425 	411 	390
f 390 	411 	404
f 411 	426 	404
f 404 	426 	389
f 426 	410 	389
f 389 	410 	405
f 410 	427 	405
f 405 	427 	406
f 427 	428 	406
f 406 	428 	407
f 428 	429 	407
f 407 	429 	408
f 429 	430 	408
f 408 	430 	406
f 430 	428 	406
f 406 	428 	388
f 428 	409 	388
f 409 	431 	410
f 431 	432 	410
f 410 	432 	411
f 432 	433 	411
f 411 	433 	412
f 433 	434 	412
f 412 	434 	413
f 434 	435 	413
f 413 	435 	414
f 435 	436 	414
f 414 	436 	415
f 436 	437 	415
f 415 	437 	416
f 437 	438 	416
f 416 	438 	417
f 438 	439 	417
f 417 	439 	418
f 439 	440 	418
f 418 	440 	419
f 440 	441 	419
f 419 	441 	420
f 441 	442 	420
f 420 	442 	421
f 442 	443 	421
f 421 	443 	419
f 443 	441 	419
f 419 	441 	417
f 441 	439 	417
f 417 	439 	422
f 439 	444 	422
f 422 	444 	416
f 444 	438 	416
f 416 	438 	423
f 438 	445 	423
f 423 	445 	414
f 445 	436 	414
f 414 	436 	424
f 436 	446 	424
f 424 	446 	425
f 446 	435 	425
f 425 	435 	411
f 435 	433 	411
f 411 	433 	426
f 433 	447 	426
f 426 	447 	410
f 447 	448 	410
f 410 	448 	427
f 448 	449 	427
f 427 	449 	428
f 449 	450 	428
f 428 	450 	429
f 450 	451 	429
f 429 	451 	430
f 451 	452 	430
f 430 	452 	428
f 452 	450 	428
f 428 	450 	409
f 450 	431 	409
f 431 	453 	432
f 453 	454 	432
f 432 	454 	433
f 454 	455 	433
f 433 	455 	434
f 455 	456 	434
f 434 	456 	435
f 456 	457 	435
f 435 	457 	436
f 457 	458 	436
f 436 	458 	437
f 458 	459 	437
f 437 	459 	438
f 459 	460 	438
f 438 	460 	439
f 460 	461 	439
f 439 	461 	440
f 461 	462 	440
f 440 	462 	441
f 462 	463 	441
f 441 	463 	442
f 463 	464 	442
f 442 	464 	443
f 464 	465 	443
f 443 	465 	441
f 465 	463 	441
f 441 	463 	439
f 463 	461 	439
f 439 	461 	444
f 461 	466 	444
f 444 	466 	438
f 466 	460 	438
f 438 	460 	445
f 460 	467 	445
f 445 	467 	436
f 467 	458 	436
f 436 	458 	446
f 458 	468 	446
f 446 	468 	435
f 468 	457 	435
f 435 	457 	433
f 457 	455 	433
f 433 	455 	447
f 455 	469 	447
f 447 	469 	448
f 469 	470 	448
f 448 	470 	449
f 470 	471 	449
f 449 	471 	450
f 471 	472 	450
f 450 	472 	451
f 472 	473 	451
f 451 	473 	452
f 473 	474 	452
f 452 	474 	450
f 474 	472 	450
f 450 	472 	431
f 472 	453 	431
f 453 	475 	454
f 475 	476 	454
f 454 	476 	455
f 476 	477 	455
f 455 	477 	456
f 477 	478 	456
f 456 	478 	457
f 478 	479 	457
f 457 	479 	458
f 479 	480 	458
f 458 	480 	459
f 480 	481 	459
f 459 	481 	460
f 481 	482 	460
f 460 	482 	461
f 482 	483 	461
f 461 	483 	462
f 483 	484 	462
f 462 	484 	463
f 484 	485 	463
f 463 	485 	464
f 485 	486 	464
f 464 	486 	465
f 486 	487 	465
f 465 	487 	463
f 487 	485 	463
f 463 	485 	461
f 485 	483 	461
f 461 	483 	466
f 483 	488 	466
f 466 	488 	460
f 488 	482 	460
f 460 	482 	467
f 482 	489 	467
f 467 	489 	458
f 489 	480 	458
f 458 	480 	468
f 480 	490 	468
f 468 	490 	457
f 490 	479 	457
f 457 	479 	455
f 479 	477 	455
f 455 	477 	469
f 477 	491 	469
f 469 	491 	470
f 491 	476 	470
f 470 	476 	471
f 476 	492 	471
f 471 	492 	472
f 492 	493 	472
f 472 	493 	473
f 493 	494 	473
f 473 	494 	474
f 494 	495 	474
f 474 	495 	472
f 495 	493 	472
f 472 	493 	453
f 493 	475 	453
f 475 	496 	476
f 496 	497 	476
f 476 	497 	477
f 497 	498 	477
f 477 	498 	478
f 498 	499 	478
f 478 	499 	479
f 499 	500 	479
f 479 	500 	480
f 500 	501 	480
f 480 	501 	481
f 501 	502 	481
f 481 	502 	482
f 502 	503 	482
f 482 	503 	483
f 503 	504 	483
f 483 	504 	484
f 504 	505 	484
f 484 	505 	485
f 505 	506 	485
f 485 	506 	486
f 506 	507 	486
f 486 	507 	487
f 507 	508 	487
f 487 	508 	485
f 508 	506 	485
f 485 	506 	483
f 506 	504 	483
f 483 	504 	488
f 504 	509 	488
f 488 	509 	482
f 509 	503 	482
f 482 	503 	489
f 503 	510 	489
f 489 	510 	480
f 510 	501 	480
f 480 	501 	490
f 501 	511 	490
f 490 	511 	479
f 511 	500 	479
f 479 	500 	477
f 500 	498 	477
f 477 	498 	491
f 498 	512 	491
f 491 	512 	476
f 512 	497 	476
f 476 	497 	492
f 497 	513 	492
f 492 	513 	493
f 513 	514 	493
f 493 	514 	494
f 514 	515 	494
f 494 	515 	495
f 515 	516 	495
f 495 	516 	493
f 516 	514 	493
f 493 	514 	475
f 514 	496 	475
f 496 	517 	497
f 517 	518 	497
f 497 	518 	498
f 518 	519 	498
f 498 	519 	499
f 519 	520 	499
f 499 	520 	500
f 520 	521 	500
f 500 	521 	501
f 521 	522 	501
f 501 	522 	502
f 522 	523 	502
f 502 	523 	503
f 523 	524 	503
f 503 	524 	504
f 524 	525 	504
f 504 	525 	505
f 525 	526 	505
f 505 	526 	506
f 526 	527 	506
f 506 	527 	507
f 527 	528 	507
f 507 	528 	508
f 528 	529 	508
f 508 	529 	506
f 529 	527 	506
f 506 	527 	504
f 527 	525 	504
f 504 	525 	509
f 525 	530 	509
f 509 	530 	503
f 530 	524 	503
f 503 	524 	510
f 524 	531 	510
f 510 	531 	501
f 531 	522 	501
f 501 	522 	511
f 522 	532 	511
f 511 	532 	500
f 532 	521 	500
f 500 	521 	498
f 521 	519 	498
f 498 	519 	512
f 519 	533 	512
f 512 	533 	497
f 533 	518 	497
f 497 	518 	513
f 518 	534 	513
f 513 	534 	514
f 534 	535 	514
f 514 	535 	515
f 535 	536 	515
f 515 	536 	516
f 536 	537 	516
f 516 	537 	514
f 537 	535 	514
f 514 	535 	496
f 535 	517 	496
f 517 	538 	518
f 538 	539 	518
f 518 	539 	519
f 539 	540 	519
f 519 	540 	520
f 540 	541 	520
f 520 	541 	521
f 541 	542 	521
f 521 	542 	522
f 542 	543 	522
f 522 	543 	523
f 543 	544 	523
f 523 	544 	524
f 544 	545 	524
f 524 	545 	525
f 545 	546 	525
f 525 	546 	526
f 546 	547 	526
f 526 	547 	527
f 547 	548 	527
f 527 	548 	528
f 548 	549 	528
f 528 	549 	529
f 549 	550 	529
f 529 	550 	527
f 550 	548 	527
f 527 	548 	525
f 548 	546 	525
f 525 	546 	530
f 546 	551 	530
f 530 	551 	524
f 551 	545 	524
f 524 	545 	531
f 545 	552 	531
f 531 	552 	522
f 552 	543 	522
f 522 	543 	532
f 543 	553 	532
f 532 	553 	521
f 553 	542 	521
f 521 	542 	519
f 542 	540 	519
f 519 	540 	533
f 540 	554 	533
f 533 	554 	518
f 554 	539 	518
f 518 	539 	534
f 539 	555 	534
f 534 	555 	535
f 555 	556 	535
f 535 	556 	536
f 556 	557 	536
f 536 	557 	537
f 557 	558 	537
f 537 	558 	535
f 558 	556 	535
f 535 	556 	517
f 556 	538 	517
f 538 	559 	539
f 559 	560 	539
f 539 	560 	540
f 560 	561 	540
f 540 	561 	541
f 561 	562 	541
f 541 	562 	542
f 562 	563 	542
f 542 	563 	543
f 563 	564 	543
f 543 	564 	544
f 564 	565 	544
f 544 	565 	545
f 565 	566 	545
f 545 	566 	546
f 566 	567 	546
f 546 	567 	547
f 567 	568 	547
f 547 	568 	548
f 568 	569 	548
f 548 	569 	549
f 569 	570 	549
f 549 	570 	550
f 570 	571 	550
f 550 	571 	548
f 571 	569 	548
f 548 	569 	546
f 569 	567 	546
f 546 	567 	551
f 567 	572 	551
f 551 	572 	545
f 572 	566 	545
f 545 	566 	552
f 566 	573 	552
f 552 	573 	543
f 573 	564 	543
f 543 	564 	553
f 564 	574 	553
f 553 	574 	542
f 574 	563 	542
f 542 	563 	540
f 563 	561 	540
f 540 	561 	554
f 561 	575 	554
f 554 	575 	539
f 575 	560 	539
f 539 	560 	555
f 560 	576 	555
f 555 	576 	556
f 576 	577 	556
f 556 	577 	557
f 577 	578 	557
f 557 	578 	558
f 578 	579 	558
f 558 	579 	556
f 579 	577 	556
f 556 	577 	538
f 577 	559 	538
f 559 	580 	560
f 580 	581 	560
f 560 	581 	561
f 581 	582 	561
f 561 	582 	562
f 582 	583 	562
f 562 	583 	563
f 583 	584 	563
f 563 	584 	564
f 584 	585 	564
f 564 	585 	565
f 585 	586 	565
f 565 	586 	566
f 586 	587 	566
f 566 	587 	567
f 587 	588 	567
f 567 	588 	568
f 588 	589 	568
f 568 	589 	569
f 589 	590 	569
f 569 	590 	570
f 590 	591 	570
f 570 	591 	571
f 591 	592 	571
f 571 	592 	569
f 592 	590 	569
f 569 	590 	567
f 590 	588 	567
f 567 	588 	572
f 588 	593 	572
f 572 	593 	566
f 593 	587 	566
f 566 	587 	573
f 587 	594 	573
f 573 	594 	564
f 594 	585 	564
f 564 	585 	574
f 585 	595 	574
f 574 	595 	563
f 595 	584 	563
f 563 	584 	561
f 584 	582 	561
f 561 	582 	575
f 582 	596 	575
f 575 	596 	560
f 596 	597 	560
f 560 	597 	576
f 597 	598 	576
f 576 	598 	577
f 598 	599 	577
f 577 	599 	578
f 599 	600 	578
f 578 	600 	579
f 600 	601 	579
f 579 	601 	577
f 601 	599 	577
f 577 	599 	559
f 599 	580 	559
f 580 	602 	581
f 602 	603 	581
f 581 	603 	582
f 603 	604 	582
f 582 	604 	583
f 604 	605 	583
f 583 	605 	584
f 605 	606 	584
f 584 	606 	585
f 606 	607 	585
f 585 	607 	586
f 607 	608 	586
f 586 	608 	587
f 608 	609 	587
f 587 	609 	588
f 609 	610 	588
f 588 	610 	589
f 610 	611 	589
f 589 	611 	590
f 611 	612 	590
f 590 	612 	591
f 612 	613 	591
f 591 	613 	592
f 613 	614 	592
f 592 	614 	590
f 614 	612 	590
f 590 	612 	588
f 612 	610 	588
f 588 	610 	593
f 610 	615 	593
f 593 	615 	587
f 615 	609 	587
f 587 	609 	594
f 609 	616 	594
f 594 	616 	585
f 616 	607 	585
f 585 	607 	595
f 607 	617 	595
f 595 	617 	584
f 617 	606 	584
f 584 	606 	582
f 606 	604 	582
f 582 	604 	596
f 604 	618 	596
f 596 	618 	597
f 618 	619 	597
f 597 	619 	598
f 619 	620 	598
f 598 	620 	599
f 620 	621 	599
f 599 	621 	600
f 621 	622 	600
f 600 	622 	601
f 622 	623 	601
f 601 	623 	599
f 623 	621 	599
f 599 	621 	580
f 621 	602 	580
f 602 	624 	603
f 624 	625 	603
f 603 	625 	604
f 625 	626 	604
f 604 	626 	605
f 626 	627 	605
f 605 	627 	606
f 627 	628 	606
f 606 	628 	607
f 628 	629 	607
f 607 	629 	608
f 629 	630 	608
f 608 	630 	609
f 630 	631 	609
f 609 	631 	610
f 631 	632 	610
f 610 	632 	611
f 632 	633 	611
f 611 	633 	612
f 633 	634 	612
f 612 	634 	613
f 634 	635 	613
f 613 	635 	614
f 635 	636 	614
f 614 	636 	612
f 636 	634 	612
f 612 	634 	610
f 634 	632 	610
f 610 	632 	615
f 632 	637 	615
f 615 	637 	609
f 637 	631 	609
f 609 	631 	616
f 631 	638 	616
f 616 	638 	607
f 638 	629 	607
f 607 	629 	617
f 629 	639 	617
f 617 	639 	606
f 639 	640 	606
f 606 	640 	604
f 640 	626 	604
f 604 	626 	618
f 626 	641 	618
f 618 	641 	619
f 641 	625 	619
f 619 	625 	620
f 625 	642 	620
f 620 	642 	621
f 642 	643 	621
f 621 	643 	622
f 643 	644 	622
f 622 	644 	623
f 644 	645 	623
f 623 	645 	621
f 645 	643 	621
f 621 	643 	602
f 643 	624 	602
f 624 	646 	625
f 646 	647 	625
f 625 	647 	626
f 647 	648 	626
f 626 	648 	627
f 648 	649 	627
f 627 	649 	628
f 649 	650 	628
f 628 	650 	629
f 650 	651 	629
f 629 	651 	630
f 651 	652 	630
f 630 	652 	631
f 652 	653 	631
f 631 	653 	632
f 653 	654 	632
f 632 	654 	633
f 654 	655 	633
f 633 	655 	634
f 655 	656 	634
f 634 	656 	635
f 656 	657 	635
f 635 	657 	636
f 657 	658 	636
f 636 	658 	634
f 658 	656 	634
f 634 	656 	632
f 656 	654 	632
f 632 	654 	637
f 654 	659 	637
f 637 	659 	631
f 659 	653 	631
f 631 	653 	638
f 653 	660 	638
f 638 	660 	629
f 660 	651 	629
f 629 	651 	639
f 651 	661 	639
f 639 	661 	640
f 661 	650 	640
f 640 	650 	626
f 650 	648 	626
f 626 	648 	641
f 648 	662 	641
f 641 	662 	625
f 662 	647 	625
f 625 	647 	642
f 647 	663 	642
f 642 	663 	643
f 663 	664 	643
f 643 	664 	644
f 664 	665 	644
f 644 	665 	645
f 665 	666 	645
f 645 	666 	643
f 666 	664 	643
f 643 	664 	624
f 664 	646 	624
f 646 	667 	647
f 667 	668 	647
f 647 	668 	648
f 668 	669 	648
f 648 	669 	649
f 669 	670 	649
f 649 	670 	650
f 670 	671 	650
f 650 	671 	651
f 671 	672 	651
f 651 	672 	652
f 672 	673 	652
f 652 	673 	653
f 673 	674 	653
f 653 	674 	654
f 674 	675 	654
f 654 	675 	655
f 675 	676 	655
f 655 	676 	656
f 676 	677 	656
f 656 	677 	657
f 677 	678 	657
f 657 	678 	658
f 678 	679 	658
f 658 	679 	656
f 679 	677 	656
f 656 	677 	654
f 677 	675 	654
f 654 	675 	659
f 675 	680 	659
f 659 	680 	653
f 680 	674 	653
f 653 	674 	660
f 674 	681 	660
f 660 	681 	651
f 681 	672 	651
f 651 	672 	661
f 672 	682 	661
f 661 	682 	650
f 682 	683 	650
f 650 	683 	648
f 683 	669 	648
f 648 	669 	662
f 669 	684 	662
f 662 	684 	647
f 684 	668 	647
f 647 	668 	663
f 668 	685 	663
f 663 	685 	664
f 685 	686 	664
f 664 	686 	665
f 686 	687 	665
f 665 	687 	666
f 687 	688 	666
f 666 	688 	664
f 688 	686 	664
f 664 	686 	646
f 686 	667 	646
f 667 	689 	668
f 689 	690 	668
f 668 	690 	669
f 690 	691 	669
f 669 	691 	670
f 691 	692 	670
f 670 	692 	671
f 692 	693 	671
f 671 	693 	672
f 693 	694 	672
f 672 	694 	673
f 694 	695 	673
f 673 	695 	674
f 695 	696 	674
f 674 	696 	675
f 696 	697 	675
f 675 	697 	676
f 697 	698 	676
f 676 	698 	677
f 698 	699 	677
f 677 	699 	678
f 699 	700 	678
f 678 	700 	679
f 700 	701 	679
f 679 	701 	677
f 701 	699 	677
f 677 	699 	675
f 699 	697 	675
f 675 	697 	680
f 697 	702 	680
f 680 	702 	674
f 702 	696 	674
f 674 	696 	681
f 696 	703 	681
f 681 	703 	672
f 703 	694 	672
f 672 	694 	682
f 694 	704 	682
f 682 	704 	683
f 704 	693 	683
f 683 	693 	669
f 693 	691 	669
f 669 	691 	684
f 691 	705 	684
f 684 	705 	668
f 705 	706 	668
f 668 	706 	685
f 706 	707 	685
f 685 	707 	686
f 707 	708 	686
f 686 	708 	687
f 708 	709 	687
f 687 	709 	688
f 709 	710 	688
f 688 	710 	686
f 710 	708 	686
f 686 	708 	667
f 708 	689 	667
f 689 	711 	690
f 711 	712 	690
f 690 	712 	691
f 712 	713 	691
f 691 	713 	692
f 713 	714 	692
f 692 	714 	693
f 714 	715 	693
f 693 	715 	694
f 715 	716 	694
f 694 	716 	695
f 716 	717 	695
f 695 	717 	696
f 717 	718 	696
f 696 	718 	697
f 718 	719 	697
f 697 	719 	698
f 719 	720 	698
f 698 	720 	699
f 720 	721 	699
f 699 	721 	700
f 721 	722 	700
f 700 	722 	701
f 722 	723 	701
f 701 	723 	699
f 723 	721 	699
f 699 	721 	697
f 721 	719 	697
f 697 	719 	702
f 719 	724 	702
f 702 	724 	696
f 724 	718 	696
f 696 	718 	703
f 718 	725 	703
f 703 	725 	694
f 725 	716 	694
f 694 	716 	704
f 716 	726 	704
f 704 	726 	693
f 726 	715 	693
f 693 	715 	691
f 715 	713 	691
f 691 	713 	705
f 713 	727 	705
f 705 	727 	706
f 727 	728 	706
f 706 	728 	707
f 728 	729 	707
f 707 	729 	708
f 729 	730 	708
f 708 	730 	709
f 730 	731 	709
f 709 	731 	710
f 731 	732 	710
f 710 	732 	708
f 732 	730 	708
f 708 	730 	689
f 730 	711 	689
f 711 	733 	712
f 733 	734 	712
f 712 	734 	713
f 734 	735 	713
f 713 	735 	714
f 735 	736 	714
f 714 	736 	715
f 736 	737 	715
f 715 	737 	716
f 737 	738 	716
f 716 	738 	717
f 738 	739 	717
f 717 	739 	718
f 739 	740 	718
f 718 	740 	719
f 740 	741 	719
f 719 	741 	720
f 741 	742 	720
f 720 	742 	721
f 742 	743 	721
f 721 	743 	722
f 743 	744 	722
f 722 	744 	723
f 744 	745 	723
f 723 	745 	721
f 745 	743 	721
f 721 	743 	719
f 743 	741 	719
f 719 	741 	724
f 741 	746 	724
f 724 	746 	718
f 746 	740 	718
f 718 	740 	725
f 740 	747 	725
f 725 	747 	716
f 747 	738 	716
f 716 	738 	726
f 738 	748 	726
f 726 	748 	715
f 748 	737 	715
f 715 	737 	713
f 737 	735 	713
f 713 	735 	727
f 735 	749 	727
f 727 	749 	728
f 749 	734 	728
f 728 	734 	729
f 734 	750 	729
f 729 	750 	730
f 750 	751 	730
f 730 	751 	731
f 751 	752 	731
f 731 	752 	732
f 752 	753 	732
f 732 	753 	730
f 753 	751 	730
f 730 	751 	711
f 751 	733 	711
f 733 	754 	734
f 754 	755 	734
f 734 	755 	735
f 755 	756 	735
f 735 	756 	736
f 756 	757 	736
f 736 	757 	737
f 757 	758 	737
f 737 	758 	738
f 758 	759 	738
f 738 	759 	739
f 759 	760 	739
f 739 	760 	740
f 760 	761 	740
f 740 	761 	741
f 761 	762 	741
f 741 	762 	742
f 762 	763 	742
f 742 	763 	743
f 763 	764 	743
f 743 	764 	744
f 764 	765 	744
f 744 	765 	745
f 765 	766 	745
f 745 	766 	743
f 766 	764 	743
f 743 	764 	741
f 764 	762 	741
f 741 	762 	746
f 762 	767 	746
f 746 	767 	740
f 767 	761 	740
f 740 	761 	747
f 761 	768 	747
f 747 	768 	738
f 768 	759 	738
f 738 	759 	748
f 759 	769 	748
f 748 	769 	737
f 769 	758 	737
f 737 	758 	735
f 758 	756 	735
f 735 	756 	749
f 756 	770 	749
f 749 	770 	734
f 770 	755 	734
f 734 	755 	750
f 755 	771 	750
f 750 	771 	751
f 771 	772 	751
f 751 	772 	752
f 772 	773 	752
f 752 	773 	753
f 773 	774 	753
f 753 	774 	751
f 774 	772 	751
f 751 	772 	733
f 772 	754 	733
f 754 	775 	755
f 775 	776 	755
f 755 	776 	756
f 776 	777 	756
f 756 	777 	757
f 777 	778 	757
f 757 	778 	758
f 778 	779 	758
f 758 	779 	759
f 779 	780 	759
f 759 	780 	760
f 780 	781 	760
f 760 	781 	761
f 781 	782 	761
f 761 	782 	762
f 782 	783 	762
f 762 	783 	763
f 783 	784 	763
f 763 	784 	764
f 784 	785 	764
f 764 	785 	765
f 785 	786 	765
f 765 	786 	766
f 786 	787 	766
f 766 	787 	764
f 787 	785 	764
f 764 	785 	762
f 785 	783 	762
f 762 	783 	767
f 783 	788 	767
f 767 	788 	761
f 788 	782 	761
f 761 	782 	768
f 782 	789 	768
f 768 	789 	759
f 789 	780 	759
f 759 	780 	769
f 780 	790 	769
f 769 	790 	758
f 790 	779 	758
f 758 	779 	756
f 779 	777 	756
f 756 	777 	770
f 777 	791 	770
f 770 	791 	755
f 791 	776 	755
f 755 	776 	771
f 776 	792 	771
f 771 	792 	772
f 792 	793 	772
f 772 	793 	773
f 793 	794 	773
f 773 	794 	774
f 794 	795 	774
f 774 	795 	772
f 795 	793 	772
f 772 	793 	754
f 793 	775 	754
f 775 	796 	776
f 796 	797 	776
f 776 	797 	777
f 797 	798 	777
f 777 	798 	778
f 798 	799 	778
f 778 	799 	779
f 799 	800 	779
f 779 	800 	780
f 800 	801 	780
f 780 	801 	781
f 801 	802 	781
f 781 	802 	782
f 802 	803 	782
f 782 	803 	783
f 803 	804 	783
f 783 	804 	784
f 804 	805 	784
f 784 	805 	785
f 805 	806 	785
f 785 	806 	786
f 806 	807 	786
f 786 	807 	787
f 807 	808 	787
f 787 	808 	785
f 808 	806 	785
f 785 	806 	783
f 806 	804 	783
f 783 	804 	788
f 804 	809 	788
f 788 	809 	782
f 809 	803 	782
f 782 	803 	789
f 803 	810 	789
f 789 	810 	780
f 810 	801 	780
f 780 	801 	790
f 801 	811 	790
f 790 	811 	779
f 811 	800 	779
f 779 	800 	777
f 800 	798 	777
f 777 	798 	791
f 798 	812 	791
f 791 	812 	776
f 812 	797 	776
f 776 	797 	792
f 797 	813 	792
f 792 	813 	793
f 813 	814 	793
f 793 	814 	794
f 814 	815 	794
f 794 	815 	795
f 815 	816 	795
f 795 	816 	793
f 816 	814 	793
f 793 	814 	775
f 814 	796 	775
f 796 	817 	797
f 817 	818 	797
f 797 	818 	798
f 818 	819 	798
f 798 	819 	799
f 819 	820 	799
f 799 	820 	800
f 820 	821 	800
f 800 	821 	801
f 821 	822 	801
f 801 	822 	802
f 822 	823 	802
f 802 	823 	803
f 823 	824 	803
f 803 	824 	804
f 824 	825 	804
f 804 	825 	805
f 825 	826 	805
f 805 	826 	806
f 826 	827 	806
f 806 	827 	807
f 827 	828 	807
f 807 	828 	808
f 828 	829 	808
f 808 	829 	806
f 829 	827 	806
f 806 	827 	804
f 827 	825 	804
f 804 	825 	809
f 825 	830 	809
f 809 	830 	803
f 830 	824 	803
f 803 	824 	810
f 824 	831 	810
f 810 	831 	801
f 831 	822 	801
f 801 	822 	811
f 822 	832 	811
f 811 	832 	800
f 832 	821 	800
f 800 	821 	798
f 821 	819 	798
f 798 	819 	812
f 819 	833 	812
f 812 	833 	797
f 833 	818 	797
f 797 	818 	813
f 818 	834 	813
f 813 	834 	814
f 834 	835 	814
f 814 	835 	815
f 835 	836 	815
f 815 	836 	816
f 836 	837 	816
f 816 	837 	814
f 837 	835 	814
f 814 	835 	796
f 835 	817 	796
f 817 	838 	818
f 838 	839 	818
f 818 	839 	819
f 839 	840 	819
f 819 	840 	820
f 840 	841 	820
f 820 	841 	821
f 841 	842 	821
f 821 	842 	822
f 842 	843 	822
f 822 	843 	823
f 843 	844 	823
f 823 	844 	824
f 844 	845 	824
f 824 	845 	825
f 845 	846 	825
f 825 	846 	826
f 846 	847 	826
f 826 	847 	827
f 847 	848 	827
f 827 	848 	828
f 848 	849 	828
f 828 	849 	829
f 849 	850 	829
f 829 	850 	827
f 850 	848 	827
f 827 	848 	825
f 848 	846 	825
f 825 	846 	830
f 846 	851 	830
f 830 	851 	824
f 851 	845 	824
f 824 	845 	831
f 845 	852 	831
f 831 	852 	822
f 852 	843 	822
f 822 	843 	832
f 843 	853 	832
f 832 	853 	821
f 853 	842 	821
f 821 	842 	819
f 842 	840 	819
f 819 	840 	833
f 840 	854 	833
f 833 	854 	818
f 854 	855 	818
f 818 	855 	834
f 855 	856 	834
f 834 	856 	835
f 856 	857 	835
f 835 	857 	836
f 857 	858 	836
f 836 	858 	837
f 858 	859 	837
f 837 	859 	835
f 859 	857 	835
f 835 	857 	817
f 857 	838 	817
f 838 	860 	839
f 860 	861 	839
f 839 	861 	840
f 861 	862 	840
f 840 	862 	841
f 862 	863 	841
f 841 	863 	842
f 863 	864 	842
f 842 	864 	843
f 864 	865 	843
f 843 	865 	844
f 865 	866 	844
f 844 	866 	845
f 866 	867 	845
f 845 	867 	846
f 867 	868 	846
f 846 	868 	847
f 868 	869 	847
f 847 	869 	848
f 869 	870 	848
f 848 	870 	849
f 870 	871 	849
f 849 	871 	850
f 871 	872 	850
f 850 	872 	848
f 872 	870 	848
f 848 	870 	846
f 870 	868 	846
f 846 	868 	851
f 868 	873 	851
f 851 	873 	845
f 873 	867 	845
f 845 	867 	852
f 867 	874 	852
f 852 	874 	843
f 874 	865 	843
f 843 	865 	853
f 865 	875 	853
f 853 	875 	842
f 875 	864 	842
f 842 	864 	840
f 864 	862 	840
f 840 	862 	854
f 862 	876 	854
f 854 	876 	855
f 876 	877 	855
f 855 	877 	856
f 877 	878 	856
f 856 	878 	857
f 878 	879 	857
f 857 	879 	858
f 879 	880 	858
f 858 	880 	859
f 880 	881 	859
f 859 	881 	857
f 881 	879 	857
f 857 	879 	838
f 879 	860 	838
f 860 	882 	861
f 882 	883 	861
f 861 	883 	862
f 883 	884 	862
f 862 	884 	863
f 884 	885 	863
f 863 	885 	864
f 885 	886 	864
f 864 	886 	865
f 886 	887 	865
f 865 	887 	866
f 887 	888 	866
f 866 	888 	867
f 888 	889 	867
f 867 	889 	868
f 889 	890 	868
f 868 	890 	869
f 890 	891 	869
f 869 	891 	870
f 891 	892 	870
f 870 	892 	871
f 892 	893 	871
f 871 	893 	872
f 893 	894 	872
f 872 	894 	870
f 894 	892 	870
f 870 	892 	868
f 892 	890 	868
f 868 	890 	873
f 890 	895 	873
f 873 	895 	867
f 895 	889 	867
f 867 	889 	874
f 889 	896 	874
f 874 	896 	865
f 896 	887 	865
f 865 	887 	875
f 887 	897 	875
f 875 	897 	864
f 897 	898 	864
f 864 	898 	862
f 898 	884 	862
f 862 	884 	876
f 884 	899 	876
f 876 	899 	877
f 899 	883 	877
f 877 	883 	878
f 883 	900 	878
f 878 	900 	879
f 900 	901 	879
f 879 	901 	880
f 901 	902 	880
f 880 	902 	881
f 902 	903 	881
f 881 	903 	879
f 903 	901 	879
f 879 	901 	860
f 901 	882 	860
f 882 	904 	883
f 904 	905 	883
f 883 	905 	884
f 905 	906 	884
f 884 	906 	885
f 906 	907 	885
f 885 	907 	886
f 907 	908 	886
f 886 	908 	887
f 908 	909 	887
f 887 	909 	888
f 909 	910 	888
f 888 	910 	889
f 910 	911 	889
f 889 	911 	890
f 911 	912 	890
f 890 	912 	891
f 912 	913 	891
f 891 	913 	892
f 913 	914 	892
f 892 	914 	893
f 914 	915 	893
f 893 	915 	894
f 915 	916 	894
f 894 	916 	892
f 916 	914 	892
f 892 	914 	890
f 914 	912 	890
f 890 	912 	895
f 912 	917 	895
f 895 	917 	889
f 917 	911 	889
f 889 	911 	896
f 911 	918 	896
f 896 	918 	887
f 918 	909 	887
f 887 	909 	897
f 909 	919 	897
f 897 	919 	898
f 919 	908 	898
f 898 	908 	884
f 908 	906 	884
f 884 	906 	899
f 906 	920 	899
f 899 	920 	883
f 920 	905 	883
f 883 	905 	900
f 905 	921 	900
f 900 	921 	901
f 921 	922 	901
f 901 	922 	902
f 922 	923 	902
f 902 	923 	903
f 923 	924 	903
f 903 	924 	901
f 924 	922 	901
f 901 	922 	882
f 922 	904 	882
f 904 	925 	905
f 925 	926 	905
f 905 	926 	906
f 926 	927 	906
f 906 	927 	907
f 927 	928 	907
f 907 	928 	908
f 928 	929 	908
f 908 	929 	909
f 929 	930 	909
f 909 	930 	910
f 930 	931 	910
f 910 	931 	911
f 931 	932 	911
f 911 	932 	912
f 932 	933 	912
f 912 	933 	913
f 933 	934 	913
f 913 	934 	914
f 934 	935 	914
f 914 	935 	915
f 935 	936 	915
f 915 	936 	916
f 936 	937 	916
f 916 	937 	914
f 937 	935 	914
f 914 	935 	912
f 935 	933 	912
f 912 	933 	917
f 933 	938 	917
f 917 	938 	911
f 938 	932 	911
f 911 	932 	918
f 932 	939 	918
f 918 	939 	909
f 939 	930 	909
f 909 	930 	919
f 930 	940 	919
f 919 	940 	908
f 940 	941 	908
f 908 	941 	906
f 941 	927 	906
f 906 	927 	920
f 927 	942 	920
f 920 	942 	905
f 942 	926 	905
f 905 	926 	921
f 926 	943 	921
f 921 	943 	922
f 943 	944 	922
f 922 	944 	923
f 944 	945 	923
f 923 	945 	924
f 945 	946 	924
f 924 	946 	922
f 946 	944 	922
f 922 	944 	904
f 944 	925 	904
f 925 	947 	926
f 947 	948 	926
f 926 	948 	927
f 948 	949 	927
f 927 	949 	928
f 949 	950 	928
f 928 	950 	929
f 950 	951 	929
f 929 	951 	930
f 951 	952 	930
f 930 	952 	931
f 952 	953 	931
f 931 	953 	932
f 953 	954 	932
f 932 	954 	933
f 954 	955 	933
f 933 	955 	934
f 955 	956 	934
f 934 	956 	935
f 956 	957 	935
f 935 	957 	936
f 957 	958 	936
f 936 	958 	937
f 958 	959 	937
f 937 	959 	935
f 959 	957 	935
f 935 	957 	933
f 957 	955 	933
f 933 	955 	938
f 955 	960 	938
f 938 	960 	932
f 960 	954 	932
f 932 	954 	939
f 954 	961 	939
f 939 	961 	930
f 961 	952 	930
f 930 	952 	940
f 952 	962 	940
f 940 	962 	941
f 962 	951 	941
f 941 	951 	927
f 951 	949 	927
f 927 	949 	942
f 949 	963 	942
f 942 	963 	926
f 963 	964 	926
f 926 	964 	943
f 964 	965 	943
f 943 	965 	944
f 965 	966 	944
f 944 	966 	945
f 966 	967 	945
f 945 	967 	946
f 967 	968 	946
f 946 	968 	944
f 968 	966 	944
f 944 	966 	925
f 966 	947 	925
f 947 	969 	948
f 969 	970 	948
f 948 	970 	949
f 970 	971 	949
f 949 	971 	950
f 971 	972 	950
f 950 	972 	951
f 972 	973 	951
f 951 	973 	952
f 973 	974 	952
f 952 	974 	953
f 974 	975 	953
f 953 	975 	954
f 975 	976 	954
f 954 	976 	955
f 976 	977 	955
f 955 	977 	956
f 977 	978 	956
f 956 	978 	957
f 978 	979 	957
f 957 	979 	958
f 979 	980 	958
f 958 	980 	959
f 980 	981 	959
f 959 	981 	957
f 981 	979 	957
f 957 	979 	955
f 979 	977 	955
f 955 	977 	960
f 977 	982 	960
f 960 	982 	954
f 982 	976 	954
f 954 	976 	961
f 976 	983 	961
f 961 	983 	952
f 983 	974 	952
f 952 	974 	962
f 974 	984 	962
f 962 	984 	951
f 984 	973 	951
f 951 	973 	949
f 973 	971 	949
f 949 	971 	963
f 971 	985 	963
f 963 	985 	964
f 985 	986 	964
f 964 	986 	965
f 986 	987 	965
f 965 	987 	966
f 987 	988 	966
f 966 	988 	967
f 988 	989 	967
f 967 	989 	968
f 989 	990 	968
f 968 	990 	966
f 990 	988 	966
f 966 	988 	947
f 988 	969 	947
f 969 	991 	970
f 991 	992 	970
f 970 	992 	971
f 992 	993 	971
f 971 	993 	972
f 993 	994 	972
f 972 	994 	973
f 994 	995 	973
f 973 	995 	974
f 995 	996 	974
f 974 	996 	975
f 996 	997 	975
f 975 	997 	976
f 997 	998 	976
f 976 	998 	977
f 998 	999 	977
f 977 	999 	978
f 999 	1000 	978
f 978 	1000 	979
f 1000 	1001 	979
f 979 	1001 	980
f 1001 	1002 	980
f 980 	1002 	981
f 1002 	1003 	981
f 981 	1003 	979
f 1003 	1001 	979
f 979 	1001 	977
f 1001 	999 	977
f 977 	999 	982
f 999 	1004 	982
f 982 	1004 	976
f 1004 	998 	976
f 976 	998 	983
f 998 	1005 	983
f 983 	1005 	974
f 1005 	996 	974
f 974 	996 	984
f 996 	1006 	984
f 984 	1006 	973
f 1006 	995 	973
f 973 	995 	971
f 995 	993 	971
f 971 	993 	985
f 993 	1007 	985
f 985 	1007 	986
f 1007 	992 	986
f 986 	992 	987
f 992 	1008 	987
f 987 	1008 	988
f 1008 	1009 	988
f 988 	1009 	989
f 1009 	1010 	989
f 989 	1010 	990
f 1010 	1011 	990
f 990 	1011 	988
f 1011 	1009 	988
f 988 	1009 	969
f 1009 	991 	969
f 991 	1012 	992
f 1012 	1013 	992
f 992 	1013 	993
f 1013 	1014 	993
f 993 	1014 	994
f 1014 	1015 	994
f 994 	1015 	995
f 1015 	1016 	995
f 995 	1016 	996
f 1016 	1017 	996
f 996 	1017 	997
f 1017 	1018 	997
f 997 	1018 	998
f 1018 	1019 	998
f 998 	1019 	999
f 1019 	1020 	999
f 999 	1020 	1000
f 1020 	1021 	1000
f 1000 	1021 	1001
f 1021 	1022 	1001
f 1001 	1022 	1002
f 1022 	1023 	1002
f 1002 	1023 	1003
f 1023 	1024 	1003
f 1003 	1024 	1001
f 1024 	1022 	1001
f 1001 	1022 	999
f 1022 	1020 	999
f 999 	1020 	1004
f 1020 	1025 	1004
f 1004 	1025 	998
f 1025 	1019 	998
f 998 	1019 	1005
f 1019 	1026 	1005
f 1005 	1026 	996
f 1026 	1017 	996
f 996 	1017 	1006
f 1017 	1027 	1006
f 1006 	1027 	995
f 1027 	1016 	995
f 995 	1016 	993
f 1016 	1014 	993
f 993 	1014 	1007
f 1014 	1028 	1007
f 1007 	1028 	992
f 1028 	1013 	992
f 992 	1013 	1008
f 1013 	1029 	1008
f 1008 	1029 	1009
f 1029 	1030 	1009
f 1009 	1030 	1010
f 1030 	1031 	1010
f 1010 	1031 	1011
f 1031 	1032 	1011
f 1011 	1032 	1009
f 1032 	1030 	1009
f 1009 	1030 	991
f 1030 	1012 	991
f 1012 	1 	1013
f 1 	3 	1013
f 1013 	3 	1014
f 3 	5 	1014
f 1014 	5 	1015
f 5 	7 	1015
f 1015 	7 	1016
f 7 	9 	1016
f 1016 	9 	1017
f 9 	11 	1017
f 1017 	11 	1018
f 11 	13 	1018
f 1018 	13 	1019
f 13 	15 	1019
f 1019 	15 	1020
f 15 	17 	1020
f 1020 	17 	1021
f 17 	19 	1021
f 1021 	19 	1022
f 19 	21 	1022
f 1022 	21 	1023
f 21 	23 	1023
f 1023 	23 	1024
f 23 	25 	1024
f 1024 	25 	1022
f 25 	21 	1022
f 1022 	21 	1020
f 21 	17 	1020
f 1020 	17 	1025
f 17 	27 	1025
f 1025 	27 	1019
f 27 	15 	1019
f 1019 	15 	1026
f 15 	29 	1026
f 1026 	29 	1017
f 29 	11 	1017
f 1017 	11 	1027
f 11 	31 	1027
f 1027 	31 	1016
f 31 	9 	1016
f 1016 	9 	1014
f 9 	5 	1014
f 1014 	5 	1028
f 5 	33 	1028
f 1028 	33 	1013
f 33 	3 	1013
f 1013 	3 	1029
f 3 	35 	1029
f 1029 	35 	1030
f 35 	37 	1030
f 1030 	37 	1031
f 37 	39 	1031
f 1031 	39 	1032
f 39 	41 	1032
f 1032 	41 	1030
f 41 	37 	1030
f 1030 	37 	1012
f 37 	1 	1012
# 2784 faces

 #end of obj_0

o obj_1
v -1 		6 		4
v -1.7832 		5.9486 		4
v -1 		2 		4
v -1.2611 		1.9829 		4
v -1 		0 		21
v -1 		0 		2
v -1.7832 		5.9487 		2
v -1 		6 		2
v -1 		8 		3
v -2.0442 		7.9316 		3
v -1 		8 		20
v -2.0442 		7.9316 		20
v -1 		7 		21
v -1.9137 		6.9401 		21
v -2.5529 		5.7955 		4
v -1.5176 		1.9319 		4
v -2.5529 		5.7956 		2
v -3.0706 		7.7274 		3
v -3.0706 		7.7274 		20
v -2.8117 		6.7615 		21
v -3.2961 		5.5432 		4
v -1.7654 		1.8478 		4
v -3.2961 		5.5433 		2
v -4.0615 		7.3911 		3
v -4.0615 		7.3911 		20
v -3.6788 		6.4671 		21
v -4 		5.1961 		4
v -2 		1.7321 		4
v -4 		5.1962 		2
v -5 		6.9282 		3
v -5 		6.9282 		20
v -4.5 		6.0622 		21
v -4.6526 		4.7601 		4
v -2.2175 		1.5867 		4
v -4.6526 		4.7601 		2
v -5.8701 		6.3469 		3
v -5.8701 		6.3469 		20
v -5.2613 		5.5535 		21
v -5.2426 		4.2426 		4
v -2.4142 		1.4142 		4
v -5.2426 		4.2426 		2
v -6.6569 		5.6569 		3
v -6.6569 		5.6569 		20
v -5.9497 		4.9497 		21
v -5.7601 		3.6526 		4
v -2.5867 		1.2175 		4
v -5.7601 		3.6526 		2
v -7.3469 		4.8701 		3
v -7.3469 		4.8701 		20
v -6.5535 		4.2613 		21
v -6.1961 		3 		4
v -2.7321 		1 		4
v -6.1962 		3 		2
v -7.9282 		4 		3
v -7.9282 		4 		20
v -7.0622 		3.5 		21
v -6.5432 		2.2961 		4
v -2.8478 		0.7654 		4
v -6.5433 		2.2961 		2
v -8.3911 		3.0615 		3
v -8.3911 		3.0615 		20
v -7.4671 		2.6788 		21
v -6.7955 		1.5529 		4
v -2.9319 		0.5176 		4
v -6.7956 		1.5529 		2
v -8.7274 		2.0706 		3
v -8.7274 		2.0706 		20
v -7.7615 		1.8117 		21
v -6.9486 		0.7832 		4
v -2.9829 		0.2611 		4
v -6.9487 		0.7832 		2
v -8.9316 		1.0442 		3
v -8.9316 		1.0442 		20
v -7.9401 		0.9137 		21
v -7 		0 		4
v -3 		0 		4
v -7 		0 		2
v -9 		0 		3
v -9 		0 		20
v -8 		0 		21
v -6.9486 		-0.7832 		4
v -2.9829 		-0.2611 		4
v -6.9487 		-0.7832 		2
v -8.9316 		-1.0442 		3
v -8.9316 		-1.0442 		20
v -7.9401 		-0.9137 		21
v -6.7955 		-1.5529 		4
v -2.9319 		-0.5176 		4
v -6.7956 		-1.5529 		2
v -8.7274 		-2.0706 		3
v -8.7274 		-2.0706 		20
v -7.7615 		-1.8117 		21
v -6.5432 		-2.2961 		4
v -2.8478 		-0.7654 		4
v -6.5433 		-2.2961 		2
v -8.3911 		-3.0615 		3
v -8.3911 		-3.0615 		20
v -7.4671 		-2.6788 		21
v -6.1961 		-3 		4
v -2.7321 		-1 		4
v -6.1962 		-3 		2
v -7.9282 		-4 		3
v -7.9282 		-4 		20
v -7.0622 		-3.5 		21
v -5.7601 		-3.6526 		4
v -2.5867 		-1.2175 		4
v -5.7601 		-3.6526 		2
v -7.3469 		-4.8701 		3
v -7.3469 		-4.8701 		20
v -6.5535 		-4.2613 		21
v -5.2426 		-4.2426 		4
v -2.4142 		-1.4142 		4
v -5.2426 		-4.2426 		2
v -6.6569 		-5.6569 		3
v -6.6569 		-5.6569 		20
v -5.9497 		-4.9497 		21
v -4.6526 		-4.7601 		4
v -2.2175 		-1.5867 		4
v -4.6526 		-4.7601 		2
v -5.8701 		-6.3469 		3
v -5.8701 		-6.3469 		20
v -5.2613 		-5.5535 		21
v -4 		-5.1961 		4
v -2 		-1.7321 		4
v -4 		-5.1962 		2
v -5 		-6.9282 		3
v -5 		-6.9282 		20
v -4.5 		-6.0622 		21
v -3.2961 		-5.5432 		4
v -1.7654 		-1.8478 		4
v -3.2961 		-5.5433 		2
v -4.0615 		-7.3911 		3
v -4.0615 		-7.3911 		20
v -3.6788 		-6.4671 		21
v -2.5529 		-5.7955 		4
v -1.5176 		-1.9319 		4
v -2.5529 		-5.7956 		2
v -3.0706 		-7.7274 		3
v -3.0706 		-7.7274 		20
v -2.8117 		-6.7615 		21
v -1.7832 		-5.9486 		4
v -1.2611 		-1.9829 		4
v -1.7832 		-5.9487 		2
v -2.0442 		-7.9316 		3
v -2.0442 		-7.9316 		20
v -1.9137 		-6.9401 		21
v -1 		-6 		4
v -1 		-2 		4
v -1 		-6 		2
v -1 		-8 		3
v -1 		-8 		20
v -1 		-7 		21
v -0.2168 		-5.9486 		4
v -0.7389 		-1.9829 		4
v -0.2168 		-5.9487 		2
v 0.0442 		-7.9316 		3
v 0.0442 		-7.9316 		20
v -0.0863 		-6.9401 		21
v 0.5529 		-5.7955 		4
v -0.4824 		-1.9319 		4
v 0.5529 		-5.7956 		2
v 1.0706 		-7.7274 		3
v 1.0706 		-7.7274 		20
v 0.8117 		-6.7615 		21
v 1.2961 		-5.5432 		4
v -0.2346 		-1.8478 		4
v 1.2961 		-5.5433 		2
v 2.0615 		-7.3911 		3
v 2.0615 		-7.3911 		20
v 1.6788 		-6.4671 		21
v 2 		-5.1961 		4
v 0 		-1.7321 		4
v 2 		-5.1962 		2
v 3 		-6.9282 		3
v 3 		-6.9282 		20
v 2.5 		-6.0622 		21
v 2.6526 		-4.7601 		4
v 0.2175 		-1.5867 		4
v 2.6526 		-4.7601 		2
v 3.8701 		-6.3469 		3
v 3.8701 		-6.3469 		20
v 3.2613 		-5.5535 		21
v 3.2426 		-4.2426 		4
v 0.4142 		-1.4142 		4
v 3.2426 		-4.2426 		2
v 4.6569 		-5.6569 		3
v 4.6569 		-5.6569 		20
v 3.9497 		-4.9497 		21
v 3.7601 		-3.6526 		4
v 0.5867 		-1.2175 		4
v 3.7601 		-3.6526 		2
v 5.3469 		-4.8701 		3
v 5.3469 		-4.8701 		20
v 4.5535 		-4.2613 		21
v 4.1961 		-3 		4
v 0.7321 		-1 		4
v 4.1962 		-3 		2
v 5.9282 		-4 		3
v 5.9282 		-4 		20
v 5.0622 		-3.5 		21
v 4.5432 		-2.2961 		4
v 0.8478 		-0.7654 		4
v 4.5433 		-2.2961 		2
v 6.3911 		-3.0615 		3
v 6.3911 		-3.0615 		20
v 5.4671 		-2.6788 		21
v 4.7955 		-1.5529 		4
v 0.9319 		-0.5176 		4
v 4.7956 		-1.5529 		2
v 6.7274 		-2.0706 		3
v 6.7274 		-2.0706 		20
v 5.7615 		-1.8117 		21
v 4.9486 		-0.7832 		4
v 0.9829 		-0.2611 		4
v 4.9487 		-0.7832 		2
v 6.9316 		-1.0442 		3
v 6.9316 		-1.0442 		20
v 5.9401 		-0.9137 		21
v 5 		0 		4
v 1 		0 		4
v 5 		0 		2
v 7 		0 		3
v 7 		0 		20
v 6 		0 		21
v 4.9486 		0.7832 		4
v 0.9829 		0.2611 		4
v 4.9487 		0.7832 		2
v 6.9316 		1.0442 		3
v 6.9316 		1.0442 		20
v 5.9401 		0.9137 		21
v 4.7955 		1.5529 		4
v 0.9319 		0.5176 		4
v 4.7956 		1.5529 		2
v 6.7274 		2.0706 		3
v 6.7274 		2.0706 		20
v 5.7615 		1.8117 		21
v 4.5432 		2.2961 		4
v 0.8478 		0.7654 		4
v 4.5433 		2.2961 		2
v 6.3911 		3.0615 		3
v 6.3911 		3.0615 		20
v 5.4671 		2.6788 		21
v 4.1961 		3 		4
v 0.7321 		1 		4
v 4.1962 		3 		2
v 5.9282 		4 		3
v 5.9282 		4 		20
v 5.0622 		3.5 		21
v 3.7601 		3.6526 		4
v 0.5867 		1.2175 		4
v 3.7601 		3.6526 		2
v 5.3469 		4.8701 		3
v 5.3469 		4.8701 		20
v 4.5535 		4.2613 		21
v 3.2426 		4.2426 		4
v 0.4142 		1.4142 		4
v 3.2426 		4.2426 		2
v 4.6569 		5.6569 		3
v 4.6569 		5.6569 		20
v 3.9497 		4.9497 		21
v 2.6526 		4.7601 		4
v 0.2175 		1.5867 		4
v 2.6526 		4.7601 		2
v 3.8701 		6.3469 		3
v 3.8701 		6.3469 		20
v 3.2613 		5.5535 		21
v 2 		5.1961 		4
v 0 		1.7321 		4
v 2 		5.1962 		2
v 3 		6.9282 		3
v 3 		6.9282 		20
v 2.5 		6.0622 		21
v 1.2961 		5.5432 		4
v -0.2346 		1.8478 		4
v 1.2961 		5.5433 		2
v 2.0615 		7.3911 		3
v 2.0615 		7.3911 		20
v 1.6788 		6.4671 		21
v 0.5529 		5.7955 		4
v -0.4824 		1.9319 		4
v 0.5529 		5.7956 		2
v 1.0706 		7.7274 		3
v 1.0706 		7.7274 		20
v 0.8117 		6.7615 		21
v -0.2168 		5.9486 		4
v -0.7389 		1.9829 		4
v -0.2168 		5.9487 		2
v 0.0442 		7.9316 		3
v 0.0442 		7.9316 		20
v -0.0863 		6.9401 		21
# 290 vertices

g group_1_14789940

usemtl color_14789940
s 0

f 1033 	1034 	1035
f 1034 	1036 	1035
f 1035 	1036 	1037
f 1038 	1039 	1040
f 1040 	1039 	1041
f 1039 	1042 	1041
f 1041 	1042 	1043
f 1042 	1044 	1043
f 1043 	1044 	1045
f 1044 	1046 	1045
f 1045 	1046 	1033
f 1046 	1034 	1033
f 1034 	1047 	1036
f 1047 	1048 	1036
f 1036 	1048 	1037
f 1038 	1049 	1039
f 1039 	1049 	1042
f 1049 	1050 	1042
f 1042 	1050 	1044
f 1050 	1051 	1044
f 1044 	1051 	1046
f 1051 	1052 	1046
f 1046 	1052 	1034
f 1052 	1047 	1034
f 1047 	1053 	1048
f 1053 	1054 	1048
f 1048 	1054 	1037
f 1038 	1055 	1049
f 1049 	1055 	1050
f 1055 	1056 	1050
f 1050 	1056 	1051
f 1056 	1057 	1051
f 1051 	1057 	1052
f 1057 	1058 	1052
f 1052 	1058 	1047
f 1058 	1053 	1047
f 1053 	1059 	1054
f 1059 	1060 	1054
f 1054 	1060 	1037
f 1038 	1061 	1055
f 1055 	1061 	1056
f 1061 	1062 	1056
f 1056 	1062 	1057
f 1062 	1063 	1057
f 1057 	1063 	1058
f 1063 	1064 	1058
f 1058 	1064 	1053
f 1064 	1059 	1053
f 1059 	1065 	1060
f 1065 	1066 	1060
f 1060 	1066 	1037
f 1038 	1067 	1061
f 1061 	1067 	1062
f 1067 	1068 	1062
f 1062 	1068 	1063
f 1068 	1069 	1063
f 1063 	1069 	1064
f 1069 	1070 	1064
f 1064 	1070 	1059
f 1070 	1065 	1059
f 1065 	1071 	1066
f 1071 	1072 	1066
f 1066 	1072 	1037
f 1038 	1073 	1067
f 1067 	1073 	1068
f 1073 	1074 	1068
f 1068 	1074 	1069
f 1074 	1075 	1069
f 1069 	1075 	1070
f 1075 	1076 	1070
f 1070 	1076 	1065
f 1076 	1071 	1065
f 1071 	1077 	1072
f 1077 	1078 	1072
f 1072 	1078 	1037
f 1038 	1079 	1073
f 1073 	1079 	1074
f 1079 	1080 	1074
f 1074 	1080 	1075
f 1080 	1081 	1075
f 1075 	1081 	1076
f 1081 	1082 	1076
f 1076 	1082 	1071
f 1082 	1077 	1071
f 1077 	1083 	1078
f 1083 	1084 	1078
f 1078 	1084 	1037
f 1038 	1085 	1079
f 1079 	1085 	1080
f 1085 	1086 	1080
f 1080 	1086 	1081
f 1086 	1087 	1081
f 1081 	1087 	1082
f 1087 	1088 	1082
f 1082 	1088 	1077
f 1088 	1083 	1077
f 1083 	1089 	1084
f 1089 	1090 	1084
f 1084 	1090 	1037
f 1038 	1091 	1085
f 1085 	1091 	1086
f 1091 	1092 	1086
f 1086 	1092 	1087
f 1092 	1093 	1087
f 1087 	1093 	1088
f 1093 	1094 	1088
f 1088 	1094 	1083
f 1094 	1089 	1083
f 1089 	1095 	1090
f 1095 	1096 	1090
f 1090 	1096 	1037
f 1038 	1097 	1091
f 1091 	1097 	1092
f 1097 	1098 	1092
f 1092 	1098 	1093
f 1098 	1099 	1093
f 1093 	1099 	1094
f 1099 	1100 	1094
f 1094 	1100 	1089
f 1100 	1095 	1089
f 1095 	1101 	1096
f 1101 	1102 	1096
f 1096 	1102 	1037
f 1038 	1103 	1097
f 1097 	1103 	1098
f 1103 	1104 	1098
f 1098 	1104 	1099
f 1104 	1105 	1099
f 1099 	1105 	1100
f 1105 	1106 	1100
f 1100 	1106 	1095
f 1106 	1101 	1095
f 1101 	1107 	1102
f 1107 	1108 	1102
f 1102 	1108 	1037
f 1038 	1109 	1103
f 1103 	1109 	1104
f 1109 	1110 	1104
f 1104 	1110 	1105
f 1110 	1111 	1105
f 1105 	1111 	1106
f 1111 	1112 	1106
f 1106 	1112 	1101
f 1112 	1107 	1101
f 1107 	1113 	1108
f 1113 	1114 	1108
f 1108 	1114 	1037
f 1038 	1115 	1109
f 1109 	1115 	1110
f 1115 	1116 	1110
f 1110 	1116 	1111
f 1116 	1117 	1111
f 1111 	1117 	1112
f 1117 	1118 	1112
f 1112 	1118 	1107
f 1118 	1113 	1107
f 1113 	1119 	1114
f 1119 	1120 	1114
f 1114 	1120 	1037
f 1038 	1121 	1115
f 1115 	1121 	1116
f 1121 	1122 	1116
f 1116 	1122 	1117
f 1122 	1123 	1117
f 1117 	1123 	1118
f 1123 	1124 	1118
f 1118 	1124 	1113
f 1124 	1119 	1113
f 1119 	1125 	1120
f 1125 	1126 	1120
f 1120 	1126 	1037
f 1038 	1127 	1121
f 1121 	1127 	1122
f 1127 	1128 	1122
f 1122 	1128 	1123
f 1128 	1129 	1123
f 1123 	1129 	1124
f 1129 	1130 	1124
f 1124 	1130 	1119
f 1130 	1125 	1119
f 1125 	1131 	1126
f 1131 	1132 	1126
f 1126 	1132 	1037
f 1038 	1133 	1127
f 1127 	1133 	1128
f 1133 	1134 	1128
f 1128 	1134 	1129
f 1134 	1135 	1129
f 1129 	1135 	1130
f 1135 	1136 	1130
f 1130 	1136 	1125
f 1136 	1131 	1125
f 1131 	1137 	1132
f 1137 	1138 	1132
f 1132 	1138 	1037
f 1038 	1139 	1133
f 1133 	1139 	1134
f 1139 	1140 	1134
f 1134 	1140 	1135
f 1140 	1141 	1135
f 1135 	1141 	1136
f 1141 	1142 	1136
f 1136 	1142 	1131
f 1142 	1137 	1131
f 1137 	1143 	1138
f 1143 	1144 	1138
f 1138 	1144 	1037
f 1038 	1145 	1139
f 1139 	1145 	1140
f 1145 	1146 	1140
f 1140 	1146 	1141
f 1146 	1147 	1141
f 1141 	1147 	1142
f 1147 	1148 	1142
f 1142 	1148 	1137
f 1148 	1143 	1137
f 1143 	1149 	1144
f 1149 	1150 	1144
f 1144 	1150 	1037
f 1038 	1151 	1145
f 1145 	1151 	1146
f 1151 	1152 	1146
f 1146 	1152 	1147
f 1152 	1153 	1147
f 1147 	1153 	1148
f 1153 	1154 	1148
f 1148 	1154 	1143
f 1154 	1149 	1143
f 1149 	1155 	1150
f 1155 	1156 	1150
f 1150 	1156 	1037
f 1038 	1157 	1151
f 1151 	1157 	1152
f 1157 	1158 	1152
f 1152 	1158 	1153
f 1158 	1159 	1153
f 1153 	1159 	1154
f 1159 	1160 	1154
f 1154 	1160 	1149
f 1160 	1155 	1149
f 1155 	1161 	1156
f 1161 	1162 	1156
f 1156 	1162 	1037
f 1038 	1163 	1157
f 1157 	1163 	1158
f 1163 	1164 	1158
f 1158 	1164 	1159
f 1164 	1165 	1159
f 1159 	1165 	1160
f 1165 	1166 	1160
f 1160 	1166 	1155
f 1166 	1161 	1155
f 1161 	1167 	1162
f 1167 	1168 	1162
f 1162 	1168 	1037
f 1038 	1169 	1163
f 1163 	1169 	1164
f 1169 	1170 	1164
f 1164 	1170 	1165
f 1170 	1171 	1165
f 1165 	1171 	1166
f 1171 	1172 	1166
f 1166 	1172 	1161
f 1172 	1167 	1161
f 1167 	1173 	1168
f 1173 	1174 	1168
f 1168 	1174 	1037
f 1038 	1175 	1169
f 1169 	1175 	1170
f 1175 	1176 	1170
f 1170 	1176 	1171
f 1176 	1177 	1171
f 1171 	1177 	1172
f 1177 	1178 	1172
f 1172 	1178 	1167
f 1178 	1173 	1167
f 1173 	1179 	1174
f 1179 	1180 	1174
f 1174 	1180 	1037
f 1038 	1181 	1175
f 1175 	1181 	1176
f 1181 	1182 	1176
f 1176 	1182 	1177
f 1182 	1183 	1177
f 1177 	1183 	1178
f 1183 	1184 	1178
f 1178 	1184 	1173
f 1184 	1179 	1173
f 1179 	1185 	1180
f 1185 	1186 	1180
f 1180 	1186 	1037
f 1038 	1187 	1181
f 1181 	1187 	1182
f 1187 	1188 	1182
f 1182 	1188 	1183
f 1188 	1189 	1183
f 1183 	1189 	1184
f 1189 	1190 	1184
f 1184 	1190 	1179
f 1190 	1185 	1179
f 1185 	1191 	1186
f 1191 	1192 	1186
f 1186 	1192 	1037
f 1038 	1193 	1187
f 1187 	1193 	1188
f 1193 	1194 	1188
f 1188 	1194 	1189
f 1194 	1195 	1189
f 1189 	1195 	1190
f 1195 	1196 	1190
f 1190 	1196 	1185
f 1196 	1191 	1185
f 1191 	1197 	1192
f 1197 	1198 	1192
f 1192 	1198 	1037
f 1038 	1199 	1193
f 1193 	1199 	1194
f 1199 	1200 	1194
f 1194 	1200 	1195
f 1200 	1201 	1195
f 1195 	1201 	1196
f 1201 	1202 	1196
f 1196 	1202 	1191
f 1202 	1197 	1191
f 1197 	1203 	1198
f 1203 	1204 	1198
f 1198 	1204 	1037
f 1038 	1205 	1199
f 1199 	1205 	1200
f 1205 	1206 	1200
f 1200 	1206 	1201
f 1206 	1207 	1201
f 1201 	1207 	1202
f 1207 	1208 	1202
f 1202 	1208 	1197
f 1208 	1203 	1197
f 1203 	1209 	1204
f 1209 	1210 	1204
f 1204 	1210 	1037
f 1038 	1211 	1205
f 1205 	1211 	1206
f 1211 	1212 	1206
f 1206 	1212 	1207
f 1212 	1213 	1207
f 1207 	1213 	1208
f 1213 	1214 	1208
f 1208 	1214 	1203
f 1214 	1209 	1203
f 1209 	1215 	1210
f 1215 	1216 	1210
f 1210 	1216 	1037
f 1038 	1217 	1211
f 1211 	1217 	1212
f 1217 	1218 	1212
f 1212 	1218 	1213
f 1218 	1219 	1213
f 1213 	1219 	1214
f 1219 	1220 	1214
f 1214 	1220 	1209
f 1220 	1215 	1209
f 1215 	1221 	1216
f 1221 	1222 	1216
f 1216 	1222 	1037
f 1038 	1223 	1217
f 1217 	1223 	1218
f 1223 	1224 	1218
f 1218 	1224 	1219
f 1224 	1225 	1219
f 1219 	1225 	1220
f 1225 	1226 	1220
f 1220 	1226 	1215
f 1226 	1221 	1215
f 1221 	1227 	1222
f 1227 	1228 	1222
f 1222 	1228 	1037
f 1038 	1229 	1223
f 1223 	1229 	1224
f 1229 	1230 	1224
f 1224 	1230 	1225
f 1230 	1231 	1225
f 1225 	1231 	1226
f 1231 	1232 	1226
f 1226 	1232 	1221
f 1232 	1227 	1221
f 1227 	1233 	1228
f 1233 	1234 	1228
f 1228 	1234 	1037
f 1038 	1235 	1229
f 1229 	1235 	1230
f 1235 	1236 	1230
f 1230 	1236 	1231
f 1236 	1237 	1231
f 1231 	1237 	1232
f 1237 	1238 	1232
f 1232 	1238 	1227
f 1238 	1233 	1227
f 1233 	1239 	1234
f 1239 	1240 	1234
f 1234 	1240 	1037
f 1038 	1241 	1235
f 1235 	1241 	1236
f 1241 	1242 	1236
f 1236 	1242 	1237
f 1242 	1243 	1237
f 1237 	1243 	1238
f 1243 	1244 	1238
f 1238 	1244 	1233
f 1244 	1239 	1233
f 1239 	1245 	1240
f 1245 	1246 	1240
f 1240 	1246 	1037
f 1038 	1247 	1241
f 1241 	1247 	1242
f 1247 	1248 	1242
f 1242 	1248 	1243
f 1248 	1249 	1243
f 1243 	1249 	1244
f 1249 	1250 	1244
f 1244 	1250 	1239
f 1250 	1245 	1239
f 1245 	1251 	1246
f 1251 	1252 	1246
f 1246 	1252 	1037
f 1038 	1253 	1247
f 1247 	1253 	1248
f 1253 	1254 	1248
f 1248 	1254 	1249
f 1254 	1255 	1249
f 1249 	1255 	1250
f 1255 	1256 	1250
f 1250 	1256 	1245
f 1256 	1251 	1245
f 1251 	1257 	1252
f 1257 	1258 	1252
f 1252 	1258 	1037
f 1038 	1259 	1253
f 1253 	1259 	1254
f 1259 	1260 	1254
f 1254 	1260 	1255
f 1260 	1261 	1255
f 1255 	1261 	1256
f 1261 	1262 	1256
f 1256 	1262 	1251
f 1262 	1257 	1251
f 1257 	1263 	1258
f 1263 	1264 	1258
f 1258 	1264 	1037
f 1038 	1265 	1259
f 1259 	1265 	1260
f 1265 	1266 	1260
f 1260 	1266 	1261
f 1266 	1267 	1261
f 1261 	1267 	1262
f 1267 	1268 	1262
f 1262 	1268 	1257
f 1268 	1263 	1257
f 1263 	1269 	1264
f 1269 	1270 	1264
f 1264 	1270 	1037
f 1038 	1271 	1265
f 1265 	1271 	1266
f 1271 	1272 	1266
f 1266 	1272 	1267
f 1272 	1273 	1267
f 1267 	1273 	1268
f 1273 	1274 	1268
f 1268 	1274 	1263
f 1274 	1269 	1263
f 1269 	1275 	1270
f 1275 	1276 	1270
f 1270 	1276 	1037
f 1038 	1277 	1271
f 1271 	1277 	1272
f 1277 	1278 	1272
f 1272 	1278 	1273
f 1278 	1279 	1273
f 1273 	1279 	1274
f 1279 	1280 	1274
f 1274 	1280 	1269
f 1280 	1275 	1269
f 1275 	1281 	1276
f 1281 	1282 	1276
f 1276 	1282 	1037
f 1038 	1283 	1277
f 1277 	1283 	1278
f 1283 	1284 	1278
f 1278 	1284 	1279
f 1284 	1285 	1279
f 1279 	1285 	1280
f 1285 	1286 	1280
f 1280 	1286 	1275
f 1286 	1281 	1275
f 1281 	1287 	1282
f 1287 	1288 	1282
f 1282 	1288 	1037
f 1038 	1289 	1283
f 1283 	1289 	1284
f 1289 	1290 	1284
f 1284 	1290 	1285
f 1290 	1291 	1285
f 1285 	1291 	1286
f 1291 	1292 	1286
f 1286 	1292 	1281
f 1292 	1287 	1281
f 1287 	1293 	1288
f 1293 	1294 	1288
f 1288 	1294 	1037
f 1038 	1295 	1289
f 1289 	1295 	1290
f 1295 	1296 	1290
f 1290 	1296 	1291
f 1296 	1297 	1291
f 1291 	1297 	1292
f 1297 	1298 	1292
f 1292 	1298 	1287
f 1298 	1293 	1287
f 1293 	1299 	1294
f 1299 	1300 	1294
f 1294 	1300 	1037
f 1038 	1301 	1295
f 1295 	1301 	1296
f 1301 	1302 	1296
f 1296 	1302 	1297
f 1302 	1303 	1297
f 1297 	1303 	1298
f 1303 	1304 	1298
f 1298 	1304 	1293
f 1304 	1299 	1293
f 1299 	1305 	1300
f 1305 	1306 	1300
f 1300 	1306 	1037
f 1038 	1307 	1301
f 1301 	1307 	1302
f 1307 	1308 	1302
f 1302 	1308 	1303
f 1308 	1309 	1303
f 1303 	1309 	1304
f 1309 	1310 	1304
f 1304 	1310 	1299
f 1310 	1305 	1299
f 1305 	1311 	1306
f 1311 	1312 	1306
f 1306 	1312 	1037
f 1038 	1313 	1307
f 1307 	1313 	1308
f 1313 	1314 	1308
f 1308 	1314 	1309
f 1314 	1315 	1309
f 1309 	1315 	1310
f 1315 	1316 	1310
f 1310 	1316 	1305
f 1316 	1311 	1305
f 1311 	1317 	1312
f 1317 	1318 	1312
f 1312 	1318 	1037
f 1038 	1319 	1313
f 1313 	1319 	1314
f 1319 	1320 	1314
f 1314 	1320 	1315
f 1320 	1321 	1315
f 1315 	1321 	1316
f 1321 	1322 	1316
f 1316 	1322 	1311
f 1322 	1317 	1311
f 1317 	1033 	1318
f 1033 	1035 	1318
f 1318 	1035 	1037
f 1038 	1040 	1319
f 1319 	1040 	1320
f 1040 	1041 	1320
f 1320 	1041 	1321
f 1041 	1043 	1321
f 1321 	1043 	1322
f 1043 	1045 	1322
f 1322 	1045 	1317
f 1045 	1033 	1317
# 576 faces

 #end of obj_1

